<svg width="16" height="16" viewBox="0 0 16 16" fill="none" xmlns="http://www.w3.org/2000/svg">
<g clip-path="url(#clip0_274_2354)">
<path d="M9 15.25V4.25001C9 3.76175 8.9981 3.58999 8.98047 3.45606C8.84744 2.44665 8.05336 1.65257 7.04395 1.51954C6.91002 1.50191 6.73826 1.50001 6.25 1.50001C5.83579 1.50001 5.5 1.16422 5.5 0.750009C5.5 0.335795 5.83579 9.05252e-06 6.25 9.05252e-06C6.69047 9.05252e-06 6.98333 -0.00143734 7.23926 0.0322356C8.92201 0.253774 10.2462 1.578 10.4678 3.26075C10.5014 3.51668 10.5 3.80954 10.5 4.25001V15.25C10.5 15.6642 10.1642 16 9.75 16C9.33579 16 9 15.6642 9 15.25Z" fill="white"/>
</g>
<defs>
<clipPath id="clip0_274_2354">
<rect width="16" height="16" fill="white"/>
</clipPath>
</defs>
</svg>
