<svg width="16" height="16" viewBox="0 0 16 16" fill="none" xmlns="http://www.w3.org/2000/svg">
<g clip-path="url(#clip0_274_2356)">
<path d="M0.750024 11.2851C0.750024 10.786 0.747479 10.4535 0.795159 10.1647C1.03243 8.72856 2.15827 7.60272 3.59444 7.36545C3.88323 7.31777 4.21571 7.32032 4.71485 7.32032H11.2851C11.8381 7.32032 12.0324 7.31779 12.1834 7.29288C13.0453 7.15058 13.7209 6.47502 13.8632 5.61314C13.8881 5.46207 13.8906 5.26786 13.8906 4.71485C13.8906 4.16185 13.8881 3.96764 13.8632 3.81657C13.7209 2.95469 13.0453 2.27913 12.1834 2.13683C12.0324 2.11192 11.8381 2.10939 11.2851 2.10939H1.42971C1.05433 2.10939 0.750024 1.80509 0.750024 1.42971C0.750024 1.05433 1.05433 0.750024 1.42971 0.750024H11.2851C11.7843 0.750024 12.1168 0.747479 12.4056 0.795159C13.8417 1.03243 14.9676 2.15827 15.2048 3.59444C15.2525 3.88323 15.25 4.21571 15.25 4.71485C15.25 5.214 15.2525 5.54648 15.2048 5.83527C14.9676 7.27144 13.8417 8.39728 12.4056 8.63455C12.1168 8.68223 11.7843 8.67969 11.2851 8.67969H4.71485C4.16185 8.67969 3.96764 8.68221 3.81657 8.70712C2.95469 8.84942 2.27913 9.52498 2.13683 10.3869C2.11192 10.5379 2.10939 10.7321 2.10939 11.2851C2.10939 11.8381 2.11192 12.0324 2.13683 12.1834C2.27913 13.0453 2.95469 13.7209 3.81657 13.8632C3.96764 13.8881 4.16185 13.8906 4.71485 13.8906H14.5703L14.6402 13.8941C14.9827 13.9291 15.25 14.2185 15.25 14.5703C15.25 14.9221 14.9827 15.2114 14.6402 15.2464L14.5703 15.25H4.71485C4.21571 15.25 3.88323 15.2525 3.59444 15.2048C2.15827 14.9676 1.03243 13.8417 0.795159 12.4056C0.747479 12.1168 0.750024 11.7843 0.750024 11.2851Z" fill="white"/>
</g>
<defs>
<clipPath id="clip0_274_2356">
<rect width="16" height="16" fill="white"/>
</clipPath>
</defs>
</svg>
