<svg width="16" height="16" viewBox="0 0 16 16" fill="none" xmlns="http://www.w3.org/2000/svg">
<g clip-path="url(#clip0_274_2358)">
<path d="M13.8906 10.7453V10.3568C13.8906 10.2095 13.8902 10.1588 13.8879 10.1125C13.8608 9.56397 13.6134 9.04971 13.202 8.68588C13.1995 8.68368 13.1966 8.68192 13.1941 8.67968H1.42968C1.05431 8.67968 0.75 8.37538 0.75 8C0.75 7.62462 1.05431 7.32032 1.42968 7.32032H13.1941C13.1966 7.31808 13.1995 7.31632 13.202 7.31412C13.6134 6.95029 13.8608 6.43603 13.8879 5.8875C13.8902 5.84121 13.8906 5.79046 13.8906 5.64324V5.25472C13.8906 4.17119 13.8816 3.79356 13.787 3.50773C13.5844 2.89566 13.1043 2.4156 12.4923 2.21297C12.2064 2.11834 11.8282 2.10942 10.7444 2.10942H1.42968C1.05431 2.10942 0.75 1.80512 0.75 1.42974C0.75 1.05436 1.05431 0.750059 1.42968 0.750059H10.7444C11.7205 0.750059 12.3733 0.741747 12.9197 0.922634C13.9397 1.26037 14.7396 2.06033 15.0774 3.08027C15.2582 3.62657 15.2499 4.27883 15.2499 5.25472V5.64324C15.2499 5.77708 15.2498 5.86706 15.2455 5.95476C15.2081 6.71282 14.9174 7.4308 14.4287 8C14.9174 8.5692 15.2081 9.28718 15.2455 10.0452C15.2498 10.1329 15.2499 10.2229 15.2499 10.3568V10.7453C15.2499 11.7212 15.2582 12.3734 15.0774 12.9197C14.7396 13.9397 13.9397 14.7396 12.9197 15.0774C12.3734 15.2582 11.7212 15.2499 10.7453 15.2499H1.42968C1.05431 15.2499 0.75 14.9456 0.75 14.5703C0.75 14.1949 1.05431 13.8906 1.42968 13.8906H10.7453C11.8288 13.8906 12.2064 13.8817 12.4923 13.787C13.1043 13.5844 13.5844 13.1043 13.787 12.4923C13.8816 12.2064 13.8906 11.8288 13.8906 10.7453Z" fill="white"/>
</g>
<defs>
<clipPath id="clip0_274_2358">
<rect width="16" height="16" fill="white"/>
</clipPath>
</defs>
</svg>
