<svg width="16" height="16" viewBox="0 0 16 16" fill="none" xmlns="http://www.w3.org/2000/svg">
<g clip-path="url(#clip0_274_2360)">
<path d="M13.8906 14.5703V8.67969H5.77951C5.02951 8.67969 4.4261 8.68057 3.93869 8.64075C3.44333 8.60027 3.00842 8.51397 2.60587 8.30887C1.96641 7.98305 1.44664 7.46328 1.12082 6.82382C0.91572 6.42127 0.829413 5.98636 0.78894 5.491C0.769026 5.24723 0.75927 4.97444 0.754425 4.66882L0.75 3.65018V1.42969C0.75 1.05431 1.05431 0.75 1.42969 0.75C1.80507 0.75 2.10938 1.05431 2.10938 1.42969V3.65018L2.1138 4.64758C2.11821 4.93121 2.12676 5.17073 2.14389 5.38037C2.1775 5.79165 2.24032 6.02798 2.33151 6.20697C2.527 6.59064 2.83904 6.90268 3.22272 7.09818C3.40171 7.18937 3.63804 7.25219 4.04932 7.2858C4.46854 7.32005 5.00707 7.32031 5.77951 7.32031H13.8906V1.42969C13.8906 1.05431 14.1949 0.75 14.5703 0.75C14.9457 0.75 15.25 1.05431 15.25 1.42969V14.5703C15.25 14.9457 14.9457 15.25 14.5703 15.25C14.1949 15.25 13.8906 14.9457 13.8906 14.5703Z" fill="white"/>
</g>
<defs>
<clipPath id="clip0_274_2360">
<rect width="16" height="16" fill="white"/>
</clipPath>
</defs>
</svg>
