<svg width="16" height="16" viewBox="0 0 16 16" fill="none" xmlns="http://www.w3.org/2000/svg">
<g clip-path="url(#clip0_274_2362)">
<path d="M13.8906 11.2851C13.8906 10.7321 13.8881 10.5379 13.8632 10.3869C13.7209 9.52498 13.0453 8.84942 12.1834 8.70712C12.0324 8.68221 11.8381 8.67969 11.2851 8.67969H4.71485C4.21571 8.67969 3.88323 8.68223 3.59444 8.63455C2.15827 8.39728 1.03243 7.27144 0.795159 5.83527C0.747479 5.54648 0.750024 5.214 0.750024 4.71485C0.750024 4.21571 0.747479 3.88323 0.795159 3.59444C1.03243 2.15827 2.15827 1.03243 3.59444 0.795159C3.88323 0.747479 4.21571 0.750024 4.71485 0.750024H14.5703L14.6402 0.753564C14.9827 0.788564 15.25 1.07793 15.25 1.42971C15.25 1.78148 14.9827 2.07085 14.6402 2.10585L14.5703 2.10939H4.71485C4.16185 2.10939 3.96764 2.11192 3.81657 2.13683C2.95469 2.27913 2.27913 2.95469 2.13683 3.81657C2.11192 3.96764 2.10939 4.16185 2.10939 4.71485C2.10939 5.26786 2.11192 5.46207 2.13683 5.61314C2.27913 6.47502 2.95469 7.15058 3.81657 7.29288C3.96764 7.31779 4.16185 7.32032 4.71485 7.32032H11.2851C11.7843 7.32032 12.1168 7.31777 12.4056 7.36545C13.8417 7.60272 14.9676 8.72856 15.2048 10.1647C15.2525 10.4535 15.25 10.786 15.25 11.2851C15.25 11.7843 15.2525 12.1168 15.2048 12.4056C14.9676 13.8417 13.8417 14.9676 12.4056 15.2048C12.1168 15.2525 11.7843 15.25 11.2851 15.25H1.42971C1.05433 15.25 0.750024 14.9457 0.750024 14.5703C0.750024 14.1949 1.05433 13.8906 1.42971 13.8906H11.2851C11.8381 13.8906 12.0324 13.8881 12.1834 13.8632C13.0453 13.7209 13.7209 13.0453 13.8632 12.1834C13.8881 12.0324 13.8906 11.8381 13.8906 11.2851Z" fill="white"/>
</g>
<defs>
<clipPath id="clip0_274_2362">
<rect width="16" height="16" fill="white"/>
</clipPath>
</defs>
</svg>
