<svg width="16" height="16" viewBox="0 0 16 16" fill="none" xmlns="http://www.w3.org/2000/svg">
<g clip-path="url(#clip0_274_2364)">
<path d="M0.750002 10.2205V5.7795C0.750001 5.02951 0.749123 4.42609 0.788942 3.93869C0.829415 3.44332 0.915722 3.00842 1.12082 2.60586C1.44664 1.96641 1.96641 1.44664 2.60586 1.12082C3.00842 0.915721 3.44332 0.829415 3.93869 0.788942C4.42609 0.749123 5.02951 0.750001 5.7795 0.750002H12.6932L12.7622 0.753542C13.1051 0.788196 13.3729 1.07766 13.3729 1.42969C13.3729 1.78172 13.1051 2.07118 12.7622 2.10583L12.6932 2.10937H5.7795C5.00706 2.10937 4.46854 2.10964 4.04931 2.14389C3.63803 2.17749 3.4017 2.24032 3.22271 2.33151C2.83904 2.527 2.527 2.83904 2.33151 3.22271C2.24032 3.4017 2.17749 3.63804 2.14389 4.04931C2.10964 4.46854 2.10937 5.00706 2.10937 5.7795V7.3203H11.2851C11.7843 7.3203 12.1168 7.31776 12.4056 7.36544C13.8417 7.60271 14.9676 8.72855 15.2048 10.1647C15.2525 10.4535 15.25 10.786 15.25 11.2851C15.25 11.7843 15.2525 12.1168 15.2048 12.4056C14.9676 13.8417 13.8417 14.9676 12.4056 15.2048C12.1168 15.2525 11.7843 15.25 11.2851 15.25H5.7795C5.02951 15.25 4.42609 15.2509 3.93869 15.211C3.44332 15.1706 3.00842 15.0843 2.60586 14.8792C1.96641 14.5533 1.44664 14.0336 1.12082 13.3941C0.915721 12.9916 0.829415 12.5567 0.788942 12.0613C0.769027 11.8175 0.759271 11.5447 0.754427 11.2391L0.750002 10.2205ZM2.1138 11.2179C2.11821 11.5015 2.12676 11.741 2.14389 11.9507C2.17749 12.3619 2.24032 12.5983 2.33151 12.7773C2.527 13.1609 2.83904 13.473 3.22271 13.6685C3.4017 13.7597 3.63804 13.8225 4.04931 13.8561C4.46854 13.8903 5.00706 13.8906 5.7795 13.8906H11.2851C11.8381 13.8906 12.0324 13.8881 12.1834 13.8632C13.0453 13.7209 13.7209 13.0453 13.8632 12.1834C13.8881 12.0324 13.8906 11.8381 13.8906 11.2851C13.8906 10.7321 13.8881 10.5379 13.8632 10.3869C13.7209 9.52498 13.0453 8.84941 12.1834 8.70711C12.0324 8.6822 11.8381 8.67968 11.2851 8.67968H2.10937V10.2205L2.1138 11.2179Z" fill="white"/>
</g>
<defs>
<clipPath id="clip0_274_2364">
<rect width="16" height="16" fill="white"/>
</clipPath>
</defs>
</svg>
