<svg width="16" height="16" viewBox="0 0 16 16" fill="none" xmlns="http://www.w3.org/2000/svg">
<g clip-path="url(#clip0_274_2366)">
<path d="M7.10059 9.15534e-05C9.41136 9.15222e-05 11.192 -1.81273e-05 12.501 0.106537C13.1578 0.160012 13.7301 0.242696 14.21 0.378021C14.6886 0.513024 15.1242 0.713464 15.4619 1.03525C16.4006 1.92961 16.8112 3.24543 16.5469 4.51474C16.4518 4.97142 16.2068 5.38368 15.8896 5.76669C15.5717 6.15069 15.1478 6.54383 14.6377 6.96103C13.621 7.7925 12.1556 8.80422 10.2539 10.1173L1.92578 15.8673C1.58495 16.1024 1.11811 16.0166 0.882812 15.6759C0.647676 15.335 0.733448 14.8682 1.07422 14.6329L9.40137 8.8829C11.3262 7.55385 12.7307 6.58325 13.6885 5.7999C14.1654 5.40981 14.5052 5.08733 14.7344 4.81064C14.9642 4.53314 15.0508 4.33983 15.0781 4.20908C15.2367 3.4476 14.9908 2.6578 14.4277 2.12119C14.331 2.02907 14.1496 1.91923 13.8027 1.82138C13.457 1.72386 12.9941 1.65069 12.3799 1.60068C11.1466 1.50027 9.43959 1.50009 7.10059 1.50009H1.5C1.08579 1.50009 0.75 1.16431 0.75 0.750092C0.75 0.335878 1.08579 9.15534e-05 1.5 9.15534e-05H7.10059Z" fill="white"/>
</g>
<defs>
<clipPath id="clip0_274_2366">
<rect width="16" height="16" fill="white"/>
</clipPath>
</defs>
</svg>
