<svg width="16" height="16" viewBox="0 0 16 16" fill="none" xmlns="http://www.w3.org/2000/svg">
<g clip-path="url(#clip0_274_2370)">
<path d="M13.8879 10.1125C13.8608 9.56398 13.6134 9.04972 13.202 8.68588C13.1995 8.68368 13.1966 8.68192 13.1941 8.67969H2.80592C2.80336 8.68192 2.80044 8.68368 2.79795 8.68588C2.38656 9.04972 2.13918 9.56398 2.11208 10.1125C2.1098 10.1588 2.10942 10.2095 2.10942 10.3568V10.7453C2.10942 11.8288 2.11835 12.2064 2.21297 12.4923C2.4156 13.1043 2.89566 13.5844 3.50772 13.787C3.79355 13.8817 4.17119 13.8906 5.25472 13.8906H10.7444C11.8283 13.8906 12.2064 13.8817 12.4923 13.787C13.1043 13.5844 13.5844 13.1043 13.787 12.4923C13.8816 12.2064 13.8906 11.8288 13.8906 10.7453V10.3568C13.8906 10.2095 13.8902 10.1588 13.8879 10.1125ZM15.2499 10.7453C15.2499 11.7212 15.2582 12.3734 15.0774 12.9197C14.7396 13.9397 13.9397 14.7396 12.9197 15.0774C12.3733 15.2583 11.7205 15.2499 10.7444 15.2499H5.25472C4.27882 15.2499 3.62657 15.2582 3.08027 15.0774C2.06033 14.7396 1.26037 13.9397 0.922634 12.9197C0.741774 12.3734 0.750056 11.7212 0.750059 10.7453V10.3568C0.750059 10.2229 0.750151 10.1329 0.754484 10.0452C0.791935 9.28738 1.0819 8.56914 1.57046 8.00001C1.0819 7.43087 0.791935 6.71263 0.754484 5.95477C0.750151 5.86707 0.750059 5.77709 0.750059 5.64325V5.25473C0.750056 4.27884 0.741774 3.62658 0.922634 3.08028C1.26037 2.06034 2.06033 1.26039 3.08027 0.922646C3.62657 0.741786 4.27882 0.750068 5.25472 0.750071H10.7346C11.7198 0.750071 12.3785 0.741089 12.9295 0.925301C13.9417 1.26381 14.7362 2.05834 15.0747 3.07055C15.2589 3.62151 15.2499 4.2802 15.2499 5.26535V5.53262C15.2499 5.76136 15.2503 5.91528 15.2375 6.06539C15.1768 6.7799 14.8897 7.45329 14.4242 7.99381C14.916 8.56392 15.2079 9.28463 15.2455 10.0452C15.2498 10.1329 15.2499 10.2229 15.2499 10.3568V10.7453ZM2.10942 5.64325C2.10942 5.79046 2.1098 5.84122 2.11208 5.88751C2.13918 6.43604 2.38656 6.9503 2.79795 7.31413C2.80044 7.31633 2.80336 7.31809 2.80592 7.32032H13.1834C13.241 7.26969 13.2752 7.23796 13.3065 7.20616C13.6389 6.86745 13.8433 6.4232 13.8835 5.95034C13.8902 5.87105 13.8906 5.78431 13.8906 5.53262V5.26535C13.8906 4.1714 13.8816 3.78981 13.7853 3.50154C13.5821 2.89439 13.1056 2.41787 12.4985 2.21475C12.2102 2.11837 11.8286 2.10943 10.7346 2.10943H5.25472C4.17119 2.10944 3.79355 2.11836 3.50772 2.21298C2.89566 2.41561 2.4156 2.89567 2.21297 3.50774C2.11835 3.79357 2.10942 4.1712 2.10942 5.25473V5.64325Z" fill="white"/>
</g>
<defs>
<clipPath id="clip0_274_2370">
<rect width="16" height="16" fill="white"/>
</clipPath>
</defs>
</svg>
