<svg width="16" height="16" viewBox="0 0 16 16" fill="none" xmlns="http://www.w3.org/2000/svg">
<g clip-path="url(#clip0_274_2372)">
<path d="M15.25 5.77953V10.2205C15.25 10.9705 15.2509 11.5739 15.2111 12.0613C15.1706 12.5567 15.0843 12.9916 14.8792 13.3941C14.5534 14.0336 14.0336 14.5534 13.3941 14.8792C12.9916 15.0843 12.5567 15.1706 12.0613 15.2111C11.5739 15.2509 10.9705 15.25 10.2205 15.25H1.42971L1.35979 15.2465C1.01726 15.2115 0.750024 14.9221 0.750024 14.5703C0.750024 14.2185 1.01726 13.9292 1.35979 13.8942L1.42971 13.8906H10.2205C10.9929 13.8906 11.5315 13.8904 11.9507 13.8561C12.362 13.8225 12.5983 13.7597 12.7773 13.6685C13.161 13.473 13.473 13.161 13.6685 12.7773C13.7597 12.5983 13.8225 12.362 13.8561 11.9507C13.8904 11.5315 13.8906 10.9929 13.8906 10.2205V8.6797H4.71486C4.21571 8.6797 3.88323 8.68224 3.59444 8.63456C2.15828 8.39729 1.03243 7.27145 0.795159 5.83528C0.747479 5.54649 0.750024 5.21401 0.750024 4.71486C0.750024 4.21571 0.747479 3.88323 0.795159 3.59444C1.03243 2.15828 2.15828 1.03243 3.59444 0.795159C3.88323 0.747479 4.21571 0.750024 4.71486 0.750024H10.2205C10.9705 0.750024 11.5739 0.749145 12.0613 0.788964C12.5567 0.829437 12.9916 0.915744 13.3941 1.12084C14.0336 1.44666 14.5534 1.96643 14.8792 2.60589C15.0843 3.00844 15.1706 3.44334 15.2111 3.93871C15.231 4.18247 15.2407 4.45527 15.2456 4.76088L15.25 5.77953ZM13.8862 4.78212C13.8818 4.49849 13.8732 4.25898 13.8561 4.04933C13.8225 3.63806 13.7597 3.40173 13.6685 3.22274C13.473 2.83906 13.161 2.52703 12.7773 2.33153C12.5983 2.24034 12.362 2.17752 11.9507 2.14391C11.5315 2.10966 10.9929 2.1094 10.2205 2.1094H4.71486C4.16186 2.1094 3.96764 2.11192 3.81658 2.13683C2.9547 2.27913 2.27913 2.9547 2.13683 3.81658C2.11192 3.96764 2.1094 4.16186 2.1094 4.71486C2.1094 5.26786 2.11192 5.46208 2.13683 5.61314C2.27913 6.47502 2.9547 7.15059 3.81658 7.29289C3.96764 7.3178 4.16186 7.32032 4.71486 7.32032H13.8906V5.77953L13.8862 4.78212Z" fill="white"/>
</g>
<defs>
<clipPath id="clip0_274_2372">
<rect width="16" height="16" fill="white"/>
</clipPath>
</defs>
</svg>
