<svg width="16" height="16" viewBox="0 0 16 16" fill="none" xmlns="http://www.w3.org/2000/svg">
<g clip-path="url(#clip0_274_2374)">
<path d="M10.4487 0.000490026C11.2764 0.000490026 11.9431 -0.000477713 12.481 0.0434588C13.0274 0.0881257 13.5076 0.183429 13.9517 0.40967C14.6571 0.769171 15.2308 1.34289 15.5903 2.04834C15.8166 2.49245 15.9109 2.97257 15.9556 3.51904C15.9995 4.05684 15.9995 4.72277 15.9995 5.55029V10.4487C15.9995 11.2764 15.9995 11.9431 15.9556 12.481C15.9109 13.0274 15.8166 13.5076 15.5903 13.9517C15.2308 14.6572 14.6572 15.2308 13.9517 15.5903C13.5075 15.8166 13.0274 15.9109 12.481 15.9556C11.9431 15.9995 11.2764 15.9995 10.4487 15.9995H5.55029C4.72274 15.9995 4.05686 15.9995 3.51904 15.9556C2.97255 15.9109 2.49247 15.8166 2.04834 15.5903C1.34288 15.2308 0.769175 14.6571 0.40967 13.9517C0.183439 13.5076 0.0881248 13.0274 0.0434588 12.481C-0.000472523 11.9431 0.000490026 11.2763 0.000490026 10.4487V5.55029C0.000489795 4.72279 -0.000476785 4.05684 0.0434588 3.51904C0.0881243 2.9725 0.183377 2.4925 0.40967 2.04834C0.769196 1.34278 1.34277 0.769179 2.04834 0.40967C2.49252 0.183367 2.97247 0.0881218 3.51904 0.0434588C4.05685 -0.000477996 4.72276 0.00048985 5.55029 0.000490026H10.4487ZM1.72217 2.78272C1.6352 2.97401 1.57246 3.2266 1.53858 3.64111C1.50078 4.10368 1.50049 4.69804 1.50049 5.55029V10.4487C1.50049 11.3011 1.50079 11.8963 1.53858 12.3589C1.57566 12.8124 1.64505 13.0736 1.74561 13.271C1.9613 13.6942 2.30579 14.0387 2.72901 14.2544C2.92647 14.355 3.18751 14.4234 3.64111 14.4605C4.10369 14.4982 4.698 14.4995 5.55029 14.4995H10.4487C11.3011 14.4995 11.8963 14.4982 12.3589 14.4605C12.7729 14.4266 13.0251 14.3635 13.2163 14.2769L1.72217 2.78272ZM5.55029 1.50049C4.698 1.50049 4.10369 1.50078 3.64111 1.53858C3.22662 1.57245 2.97401 1.63521 2.78272 1.72217L14.2769 13.2163C14.3635 13.0251 14.4266 12.7728 14.4605 12.3589C14.4982 11.8963 14.4995 11.3011 14.4995 10.4487V5.55029C14.4995 4.69804 14.4982 4.10368 14.4605 3.64111C14.4234 3.18755 14.355 2.92646 14.2544 2.72901C14.0387 2.30581 13.6942 1.9613 13.271 1.74561C13.0736 1.64504 12.8124 1.57566 12.3589 1.53858C11.8963 1.50079 11.3011 1.50049 10.4487 1.50049H5.55029Z" fill="white"/>
</g>
<defs>
<clipPath id="clip0_274_2374">
<rect width="16" height="16" fill="white"/>
</clipPath>
</defs>
</svg>
