<svg width="16" height="16" viewBox="0 0 16 16" fill="none" xmlns="http://www.w3.org/2000/svg">
<g clip-path="url(#clip0_274_2259)">
<rect x="0.75" y="0.75" width="14.5" height="14.5" rx="7.25" stroke="white" stroke-width="1.5"/>
<path d="M6.5 4.25C6.5 3.42157 7.17157 2.75 8 2.75V2.75C8.82843 2.75 9.5 3.42157 9.5 4.25V4.25C9.5 5.07843 8.82843 5.75 8 5.75V5.75C7.17157 5.75 6.5 5.07843 6.5 4.25V4.25Z" fill="white"/>
<path d="M11.1028 6.27672C11.5024 6.16773 11.9147 6.40348 12.0237 6.80309C12.1326 7.2027 11.8969 7.615 11.4973 7.72398L8.75021 8.47301V9.95445L10.9289 12.514L10.9758 12.5755C11.1913 12.8884 11.1395 13.3201 10.844 13.5716C10.5483 13.8233 10.1135 13.8055 9.83908 13.5423L9.78635 13.4867L8.00021 11.388L6.21408 13.4867L6.16135 13.5423C5.88703 13.8052 5.45307 13.8231 5.15744 13.5716C4.84202 13.3032 4.804 12.8294 5.07248 12.514L7.25021 9.95543V8.47301L4.50314 7.72398L4.4299 7.69957C4.07537 7.56291 3.87468 7.17759 3.97678 6.80309C4.07892 6.42854 4.44761 6.19783 4.82248 6.26012L4.89767 6.27672L8.00021 7.12242L11.1028 6.27672Z" fill="white"/>
</g>
<defs>
<clipPath id="clip0_274_2259">
<rect width="16" height="16" fill="white"/>
</clipPath>
</defs>
</svg>
