<svg width="16" height="16" viewBox="0 0 16 16" fill="none" xmlns="http://www.w3.org/2000/svg">
<g clip-path="url(#clip0_274_2490)">
<path d="M4.61984e-05 7.99999C4.61984e-05 7.1183 -0.00624415 6.5302 0.127976 6.02928C0.474754 4.73532 1.48538 3.72469 2.77934 3.37791C3.28026 3.24369 3.86836 3.24999 4.75005 3.24999H15.25L15.3272 3.25389C15.7052 3.29251 16 3.61182 16 3.99999C16 4.38815 15.7052 4.70746 15.3272 4.74608L15.25 4.74999H4.75005C3.772 4.74999 3.43008 4.75695 3.16802 4.82713C2.39156 5.03518 1.78525 5.6415 1.57719 6.41795C1.50701 6.68002 1.50005 7.02194 1.50005 7.99999C1.50005 8.97803 1.50701 9.31996 1.57719 9.58202C1.78525 10.3585 2.39156 10.9648 3.16802 11.1728C3.43008 11.243 3.772 11.25 4.75005 11.25H15.25L15.3272 11.2539C15.7052 11.2925 16 11.6118 16 12C16 12.3882 15.7052 12.7075 15.3272 12.7461L15.25 12.75H4.75005C3.86836 12.75 3.28026 12.7563 2.77934 12.6221C1.48538 12.2753 0.474754 11.2647 0.127976 9.97069C-0.00624415 9.46977 4.61984e-05 8.88167 4.61984e-05 7.99999Z" fill="white"/>
<path d="M5.49902 7.25H4V8.74902C4.01568 8.74904 4.03224 8.75 4.0498 8.75H5.4502C5.4674 8.75 5.48363 8.74904 5.49902 8.74902C5.49904 8.73363 5.5 8.7174 5.5 8.7002V7.2998C5.5 7.28224 5.49904 7.26568 5.49902 7.25ZM7 8.7002C7 8.82778 7.00012 8.9689 6.99023 9.08984C6.97961 9.21955 6.95329 9.39074 6.86328 9.56738C6.74345 9.8025 6.5525 9.99345 6.31738 10.1133C6.14074 10.2033 5.96955 10.2296 5.83984 10.2402C5.7189 10.2501 5.57778 10.25 5.4502 10.25H4.0498C3.92222 10.25 3.7811 10.2501 3.66016 10.2402C3.53045 10.2296 3.35926 10.2033 3.18262 10.1133C2.9475 9.99345 2.75655 9.8025 2.63672 9.56738C2.54671 9.39074 2.52039 9.21955 2.50977 9.08984C2.50483 9.02942 2.50207 8.96367 2.50098 8.89746L2.5 8.7002V7.2998C2.5 7.17222 2.49988 7.0311 2.50977 6.91016C2.52039 6.78045 2.54671 6.60926 2.63672 6.43262C2.75655 6.1975 2.9475 6.00655 3.18262 5.88672C3.35926 5.79671 3.53045 5.77039 3.66016 5.75977C3.7811 5.74988 3.92222 5.75 4.0498 5.75H5.4502L5.64746 5.75098C5.71367 5.75207 5.77942 5.75483 5.83984 5.75977C5.96955 5.77039 6.14074 5.79671 6.31738 5.88672C6.5525 6.00655 6.74345 6.1975 6.86328 6.43262C6.95329 6.60926 6.97961 6.78045 6.99023 6.91016C7.00012 7.0311 7 7.17222 7 7.2998V8.7002Z" fill="white"/>
<path d="M9 8.7002V7.2998C9 7.17222 8.99988 7.0311 9.00977 6.91016C9.02039 6.78045 9.04671 6.60926 9.13672 6.43262C9.25655 6.1975 9.4475 6.00655 9.68262 5.88672C9.85926 5.79671 10.0304 5.77039 10.1602 5.75977C10.2811 5.74988 10.4222 5.75 10.5498 5.75H15.25C15.6642 5.75 16 6.08579 16 6.5C16 6.91421 15.6642 7.25 15.25 7.25H10.5V8.74902C10.5157 8.74904 10.5322 8.75 10.5498 8.75H15.25C15.6642 8.75 16 9.08579 16 9.5C16 9.91421 15.6642 10.25 15.25 10.25H10.5498C10.4222 10.25 10.2811 10.2501 10.1602 10.2402C10.0304 10.2296 9.85926 10.2033 9.68262 10.1133C9.4475 9.99345 9.25655 9.8025 9.13672 9.56738C9.04671 9.39074 9.02039 9.21955 9.00977 9.08984C8.99988 8.9689 9 8.82778 9 8.7002Z" fill="white"/>
</g>
<defs>
<clipPath id="clip0_274_2490">
<rect width="16" height="16" fill="white"/>
</clipPath>
</defs>
</svg>
