<svg width="16" height="16" viewBox="0 0 16 16" fill="none" xmlns="http://www.w3.org/2000/svg">
<g clip-path="url(#clip0_274_2488)">
<path d="M5.30844 -7.99686e-07C5.57234 -5.82719e-06 5.85907 -0.00750475 6.1307 0.074218C6.34929 0.140065 6.55319 0.248549 6.73031 0.392577C6.95056 0.5717 7.10562 0.813596 7.25375 1.03223L10.4852 5.7998H12.5584C13.4099 5.79984 14.2261 6.14187 14.8231 6.74902L15.536 7.47461C15.8224 7.76634 15.8224 8.23366 15.536 8.52539L14.8231 9.25098C14.2261 9.85813 13.4099 10.2002 12.5584 10.2002H10.4852L7.25375 14.9678C7.10562 15.1864 6.95056 15.4283 6.73031 15.6074C6.55319 15.7514 6.34929 15.8599 6.1307 15.9258C5.85907 16.0075 5.57234 16 5.30844 16H4.68344C4.44105 16 4.21286 15.8829 4.07211 15.6855C3.93149 15.4883 3.89466 15.2349 3.97348 15.0059L5.62875 10.2002H4.27719C4.12693 10.2002 4.04224 10.1998 3.97836 10.2031C3.94055 10.2051 3.92392 10.208 3.91879 10.209C3.88964 10.2171 3.86212 10.2311 3.83774 10.249C3.83424 10.252 3.82137 10.2626 3.79574 10.292C3.75368 10.3402 3.70105 10.4071 3.60824 10.5254L2.08871 12.4629C1.94654 12.6441 1.72917 12.75 1.49887 12.75H0.998868C0.768078 12.75 0.550185 12.6437 0.408048 12.4619C0.265966 12.2799 0.215407 12.0423 0.271329 11.8184L1.22543 8L0.271329 4.18164C0.215407 3.95765 0.265966 3.72006 0.408048 3.53809C0.550185 3.35628 0.768078 3.25 0.998868 3.25H1.49887C1.72917 3.25 1.94654 3.35594 2.08871 3.53711L3.60824 5.47461C3.70105 5.59293 3.75368 5.65978 3.79574 5.70801C3.82137 5.73738 3.83424 5.74798 3.83774 5.75098C3.86212 5.76889 3.88964 5.78289 3.91879 5.79101C3.92392 5.792 3.94055 5.7949 3.97836 5.79687C4.04224 5.80021 4.12693 5.7998 4.27719 5.7998H5.62875L3.97348 0.99414C3.89466 0.765069 3.93149 0.51171 4.07211 0.314452C4.21286 0.117116 4.44105 -7.99686e-07 4.68344 -7.99686e-07H5.30844ZM7.38949 6.30566C7.4684 6.53482 7.43157 6.78803 7.29086 6.98535C7.15014 7.18264 6.92284 7.29975 6.68051 7.2998H4.27719C4.03373 7.29981 3.76902 7.30599 3.51547 7.23535C3.31156 7.17849 3.11963 7.08534 2.94906 6.95996C2.73703 6.80406 2.57879 6.59194 2.42856 6.40039L2.34457 6.29394L2.72641 7.81836C2.75619 7.93764 2.75619 8.06236 2.72641 8.18164L2.34457 9.70508L2.42856 9.59961C2.57879 9.40805 2.73703 9.19593 2.94906 9.04004C3.11963 8.91466 3.31156 8.82151 3.51547 8.76465C3.76902 8.69401 4.03373 8.70019 4.27719 8.70019H6.68051C6.92284 8.70025 7.15014 8.81736 7.29086 9.01465C7.43157 9.21197 7.4684 9.46518 7.38949 9.69433L5.74496 14.4697C5.75863 14.4624 5.77191 14.4542 5.78402 14.4443C5.78746 14.4411 5.79986 14.4279 5.82602 14.3936C5.86823 14.3382 5.9201 14.2619 6.01156 14.127L9.46566 9.0293C9.60521 8.82335 9.83799 8.70019 10.0868 8.70019H12.5584C13.0076 8.70016 13.4378 8.51944 13.7528 8.19922L13.9481 8L13.7528 7.80078C13.4378 7.48056 13.0076 7.29984 12.5584 7.2998H10.0868C9.83799 7.2998 9.60521 7.17665 9.46566 6.9707L6.01156 1.87305C5.9201 1.73806 5.86823 1.66183 5.82602 1.60644C5.79986 1.57213 5.78746 1.55893 5.78402 1.55566C5.77179 1.54574 5.75878 1.53672 5.74496 1.5293L7.38949 6.30566Z" fill="white"/>
</g>
<defs>
<clipPath id="clip0_274_2488">
<rect width="16" height="16" fill="white"/>
</clipPath>
</defs>
</svg>
