<svg width="16" height="16" viewBox="0 0 16 16" fill="none" xmlns="http://www.w3.org/2000/svg">
<rect x="0.75" y="0.75" width="14.5" height="14.5" rx="3.25" stroke="white" stroke-width="1.5"/>
<path d="M8.09521 10.2783C8.09521 10.9549 7.55673 11.4863 6.91357 11.4863C6.27043 11.4863 5.73193 10.9549 5.73193 10.2783C5.73206 9.60189 6.27051 9.07032 6.91357 9.07031C7.55665 9.07031 8.09509 9.60188 8.09521 10.2783ZM10.5562 5.53027C10.8821 5.78538 11.3535 5.7282 11.6089 5.40234C11.8643 5.07637 11.8069 4.60514 11.481 4.34961L10.5562 5.53027ZM9.59521 4.7793C9.62034 4.79894 9.64813 4.81877 9.67627 4.84082L10.5562 5.53027L11.0181 4.93945L11.481 4.34961L10.6011 3.66016C10.4055 3.50684 10.2181 3.35898 10.0571 3.25488C9.90709 3.15787 9.65461 3.0118 9.3374 3.01367C8.95867 3.01605 8.60113 3.18962 8.36572 3.48633C8.16845 3.73499 8.128 4.02424 8.11182 4.20215C8.09447 4.39304 8.09521 4.63144 8.09521 4.87988L8.09521 7.85059C7.73911 7.67354 7.3393 7.57031 6.91357 7.57031C5.42316 7.57032 4.23206 8.7925 4.23193 10.2783C4.23193 11.7642 5.42308 12.9863 6.91357 12.9863C8.40408 12.9863 9.59521 11.7643 9.59521 10.2783L9.59521 4.7793Z" fill="white"/>
</svg>
