<svg width="16" height="16" viewBox="0 0 16 16" fill="none" xmlns="http://www.w3.org/2000/svg">
<g clip-path="url(#clip0_274_2198)">
<path d="M7.99975 0C9.61512 0 10.9245 1.30946 10.9246 2.9248C10.9246 4.28065 10.0013 5.4166 8.74975 5.74805V14.4541C10.1972 14.286 11.5547 13.6372 12.5955 12.5967C13.4732 11.7189 14.075 10.6153 14.3425 9.42285C14.3939 9.19406 14.4159 9.0868 14.4236 9.00586C14.4284 8.95393 14.4248 8.94051 14.4187 8.92188C14.4212 8.92965 14.4198 8.92446 14.4099 8.90723C14.4004 8.8907 14.3868 8.86977 14.3699 8.84863C14.353 8.82751 14.3361 8.80973 14.322 8.79688C14.3155 8.79095 14.311 8.78712 14.3083 8.78516C14.3054 8.78338 14.3018 8.78101 14.2927 8.77832C14.2804 8.7747 14.2538 8.76904 14.2039 8.76367C14.1464 8.75751 14.0787 8.75374 13.99 8.75195L13.6501 8.75H13.0749C12.6609 8.74986 12.3249 8.41413 12.3249 8C12.3249 7.58587 12.6609 7.25014 13.0749 7.25H13.6501L14.0017 7.25098C14.3608 7.25697 14.7366 7.29431 15.0769 7.49707C15.2648 7.60913 15.423 7.76408 15.5408 7.91113C15.6586 8.05833 15.7753 8.24696 15.8435 8.45508C16.0052 8.94858 15.8898 9.37484 15.8054 9.75098C15.4761 11.2185 14.7374 12.5768 13.657 13.6572C12.1567 15.1574 10.1214 16 7.99975 16C5.87811 15.9999 3.84275 15.1575 2.34252 13.6572C1.26219 12.5768 0.523354 11.2185 0.194087 9.75098C0.10969 9.37487 -0.00568975 8.94852 0.156001 8.45508C0.224209 8.24698 0.340928 8.05833 0.458736 7.91113C0.576464 7.76409 0.734706 7.60916 0.922603 7.49707C1.3763 7.22668 1.89278 7.24998 2.34936 7.25H2.92456C3.33877 7.25 3.67455 7.58579 3.67456 8C3.67456 8.41421 3.33877 8.75 2.92456 8.75H2.34936C2.06549 8.75 1.91038 8.75135 1.79565 8.76367C1.74557 8.76906 1.71898 8.7747 1.70678 8.77832C1.69773 8.78104 1.69417 8.78338 1.69116 8.78516C1.69769 8.78124 1.69215 8.78345 1.67749 8.79688C1.66345 8.80975 1.64653 8.82753 1.62963 8.84863C1.61272 8.86977 1.59907 8.89071 1.5896 8.90723C1.57983 8.92432 1.5783 8.92953 1.58081 8.92188C1.57471 8.94047 1.57107 8.95402 1.57592 9.00586C1.58356 9.0868 1.60565 9.19408 1.65698 9.42285C1.92453 10.6153 2.52535 11.7189 3.40307 12.5967C4.44382 13.6374 5.80207 14.286 7.24975 14.4541V5.74805C5.99849 5.41638 5.07495 4.28042 5.07495 2.9248C5.07505 1.30961 6.38459 0.000245521 7.99975 0ZM7.99975 1.5C7.21302 1.50025 6.57505 2.13804 6.57495 2.9248C6.57495 3.71166 7.21296 4.34936 7.99975 4.34961C8.78676 4.34961 9.42456 3.71181 9.42456 2.9248C9.42445 2.13789 8.78669 1.5 7.99975 1.5Z" fill="white"/>
</g>
<defs>
<clipPath id="clip0_274_2198">
<rect width="16" height="16" fill="white"/>
</clipPath>
</defs>
</svg>
