<svg width="16" height="16" viewBox="0 0 16 16" fill="none" xmlns="http://www.w3.org/2000/svg">
<path d="M4 9.71429C4 9.30008 4.33579 8.96429 4.75 8.96429V8.96429C5.16421 8.96429 5.5 9.30008 5.5 9.71429V9.71429C5.5 10.1285 5.16421 10.4643 4.75 10.4643V10.4643C4.33579 10.4643 4 10.1285 4 9.71429V9.71429Z" fill="white"/>
<path d="M10.5 9.71429C10.5 9.30008 10.8358 8.96429 11.25 8.96429V8.96429C11.6642 8.96429 12 9.30008 12 9.71429V9.71429C12 10.1285 11.6642 10.4643 11.25 10.4643V10.4643C10.8358 10.4643 10.5 10.1285 10.5 9.71429V9.71429Z" fill="white"/>
<path d="M12.8765 3.01258C13.1063 2.66809 13.572 2.57485 13.9165 2.80458C14.2609 3.03438 14.3541 3.5001 14.1246 3.84462L12.4517 6.35341C13.9207 7.33239 15.0737 8.78122 15.7134 10.497C15.9362 11.0944 16.0475 11.394 15.9497 11.829L15.9126 11.954C15.8041 12.2534 15.5484 12.5973 15.3062 12.7558L15.1626 12.8368C14.8213 13 14.4106 12.9999 13.6822 12.9999H2.31889L1.76615 12.996C1.28004 12.9846 0.975068 12.9386 0.694861 12.7558C0.418069 12.5749 0.123898 12.1515 0.0513067 11.829C-0.0465321 11.3939 0.0648402 11.0945 0.287635 10.497C0.927456 8.78118 2.07926 7.33137 3.54838 6.35243L1.8765 3.84462C1.64674 3.49997 1.73986 3.03434 2.08451 2.80458C2.42913 2.57506 2.89485 2.66804 3.12455 3.01258L4.87357 5.63661C5.83814 5.22613 6.89424 4.99989 8.00053 4.99989C9.10662 4.99995 10.1621 5.2262 11.1265 5.63661L12.8765 3.01258ZM8.00053 6.49989C5.1651 6.49989 2.69272 8.3428 1.69389 11.0214C1.636 11.1766 1.59547 11.2849 1.564 11.3778C1.54913 11.4218 1.54013 11.4559 1.53275 11.4813C1.592 11.4875 1.67632 11.494 1.80131 11.497C1.94204 11.5003 2.10578 11.4999 2.31889 11.4999H13.6822C13.8953 11.4999 14.059 11.5003 14.1997 11.497C14.3241 11.494 14.4082 11.4875 14.4673 11.4813C14.4599 11.4559 14.4519 11.4217 14.4371 11.3778C14.4056 11.2849 14.3651 11.1767 14.3072 11.0214C13.3084 8.34281 10.8359 6.50009 8.00053 6.49989Z" fill="white"/>
</svg>
