<svg width="16" height="16" viewBox="0 0 16 16" fill="none" xmlns="http://www.w3.org/2000/svg">
<g clip-path="url(#clip0_274_1714)">
<path d="M0.750003 0C1.16422 0 1.5 0.335786 1.5 0.75V8.45996C2.09897 8.46211 2.60436 8.46897 3.03614 8.49902C3.64436 8.54138 4.16296 8.63046 4.64551 8.83496C5.78037 9.31606 6.68396 10.2196 7.16504 11.3545C7.36948 11.8369 7.45762 12.355 7.5 12.9629C7.53007 13.3947 7.53664 13.9008 7.53906 14.5H15.25C15.6642 14.5 16 14.8358 16 15.25C16 15.6642 15.6642 16 15.25 16H4.75C4.06231 16 3.50138 16.001 3.04688 15.9639C2.58362 15.926 2.16515 15.8446 1.77442 15.6455C1.16305 15.3339 0.666056 14.837 0.354495 14.2256C0.155406 13.8349 0.0739861 13.4164 0.0361354 12.9531C-0.000999115 12.4986 2.62479e-06 11.9377 2.62502e-06 11.25V0.75C2.62502e-06 0.335786 0.335789 0 0.750003 0ZM1.5 11.25C1.5 11.9624 1.50027 12.4518 1.53125 12.8311C1.56153 13.2015 1.61705 13.4009 1.69043 13.5449C1.85818 13.874 2.12597 14.1418 2.45508 14.3096C2.59911 14.383 2.79852 14.4385 3.16895 14.4688C3.5482 14.4997 4.03756 14.5 4.75 14.5H6.03906C6.03673 13.9145 6.03077 13.4531 6.00391 13.0674C5.96698 12.5374 5.89674 12.205 5.78418 11.9395C5.45496 11.163 4.83607 10.5449 4.05957 10.2158C3.79405 10.1033 3.46234 10.033 2.93262 9.99609C2.54687 9.96923 2.08561 9.96229 1.5 9.95996V11.25Z" fill="white"/>
</g>
<defs>
<clipPath id="clip0_274_1714">
<rect width="16" height="16" fill="white"/>
</clipPath>
</defs>
</svg>
