<svg width="16" height="16" viewBox="0 0 16 16" fill="none" xmlns="http://www.w3.org/2000/svg">
<g clip-path="url(#clip0_274_2474)">
<path d="M14.5001 2.38468C14.5001 2.16348 14.4045 1.95266 14.2384 1.80655C14.0229 1.61725 13.7198 1.56336 13.4523 1.6669L4.72278 5.04483V9.68741L13.4523 13.0663C13.7199 13.1699 14.0229 13.1161 14.2384 12.9267C14.4045 12.7805 14.5001 12.5698 14.5001 12.3485V2.38468ZM4.72571 13.2275C4.77184 13.8442 5.26226 14.3346 5.87903 14.3808C5.91853 14.3837 5.97233 14.3847 6.16224 14.3847C6.28408 14.3847 6.31768 14.3842 6.34583 14.3827C6.77184 14.3603 7.15691 14.122 7.36731 13.7509C7.38119 13.7264 7.397 13.6965 7.4513 13.5878L7.9679 12.5517L4.72278 11.2958V12.9442C4.72278 13.1336 4.72279 13.188 4.72571 13.2275ZM1.50013 7.3671C1.50013 8.20415 1.51018 8.43738 1.56653 8.60343C1.69149 8.97094 1.98028 9.25972 2.34778 9.38468C2.48696 9.432 2.67309 9.4456 3.22278 9.44913V5.28409C2.67322 5.28762 2.48695 5.30125 2.34778 5.34854C1.98027 5.4735 1.69149 5.76228 1.56653 6.12979C1.51006 6.29589 1.50013 6.52921 1.50013 7.3671ZM16.0001 12.3485C16.0001 13.0009 15.7193 13.6217 15.2296 14.0526C14.5942 14.6116 13.7005 14.7711 12.9113 14.4657L9.3722 13.0956L8.7931 14.2577C8.74614 14.3518 8.71003 14.424 8.672 14.4911C8.2091 15.3074 7.36204 15.8313 6.42493 15.8808C6.34793 15.8848 6.26734 15.8847 6.16224 15.8847C5.99959 15.8847 5.87699 15.885 5.7677 15.8769C4.41068 15.7754 3.33111 14.6968 3.22962 13.3398C3.22144 13.2303 3.22278 13.1072 3.22278 12.9442V10.9501C2.68046 10.9485 2.24455 10.9335 1.86536 10.8046C1.05689 10.5297 0.421553 9.89527 0.146611 9.08683C-0.00980905 8.62677 0.000124332 8.08279 0.000126944 7.3671C0.000126944 6.65142 -0.00972034 6.10742 0.146611 5.64737C0.421517 4.83883 1.05682 4.20353 1.86536 3.92862C2.32539 3.77233 2.86947 3.78214 3.58509 3.78214H3.83216L12.9113 0.268466C13.7005 -0.0370216 14.5942 0.121566 15.2296 0.680575C15.7194 1.11146 16.0001 1.73233 16.0001 2.38468V12.3485Z" fill="white"/>
</g>
<defs>
<clipPath id="clip0_274_2474">
<rect width="16" height="16" fill="white"/>
</clipPath>
</defs>
</svg>
