<svg width="16" height="16" viewBox="0 0 16 16" fill="none" xmlns="http://www.w3.org/2000/svg">
<path d="M11.1928 0C11.2841 1.1283 10.8539 1.97149 10.3305 2.58203C9.84896 3.1505 9.20048 3.70304 8.18399 3.69629L7.97598 3.6875C7.90011 2.57547 8.33129 1.79465 8.85391 1.18555C9.33865 0.617912 10.3413 0.112479 11.1928 0Z" fill="white"/>
<path d="M8.91895 4.35228C9.70291 4.06918 10.4715 3.74488 11.4844 3.89721C12.3448 4.02729 13.2286 4.60689 13.8613 5.23021C14.2554 5.61845 14.1097 6.22329 13.6436 6.52123L13.374 6.70385C12.7645 7.14534 12.3072 7.71559 12.3955 8.78685C12.4872 9.92364 12.9891 10.3008 13.6963 10.6355C14.152 10.8513 14.3853 11.3607 14.2334 11.8415L14.0098 12.5281C13.7741 13.2228 13.5012 13.9134 13.1904 14.3435C12.6825 15.0426 12.0597 15.9841 10.9482 15.9841V14.4841C11.0289 14.4841 11.1206 14.4657 11.292 14.3113C11.5053 14.119 11.6847 13.8646 11.9775 13.4617C12.0715 13.3302 12.2057 13.0704 12.3652 12.6638C12.4717 12.3925 12.5708 12.0967 12.6699 11.7937C12.3359 11.606 11.9645 11.3449 11.6494 10.9558C11.1849 10.3822 10.9637 9.6899 10.9004 8.91088L10.8848 8.57592C10.8768 7.80901 11.0687 7.1314 11.4512 6.54857C11.6574 6.23428 11.9001 5.97666 12.1445 5.76439C11.8231 5.55521 11.5104 5.41841 11.2607 5.3806V5.37963C10.6922 5.2943 10.2974 5.44973 9.42871 5.76342L9.42773 5.76244C9.39003 5.77632 9.34822 5.79423 9.2793 5.82201C9.21608 5.84749 9.12416 5.88481 9.02734 5.91967C8.84 5.9871 8.53293 6.08364 8.16602 6.09447L8.16699 6.09545L8.16504 6.09447V6.09545L8.16406 6.09447C7.68517 6.10846 7.27213 5.98111 7.01562 5.88744C6.87941 5.83769 6.75329 5.78442 6.66016 5.74486C6.55448 5.69998 6.49802 5.67588 6.44629 5.65599H6.44531C6.12507 5.53516 5.84708 5.44748 5.61719 5.41185V5.41088C5.18305 5.3456 4.72933 5.48808 4.31152 5.74486L4.30664 5.74779C3.66773 6.13787 3.03988 7.05572 2.97852 8.35814V8.96264C3.13455 11.03 3.92408 12.6332 4.95898 13.8923L5.08105 14.0349C5.20097 14.1699 5.3158 14.282 5.42578 14.3679C5.52908 14.4486 5.60277 14.4831 5.64648 14.4997H5.66602C5.89716 14.4573 6.09085 14.3767 6.52051 14.2146C6.96977 14.0451 7.58537 13.8363 8.39062 13.8494H8.3916C9.18866 13.863 9.8315 14.128 10.21 14.2751C10.6348 14.4403 10.7872 14.484 10.9482 14.4841V15.9841L10.7725 15.9763C9.90736 15.9085 9.28895 15.3653 8.36621 15.3494C7.32498 15.3325 6.75181 15.8656 5.7998 15.9997H5.54785L5.4043 15.988C4.82129 15.8769 4.33541 15.4546 3.95703 15.0281L3.80078 14.8464C2.58893 13.3725 1.65281 11.4683 1.47852 9.03197V8.31615C1.55228 6.57241 2.39922 5.15371 3.52539 4.46654C4.11978 4.1012 4.93781 3.79032 5.84766 3.92943C6.23737 3.98987 6.63538 4.1236 6.98438 4.2556C7.31519 4.38273 7.72916 4.60821 8.12109 4.59642C8.38667 4.5887 8.65126 4.44994 8.91895 4.35228Z" fill="white"/>
</svg>
