<svg width="16" height="16" viewBox="0 0 16 16" fill="none" xmlns="http://www.w3.org/2000/svg">
<g clip-path="url(#clip0_274_2352)">
<path d="M8.00087 4.86682e-07C8.2852 0.00037044 8.54518 0.161401 8.67176 0.416016C10.0867 3.26211 11.1902 5.46285 12.2948 7.66406C13.3995 9.86529 14.5055 12.0673 15.9218 14.916C16.0525 15.179 16.0178 15.4945 15.8329 15.7227C15.648 15.9507 15.3466 16.0499 15.0624 15.9766L10.0429 14.6777C9.67627 14.5829 9.438 14.2299 9.48719 13.8545C9.48731 13.8536 9.48694 13.8517 9.48719 13.8496C9.48785 13.8442 9.48974 13.8348 9.4911 13.8223C9.49388 13.7968 9.49752 13.7573 9.50184 13.7061C9.51055 13.6027 9.52034 13.4519 9.5243 13.2705C9.53231 12.9031 9.51516 12.4297 9.42469 11.9697C9.33247 11.501 9.17662 11.1108 8.95399 10.8496C8.7563 10.6177 8.47677 10.4482 7.99989 10.4482C7.523 10.4482 7.24348 10.6177 7.04579 10.8496C6.82316 11.1108 6.66731 11.501 6.57508 11.9697C6.48462 12.4297 6.46747 12.9031 6.47548 13.2705C6.47944 13.4519 6.48923 13.6027 6.49794 13.7061C6.50226 13.7573 6.5059 13.7968 6.50868 13.8223C6.51004 13.8348 6.51193 13.8442 6.51258 13.8496C6.51284 13.8517 6.51247 13.8536 6.51258 13.8545C6.56178 14.2299 6.3235 14.5829 5.95692 14.6777L0.93739 15.9766C0.652898 16.05 0.351693 15.9501 0.166882 15.7217C-0.017916 15.4932 -0.0522591 15.1779 0.0789911 14.915L4.45399 6.16504L4.51747 6.05957C4.68336 5.8306 4.96834 5.7111 5.2538 5.76074L6.01161 5.89258L5.43934 5.24805C5.23579 5.01895 5.1921 4.68922 5.32899 4.41504L7.32899 0.41504C7.45617 0.160677 7.71648 -0.00032304 8.00087 4.86682e-07ZM6.89735 4.63086L8.56044 6.50195C8.77221 6.7403 8.81031 7.08668 8.65516 7.36523C8.49995 7.6437 8.18509 7.79389 7.87098 7.73926L5.54579 7.33398L2.15712 14.1104L4.9784 13.3809C4.97764 13.3557 4.97605 13.33 4.97548 13.3037C4.96608 12.8737 4.98478 12.2838 5.1034 11.6807C5.22031 11.0863 5.44726 10.4132 5.90419 9.87695C6.38618 9.31141 7.08257 8.94824 7.99989 8.94824C8.91721 8.94824 9.61359 9.31141 10.0956 9.87695C10.5525 10.4132 10.7795 11.0863 10.8964 11.6807C11.015 12.2838 11.0337 12.8737 11.0243 13.3037C11.0237 13.33 11.0212 13.3557 11.0204 13.3809L13.8427 14.1104C12.7651 11.9485 11.8613 10.1419 10.955 8.33594C10.0304 6.49357 9.10632 4.65001 7.99891 2.42773L6.89735 4.63086Z" fill="white"/>
</g>
<defs>
<clipPath id="clip0_274_2352">
<rect width="16" height="16" fill="white"/>
</clipPath>
</defs>
</svg>
