<svg width="16" height="16" viewBox="0 0 16 16" fill="none" xmlns="http://www.w3.org/2000/svg">
<g clip-path="url(#clip0_274_2158)">
<path d="M10.8985 0.499991C11.4521 0.499991 11.879 0.492933 12.2793 0.609366C12.6123 0.706272 12.9243 0.865346 13.1983 1.07812C13.5275 1.33388 13.7718 1.68363 14.0967 2.13183L15.2481 3.71972C15.4579 4.00909 15.622 4.22992 15.7393 4.47948C15.8371 4.68777 15.9081 4.90773 15.9512 5.13378C16.0028 5.40473 16 5.68051 16 6.03808V13.1504C16 13.4178 16.0001 13.6639 15.9834 13.8682C15.966 14.0812 15.9269 14.3147 15.8096 14.5449C15.6418 14.874 15.374 15.1418 15.0449 15.3096C14.8148 15.4268 14.5812 15.466 14.3682 15.4834C14.1639 15.5001 13.9179 15.5 13.6504 15.5H2.34963C2.08215 15.5 1.83613 15.5001 1.63186 15.4834C1.41883 15.466 1.18528 15.4268 0.955104 15.3096C0.626022 15.1418 0.358194 14.874 0.190456 14.5449C0.0731995 14.3148 0.0340536 14.0812 0.0166278 13.8682C-5.54435e-05 13.6639 2.56581e-05 13.4178 2.62211e-05 13.1504V6.03808C2.5792e-05 5.68051 -0.00274687 5.40473 0.0488543 5.13378C0.0919535 4.90773 0.162934 4.68778 0.260768 4.47948C0.378005 4.22991 0.542176 4.0091 0.751979 3.71972L1.90335 2.13183C2.2283 1.68362 2.47257 1.33389 2.80178 1.07812C3.07571 0.865333 3.38768 0.706276 3.72073 0.609366C4.12108 0.492921 4.5479 0.499991 5.10159 0.499991H10.8985ZM2.34963 5.74999C2.05748 5.74999 1.883 5.75019 1.75393 5.76073C1.63389 5.77057 1.62037 5.78568 1.63674 5.77734C1.58972 5.80129 1.55134 5.83969 1.52737 5.88671C1.53565 5.87042 1.52059 5.88405 1.51077 6.0039C1.50022 6.13295 1.50003 6.30748 1.50003 6.5996V13.1504C1.50003 13.4425 1.50023 13.617 1.51077 13.7461C1.5206 13.8661 1.53571 13.8797 1.52737 13.8633C1.55133 13.9103 1.58973 13.9487 1.63674 13.9726C1.62045 13.9644 1.63403 13.9794 1.75393 13.9892C1.883 13.9998 2.05748 14 2.34963 14H13.6504C13.9426 14 14.117 13.9998 14.2461 13.9892C14.3661 13.9794 14.3797 13.9643 14.3633 13.9726C14.4103 13.9487 14.4487 13.9103 14.4727 13.8633C14.4643 13.8797 14.4794 13.8661 14.4893 13.7461C14.4998 13.617 14.5 13.4425 14.5 13.1504V6.5996C14.5 6.30748 14.4998 6.13295 14.4893 6.0039C14.4795 5.8841 14.4644 5.87045 14.4727 5.88671C14.4487 5.8397 14.4103 5.80129 14.3633 5.77734C14.3797 5.78568 14.3662 5.77057 14.2461 5.76073C14.1815 5.75546 14.1052 5.75341 14.0088 5.75194L13.6504 5.74999H2.34963ZM8.00002 7.12499C8.41421 7.12499 8.74998 7.46082 8.75002 7.87499V10.0644L8.96975 9.84472C9.26262 9.55187 9.73741 9.55189 10.0303 9.84472C10.3232 10.1376 10.3232 10.6124 10.0303 10.9053L8.53029 12.4053C8.2374 12.6982 7.76264 12.6982 7.46975 12.4053L5.96975 10.9053C5.67691 10.6124 5.67687 10.1376 5.96975 9.84472C6.24434 9.57016 6.67908 9.55271 6.97365 9.79296L7.0303 9.84472L7.25002 10.0644V7.87499C7.25007 7.46082 7.58585 7.12501 8.00002 7.12499ZM5.10159 1.99999C4.45911 1.99999 4.28653 2.00708 4.13967 2.0498C3.9885 2.09381 3.84706 2.16614 3.72268 2.26269C3.60192 2.35649 3.49509 2.49186 3.11819 3.01171L2.21975 4.24999H13.7793L12.8819 3.01171C12.505 2.49188 12.3981 2.35649 12.2774 2.26269C12.153 2.16615 12.0115 2.09381 11.8604 2.0498C11.7135 2.00709 11.5409 1.99999 10.8985 1.99999H5.10159Z" fill="white"/>
</g>
<defs>
<clipPath id="clip0_274_2158">
<rect width="16" height="16" rx="5" fill="white"/>
</clipPath>
</defs>
</svg>
