<svg width="16" height="16" viewBox="0 0 16 16" fill="none" xmlns="http://www.w3.org/2000/svg">
<path d="M16 7.98882C15.9998 7.78962 15.9205 7.59811 15.7793 7.45757L10.9463 2.64604C10.6528 2.35379 10.177 2.35446 9.88477 2.648C9.61093 2.92321 9.59504 3.35791 9.83594 3.6519L9.88769 3.70854L13.4375 7.24272L0.749023 7.2603C0.334935 7.2609 -0.000400158 7.59724 0 8.01128C0.000602489 8.42545 0.336816 8.76084 0.750977 8.7603L13.4375 8.74272L9.88672 12.2925C9.59383 12.5854 9.59383 13.0602 9.88672 13.3531C10.1796 13.6458 10.6544 13.6459 10.9473 13.3531L15.7803 8.52007C15.9211 8.37925 16.0002 8.18795 16 7.98882Z" fill="white"/>
</svg>
