<svg width="16" height="16" viewBox="0 0 16 16" fill="none" xmlns="http://www.w3.org/2000/svg">
<path d="M8.01109 16C8.21029 15.9998 8.4018 15.9205 8.54234 15.7793L13.3539 10.9463C13.6461 10.6528 13.6454 10.177 13.3519 9.88477C13.0767 9.61093 12.642 9.59504 12.348 9.83594L12.2914 9.88769L8.75719 13.4375L8.73961 0.749023C8.73901 0.334935 8.40267 -0.000400158 7.98863 0C7.57446 0.000602489 7.23907 0.336816 7.23961 0.750977L7.25719 13.4375L3.70738 9.88672C3.41449 9.59383 2.93973 9.59383 2.64683 9.88672C2.3541 10.1796 2.354 10.6544 2.64683 10.9473L7.47984 15.7803C7.62066 15.9211 7.81196 16.0002 8.01109 16Z" fill="white"/>
</svg>
