<svg width="16" height="16" viewBox="0 0 16 16" fill="none" xmlns="http://www.w3.org/2000/svg">
<path d="M8.01109 2.83264e-07C8.21029 0.000218082 8.4018 0.0795425 8.54234 0.220703L13.3539 5.05371C13.6461 5.34724 13.6454 5.82298 13.3519 6.11523C13.0767 6.38907 12.642 6.40496 12.348 6.16406L12.2914 6.11231L8.75719 2.5625L8.73961 15.251C8.73901 15.6651 8.40267 16.0004 7.98863 16C7.57446 15.9994 7.23907 15.6632 7.23961 15.249L7.25719 2.5625L3.70738 6.11328C3.41449 6.40617 2.93973 6.40617 2.64683 6.11328C2.3541 5.82038 2.354 5.34557 2.64683 5.05273L7.47984 0.219727C7.62066 0.0789134 7.81196 -0.000172727 8.01109 2.83264e-07Z" fill="white"/>
</svg>
