<svg width="16" height="16" viewBox="0 0 16 16" fill="none" xmlns="http://www.w3.org/2000/svg">
<path d="M2.83264e-07 7.98882C0.000218082 7.78962 0.0795425 7.59811 0.220703 7.45757L5.05371 2.64604C5.34724 2.35379 5.82298 2.35446 6.11523 2.648C6.38907 2.92321 6.40496 3.35791 6.16406 3.6519L6.11231 3.70854L2.5625 7.24272L15.251 7.2603C15.6651 7.2609 16.0004 7.59724 16 8.01128C15.9994 8.42545 15.6632 8.76084 15.249 8.7603L2.5625 8.74272L6.11328 12.2925C6.40617 12.5854 6.40617 13.0602 6.11328 13.3531C5.82038 13.6458 5.34557 13.6459 5.05273 13.3531L0.219727 8.52007C0.0789134 8.37925 -0.000172727 8.18795 2.83264e-07 7.98882Z" fill="white"/>
</svg>
