<svg width="16" height="16" viewBox="0 0 16 16" fill="none" xmlns="http://www.w3.org/2000/svg">
<g clip-path="url(#clip0_274_2471)">
<path d="M10.9007 4.35003C11.3148 4.35024 11.6507 4.68595 11.6507 5.10003V8.72503C11.6507 9.10294 11.8005 9.46562 12.0677 9.73285C12.3349 10 12.6977 10.1498 13.0755 10.1498C13.4534 10.1498 13.8161 10 14.0833 9.73285C14.3505 9.46563 14.5003 9.10291 14.5003 8.72503V8.00042C14.5002 6.53354 14.0039 5.10949 13.0921 3.96038C12.1803 2.81129 10.9064 2.00379 9.47787 1.67035C8.04922 1.33694 6.54936 1.49666 5.22298 2.12347C3.89678 2.75021 2.82166 3.80727 2.1722 5.12249C1.52283 6.43781 1.33708 7.93457 1.64584 9.36859C1.95472 10.8027 2.74001 12.0904 3.87338 13.0219C5.00675 13.9534 6.42219 14.4742 7.889 14.4994C9.35567 14.5246 10.7879 14.0524 11.9525 13.1606C12.2813 12.909 12.7525 12.9715 13.0042 13.3002C13.256 13.629 13.1933 14.1001 12.8646 14.352C11.4311 15.4498 9.66794 16.0305 7.86263 15.9994C6.05751 15.9684 4.31606 15.3273 2.92123 14.1811C1.52637 13.0347 0.560213 11.45 0.180016 9.68499C-0.200145 7.91989 0.0271887 6.07745 0.8265 4.45843C1.62582 2.83951 2.94996 1.53845 4.58236 0.767026C6.21476 -0.00432694 8.06046 -0.200911 9.81869 0.209408C11.577 0.619772 13.1446 1.61345 14.2669 3.02777C15.3891 4.44198 16.0001 6.19409 16.0003 7.99945V8.72503C16.0003 9.50074 15.6924 10.2449 15.1439 10.7934C14.5954 11.3419 13.8512 11.6498 13.0755 11.6498C12.2998 11.6498 11.5557 11.3419 11.0072 10.7934C10.898 10.6842 10.8009 10.5652 10.7113 10.4418C10.0433 11.1831 9.07667 11.6497 8.00033 11.6498C5.98464 11.6498 4.35018 10.0161 4.34994 8.00042C4.34994 5.98459 5.98449 4.35003 8.00033 4.35003C8.80524 4.35012 9.54924 4.61075 10.1527 5.05218C10.1773 4.66026 10.5026 4.35003 10.9007 4.35003ZM5.84994 8.00042C5.85018 9.18763 6.81307 10.1498 8.00033 10.1498C9.18741 10.1496 10.1495 9.1875 10.1497 8.00042C10.1497 6.81314 9.18756 5.85025 8.00033 5.85003C6.81292 5.85003 5.84994 6.81301 5.84994 8.00042Z" fill="white"/>
</g>
<defs>
<clipPath id="clip0_274_2471">
<rect width="16" height="16" fill="white"/>
</clipPath>
</defs>
</svg>
