<svg width="16" height="16" viewBox="0 0 16 16" fill="none" xmlns="http://www.w3.org/2000/svg">
<g clip-path="url(#clip0_274_1611)">
<path d="M8 13.5C8.41421 13.5 8.75 13.8358 8.75 14.25V15.25C8.75 15.6642 8.41421 16 8 16C7.58579 16 7.25 15.6642 7.25 15.25V14.25C7.25 13.8358 7.58579 13.5 8 13.5ZM3.0498 11.8887C3.3427 11.5958 3.81843 11.5958 4.11133 11.8887C4.40422 12.1816 4.40422 12.6573 4.11133 12.9502L3.40332 13.6572C3.11039 13.9497 2.63552 13.95 2.34277 13.6572C2.05002 13.3645 2.05031 12.8896 2.34277 12.5967L3.0498 11.8887ZM11.8887 11.8887C12.1633 11.6141 12.598 11.5976 12.8926 11.8379L12.9502 11.8887L13.6572 12.5967L13.708 12.6533C13.9483 12.9479 13.9318 13.3826 13.6572 13.6572C13.3826 13.9318 12.9479 13.9483 12.6533 13.708L12.5967 13.6572L11.8887 12.9502L11.8379 12.8926C11.5976 12.598 11.6141 12.1633 11.8887 11.8887ZM8 3.25C8.77417 3.25 9.50462 3.43612 10.1504 3.76465L9.94043 4.72559C9.89164 4.94863 9.88786 5.17139 9.92285 5.38379C9.38404 4.98711 8.7204 4.75 8 4.75C6.20507 4.75 4.75 6.20507 4.75 8C4.75 9.79493 6.20507 11.25 8 11.25C9.79493 11.25 11.25 9.79493 11.25 8C11.25 7.54452 11.1555 7.11126 10.9863 6.71777C11.0788 6.7556 11.1754 6.78749 11.2764 6.80957C11.7265 6.90796 12.1725 6.82123 12.54 6.60352C12.6757 7.04517 12.75 7.51386 12.75 8C12.75 10.6234 10.6234 12.75 8 12.75C5.37665 12.75 3.25 10.6234 3.25 8C3.25 5.37665 5.37665 3.25 8 3.25ZM1.75 7.25C2.16421 7.25 2.5 7.58579 2.5 8C2.5 8.41421 2.16421 8.75 1.75 8.75H0.75C0.335786 8.75 0 8.41421 0 8C0 7.58579 0.335786 7.25 0.75 7.25H1.75ZM15.25 7.25C15.6642 7.25 16 7.58579 16 8C16 8.41421 15.6642 8.75 15.25 8.75H14.25C13.8358 8.75 13.5 8.41421 13.5 8C13.5 7.58579 13.8358 7.25 14.25 7.25H15.25ZM2.34277 2.34277C2.63552 2.05002 3.11039 2.05031 3.40332 2.34277L4.11133 3.0498L4.16211 3.10742C4.40239 3.402 4.38592 3.83674 4.11133 4.11133C3.83674 4.38592 3.402 4.40239 3.10742 4.16211L3.0498 4.11133L2.34277 3.40332C2.05031 3.11039 2.05002 2.63552 2.34277 2.34277ZM8 0C8.41421 0 8.75 0.335786 8.75 0.75V1.75C8.75 2.16421 8.41421 2.5 8 2.5C7.58579 2.5 7.25 2.16421 7.25 1.75V0.75C7.25 0.335786 7.58579 0 8 0Z" fill="white"/>
<path d="M11.9486 0.802158C12.6598 -0.261721 14.2656 -0.226867 14.9174 0.907626C15.0178 1.0825 15.0792 1.32144 15.1254 1.50821C15.1802 1.73019 15.246 2.03189 15.3295 2.41349L15.8822 4.93985L15.8949 5.01505C15.9385 5.39288 15.6895 5.74942 15.31 5.83243C14.9306 5.91539 14.5552 5.69567 14.4369 5.33438L14.4174 5.26017L14.1713 4.13614H12.6283L12.3822 5.26017C12.2937 5.66479 11.8943 5.92091 11.4896 5.83243C11.085 5.74392 10.8289 5.34448 10.9174 4.93985L11.4701 2.41349C11.5536 2.03189 11.6194 1.73019 11.6742 1.50821C11.7204 1.32144 11.7818 1.0825 11.8822 0.907626L11.9486 0.802158ZM13.6059 1.64102C13.5074 1.49352 13.2909 1.49322 13.1928 1.64102C13.1911 1.64582 13.1891 1.65163 13.1869 1.6586C13.1729 1.70269 13.1545 1.76943 13.1303 1.86759C13.0856 2.04823 13.0318 2.29644 12.9574 2.63614H13.8422C13.7678 2.29644 13.714 2.04823 13.6693 1.86759C13.6451 1.76943 13.6267 1.70269 13.6127 1.6586C13.6104 1.65148 13.6075 1.64587 13.6059 1.64102Z" fill="white"/>
</g>
<defs>
<clipPath id="clip0_274_1611">
<rect width="16" height="16" fill="white"/>
</clipPath>
</defs>
</svg>
