<svg width="16" height="16" viewBox="0 0 16 16" fill="none" xmlns="http://www.w3.org/2000/svg">
<g clip-path="url(#clip0_274_1593)">
<path d="M5.48395 0.250003C6.75765 0.25 7.66462 0.238724 8.52106 0.46387C9.37692 0.688913 10.1777 1.08636 10.8746 1.63184C11.572 2.17775 12.1118 2.90641 12.8824 3.9209L14.3716 5.88281C14.588 6.16769 14.9267 6.57897 15.1138 7.0752L15.1841 7.29395L15.2242 7.46778C15.305 7.87749 15.2918 8.30094 15.1841 8.70606C15.0262 9.3003 14.619 9.79152 14.3716 10.1172L12.8814 12.0791C12.1111 13.0933 11.5718 13.8224 10.8746 14.3682C10.1777 14.9136 9.37692 15.3111 8.52106 15.5361C7.66468 15.7612 6.75758 15.75 5.48395 15.75H5.29645C4.50007 15.75 3.81415 15.7509 3.27399 15.709C2.7558 15.6688 2.12434 15.5775 1.56988 15.2266C0.505844 14.5529 -0.0948565 13.3427 0.0122673 12.0879L0.0444939 11.8477C0.144889 11.2966 0.412424 10.821 0.658752 10.4385C0.952055 9.98302 1.36756 9.43778 1.84918 8.80371C2.06885 8.51452 2.19407 8.34999 2.27985 8.22168C2.32566 8.15315 2.34228 8.11848 2.34723 8.1084C2.36858 8.03761 2.36869 7.96237 2.34723 7.8916C2.34195 7.88094 2.32485 7.84664 2.27985 7.7793C2.19408 7.65098 2.06883 7.48648 1.84918 7.19727C1.36746 6.56299 0.952141 6.01715 0.658752 5.56153C0.377241 5.12429 0.0679446 4.56536 0.0122673 3.91114C-0.0944684 2.65687 0.505495 1.44704 1.56891 0.77344L1.77985 0.654299C2.27952 0.400784 2.82026 0.32626 3.27399 0.291018C3.81427 0.249074 4.49997 0.250003 5.29645 0.250003V1.75C3.65294 1.75 2.83113 1.75011 2.37164 2.04102C1.78085 2.41524 1.44711 3.08736 1.50641 3.78418C1.55262 4.32606 2.04937 4.98105 3.04352 6.29004C3.46145 6.84033 3.67103 7.11546 3.7691 7.41211C3.89534 7.7942 3.89541 8.2068 3.7691 8.58887L3.72711 8.7002C3.61566 8.95904 3.40911 9.22962 3.04352 9.71094C2.04968 11.0194 1.55265 11.6741 1.50641 12.2158C1.44705 12.9127 1.78081 13.5847 2.37164 13.959C2.71613 14.1771 3.26474 14.2315 4.21051 14.2451L5.29645 14.25H5.48395L6.38141 14.2471C7.0405 14.2407 7.49611 14.2182 7.90094 14.1397L8.13922 14.0859C8.71555 13.9345 9.25945 13.681 9.74567 13.3389L9.95074 13.1875C10.3323 12.8888 10.6578 12.5107 11.1421 11.8857L11.6871 11.1719L13.1773 9.20996C13.4652 8.8309 13.6271 8.61721 13.7056 8.41016L13.7349 8.32129C13.7909 8.11085 13.7909 7.88915 13.7349 7.67871C13.6715 7.44029 13.5065 7.22342 13.1773 6.79004L11.6871 4.82813C10.8683 3.75017 10.4586 3.21079 9.94977 2.8125C9.41375 2.393 8.79752 2.08712 8.13922 1.91407C7.67047 1.79087 7.17238 1.76063 6.38141 1.75293L5.48395 1.75V0.250003ZM5.48395 0.250003V1.75H5.29645V0.250003H5.48395Z" fill="white"/>
</g>
<defs>
<clipPath id="clip0_274_1593">
<rect width="16" height="16" fill="white"/>
</clipPath>
</defs>
</svg>
