<svg width="16" height="16" viewBox="0 0 16 16" fill="none" xmlns="http://www.w3.org/2000/svg">
<path d="M8 0C10.9694 0 13.3817 2.39839 13.3818 5.36328C13.3818 7.08131 12.5704 8.60744 11.3115 9.58887L12.0527 15.1514C12.0905 15.4365 11.9619 15.7188 11.7217 15.877C11.4814 16.0349 11.1717 16.0411 10.9248 15.8936L8.00098 14.1465L5.07715 15.8936C4.83027 16.041 4.52053 16.0349 4.28027 15.877C4.04004 15.7188 3.91141 15.4365 3.94922 15.1514L4.69043 9.59082C3.43027 8.60945 2.61816 7.08228 2.61816 5.36328C2.61835 2.39843 5.0306 5.83473e-05 8 0ZM9.9043 10.3809C9.31205 10.6043 8.6704 10.7275 8 10.7275C7.33025 10.7275 6.68943 10.6039 6.09766 10.3809L5.64062 13.8086L7.61621 12.6289L7.70801 12.583C7.9265 12.4902 8.17849 12.5051 8.38574 12.6289L10.3604 13.8096L9.9043 10.3809ZM8 1.5C5.85342 1.50006 4.11835 3.23245 4.11816 5.36328C4.11816 7.49426 5.85331 9.22748 8 9.22754C10.1467 9.22754 11.8818 7.4943 11.8818 5.36328C11.8817 3.23242 10.1466 1.5 8 1.5Z" fill="white"/>
</svg>
