<svg width="16" height="16" viewBox="0 0 16 16" fill="none" xmlns="http://www.w3.org/2000/svg">
<g clip-path="url(#clip0_274_1293)">
<path d="M11.2003 12.5V14H7.6856V12.5H11.2003ZM14.5001 9.2002V6.7998C14.5001 5.93534 14.4986 5.37708 14.4639 4.95215C14.4307 4.54542 14.3748 4.39365 14.337 4.31934C14.1932 4.03709 13.963 3.8069 13.6807 3.66309C13.6064 3.6253 13.4546 3.56936 13.0479 3.53613C12.623 3.50144 12.0647 3.5 11.2003 3.5H7.6856C6.68333 3.5 6.41554 3.50887 6.17779 3.56348C5.93287 3.61975 5.69775 3.71251 5.48052 3.83887C5.26968 3.96151 5.06844 4.13824 4.33697 4.82324L3.51666 5.59082C2.8475 6.21747 2.41392 6.62587 2.11041 6.96191C1.81855 7.28511 1.74593 7.43782 1.71881 7.51758C1.61265 7.83028 1.61265 8.16972 1.71881 8.48242C1.74593 8.56218 1.81855 8.71489 2.11041 9.03809C2.41392 9.37413 2.8475 9.78253 3.51666 10.4092L4.33697 11.1768C5.06844 11.8618 5.26968 12.0385 5.48052 12.1611C5.69775 12.2875 5.93287 12.3803 6.17779 12.4365C6.41554 12.4911 6.68332 12.5 7.6856 12.5V14C6.75126 14 6.28379 13.9999 5.84185 13.8984C5.54804 13.8309 5.26293 13.7309 4.99224 13.5996L4.72662 13.458C4.33466 13.23 3.99356 12.9101 3.31158 12.2715L2.49127 11.5039C1.27159 10.3617 0.623988 9.75443 0.348688 9.09668L0.297907 8.96484C0.0855934 8.33944 0.0855934 7.66056 0.297907 7.03516C0.539582 6.32366 1.19046 5.71427 2.49127 4.49609L3.31158 3.72852C3.90828 3.16972 4.24395 2.8554 4.58111 2.63281L4.72662 2.54199C4.98713 2.39049 5.26365 2.2689 5.55084 2.17969L5.84185 2.10156C6.28379 2.00005 6.75126 2 7.6856 2H11.2003C12.8803 2 13.7206 2.00018 14.3624 2.32715C14.9266 2.61472 15.3853 3.07347 15.6729 3.6377C15.9999 4.27941 16.0001 5.11978 16.0001 6.7998V9.2002L15.9952 10.3125C15.9798 11.2877 15.9182 11.881 15.6729 12.3623L15.5577 12.5684C15.2695 13.0383 14.8563 13.4211 14.3624 13.6729L14.2393 13.7305C13.6121 13.9999 12.7754 14 11.2003 14V12.5C12.0647 12.5 12.623 12.4986 13.0479 12.4639C13.4546 12.4306 13.6064 12.3747 13.6807 12.3369C13.963 12.1931 14.1932 11.9629 14.337 11.6807C14.3748 11.6063 14.4307 11.4546 14.4639 11.0479C14.4986 10.6229 14.5001 10.0647 14.5001 9.2002Z" fill="white"/>
<path d="M10.9697 5.46973C11.2626 5.17684 11.7373 5.17684 12.0302 5.46973C12.3231 5.76262 12.3231 6.23738 12.0302 6.53028L10.5605 8L12.0302 9.46973L12.082 9.52637C12.3223 9.82095 12.3048 10.2557 12.0302 10.5303C11.7556 10.8049 11.3209 10.8223 11.0263 10.582L10.9697 10.5303L9.49994 9.06055L8.03022 10.5303C7.73732 10.8232 7.26256 10.8232 6.96967 10.5303C6.67678 10.2374 6.67678 9.76262 6.96967 9.46973L8.4394 8L6.96967 6.53028C6.67678 6.23738 6.67678 5.76262 6.96967 5.46973C7.26256 5.17684 7.73732 5.17684 8.03022 5.46973L9.49994 6.93946L10.9697 5.46973Z" fill="white"/>
</g>
<defs>
<clipPath id="clip0_274_1293">
<rect width="16" height="16" fill="white"/>
</clipPath>
</defs>
</svg>
