<svg width="16" height="16" viewBox="0 0 16 16" fill="none" xmlns="http://www.w3.org/2000/svg">
<path d="M11.7499 5.29824C11.7499 3.90593 10.9723 2.62947 9.73524 1.99063C8.67699 1.44432 7.40714 1.44222 6.33973 1.98086C5.06438 2.62464 4.24989 3.93795 4.24989 5.36074V7.84903C4.2498 8.45912 4.08448 9.05783 3.77137 9.58145L3.31629 10.3422C2.7687 11.2581 3.42876 12.4213 4.49598 12.4213H11.5038C12.571 12.4213 13.2311 11.2581 12.6835 10.3422L12.2284 9.58145C11.9153 9.05783 11.75 8.45912 11.7499 7.84903V5.29824ZM7.00184 13.9213C7.22993 14.2244 7.59132 14.4213 7.99989 14.4213C8.40846 14.4213 8.76984 14.2244 8.99793 13.9213H7.00184ZM13.2499 7.84903C13.25 8.18805 13.3415 8.52096 13.5155 8.81192L13.9706 9.57168C15.1165 11.4875 13.7362 13.9213 11.5038 13.9213H10.6434C10.3168 15.0752 9.25845 15.9213 7.99989 15.9213C6.74132 15.9213 5.68299 15.0752 5.35633 13.9213H4.49598C2.26362 13.9213 0.883225 11.4875 2.02918 9.57168L2.48426 8.81192C2.65827 8.52096 2.7498 8.18805 2.74989 7.84903V5.36074C2.74989 3.36614 3.88765 1.53829 5.66297 0.641995C7.15575 -0.111539 8.93374 -0.111665 10.4237 0.65762C12.1594 1.55392 13.2499 3.3448 13.2499 5.29824V7.84903Z" fill="white"/>
</svg>
