<svg width="16" height="16" viewBox="0 0 16 16" fill="none" xmlns="http://www.w3.org/2000/svg">
<g clip-path="url(#clip0_274_2639)">
<path d="M16 8.02304C15.9996 8.22216 15.9195 8.41292 15.7783 8.55331L12.1533 12.1568L12.0967 12.2086C11.8014 12.448 11.3666 12.4293 11.0928 12.1539C10.801 11.8601 10.803 11.3853 11.0967 11.0934L13.4355 8.76816L2.57129 8.75253L4.90332 11.0719C5.19708 11.3639 5.19918 11.8386 4.90723 12.1324C4.61527 12.4261 4.14047 12.4272 3.84668 12.1353L0.221679 8.53183C0.0803573 8.39134 0.000312003 8.20083 -1.91327e-07 8.00156C-0.00031196 7.80228 0.0788463 7.61124 0.219725 7.47031L3.84473 3.84433L3.90137 3.79257C4.19592 3.55228 4.63066 3.56977 4.90527 3.84433C5.17987 4.11893 5.19734 4.55365 4.95703 4.84824L4.90527 4.90488L2.55859 7.25253L13.4375 7.26816L11.0947 4.92636C10.802 4.63345 10.8019 4.15864 11.0947 3.86581C11.3876 3.57317 11.8624 3.57317 12.1553 3.86581L15.7803 7.49081C15.9212 7.63173 16.0003 7.82375 16 8.02304Z" fill="white"/>
</g>
<defs>
<clipPath id="clip0_274_2639">
<rect width="16" height="16" fill="white"/>
</clipPath>
</defs>
</svg>
