<svg width="16" height="16" viewBox="0 0 16 16" fill="none" xmlns="http://www.w3.org/2000/svg">
<g clip-path="url(#clip0_274_1642)">
<path d="M8.02304 7.99143e-07C8.22216 0.000416139 8.41292 0.0804608 8.55331 0.22168L12.1568 3.84668L12.2086 3.90332C12.448 4.1986 12.4293 4.63344 12.1539 4.90723C11.8601 5.19896 11.3853 5.19697 11.0934 4.90332L8.76816 2.56445L8.75253 13.4287L11.0719 11.0967C11.3639 10.8029 11.8386 10.8008 12.1324 11.0928C12.4261 11.3847 12.4272 11.8595 12.1353 12.1533L8.53183 15.7783C8.39134 15.9196 8.20083 15.9997 8.00156 16C7.80228 16.0003 7.61124 15.9212 7.47031 15.7803L3.84433 12.1553L3.79257 12.0986C3.55228 11.8041 3.56977 11.3693 3.84433 11.0947C4.11893 10.8201 4.55365 10.8027 4.84824 11.043L4.90488 11.0947L7.25253 13.4414L7.26816 2.5625L4.92636 4.90527C4.63345 5.19798 4.15864 5.1981 3.86581 4.90527C3.57318 4.61243 3.57318 4.13757 3.86581 3.84473L7.49081 0.219727C7.63173 0.0788072 7.82375 -0.000290025 8.02304 7.99143e-07Z" fill="white"/>
</g>
<defs>
<clipPath id="clip0_274_1642">
<rect width="16" height="16" fill="white"/>
</clipPath>
</defs>
</svg>
