<svg width="16" height="16" viewBox="0 0 16 16" fill="none" xmlns="http://www.w3.org/2000/svg">
<path d="M9.46435 0.187511C9.81423 0.237367 10.1133 0.420468 10.354 0.591808C10.6427 0.797307 10.9883 1.09402 11.397 1.44435L12.1519 2.09083C12.3858 2.29132 12.5981 2.47256 12.7593 2.63673C12.9254 2.80604 13.0934 3.01197 13.1909 3.28321C13.3283 3.66567 13.3283 4.08435 13.1909 4.46681C13.0934 4.73805 12.9254 4.94398 12.7593 5.11329C12.5981 5.27746 12.3858 5.4587 12.1519 5.65919L9.4204 8.00001L12.1519 10.3408C12.3858 10.5413 12.5981 10.7226 12.7593 10.8867C12.9254 11.056 13.0934 11.262 13.1909 11.5332C13.3283 11.9157 13.3283 12.3344 13.1909 12.7168C13.0934 12.9881 12.9254 13.194 12.7593 13.3633C12.5981 13.5275 12.3858 13.7087 12.1519 13.9092L11.397 14.5557C10.9883 14.906 10.6427 15.2027 10.354 15.4082C10.0789 15.604 9.72717 15.8149 9.31103 15.8252C8.77017 15.8385 8.25348 15.601 7.91162 15.1817C7.64864 14.859 7.57968 14.4545 7.54931 14.1182C7.51746 13.7652 7.51806 13.3098 7.51806 12.7715V9.62989L3.94384 12.6943C3.6294 12.9639 3.15582 12.9276 2.88623 12.6133C2.6167 12.2989 2.65293 11.8253 2.96728 11.5557L7.11572 8.00001L2.96728 4.44435L2.91162 4.39161C2.64953 4.11632 2.63353 3.68154 2.88623 3.38673C3.13906 3.09192 3.57119 3.0416 3.8833 3.2588L3.94384 3.30567L7.51806 6.36915V3.22853C7.51806 2.69027 7.51746 2.2348 7.54931 1.88185C7.57968 1.54556 7.64863 1.14104 7.91162 0.81837L8.04736 0.669933C8.38268 0.343542 8.83765 0.163188 9.31103 0.174815L9.46435 0.187511ZM9.01806 12.7715C9.01806 13.3397 9.01914 13.7141 9.04345 13.9834C9.05802 14.1447 9.07746 14.2188 9.08544 14.2442C9.13001 14.2925 9.19073 14.3211 9.25634 14.3242C9.27839 14.315 9.34828 14.2837 9.48486 14.1865C9.70517 14.0297 9.99006 13.7867 10.4214 13.417L11.1753 12.7705C11.4295 12.5526 11.5837 12.4198 11.689 12.3125C11.789 12.2106 11.7868 12.1876 11.7788 12.21C11.7984 12.1553 11.7984 12.0947 11.7788 12.04C11.7868 12.0624 11.789 12.0394 11.689 11.9375C11.5837 11.8303 11.4295 11.6974 11.1753 11.4795L9.01806 9.62989V12.7715ZM9.01806 6.36915L11.1753 4.52052C11.4295 4.30263 11.5837 4.16977 11.689 4.06251C11.789 3.96059 11.7868 3.9376 11.7788 3.95997C11.7984 3.90534 11.7984 3.84469 11.7788 3.79005C11.7868 3.81242 11.789 3.78943 11.689 3.68751C11.5837 3.58025 11.4295 3.4474 11.1753 3.2295L10.4214 2.58302C9.99006 2.21331 9.70517 1.97033 9.48486 1.81349C9.34755 1.71576 9.278 1.68383 9.25634 1.67482C9.19095 1.67788 9.12999 1.70685 9.08544 1.75489C9.07766 1.77933 9.05819 1.85337 9.04345 2.01661C9.01914 2.28595 9.01806 2.66036 9.01806 3.22853V6.36915Z" fill="white"/>
</svg>
