<svg width="16" height="16" viewBox="0 0 16 16" fill="none" xmlns="http://www.w3.org/2000/svg">
<g clip-path="url(#clip0_274_2063)">
<path d="M11.75 11.375C11.75 10.1868 10.8029 9.25019 9.66701 9.25001H4.25001V13.1504C4.25001 13.2915 4.24952 13.4024 4.25099 13.4981C4.34692 13.4995 4.45803 13.5 4.59962 13.5H9.66701C10.8029 13.4998 11.75 12.5632 11.75 11.375ZM14.25 11.375C14.25 13.9145 12.2128 15.9998 9.66701 16H4.59962C4.34049 16 4.07107 16.0011 3.84181 15.9824C3.59777 15.9625 3.29105 15.9141 2.97853 15.7549C2.55516 15.5392 2.21085 15.1949 1.99513 14.7715C1.8359 14.459 1.78753 14.1523 1.76759 13.9082C1.74889 13.679 1.75001 13.4095 1.75001 13.1504V2.84962C1.75001 2.59049 1.74889 2.32107 1.76759 2.09181C1.78753 1.84777 1.8359 1.54105 1.99513 1.22853L2.08204 1.07326C2.29822 0.720904 2.60816 0.433841 2.97853 0.24513L3.09572 0.190443C3.36693 0.0743697 3.62836 0.0350309 3.84181 0.0175914C4.07107 -0.00111325 4.34049 1.22992e-05 4.59962 1.32687e-05H9.66701C12.2128 0.000190845 14.25 2.08549 14.25 4.62501C14.25 5.95209 13.6924 7.15375 12.7979 8.00001C13.6924 8.84628 14.25 10.0479 14.25 11.375ZM4.25001 6.75001H9.66701L9.87697 6.73927C10.9172 6.63216 11.75 5.73915 11.75 4.62501C11.75 3.43684 10.8029 2.50019 9.66701 2.50001H4.59962C4.45803 2.50001 4.34692 2.49951 4.25099 2.50099C4.24951 2.59692 4.25001 2.70803 4.25001 2.84962V6.75001Z" fill="white"/>
</g>
<defs>
<clipPath id="clip0_274_2063">
<rect width="16" height="16" fill="white"/>
</clipPath>
</defs>
</svg>
