<svg width="16" height="16" viewBox="0 0 16 16" fill="none" xmlns="http://www.w3.org/2000/svg">
<g clip-path="url(#clip0_274_1810)">
<path d="M13.5 4.11721e-06C13.9143 4.11721e-06 14.25 0.335792 14.25 0.750002V15.25C14.25 15.6642 13.9143 16 13.5 16H4.62504C4.51799 16 4.43728 16.0006 4.36527 15.997C3.99401 15.9788 3.64335 15.885 3.32523 15.7343C3.30091 15.7231 3.27612 15.7125 3.25199 15.7002C3.23497 15.6915 3.219 15.6809 3.20219 15.6718C3.16732 15.6531 3.13262 15.6344 3.09867 15.6142C3.06817 15.5961 3.03855 15.5768 3.00883 15.5576C2.97253 15.5341 2.9365 15.5105 2.90141 15.4853C2.87415 15.4658 2.84782 15.4452 2.82133 15.4248C2.78754 15.3987 2.75325 15.3733 2.72074 15.3457C2.6065 15.2487 2.50032 15.1426 2.40336 15.0283C2.37575 14.9958 2.35035 14.9615 2.32426 14.9277C2.30382 14.9012 2.28319 14.8749 2.26371 14.8476C2.2386 14.8125 2.21492 14.7765 2.19144 14.7402C2.17225 14.7105 2.15287 14.6809 2.1348 14.6504C2.11467 14.6164 2.09589 14.5817 2.07719 14.5468C2.06839 14.5304 2.05831 14.5146 2.04984 14.498C2.03735 14.4735 2.02611 14.4485 2.01469 14.4238C1.86438 14.106 1.77118 13.7555 1.75297 13.3847C1.74944 13.3127 1.75004 13.232 1.75004 13.125C1.75004 13.0179 1.74944 12.9372 1.75297 12.8652C1.75319 12.8606 1.7537 12.8561 1.75394 12.8515C1.74957 12.6098 1.75004 12.3429 1.75004 12.0498V3.95019C1.75004 3.40252 1.74901 2.94632 1.77934 2.57519C1.81037 2.19547 1.87814 1.83909 2.04984 1.50195C2.31349 0.984519 2.73456 0.56346 3.25199 0.299808C3.58912 0.128102 3.94552 0.0603341 4.32523 0.0293009C4.69635 -0.00102076 5.15257 4.06886e-06 5.70023 4.11721e-06H13.5ZM4.62504 11.75C4.5001 11.75 4.46453 11.7507 4.43852 11.7519C3.81099 11.7829 3.30779 12.2738 3.2559 12.8955C3.25942 13.0499 3.26472 13.1835 3.27445 13.3027C3.29686 13.5768 3.33717 13.714 3.3809 13.8047C3.41782 13.8791 3.46136 13.9495 3.51176 14.0146C3.57624 14.098 3.65113 14.1727 3.73441 14.2373C3.80002 14.2882 3.87119 14.3319 3.94633 14.3691C4.037 14.4127 4.17402 14.4532 4.4473 14.4756C4.74318 14.4997 5.12783 14.5 5.70023 14.5H12.75V11.75H4.62504ZM5.70023 1.5C5.12783 1.5 4.74318 1.50024 4.4473 1.52441C4.16033 1.54788 4.02319 1.59059 3.93266 1.63672C3.69755 1.75655 3.50658 1.94751 3.38676 2.18262C3.34063 2.27316 3.29791 2.41028 3.27445 2.69726C3.25028 2.99314 3.25004 3.37777 3.25004 3.95019V10.5527C3.58759 10.38 3.96447 10.2726 4.36527 10.2529C4.43728 10.2494 4.51799 10.25 4.62504 10.25H12.75V1.5H5.70023Z" fill="white"/>
</g>
<defs>
<clipPath id="clip0_274_1810">
<rect width="16" height="16" fill="white"/>
</clipPath>
</defs>
</svg>
