<svg width="16" height="16" viewBox="0 0 16 16" fill="none" xmlns="http://www.w3.org/2000/svg">
<g clip-path="url(#clip0_274_2220)">
<path d="M7.48243 11.1186C7.81938 11.0143 8.18063 11.0143 8.51758 11.1186C8.75172 11.1911 8.93847 11.3144 9.09766 11.4408C9.24973 11.5616 9.41911 11.7201 9.60254 11.891L11.3203 13.4926C11.7559 13.8985 12.0457 14.1674 12.2705 14.3422C12.4081 14.4492 12.4805 14.4859 12.5049 14.4975C12.5707 14.4962 12.6319 14.4695 12.6777 14.4223C12.6858 14.3967 12.7081 14.3188 12.7236 14.1449C12.749 13.8613 12.75 13.466 12.75 12.8705V3.94864C12.75 3.37621 12.7498 2.99159 12.7256 2.69571C12.7021 2.40871 12.6594 2.27161 12.6133 2.18106C12.4935 1.94595 12.3025 1.75499 12.0674 1.63517C11.9768 1.58903 11.8397 1.54632 11.5527 1.52286C11.2569 1.49869 10.8722 1.49845 10.2998 1.49845H5.7002C5.12777 1.49845 4.74315 1.49869 4.44727 1.52286C4.16027 1.54632 4.02316 1.58903 3.93262 1.63517C3.69751 1.75499 3.50655 1.94595 3.38672 2.18106C3.34059 2.27161 3.29788 2.40871 3.27442 2.69571C3.25024 2.99159 3.25 3.37621 3.25 3.94864V12.8705C3.25 13.466 3.251 13.8613 3.27637 14.1449C3.29187 14.3182 3.31312 14.3964 3.32129 14.4223C3.36698 14.4696 3.42842 14.4959 3.49414 14.4975C3.5177 14.4863 3.59035 14.4504 3.7295 14.3422C3.95432 14.1674 4.24406 13.8985 4.67969 13.4926L6.39747 11.891C6.5809 11.7201 6.75028 11.5616 6.90235 11.4408C7.06153 11.3144 7.24829 11.1911 7.48243 11.1186ZM14.25 12.8705C14.25 13.4363 14.2506 13.9121 14.2178 14.2787C14.1868 14.6246 14.1171 15.0443 13.8428 15.3725C13.4892 15.7954 12.9567 16.027 12.4063 15.9975C11.9791 15.9744 11.6237 15.7399 11.3496 15.5268C11.0591 15.3009 10.7117 14.9759 10.2979 14.5902L8.57911 12.9887C8.37837 12.8016 8.25977 12.6909 8.16504 12.6156C8.07746 12.5461 8.05861 12.5464 8.07422 12.5512C8.02609 12.5363 7.97392 12.5363 7.92579 12.5512C7.9414 12.5464 7.92254 12.5461 7.83497 12.6156C7.74024 12.6909 7.62163 12.8016 7.4209 12.9887L5.70215 14.5902C5.28833 14.9759 4.94093 15.3009 4.65039 15.5268C4.37629 15.7399 4.02086 15.9744 3.59375 15.9975C3.04329 16.027 2.51084 15.7954 2.15723 15.3725C1.8829 15.0443 1.81318 14.6246 1.78223 14.2787C1.74943 13.9121 1.75 13.4363 1.75 12.8705V3.94864C1.75 3.40097 1.74898 2.94477 1.7793 2.57364C1.81033 2.19391 1.8781 1.83754 2.04981 1.5004C2.31346 0.982955 2.73451 0.561904 3.25196 0.298252C3.5891 0.12654 3.94547 0.0587764 4.3252 0.0277446C4.69633 -0.00257787 5.15252 -0.00155228 5.7002 -0.00155228H10.2998C10.8475 -0.00155228 11.3037 -0.00257787 11.6748 0.0277446C12.0545 0.0587764 12.4109 0.12654 12.7481 0.298252C13.2655 0.561904 13.6865 0.982955 13.9502 1.5004C14.1219 1.83754 14.1897 2.19391 14.2207 2.57364C14.251 2.94477 14.25 3.40097 14.25 3.94864V12.8705Z" fill="white"/>
</g>
<defs>
<clipPath id="clip0_274_2220">
<rect width="16" height="16" fill="white"/>
</clipPath>
</defs>
</svg>
