<svg width="16" height="16" viewBox="0 0 16 16" fill="none" xmlns="http://www.w3.org/2000/svg">
<path d="M11.4395 10.6807V12.1807H3.36133V10.6807H11.4395ZM14.5 7.62005C14.5 6.9924 14.4996 6.59978 14.4785 6.30264C14.4584 6.0199 14.4255 5.93914 14.418 5.92177C14.317 5.68851 14.1307 5.50226 13.8975 5.40125C13.8801 5.39373 13.7993 5.36077 13.5166 5.3407C13.2195 5.31961 12.8269 5.31922 12.1992 5.31922H11.6816C11.258 5.31922 11.1982 5.32259 11.1494 5.32996C11.0835 5.33993 11.0187 5.35691 10.9561 5.37977C10.9097 5.39667 10.8551 5.42187 10.4834 5.62489L9.27637 6.28506C8.98051 6.44664 8.70007 6.6029 8.39355 6.71476C8.14295 6.8062 7.88389 6.87315 7.62012 6.913C7.29755 6.96173 6.9767 6.95793 6.63965 6.95793H4.44922C4.67621 7.42861 5.15636 7.75368 5.71387 7.75384C6.12793 7.75384 6.46362 8.08984 6.46387 8.50386C6.46387 8.91808 6.12808 9.25388 5.71387 9.25388C4.3205 9.25368 3.15713 8.27286 2.875 6.96379C2.86904 6.96421 2.86358 6.96427 2.8584 6.96476C2.14222 7.03278 1.57505 7.59924 1.50684 8.31538C1.50181 8.36829 1.5 8.44901 1.5 8.8193C1.5 9.18958 1.50181 9.2703 1.50684 9.32321C1.57505 10.0394 2.14221 10.6058 2.8584 10.6738C2.9113 10.6788 2.99173 10.6807 3.36133 10.6807V12.1807C3.1934 12.1807 3.06746 12.1814 2.96582 12.1797L2.7168 12.168C1.37367 12.0404 0.292733 11.0351 0.0507812 9.72947L0.0136719 9.46482C0.000234544 9.32332 0 9.15517 0 8.8193C0 8.65137 0.00027379 8.52543 0.00195312 8.42378L0.0136719 8.17377C0.141315 6.8308 1.14575 5.74972 2.45117 5.5077L2.7168 5.47059C2.78735 5.4639 2.86454 5.46055 2.96582 5.45887L3.36133 5.45789H6.63965L7.09082 5.45399C7.14996 5.45223 7.20306 5.45011 7.25293 5.44617L7.39648 5.42957C7.47871 5.41714 7.56015 5.4003 7.64062 5.37977L7.87988 5.30652C7.96804 5.27435 8.05372 5.23511 8.15918 5.18152L8.55664 4.96862L9.76465 4.30845C10.015 4.17175 10.1716 4.08659 10.3086 4.02524L10.4424 3.97055C10.5206 3.94204 10.6001 3.91787 10.6807 3.89731L10.9258 3.8475C11.1114 3.81949 11.3015 3.81918 11.6816 3.81918H12.1992C13.4116 3.81918 14.0178 3.81945 14.4932 4.02524C15.0763 4.27776 15.5414 4.74291 15.7939 5.32605C15.9997 5.80142 16 6.40761 16 7.62005L15.9961 8.58394C15.9845 9.42907 15.9382 9.94521 15.7529 10.373C15.45 11.0727 14.892 11.6306 14.1924 11.9336L13.9697 12.0157C13.4285 12.1811 12.7124 12.1807 11.4395 12.1807V10.6807C12.1881 10.6807 12.6714 10.6805 13.041 10.6543C13.3958 10.6291 13.5307 10.5857 13.5957 10.5576C13.9456 10.4061 14.2254 10.1272 14.377 9.77732C14.405 9.71248 14.4474 9.57707 14.4727 9.22165C14.4989 8.85205 14.5 8.36866 14.5 7.62005Z" fill="white"/>
</svg>
