<svg width="16" height="16" viewBox="0 0 16 16" fill="none" xmlns="http://www.w3.org/2000/svg">
<g clip-path="url(#clip0_274_1972)">
<path d="M3.16699 0C4.91574 0.000175869 6.33301 1.4182 6.33301 3.16699C6.33286 4.64564 5.31943 5.88707 3.94922 6.23535C4.09873 7.71988 4.75599 9.11536 5.82031 10.1797C6.88442 11.2438 8.27951 11.9001 9.76367 12.0498C10.1125 10.6799 11.3556 9.66699 12.834 9.66699C14.5826 9.6673 16 11.0853 16 12.834C15.9997 14.5824 14.5824 15.9997 12.834 16C11.3326 16 10.0759 14.9549 9.75 13.5527C7.87244 13.3959 6.10209 12.5825 4.75977 11.2402C4.44949 10.93 4.16939 10.5952 3.91699 10.2432V15.25C3.91682 15.6639 3.58087 15.9997 3.16699 16C2.75289 16 2.41717 15.6641 2.41699 15.25V6.24219C1.03029 5.90534 0.000149871 4.65724 0 3.16699C0 1.41809 1.41809 0 3.16699 0ZM12.834 11.167C11.9135 11.167 11.167 11.9135 11.167 12.834C11.1673 13.7542 11.9137 14.5 12.834 14.5C13.754 14.4997 14.4997 13.754 14.5 12.834C14.5 11.9137 13.7542 11.1673 12.834 11.167ZM3.16699 1.5C2.24652 1.5 1.5 2.24652 1.5 3.16699C1.50018 4.08732 2.24663 4.83301 3.16699 4.83301C4.08721 4.83283 4.83283 4.08721 4.83301 3.16699C4.83301 2.24663 4.08732 1.50018 3.16699 1.5Z" fill="white"/>
</g>
<defs>
<clipPath id="clip0_274_1972">
<rect width="16" height="16" fill="white"/>
</clipPath>
</defs>
</svg>
