<svg width="16" height="16" viewBox="0 0 16 16" fill="none" xmlns="http://www.w3.org/2000/svg">
<g clip-path="url(#clip0_274_2322)">
<path d="M8.5 0.500048C8.92852 0.500048 9.25231 0.496387 9.53613 0.552783C10.627 0.769776 11.4803 1.62302 11.6973 2.71392C11.7421 2.93977 11.7471 3.19094 11.748 3.50005H12C12.93 3.50005 13.3949 3.50037 13.7764 3.60259C14.8116 3.87999 15.6201 4.6884 15.8975 5.72368C15.9997 6.10518 16 6.57008 16 7.50005V11.5C16 12.43 15.9997 12.8949 15.8975 13.2764C15.6201 14.3117 14.8116 15.1201 13.7764 15.3975C13.3949 15.4997 12.93 15.5 12 15.5H4C3.18617 15.5 2.7284 15.5002 2.37109 15.4317L2.22363 15.3975C1.25302 15.1374 0.481333 14.4108 0.160156 13.4678L0.102539 13.2764C0.00031776 12.8949 2.7865e-09 12.43 2.7865e-09 11.5V7.50005C2.7865e-09 6.68622 -0.000148848 6.22845 0.0683594 5.87114L0.102539 5.72368C0.362615 4.75306 1.08927 3.98138 2.03223 3.6602L2.22363 3.60259C2.60513 3.50037 3.07003 3.50005 4 3.50005H4.25195C4.25288 3.19094 4.25786 2.93977 4.30273 2.71392C4.51973 1.62302 5.37297 0.769776 6.46387 0.552783C6.74769 0.496387 7.07148 0.500048 7.5 0.500048H8.5ZM4.75 14H11.25V5.00005H4.75V14ZM3.25 5.00493C2.84362 5.01132 2.70926 5.02459 2.61133 5.05083C2.09396 5.18958 1.68954 5.59401 1.55078 6.11138C1.51255 6.25404 1.5 6.4735 1.5 7.50005V11.5C1.5 12.5266 1.51255 12.7461 1.55078 12.8887C1.68954 13.4061 2.09396 13.8105 2.61133 13.9493C2.70926 13.9755 2.84363 13.9878 3.25 13.9942V5.00493ZM12.75 13.9942C13.1564 13.9878 13.2907 13.9755 13.3887 13.9493C13.906 13.8105 14.3105 13.4061 14.4492 12.8887C14.4874 12.7461 14.5 12.5266 14.5 11.5V7.50005C14.5 6.4735 14.4874 6.25404 14.4492 6.11138C14.3105 5.59401 13.906 5.18958 13.3887 5.05083C13.2907 5.02459 13.1564 5.01132 12.75 5.00493V13.9942ZM7.5 2.00005C6.9994 2.00005 6.85835 2.00408 6.75586 2.02446C6.26027 2.12318 5.87314 2.51032 5.77441 3.00591C5.75793 3.08879 5.75356 3.19691 5.75195 3.50005H10.248C10.2464 3.19691 10.2421 3.08879 10.2256 3.00591C10.1269 2.51032 9.73973 2.12318 9.24414 2.02446C9.14165 2.00408 9.0006 2.00005 8.5 2.00005H7.5Z" fill="white"/>
</g>
<defs>
<clipPath id="clip0_274_2322">
<rect width="16" height="16" fill="white"/>
</clipPath>
</defs>
</svg>
