<svg width="16" height="16" viewBox="0 0 16 16" fill="none" xmlns="http://www.w3.org/2000/svg">
<g clip-path="url(#clip0_274_2303)">
<path d="M5.4005 16C4.91645 16 4.50469 16.0007 4.17198 15.9717C3.83269 15.9421 3.49323 15.877 3.17978 15.6943C2.71916 15.4258 2.36904 15.0018 2.1915 14.499C2.07071 14.1569 2.06918 13.8115 2.10361 13.4727C2.13737 13.1404 2.21519 12.7362 2.30576 12.2607L2.57529 10.8486C2.638 10.5194 2.68763 10.232 2.80771 9.96777C2.90653 9.75042 3.03951 9.54963 3.20127 9.37402C3.3979 9.16069 3.64318 9.00325 3.92198 8.81738L5.01573 8.08886C5.44428 7.80316 5.52519 7.73939 5.57921 7.67383C5.64181 7.59767 5.68923 7.50936 5.71788 7.41504C5.74256 7.33367 5.75011 7.23157 5.75011 6.71582L5.75011 2.25C5.75011 1.00741 6.75754 7.87037e-05 8.00012 -2.42453e-06C9.24277 -2.3159e-06 10.2501 1.00736 10.2501 2.25L10.2501 6.71582C10.2501 7.23149 10.2577 7.33367 10.2824 7.41504C10.311 7.50935 10.3585 7.59767 10.421 7.67383C10.475 7.73941 10.5559 7.80312 10.9845 8.08887L12.0783 8.81738C12.3571 9.00326 12.6023 9.16071 12.799 9.37402C12.9607 9.54963 13.0937 9.75042 13.1925 9.96777C13.3126 10.232 13.3622 10.5194 13.425 10.8486L13.6945 12.2607C13.7851 12.7362 13.8629 13.1404 13.8966 13.4727C13.9311 13.8115 13.9296 14.1569 13.8087 14.499C13.6312 15.0018 13.2811 15.4258 12.8205 15.6943C12.507 15.8769 12.1675 15.9421 11.8283 15.9717C11.4956 16.0007 11.0838 16 10.5997 16L5.4005 16ZM11.5167 10.25C11.4539 10.2063 11.3682 10.1467 11.2462 10.0654L10.1525 9.33691C9.80067 9.10238 9.49065 8.90435 9.26185 8.62597C9.07406 8.39748 8.93275 8.13358 8.8468 7.85058C8.76837 7.59199 8.75287 7.32041 8.75012 7.02246L8.75012 2.25C8.75012 1.83579 8.41434 1.5 8.00012 1.5C7.58597 1.50008 7.25012 1.83584 7.25012 2.25L7.25012 7.02246C7.24737 7.32043 7.23188 7.59197 7.15344 7.85058C7.06748 8.13359 6.9262 8.39747 6.7384 8.62597C6.50957 8.90434 6.19958 9.10237 5.84777 9.33691L4.75401 10.0654C4.63198 10.1468 4.54634 10.2063 4.4835 10.25L11.5167 10.25ZM10.5997 14.5C11.1107 14.5 11.446 14.4995 11.6984 14.4775C11.9437 14.4561 12.029 14.4198 12.0656 14.3984C12.219 14.309 12.3355 14.1674 12.3947 14C12.4088 13.9601 12.4284 13.8694 12.4035 13.624C12.3778 13.372 12.3164 13.0428 12.2208 12.541L12.0705 11.75L3.93076 11.75L3.7794 12.541C3.68382 13.0428 3.62241 13.372 3.59678 13.624C3.57185 13.8693 3.59147 13.9601 3.60557 14C3.66476 14.1675 3.7822 14.309 3.93565 14.3984C3.97249 14.4198 4.0577 14.4562 4.30186 14.4775C4.55422 14.4995 4.88949 14.5 5.4005 14.5L10.5997 14.5Z" fill="white"/>
</g>
<defs>
<clipPath id="clip0_274_2303">
<rect width="16" height="16" fill="white"/>
</clipPath>
</defs>
</svg>
