<svg width="16" height="16" viewBox="0 0 16 16" fill="none" xmlns="http://www.w3.org/2000/svg">
<g clip-path="url(#clip0_274_2248)">
<path d="M3.4846 0.219828C3.77747 -0.0730486 4.25224 -0.0730154 4.54513 0.219828L6.46796 2.14268C6.70937 1.90384 6.92327 1.69782 7.11931 1.53135C7.40971 1.28482 7.70978 1.08 8.0695 0.962994C8.62175 0.783553 9.2174 0.783592 9.76967 0.962994C10.1296 1.07997 10.4293 1.28474 10.7198 1.53135C11.0037 1.77233 11.3258 2.0953 11.713 2.48253L13.9317 4.70128C14.3189 5.08847 14.6419 5.41062 14.8829 5.69445C15.1294 5.98492 15.3343 6.28477 15.4512 6.64464C15.6305 7.19674 15.6305 7.79177 15.4512 8.34387C15.3343 8.70357 15.1293 9.0037 14.8829 9.29406C14.642 9.57781 14.3187 9.90019 13.9317 10.2872L9.87318 14.3458C9.48614 14.7329 9.16377 15.0561 8.88003 15.297C8.58968 15.5434 8.28956 15.7485 7.92985 15.8654C7.37781 16.0446 6.78267 16.0447 6.23066 15.8654C5.87087 15.7484 5.57089 15.5435 5.28047 15.297C4.99666 15.0561 4.67449 14.733 4.28732 14.3458L2.06861 12.1271C1.68138 11.7398 1.35842 11.4178 1.11745 11.1339C0.870849 10.8434 0.666081 10.5436 0.549099 10.1837C0.369672 9.63148 0.369731 9.03576 0.549099 8.48351C0.666047 8.12376 0.870947 7.82372 1.11745 7.53332C1.35837 7.24954 1.68152 6.92725 2.06861 6.54015L5.40645 3.20226L3.4846 1.28038C3.19185 0.987568 3.192 0.512727 3.4846 0.219828ZM9.30581 2.38975C9.05483 2.30827 8.78432 2.30821 8.53336 2.38975C8.43674 2.42121 8.30935 2.48869 8.09 2.67491C7.934 2.80739 7.75734 2.97861 7.52946 3.20421L8.22379 3.89855L8.27555 3.95519C8.51582 4.24977 8.49838 4.6845 8.22379 4.95909C7.94919 5.23343 7.51438 5.25105 7.2199 5.01085L7.16326 4.95909L6.46698 4.2628L3.12914 7.60168C2.72477 8.00606 2.45302 8.27784 2.26099 8.50402C2.07474 8.72345 2.00724 8.85076 1.97584 8.94738C1.89436 9.19833 1.89432 9.46891 1.97584 9.71984C2.00726 9.81649 2.07463 9.94368 2.26099 10.1632C2.4531 10.3895 2.72446 10.6618 3.12914 11.0665L5.34786 13.2853C5.7525 13.6899 6.0249 13.9613 6.25116 14.1534C6.47049 14.3396 6.59791 14.4072 6.69452 14.4386C6.94533 14.52 7.21616 14.52 7.46697 14.4386C7.56351 14.4072 7.69029 14.3393 7.90934 14.1534C8.13556 13.9614 8.40816 13.6898 8.81265 13.2853L12.8712 9.22668C13.2756 8.82221 13.5473 8.54957 13.7393 8.32336C13.9252 8.10434 13.993 7.97752 14.0245 7.88097C14.106 7.63012 14.1059 7.3594 14.0245 7.10851C13.9931 7.01188 13.9256 6.88462 13.7393 6.66515C13.5472 6.43887 13.2759 6.1665 12.8712 5.76183L10.6525 3.54308C10.2478 3.13839 9.97544 2.86703 9.74916 2.67491C9.52958 2.4885 9.40246 2.42116 9.30581 2.38975Z" fill="white"/>
</g>
<defs>
<clipPath id="clip0_274_2248">
<rect width="16" height="16" fill="white"/>
</clipPath>
</defs>
</svg>
