<svg width="16" height="16" viewBox="0 0 16 16" fill="none" xmlns="http://www.w3.org/2000/svg">
<g clip-path="url(#clip0_274_1899)">
<path d="M11.7812 7.09376C11.7812 6.558 11.6687 6.04873 11.4678 5.58693C11.4644 5.57948 11.4611 5.57204 11.458 5.56447C10.8706 4.23822 9.54385 3.31251 8 3.31251C6.45599 3.31251 5.12833 4.23803 4.54102 5.56447C4.53792 5.57205 4.53459 5.57947 4.53125 5.58693C4.3304 6.04864 4.21875 6.55813 4.21875 7.09376V10.7188C4.21875 11.2541 4.33063 11.7631 4.53125 12.2246C4.53459 12.2321 4.53791 12.2395 4.54102 12.2471C5.12815 13.574 6.45568 14.5 8 14.5C9.54417 14.5 10.8708 13.5738 11.458 12.2471C11.4611 12.2395 11.4644 12.2321 11.4678 12.2246C11.6685 11.763 11.7812 11.2542 11.7812 10.7188V7.09376ZM9 10.25C9.41421 10.25 9.75 10.5858 9.75 11C9.75 11.4142 9.41421 11.75 9 11.75H7C6.58579 11.75 6.25 11.4142 6.25 11C6.25 10.5858 6.58579 10.25 7 10.25H9ZM9 6.25001C9.41421 6.25001 9.75 6.5858 9.75 7.00001C9.75 7.41423 9.41421 7.75001 9 7.75001H7C6.58579 7.75001 6.25 7.41423 6.25 7.00001C6.25 6.5858 6.58579 6.25001 7 6.25001H9ZM13.2812 8.15626H14.3438C14.758 8.15626 15.0938 8.49205 15.0938 8.90626C15.0938 9.32048 14.758 9.65626 14.3438 9.65626H13.2812V10.7188C13.2812 11.0827 13.2439 11.438 13.1738 11.7813H14.3438C14.758 11.7813 15.0938 12.117 15.0938 12.5313C15.0938 12.9455 14.758 13.2813 14.3438 13.2813H12.6182C11.7166 14.9026 9.98672 16 8 16C6.01327 16 4.28341 14.9026 3.38184 13.2813H1.65625C1.24204 13.2813 0.90625 12.9455 0.90625 12.5313C0.90625 12.117 1.24204 11.7813 1.65625 11.7813H2.82617C2.75605 11.438 2.71875 11.0827 2.71875 10.7188V9.65626H1.65625C1.24204 9.65626 0.90625 9.32048 0.90625 8.90626C0.90625 8.49205 1.24204 8.15626 1.65625 8.15626H2.71875V7.09376C2.71875 6.72979 2.75605 6.37452 2.82617 6.03126H1.65625C1.24204 6.03126 0.90625 5.69548 0.90625 5.28126C0.90625 4.86705 1.24204 4.53126 1.65625 4.53126H3.38184C3.73538 3.89547 4.2161 3.34041 4.79004 2.9004L3.73145 1.13576C3.51857 0.780609 3.63417 0.319512 3.98926 0.106458C4.32234 -0.0931938 4.74821 -0.00396273 4.97559 0.300794L5.01855 0.364271L6.09961 2.16603C6.68942 1.93842 7.32992 1.81251 8 1.81251C8.66975 1.81251 9.30984 1.93862 9.89941 2.16603L10.9814 0.364271C11.1945 0.00918114 11.6556 -0.106419 12.0107 0.106458C12.3658 0.319512 12.4814 0.780609 12.2686 1.13576L11.209 2.9004C11.7832 3.34049 12.2645 3.89524 12.6182 4.53126H14.3438C14.758 4.53126 15.0938 4.86705 15.0938 5.28126C15.0938 5.69548 14.758 6.03126 14.3438 6.03126H13.1738C13.2439 6.37452 13.2812 6.72979 13.2812 7.09376V8.15626Z" fill="white"/>
</g>
<defs>
<clipPath id="clip0_274_1899">
<rect width="16" height="16" fill="white"/>
</clipPath>
</defs>
</svg>
