<svg width="16" height="16" viewBox="0 0 16 16" fill="none" xmlns="http://www.w3.org/2000/svg">
<g clip-path="url(#clip0_274_1395)">
<path d="M16 11.0001L15.9814 11.0001C15.9782 11.0603 15.9753 11.1186 15.9707 11.1749C15.9397 11.5546 15.8719 11.911 15.7002 12.2481C15.4365 12.7656 15.0155 13.1866 14.498 13.4503C14.1609 13.622 13.8045 13.6888 13.4248 13.7198C13.0537 13.7501 12.5975 13.7501 12.0498 13.7501L3.95019 13.7501C3.40252 13.7501 2.94632 13.7501 2.57519 13.7198C2.19551 13.6888 1.83905 13.622 1.50195 13.4503C0.984508 13.1866 0.563456 12.7656 0.299804 12.2481C0.128067 11.911 0.0603388 11.5546 0.0292965 11.1749C0.0246991 11.1186 0.0227998 11.0603 0.0195309 11.0001L-3.82475e-07 11.0001L-1.63918e-07 6.00009L0.000976399 6.00009C0.00119179 5.54041 0.00274719 5.15024 0.0292968 4.82529C0.0603288 4.44556 0.128093 4.08919 0.299805 3.75205C0.563456 3.2346 0.984507 2.81355 1.50195 2.5499C1.83909 2.37819 2.19546 2.31042 2.5752 2.27939C2.94632 2.24907 3.40252 2.2501 3.9502 2.2501L12.0498 2.2501C12.5975 2.2501 13.0537 2.24907 13.4248 2.27939C13.8045 2.31042 14.1609 2.37819 14.498 2.5499C15.0155 2.81355 15.4365 3.2346 15.7002 3.75205C15.8719 4.08919 15.9397 4.44556 15.9707 4.82529C15.9973 5.15024 15.9998 5.54041 16 6.0001L16 11.0001ZM14.5 6.20029C14.5 5.62786 14.4998 5.24324 14.4756 4.94736C14.4521 4.66037 14.4094 4.52325 14.3633 4.43271C14.2435 4.1976 14.0525 4.00664 13.8174 3.88681C13.7268 3.84068 13.5897 3.79797 13.3027 3.77451C13.0069 3.75034 12.6222 3.7501 12.0498 3.7501L3.9502 3.7501C3.37777 3.7501 2.99314 3.75033 2.69727 3.77451C2.41027 3.79797 2.27316 3.84068 2.18262 3.88681C1.9475 4.00664 1.75655 4.1976 1.63672 4.43271C1.59059 4.52325 1.54788 4.66036 1.52441 4.94736C1.50024 5.24324 1.5 5.62786 1.5 6.20029L1.5 7.10166C1.5 7.67404 1.50024 8.05872 1.52441 8.35459C1.54788 8.64146 1.5906 8.77871 1.63672 8.86924C1.75656 9.1043 1.94753 9.29533 2.18262 9.41513C2.27316 9.46126 2.4103 9.50398 2.69727 9.52744C2.99314 9.55161 3.37777 9.55185 3.95019 9.55185L12.0498 9.55185C12.6222 9.55185 13.0069 9.55161 13.3027 9.52744C13.5897 9.50398 13.7268 9.46126 13.8174 9.41513C14.0525 9.29533 14.2434 9.1043 14.3633 8.86924C14.4094 8.77871 14.4521 8.64146 14.4756 8.35459C14.4998 8.05872 14.5 7.67404 14.5 7.10166L14.5 6.20029ZM14.4912 10.755C14.1561 10.9242 13.802 10.9908 13.4248 11.0216C13.0537 11.0519 12.5975 11.0519 12.0498 11.0519L3.95019 11.0519C3.40252 11.0519 2.94632 11.0519 2.57519 11.0216C2.19829 10.9908 1.84468 10.9239 1.50977 10.755C1.51336 10.8643 1.51705 10.9627 1.52441 11.0528C1.54788 11.3397 1.5906 11.477 1.63672 11.5675C1.75656 11.8026 1.94752 11.9936 2.18262 12.1134C2.27315 12.1595 2.41031 12.2012 2.69727 12.2247C2.99314 12.2489 3.37777 12.2501 3.95019 12.2501L12.0498 12.2501C12.6222 12.2501 13.0069 12.2489 13.3027 12.2247C13.5897 12.2012 13.7268 12.1595 13.8174 12.1134C14.0525 11.9936 14.2434 11.8026 14.3633 11.5675C14.4094 11.477 14.4521 11.3397 14.4756 11.0528C14.4829 10.9627 14.4876 10.8644 14.4912 10.755ZM11.25 6.5001C11.25 6.91427 10.9142 7.2501 10.5 7.2501L5.5 7.2501C5.08582 7.2501 4.75005 6.91427 4.75 6.5001C4.75 6.08588 5.08579 5.7501 5.5 5.7501L10.5 5.7501C10.9142 5.7501 11.25 6.08588 11.25 6.5001Z" fill="white"/>
</g>
<defs>
<clipPath id="clip0_274_1395">
<rect width="16" height="16" fill="white"/>
</clipPath>
</defs>
</svg>
