<svg width="16" height="16" viewBox="0 0 16 16" fill="none" xmlns="http://www.w3.org/2000/svg">
<path d="M11 0C11.4142 0 11.75 0.335786 11.75 0.75V2.11426C12.1663 2.17848 12.5085 2.27868 12.8164 2.43555C13.5689 2.81902 14.181 3.43109 14.5645 4.18359C15.0004 5.03924 15 6.16018 15 8.40039V9.59961C15 11.8398 15.0004 12.9608 14.5645 13.8164L14.4102 14.0918C14.0259 14.7183 13.4749 15.2289 12.8164 15.5645L12.6523 15.6406C11.816 15.9999 10.6999 16 8.59961 16H7.40039L5.91602 15.9932C4.72431 15.9744 3.96088 15.9041 3.34766 15.6406L3.18359 15.5645C2.52512 15.2289 1.97413 14.7183 1.58984 14.0918L1.43555 13.8164C0.999573 12.9608 1 11.8398 1 9.59961V8.40039C1 6.16018 0.999573 5.03924 1.43555 4.18359C1.81902 3.43109 2.43109 2.81902 3.18359 2.43555C3.49143 2.2787 3.83376 2.17942 4.25 2.11523V0.75C4.25 0.335786 4.58579 0 5 0C5.41421 0 5.75 0.335786 5.75 0.75V2.00977C5.8044 2.00864 5.85973 2.00772 5.91602 2.00684L7.40039 2H8.59961C9.23272 2 9.77641 2.00095 10.25 2.01074V0.75C10.25 0.335786 10.5858 0 11 0ZM7.40039 3.5C6.73697 3.5 6.19971 3.5019 5.75 3.51172V4.75C5.75 5.16421 5.41421 5.5 5 5.5C4.58579 5.5 4.25 5.16421 4.25 4.75V3.64062C4.07775 3.67982 3.95894 3.72474 3.86523 3.77246C3.39483 4.01214 3.01214 4.39483 2.77246 4.86523C2.68023 5.04631 2.59671 5.32077 2.5498 5.89453C2.50146 6.48629 2.5 7.25553 2.5 8.40039V9.59961C2.5 10.7445 2.50146 11.5137 2.5498 12.1055C2.59671 12.6792 2.68023 12.9537 2.77246 13.1348C3.01214 13.6052 3.39483 13.9879 3.86523 14.2275C4.04631 14.3198 4.32077 14.4033 4.89453 14.4502C5.48629 14.4985 6.25553 14.5 7.40039 14.5H8.59961C9.74447 14.5 10.5137 14.4985 11.1055 14.4502C11.6792 14.4033 11.9537 14.3198 12.1348 14.2275C12.6052 13.9879 12.9879 13.6052 13.2275 13.1348C13.3198 12.9537 13.4033 12.6792 13.4502 12.1055C13.4985 11.5137 13.5 10.7445 13.5 9.59961V8.40039C13.5 7.25553 13.4985 6.48629 13.4502 5.89453C13.4033 5.32077 13.3198 5.04631 13.2275 4.86523C12.9879 4.39483 12.6052 4.01214 12.1348 3.77246C12.0411 3.72474 11.9222 3.67982 11.75 3.64062V4.75C11.75 5.16421 11.4142 5.5 11 5.5C10.5858 5.5 10.25 5.16421 10.25 4.75V3.51172C9.80029 3.5019 9.26303 3.5 8.59961 3.5H7.40039Z" fill="white"/>
</svg>
