<svg width="16" height="16" viewBox="0 0 16 16" fill="none" xmlns="http://www.w3.org/2000/svg">
<path d="M8.3125 2.00488C9.28775 2.02021 9.88098 2.0819 10.3623 2.32715C10.9265 2.61472 11.3853 3.07347 11.6729 3.6377C11.9577 4.1968 11.9923 4.90673 11.9971 6.19141C12.4108 5.77761 12.7572 5.43096 13.0469 5.18848C13.3196 4.96018 13.6761 4.70439 14.1123 4.66992L14.3213 4.66602C14.8048 4.68569 15.2627 4.90467 15.5811 5.27734C15.8654 5.61022 15.9354 6.04404 15.9668 6.39844C16.0004 6.77741 16 7.27153 16 7.8623V8.1377C16 8.72847 16.0004 9.22259 15.9668 9.60156C15.9354 9.95596 15.8654 10.3898 15.5811 10.7227C15.2172 11.1486 14.6708 11.374 14.1123 11.3301C13.6761 11.2956 13.3196 11.0398 13.0469 10.8115C12.7571 10.5689 12.4111 10.2216 11.9971 9.80762L11.9951 10.3125C11.9798 11.2877 11.9181 11.881 11.6729 12.3623L11.5576 12.5684C11.2694 13.0383 10.8562 13.4211 10.3623 13.6729L10.2393 13.7305C9.77925 13.9281 9.20656 13.9811 8.3125 13.9951L7.2002 14H4.7998C3.11978 14 2.27941 13.9998 1.6377 13.6729C1.14381 13.4211 0.730572 13.0383 0.442383 12.5684L0.327148 12.3623C0.0819019 11.881 0.0202065 11.2877 0.00488281 10.3125L0 9.2002V6.7998C4.6232e-10 5.22468 6.84559e-05 4.38795 0.269531 3.76074L0.327148 3.6377C0.578875 3.14381 0.961662 2.73057 1.43164 2.44238L1.6377 2.32715C2.27941 2.00018 3.11978 2 4.7998 2H7.2002L8.3125 2.00488ZM4.7998 3.5C3.93534 3.5 3.37708 3.50144 2.95215 3.53613C2.54542 3.56936 2.39365 3.6253 2.31934 3.66309C2.03709 3.8069 1.8069 4.03709 1.66309 4.31934C1.6253 4.39365 1.56936 4.54542 1.53613 4.95215C1.50144 5.37708 1.5 5.93534 1.5 6.7998V9.2002C1.5 10.0647 1.50144 10.6229 1.53613 11.0479C1.56936 11.4546 1.6253 11.6063 1.66309 11.6807C1.8069 11.9629 2.03709 12.1931 2.31934 12.3369C2.39365 12.3747 2.54542 12.4306 2.95215 12.4639C3.37708 12.4986 3.93534 12.5 4.7998 12.5H7.2002C8.06466 12.5 8.62292 12.4986 9.04785 12.4639C9.45458 12.4306 9.60635 12.3747 9.68066 12.3369C9.96291 12.1931 10.1931 11.9629 10.3369 11.6807C10.3747 11.6063 10.4306 11.4546 10.4639 11.0479C10.4986 10.6229 10.5 10.0647 10.5 9.2002V6.7998C10.5 5.93534 10.4986 5.37708 10.4639 4.95215C10.4306 4.54542 10.3747 4.39365 10.3369 4.31934C10.1931 4.03709 9.96291 3.8069 9.68066 3.66309C9.60635 3.6253 9.45458 3.56936 9.04785 3.53613C8.62292 3.50144 8.06466 3.5 7.2002 3.5H4.7998ZM14.25 6.16504C14.2253 6.17793 14.1514 6.2203 14.0098 6.33887C13.7812 6.53019 13.4877 6.82286 13.0488 7.26172L12.9121 7.39941C12.7054 7.60616 12.5819 7.72936 12.498 7.82812C12.42 7.92004 12.4211 7.94033 12.4268 7.92285C12.4104 7.97306 12.4104 8.02694 12.4268 8.07715C12.4211 8.05967 12.42 8.07996 12.498 8.17188C12.5819 8.27064 12.7054 8.39384 12.9121 8.60059L13.0488 8.73828C13.4877 9.17714 13.7812 9.46981 14.0098 9.66113C14.1506 9.77907 14.2249 9.82085 14.25 9.83398C14.316 9.83399 14.378 9.80824 14.4248 9.76172C14.4331 9.73529 14.4563 9.6531 14.4727 9.46875C14.4989 9.17197 14.5 8.75781 14.5 8.1377V7.8623C14.5 7.24219 14.4989 6.82803 14.4727 6.53125C14.4561 6.34478 14.4329 6.26275 14.4248 6.2373C14.378 6.19109 14.3158 6.16503 14.25 6.16504Z" fill="white"/>
</svg>
