<svg width="16" height="16" viewBox="0 0 16 16" fill="none" xmlns="http://www.w3.org/2000/svg">
<path d="M14.5 6.28613C14.5 5.43798 13.812 4.75 12.9639 4.75H11.7793C11.3398 4.75 10.9334 4.51635 10.7119 4.13672L10.0049 2.92578C9.92318 2.78591 9.81909 2.75 9.75684 2.75H6.24316C6.18091 2.75 6.07682 2.7859 5.99512 2.92578L5.28809 4.13672C5.06678 4.51609 4.66087 4.74986 4.22168 4.75H3.03613C2.18798 4.75 1.5 5.43798 1.5 6.28613V11.7139C1.5 12.562 2.18798 13.25 3.03613 13.25H12.9639C13.812 13.25 14.5 12.562 14.5 11.7139V6.28613ZM16 11.7139C16 13.3904 14.6404 14.75 12.9639 14.75H3.03613C1.35955 14.75 0 13.3904 0 11.7139V6.28613C0 4.60955 1.35955 3.25 3.03613 3.25H4.06934L4.69922 2.16992C5.01698 1.62535 5.5854 1.25 6.24316 1.25H9.75684C10.4146 1.25 10.983 1.62535 11.3008 2.16992L11.9307 3.25H12.9639C14.6404 3.25 16 4.60955 16 6.28613V11.7139Z" fill="white"/>
<path d="M9.5 9C9.5 8.17157 8.82843 7.5 8 7.5C7.17157 7.5 6.5 8.17157 6.5 9C6.5 9.82843 7.17157 10.5 8 10.5V12C6.34315 12 5 10.6569 5 9C5 7.34315 6.34315 6 8 6C9.65685 6 11 7.34315 11 9C11 10.6569 9.65685 12 8 12V10.5C8.82843 10.5 9.5 9.82843 9.5 9Z" fill="white"/>
</svg>
