<svg width="16" height="16" viewBox="0 0 16 16" fill="none" xmlns="http://www.w3.org/2000/svg">
<g clip-path="url(#clip0_274_2171)">
<path d="M14.5 9.25V7C14.5 6.52397 14.4993 6.20446 14.4824 5.95703C14.466 5.71632 14.4372 5.59864 14.4053 5.52149C14.2784 5.2152 14.0348 4.9716 13.7285 4.84473C13.6514 4.81277 13.5337 4.784 13.293 4.76758C13.0455 4.75071 12.726 4.75 12.25 4.75C11.8358 4.75 11.5 4.41422 11.5 4C11.5 3.58579 11.8358 3.25 12.25 3.25C12.7057 3.25 13.0851 3.24933 13.3955 3.27051C13.7126 3.29215 14.0124 3.33872 14.3027 3.45899C14.9764 3.73809 15.5119 4.27359 15.791 4.94727C15.9113 5.23762 15.9579 5.53744 15.9795 5.85449C16.0007 6.16486 16 6.54432 16 7V9.25C16 9.89298 16.0082 10.3808 15.8818 10.7979C15.6152 11.6768 14.9268 12.3652 14.0479 12.6318C13.6308 12.7582 13.143 12.75 12.5 12.75H12.25C11.8358 12.75 11.5 12.4142 11.5 12C11.5 11.5858 11.8358 11.25 12.25 11.25H12.5C13.2523 11.25 13.4627 11.242 13.6133 11.1963C14.0125 11.0751 14.3251 10.7625 14.4463 10.3633C14.492 10.2127 14.5 10.0023 14.5 9.25Z" fill="white"/>
<path d="M5.2002 11.5V13H4.7998V11.5H5.2002ZM8.5 8.2002V7.7998C8.5 6.93534 8.49856 6.37708 8.46387 5.95215C8.43064 5.54542 8.3747 5.39365 8.33691 5.31934C8.1931 5.03709 7.96291 4.8069 7.68066 4.66309C7.60635 4.6253 7.45458 4.56936 7.04785 4.53613C6.62292 4.50144 6.06466 4.5 5.2002 4.5H4.7998C3.93534 4.5 3.37708 4.50144 2.95215 4.53613C2.54542 4.56936 2.39365 4.6253 2.31934 4.66309C2.03709 4.8069 1.8069 5.03709 1.66309 5.31934C1.6253 5.39365 1.56936 5.54542 1.53613 5.95215C1.50144 6.37708 1.5 6.93534 1.5 7.7998V8.2002C1.5 9.06466 1.50144 9.62292 1.53613 10.0479C1.56936 10.4546 1.6253 10.6063 1.66309 10.6807C1.8069 10.9629 2.03709 11.1931 2.31934 11.3369C2.39365 11.3747 2.54542 11.4306 2.95215 11.4639C3.37708 11.4986 3.93534 11.5 4.7998 11.5V13C3.11978 13 2.27941 12.9998 1.6377 12.6729C1.14381 12.4211 0.730572 12.0383 0.442383 11.5684L0.327148 11.3623C0.0819019 10.881 0.0202065 10.2877 0.00488281 9.3125L0 8.2002V7.7998C4.61195e-10 6.22468 6.84261e-05 5.38795 0.269531 4.76074L0.327148 4.6377C0.578875 4.14381 0.961662 3.73057 1.43164 3.44238L1.6377 3.32715C2.27941 3.00018 3.11978 3 4.7998 3H5.2002L6.3125 3.00488C7.28775 3.02021 7.88098 3.0819 8.3623 3.32715C8.92653 3.61472 9.38528 4.07347 9.67285 4.6377C9.99982 5.27941 10 6.11978 10 7.7998V8.2002L9.99512 9.3125C9.97979 10.2877 9.9181 10.881 9.67285 11.3623L9.55762 11.5684C9.26943 12.0383 8.85619 12.4211 8.3623 12.6729L8.23926 12.7305C7.77925 12.9281 7.20656 12.9811 6.3125 12.9951L5.2002 13V11.5C6.06466 11.5 6.62292 11.4986 7.04785 11.4639C7.45458 11.4306 7.60635 11.3747 7.68066 11.3369C7.96291 11.1931 8.1931 10.9629 8.33691 10.6807C8.3747 10.6063 8.43064 10.4546 8.46387 10.0479C8.49856 9.62292 8.5 9.06466 8.5 8.2002Z" fill="white"/>
</g>
<defs>
<clipPath id="clip0_274_2171">
<rect width="16" height="16" rx="4.57143" fill="white"/>
</clipPath>
</defs>
</svg>
