<svg width="16" height="16" viewBox="0 0 16 16" fill="none" xmlns="http://www.w3.org/2000/svg">
<g clip-path="url(#clip0_274_1252)">
<path d="M2.5 13C2.5 12.0335 1.7165 11.25 0.75 11.25C0.335786 11.25 0 10.9142 0 10.5C0 10.0858 0.335786 9.75 0.75 9.75C2.54493 9.75 4 11.2051 4 13C4 13.4142 3.66421 13.75 3.25 13.75C2.83579 13.75 2.5 13.4142 2.5 13Z" fill="white"/>
<path d="M14.501 7.79981C14.501 6.94746 14.4997 6.35322 14.4619 5.89063C14.4248 5.4368 14.3555 5.17602 14.2549 4.97852C14.0392 4.55522 13.6948 4.21081 13.2715 3.99512C13.074 3.8946 12.8129 3.82514 12.3594 3.78809C11.8968 3.75033 11.3024 3.75 10.4502 3.75H5.5498C4.69754 3.75 4.10318 3.7503 3.64062 3.78809C3.18692 3.82517 2.92599 3.89451 2.72852 3.99512C2.30525 4.21081 1.96082 4.55525 1.74512 4.97852C1.64454 5.17599 1.57617 5.43699 1.53906 5.89063C1.50911 6.25691 1.50346 6.70567 1.50195 7.29981C4.0767 7.63616 6.11469 9.67499 6.4502 12.25H10.4502C11.3024 12.25 11.8968 12.2497 12.3594 12.2119C12.8129 12.1749 13.074 12.1054 13.2715 12.0049C13.6948 11.7892 14.0392 11.4448 14.2549 11.0215C14.3555 10.824 14.4248 10.5632 14.4619 10.1094C14.4997 9.64678 14.501 9.05255 14.501 8.2002V7.79981ZM16.001 8.2002C16.001 9.0278 16.001 9.69361 15.957 10.2314C15.9124 10.778 15.818 11.258 15.5918 11.7022C15.2323 12.4077 14.6586 12.9813 13.9531 13.3408C13.509 13.5671 13.0289 13.6624 12.4824 13.707C11.9445 13.751 11.2779 13.75 10.4502 13.75H5.75C5.33579 13.75 5 13.4142 5 13C5 10.6528 3.09721 8.75 0.75 8.75C0.551087 8.75 0.360378 8.67093 0.219727 8.53028C0.0790894 8.38962 -2.8113e-08 8.1989 0 8V7.79981C8.08058e-05 6.97236 -1.97627e-05 6.30633 0.0439453 5.76856C0.0886555 5.22197 0.182824 4.74105 0.40918 4.29688C0.768743 3.59152 1.34241 3.01762 2.04785 2.6582C2.49195 2.43199 2.9721 2.33762 3.51855 2.29297C4.05635 2.24903 4.72227 2.25 5.5498 2.25H10.4502C11.2779 2.25 11.9445 2.24902 12.4824 2.29297C13.0289 2.33765 13.509 2.4329 13.9531 2.65918C14.6586 3.01872 15.2323 3.59235 15.5918 4.29785C15.818 4.742 15.9124 5.22203 15.957 5.76856C16.001 6.30639 16.001 6.9722 16.001 7.79981V8.2002Z" fill="white"/>
<path d="M1.5 13C1.5 12.5858 1.16421 12.25 0.75 12.25C0.335786 12.25 0 12.5858 0 13C0 13.4142 0.335786 13.75 0.75 13.75C1.16421 13.75 1.5 13.4142 1.5 13Z" fill="white"/>
</g>
<defs>
<clipPath id="clip0_274_1252">
<rect width="16" height="11.5" fill="white" transform="translate(0 2.25)"/>
</clipPath>
</defs>
</svg>
