<svg width="16" height="16" viewBox="0 0 16 16" fill="none" xmlns="http://www.w3.org/2000/svg">
<g clip-path="url(#clip0_274_2217)">
<rect x="0.75" y="0.75" width="14.5" height="14.5" rx="7.25" stroke="white" stroke-width="1.5"/>
<path d="M8.75 8C8.75 7.58579 8.41421 7.25 8 7.25C7.58579 7.25 7.25 7.58579 7.25 8C7.25 8.41421 7.58579 8.75 8 8.75C8.41421 8.75 8.75 8.41421 8.75 8ZM10.25 8C10.25 9.24264 9.24264 10.25 8 10.25C6.75736 10.25 5.75 9.24264 5.75 8C5.75 6.75736 6.75736 5.75 8 5.75C9.24264 5.75 10.25 6.75736 10.25 8Z" fill="white"/>
</g>
<defs>
<clipPath id="clip0_274_2217">
<rect width="16" height="16" fill="white"/>
</clipPath>
</defs>
</svg>
