<svg width="16" height="16" viewBox="0 0 16 16" fill="none" xmlns="http://www.w3.org/2000/svg">
<path d="M14.5 7C14.5 4.65279 12.5972 2.75 10.25 2.75H5.75C3.40279 2.75 1.5 4.65279 1.5 7L1.50586 7.21875C1.61972 9.46429 3.47617 11.25 5.75 11.25H9.5C9.69891 11.25 9.88962 11.3291 10.0303 11.4697L11.25 12.6895V11.6836C11.25 11.3707 11.4443 11.0911 11.7373 10.9814C13.3522 10.3778 14.5 8.82218 14.5 7ZM15.9951 7.23047C15.9091 9.41263 14.6068 11.2787 12.75 12.1768V14.5C12.75 14.8033 12.5674 15.0773 12.2871 15.1934C12.0069 15.3094 11.6842 15.2448 11.4697 15.0303L9.18945 12.75H5.75C2.67361 12.75 0.16183 10.334 0.0078125 7.2959L0 7C0 3.82437 2.57437 1.25 5.75 1.25H10.25C13.4256 1.25 16 3.82437 16 7L15.9951 7.23047Z" fill="white"/>
</svg>
