<svg width="16" height="16" viewBox="0 0 16 16" fill="none" xmlns="http://www.w3.org/2000/svg">
<path d="M12.4291 2.25986C13.0165 1.65033 13.9733 1.59383 14.6283 2.12998L15.3295 2.7042C16.0615 3.30347 16.129 4.39865 15.476 5.08311L7.22205 13.7345C6.60254 14.3837 5.57352 14.4076 4.9242 13.7882L0.578498 9.64268C-0.0816942 9.01285 -0.094034 7.96267 0.551154 7.31748L1.28358 6.58408C1.90127 5.96639 2.89688 5.94823 3.53748 6.54209L6.05408 8.8751L12.4291 2.25986ZM13.8363 3.09678C13.6852 2.97348 13.4649 2.98675 13.3295 3.12705L6.52967 10.1847C6.29349 10.4297 5.90435 10.4403 5.65467 10.2091L2.68787 7.45811C2.54018 7.32143 2.31084 7.32583 2.16834 7.46787L1.43494 8.20127C1.28618 8.35003 1.28885 8.59202 1.4408 8.7374L5.78748 12.8839C5.93733 13.0268 6.17481 13.021 6.31776 12.8712L14.5717 4.2208C14.7224 4.06285 14.7074 3.80929 14.5385 3.671L13.8363 3.09678Z" fill="white"/>
</svg>
