<svg width="16" height="16" viewBox="0 0 16 16" fill="none" xmlns="http://www.w3.org/2000/svg">
<g clip-path="url(#clip0_274_2386)">
<path d="M15.25 13.2917L15.3262 13.2956C15.7046 13.3338 16 13.6532 16 14.0417C16 14.4301 15.7046 14.7495 15.3262 14.7878L15.25 14.7917H7.19434C6.78012 14.7917 6.44434 14.4559 6.44434 14.0417C6.44434 13.6274 6.78012 13.2917 7.19434 13.2917H15.25Z" fill="white"/>
<path d="M15.25 7.65277L15.3262 7.65668C15.7046 7.6949 16 8.01431 16 8.40277C16 8.79123 15.7046 9.11064 15.3262 9.14886L15.25 9.15277H7.19434C6.78012 9.15277 6.44434 8.81698 6.44434 8.40277C6.44434 7.98856 6.78012 7.65277 7.19434 7.65277H15.25Z" fill="white"/>
<path d="M15.25 2.01389L15.3262 2.01779C15.7046 2.05602 16 2.37543 16 2.76389C16 3.15235 15.7046 3.47175 15.3262 3.50998L15.25 3.51389H7.19434C6.78012 3.51389 6.44434 3.1781 6.44434 2.76389C6.44434 2.34967 6.78012 2.01389 7.19434 2.01389H15.25Z" fill="white"/>
<path d="M3.44153 0.622502C3.73443 0.329609 4.21016 0.329609 4.50306 0.622502C4.79566 0.91534 4.79566 1.39021 4.50306 1.68305L2.08606 4.10004C1.79323 4.39275 1.31839 4.39268 1.02552 4.10004L0.219853 3.29438L0.168095 3.23774C-0.0722933 2.94319 -0.0546871 2.50848 0.219853 2.23383C0.49449 1.95919 0.929176 1.94167 1.22376 2.18207L1.2804 2.23383L1.55481 2.50824L3.44153 0.622502Z" fill="white"/>
<path d="M3.44153 6.26139C3.73443 5.96849 4.21016 5.96849 4.50306 6.26139C4.79566 6.55423 4.79566 7.0291 4.50306 7.32193L2.08606 9.73893C1.79323 10.0316 1.31839 10.0316 1.02552 9.73893L0.219853 8.93326L0.168095 8.87662C-0.0722933 8.58208 -0.0546871 8.14737 0.219853 7.87272C0.49449 7.59808 0.929176 7.58056 1.22376 7.82096L1.2804 7.87272L1.55481 8.14713L3.44153 6.26139Z" fill="white"/>
<path d="M3.44153 11.9003C3.73443 11.6074 4.21016 11.6074 4.50306 11.9003C4.79566 12.1931 4.79566 12.668 4.50306 12.9608L2.08606 15.3778C1.79323 15.6705 1.31839 15.6705 1.02552 15.3778L0.219853 14.5721L0.168095 14.5155C-0.0722933 14.221 -0.0546871 13.7863 0.219853 13.5116C0.49449 13.237 0.929176 13.2194 1.22376 13.4598L1.2804 13.5116L1.55481 13.786L3.44153 11.9003Z" fill="white"/>
</g>
<defs>
<clipPath id="clip0_274_2386">
<rect width="16" height="16" fill="white"/>
</clipPath>
</defs>
</svg>
