<svg width="16" height="16" viewBox="0 0 16 16" fill="none" xmlns="http://www.w3.org/2000/svg">
<g clip-path="url(#clip0_274_1978)">
<path d="M9.25003 -1.44436e-06C9.45344 -1.44436e-06 9.64248 -0.00246432 9.81252 0.0244126C10.608 0.150409 11.2439 0.739974 11.4385 1.50976C11.5183 1.5144 11.5933 1.5203 11.6651 1.53125C12.8534 1.71291 13.7869 2.6457 13.9688 3.83398C14.0025 4.05475 14 4.30557 14 4.63672V12.0498C14 12.5975 14.001 13.0537 13.9707 13.4248C13.9397 13.8045 13.8719 14.1609 13.7002 14.498C13.4366 15.0155 13.0155 15.4365 12.4981 15.7002C12.1609 15.8719 11.8046 15.9397 11.4248 15.9707C11.0537 16.001 10.5975 16 10.0498 16H5.95023C5.40257 16 4.94635 16.001 4.57523 15.9707C4.19552 15.9397 3.83912 15.8719 3.50199 15.7002C2.98457 15.4365 2.56349 15.0155 2.29985 14.498C2.12816 14.1609 2.06037 13.8045 2.02934 13.4248C1.99902 13.0537 2.00004 12.5974 2.00004 12.0498V4.63672C2.00004 4.30559 1.99755 4.05474 2.03129 3.83398C2.21312 2.64585 3.14589 1.71307 4.33402 1.53125C4.40577 1.52028 4.48076 1.51343 4.56058 1.50879C4.75536 0.739333 5.39227 0.150383 6.18753 0.0244126C6.35758 -0.00247083 6.54661 -1.78049e-06 6.75003 -1.44436e-06H9.25003ZM11.4317 3.01367C11.2302 3.77192 10.5999 4.35087 9.81252 4.47558C9.64247 4.50246 9.45345 4.5 9.25003 4.5H6.75003C6.54661 4.5 6.35758 4.50247 6.18753 4.47558C5.40008 4.35084 4.76884 3.77204 4.56742 3.01367C4.56545 3.01395 4.56349 3.01435 4.56156 3.01465C4.02136 3.09723 3.59728 3.52132 3.51469 4.06152C3.50255 4.14118 3.50004 4.25084 3.50004 4.63672V12.0498C3.50004 12.6222 3.50028 13.0069 3.52445 13.3027C3.54791 13.5897 3.59064 13.7268 3.63676 13.8174C3.75657 14.0525 3.94756 14.2435 4.18265 14.3633C4.27319 14.4094 4.41033 14.4521 4.6973 14.4756C4.99317 14.4998 5.37782 14.5 5.95023 14.5H10.0498C10.6222 14.5 11.0069 14.4998 11.3028 14.4756C11.5897 14.4521 11.7269 14.4094 11.8174 14.3633C12.0525 14.2435 12.2435 14.0525 12.3633 13.8174C12.4094 13.7268 12.4521 13.5897 12.4756 13.3027C12.4998 13.0069 12.5 12.6222 12.5 12.0498V4.63672C12.5 4.25088 12.4975 4.14118 12.4854 4.06152C12.4028 3.52133 11.9787 3.09722 11.4385 3.01465C11.4362 3.0143 11.434 3.014 11.4317 3.01367ZM6.42191 1.50586C6.20799 1.53975 6.0398 1.70796 6.00589 1.92187C6.00208 1.94607 6.00003 1.98963 6.00003 2.25C6.00003 2.51019 6.00208 2.55391 6.00589 2.57812C6.03978 2.79205 6.20798 2.96024 6.42191 2.99414C6.4461 2.99795 6.48964 3 6.75003 3H9.25003C9.51034 3 9.55395 2.99795 9.57815 2.99414C9.7921 2.96025 9.96028 2.79207 9.99416 2.57812C9.99798 2.55392 10 2.51024 10 2.25C10 1.98963 9.99798 1.94607 9.99416 1.92187C9.96026 1.70796 9.79207 1.53974 9.57815 1.50586C9.55394 1.50205 9.51027 1.5 9.25003 1.5H6.75003C6.48964 1.5 6.4461 1.50204 6.42191 1.50586Z" fill="white"/>
</g>
<defs>
<clipPath id="clip0_274_1978">
<rect width="16" height="16" fill="white"/>
</clipPath>
</defs>
</svg>
