<svg width="16" height="16" viewBox="0 0 16 16" fill="none" xmlns="http://www.w3.org/2000/svg">
<g clip-path="url(#clip0_274_1581)">
<path d="M14.5 8C14.5 4.41221 11.5878 1.5 8 1.5C4.41221 1.5 1.5 4.41221 1.5 8C1.5 11.5878 4.41221 14.5 8 14.5C11.5878 14.5 14.5 11.5878 14.5 8ZM16 8C16 12.4162 12.4162 16 8 16C3.58379 16 0 12.4162 0 8C1.2899e-07 3.58379 3.58379 1.28986e-07 8 0C12.4162 0 16 3.58379 16 8Z" fill="white"/>
<path d="M7.0002 7.6366V4.74988C7.0002 4.33566 7.33598 3.99988 7.7502 3.99988C8.16441 3.99988 8.5002 4.33566 8.5002 4.74988V7.6366C8.5002 7.81029 8.50073 7.90907 8.50508 7.98328C8.50892 8.04849 8.51404 8.05932 8.51192 8.05261C8.52241 8.08542 8.53995 8.11562 8.5627 8.14148C8.56697 8.1455 8.58168 8.15845 8.61836 8.18347C8.67976 8.22536 8.76436 8.27581 8.91328 8.36511L11.0754 9.66199L11.1389 9.70496C11.4436 9.93233 11.5329 10.3582 11.3332 10.6913C11.1335 11.0244 10.7154 11.1469 10.3713 10.9852L10.3039 10.9491L8.1418 9.65222C7.90094 9.50778 7.63416 9.35729 7.43575 9.13171C7.27657 8.95062 7.15657 8.73835 7.08321 8.50867C6.99186 8.22255 7.0002 7.91738 7.0002 7.6366Z" fill="white"/>
</g>
<defs>
<clipPath id="clip0_274_1581">
<rect width="16" height="16" fill="white"/>
</clipPath>
</defs>
</svg>
