<svg width="16" height="16" viewBox="0 0 16 16" fill="none" xmlns="http://www.w3.org/2000/svg">
<g clip-path="url(#clip0_274_1383)">
<path d="M14.5002 10.0391C14.5002 9.32928 14.2262 8.65323 13.7463 8.15821C13.2672 7.66408 12.6224 7.39063 11.9553 7.39063H11.1252C10.7812 7.39054 10.4812 7.15598 10.3977 6.82227C10.1842 5.96968 9.74421 5.19848 9.1301 4.59571C8.51619 3.99316 7.75297 3.58328 6.92893 3.40821C6.10485 3.23324 5.2493 3.29987 4.4592 3.60157C3.66892 3.90336 2.97338 4.42906 2.45334 5.12208C1.93315 5.81535 1.60993 6.64748 1.52365 7.52442C1.43738 8.40143 1.59138 9.28508 1.96701 10.0742C2.34257 10.8632 2.9234 11.5247 3.64084 11.9854C4.35796 12.4458 5.18388 12.6881 6.02463 12.6875H11.9553C12.6224 12.6875 13.2672 12.4141 13.7463 11.9199C14.2262 11.4249 14.5002 10.7489 14.5002 10.0391ZM16.0002 10.0391C16.0002 11.1319 15.5793 12.1842 14.8235 12.9639C14.0669 13.7443 13.0356 14.1875 11.9553 14.1875H6.0256C4.89444 14.1883 3.78722 13.8616 2.83029 13.2471C1.87358 12.6327 1.10615 11.7558 0.612519 10.7188C0.119038 9.68195 -0.0822633 8.5247 0.0304876 7.37794C0.143318 6.23097 0.566238 5.13714 1.25314 4.22169C1.9402 3.30605 2.86491 2.60466 3.92404 2.2002C4.98339 1.79569 6.13292 1.70528 7.24045 1.94044C8.34771 2.17562 9.36628 2.72585 10.1809 3.5254C10.8547 4.18681 11.3638 4.99811 11.6789 5.89063H11.9553C13.0356 5.89063 14.0669 6.33383 14.8235 7.11427C15.5793 7.89391 16.0002 8.94622 16.0002 10.0391Z" fill="white"/>
</g>
<defs>
<clipPath id="clip0_274_1383">
<rect width="16" height="16" fill="white"/>
</clipPath>
</defs>
</svg>
