<svg width="16" height="16" viewBox="0 0 16 16" fill="none" xmlns="http://www.w3.org/2000/svg">
<path d="M2.93528 4.99947C3.2578 4.73967 3.73009 4.79033 3.98997 5.11276C4.24977 5.43527 4.19911 5.90757 3.87669 6.16744L1.84348 7.80514C1.71926 7.90521 1.71926 8.09472 1.84348 8.19479L3.87669 9.83248L3.93333 9.88424C4.20377 10.1514 4.23355 10.5848 3.98997 10.8872C3.73012 11.2097 3.25785 11.2603 2.93528 11.0005L0.902077 9.36276C0.0326949 8.66224 0.0325871 7.33761 0.902077 6.63717L2.93528 4.99947Z" fill="white"/>
<path d="M8.55364 4.82029C8.73804 4.48778 9.1479 4.34191 9.50481 4.49509C9.88526 4.65855 10.0607 5.09989 9.89739 5.48044L7.48137 11.1113C7.31801 11.4919 6.87666 11.6682 6.49602 11.5049C6.11539 11.3415 5.9391 10.9001 6.10247 10.5195L8.51946 4.88865L8.55364 4.82029Z" fill="white"/>
<path d="M12.0098 5.1127C12.2534 4.81043 12.6834 4.74719 13.002 4.9545L13.0645 4.99942L15.0977 6.63712C15.9672 7.33756 15.9671 8.66219 15.0977 9.3627L13.0645 11.0004C12.7419 11.2602 12.2697 11.2097 12.0098 10.8871C11.75 10.5646 11.8005 10.0923 12.1231 9.83243L14.1563 8.19473C14.2805 8.09467 14.2805 7.90515 14.1563 7.80509L12.1231 6.16739L12.0664 6.11661C11.7957 5.84948 11.7661 5.41524 12.0098 5.1127Z" fill="white"/>
</svg>
