<svg width="16" height="16" viewBox="0 0 16 16" fill="none" xmlns="http://www.w3.org/2000/svg">
<g clip-path="url(#clip0_274_1433)">
<path d="M7.07715 15.2502C7.07703 15.6643 6.74119 16.0001 6.32715 16.0002C5.91301 16.0002 5.57727 15.6644 5.57715 15.2502V11.4836L2.39551 14.6653C2.10263 14.9579 1.62778 14.958 1.33496 14.6653C1.04215 14.3725 1.04233 13.8977 1.33496 13.6047L4.5166 10.4231H0.75C0.335786 10.4231 0 10.0873 0 9.6731C0 9.25888 0.335786 8.9231 0.75 8.9231H6.32715C6.74126 8.92321 7.07715 9.25896 7.07715 9.6731V15.2502Z" fill="white"/>
<path d="M8.92334 0.749786C8.92346 0.335747 9.2593 -9.47096e-05 9.67334 -0.000213623C10.0875 -0.000213623 10.4232 0.335674 10.4233 0.749786V4.51639L13.605 1.33475C13.8979 1.04215 14.3727 1.04205 14.6655 1.33475C14.9583 1.62755 14.9582 2.10238 14.6655 2.39529L11.4839 5.57693H15.2505C15.6647 5.57693 16.0005 5.91272 16.0005 6.32693C16.0005 6.74115 15.6647 7.07693 15.2505 7.07693H9.67334C9.25923 7.07682 8.92334 6.74107 8.92334 6.32693V0.749786Z" fill="white"/>
</g>
<defs>
<clipPath id="clip0_274_1433">
<rect width="16" height="16" fill="white"/>
</clipPath>
</defs>
</svg>
