<svg width="16" height="16" viewBox="0 0 16 16" fill="none" xmlns="http://www.w3.org/2000/svg">
<g clip-path="url(#clip0_274_1884)">
<path d="M11.2445 0.916621C12.3047 -0.143552 14.0232 -0.143554 15.0834 0.916621C16.1436 1.97686 16.1437 3.69536 15.0834 4.75549L13.6166 6.22131L14.476 7.08068L14.5277 7.13732C14.768 7.4319 14.7505 7.86664 14.476 8.14123C14.2014 8.41582 13.7666 8.43327 13.472 8.19299L13.4154 8.14123L12.556 7.28186L6.26795 13.5709C5.94732 13.8915 5.70365 14.142 5.40857 14.3229C5.16256 14.4736 4.8942 14.5846 4.61365 14.652C4.27719 14.7327 3.92824 14.7281 3.47498 14.7281H2.3324L1.97302 15.0875C1.68016 15.3802 1.20534 15.3802 0.912478 15.0875C0.619627 14.7947 0.619711 14.3199 0.912478 14.027L1.27185 13.6676V12.525C1.27185 12.0717 1.26725 11.7229 1.34802 11.3863C1.41539 11.1057 1.52635 10.8375 1.67713 10.5914C1.85795 10.2964 2.10753 10.0526 2.4281 9.73205L8.71716 3.44299L7.85877 2.58459L7.80701 2.52795C7.56649 2.23336 7.58409 1.79872 7.85877 1.52404C8.13327 1.24956 8.56713 1.23227 8.8617 1.47229L8.91931 1.52404L9.77771 2.38244L11.2445 0.916621ZM14.0228 1.97717C13.5484 1.50278 12.7794 1.50278 12.3051 1.97717L10.8383 3.44299L12.556 5.16076L14.0228 3.69494C14.4973 3.22058 14.4972 2.45158 14.0228 1.97717ZM2.77185 13.2281H3.47498C3.99894 13.2281 4.13941 13.2236 4.26306 13.194C4.39059 13.1633 4.51257 13.1121 4.62439 13.0436C4.73293 12.9771 4.83625 12.8815 5.2074 12.5104L11.4955 6.22131L9.77771 4.50354L3.48963 10.7926C3.11865 11.1636 3.02196 11.2661 2.95545 11.3746C2.88697 11.4864 2.83666 11.6085 2.80603 11.736C2.77632 11.8597 2.77185 12.0003 2.77185 12.525V13.2281Z" fill="white"/>
</g>
<defs>
<clipPath id="clip0_274_1884">
<rect width="16" height="16" fill="white"/>
</clipPath>
</defs>
</svg>
