<svg width="16" height="16" viewBox="0 0 16 16" fill="none" xmlns="http://www.w3.org/2000/svg">
<g clip-path="url(#clip0_274_1385)">
<path d="M4.83301 11.167H3.16699C2.24663 11.167 1.50018 11.9127 1.5 12.833C1.5 13.7535 2.24652 14.5 3.16699 14.5C4.08732 14.4998 4.83301 13.7534 4.83301 12.833V11.167ZM14.5 12.833C14.4998 11.9127 13.7534 11.167 12.833 11.167H11.167V12.833C11.167 13.7534 11.9127 14.4998 12.833 14.5C13.7535 14.5 14.5 13.7535 14.5 12.833ZM6.33301 9.66699H9.66699V6.33301H6.33301V9.66699ZM4.83301 3.16699C4.83301 2.24663 4.08732 1.50018 3.16699 1.5C2.24652 1.5 1.5 2.24652 1.5 3.16699C1.50018 4.08732 2.24663 4.83301 3.16699 4.83301H4.83301V3.16699ZM14.5 3.16699C14.5 2.24652 13.7535 1.5 12.833 1.5C11.9127 1.50018 11.167 2.24663 11.167 3.16699V4.83301H12.833C13.7534 4.83301 14.4998 4.08732 14.5 3.16699ZM16 3.16699C15.9998 4.91574 14.5818 6.33301 12.833 6.33301H11.167V9.66699H12.833C14.5818 9.66699 15.9998 11.0843 16 12.833C16 14.5819 14.5819 16 12.833 16C11.0843 15.9998 9.66699 14.5818 9.66699 12.833V11.167H6.33301V12.833C6.33301 14.5818 4.91574 15.9998 3.16699 16C1.41809 16 0 14.5819 0 12.833C0.000176126 11.0843 1.4182 9.66699 3.16699 9.66699H4.83301V6.33301H3.16699C1.4182 6.33301 0.000175869 4.91574 0 3.16699C0 1.41809 1.41809 0 3.16699 0C4.91574 0.000175869 6.33301 1.4182 6.33301 3.16699V4.83301H9.66699V3.16699C9.66699 1.4182 11.0843 0.000176126 12.833 0C14.5819 0 16 1.41809 16 3.16699Z" fill="white"/>
</g>
<defs>
<clipPath id="clip0_274_1385">
<rect width="16" height="16" fill="white"/>
</clipPath>
</defs>
</svg>
