<svg width="16" height="16" viewBox="0 0 16 16" fill="none" xmlns="http://www.w3.org/2000/svg">
<g clip-path="url(#clip0_274_2394)">
<path d="M11.5259 0.0902746C12.3231 -0.0411376 13.033 -0.0654803 13.6724 0.180118C14.6537 0.557278 15.4319 1.32974 15.8169 2.30805C16.0676 2.94544 16.0494 3.65531 15.9243 4.45356C15.7988 5.25482 15.5437 6.26541 15.2212 7.54535L14.4732 10.5121C14.2288 11.482 14.0731 12.1393 13.7232 12.6821C13.4277 13.1403 13.0356 13.5285 12.5747 13.8198C12.0287 14.1648 11.37 14.3148 10.398 14.5502L7.4419 15.2661C6.18608 15.5703 5.19362 15.8121 4.40577 15.9282C3.61989 16.044 2.92125 16.0554 2.29249 15.8061C1.32564 15.4226 0.560922 14.6547 0.182138 13.686C-0.0641825 13.0559 -0.0488692 12.3571 0.07081 11.5717C0.19077 10.7845 0.437201 9.79376 0.747568 8.53949L1.46632 5.63324C1.70327 4.67567 1.85443 4.02673 2.19581 3.48774C2.48408 3.03269 2.86735 2.64479 3.31886 2.35102C3.85353 2.00323 4.5003 1.8447 5.4546 1.59613L8.43995 0.817814C9.71728 0.485098 10.7256 0.222187 11.5259 0.0902746ZM13.1343 1.58051C12.8742 1.48063 12.4886 1.45135 11.77 1.56977C11.0538 1.68784 10.1237 1.92982 8.81788 2.26996L5.83253 3.04731C4.77709 3.32222 4.41821 3.42536 4.13624 3.60883C3.86557 3.78502 3.63625 4.01766 3.46339 4.29047C3.28337 4.57469 3.18441 4.93463 2.92237 5.9936L2.20362 8.89985C1.88628 10.1823 1.66139 11.0942 1.55421 11.7973C1.44678 12.5023 1.47884 12.8824 1.5796 13.1401C1.80691 13.7211 2.26524 14.1815 2.84522 14.4116C3.10241 14.5136 3.48153 14.5477 4.18702 14.4438C4.89077 14.3401 5.80406 14.1201 7.08839 13.809L10.0444 13.0922C11.1192 12.8319 11.4851 12.734 11.773 12.5522C12.0495 12.3775 12.2851 12.1444 12.4624 11.8696C12.647 11.5834 12.7487 11.2187 13.0191 10.1459L13.7661 7.17817C14.0957 5.87015 14.3295 4.93917 14.4419 4.22211C14.5547 3.50217 14.5234 3.11625 14.4214 2.85688C14.1904 2.26989 13.7231 1.80681 13.1343 1.58051Z" fill="white"/>
<path d="M9.2877 9.27329C10.0182 8.54281 10.0187 7.35844 9.2884 6.62786C8.55783 5.89729 7.37284 5.89729 6.64227 6.62786C5.91195 7.35844 5.91248 8.54281 6.64296 9.27329C7.37346 10.0035 8.5572 10.0035 9.2877 9.27329ZM10.3484 10.334C9.03207 11.65 6.89859 11.65 5.5823 10.334C4.26603 9.01768 4.26551 6.88357 5.58161 5.56719C6.89796 4.25084 9.0327 4.25084 10.3491 5.56719C11.6652 6.88357 11.6646 9.01768 10.3484 10.334Z" fill="white"/>
</g>
<defs>
<clipPath id="clip0_274_2394">
<rect width="16" height="16" fill="white"/>
</clipPath>
</defs>
</svg>
