<svg width="16" height="16" viewBox="0 0 16 16" fill="none" xmlns="http://www.w3.org/2000/svg">
<path d="M9.1827 2.50747C9.67339 2.27129 10.1935 2.21463 10.6671 2.26821L10.8673 2.29751L11.6778 2.44595C12.5419 2.60342 13.2996 3.13676 13.714 3.91177C14.7131 5.78062 15.5209 7.40357 15.8429 8.82681C16.1869 10.3473 15.9992 11.7461 14.9425 13.0055H14.9415C13.9873 14.142 12.4119 13.8435 11.6417 13.0094C11.2152 12.5475 10.7328 12.0167 10.2647 11.4977C10.0634 11.2745 9.76471 11.1394 9.44442 11.1393H6.55575C6.2355 11.1393 5.93673 11.2745 5.73544 11.4977C5.26741 12.0167 4.78497 12.5476 4.35849 13.0094C3.58829 13.8435 2.0128 14.1421 1.05868 13.0055C0.00168025 11.7461 -0.186699 10.3474 0.157315 8.82681C0.479344 7.40365 1.28702 5.7807 2.28622 3.91177C2.70059 3.13673 3.45828 2.60343 4.32235 2.44595L5.1329 2.29751C5.65707 2.20205 6.25668 2.23754 6.81747 2.50747L6.81942 2.50845L6.87216 2.53384L6.87411 2.53482C7.08423 2.63741 7.28514 2.68418 7.46396 2.68423H8.53622C8.71522 2.68419 8.91666 2.63761 9.12704 2.53482L9.12802 2.53384L9.18075 2.50845L9.1827 2.50747ZM10.5977 3.7731C10.3263 3.72377 10.0582 3.75064 9.8331 3.85904L9.78329 3.88345C9.40076 4.07005 8.97619 4.18419 8.53622 4.18423H7.46396C7.02405 4.18418 6.59942 4.07006 6.21689 3.88345L6.16708 3.85904L6.08114 3.82193C5.87517 3.74484 5.64013 3.73084 5.40243 3.77407L4.59189 3.92154C4.15853 4.00045 3.7981 4.26414 3.60849 4.6188C2.59521 6.51406 1.89046 7.96346 1.62021 9.15786C1.3567 10.3226 1.51239 11.2139 2.20712 12.0417C2.33543 12.1944 2.50635 12.2586 2.70126 12.2487C2.91097 12.2378 3.12031 12.1387 3.25595 11.9918C3.67696 11.5359 4.15591 11.0098 4.62216 10.4928C5.11384 9.9477 5.81988 9.63935 6.55575 9.63931H9.44442C10.1804 9.63936 10.8863 9.94774 11.378 10.4928C11.8443 11.0099 12.3232 11.5359 12.7442 11.9918H12.7433C12.8789 12.1387 13.0892 12.2378 13.2989 12.2487C13.4938 12.2586 13.6647 12.1944 13.7931 12.0417C14.4878 11.2138 14.6435 10.3225 14.38 9.15786C14.1097 7.96341 13.4049 6.51407 12.3917 4.6188C12.202 4.2641 11.8416 4.00044 11.4083 3.92154L10.5977 3.77407V3.7731Z" fill="white"/>
</svg>
