<svg width="16" height="16" viewBox="0 0 16 16" fill="none" xmlns="http://www.w3.org/2000/svg">
<g clip-path="url(#clip0_274_1302)">
<path d="M12.3827 0.324224C12.6179 -0.0166857 13.0847 -0.102324 13.4257 0.132818C13.7666 0.368001 13.8522 0.834831 13.6171 1.17579L9.03797 7.81544L13.6278 14.8398L13.6669 14.9063C13.8414 15.2438 13.735 15.6656 13.41 15.8779C13.0633 16.1044 12.5985 16.0069 12.372 15.6602L8.11805 9.14942L3.61707 15.6758C3.38189 16.0167 2.91506 16.1023 2.5741 15.8672C2.23319 15.632 2.14755 15.1652 2.3827 14.8242L7.23133 7.792L2.89832 1.16016L2.85926 1.09376C2.68476 0.756188 2.79109 0.334417 3.11609 0.122076C3.44116 -0.0902273 3.87027 -0.0181893 4.10926 0.277349L4.15418 0.339849L8.15125 6.45801L12.3827 0.324224Z" fill="white"/>
</g>
<defs>
<clipPath id="clip0_274_1302">
<rect width="16" height="16" fill="white"/>
</clipPath>
</defs>
</svg>
