<svg width="16" height="16" viewBox="0 0 16 16" fill="none" xmlns="http://www.w3.org/2000/svg">
<g clip-path="url(#clip0_274_2037)">
<path d="M9.95322 7.15107e-06C10.4319 6.96397e-06 10.8434 -0.00121363 11.1661 0.0283275C11.4408 0.0534927 11.7574 0.107507 12.0392 0.278327L12.1583 0.359382L12.3038 0.484382C12.6267 0.792527 12.8219 1.21444 12.8438 1.66505C12.8627 2.05335 12.7075 2.39499 12.5528 2.66993C12.3939 2.95239 12.1596 3.29052 11.8878 3.68458L5.34775 13.167C5.05903 13.5856 4.8722 13.8581 4.75498 14.0664C4.68423 14.1922 4.66241 14.2549 4.65635 14.2754C4.66293 14.3397 4.69485 14.3977 4.74424 14.4395C4.76584 14.4464 4.82985 14.4646 4.9708 14.4775C5.20885 14.4993 5.53852 14.5 6.04697 14.5H11.8888L11.9659 14.5039C12.344 14.5424 12.6388 14.8618 12.6388 15.25C12.6388 15.6382 12.344 15.9576 11.9659 15.9961L11.8888 16H6.04697C5.56833 16 5.15681 16.0012 4.83408 15.9717C4.51999 15.9429 4.15073 15.8766 3.84189 15.6406C3.43231 15.3277 3.1814 14.8498 3.15635 14.335C3.13748 13.9467 3.29268 13.605 3.44736 13.3301C3.60628 13.0476 3.84064 12.7095 4.1124 12.3154L10.6524 2.83301C10.9412 2.41437 11.128 2.14196 11.2452 1.9336C11.3167 1.80645 11.3371 1.74342 11.3429 1.72364C11.336 1.65927 11.3047 1.60117 11.255 1.55958C11.2323 1.5524 11.1679 1.53517 11.0294 1.52247C10.7913 1.50068 10.4617 1.50001 9.95322 1.50001H4.11143C3.69721 1.50001 3.36143 1.16422 3.36143 0.750007C3.36143 0.335794 3.69721 7.15107e-06 4.11143 7.15107e-06H9.95322Z" fill="white"/>
</g>
<defs>
<clipPath id="clip0_274_2037">
<rect width="16" height="16" fill="white"/>
</clipPath>
</defs>
</svg>
