<svg width="16" height="16" viewBox="0 0 16 16" fill="none" xmlns="http://www.w3.org/2000/svg">
<g clip-path="url(#clip0_274_1901)">
<path d="M14.5 9.54981C14.5 8.69746 14.4997 8.10322 14.4619 7.64063C14.4248 7.1868 14.3555 6.92602 14.2549 6.72852C14.0392 6.30515 13.6949 5.96083 13.2715 5.74512C13.074 5.64449 12.8132 5.57517 12.3594 5.53809C11.8968 5.50029 11.3025 5.5 10.4502 5.5H9.54981C8.69746 5.5 8.10322 5.50029 7.64063 5.53809C7.1868 5.57517 6.92602 5.64449 6.72852 5.74512C6.30515 5.96083 5.96083 6.30515 5.74512 6.72852C5.64449 6.92602 5.57517 7.1868 5.53809 7.64063C5.50029 8.10322 5.5 8.69746 5.5 9.54981V10.4502C5.5 11.3025 5.50029 11.8968 5.53809 12.3594C5.57517 12.8132 5.64449 13.074 5.74512 13.2715C5.96083 13.6949 6.30515 14.0392 6.72852 14.2549C6.92602 14.3555 7.1868 14.4248 7.64063 14.4619C8.10322 14.4997 8.69746 14.5 9.54981 14.5H10.4502C11.3025 14.5 11.8968 14.4997 12.3594 14.4619C12.8132 14.4248 13.074 14.3555 13.2715 14.2549C13.6949 14.0392 14.0392 13.6949 14.2549 13.2715C14.3555 13.074 14.4248 12.8132 14.4619 12.3594C14.4997 11.8968 14.5 11.3025 14.5 10.4502V9.54981ZM16 10.4502C16 11.2778 16.001 11.9436 15.957 12.4814C15.9124 13.0281 15.8171 13.508 15.5908 13.9522C15.2313 14.6578 14.6578 15.2313 13.9522 15.5908C13.508 15.8171 13.0281 15.9124 12.4814 15.957C11.9436 16.001 11.2778 16 10.4502 16H9.54981C8.72222 16 8.05639 16.001 7.51856 15.957C6.97195 15.9124 6.49205 15.8171 6.04785 15.5908C5.34225 15.2313 4.76871 14.6578 4.40918 13.9522C4.18287 13.508 4.08763 13.0281 4.04297 12.4814C3.99903 11.9436 4 11.2778 4 10.4502V9.54981C4 8.72222 3.99903 8.05639 4.04297 7.51856C4.08763 6.97195 4.18287 6.49205 4.40918 6.04785C4.76871 5.34225 5.34225 4.76871 6.04785 4.40918C6.49205 4.18287 6.97195 4.08763 7.51856 4.04297C8.05639 3.99903 8.72222 4 9.54981 4H10.4502C11.2778 4 11.9436 3.99903 12.4814 4.04297C13.0281 4.08763 13.508 4.18287 13.9522 4.40918C14.6578 4.76871 15.2313 5.34225 15.5908 6.04785C15.8171 6.49205 15.9124 6.97195 15.957 7.51856C16.001 8.05639 16 8.72222 16 9.54981V10.4502Z" fill="white"/>
<path d="M1.04838e-05 10V9.88673C1.04838e-05 7.94455 -0.00527781 6.83895 0.22169 5.91017C0.908216 3.10144 3.10144 0.908216 5.91017 0.22169C6.83895 -0.00527781 7.94455 1.04838e-05 9.88673 1.04838e-05H10C10.4142 1.04838e-05 10.75 0.335797 10.75 0.75001C10.75 1.16422 10.4142 1.50001 10 1.50001H9.88673C7.85618 1.50001 6.97474 1.5054 6.26564 1.67872C4.00084 2.23244 2.23244 4.00084 1.67872 6.26564C1.5054 6.97474 1.50001 7.85618 1.50001 9.88673V10C1.50001 10.4142 1.16422 10.75 0.75001 10.75C0.335797 10.75 1.04838e-05 10.4142 1.04838e-05 10Z" fill="white"/>
</g>
<defs>
<clipPath id="clip0_274_1901">
<rect width="16" height="16" fill="white"/>
</clipPath>
</defs>
</svg>
