<svg width="16" height="16" viewBox="0 0 16 16" fill="none" xmlns="http://www.w3.org/2000/svg">
<g clip-path="url(#clip0_274_2378)">
<path d="M14.5 8C14.5 4.41221 11.5878 1.5 8 1.5C4.41221 1.5 1.5 4.41221 1.5 8C1.5 11.5878 4.41221 14.5 8 14.5C11.5878 14.5 14.5 11.5878 14.5 8ZM16 8C16 12.4162 12.4162 16 8 16C3.58379 16 0 12.4162 0 8C1.2899e-07 3.58379 3.58379 1.28986e-07 8 0C12.4162 0 16 3.58379 16 8Z" fill="white"/>
<path d="M4.52441 8.00037C4.52441 5.9839 6.15834 4.34998 8.1748 4.34998C8.98422 4.35006 9.72829 4.61725 10.332 5.05994L10.582 5.26013L10.6367 5.31384C10.8962 5.59153 10.9087 6.02627 10.6533 6.31873C10.3979 6.61096 9.9653 6.65754 9.65527 6.43787L9.59473 6.39001L9.44531 6.2699C9.08412 6.0048 8.64673 5.85006 8.1748 5.84998C6.98677 5.84998 6.02441 6.81233 6.02441 8.00037C6.02462 9.18822 6.9869 10.1498 8.1748 10.1498C8.714 10.1497 9.20784 9.94756 9.59473 9.60974C9.90673 9.33729 10.3809 9.37001 10.6533 9.68201C10.9255 9.99391 10.8937 10.4672 10.582 10.7396L10.332 10.9398C9.72827 11.3825 8.98427 11.6497 8.1748 11.6498C6.15847 11.6498 4.52462 10.0167 4.52441 8.00037Z" fill="white"/>
</g>
<defs>
<clipPath id="clip0_274_2378">
<rect width="16" height="16" fill="white"/>
</clipPath>
</defs>
</svg>
