<svg width="16" height="16" viewBox="0 0 16 16" fill="none" xmlns="http://www.w3.org/2000/svg">
<g clip-path="url(#clip0_274_1721)">
<path d="M8.75 1.50535e-07L15.25 4.34659e-07C15.6642 4.52765e-07 16 0.335787 16 0.75C16 1.16421 15.6642 1.5 15.25 1.5L8.75 1.5C7.33766 1.5 6.32344 1.50041 5.52734 1.56543C4.73996 1.62976 4.23174 1.75326 3.82031 1.96289C3.02066 2.37035 2.37035 3.02066 1.96289 3.82031C1.75326 4.23174 1.62976 4.73996 1.56543 5.52734C1.5004 6.32344 1.5 7.33766 1.5 8.75L1.5 15.25C1.5 15.6642 1.16421 16 0.749999 16C0.335786 16 -6.84705e-07 15.6642 -6.66599e-07 15.25L-3.82475e-07 8.75C-3.21822e-07 7.36243 -0.000853254 6.2766 0.0703123 5.40527C0.142223 4.52513 0.291619 3.79778 0.626953 3.13965C1.17822 2.05773 2.05773 1.17822 3.13965 0.626953C3.79778 0.291619 4.52513 0.142223 5.40527 0.0703125C6.2766 -0.000852913 7.36244 8.98824e-08 8.75 1.50535e-07Z" fill="white"/>
</g>
<defs>
<clipPath id="clip0_274_1721">
<rect width="16" height="16" fill="white"/>
</clipPath>
</defs>
</svg>
