<svg width="16" height="16" viewBox="0 0 16 16" fill="none" xmlns="http://www.w3.org/2000/svg">
<g clip-path="url(#clip0_274_1411)">
<path d="M10.3994 0C10.8136 1.81034e-08 11.1493 0.335865 11.1494 0.75V2.4834C11.4671 2.53163 11.727 2.60843 11.9609 2.72754C12.5253 3.01512 12.9848 3.47372 13.2725 4.03809C13.3916 4.27194 13.4675 4.53197 13.5156 4.84961H15.25C15.6639 4.84987 15.9998 5.18573 16 5.59961C16 6.01366 15.664 6.34935 15.25 6.34961H13.5957C13.5978 6.60698 13.5996 6.88941 13.5996 7.2002V8.80078L13.5957 9.65039H15.25C15.664 9.65065 16 9.98634 16 10.4004C15.9998 10.8143 15.6639 11.1501 15.25 11.1504H13.5156C13.4674 11.4677 13.3915 11.7282 13.2725 11.9619L13.1562 12.1689C12.868 12.6386 12.4546 13.0219 11.9609 13.2734L11.8389 13.3311C11.6368 13.4178 11.4127 13.4747 11.1494 13.5146V15.25C11.1493 15.6641 10.8136 16 10.3994 16C9.98532 16 9.64953 15.6641 9.64941 15.25V13.5967L8.7998 13.6006H7.19922L6.34961 13.5967V15.25C6.34949 15.6641 6.01369 15.9999 5.59961 16C5.18547 16 4.84973 15.6641 4.84961 15.25V13.5146C4.58651 13.4747 4.36213 13.4178 4.16016 13.3311L4.03711 13.2734C3.54335 13.0218 3.12996 12.6388 2.8418 12.1689L2.72656 11.9619C2.60752 11.7282 2.53262 11.4677 2.48438 11.1504H0.75C0.335914 11.1504 0.000207157 10.8144 0 10.4004C0 9.98618 0.335786 9.65039 0.75 9.65039H2.40332L2.39941 8.80078V7.2002C2.39941 6.8894 2.40125 6.60697 2.40332 6.34961H0.75C0.335786 6.34961 0 6.01382 0 5.59961C0.000202505 5.18557 0.335911 4.84961 0.75 4.84961H2.48633C2.52619 4.58685 2.58232 4.36291 2.66895 4.16113L2.72656 4.03809C2.9782 3.54437 3.3613 3.13095 3.83105 2.84277L4.03711 2.72754C4.27103 2.60835 4.53184 2.53254 4.84961 2.48438V0.75C4.84966 0.335833 5.18543 -1.81044e-08 5.59961 0C6.01373 6.58842e-05 6.34955 0.335873 6.34961 0.75V2.40332C6.60682 2.40124 6.88867 2.40039 7.19922 2.40039H8.7998L9.64941 2.40332V0.75C9.64951 0.335895 9.9853 4.95223e-05 10.3994 0ZM7.19922 3.90039C6.335 3.90039 5.77642 3.90184 5.35156 3.93652C4.94518 3.96976 4.79304 4.0257 4.71875 4.06348C4.43673 4.2073 4.20623 4.43765 4.0625 4.71973C4.02472 4.79422 3.96871 4.94669 3.93555 5.35254C3.90089 5.77741 3.89941 6.33602 3.89941 7.2002V8.80078C3.89941 9.66504 3.90085 10.2236 3.93555 10.6484C3.9688 11.0552 4.02472 11.207 4.0625 11.2812C4.20628 11.5634 4.43664 11.7927 4.71875 11.9365C4.79293 11.9743 4.94455 12.0312 5.35156 12.0645C5.77642 12.0991 6.33501 12.1006 7.19922 12.1006H8.7998C9.66397 12.1006 10.2226 12.0991 10.6475 12.0645C11.054 12.0312 11.2059 11.9743 11.2803 11.9365C11.5623 11.7928 11.7917 11.5632 11.9355 11.2812C11.9733 11.2071 12.0302 11.0556 12.0635 10.6484C12.0982 10.2236 12.0996 9.66503 12.0996 8.80078V7.2002C12.0996 6.33598 12.0981 5.77742 12.0635 5.35254C12.0302 4.94549 11.9733 4.79398 11.9355 4.71973C11.7917 4.43748 11.5625 4.20729 11.2803 4.06348C11.2059 4.02569 11.0541 3.96975 10.6475 3.93652C10.2226 3.90185 9.66403 3.90039 8.7998 3.90039H7.19922Z" fill="white"/>
</g>
<defs>
<clipPath id="clip0_274_1411">
<rect width="16" height="16" fill="white"/>
</clipPath>
</defs>
</svg>
