<svg width="16" height="16" viewBox="0 0 16 16" fill="none" xmlns="http://www.w3.org/2000/svg">
<path d="M12.3125 2.00488C13.2877 2.02021 13.881 2.0819 14.3623 2.32715C14.9265 2.61472 15.3853 3.07347 15.6729 3.6377C15.9998 4.27941 16 5.11978 16 6.7998V9.2002L15.9951 10.3125C15.9798 11.2877 15.9181 11.881 15.6729 12.3623L15.5576 12.5684C15.2694 13.0383 14.8562 13.4211 14.3623 13.6729L14.2393 13.7305C13.7793 13.9281 13.2066 13.9811 12.3125 13.9951L11.2002 14H4.7998C3.11978 14 2.27941 13.9998 1.6377 13.6729C1.14381 13.4211 0.730572 13.0383 0.442383 12.5684L0.327148 12.3623C0.0819019 11.881 0.0202065 11.2877 0.00488281 10.3125L0 9.2002V6.7998C4.6232e-10 5.22468 6.84559e-05 4.38795 0.269531 3.76074L0.327148 3.6377C0.578875 3.14381 0.961662 2.73057 1.43164 2.44238L1.6377 2.32715C2.27941 2.00018 3.11978 2 4.7998 2H11.2002L12.3125 2.00488ZM1.5 6.92383V9.2002C1.5 10.0647 1.50144 10.6229 1.53613 11.0479C1.56936 11.4546 1.6253 11.6063 1.66309 11.6807C1.8069 11.9629 2.03709 12.1931 2.31934 12.3369C2.39365 12.3747 2.54542 12.4306 2.95215 12.4639C3.37708 12.4986 3.93534 12.5 4.7998 12.5H11.2002C12.0647 12.5 12.6229 12.4986 13.0479 12.4639C13.4546 12.4306 13.6063 12.3747 13.6807 12.3369C13.9629 12.1931 14.1931 11.9629 14.3369 11.6807C14.3747 11.6063 14.4306 11.4546 14.4639 11.0479C14.4986 10.6229 14.5 10.0647 14.5 9.2002V6.92383H1.5ZM4.25 10C4.66421 10 5 10.3358 5 10.75C5 11.1642 4.66421 11.5 4.25 11.5H3.25C2.83579 11.5 2.5 11.1642 2.5 10.75C2.5 10.3358 2.83579 10 3.25 10H4.25ZM7.25 10C7.66421 10 8 10.3358 8 10.75C8 11.1642 7.66421 11.5 7.25 11.5H6.25C5.83579 11.5 5.5 11.1642 5.5 10.75C5.5 10.3358 5.83579 10 6.25 10H7.25ZM7.25 7.75C7.66421 7.75 8 8.08579 8 8.5C8 8.91421 7.66421 9.25 7.25 9.25H3.25C2.83579 9.25 2.5 8.91421 2.5 8.5C2.5 8.08579 2.83579 7.75 3.25 7.75H7.25ZM4.7998 3.5C3.93534 3.5 3.37708 3.50144 2.95215 3.53613C2.54542 3.56936 2.39365 3.6253 2.31934 3.66309C2.03709 3.8069 1.8069 4.03709 1.66309 4.31934C1.6253 4.39365 1.56936 4.54542 1.53613 4.95215C1.52466 5.09269 1.51805 5.24786 1.5127 5.42383H14.4873C14.482 5.24786 14.4753 5.09269 14.4639 4.95215C14.4306 4.54542 14.3747 4.39365 14.3369 4.31934C14.1931 4.03709 13.9629 3.8069 13.6807 3.66309C13.6063 3.6253 13.4546 3.56936 13.0479 3.53613C12.6229 3.50144 12.0647 3.5 11.2002 3.5H4.7998Z" fill="white"/>
</svg>
