<svg width="16" height="16" viewBox="0 0 16 16" fill="none" xmlns="http://www.w3.org/2000/svg">
<g clip-path="url(#clip0_274_2273)">
<path d="M14.5 6.68944L12.7432 8.18748C12.7322 8.19684 12.6909 8.23291 12.6485 8.26366C12.5985 8.29979 12.501 8.36349 12.3633 8.3994C12.1975 8.44258 12.0226 8.43492 11.8614 8.37694C11.7278 8.3288 11.6364 8.25637 11.5899 8.2158C11.5504 8.18134 11.5121 8.14115 11.502 8.13084L8.00002 4.55076L4.49807 8.13084C4.48798 8.14115 4.44969 8.18134 4.41018 8.2158C4.36362 8.25637 4.27229 8.3288 4.13869 8.37694C3.97748 8.43492 3.80254 8.44258 3.63674 8.3994C3.49901 8.36349 3.40153 8.29979 3.35159 8.26366C3.30911 8.23291 3.26784 8.19684 3.25686 8.18748L1.50002 6.68944V9.2783C1.50002 9.85073 1.50026 10.2354 1.52444 10.5312C1.5479 10.8182 1.59061 10.9553 1.63674 11.0459C1.75657 11.281 1.94752 11.472 2.18264 11.5918C2.27318 11.6379 2.41029 11.6806 2.69729 11.7041C2.99317 11.7283 3.37779 11.7285 3.95022 11.7285H12.0498C12.6223 11.7285 13.0069 11.7283 13.3028 11.7041C13.5898 11.6806 13.7269 11.6379 13.8174 11.5918C14.0525 11.472 14.2435 11.281 14.3633 11.0459C14.4094 10.9553 14.4521 10.8182 14.4756 10.5312C14.4998 10.2354 14.5 9.85073 14.5 9.2783V6.68944ZM16 9.2783C16 9.82598 16.001 10.2822 15.9707 10.6533C15.9397 11.033 15.8719 11.3894 15.7002 11.7265C15.4366 12.244 15.0155 12.665 14.4981 12.9287C14.1609 13.1004 13.8046 13.1682 13.4248 13.1992C13.0537 13.2295 12.5975 13.2285 12.0498 13.2285H3.95022C3.40254 13.2285 2.94635 13.2295 2.57522 13.1992C2.19549 13.1682 1.83912 13.1004 1.50198 12.9287C0.98453 12.665 0.563479 12.244 0.299827 11.7265C0.128115 11.3894 0.0603515 11.033 0.0293197 10.6533C-0.00100281 10.2822 2.2779e-05 9.82598 2.2779e-05 9.2783V5.41405C2.2779e-05 5.37377 -0.000691694 5.29163 0.00588215 5.21873C0.0109815 5.1623 0.0292226 4.94528 0.190452 4.74705L0.256859 4.67479C0.419327 4.51645 0.639653 4.42846 0.869163 4.43358C1.12465 4.43937 1.30239 4.5659 1.34866 4.59862C1.40837 4.64087 1.47036 4.69459 1.501 4.72069L3.80959 6.68846L7.34963 3.07127C7.36104 3.0596 7.40089 3.0184 7.44241 2.98241C7.49057 2.94065 7.58821 2.86239 7.73342 2.81444C7.86323 2.77162 8.00112 2.76075 8.13479 2.78221L8.26662 2.81444L8.36623 2.85448C8.45757 2.89859 8.52145 2.95103 8.55764 2.98241C8.59916 3.0184 8.639 3.0596 8.65041 3.07127L12.1895 6.68846L14.499 4.72069C14.5297 4.69459 14.5917 4.64087 14.6514 4.59862C14.6977 4.5659 14.8754 4.43937 15.1309 4.43358L15.2285 4.43748C15.4222 4.45547 15.6039 4.53907 15.7432 4.67479L15.8096 4.74705L15.8633 4.82225C15.9749 4.99727 15.9897 5.16936 15.9942 5.21873C16.0007 5.29163 16 5.37377 16 5.41405V9.2783Z" fill="white"/>
</g>
<defs>
<clipPath id="clip0_274_2273">
<rect width="16" height="16" fill="white"/>
</clipPath>
</defs>
</svg>
