<svg width="16" height="16" viewBox="0 0 16 16" fill="none" xmlns="http://www.w3.org/2000/svg">
<g clip-path="url(#clip0_274_1799)">
<path d="M7.37109 0.140089C7.78557 0.0512451 8.21443 0.051244 8.62891 0.140089C9.09742 0.24059 9.53763 0.497653 10.418 1.01118L12.8184 2.4106C13.6861 2.91678 14.1201 3.17036 14.4355 3.5229C14.7146 3.83484 14.9259 4.2018 15.0547 4.60005C15.2002 5.05011 15.2002 5.55266 15.2002 6.55708V9.44282L15.1973 10.1098C15.1904 10.6955 15.1637 11.0625 15.0547 11.3999L15.002 11.5483C14.8715 11.8893 14.6796 12.2042 14.4355 12.477L14.3115 12.6059C14.0053 12.8974 13.5776 13.1464 12.8184 13.5893L10.418 14.9897L9.83301 15.3276C9.3159 15.6211 8.98026 15.7844 8.62891 15.8598L8.47266 15.8891C8.15959 15.9391 7.84042 15.939 7.52734 15.8891L7.37109 15.8598C7.01959 15.7844 6.68351 15.6214 6.16602 15.3276L5.58105 14.9897L3.18164 13.5893C2.42251 13.1465 1.9947 12.8974 1.68848 12.6059L1.56445 12.477C1.28536 12.1651 1.07413 11.7981 0.945312 11.3999C0.799827 10.9498 0.799805 10.4471 0.799805 9.44282V6.55708C0.799805 5.67804 0.799934 5.18335 0.897461 4.77192L0.945312 4.60005C1.05804 4.25152 1.23377 3.92672 1.46289 3.64204L1.56445 3.5229C1.80096 3.25861 2.10387 3.04957 2.60645 2.74849L3.18164 2.4106L5.58105 1.01118C6.35136 0.561841 6.78517 0.308563 7.19531 0.185011L7.37109 0.140089ZM8.97363 8.89009C8.90076 8.93379 8.82578 8.97225 8.74902 9.00532V14.2104C8.94189 14.1085 9.22349 13.9497 9.66211 13.6938L12.0625 12.2934C13.0166 11.7369 13.1971 11.6114 13.3174 11.477C13.4568 11.3212 13.5625 11.1378 13.627 10.9389C13.6825 10.7673 13.7002 10.548 13.7002 9.44282V6.55708C13.7002 6.36432 13.6985 6.1984 13.6973 6.05513L8.97363 8.89009ZM2.2998 6.55708V9.44282C2.29981 10.548 2.31753 10.7673 2.37305 10.9389C2.43744 11.1377 2.54232 11.3212 2.68164 11.477C2.80193 11.6114 2.9829 11.7366 3.9375 12.2934L6.33691 13.6938C6.77433 13.949 7.05601 14.1075 7.24902 14.2094V9.00337C7.17328 8.97058 7.09832 8.93324 7.02637 8.89009L2.30176 6.05513C2.30057 6.1984 2.2998 6.36432 2.2998 6.55708ZM8.31445 1.60689C8.10726 1.56249 7.89274 1.56248 7.68555 1.60689C7.50698 1.64523 7.30535 1.74119 6.33691 2.3061L3.9375 3.70649C2.983 4.26329 2.80193 4.38846 2.68164 4.5229C2.67964 4.52514 2.67777 4.52749 2.67578 4.52974L7.79785 7.60395C7.92216 7.67846 8.07783 7.67844 8.20215 7.60395L13.3232 4.52974C13.3213 4.5275 13.3194 4.52512 13.3174 4.5229C13.1971 4.38853 13.0167 4.26311 12.0625 3.70649L9.66211 2.3061C8.6941 1.74144 8.493 1.64522 8.31445 1.60689Z" fill="white"/>
</g>
<defs>
<clipPath id="clip0_274_1799">
<rect width="16" height="16" fill="white"/>
</clipPath>
</defs>
</svg>
