<svg width="16" height="16" viewBox="0 0 16 16" fill="none" xmlns="http://www.w3.org/2000/svg">
<path d="M12.2506 4.66915C12.2506 4.13846 11.9969 3.57564 11.4908 3.04903C10.986 2.52376 10.267 2.07783 9.45666 1.80001C7.80782 1.23472 6.03831 1.43125 4.99182 2.66427C2.74381 5.31368 3.14647 12.0014 9.63049 14.4279L9.94299 14.5402L10.0143 14.5686C10.3597 14.7275 10.5357 15.125 10.4098 15.4924C10.2754 15.8842 9.84848 16.0926 9.45666 15.9582C1.7187 13.3049 0.850615 5.22712 3.84729 1.69454C5.4412 -0.183989 7.96259 -0.298291 9.94396 0.381062C10.9487 0.725633 11.8805 1.29061 12.5719 2.00997C13.262 2.72804 13.7506 3.64404 13.7506 4.66915C13.7505 6.21843 13.2905 7.3655 12.524 8.11348C11.7635 8.85568 10.7839 9.12312 9.90588 9.07442C9.05098 9.02696 8.18226 8.67055 7.67443 8.01778C7.41137 7.67955 7.245 7.25617 7.26037 6.78048C7.27569 6.30795 7.46741 5.85532 7.7926 5.44649C8.05035 5.12247 8.52216 5.06889 8.84631 5.32638C9.17046 5.58423 9.22426 6.05592 8.96643 6.38009C8.79657 6.59362 8.76212 6.74512 8.75939 6.8293C8.75687 6.91015 8.7809 6.99772 8.85803 7.09688C9.03088 7.31913 9.44136 7.54594 9.98889 7.57638C10.5136 7.60548 11.061 7.44451 11.4762 7.03927C11.8854 6.6398 12.2505 5.92001 12.2506 4.66915Z" fill="white"/>
</svg>
