<svg width="16" height="16" viewBox="0 0 16 16" fill="none" xmlns="http://www.w3.org/2000/svg">
<path d="M9.92598 10.0664C11.1717 8.97119 11.1719 7.03064 9.92598 5.93555L3.38496 0.18653L3.32441 0.138679C3.01502 -0.0818192 2.58262 -0.0366566 2.32637 0.254889C2.05299 0.566009 2.08364 1.04005 2.39473 1.31348L8.93574 7.06251C9.50207 7.56029 9.50205 8.44262 8.93574 8.94044L2.39863 14.6865C2.08759 14.96 2.05697 15.434 2.33027 15.7451C2.6037 16.0562 3.07776 16.0868 3.38887 15.8135L9.92598 10.0664Z" fill="white"/>
<path d="M13.1104 15.25V0.75C13.1104 0.335786 13.4461 0 13.8604 0C14.2746 0 14.6104 0.335786 14.6104 0.75V15.25C14.6104 15.6642 14.2746 16 13.8604 16C13.4461 16 13.1104 15.6642 13.1104 15.25Z" fill="white"/>
</svg>
