<svg width="16" height="16" viewBox="0 0 16 16" fill="none" xmlns="http://www.w3.org/2000/svg">
<g clip-path="url(#clip0_274_2602)">
<path d="M5.93359 9.92589C7.02881 11.1716 8.96936 11.1718 10.0644 9.92589L15.8135 3.38487L15.8613 3.32432C16.0818 3.01493 16.0367 2.58253 15.7451 2.32628C15.434 2.0529 14.9599 2.08355 14.6865 2.39464L8.93749 8.93565C8.43971 9.50198 7.55738 9.50195 7.05956 8.93565L1.31347 2.39854C1.04005 2.0875 0.565979 2.05688 0.254876 2.33018C-0.0561619 2.6036 -0.0867822 3.07767 0.186517 3.38878L5.93359 9.92589Z" fill="white"/>
<path d="M0.75 13.1103L15.25 13.1103C15.6642 13.1103 16 13.4461 16 13.8603C16 14.2745 15.6642 14.6103 15.25 14.6103L0.75 14.6103C0.335786 14.6103 -5.08894e-08 14.2745 -3.27835e-08 13.8603C-1.46777e-08 13.4461 0.335787 13.1103 0.75 13.1103Z" fill="white"/>
</g>
<defs>
<clipPath id="clip0_274_2602">
<rect width="16" height="16" fill="white"/>
</clipPath>
</defs>
</svg>
