<svg width="16" height="16" viewBox="0 0 16 16" fill="none" xmlns="http://www.w3.org/2000/svg">
<path d="M1.38965 15.25V0.75C1.38965 0.335786 1.72543 0 2.13965 0C2.55386 0 2.88965 0.335786 2.88965 0.75V15.25C2.88965 15.6642 2.55386 16 2.13965 16C1.72543 16 1.38965 15.6642 1.38965 15.25Z" fill="white"/>
<path d="M6.07402 10.0664C4.82827 8.97119 4.82811 7.03064 6.07402 5.93555L12.615 0.18653L12.6756 0.138679C12.985 -0.0818192 13.4174 -0.0366566 13.6736 0.254889C13.947 0.566009 13.9164 1.04005 13.6053 1.31348L7.06426 7.06251C6.49793 7.56029 6.49795 8.44262 7.06426 8.94044L13.6014 14.6865C13.9124 14.96 13.943 15.434 13.6697 15.7451C13.3963 16.0562 12.9222 16.0868 12.6111 15.8135L6.07402 10.0664Z" fill="white"/>
</svg>
