<svg width="16" height="16" viewBox="0 0 16 16" fill="none" xmlns="http://www.w3.org/2000/svg">
<g clip-path="url(#clip0_274_2611)">
<path d="M0.75 1.38974L15.25 1.38974C15.6642 1.38974 16 1.72553 16 2.13974C16 2.55395 15.6642 2.88974 15.25 2.88974L0.75 2.88974C0.335786 2.88974 -5.08894e-08 2.55395 -3.27835e-08 2.13974C-1.46777e-08 1.72553 0.335787 1.38974 0.75 1.38974Z" fill="white"/>
<path d="M5.93359 6.07411C7.02881 4.82836 8.96936 4.8282 10.0644 6.07411L15.8135 12.6151L15.8613 12.6757C16.0818 12.9851 16.0367 13.4175 15.7451 13.6737C15.434 13.9471 14.9599 13.9165 14.6865 13.6054L8.93749 7.06435C8.43971 6.49802 7.55738 6.49805 7.05956 7.06435L1.31347 13.6015C1.04005 13.9125 0.565979 13.9431 0.254876 13.6698C-0.0561619 13.3964 -0.0867822 12.9223 0.186517 12.6112L5.93359 6.07411Z" fill="white"/>
</g>
<defs>
<clipPath id="clip0_274_2611">
<rect width="16" height="16" fill="white"/>
</clipPath>
</defs>
</svg>
