<svg width="16" height="16" viewBox="0 0 16 16" fill="none" xmlns="http://www.w3.org/2000/svg">
<g clip-path="url(#clip0_274_2013)">
<path d="M0.219238 0.219535C0.512081 -0.0733105 0.98688 -0.0732092 1.27979 0.219535L15.7798 14.7197L15.8316 14.7763C16.0719 15.0709 16.0544 15.5056 15.7798 15.7803C15.5052 16.0548 15.0704 16.0723 14.7759 15.832L14.7192 15.7803L11.2827 12.3437C10.6672 12.8131 9.90937 13.0771 9.11866 13.0771H5.42237C3.49621 13.0768 1.90911 11.6242 1.69678 9.7548C0.713246 9.44638 -0.000375628 8.52752 -0.000488281 7.44227C-0.000366532 6.10421 1.08432 5.01952 2.42236 5.01939C3.11985 5.01939 3.74866 5.31477 4.18994 5.78503C4.3257 5.73778 4.46559 5.70048 4.60791 5.66881L0.219238 1.28009C-0.0734696 0.987219 -0.0735037 0.512389 0.219238 0.219535ZM5.42237 7.07703C4.17998 7.0773 3.17339 8.08461 3.17334 9.32706C3.17348 10.5694 4.18004 11.5768 5.42237 11.5771H6.73877C6.67717 11.1501 6.34028 10.8142 5.91162 10.7577C5.86125 10.7511 5.78871 10.7499 5.49951 10.7499H5.39991C4.9857 10.7499 4.64991 10.4141 4.64991 9.99991C4.64993 9.58572 4.98571 9.24991 5.39991 9.24991H5.49951C5.74094 9.24991 5.93458 9.24873 6.10694 9.27139C7.21272 9.41697 8.0834 10.2867 8.22901 11.3925C8.23673 11.4512 8.23868 11.5125 8.2417 11.5771H9.11866C9.50757 11.5771 9.88175 11.465 10.2046 11.2656L6.01612 7.07703H5.42237ZM7.8628 3.68149C7.49968 2.14598 9.24927 0.991871 10.5181 1.92951L10.6314 2.0135C10.6988 2.06336 10.7632 2.11854 10.8228 2.17756L13.9419 5.26939C13.9822 5.30929 14.0076 5.33382 14.0269 5.3524C14.0428 5.36777 14.0493 5.37388 14.0503 5.37486C14.0554 5.37919 14.0601 5.38329 14.064 5.38658L14.0835 5.40026C14.0727 5.39296 14.0717 5.3924 14.0933 5.40514C14.111 5.41557 14.1365 5.43015 14.1714 5.45006C14.2422 5.49043 14.3427 5.54755 14.48 5.62487C15.3853 6.13481 15.9995 7.10707 15.9995 8.22353C15.9993 9.86952 14.665 11.2039 13.0191 11.204C12.605 11.2039 12.2691 10.8681 12.2691 10.454C12.2691 10.0399 12.605 9.70415 13.0191 9.70401C13.8366 9.70389 14.4993 9.04108 14.4995 8.22353C14.4995 7.67035 14.1963 7.18648 13.7437 6.93152C13.4966 6.79237 13.3158 6.6914 13.2446 6.64343C13.2353 6.63712 13.2182 6.62625 13.2105 6.62097C13.1992 6.61334 13.1817 6.601 13.1616 6.58582C13.1415 6.57062 13.1252 6.55646 13.1148 6.54773C13.1074 6.54156 13.091 6.52855 13.0825 6.52136C13.0186 6.46745 12.9537 6.40169 12.8862 6.33484L9.7671 3.24301C9.75876 3.23476 9.74918 3.22654 9.73975 3.21957L9.62647 3.13558C9.58024 3.10149 9.54337 3.09455 9.51514 3.09457C9.48197 3.09464 9.44226 3.10504 9.40479 3.12972C9.36727 3.15452 9.34171 3.18709 9.32862 3.21761C9.31755 3.24354 9.30966 3.28005 9.32276 3.33578C9.33027 3.36753 9.3458 3.39752 9.36768 3.42172L10.7661 4.95982C10.9072 5.09619 10.9956 5.2872 10.9956 5.49889C10.9954 5.8724 10.7223 6.18114 10.3648 6.23816C10.3643 6.23932 10.3642 6.24097 10.3638 6.24206C10.4936 6.55497 10.3998 6.92657 10.1138 7.13465C9.779 7.37803 9.31063 7.30409 9.0669 6.96961C8.88123 6.71442 8.84398 6.4259 8.85303 6.21276C8.86259 5.99009 8.92437 5.77018 9.01807 5.57702C9.04764 5.5161 9.0853 5.45234 9.12842 5.38756L8.25831 4.43052C8.06542 4.21826 7.92883 3.96059 7.8628 3.68149ZM2.42236 6.51941C1.91275 6.51953 1.49963 6.93264 1.49951 7.44227C1.49959 7.73779 1.63887 8.00092 1.85498 8.16982C2.04881 7.57185 2.38952 7.0403 2.8335 6.61609C2.70959 6.55436 2.57003 6.51941 2.42236 6.51941Z" fill="white"/>
</g>
<defs>
<clipPath id="clip0_274_2013">
<rect width="16" height="16" fill="white"/>
</clipPath>
</defs>
</svg>
