<svg width="16" height="16" viewBox="0 0 16 16" fill="none" xmlns="http://www.w3.org/2000/svg">
<path d="M6.75 8C6.75 8.69036 6.24632 9.25 5.625 9.25C5.00368 9.25 4.5 8.69036 4.5 8C4.5 7.30964 5.00368 6.75 5.625 6.75C6.24632 6.75 6.75 7.30964 6.75 8Z" fill="white"/>
<path d="M11.5 8C11.5 8.69036 10.9963 9.25 10.375 9.25C9.75368 9.25 9.25 8.69036 9.25 8C9.25 7.30964 9.75368 6.75 10.375 6.75C10.9963 6.75 11.5 7.30964 11.5 8Z" fill="white"/>
<path d="M9.65225 2.125C10.194 2.125 10.6771 2.12282 11.2401 2.23243C11.8032 2.34207 12.4142 2.55622 13.2655 2.94239C13.6372 3.11111 13.9258 3.40817 14.1474 3.71192C14.3744 4.02318 14.5712 4.39654 14.7421 4.79102C15.084 5.58037 15.3577 6.5402 15.5605 7.47364C15.764 8.4107 15.9024 9.35057 15.9638 10.1123C15.9943 10.4919 16.0068 10.8416 15.996 11.1309C15.9906 11.2749 15.9787 11.4168 15.9569 11.5469C15.9374 11.6634 15.9008 11.8307 15.8144 11.9873C15.5989 12.3778 15.1869 12.6378 14.8632 12.8076C14.5032 12.9964 14.0763 13.1611 13.6581 13.2988C12.8193 13.575 11.9214 13.7754 11.4374 13.8633C11.2081 13.9049 10.9724 13.8372 10.7997 13.6807L10.2489 13.1807C10.0947 13.0406 10.0055 12.8424 10.0028 12.6348C9.85374 12.6537 9.70857 12.6719 9.57022 12.6846C8.85221 12.7503 8.22421 12.75 7.9999 12.75C7.7756 12.75 7.1476 12.7503 6.42959 12.6846C6.29094 12.6719 6.14543 12.6537 5.996 12.6348C5.9933 12.8424 5.90515 13.0406 5.75088 13.1807L5.2001 13.6807C5.02745 13.8372 4.79173 13.9049 4.5624 13.8633C4.07838 13.7754 3.18056 13.575 2.3417 13.2988C1.92347 13.1611 1.49663 12.9964 1.13662 12.8076C0.812885 12.6378 0.400948 12.3778 0.185451 11.9873C0.099009 11.8307 0.0623877 11.6634 0.042873 11.5469C0.0210843 11.4168 0.00917844 11.2749 0.00381047 11.1309C-0.00694483 10.8416 0.0054632 10.4919 0.036037 10.1123C0.0973917 9.35057 0.235813 8.4107 0.439357 7.47364C0.642121 6.5402 0.915808 5.58037 1.25772 4.79102C1.42861 4.39654 1.62536 4.02318 1.85244 3.71192C2.07404 3.40817 2.36259 3.11111 2.73428 2.94239C3.58561 2.55622 4.19659 2.34207 4.75967 2.23243C5.32267 2.12282 5.8058 2.125 6.34756 2.125L6.46377 2.13379C6.72981 2.17525 6.95667 2.35795 7.05166 2.61621L7.10147 2.75489C7.39576 2.71075 7.69816 2.6877 7.996 2.6875C7.9973 2.6875 7.9986 2.68847 7.9999 2.68848C8.00121 2.68847 8.00251 2.6875 8.00381 2.6875V2.68848V2.6875C8.30132 2.6877 8.60337 2.71084 8.89737 2.75489L8.94815 2.61621L8.996 2.51075C9.1267 2.27528 9.37697 2.125 9.65225 2.125ZM10.081 3.88379C9.94398 4.25671 9.53935 4.45788 9.15908 4.34278C8.82968 4.24308 8.42386 4.18778 8.00283 4.1875L7.9999 4.18653L7.99697 4.1875C7.57595 4.18778 7.17013 4.24308 6.84072 4.34278C6.46046 4.45788 6.05583 4.25671 5.91885 3.88379L5.82608 3.62989C5.54073 3.63675 5.30589 3.65465 5.04678 3.70508C4.64683 3.78294 4.15618 3.94395 3.3544 4.30762C3.31297 4.32641 3.20952 4.39679 3.06436 4.59571C2.92453 4.78737 2.77918 5.05319 2.63467 5.38672C2.34577 6.05361 2.09665 6.91052 1.90518 7.792C1.71454 8.66965 1.58669 9.54312 1.53115 10.2324C1.50331 10.5782 1.49506 10.8643 1.50283 11.0742C1.5062 11.1649 1.51292 11.2322 1.51944 11.2783C1.55723 11.311 1.64763 11.3823 1.83291 11.4795C2.08995 11.6143 2.43014 11.7488 2.81045 11.874C3.18572 11.9976 3.57833 12.1046 3.93154 12.1914C3.84087 12.0129 3.7499 11.7735 3.7499 11.5C3.7499 11.2451 3.87933 11.0072 4.09365 10.8691C4.30796 10.7311 4.57836 10.712 4.81045 10.8174C5.24039 11.0124 5.89937 11.1293 6.56631 11.1904C7.21264 11.2496 7.78377 11.25 7.9999 11.25C8.21604 11.25 8.78716 11.2496 9.4335 11.1904C10.1004 11.1293 10.7594 11.0124 11.1894 10.8174C11.4215 10.712 11.6919 10.7311 11.9062 10.8691C12.1205 11.0072 12.2499 11.2451 12.2499 11.5C12.2499 11.7737 12.158 12.0128 12.0673 12.1914C12.4207 12.1045 12.8138 11.9977 13.1894 11.874C13.5697 11.7488 13.9099 11.6143 14.1669 11.4795C14.3513 11.3828 14.4413 11.3113 14.4794 11.2783C14.4859 11.2322 14.4936 11.1649 14.497 11.0742C14.5048 10.8643 14.4965 10.5782 14.4687 10.2324C14.4131 9.54312 14.2853 8.66965 14.0946 7.792C13.9032 6.91052 13.654 6.05361 13.3651 5.38672C13.2206 5.05319 13.0753 4.78737 12.9355 4.59571C12.7903 4.39679 12.6868 4.32641 12.6454 4.30762C11.8436 3.94395 11.353 3.78294 10.953 3.70508C10.6936 3.65459 10.4585 3.63673 10.1728 3.62989L10.081 3.88379Z" fill="white"/>
</svg>
