<svg width="16" height="16" viewBox="0 0 16 16" fill="none" xmlns="http://www.w3.org/2000/svg">
<g clip-path="url(#clip0_274_1640)">
<path d="M7.16016 13.2374C7.16031 13.5691 7.41714 13.8434 7.74805 13.8653C8.00239 13.8821 8.24173 13.7443 8.35449 13.5157L10.8164 8.51965V2.13293H3.24902C3.05384 2.13094 2.87408 2.1939 2.74219 2.29504C2.61189 2.39498 2.54221 2.5203 2.52246 2.63781V2.63879L1.50586 8.62023C1.49418 8.69107 1.49962 8.7641 1.52246 8.83507C1.54558 8.90666 1.58774 8.97893 1.65137 9.04504C1.71549 9.11156 1.79998 9.16997 1.90137 9.21105C2.00292 9.25217 2.11627 9.27376 2.23242 9.27257H6L6.11816 9.27843C6.70318 9.33762 7.16016 9.83211 7.16016 10.4327V13.2374ZM14.5 2.71203C14.4999 2.58495 14.4448 2.44507 14.3164 2.32922C14.1853 2.21091 13.9917 2.13293 13.7764 2.13293H12.3164V7.94347H13.7764C13.9917 7.94347 14.1853 7.86549 14.3164 7.74718C14.4447 7.63125 14.5 7.49147 14.5 7.36437V2.71203ZM5.66016 10.7726H2.24023C1.93184 10.7748 1.62465 10.7173 1.33887 10.6017C1.05063 10.485 0.787416 10.3103 0.571289 10.0861C0.355085 9.86165 0.190654 9.59213 0.0947266 9.29406C-0.00134161 8.99555 -0.0246991 8.67983 0.0273438 8.37023V8.36828L1.04395 2.38781C1.13093 1.87198 1.41835 1.41966 1.8291 1.10461C2.23672 0.792045 2.74393 0.630289 3.25684 0.633903V0.632926H13.7764C14.3425 0.632926 14.8998 0.835704 15.3213 1.21593C15.745 1.59834 15.9999 2.13454 16 2.71203V7.36437C16 7.94211 15.7452 8.47892 15.3213 8.86144C14.8998 9.24167 14.3425 9.44347 13.7764 9.44347H12.0332L9.7002 14.1788C9.31909 14.952 8.50955 15.4192 7.64941 15.3624C6.53006 15.2885 5.66031 14.3592 5.66016 13.2374V10.7726Z" fill="white"/>
</g>
<defs>
<clipPath id="clip0_274_1640">
<rect width="16" height="16" fill="white"/>
</clipPath>
</defs>
</svg>
