<svg width="16" height="16" viewBox="0 0 16 16" fill="none" xmlns="http://www.w3.org/2000/svg">
<g clip-path="url(#clip0_274_1331)">
<path d="M8.34277 0C9.40364 0 10.4217 0.421729 11.1719 1.17188L13.8281 3.82812C14.5783 4.57827 15 5.59636 15 6.65723V12L14.9951 12.2061C14.8879 14.3194 13.14 16 11 16H5L4.79395 15.9951C2.68056 15.8879 1 14.14 1 12V4C1 1.79086 2.79086 0 5 0H8.34277ZM5 1.5C3.61929 1.5 2.5 2.61929 2.5 4V12C2.5 13.3807 3.61929 14.5 5 14.5H11C12.3807 14.5 13.5 13.3807 13.5 12V6.75H12.2002C11.6525 6.75 11.1963 6.75103 10.8252 6.7207C10.4455 6.68967 10.0891 6.62191 9.75195 6.4502C9.23451 6.18654 8.81346 5.76549 8.5498 5.24805C8.37809 4.9109 8.31033 4.55454 8.2793 4.1748C8.24897 3.80368 8.25 3.34748 8.25 2.7998V1.5H5ZM9.75 2.7998C9.75 3.37223 9.75024 3.75686 9.77441 4.05273C9.79788 4.33973 9.84059 4.47684 9.88672 4.56738C10.0065 4.8025 10.1975 4.99345 10.4326 5.11328C10.5232 5.15941 10.6603 5.20212 10.9473 5.22559C11.2431 5.24976 11.6278 5.25 12.2002 5.25H13.0654C12.978 5.12153 12.879 5.00008 12.7676 4.88867L10.1113 2.23242C9.99979 2.12088 9.87864 2.02111 9.75 1.93359V2.7998Z" fill="white"/>
</g>
<defs>
<clipPath id="clip0_274_1331">
<rect width="16" height="16" fill="white"/>
</clipPath>
</defs>
</svg>
