<svg width="16" height="16" viewBox="0 0 16 16" fill="none" xmlns="http://www.w3.org/2000/svg">
<path d="M7.25012 1.5C7.25012 1.08579 7.5859 0.75 8.00012 0.75C8.41433 0.75 8.75012 1.08579 8.75012 1.5V9.91895L11.4659 7.16016C11.7565 6.86523 12.2314 6.86185 12.5265 7.15234C12.8214 7.44295 12.8248 7.91779 12.5343 8.21289L8.5343 12.2764C8.39334 12.4194 8.20095 12.5 8.00012 12.5C7.79928 12.5 7.60689 12.4194 7.46594 12.2764L3.46594 8.21289L3.41418 8.15527C3.1765 7.85891 3.19734 7.42471 3.47375 7.15234C3.76885 6.86185 4.2437 6.86523 4.5343 7.16016L7.25012 9.91895V1.5Z" fill="white"/>
<path d="M12 13.75C12.4142 13.75 12.75 14.0858 12.75 14.5C12.75 14.9142 12.4142 15.25 12 15.25H4C3.58579 15.25 3.25 14.9142 3.25 14.5C3.25 14.0858 3.58579 13.75 4 13.75H12Z" fill="white"/>
</svg>
