<svg width="16" height="16" viewBox="0 0 16 16" fill="none" xmlns="http://www.w3.org/2000/svg">
<g clip-path="url(#clip0_274_2517)">
<rect x="0.75" y="0.75" width="14.5" height="14.5" rx="3.25" stroke="white" stroke-width="1.5"/>
<path d="M7.24994 3.99756C7.24994 3.58335 7.58573 3.24756 7.99994 3.24756C8.41415 3.24756 8.74994 3.58335 8.74994 3.99756V7.17139L9.96576 5.93701L10.0224 5.88525C10.3151 5.64269 10.7496 5.65581 11.0263 5.92822C11.3215 6.2188 11.3247 6.69359 11.0341 6.98877L8.53412 9.52881C8.39316 9.67189 8.2008 9.75244 7.99994 9.75244C7.79908 9.75244 7.60672 9.67189 7.46576 9.52881L4.96576 6.98877C4.67519 6.69359 4.67842 6.2188 4.97357 5.92822C5.25031 5.65581 5.6848 5.64269 5.97748 5.88525L6.03412 5.93701L7.24994 7.17139V3.99756Z" fill="white"/>
<path d="M10.5 11.2524L10.5771 11.2563C10.9551 11.295 11.25 11.6143 11.25 12.0024C11.25 12.3906 10.9551 12.7099 10.5771 12.7485L10.5 12.7524H5.5C5.08579 12.7524 4.75 12.4167 4.75 12.0024C4.75 11.5882 5.08579 11.2524 5.5 11.2524H10.5Z" fill="white"/>
</g>
<defs>
<clipPath id="clip0_274_2517">
<rect width="16" height="16" fill="white"/>
</clipPath>
</defs>
</svg>
