<svg width="16" height="16" viewBox="0 0 16 16" fill="none" xmlns="http://www.w3.org/2000/svg">
<g clip-path="url(#clip0_274_2088)">
<path d="M7.62402 8.76103C7.80355 8.5815 8.01496 8.52555 8.25781 8.59404L12.5693 9.78349C12.9498 9.89973 13.3093 10.082 13.6475 10.3304C13.9854 10.5786 14.2655 10.9164 14.4873 11.344C14.7568 11.8618 14.8755 12.4224 14.8438 13.0247L14.8252 13.2454C14.764 13.7546 14.585 14.217 14.2891 14.6331C13.8981 15.1878 13.4097 15.5737 12.8232 15.7903L12.6025 15.8636C12.1609 15.9943 11.7133 16.0304 11.2598 15.971L11.0322 15.9329C10.5006 15.8266 10.0258 15.5929 9.60742 15.2317L9.43066 15.0696C9.22466 14.8636 9.05589 14.6388 8.92383 14.3958C8.79174 14.158 8.69173 13.9096 8.62305 13.6507L7.4502 9.40263C7.38683 9.15441 7.44453 8.94063 7.62402 8.76103ZM10.0684 13.2513L10.0703 13.2591L10.0723 13.2659C10.0905 13.3346 10.1136 13.4022 10.1406 13.469L10.2354 13.6673L10.2422 13.679C10.3007 13.7867 10.379 13.8947 10.4854 14.0022C10.746 14.2599 11.0189 14.4007 11.3262 14.4622C11.6592 14.5288 11.975 14.5045 12.3037 14.3831C12.5804 14.2808 12.8319 14.0983 13.0635 13.7698L13.0674 13.764C13.2362 13.5264 13.3296 13.2656 13.3467 12.9456L13.3486 12.8186C13.3462 12.5287 13.2809 12.2752 13.1572 12.0374L13.1562 12.0354C13.0247 11.7817 12.8861 11.6322 12.7598 11.5394C12.5502 11.3855 12.3411 11.2823 12.1309 11.2181L9.29004 10.4349L10.0684 13.2513ZM2.85352 6.28838C3.08577 6.28849 3.25727 6.386 3.36816 6.58134L5.34961 10.0686C5.52393 10.3856 5.6376 10.7316 5.69043 11.1067C5.74854 11.4766 5.71119 11.8649 5.5791 12.2718C5.42587 12.7789 5.14859 13.2123 4.74707 13.5716L4.59375 13.6995C4.22908 13.9839 3.81807 14.1636 3.36035 14.2376C2.76345 14.3432 2.20869 14.277 1.69629 14.0394C1.25251 13.836 0.882999 13.5456 0.588867 13.1683L0.467773 13.0013C0.194984 12.5944 0.040912 12.1427 0.00683594 11.6468L0 11.4319C0 11.2417 0.0189777 11.0556 0.0576172 10.8743L0.103516 10.6946C0.15501 10.5164 0.220575 10.3453 0.301758 10.1819L0.388672 10.0208L2.3457 6.58134C2.45666 6.38585 2.62632 6.28838 2.85352 6.28838ZM11.666 0.035446C12.1732 -0.0385116 12.7066 0.00901823 13.2666 0.178024C13.9481 0.37877 14.5325 0.740037 15.0186 1.26299C15.5099 1.78606 15.816 2.38649 15.9375 3.06279C16.0431 3.64919 16.0144 4.20384 15.8506 4.72685C15.6921 5.24976 15.4308 5.71464 15.0664 6.12138C14.7072 6.52812 14.2737 6.84791 13.7666 7.08037C13.2647 7.31282 12.7176 7.42897 12.126 7.429V5.929C12.5152 5.92897 12.8451 5.85459 13.1357 5.72002L13.1416 5.71709C13.4635 5.56951 13.7249 5.37425 13.9414 5.1292L13.9492 5.12041C14.1673 4.877 14.3201 4.6055 14.415 4.29228L14.4189 4.27861C14.5042 4.00626 14.5285 3.69793 14.4619 3.32841C14.394 2.95094 14.2267 2.61172 13.9248 2.29033L13.9199 2.28447C13.6163 1.9577 13.2646 1.74076 12.8428 1.6165L12.833 1.61357C12.4541 1.49929 12.1435 1.48184 11.8828 1.51982L11.8691 1.5208C11.5293 1.56733 11.2357 1.66307 10.9766 1.79912L7.46094 3.7122L10.9551 5.6165C11.1248 5.71256 11.3121 5.79151 11.5215 5.8499C11.7072 5.90166 11.9076 5.929 12.126 5.929V7.429L11.8662 7.42119C11.6098 7.40433 11.3607 7.36156 11.1191 7.29424C10.7969 7.20443 10.4958 7.08062 10.2158 6.92216L5.54785 4.37822C5.41297 4.30681 5.31056 4.21306 5.24121 4.09697L5.18359 3.97392C5.14002 3.84321 5.12863 3.71397 5.15039 3.58623L5.18359 3.4583C5.23114 3.32785 5.31116 3.2182 5.42383 3.1292L5.54785 3.04619L10.2793 0.470993C10.649 0.276888 11.0491 0.141605 11.4795 0.0647429L11.666 0.035446ZM1.5 11.4319C1.50004 11.7262 1.57372 11.9552 1.71191 12.1624C1.82912 12.3343 1.96728 12.4705 2.1377 12.5774L2.32129 12.6751L2.32715 12.678C2.54022 12.7769 2.78084 12.8163 3.09863 12.7601L3.11035 12.7581L3.12109 12.7561C3.35598 12.7182 3.55544 12.6249 3.74707 12.4534C3.94687 12.2746 4.07141 12.0769 4.14355 11.8382L4.14844 11.8235L4.15234 11.8089C4.222 11.5943 4.22556 11.4446 4.20898 11.3392L4.20508 11.3157C4.1764 11.1123 4.11771 10.9414 4.03516 10.7913L2.85645 8.71611L1.69238 10.763L1.68848 10.7688C1.628 10.8741 1.57968 10.987 1.54395 11.1106C1.51531 11.2097 1.5 11.3157 1.5 11.4319Z" fill="white"/>
</g>
<defs>
<clipPath id="clip0_274_2088">
<rect width="16" height="16" fill="white"/>
</clipPath>
</defs>
</svg>
