<svg width="16" height="16" viewBox="0 0 16 16" fill="none" xmlns="http://www.w3.org/2000/svg">
<g clip-path="url(#clip0_274_1951)">
<path d="M10.0757 1.25L7.62549 1.25C7.21127 1.25 6.87549 1.58579 6.87549 2C6.87549 2.41422 7.21127 2.75 7.62549 2.75L10.0757 2.75C10.928 2.75 11.5223 2.75029 11.9849 2.78809C12.4387 2.82517 12.6995 2.89449 12.897 2.99512C13.3203 3.21083 13.6647 3.55515 13.8804 3.97852C13.981 4.17602 14.0503 4.4368 14.0874 4.89063C14.1252 5.35322 14.1255 5.94746 14.1255 6.79981L14.1255 9.2002C14.1255 10.0525 14.1252 10.6468 14.0874 11.1094C14.0503 11.5632 13.981 11.824 13.8804 12.0215C13.6647 12.4449 13.3203 12.7892 12.897 13.0049C12.6995 13.1055 12.4387 13.1748 11.9849 13.2119C11.5223 13.2497 10.928 13.25 10.0757 13.25L7.62549 13.25C7.21128 13.25 6.87549 13.5858 6.87549 14C6.87549 14.4142 7.21128 14.75 7.62549 14.75L10.0757 14.75C10.9033 14.75 11.5691 14.751 12.1069 14.707C12.6535 14.6624 13.1334 14.5671 13.5776 14.3408C14.2832 13.9813 14.8568 13.4078 15.2163 12.7021C15.4426 12.258 15.5379 11.7781 15.5825 11.2314C15.6265 10.6936 15.6255 10.0278 15.6255 9.2002L15.6255 6.79981C15.6255 5.97222 15.6265 5.30639 15.5825 4.76856C15.5379 4.22195 15.4426 3.74205 15.2163 3.29785C14.8568 2.59225 14.2832 2.01871 13.5776 1.65918C13.1334 1.43286 12.6535 1.33763 12.1069 1.29297C11.5691 1.24903 10.9033 1.25 10.0757 1.25Z" fill="white"/>
<path d="M10.2075 8.47396C10.4477 8.17938 10.4302 7.74462 10.1557 7.47004L7.15568 4.47002L7.09904 4.41826C6.80449 4.17798 6.36974 4.1955 6.09513 4.47002C5.82053 4.74463 5.80306 5.17935 6.04337 5.47393L6.09513 5.53057L7.81487 7.25031H0.375375C-0.0387098 7.25031 -0.374417 7.58628 -0.374629 8.00032C-0.374629 8.41454 -0.0388407 8.75032 0.375375 8.75032H7.81487L6.09513 10.4701C5.80224 10.763 5.80224 11.2377 6.09513 11.5306C6.38803 11.8235 6.8628 11.8235 7.15568 11.5306L10.1557 8.5306L10.2075 8.47396Z" fill="white"/>
</g>
<defs>
<clipPath id="clip0_274_1951">
<rect width="16" height="16" fill="white"/>
</clipPath>
</defs>
</svg>
