<svg width="16" height="16" viewBox="0 0 16 16" fill="none" xmlns="http://www.w3.org/2000/svg">
<g clip-path="url(#clip0_274_1868)">
<path d="M16 0.750007L16 2.9004C16 4.28797 16.0009 5.37382 15.9297 6.24512C15.8578 7.12525 15.7084 7.85263 15.373 8.51075C14.8218 9.59253 13.9422 10.4722 12.8604 11.0234C12.2023 11.3587 11.4748 11.5072 10.5947 11.5791C9.72339 11.6503 8.63759 11.6504 7.25 11.6504L2.56055 11.6504L5.62988 14.7197L5.68164 14.7764C5.92211 15.071 5.90454 15.5056 5.62988 15.7803C5.35538 16.0546 4.92146 16.072 4.62695 15.832L4.56933 15.7803L0.219725 11.4307C-0.073103 11.1378 -0.0729729 10.663 0.219725 10.3701L4.56933 6.01954C4.86213 5.72674 5.33696 5.72694 5.62988 6.01954C5.92277 6.31243 5.92277 6.78719 5.62988 7.08009L2.56055 10.1504L7.25 10.1504C8.66237 10.1504 9.67655 10.149 10.4727 10.084C11.26 10.0197 11.7683 9.89616 12.1797 9.68653C12.9792 9.27906 13.6297 8.6287 14.0371 7.82911C14.2466 7.41777 14.3703 6.9101 14.4346 6.12305C14.4996 5.32699 14.5 4.3127 14.5 2.9004L14.5 0.750007C14.5 0.335793 14.8358 6.7775e-06 15.25 6.74129e-06C15.6642 6.70508e-06 16 0.335793 16 0.750007Z" fill="white"/>
</g>
<defs>
<clipPath id="clip0_274_1868">
<rect width="16" height="16" fill="white"/>
</clipPath>
</defs>
</svg>
