<svg width="16" height="16" viewBox="0 0 16 16" fill="none" xmlns="http://www.w3.org/2000/svg">
<g clip-path="url(#clip0_274_2119)">
<path d="M2.25 14.4443C2.25 14.8585 1.91421 15.1943 1.5 15.1943C1.08579 15.1943 0.750001 14.8585 0.750001 14.4443L0.75 11.2227C0.75 10.8084 1.08579 10.4727 1.5 10.4727C1.91421 10.4727 2.25 10.8084 2.25 11.2227L2.25 14.4443Z" fill="white"/>
<path d="M6.5835 14.4443L6.57959 14.5205C6.5414 14.8989 6.22199 15.1943 5.8335 15.1943C5.44501 15.1943 5.12559 14.8989 5.0874 14.5205L5.0835 14.4443L5.0835 1.55566C5.0835 1.14145 5.41928 0.805664 5.8335 0.805664C6.24771 0.805664 6.5835 1.14145 6.5835 1.55566L6.5835 14.4443Z" fill="white"/>
<path d="M10.9165 14.4443L10.9126 14.5205C10.8743 14.8988 10.5549 15.1943 10.1665 15.1943C9.7781 15.1943 9.45871 14.8988 9.42041 14.5205L9.4165 14.4443L9.4165 6.38867C9.4165 5.97446 9.75229 5.63867 10.1665 5.63867C10.5807 5.63867 10.9165 5.97446 10.9165 6.38867L10.9165 14.4443Z" fill="white"/>
<path d="M15.25 14.4443C15.25 14.8585 14.9142 15.1943 14.5 15.1943C14.0858 15.1943 13.75 14.8585 13.75 14.4443L13.75 3.16699C13.75 2.75278 14.0858 2.41699 14.5 2.41699C14.9142 2.41699 15.25 2.75278 15.25 3.16699L15.25 14.4443Z" fill="white"/>
</g>
<defs>
<clipPath id="clip0_274_2119">
<rect width="16" height="16" fill="white"/>
</clipPath>
</defs>
</svg>
