<svg width="16" height="16" viewBox="0 0 16 16" fill="none" xmlns="http://www.w3.org/2000/svg">
<g clip-path="url(#clip0_274_1873)">
<path d="M2.75 5.5L13.25 5.5C13.6142 5.5 13.8315 5.49955 13.9941 5.49121C14.1464 5.48338 14.1687 5.47153 14.1455 5.47852C14.305 5.43 14.43 5.30505 14.4785 5.14551C14.4715 5.1687 14.4834 5.14635 14.4912 4.99414C14.4995 4.83153 14.5 4.61421 14.5 4.25C14.5 3.88579 14.4995 3.66847 14.4912 3.50586C14.4834 3.35365 14.4715 3.3313 14.4785 3.35449C14.43 3.19495 14.305 3.07 14.1455 3.02148C14.1687 3.02847 14.1464 3.01662 13.9941 3.00879C13.9128 3.00462 13.8174 3.00213 13.6973 3.00098L13.25 3L2.75 3C2.38579 3 2.16847 3.00045 2.00586 3.00879C1.85365 3.01662 1.8313 3.02847 1.85449 3.02148C1.69495 3.07 1.57 3.19495 1.52148 3.35449C1.52847 3.3313 1.51662 3.35365 1.50879 3.50586C1.50045 3.66847 1.5 3.88579 1.5 4.25L-1.20206e-07 4.25C-9.35122e-08 3.63931 -0.000113316 3.29583 0.0576171 3.0293L0.0859374 2.91894C0.267756 2.32001 0.718749 1.84306 1.30078 1.62598L1.41895 1.58594C1.70284 1.49982 2.05222 1.5 2.75 1.5L13.25 1.5C13.9478 1.5 14.2972 1.49982 14.5811 1.58594C15.2199 1.77988 15.7201 2.28006 15.9141 2.91895C16.0002 3.20284 16 3.55222 16 4.25C16 4.94778 16.0002 5.29716 15.9141 5.58105C15.7201 6.21994 15.2199 6.72012 14.5811 6.91406C14.2972 7.00018 13.9478 7 13.25 7L2.75 7C2.05222 7 1.70284 7.00018 1.41895 6.91406L1.30078 6.87402C0.718748 6.65694 0.267756 6.17999 0.0859373 5.58105L0.057617 5.4707C-0.0001134 5.20417 -1.469e-07 4.86069 -1.20206e-07 4.25L1.5 4.25C1.5 4.61421 1.50045 4.83153 1.50879 4.99414C1.51662 5.14635 1.52847 5.1687 1.52148 5.14551C1.57 5.30505 1.69495 5.43 1.85449 5.47852C1.8313 5.47153 1.85365 5.48338 2.00586 5.49121C2.16847 5.49955 2.38579 5.5 2.75 5.5Z" fill="white"/>
<path d="M2.75 13L13.25 13C13.6142 13 13.8315 12.9995 13.9941 12.9912C14.1464 12.9834 14.1687 12.9715 14.1455 12.9785C14.305 12.93 14.43 12.805 14.4785 12.6455C14.4715 12.6687 14.4834 12.6464 14.4912 12.4941C14.4995 12.3315 14.5 12.1142 14.5 11.75C14.5 11.3858 14.4995 11.1685 14.4912 11.0059C14.4834 10.8536 14.4715 10.8313 14.4785 10.8545C14.43 10.695 14.305 10.57 14.1455 10.5215C14.1687 10.5285 14.1464 10.5166 13.9941 10.5088C13.9128 10.5046 13.8174 10.5021 13.6973 10.501L13.25 10.5L2.75 10.5C2.38579 10.5 2.16847 10.5004 2.00586 10.5088C1.85365 10.5166 1.8313 10.5285 1.85449 10.5215C1.69495 10.57 1.57 10.695 1.52148 10.8545C1.52847 10.8313 1.51662 10.8536 1.50879 11.0059C1.50045 11.1685 1.5 11.3858 1.5 11.75L-1.20206e-07 11.75C-9.35122e-08 11.1393 -0.000113316 10.7958 0.0576171 10.5293L0.0859374 10.4189C0.267756 9.82001 0.718749 9.34306 1.30078 9.12598L1.41895 9.08594C1.70284 8.99982 2.05222 9 2.75 9L13.25 9C13.9478 9 14.2972 8.99982 14.5811 9.08594C15.2199 9.27988 15.7201 9.78006 15.9141 10.4189C16.0002 10.7028 16 11.0522 16 11.75C16 12.4478 16.0002 12.7972 15.9141 13.0811C15.7201 13.7199 15.2199 14.2201 14.5811 14.4141C14.2972 14.5002 13.9478 14.5 13.25 14.5L2.75 14.5C2.05222 14.5 1.70284 14.5002 1.41895 14.4141L1.30078 14.374C0.718748 14.1569 0.267756 13.68 0.0859373 13.0811L0.057617 12.9707C-0.0001134 12.7042 -1.469e-07 12.3607 -1.20206e-07 11.75L1.5 11.75C1.5 12.1142 1.50045 12.3315 1.50879 12.4941C1.51662 12.6463 1.52847 12.6687 1.52148 12.6455C1.57 12.805 1.69495 12.93 1.85449 12.9785C1.8313 12.9715 1.85365 12.9834 2.00586 12.9912C2.16847 12.9995 2.38579 13 2.75 13Z" fill="white"/>
</g>
<defs>
<clipPath id="clip0_274_1873">
<rect width="16" height="16" fill="white"/>
</clipPath>
</defs>
</svg>
