<svg width="16" height="16" viewBox="0 0 16 16" fill="none" xmlns="http://www.w3.org/2000/svg">
<g clip-path="url(#clip0_274_1516)">
<path d="M9.59347 0.166884C10.1456 -0.0123424 10.7406 -0.012488 11.2927 0.166884C11.6525 0.283867 11.9525 0.488703 12.2429 0.735245C12.5267 0.9762 12.8489 1.29931 13.236 1.68642L13.8103 2.26064C14.1973 2.6477 14.5205 2.97004 14.7614 3.2538C15.0079 3.54421 15.2128 3.84423 15.3298 4.204C15.5091 4.75623 15.5092 5.35198 15.3298 5.9042C15.2128 6.26387 15.0078 6.56313 14.7614 6.85342C14.5207 7.13698 14.1988 7.459 13.8122 7.84561L8.13645 13.5214C7.74933 13.9085 7.42707 14.2316 7.14329 14.4726C7.13219 14.482 7.12023 14.4906 7.10911 14.4999H14.9284L15.0046 14.5038C15.3826 14.5422 15.6782 14.8618 15.6784 15.2499C15.6782 15.638 15.3826 15.9576 15.0046 15.996L14.9284 15.9999H6.63743C6.18411 15.9999 5.83424 16.0054 5.49778 15.9247C5.21741 15.8574 4.94875 15.7453 4.70286 15.5946C4.40815 15.4139 4.16463 15.1638 3.84447 14.8437L2.07201 13.0712C2.03181 13.031 1.99766 12.9865 1.9685 12.9403C1.58428 12.5561 1.26377 12.2362 1.02416 11.954C0.777592 11.6636 0.572781 11.3636 0.455806 11.0038C0.276406 10.4517 0.276494 9.85678 0.455806 9.30459C0.572733 8.94473 0.777608 8.64487 1.02416 8.3544C1.26511 8.07059 1.58818 7.74838 1.97533 7.36123L7.6511 1.68544C8.03784 1.2987 8.35965 0.976006 8.64328 0.735245C8.93366 0.488782 9.23363 0.283805 9.59347 0.166884ZM2.79369 8.66592C2.51909 8.94198 2.31853 9.14747 2.16772 9.3251C1.98159 9.54439 1.91399 9.67089 1.88256 9.76748C1.80104 10.0184 1.80109 10.289 1.88256 10.5399C1.91401 10.6366 1.98149 10.7639 2.16772 10.9833C2.35982 11.2096 2.6313 11.4821 3.03588 11.8866L3.61009 12.4608C4.01457 12.8653 4.2872 13.1369 4.51341 13.329C4.73281 13.5152 4.86016 13.5828 4.95677 13.6142C5.20768 13.6956 5.47834 13.6957 5.72923 13.6142C5.82583 13.5827 5.95329 13.5152 6.17259 13.329C6.35025 13.1781 6.55466 12.9767 6.83079 12.7021C6.07935 11.9506 5.44534 11.3176 4.81224 10.6845L2.79369 8.66592ZM10.8288 1.59364C10.578 1.5122 10.3072 1.51221 10.0564 1.59364C9.95966 1.62511 9.83303 1.69289 9.61398 1.8788C9.38794 2.07067 9.11589 2.34174 8.71164 2.74599L3.85326 7.60439L7.89231 11.6435L12.7507 6.78506C13.1549 6.3808 13.426 6.10875 13.6179 5.88271C13.8039 5.66358 13.8716 5.53705 13.903 5.44033C13.9846 5.18939 13.9845 4.91882 13.903 4.66787C13.8716 4.57125 13.8041 4.44392 13.6179 4.22451C13.4258 3.99829 13.1542 3.72567 12.7497 3.32119L12.1755 2.74697C11.7709 2.3424 11.4984 2.07091 11.2722 1.8788C11.0529 1.69266 10.9254 1.62511 10.8288 1.59364Z" fill="white"/>
</g>
<defs>
<clipPath id="clip0_274_1516">
<rect width="16" height="16" fill="white"/>
</clipPath>
</defs>
</svg>
