<svg width="16" height="16" viewBox="0 0 16 16" fill="none" xmlns="http://www.w3.org/2000/svg">
<g clip-path="url(#clip0_274_1945)">
<path d="M8.74996 14C8.74996 14.4142 8.41416 14.75 7.99996 14.75L5.54977 14.75C4.7222 14.75 4.05634 14.751 3.51852 14.707C2.97192 14.6624 2.492 14.5671 2.04781 14.3408C1.34221 13.9813 0.768664 13.4077 0.409138 12.7021C0.182824 12.258 0.0875871 11.7781 0.0429273 11.2314C-0.00101134 10.6936 -4.04965e-05 10.0278 -4.04019e-05 9.2002L-4.02969e-05 6.79981C-4.03854e-05 5.97222 -0.0010111 5.30638 0.0429276 4.76856C0.0875874 4.22195 0.182824 3.74205 0.409139 3.29785C0.768665 2.59225 1.34221 2.0187 2.04781 1.65918C2.492 1.43287 2.97192 1.33763 3.51852 1.29297C4.05634 1.24903 4.7222 1.25 5.54977 1.25L7.99996 1.25C8.41416 1.25002 8.74996 1.5858 8.74996 2C8.74996 2.4142 8.41416 2.74998 7.99996 2.75L5.54977 2.75C4.69744 2.75 4.10318 2.75029 3.64059 2.78809C3.18679 2.82517 2.92598 2.8945 2.72848 2.99512C2.30512 3.21083 1.96079 3.55516 1.74508 3.97852C1.64445 4.17602 1.57513 4.43681 1.53805 4.89063C1.50025 5.35322 1.49996 5.94746 1.49996 6.79981L1.49996 9.2002C1.49996 10.0525 1.50025 10.6468 1.53805 11.1094C1.57513 11.5632 1.64445 11.824 1.74508 12.0215C1.96079 12.4448 2.30512 12.7892 2.72848 13.0049C2.92598 13.1055 3.18679 13.1748 3.64059 13.2119C4.10317 13.2497 4.69744 13.25 5.54977 13.25L7.99996 13.25C8.41416 13.25 8.74996 13.5858 8.74996 14ZM15.832 7.52637C16.0723 7.82088 16.0547 8.25566 15.7802 8.53027L12.7802 11.5303L12.7236 11.582C12.429 11.8223 11.9943 11.8049 11.7197 11.5303C11.4452 11.2557 11.4277 10.8209 11.6679 10.5264L11.7197 10.4697L13.4394 8.75L5.99996 8.75C5.58575 8.75 5.24996 8.41421 5.24996 8C5.24996 7.58579 5.58575 7.25 5.99996 7.25L13.4394 7.25L11.7197 5.53027C11.4269 5.23737 11.4268 4.76257 11.7197 4.46973C12.0126 4.17707 12.4874 4.17705 12.7802 4.46973L15.7802 7.46973L15.832 7.52637Z" fill="white"/>
</g>
<defs>
<clipPath id="clip0_274_1945">
<rect width="16" height="16" fill="white"/>
</clipPath>
</defs>
</svg>
