<svg width="16" height="16" viewBox="0 0 16 16" fill="none" xmlns="http://www.w3.org/2000/svg">
<path d="M10.5784 0C11.2676 0 11.8837 0.283843 12.3274 0.727539C12.9064 1.30681 13.1997 2.16476 12.9827 3.06445L12.9807 3.07031C12.7761 3.88881 12.1734 4.47889 11.4505 4.75684L14.1292 10.8887C14.6569 12.0927 14.8406 13.3858 14.2591 14.4238C13.6559 15.5002 12.409 16 10.7815 16H5.22093C3.58147 15.9999 2.33045 15.4998 1.73165 14.417C1.15583 13.3753 1.35117 12.08 1.88107 10.8799L4.56761 4.77832C4.23685 4.6558 3.93617 4.46756 3.6887 4.22168C3.22579 3.76892 2.95529 3.14066 2.95529 2.46777C2.95555 1.11342 4.05831 0.000140723 5.42406 0H10.5784ZM3.25412 11.4854H3.25315C2.79735 12.5176 2.80474 13.2568 3.04416 13.6904C3.26103 14.0827 3.83037 14.4999 5.22093 14.5H10.7815C12.1554 14.5 12.7289 14.0857 12.9505 13.6904C13.1933 13.2567 13.206 12.5199 12.7552 11.4912V11.4902L12.0071 9.7793C11.7772 9.88792 11.4918 10.0078 11.1634 10.1133C10.2908 10.3934 9.05982 10.5917 7.76782 10.1611C6.75613 9.82393 5.72081 9.67237 4.92991 9.60645C4.60037 9.57899 4.31671 9.56751 4.09983 9.5625L3.25412 11.4854ZM5.42406 1.5C4.89085 1.50014 4.45556 1.93773 4.4553 2.46777C4.4553 2.70343 4.53748 2.91871 4.67503 3.08301L4.73753 3.14941L4.74339 3.15625C4.91599 3.32877 5.16107 3.4364 5.43089 3.43652H5.64867C5.90189 3.43655 6.13812 3.5644 6.2766 3.77637C6.41506 3.98864 6.43734 4.25732 6.3352 4.48926L4.74827 8.09082C4.84576 8.09704 4.94839 8.10245 5.05492 8.11133C5.91694 8.18317 7.07936 8.35059 8.24243 8.73828C9.12503 9.03238 10.0074 8.90918 10.7044 8.68555C10.9819 8.59644 11.2196 8.49024 11.4055 8.40039L9.69557 4.48633C9.59452 4.2546 9.61674 3.98696 9.75514 3.77539C9.89367 3.56387 10.1302 3.43661 10.3831 3.43652H10.4993C11.0079 3.43635 11.4245 3.11123 11.5257 2.70703C11.6103 2.34779 11.4973 2.01951 11.2659 1.78809C11.0862 1.60848 10.846 1.5 10.5784 1.5H5.42406Z" fill="white"/>
</svg>
