<svg width="16" height="16" viewBox="0 0 16 16" fill="none" xmlns="http://www.w3.org/2000/svg">
<g clip-path="url(#clip0_274_1931)">
<path d="M14.0005 7.25012C14.4145 7.25066 14.7499 7.58701 14.7495 8.0011L14.7476 10.4542C14.7469 11.2813 14.747 11.947 14.7027 12.4845C14.6576 13.0307 14.5629 13.5104 14.3364 13.9542C13.9767 14.6593 13.4031 15.2327 12.6978 15.5919C12.2539 15.8179 11.7742 15.9125 11.228 15.9572C10.6905 16.0011 10.0248 16.0001 9.19777 16.0001H6.80031C5.97251 16.0001 5.30602 16.0011 4.76808 15.9572C4.22152 15.9125 3.74154 15.8173 3.29738 15.5909C2.5918 15.2314 2.01819 14.6579 1.65871 13.9523C1.43245 13.5081 1.33809 13.0281 1.29347 12.4816C1.24959 11.9436 1.2504 11.2771 1.2505 10.4493V8.00012C1.25056 7.58591 1.58629 7.25007 2.0005 7.25012C2.41469 7.25017 2.75051 7.58595 2.7505 8.00012V10.4493C2.7504 11.3019 2.75084 11.8968 2.78859 12.3595C2.82563 12.8132 2.89405 13.0741 2.99465 13.2716C3.21031 13.695 3.55473 14.0393 3.97804 14.255C4.17551 14.3556 4.43648 14.4249 4.89015 14.462C5.35283 14.4998 5.94776 14.5001 6.80031 14.5001H9.19777C10.0495 14.5001 10.6437 14.4998 11.106 14.462C11.5593 14.425 11.8197 14.3555 12.0171 14.255C12.4403 14.0395 12.7847 13.6956 13.0005 13.2726C13.1012 13.0753 13.1701 12.8147 13.2075 12.3615C13.2457 11.8992 13.2469 11.3051 13.2476 10.4532L13.2495 7.99915C13.2501 7.58511 13.5864 7.2498 14.0005 7.25012Z" fill="white"/>
<path d="M7.5273 0.168032C7.82187 -0.0721913 8.25663 -0.0547578 8.53121 0.21979L11.5312 3.21981L11.583 3.27645C11.8233 3.571 11.8058 4.00575 11.5312 4.28036C11.2566 4.55496 10.8219 4.57243 10.5273 4.33212L10.4707 4.28036L8.75094 2.56062V10.0001C8.75094 10.4142 8.41501 10.75 8.00093 10.7501C7.58672 10.7501 7.25093 10.4143 7.25093 10.0001V2.56062L5.53119 4.28036C5.23829 4.57325 4.76353 4.57325 4.47063 4.28036C4.17777 3.98746 4.17775 3.51269 4.47063 3.21981L7.47065 0.21979L7.5273 0.168032Z" fill="white"/>
</g>
<defs>
<clipPath id="clip0_274_1931">
<rect width="16" height="16" fill="white"/>
</clipPath>
</defs>
</svg>
