<svg width="16" height="16" viewBox="0 0 16 16" fill="none" xmlns="http://www.w3.org/2000/svg">
<g clip-path="url(#clip0_274_2144)">
<path d="M8.00023 2.75C10.5849 2.75 12.5701 3.99896 13.8791 5.19629C14.5364 5.79747 15.0366 6.39754 15.3733 6.84766C15.542 7.07326 15.6711 7.26303 15.759 7.39844C15.8029 7.46599 15.837 7.51997 15.8606 7.55859C15.8724 7.57794 15.8813 7.59421 15.8879 7.60547C15.8912 7.61096 15.8937 7.6157 15.8957 7.61914C15.8967 7.62078 15.898 7.62189 15.8987 7.62305L15.8996 7.625C15.8998 7.62528 15.9003 7.62596 15.2502 8L15.8996 8.375L15.8987 8.37695C15.898 8.37811 15.8967 8.37922 15.8957 8.38086C15.8937 8.38437 15.8913 8.38988 15.8879 8.39551C15.8813 8.40673 15.8723 8.42228 15.8606 8.44141C15.837 8.48003 15.8029 8.534 15.759 8.60156C15.6711 8.73697 15.542 8.92674 15.3733 9.15234C15.0366 9.60247 14.5364 10.2025 13.8791 10.8037C12.5701 12.001 10.585 13.25 8.00023 13.25C5.4155 13.25 3.43036 12.001 2.12133 10.8037C1.46407 10.2025 0.963885 9.60247 0.627185 9.15234C0.45843 8.92674 0.329374 8.73697 0.241443 8.60156C0.197574 8.534 0.163436 8.48003 0.13988 8.44141C0.128214 8.42228 0.119186 8.40673 0.112537 8.39551C0.109203 8.38988 0.106771 8.38437 0.104724 8.38086C0.103767 8.37922 0.102463 8.37811 0.101794 8.37695L0.100818 8.375L0.750232 8L0.100818 7.625L0.101794 7.62305C0.102464 7.62189 0.103768 7.62078 0.104724 7.61914C0.106735 7.6157 0.109285 7.61096 0.112537 7.60547C0.119204 7.59421 0.128083 7.57794 0.13988 7.55859C0.16344 7.51997 0.197578 7.46599 0.241443 7.39844C0.329374 7.26303 0.45843 7.07326 0.627185 6.84766C0.963885 6.39754 1.46409 5.79747 2.12133 5.19629C3.43036 3.99896 5.41552 2.75 8.00023 2.75ZM8.00023 4.25C5.92438 4.25 4.28481 5.25109 3.13402 6.30371C2.56143 6.82746 2.12279 7.35248 1.82836 7.74609C1.75888 7.83897 1.69759 7.92427 1.64476 8C1.6976 8.07574 1.75887 8.16101 1.82836 8.25391C2.12279 8.64753 2.56141 9.17252 3.13402 9.69629C4.28481 10.7489 5.92437 11.75 8.00023 11.75C10.0761 11.75 11.7157 10.7489 12.8664 9.69629C13.4391 9.17252 13.8777 8.64753 14.1721 8.25391C14.2415 8.1612 14.302 8.07563 14.3547 8C14.302 7.92438 14.2414 7.83878 14.1721 7.74609C13.8777 7.35248 13.439 6.82746 12.8664 6.30371C11.7157 5.25109 10.0761 4.25 8.00023 4.25ZM0.750232 8L0.0998414 8.37402C-0.0332715 8.14253 -0.0332894 7.85746 0.0998414 7.62598L0.750232 8ZM15.9006 7.62598C16.0338 7.85746 16.0337 8.14253 15.9006 8.37402L15.2502 8L15.9006 7.62598Z" fill="white"/>
<path d="M9.5 8C9.5 7.17157 8.82843 6.5 8 6.5C7.17157 6.5 6.5 7.17157 6.5 8C6.5 8.82843 7.17157 9.5 8 9.5V11C6.34315 11 5 9.65685 5 8C5 6.34315 6.34315 5 8 5C9.65685 5 11 6.34315 11 8C11 9.65685 9.65685 11 8 11V9.5C8.82843 9.5 9.5 8.82843 9.5 8Z" fill="white"/>
</g>
<defs>
<clipPath id="clip0_274_2144">
<rect width="16" height="16" fill="white"/>
</clipPath>
</defs>
</svg>
