<svg width="16" height="16" viewBox="0 0 16 16" fill="none" xmlns="http://www.w3.org/2000/svg">
<g clip-path="url(#clip0_274_1702)">
<path d="M14.5 4.74991C14.5 3.01098 13.1343 1.59073 11.417 1.50381L11.25 1.49991H4.75C2.95507 1.49991 1.5 2.95498 1.5 4.74991V8.74991L1.50391 8.9169C1.59082 10.6342 3.01108 11.9999 4.75 11.9999H9.54297C9.74413 11.9999 9.93712 12.081 10.0781 12.2245L11.25 13.4159V12.6786C11.25 12.3183 11.5064 12.0085 11.8604 11.9413C13.3637 11.6559 14.5 10.3353 14.5 8.74991V4.74991ZM16 8.74991C16 10.8497 14.638 12.6288 12.75 13.2567V15.2499C12.75 15.5544 12.566 15.8289 12.2842 15.9442C12.0023 16.0596 11.6783 15.9925 11.4648 15.7753L9.22852 13.4999H4.75C2.20852 13.4999 0.132925 11.504 0.00585938 8.99405L0 8.74991V4.74991C0 2.12656 2.12665 -9.15527e-05 4.75 -9.15527e-05H11.25L11.4941 0.00576782C14.004 0.132833 16 2.20843 16 4.74991V8.74991Z" fill="white"/>
<rect x="7.25" y="3.24991" width="1.5" height="4" rx="0.75" fill="white"/>
<rect x="7.25" y="8.74991" width="1.5" height="1.5" rx="0.75" fill="white"/>
</g>
<defs>
<clipPath id="clip0_274_1702">
<rect width="16" height="16" fill="white"/>
</clipPath>
</defs>
</svg>
