<svg width="16" height="16" viewBox="0 0 16 16" fill="none" xmlns="http://www.w3.org/2000/svg">
<g clip-path="url(#clip0_274_1312)">
<path d="M8.7258 9.25132C8.7258 9.05909 8.72233 8.85027 8.76779 8.64487C8.80448 8.47921 8.86491 8.31946 8.94748 8.17124C9.0498 7.98764 9.19103 7.8344 9.31857 7.69077L13.4406 3.04917C13.8253 2.61596 14.0792 2.329 14.2434 2.10678C14.3444 1.97006 14.3777 1.89942 14.3879 1.87632C14.3856 1.81075 14.3584 1.74954 14.3108 1.70444C14.286 1.69657 14.2102 1.67561 14.0422 1.6605C13.767 1.63577 13.3841 1.63511 12.8049 1.6351H3.19553C2.61592 1.6351 2.23251 1.63573 1.95725 1.6605C1.78803 1.67574 1.71277 1.69673 1.68869 1.70444C1.64145 1.7493 1.61409 1.81028 1.61154 1.87534C1.62116 1.8973 1.65435 1.96779 1.75705 2.10678C1.92127 2.32903 2.17504 2.61587 2.55978 3.04917L6.68088 7.69077C6.80849 7.83449 6.95057 7.9875 7.05295 8.17124C7.13553 8.31948 7.19595 8.47919 7.23264 8.64487C7.2781 8.85027 7.27365 9.05909 7.27365 9.25132V13.2337C7.27365 13.3485 7.27364 13.4134 7.2756 13.4623C7.27681 13.492 7.27898 13.5046 7.27951 13.5082C7.28743 13.5456 7.30375 13.5806 7.32736 13.6107C7.32529 13.6081 7.33026 13.6155 7.36057 13.6429C7.39689 13.6757 7.44704 13.7177 7.53537 13.7914C7.87548 14.0748 8.09936 14.2605 8.2717 14.3841C8.37597 14.459 8.43038 14.4881 8.44943 14.4974C8.5421 14.5075 8.6302 14.4646 8.68186 14.3871C8.68692 14.3661 8.70096 14.3061 8.71018 14.1791C8.72549 13.9675 8.7258 13.6764 8.7258 13.2337V9.25132ZM10.2258 13.2337C10.2258 13.6528 10.2264 14.0088 10.2063 14.2874C10.187 14.5527 10.1442 14.8706 9.97775 15.1488C9.61138 15.7608 8.91 16.0892 8.20529 15.9789C7.88488 15.9286 7.61278 15.7579 7.3967 15.6029C7.16969 15.4399 6.89641 15.212 6.57443 14.9437C6.43122 14.8244 6.27433 14.6976 6.14963 14.5394C5.98323 14.3283 5.86741 14.0817 5.81174 13.8187C5.77005 13.6217 5.77365 13.4201 5.77365 13.2337V9.25132C5.77365 9.13307 5.77381 9.06693 5.7717 9.01694C5.76987 8.97379 5.767 8.96542 5.76779 8.96909C5.76257 8.94553 5.75413 8.9228 5.7424 8.90171C5.74084 8.89919 5.73337 8.88849 5.7131 8.86362C5.68151 8.82486 5.63821 8.77519 5.55978 8.68686L1.43771 4.04526C1.07294 3.63445 0.764933 3.28787 0.550995 2.99839C0.347976 2.72364 0.127136 2.37032 0.111542 1.94956C0.0914557 1.40458 0.326427 0.881334 0.747284 0.534519C1.07227 0.266806 1.48321 0.196971 1.82346 0.166355C2.18205 0.134119 2.64599 0.135105 3.19553 0.135105H12.8049C13.3545 0.135105 13.8184 0.134095 14.177 0.166355C14.5172 0.196966 14.9272 0.266918 15.2522 0.534519C15.6732 0.88133 15.909 1.40449 15.8889 1.94956C15.8733 2.37032 15.6525 2.72364 15.4494 2.99839C15.2354 3.28798 14.9267 3.63424 14.5617 4.04526L10.4406 8.68686C10.362 8.77542 10.318 8.82481 10.2863 8.86362C10.2591 8.89713 10.2561 8.9051 10.258 8.90171C10.2463 8.92282 10.2379 8.9455 10.2326 8.96909C10.2334 8.96558 10.2306 8.97405 10.2287 9.01694C10.2266 9.06693 10.2258 9.13306 10.2258 9.25132V13.2337Z" fill="white"/>
</g>
<defs>
<clipPath id="clip0_274_1312">
<rect width="16" height="16" fill="white"/>
</clipPath>
</defs>
</svg>
