<svg width="16" height="16" viewBox="0 0 16 16" fill="none" xmlns="http://www.w3.org/2000/svg">
<g clip-path="url(#clip0_274_2204)">
<path d="M5.43701 0.920579C5.40574 0.234333 6.15114 -0.235645 6.76025 0.122727L6.76123 0.121751L7.43115 0.516282L7.62451 0.634446C8.57616 1.24179 9.33909 2.08074 9.89209 3.12175L10.1313 3.59831C10.3015 3.9599 10.442 4.31873 10.5542 4.67253C10.5998 4.59315 10.6569 4.52064 10.7251 4.45866L10.8101 4.39128C10.8979 4.32931 10.9963 4.28311 11.1011 4.25652L11.2065 4.23698C11.3132 4.2234 11.4218 4.22892 11.5269 4.25456C11.6319 4.28026 11.7315 4.32517 11.8198 4.3864L11.9048 4.45378L11.9126 4.46062L12.3823 4.89226C13.0298 5.48509 13.5492 6.20526 13.9058 7.00749L14.0337 7.31804C14.3135 8.04667 14.4544 8.81162 14.4546 9.59441C14.4564 10.4538 14.2836 11.3051 13.9458 12.0954C13.621 12.8566 13.1534 13.5421 12.5601 14.1286L12.561 14.1296C12.0456 14.6423 11.447 15.0626 10.7915 15.3737L10.5073 15.5007C9.71212 15.8323 8.8686 16.0006 8.00049 16.0007C7.13229 16.0007 6.28776 15.8325 5.4917 15.4987V15.4977C4.8189 15.2166 4.20657 14.828 3.66748 14.3434L3.44092 14.1296C2.85189 13.547 2.38125 12.855 2.05518 12.0934H2.0542C1.71591 11.301 1.54541 10.4597 1.54541 9.59441L1.55615 9.22624C1.60603 8.37004 1.82832 7.53105 2.21045 6.76042L2.21143 6.75749C2.64852 5.88584 3.27721 5.12424 4.05029 4.52995C4.28897 4.34518 4.50604 4.1342 4.69775 3.90105C4.97298 3.56579 5.18746 3.19409 5.33643 2.7946L5.40381 2.57195C5.4614 2.33279 5.48884 2.04207 5.47314 1.6989L5.43701 0.921555V0.920579ZM6.97412 2.00359C6.96536 2.39811 6.91362 2.7759 6.80713 3.12566L6.7417 3.31902C6.5342 3.87542 6.23618 4.39129 5.85693 4.8532V4.85417C5.59344 5.17462 5.29449 5.46464 4.96631 5.71843L4.96436 5.71941C4.37167 6.17507 3.88879 6.75841 3.55322 7.42644C3.21908 8.10029 3.04582 8.84324 3.04541 9.59538C3.04552 10.2595 3.17622 10.8994 3.43408 11.5036L3.53271 11.7194C3.77511 12.2175 4.10002 12.6718 4.49463 13.0622C4.9525 13.5144 5.48206 13.869 6.0708 14.1149H6.07178C6.68225 14.3709 7.3293 14.5007 8.00049 14.5007C8.67166 14.5006 9.31894 14.3708 9.93018 14.1159L10.1479 14.0192C10.6501 13.781 11.1086 13.4589 11.5034 13.0661L11.5054 13.0641C11.9611 12.6141 12.3173 12.0892 12.5659 11.5065V11.5055C12.8236 10.9026 12.956 10.253 12.9546 9.59734V9.59636C12.9546 8.90995 12.8142 8.24569 12.5347 7.61784V7.61687C12.301 7.09108 11.9763 6.6117 11.5767 6.19988C11.3985 6.59223 11.142 6.96777 10.8267 7.31902L10.8228 7.32488L10.8169 7.32976C10.6301 7.52989 10.4065 7.58493 10.27 7.59734C10.1079 7.61198 9.86162 7.58149 9.646 7.39421L9.64502 7.39616C9.63985 7.39173 9.6354 7.38604 9.63037 7.38152C9.62764 7.37903 9.6243 7.37721 9.62158 7.37468V7.3737C9.45136 7.21631 9.36331 7.00688 9.35205 6.79948V6.70281C9.40084 5.90896 9.16606 4.94802 8.56885 3.82781L8.56787 3.82683C8.16255 3.06344 7.62689 2.45633 6.97412 2.00359Z" fill="white"/>
</g>
<defs>
<clipPath id="clip0_274_2204">
<rect width="16" height="16" fill="white"/>
</clipPath>
</defs>
</svg>
