<svg width="16" height="16" viewBox="0 0 16 16" fill="none" xmlns="http://www.w3.org/2000/svg">
<g clip-path="url(#clip0_274_2297)">
<path d="M10.0996 7.04901e-06C10.5073 7.04901e-06 10.8588 -0.00103977 11.1465 0.022468C11.4429 0.0467017 11.7378 0.100576 12.0215 0.245124C12.4449 0.460836 12.7892 0.805166 13.0049 1.22852C13.1495 1.5122 13.2024 1.80712 13.2266 2.10352C13.2501 2.39127 13.25 2.74274 13.25 3.1504V3.27344C13.25 3.5176 13.2524 3.72964 13.2149 3.94044C13.1839 4.1143 13.1332 4.28444 13.0625 4.4463C12.9768 4.64259 12.8562 4.81729 12.7207 5.02051L11.5274 6.81153C11.3633 7.05773 11.333 7.1075 11.3125 7.1543C11.2891 7.2081 11.2721 7.2645 11.2618 7.32227C11.2528 7.37254 11.25 7.43074 11.25 7.72657V12.8496C11.25 13.2573 11.2511 13.6087 11.2276 13.8965C11.2033 14.1929 11.1495 14.4878 11.0049 14.7715C10.7892 15.1949 10.4449 15.5392 10.0215 15.7549C9.73781 15.8994 9.44295 15.9533 9.14652 15.9775C8.85877 16.0011 8.50729 16 8.09964 16H7.90043C7.49277 16 7.1413 16.0011 6.85355 15.9775C6.55713 15.9533 6.26226 15.8994 5.97855 15.7549C5.5552 15.5392 5.21086 15.1948 4.99515 14.7715C4.85061 14.4878 4.79672 14.1929 4.77249 13.8965C4.74898 13.6087 4.75003 13.2573 4.75003 12.8496V7.72657C4.75003 7.43075 4.74728 7.37254 4.73831 7.32227C4.72799 7.2645 4.711 7.2081 4.68753 7.1543C4.6671 7.1075 4.63681 7.05771 4.47269 6.81153L3.27933 5.02051C3.14385 4.8173 3.02323 4.64258 2.93753 4.4463C2.86688 4.28445 2.81618 4.11429 2.78519 3.94044C2.74764 3.72964 2.75003 3.5176 2.75003 3.27344V3.1504C2.75003 2.74274 2.74898 2.39127 2.77249 2.10352C2.79672 1.80709 2.8506 1.51223 2.99515 1.22852C3.21086 0.805165 3.55519 0.46084 3.97855 0.245124C4.26225 0.100578 4.55712 0.0467004 4.85355 0.022468C5.1413 -0.00104179 5.49277 6.99624e-06 5.90042 7.04901e-06H10.0996ZM5.72074 5.9795C5.85622 6.18272 5.97683 6.35743 6.06253 6.55372C6.13319 6.71557 6.18389 6.88572 6.21488 7.05958C6.25243 7.27037 6.25003 7.48241 6.25003 7.72657V12.8496C6.25003 13.282 6.25025 13.5619 6.26761 13.7744C6.28426 13.9779 6.31318 14.0538 6.33207 14.0908C6.40391 14.2316 6.5184 14.3461 6.65921 14.418C6.69628 14.4369 6.77209 14.4658 6.97562 14.4824C7.18812 14.4998 7.46803 14.5 7.90043 14.5H8.09964C8.53204 14.5 8.81195 14.4998 9.02445 14.4824C9.22796 14.4658 9.30378 14.4369 9.34086 14.418C9.48168 14.3461 9.59615 14.2316 9.66801 14.0908C9.68689 14.0538 9.71581 13.978 9.73246 13.7744C9.74982 13.5619 9.75004 13.282 9.75004 12.8496V7.72657C9.75004 7.48241 9.74765 7.27037 9.78519 7.05958C9.81618 6.88572 9.86689 6.71557 9.93754 6.55372C10.0232 6.35743 10.1439 6.18271 10.2793 5.9795L11.0987 4.75001H4.9014L5.72074 5.9795ZM8.00004 8.25001C8.41425 8.25001 8.75003 8.5858 8.75004 9.00001V11C8.75004 11.4142 8.41425 11.75 8.00004 11.75C7.58584 11.75 7.25003 11.4142 7.25003 11V9.00001C7.25004 8.58581 7.58584 8.25002 8.00004 8.25001ZM5.90042 1.50001C5.46803 1.50001 5.18812 1.50022 4.97562 1.51758C4.77209 1.53423 4.69628 1.56315 4.65921 1.58204C4.5184 1.65389 4.40391 1.76837 4.33206 1.90919C4.31318 1.94626 4.28426 2.02206 4.26761 2.22559C4.25025 2.43809 4.25003 2.71799 4.25003 3.1504V3.25001H11.75V3.1504C11.75 2.71799 11.7498 2.43809 11.7325 2.22559C11.7158 2.02204 11.6869 1.94625 11.668 1.90919C11.5962 1.76837 11.4817 1.65389 11.3409 1.58204C11.3038 1.56315 11.2279 1.53423 11.0245 1.51758C10.812 1.50023 10.532 1.50001 10.0996 1.50001H5.90042Z" fill="white"/>
</g>
<defs>
<clipPath id="clip0_274_2297">
<rect width="16" height="16" fill="white"/>
</clipPath>
</defs>
</svg>
