<svg width="16" height="16" viewBox="0 0 16 16" fill="none" xmlns="http://www.w3.org/2000/svg">
<path d="M11.2002 13.5V15H4.7998V13.5H11.2002ZM14.5 10.2002V7.75977C14.5 6.8953 14.4986 6.33704 14.4639 5.91211C14.4306 5.50532 14.3747 5.3536 14.3369 5.2793C14.1931 4.99706 13.9629 4.76686 13.6807 4.62305C13.6063 4.58526 13.4546 4.52932 13.0479 4.49609C12.6229 4.4614 12.0647 4.45996 11.2002 4.45996H8.65918C8.3052 4.79594 8.03005 5.0411 7.71484 5.22754C7.38593 5.42207 7.02939 5.56561 6.65723 5.65234C6.2179 5.75471 5.76073 5.75 5.08398 5.75H1.5V10.2002C1.5 11.0647 1.50144 11.6229 1.53613 12.0479C1.56936 12.4546 1.6253 12.6063 1.66309 12.6807C1.8069 12.9629 2.03709 13.1931 2.31934 13.3369C2.39365 13.3747 2.54542 13.4306 2.95215 13.4639C3.37708 13.4986 3.93534 13.5 4.7998 13.5V15C3.11978 15 2.27941 14.9998 1.6377 14.6729C1.14381 14.4211 0.730572 14.0383 0.442383 13.5684L0.327148 13.3623C0.0819019 12.881 0.0202065 12.2877 0.00488282 11.3125L2.78634e-09 10.2002V5C2.78634e-09 4.18617 -0.000148848 3.7284 0.0683594 3.37109L0.102539 3.22363C0.362615 2.25302 1.08927 1.48133 2.03223 1.16016L2.22363 1.10254C2.60513 1.00032 3.07003 1 4 1H5.22461C5.99 1 6.37314 1.00026 6.73145 1.08984C7.04898 1.16925 7.35167 1.29949 7.62695 1.47656C7.93757 1.67638 8.1996 1.95583 8.72363 2.51367L9.14258 2.95996H11.2002C12.8802 2.95996 13.7206 2.96014 14.3623 3.28711C14.9265 3.57468 15.3853 4.03344 15.6729 4.59766C15.9998 5.23936 16 6.07976 16 7.75977V10.2002L15.9951 11.3125C15.9798 12.2878 15.9181 12.881 15.6729 13.3623L15.5576 13.5684C15.2694 14.0383 14.8562 14.4211 14.3623 14.6729L14.2393 14.7305C13.7793 14.9281 13.2066 14.9811 12.3125 14.9951L11.2002 15V13.5C12.0647 13.5 12.6229 13.4986 13.0479 13.4639C13.4546 13.4306 13.6063 13.3747 13.6807 13.3369C13.9629 13.1931 14.1931 12.9629 14.3369 12.6807C14.3747 12.6063 14.4306 12.4546 14.4639 12.0479C14.4986 11.6229 14.5 11.0647 14.5 10.2002ZM4 2.5C2.97346 2.5 2.75399 2.51255 2.61133 2.55078C2.09396 2.68954 1.68954 3.09396 1.55078 3.61133C1.52454 3.70926 1.51127 3.84362 1.50488 4.25H5.08398C5.82959 4.25 6.08406 4.24552 6.31641 4.19141C6.53972 4.13938 6.75381 4.05324 6.95117 3.93652C7.10592 3.84499 7.24772 3.7216 7.54004 3.44727C7.0408 2.91743 6.92813 2.81078 6.81543 2.73828C6.67776 2.64972 6.52599 2.58463 6.36719 2.54492C6.22986 2.51064 6.06404 2.5 5.22461 2.5H4Z" fill="white"/>
</svg>
