<svg width="16" height="16" viewBox="0 0 16 16" fill="none" xmlns="http://www.w3.org/2000/svg">
<g clip-path="url(#clip0_274_1834)">
<path d="M5.22465 1C5.98956 1 6.3724 1.00037 6.73051 1.08984C7.04778 1.16916 7.34994 1.29973 7.62504 1.47656C7.93552 1.67616 8.19784 1.95453 8.72172 2.51172L9.14262 2.95996H11.2002C12.8802 2.95996 13.7206 2.96016 14.3623 3.28711C14.9266 3.57467 15.3853 4.03345 15.6729 4.59766C15.9999 5.23936 16 6.07976 16 7.75977V10.2002L15.9981 10.5352C15.9987 10.6762 16 10.8303 16 11C16 11.93 15.9997 12.3949 15.8975 12.7764C15.8438 12.9769 15.7691 13.1683 15.6778 13.3496C15.6758 13.3536 15.6749 13.3583 15.6729 13.3623L15.6602 13.3848C15.6332 13.4366 15.6041 13.4871 15.5743 13.5371L15.5577 13.5684C15.546 13.5874 15.5326 13.6053 15.5206 13.624C15.5029 13.6515 15.4844 13.6783 15.4659 13.7051C15.4486 13.7301 15.4311 13.7549 15.4131 13.7793C15.3917 13.8083 15.3701 13.837 15.3477 13.8652C15.3264 13.8921 15.3045 13.9183 15.2823 13.9443C15.2606 13.9698 15.2384 13.9948 15.2159 14.0195C15.1954 14.042 15.1745 14.0641 15.1534 14.0859C15.1287 14.1114 15.1037 14.1365 15.0782 14.1611C15.0539 14.1845 15.029 14.207 15.004 14.2295C14.984 14.2474 14.9638 14.2649 14.9434 14.2822C14.9096 14.311 14.876 14.3399 14.8409 14.3672C14.8269 14.3781 14.8121 14.3878 14.7979 14.3984C14.7625 14.425 14.7271 14.4516 14.6905 14.4766C14.663 14.4953 14.6346 14.5124 14.6065 14.5303C14.5791 14.5477 14.5525 14.5665 14.5245 14.583C14.4944 14.6008 14.4634 14.6171 14.4327 14.6338C14.4091 14.6466 14.3863 14.6607 14.3623 14.6729L14.3457 14.6797C14.1656 14.7701 13.9755 14.8441 13.7764 14.8975C13.3949 14.9997 12.93 15 12 15H3.32231L2.96977 14.999C2.87925 14.9977 2.81017 14.9946 2.74711 14.9893C2.37512 14.9578 2.02371 14.857 1.70317 14.7031C1.68134 14.693 1.6591 14.6837 1.63774 14.6729C1.62709 14.6674 1.61706 14.6608 1.60649 14.6553C1.57379 14.6381 1.54177 14.6199 1.50981 14.6016C1.47248 14.5802 1.43574 14.5581 1.39946 14.5352C1.37218 14.5179 1.34508 14.5005 1.3184 14.4824C1.2826 14.4582 1.2476 14.433 1.21293 14.4072C1.18752 14.3883 1.16155 14.3703 1.13676 14.3506C1.09762 14.3196 1.06001 14.2868 1.0225 14.2539C1.00273 14.2365 0.98224 14.22 0.962934 14.2021C0.909843 14.1531 0.859017 14.1016 0.809614 14.0488C0.795909 14.0342 0.782987 14.0188 0.769575 14.0039C0.731288 13.9613 0.69407 13.9178 0.658247 13.873C0.641725 13.8524 0.625401 13.8316 0.609419 13.8105C0.581825 13.7741 0.555285 13.7369 0.529341 13.6992C0.510964 13.6725 0.493155 13.6455 0.47563 13.6182C0.464873 13.6014 0.452858 13.5854 0.442427 13.5684L0.401411 13.4951C0.383745 13.4644 0.366255 13.4337 0.349653 13.4023L0.327192 13.3623C0.319399 13.347 0.313134 13.331 0.305708 13.3154C0.184906 13.0682 0.0952718 12.8025 0.0459423 12.5225L0.010786 12.2529C0.000115951 12.1268 4.38256e-05 11.977 4.38256e-05 11.6777C4.38256e-05 11.5281 -0.00031492 11.4158 0.00102039 11.3252L0.00492664 11.2295L4.38256e-05 10.2002V5C4.38256e-05 4.18617 -0.000103466 3.7284 0.0684032 3.37109L0.102583 3.22363C0.362655 2.25303 1.08933 1.48134 2.03227 1.16016L2.22368 1.10254C2.5098 1.02587 2.84285 1.00674 3.38383 1.00195L4.00004 1H5.22465ZM10.4063 8.5C9.98179 8.5 9.89805 8.50243 9.82524 8.51172C9.67023 8.53153 9.51943 8.57616 9.37797 8.64258C9.31327 8.67297 9.24278 8.7134 8.90825 8.92578L8.90336 8.92969L8.8809 8.94336C8.5846 9.13163 8.32851 9.29783 8.04985 9.42871C7.62534 9.62805 7.17228 9.75994 6.70708 9.81934C6.40178 9.85829 6.09706 9.85547 5.74614 9.85547H3.32231C2.99351 9.85547 2.92126 9.85639 2.87407 9.86035C2.14546 9.92199 1.56654 10.5009 1.50493 11.2295C1.50935 11.5575 1.5177 11.8216 1.53618 12.0479C1.56717 12.4272 1.61894 12.5843 1.65629 12.6641C1.66737 12.6864 1.67834 12.7088 1.69047 12.7305C1.71827 12.7803 1.74918 12.828 1.78227 12.874C1.82989 12.9403 1.88196 13.003 1.9395 13.0605C1.97192 13.093 2.00578 13.124 2.04106 13.1533C2.10243 13.2044 2.16826 13.2501 2.23735 13.291C2.24763 13.2971 2.25816 13.3028 2.2686 13.3086C2.29031 13.3208 2.31264 13.3317 2.335 13.3428C2.4144 13.3802 2.57095 13.4327 2.95219 13.4639C3.37711 13.4986 3.93541 13.5 4.79985 13.5H11.2002C12.0647 13.5 12.623 13.4986 13.0479 13.4639C13.3808 13.4367 13.5423 13.3926 13.6309 13.3574C13.6657 13.3413 13.7002 13.3253 13.7334 13.3066C13.9736 13.1717 14.1718 12.9735 14.3067 12.7334C14.3258 12.6994 14.343 12.6645 14.3594 12.6289C14.3945 12.5398 14.4369 12.3779 14.4639 12.0479C14.4929 11.6926 14.497 11.2442 14.4981 10.6016C14.4947 9.91133 14.4819 9.73327 14.4493 9.61133C14.3105 9.09396 13.9061 8.68953 13.3887 8.55078C13.246 8.51256 13.0265 8.5 12 8.5H10.4063ZM4.00004 2.5C2.97354 2.5 2.75404 2.51255 2.61137 2.55078C2.09402 2.68955 1.68958 3.09397 1.55083 3.61133C1.5126 3.754 1.50004 3.97348 1.50004 5V8.75879C1.79738 8.58685 2.12649 8.46322 2.47758 8.40137L2.74711 8.36621C2.81017 8.36088 2.87925 8.35778 2.96977 8.35645L3.32231 8.35547H5.74614L6.2061 8.35254C6.32654 8.34952 6.42221 8.3431 6.51665 8.33105C6.74922 8.30137 6.97747 8.2447 7.19633 8.16211L7.41215 8.07129C7.4985 8.03073 7.58303 7.98409 7.68657 7.92188L8.46586 7.43359C8.5177 7.40244 8.5646 7.37504 8.60942 7.35059L8.74028 7.28418C8.95245 7.18457 9.17539 7.11013 9.40434 7.0625L9.63579 7.02441C9.82479 7.00031 10.0187 7 10.4063 7H12C12.93 7 13.3949 7.00033 13.7764 7.10254C14.0322 7.17109 14.2746 7.27158 14.4981 7.40039C14.4972 6.73523 14.4935 6.27504 14.4639 5.91211C14.4307 5.50533 14.3747 5.3536 14.337 5.2793C14.1931 4.99706 13.9629 4.76685 13.6807 4.62305C13.6064 4.58526 13.4545 4.52932 13.0479 4.49609C12.623 4.46141 12.0647 4.45996 11.2002 4.45996H8.49418L8.04985 3.9873L7.62895 3.53906C7.05452 2.92812 6.93344 2.81481 6.8145 2.73828C6.67689 2.64982 6.52497 2.58458 6.36625 2.54492C6.22899 2.51067 6.06366 2.5 5.22465 2.5H4.00004Z" fill="white"/>
</g>
<defs>
<clipPath id="clip0_274_1834">
<rect width="16" height="16" fill="white"/>
</clipPath>
</defs>
</svg>
