<svg width="16" height="16" viewBox="0 0 16 16" fill="none" xmlns="http://www.w3.org/2000/svg">
<g clip-path="url(#clip0_274_1681)">
<path d="M1.50098 4.34961C1.50104 2.87399 2.62245 1.66042 4.05957 1.51465L4.35059 1.5H7.15039C8.72419 1.50012 9.99993 2.77585 10 4.34961C10 5.9234 8.72426 7.1991 7.15039 7.19922H4.71582C4.51128 7.19922 4.3153 7.28294 4.17383 7.43066L3.74219 7.88086V7.68359C3.74219 7.37877 3.55764 7.10438 3.27539 6.98926C2.23311 6.56412 1.50098 5.54157 1.50098 4.34961ZM0.000976562 4.34961C0.000976562 5.9873 0.907523 7.40858 2.24219 8.15039V9.74902C2.24219 10.0553 2.42866 10.3312 2.71289 10.4453C2.99706 10.5593 3.3224 10.4887 3.53418 10.2676L5.03613 8.69922H7.15039C9.55256 8.69908 11.5 6.75192 11.5 4.34961C11.4999 1.9474 9.55254 0.000140828 7.15039 0H4.35059L4.12695 0.00585938C1.8286 0.122273 0.00105836 2.02238 0.000976562 4.34961Z" fill="white"/>
<path d="M13.0869 5.74316C14.7833 6.33681 16 7.95189 16 9.85059L15.9873 10.1895C15.8721 11.6832 15.0002 12.9604 13.7588 13.6504V15.25C13.7588 15.5563 13.5723 15.8321 13.2881 15.9463C13.004 16.0602 12.6786 15.9896 12.4668 15.7686L10.9639 14.2002H8.84961C7.07783 14.2001 5.55498 13.14 4.87695 11.6201L6.04785 10.4492H6.06543C6.34074 11.7353 7.48144 12.7001 8.84961 12.7002H11.2842C11.4886 12.7002 11.6847 12.784 11.8262 12.9316L12.2588 13.3828V13.1836C12.2588 12.8788 12.4434 12.6044 12.7256 12.4893C13.7678 12.064 14.4999 11.042 14.5 9.85059C14.5 8.59737 13.6903 7.5353 12.5664 7.15332C12.7954 6.71196 12.9709 6.23937 13.0869 5.74316Z" fill="white"/>
</g>
<defs>
<clipPath id="clip0_274_1681">
<rect width="16" height="16" fill="white"/>
</clipPath>
</defs>
</svg>
