<svg width="16" height="16" viewBox="0 0 16 16" fill="none" xmlns="http://www.w3.org/2000/svg">
<g clip-path="url(#clip0_274_2257)">
<path d="M14.3838 8.29678C14.3838 7.55799 14.2541 6.85049 14.0176 6.19424C13.5138 6.68586 12.9813 6.99271 12.4268 7.08975C11.8464 7.19118 11.3237 7.04977 10.9004 6.79092C10.1013 6.30214 9.62065 5.38274 9.50295 4.67666C9.45108 4.36543 9.52622 4.06807 9.61233 3.8417C9.70319 3.60286 9.83721 3.36233 9.98831 3.13369C10.1209 2.93311 10.2775 2.7288 10.4483 2.52432C9.74642 2.24845 8.9828 2.09469 8.18166 2.09463C6.7832 2.09463 5.49414 2.55597 4.45706 3.33584C3.57988 3.99552 2.88342 4.88226 2.4551 5.90713C2.14821 6.64153 1.97858 7.4485 1.97854 8.29678C1.97854 11.7225 4.75594 14.4999 8.18166 14.4999C11.6072 14.4996 14.3838 11.7223 14.3838 8.29678ZM13.9668 1.57217C13.8716 1.6097 13.7596 1.6629 13.6319 1.73428C13.1928 1.97967 12.6795 2.37797 12.209 2.83193C11.8094 3.21744 11.4669 3.61795 11.2403 3.96084C11.1266 4.13279 11.0536 4.27254 11.0147 4.3749C10.9985 4.41743 10.9924 4.4454 10.9893 4.45986C11.0598 4.82029 11.3342 5.29696 11.6836 5.51064C11.8394 5.60592 11.9955 5.64256 12.169 5.61221C12.3514 5.58022 12.63 5.46007 12.9912 5.10147C12.9949 5.09625 13.0017 5.08677 13.0108 5.07217C13.034 5.03478 13.0642 4.97939 13.1006 4.9042C13.1736 4.75357 13.2567 4.55229 13.3428 4.3124C13.5738 3.66876 13.7971 2.83399 13.9053 2.14736C13.9408 1.92219 13.9598 1.72867 13.9668 1.57217ZM1.64846 2.0126C1.58924 2.46861 1.61723 2.96138 1.71096 3.44717C1.74412 3.61894 1.78517 3.78325 1.82913 3.93838C2.11057 3.52893 2.43003 3.14759 2.78323 2.80068L1.64846 2.0126ZM15.8838 8.29678C15.8838 12.5508 12.4356 15.9996 8.18166 15.9999C3.92752 15.9999 0.47854 12.5509 0.47854 8.29678C0.478575 7.38572 0.63636 6.51004 0.927758 5.69717C0.650569 5.19833 0.384963 4.49117 0.238305 3.73135C0.0488719 2.74961 0.0276884 1.5367 0.558618 0.474512L0.598657 0.403223C0.700611 0.244866 0.859573 0.130032 1.04397 0.0829106C1.25474 0.0290783 1.47854 0.0692151 1.65725 0.193262L4.00588 1.82315C5.20903 1.04577 6.6437 0.594629 8.18166 0.594629C9.39765 0.594704 10.5493 0.876816 11.5733 1.37979C12.0007 1.00803 12.4595 0.670647 12.8994 0.424708C13.1898 0.262433 13.5009 0.124102 13.8086 0.0526372C14.0688 -0.00778334 14.3984 -0.0364203 14.7217 0.0799809L14.8594 0.138575L14.9629 0.199122C15.1875 0.349052 15.3022 0.564044 15.3604 0.718653C15.4286 0.900239 15.4556 1.0915 15.4658 1.25772C15.4865 1.59372 15.4493 1.98988 15.3877 2.38076C15.2821 3.05135 15.0827 3.81749 14.8682 4.47451C15.5137 5.60153 15.8838 6.90665 15.8838 8.29678Z" fill="white"/>
</g>
<defs>
<clipPath id="clip0_274_2257">
<rect width="16" height="16" fill="white"/>
</clipPath>
</defs>
</svg>
