<svg width="16" height="16" viewBox="0 0 16 16" fill="none" xmlns="http://www.w3.org/2000/svg">
<g clip-path="url(#clip0_274_2090)">
<path d="M14.5 8C14.5 4.41015 11.5899 1.5 8 1.5C4.41015 1.5 1.5 4.41015 1.5 8C1.5 11.5899 4.41015 14.5 8 14.5C11.5899 14.5 14.5 11.5899 14.5 8ZM16 8C16 12.4183 12.4183 16 8 16C3.58172 16 0 12.4183 0 8C1.28855e-07 3.58172 3.58172 1.28851e-07 8 0C12.4183 0 16 3.58172 16 8Z" fill="white"/>
<path d="M10.307 11.1182C10.3042 11.1148 10.2995 11.1088 10.2923 11.1006C10.2748 11.0806 10.2445 11.0472 10.2015 11.0049C10.1149 10.9198 9.97867 10.8008 9.79624 10.6807C9.43388 10.4421 8.89013 10.2003 8.15952 10.2002C7.42008 10.2002 6.7817 10.4471 6.31675 10.708C6.08618 10.8374 5.90542 10.9672 5.78452 11.0616C5.72439 11.1085 5.67934 11.1457 5.65171 11.17C5.63799 11.182 5.62848 11.1906 5.62339 11.1953L5.62143 11.1963C5.32411 11.4845 4.85018 11.4778 4.56186 11.1807C4.27367 10.8834 4.28036 10.4085 4.57749 10.1201L5.26987 10.834C5.22047 10.783 5.1642 10.7245 5.09995 10.6582L4.57846 10.1192L4.57944 10.1182C4.58011 10.1176 4.58155 10.117 4.58237 10.1162C4.58398 10.1147 4.58603 10.1125 4.58823 10.1104C4.59264 10.1062 4.59815 10.1009 4.60483 10.0948C4.61891 10.0817 4.63863 10.0639 4.66245 10.043C4.71003 10.0012 4.77681 9.94417 4.86167 9.87796C5.03108 9.74579 5.27499 9.57297 5.58237 9.40042C6.19384 9.05722 7.08648 8.70023 8.15952 8.70023C9.24051 8.70033 10.0666 9.06243 10.6214 9.42776C10.8977 9.60969 11.1082 9.79314 11.2523 9.9346C11.3245 10.0055 11.381 10.0663 11.4212 10.1123C11.4413 10.1352 11.4568 10.155 11.4691 10.17C11.4752 10.1775 11.4805 10.1842 11.4847 10.1895C11.4868 10.1921 11.489 10.1943 11.4906 10.1963C11.4913 10.1973 11.4919 10.1984 11.4925 10.1992L11.4945 10.2012C11.7468 10.5296 11.6852 11.0006 11.3568 11.253C11.0284 11.5052 10.5575 11.4444 10.305 11.1162H10.306L10.307 11.1172V11.1182Z" fill="white"/>
<path d="M5.83105 5.07523L5.90723 5.07913C6.28565 5.11732 6.58105 5.43674 6.58105 5.82523C6.58105 6.21371 6.28565 6.53313 5.90723 6.57132L5.83105 6.57523H5.8252C5.41098 6.57523 5.0752 6.23944 5.0752 5.82523C5.0752 5.41101 5.41098 5.07523 5.8252 5.07523H5.83105Z" fill="white"/>
<path d="M10.1812 5.07523L10.2573 5.07913C10.6357 5.11732 10.9312 5.43674 10.9312 5.82523C10.9312 6.21371 10.6357 6.53313 10.2573 6.57132L10.1812 6.57523H10.1753C9.76108 6.57523 9.42529 6.23944 9.42529 5.82523C9.42529 5.41101 9.76108 5.07523 10.1753 5.07523H10.1812Z" fill="white"/>
</g>
<defs>
<clipPath id="clip0_274_2090">
<rect width="16" height="16" fill="white"/>
</clipPath>
</defs>
</svg>
