<svg width="16" height="16" viewBox="0 0 16 16" fill="none" xmlns="http://www.w3.org/2000/svg">
<g clip-path="url(#clip0_274_1393)">
<path d="M14.7881 9.23713C14.7881 9.01618 14.7604 8.79605 14.7061 8.58186L14.4522 7.57893C14.3583 7.20855 14.1992 6.85717 13.9835 6.54182L12.7139 4.68635C12.6091 4.53332 12.4622 4.41334 12.2911 4.34163C12.1999 4.30346 12.1033 4.28017 12.0049 4.27131L7.51861 3.86897C6.92412 3.81572 6.32639 3.92722 5.79108 4.19124L2.73834 5.69709C2.67262 5.72951 2.6118 5.77161 2.55963 5.82307L2.13873 6.23811L4.05768 5.48127L4.06451 5.47834L4.07233 5.47541L5.98932 4.76643C6.21622 4.6825 6.45637 4.63953 6.6983 4.63948C7.01176 4.63948 7.32144 4.71183 7.6026 4.85041L8.72272 5.40315C9.03593 5.55763 9.27493 5.83013 9.38678 6.16096L9.4151 6.24592C9.75133 5.97408 10.1371 5.76248 10.5557 5.62483L11.0352 5.46663L11.1085 5.44612C11.4798 5.36424 11.8602 5.57612 11.9815 5.94514C12.1108 6.33859 11.8964 6.76207 11.503 6.89143L11.0235 7.04963C10.4943 7.22372 10.0556 7.60059 9.80377 8.09749C9.34866 8.99514 8.4274 9.56038 7.42096 9.56038H3.21295C3.04573 9.56038 2.88196 9.6101 2.74225 9.70198L2.12799 10.1063C2.11404 10.1154 2.10872 10.1334 2.11627 10.1483C2.12186 10.1592 2.13329 10.1658 2.14557 10.1658H3.84283C4.23671 10.1659 4.62876 10.2201 5.00787 10.327L8.27154 11.2469L8.28619 11.2508L8.30182 11.2567L10.5079 11.9813C11.0382 12.1556 11.6048 12.1909 12.1524 12.0828L12.4171 12.0301C13.1227 11.8909 13.7532 11.4981 14.1885 10.9256L14.2432 10.8533C14.5965 10.3888 14.7881 9.82075 14.7881 9.23713ZM16.2881 9.23713C16.2881 10.1485 15.9891 11.035 15.4376 11.7606L15.3819 11.8338C14.7245 12.6983 13.7726 13.2916 12.7071 13.5018L12.4424 13.5545C11.642 13.7124 10.8141 13.6609 10.0391 13.4061L7.83307 12.6815L4.60065 11.7713C4.35399 11.7018 4.09909 11.6659 3.84283 11.6658H2.14557C1.56807 11.6658 1.03949 11.3411 0.77838 10.826C0.425939 10.1304 0.652196 9.28084 1.30377 8.85237L1.91803 8.44807C2.30248 8.19526 2.75282 8.06038 3.21295 8.06038H7.42096C7.7667 8.06038 8.08717 7.90641 8.3067 7.6512L7.98932 6.7137L6.93951 6.19612C6.86461 6.15918 6.78181 6.13948 6.6983 6.13948C6.63399 6.13953 6.57015 6.15134 6.50983 6.17366L4.60846 6.87678L2.20514 7.82502C1.83948 7.96921 1.42973 7.95201 1.07721 7.77815C0.217775 7.35409 0.0325845 6.209 0.714903 5.53596L1.5069 4.75569C1.67328 4.59156 1.86469 4.45479 2.07428 4.35139L5.12799 2.84553C5.91045 2.45969 6.78444 2.29691 7.65338 2.37483L12.1387 2.77717C12.3908 2.79978 12.6378 2.86098 12.8712 2.95881C13.3088 3.14228 13.6842 3.44804 13.9522 3.83967L15.2217 5.69514C15.5371 6.15604 15.7681 6.66944 15.9053 7.21077L16.1602 8.21272C16.2451 8.54748 16.2881 8.89179 16.2881 9.23713Z" fill="white"/>
</g>
<defs>
<clipPath id="clip0_274_1393">
<rect width="16" height="16" fill="white"/>
</clipPath>
</defs>
</svg>
