<svg width="16" height="16" viewBox="0 0 16 16" fill="none" xmlns="http://www.w3.org/2000/svg">
<rect x="0.75" y="2.75" width="14.5" height="10.5" rx="2.25" stroke="white" stroke-width="1.5"/>
<path d="M5.5569 7.4545C5.62652 7.4545 5.74204 7.45212 5.8626 7.46586L5.98319 7.48575L6.1199 7.5241C6.38455 7.61624 6.59481 7.79281 6.70499 8.01414L6.7517 8.12848L6.77548 8.22933C6.79187 8.33008 6.78906 8.42682 6.78906 8.48501C6.78907 8.67526 6.79469 8.87747 6.73726 9.05672C6.59656 9.49578 6.18628 9.8388 5.66135 9.95655C5.44693 10.0046 5.20447 9.99987 4.9769 9.99987H4.67204C4.44823 9.99833 4.22174 9.98747 4.01902 9.92814C3.58209 9.80021 3.23873 9.51305 3.08577 9.14763C3.01483 8.97808 3.00185 8.78866 3 8.60148V7.70875C3 7.51421 2.99992 7.33531 3.01444 7.18675C3.02959 7.03182 3.0636 6.86198 3.16559 6.69458C3.31146 6.45524 3.54432 6.26048 3.8305 6.13849C4.03067 6.05319 4.23373 6.02475 4.41899 6.01207C4.59662 5.99994 4.81053 6 5.04314 6H5.30808C5.66827 6 5.96026 6.2442 5.96026 6.54544C5.96026 6.84667 5.66827 7.09087 5.30808 7.09087H5.04314C4.78908 7.09087 4.63737 7.09102 4.52514 7.09869C4.42073 7.10584 4.40899 7.11683 4.42323 7.11076C4.38233 7.12819 4.34897 7.15609 4.32812 7.1903C4.33538 7.17839 4.32224 7.18821 4.31369 7.27553C4.30452 7.36939 4.30435 7.49627 4.30435 7.70875V8.41541C4.30435 8.56665 4.30474 8.6569 4.30944 8.72434C4.31386 8.78737 4.32007 8.79682 4.31624 8.78755C4.3381 8.83961 4.38731 8.88077 4.44956 8.89905C4.43848 8.89585 4.44977 8.90105 4.52514 8.90474C4.60578 8.90867 4.71369 8.909 4.89453 8.909H4.9769C5.11759 8.909 5.20187 8.90856 5.26478 8.90616C5.29946 8.90483 5.31683 8.9034 5.32337 8.90261C5.39835 8.88578 5.45698 8.83678 5.47707 8.77406C5.47457 8.78188 5.47861 8.77474 5.48132 8.72505C5.48365 8.68218 5.48375 8.62773 5.48387 8.54537H5.30808C4.94808 8.54519 4.65591 8.30106 4.65591 7.99994C4.65591 7.69881 4.94808 7.45468 5.30808 7.4545H5.5569ZM7.55503 9.45443V6.54544C7.55503 6.2442 7.84702 6 8.2072 6C8.56731 6.00007 8.85937 6.24425 8.85937 6.54544V9.45443C8.85937 9.75563 8.56731 9.9998 8.2072 9.99987C7.84702 9.99987 7.55503 9.75567 7.55503 9.45443ZM10.0397 9.45443V7.70875C10.0397 7.51421 10.0388 7.33531 10.0533 7.18675C10.0685 7.03181 10.1033 6.862 10.2053 6.69458C10.3512 6.45525 10.584 6.26046 10.8702 6.13849C11.0705 6.05319 11.2734 6.02473 11.4587 6.01207C11.6364 5.99994 11.8502 6 12.0829 6H12.3478C12.708 6 13 6.2442 13 6.54544C13 6.84667 12.708 7.09087 12.3478 7.09087H12.0829C11.8287 7.09087 11.6772 7.09102 11.5649 7.09869C11.4608 7.1058 11.4482 7.11662 11.4621 7.11076C11.4213 7.1282 11.3878 7.15616 11.367 7.1903C11.3743 7.17839 11.362 7.18824 11.3534 7.27553C11.3487 7.32395 11.3462 7.38136 11.3449 7.4545H12.3478C12.708 7.4545 13 7.6987 13 7.99994C13 8.30117 12.708 8.54537 12.3478 8.54537H11.3441V9.45443C11.3441 9.75556 11.0519 9.99969 10.6919 9.99987C10.3317 9.99987 10.0397 9.75567 10.0397 9.45443Z" fill="white"/>
</svg>
