<svg width="16" height="16" viewBox="0 0 16 16" fill="none" xmlns="http://www.w3.org/2000/svg">
<g clip-path="url(#clip0_274_2412)">
<path d="M9.80518 0.322175C10.3327 -0.107386 11.099 -0.107391 11.6265 0.322175L11.7358 0.420809L12.7651 1.45011C12.971 1.65604 13.101 1.90885 13.1558 2.17375H13.438C14.1301 2.17375 14.7228 2.39155 15.1284 2.85637C15.5176 3.30263 15.6382 3.86761 15.6382 4.37396V5.09857C15.6381 5.60485 15.5176 6.16998 15.1284 6.61616C14.9596 6.80957 14.757 6.95738 14.5298 7.06733V12.3496C14.5298 13.4786 14.3506 14.4699 13.6753 15.1455C12.9998 15.821 12.0083 15.9999 10.8794 16H5.07861C3.94956 16 2.95831 15.8209 2.28271 15.1455C1.60713 14.4699 1.42823 13.4787 1.42822 12.3496V7.05659C1.20844 6.94702 1.01298 6.80051 0.850098 6.60932C0.463864 6.15582 0.361858 5.58658 0.361816 5.09857V4.37396C0.361816 3.88593 0.463882 3.31677 0.850098 2.86321C1.25603 2.38675 1.85705 2.17375 2.56201 2.17375H2.8374C2.8922 1.90876 3.0221 1.65604 3.22803 1.45011L4.25732 0.420809C4.78341 -0.10526 5.62278 -0.138102 6.18799 0.322175L6.29736 0.420809L7.99658 2.12004L9.69678 0.420809L9.80518 0.322175ZM2.92822 12.3496C2.92823 13.3956 3.11251 13.8542 3.34326 14.0849C3.5741 14.3156 4.03287 14.5 5.07861 14.5H10.8794C11.9251 14.4999 12.384 14.3157 12.6147 14.0849C12.8453 13.8541 13.0298 13.3951 13.0298 12.3496V7.29878H10.9038V10.2685C10.9038 11.4514 9.58742 12.1429 8.61377 11.4941L8.61084 11.4922L7.98486 11.0713L7.31885 11.5107L7.31104 11.5156C6.33604 12.1413 5.03174 11.4604 5.03174 10.2754V7.29878H2.92822V12.3496ZM6.53174 10.2324L7.17432 9.80953L7.18018 9.80563C7.64005 9.50841 8.22742 9.48316 8.70654 9.75289L8.80127 9.81149L8.8042 9.81344L9.40381 10.2168V7.29878H6.53174V10.2324ZM2.56201 3.67376C2.15778 3.67376 2.03353 3.78677 1.9917 3.83587C1.93033 3.90804 1.86182 4.0647 1.86182 4.37396V5.09857C1.86186 5.40756 1.93036 5.56449 1.9917 5.63666C2.03365 5.68584 2.15817 5.79877 2.56201 5.79877H13.438C13.8113 5.79877 13.9444 5.69066 13.9976 5.62982C14.0668 5.55044 14.1381 5.38957 14.1382 5.09857V4.37396C14.1382 4.08298 14.0668 3.92217 13.9976 3.8427C13.9444 3.78186 13.8112 3.67376 13.438 3.67376H2.56201ZM4.62549 2.17375H5.9292L5.27686 1.5214L4.62549 2.17375ZM10.0649 2.17375H11.3677L10.7163 1.52238L10.0649 2.17375Z" fill="white"/>
</g>
<defs>
<clipPath id="clip0_274_2412">
<rect width="16" height="16" fill="white"/>
</clipPath>
</defs>
</svg>
