<svg width="16" height="16" viewBox="0 0 16 16" fill="none" xmlns="http://www.w3.org/2000/svg">
<path d="M14.4993 8.89712C14.4993 7.57228 14.3644 6.75991 14.177 6.19009C13.9928 5.62996 13.7451 5.26104 13.4261 4.80533C13.11 4.35388 12.6651 3.75992 12.2942 3.2731C12.2822 3.25733 12.2699 3.24174 12.2581 3.22622L11.2962 4.60904C11.156 4.81033 10.9263 4.93029 10.6809 4.93033H5.35087C5.10815 4.93033 4.88024 4.81267 4.73954 4.6149L3.73466 3.20181C3.71453 3.22749 3.69372 3.25353 3.67313 3.27993C3.29389 3.76628 2.86214 4.34413 2.59403 4.7731C2.29632 5.24943 2.05299 5.61886 1.86454 6.19009C1.67549 6.76336 1.53153 7.57765 1.53153 8.89712C1.53152 8.91718 1.53119 8.93767 1.52958 8.95767C1.45223 9.91634 1.5327 10.6394 1.69755 11.1881C1.77318 10.5952 1.99989 9.96114 2.45536 9.31997C2.97654 8.58649 3.87672 8.12048 4.81571 7.83365C5.77761 7.53984 6.89653 7.39763 7.99833 7.39615C9.10586 7.39466 10.2321 7.53514 11.2005 7.82876C12.1456 8.11541 13.0527 8.58274 13.5765 9.31997C14.0002 9.91648 14.1987 10.5107 14.26 11.068C14.4174 10.4908 14.4993 9.77528 14.4993 8.89712ZM8.00028 8.89615C7.01371 8.89747 6.04573 9.02612 5.25321 9.26822C4.43806 9.51728 3.91628 9.85371 3.67801 10.1891C2.82084 11.3959 3.23037 12.5227 3.60868 13.0495C4.26284 13.2434 5.00236 13.2916 5.73075 13.2917H10.6809C11.3183 13.2916 11.8428 13.2265 12.2747 13.111C12.6581 12.3714 13.1544 11.3164 12.3538 10.1891C12.1142 9.85176 11.5877 9.51359 10.7659 9.26431C9.96713 9.02206 8.99205 8.89481 8.00028 8.89615ZM15.9993 8.89712C15.9993 10.2412 15.8325 11.4226 15.3743 12.3756C14.9001 13.3616 14.1338 14.0598 13.0491 14.442C12.3657 14.6829 11.5755 14.7916 10.6809 14.7917H5.73075C4.88934 14.7916 3.86545 14.7376 2.91825 14.404C2.05646 14.1004 1.23788 13.558 0.685827 12.6149C0.144903 11.6906 -0.0907365 10.4639 0.0325072 8.87368C0.0341733 7.4616 0.187472 6.48531 0.439734 5.72036C0.693882 4.94987 1.03853 4.43103 1.32157 3.97818C1.63436 3.47772 2.10878 2.84662 2.49051 2.35708C2.68407 2.10887 2.85905 1.8905 2.98563 1.73404C3.04888 1.65586 3.10033 1.59303 3.13602 1.54947C3.1538 1.52777 3.16747 1.5103 3.17704 1.49868C3.18182 1.49288 3.18621 1.48809 3.18876 1.48501C3.18988 1.48366 3.19105 1.48285 3.19169 1.48208V1.48111C3.34022 1.30175 3.56445 1.20123 3.79716 1.20962C4.03003 1.21817 4.24605 1.33419 4.38114 1.52408L5.73759 3.43033H10.2893L11.6126 1.52993L11.6682 1.4606C11.8049 1.30683 12 1.21435 12.2083 1.20865C12.4461 1.20225 12.6731 1.30923 12.8196 1.49673V1.49771H12.8206C12.8212 1.49848 12.8224 1.50014 12.8235 1.50161C12.8258 1.50454 12.829 1.50884 12.8333 1.51431C12.8421 1.52564 12.8547 1.54265 12.8714 1.56411C12.9048 1.60703 12.953 1.66926 13.013 1.74673C13.1329 1.90177 13.3003 2.11814 13.4876 2.36392C13.8601 2.85288 14.321 3.46707 14.6556 3.94497C14.9872 4.41875 15.3446 4.93908 15.6018 5.72134C15.8559 6.49389 15.9993 7.47813 15.9993 8.89712Z" fill="white"/>
<path d="M2.85638 11.2387C2.85638 11.7121 2.47262 12.0958 1.99923 12.0958C1.52585 12.0958 1.14209 11.7121 1.14209 11.2387C1.14209 10.7653 1.52585 10.3816 1.99923 10.3816C2.47262 10.3816 2.85638 10.7653 2.85638 11.2387Z" fill="white"/>
<path d="M10.8564 11.2387C10.8564 11.7121 10.4726 12.0958 9.99923 12.0958C9.52585 12.0958 9.14209 11.7121 9.14209 11.2387C9.14209 10.7653 9.52585 10.3816 9.99923 10.3816C10.4726 10.3816 10.8564 10.7653 10.8564 11.2387Z" fill="white"/>
</svg>
