<svg width="16" height="16" viewBox="0 0 16 16" fill="none" xmlns="http://www.w3.org/2000/svg">
<g clip-path="url(#clip0_274_1909)">
<path d="M8 0C12.4183 0 16 3.58172 16 8C16 12.4183 12.4183 16 8 16C3.58172 16 0 12.4183 0 8C1.28856e-07 3.58173 3.58172 1.04369e-05 8 0ZM1.54395 8.75C1.85014 11.4146 3.76705 13.5872 6.29688 14.2725C5.2133 12.6244 4.55505 10.7274 4.39062 8.75H1.54395ZM11.6084 8.75C11.4441 10.7274 10.7855 12.6243 9.70215 14.2725C12.2324 13.5875 14.1498 11.4149 14.4561 8.75H11.6084ZM5.89453 8.75C6.07963 10.6906 6.80965 12.539 7.99902 14.082C9.18859 12.5389 9.91748 10.6907 10.1025 8.75H5.89453ZM9.70215 1.72656C10.7858 3.37488 11.444 5.27231 11.6084 7.25H14.4561C14.1498 4.58498 12.2325 2.41147 9.70215 1.72656ZM7.99902 1.91699C6.80937 3.46016 6.07957 5.30908 5.89453 7.25H10.1025C9.91754 5.30902 9.18887 3.46023 7.99902 1.91699ZM6.29688 1.72656C3.76693 2.41175 1.85015 4.58531 1.54395 7.25H4.39062C4.55508 5.27235 5.21304 3.37483 6.29688 1.72656Z" fill="white"/>
</g>
<defs>
<clipPath id="clip0_274_1909">
<rect width="16" height="16" fill="white"/>
</clipPath>
</defs>
</svg>
