<svg width="16" height="16" viewBox="0 0 16 16" fill="none" xmlns="http://www.w3.org/2000/svg">
<g clip-path="url(#clip0_274_2263)">
<path d="M4.93846 0.609369C6.73154 -0.13335 8.73345 -0.199024 10.5713 0.424799C11.2562 0.657289 11.9016 0.978976 12.4912 1.3789C12.8338 1.61143 12.9228 2.07815 12.6904 2.42089C12.4579 2.76368 11.9912 2.8536 11.6484 2.62109C11.1695 2.29623 10.6462 2.03362 10.0898 1.84472C8.59656 1.33783 6.96959 1.39164 5.51268 1.99511C4.05577 2.59859 2.86737 3.71067 2.16991 5.12499C1.47247 6.5393 1.31353 8.15942 1.72166 9.68261C2.12984 11.2056 3.07767 12.5282 4.38866 13.4043C5.69984 14.2804 7.28516 14.6502 8.84862 14.4443C10.4118 14.2385 11.847 13.4715 12.8867 12.2861C13.7604 11.2898 14.3035 10.0546 14.4551 8.74999H7.99998C7.58577 8.74999 7.24998 8.41421 7.24998 7.99999C7.24998 7.58578 7.58577 7.24999 7.99998 7.24999H15.25C15.4489 7.24999 15.6396 7.32907 15.7803 7.46972C15.9209 7.61037 16 7.80108 16 7.99999C16 9.94079 15.2942 11.8152 14.0146 13.2744C12.7349 14.7336 10.9682 15.6783 9.04393 15.9316C7.11976 16.1849 5.16934 15.7296 3.55565 14.6514C1.94189 13.5731 0.774776 11.945 0.272445 10.0703C-0.229792 8.19569 -0.0331565 6.20251 0.82518 4.46191C1.68357 2.72126 3.14543 1.35212 4.93846 0.609369Z" fill="white"/>
</g>
<defs>
<clipPath id="clip0_274_2263">
<rect width="16" height="16" fill="white"/>
</clipPath>
</defs>
</svg>
