<svg width="16" height="16" viewBox="0 0 16 16" fill="none" xmlns="http://www.w3.org/2000/svg">
<g clip-path="url(#clip0_274_1673)">
<path d="M11.625 0C12.0392 0 12.375 0.335791 12.375 0.75V3.625H15.25C15.6642 3.625 16 3.96079 16 4.375C16 4.78921 15.6642 5.125 15.25 5.125H12.375V10.875H15.25C15.6642 10.875 16 11.2108 16 11.625C16 12.0392 15.6642 12.375 15.25 12.375H12.375V15.25C12.375 15.6642 12.0392 16 11.625 16C11.2109 15.9998 10.875 15.6641 10.875 15.25V12.375H5.125V15.25C5.125 15.6642 4.78921 16 4.375 16C3.96084 15.9999 3.625 15.6642 3.625 15.25V12.375H0.75C0.335786 12.375 0 12.0392 0 11.625C2.57701e-06 11.2108 0.335788 10.875 0.75 10.875H3.625V5.125H0.75C0.335786 5.125 0 4.78921 0 4.375C4.6386e-06 3.96079 0.335789 3.625 0.75 3.625H3.625V0.75C3.625 0.335829 3.96084 6.59633e-05 4.375 0C4.78921 0 5.125 0.335789 5.125 0.75V3.625H10.875V0.75C10.875 0.3359 11.2109 0.000176467 11.625 0ZM5.125 5.125V10.875H10.875V5.125H5.125Z" fill="white"/>
</g>
<defs>
<clipPath id="clip0_274_1673">
<rect width="16" height="16" fill="white"/>
</clipPath>
</defs>
</svg>
