<svg width="16" height="16" viewBox="0 0 16 16" fill="none" xmlns="http://www.w3.org/2000/svg">
<g clip-path="url(#clip0_274_1852)">
<path d="M14.5703 0.75C14.9457 0.75 15.25 1.08579 15.25 1.5C15.25 1.91421 14.9457 2.25 14.5703 2.25H1.42969C1.05431 2.25 0.75 1.91421 0.75 1.5C0.75 1.08579 1.05431 0.75 1.42969 0.75H14.5703Z" fill="white"/>
<path d="M14.5703 7.25C14.9457 7.25 15.25 7.58579 15.25 8C15.25 8.41421 14.9457 8.75 14.5703 8.75H1.42969C1.05431 8.75 0.75 8.41421 0.75 8C0.75 7.58579 1.05431 7.25 1.42969 7.25H14.5703Z" fill="white"/>
<path d="M14.5703 13.75C14.9457 13.75 15.25 14.0858 15.25 14.5C15.25 14.9142 14.9457 15.25 14.5703 15.25H1.42969C1.05431 15.25 0.75 14.9142 0.75 14.5C0.75 14.0858 1.05431 13.75 1.42969 13.75H14.5703Z" fill="white"/>
</g>
<defs>
<clipPath id="clip0_274_1852">
<rect width="16" height="16" fill="white"/>
</clipPath>
</defs>
</svg>
