<svg width="16" height="16" viewBox="0 0 16 16" fill="none" xmlns="http://www.w3.org/2000/svg">
<g clip-path="url(#clip0_274_1964)">
<path d="M10.9133 0.713733C11.272 0.920815 11.3948 1.37955 11.1878 1.73825L10.763 2.47404L13.3484 3.96671C13.58 4.10043 13.7932 4.22341 13.9617 4.33997C14.1374 4.46157 14.3202 4.61228 14.4609 4.82889C14.662 5.13869 14.76 5.50459 14.7408 5.87342C14.7272 6.13137 14.6443 6.35324 14.5529 6.54643C14.4652 6.73167 14.3421 6.94469 14.2084 7.17634L13.5414 8.3316C13.4076 8.56329 13.2848 8.77633 13.1681 8.94491C13.0465 9.12072 12.8959 9.30336 12.6792 9.44409C12.3694 9.64523 12.0036 9.7432 11.6347 9.72397C11.3767 9.71045 11.1544 9.62839 10.9612 9.53697C10.776 9.44931 10.5634 9.32534 10.3318 9.19162L7.74724 7.69943L3.18865 15.5951C2.98155 15.9535 2.52271 16.0764 2.16413 15.8697C1.80549 15.6626 1.6827 15.2038 1.88961 14.8451L6.44821 6.94943L3.62601 5.32004C3.2593 5.10832 2.93901 4.92401 2.6979 4.75374C2.45847 4.58462 2.19732 4.36271 2.04712 4.03522C1.8444 3.59266 1.83524 3.08548 2.02174 2.63582C2.15975 2.30322 2.41165 2.07263 2.64461 1.89487C2.87932 1.71581 3.19294 1.51946 3.55176 1.29435L4.83021 0.492114C5.08185 0.334239 5.35079 0.155287 5.65814 0.0815396C5.90503 0.0224094 6.16261 0.017648 6.4115 0.0676937C6.6441 0.114544 6.8573 0.221493 7.05786 0.334875L9.46396 1.72404L9.88877 0.988252C10.0958 0.629742 10.5547 0.506922 10.9133 0.713733ZM6.18364 1.56783C6.14113 1.54664 6.12132 1.53938 6.11546 1.53749C6.08003 1.53039 6.04327 1.53141 6.00813 1.53979C6.00259 1.54187 5.98357 1.54983 5.94184 1.57257C5.87256 1.61034 5.78335 1.66559 5.62763 1.76328L4.34967 2.56467C3.96609 2.80531 3.72245 2.9596 3.55528 3.08707C3.45782 3.16142 3.41759 3.20369 3.40474 3.21892C3.38258 3.27803 3.38381 3.34275 3.4078 3.40111C3.42044 3.41516 3.46095 3.45698 3.56288 3.52899C3.73459 3.65024 3.98391 3.79462 4.37601 4.021L11.0818 7.89258C11.3347 8.03861 11.486 8.12574 11.6031 8.18113C11.7115 8.23244 11.731 8.22633 11.7128 8.22534C11.7655 8.22808 11.818 8.21404 11.8622 8.18531C11.8468 8.19533 11.8666 8.19127 11.9352 8.09212C12.0089 7.98561 12.0963 7.83467 12.2424 7.5816L12.9094 6.42634C13.0554 6.17334 13.1425 6.02212 13.1979 5.90507C13.2494 5.79618 13.2431 5.77693 13.2421 5.79528C13.2449 5.74262 13.2308 5.69012 13.2021 5.64587C13.212 5.66103 13.2075 5.64117 13.1089 5.5729C13.0024 5.49925 12.8513 5.41178 12.5984 5.26575L6.50407 1.74719C6.34509 1.65541 6.25423 1.60305 6.18364 1.56783Z" fill="white"/>
</g>
<defs>
<clipPath id="clip0_274_1964">
<rect width="16" height="16" fill="white"/>
</clipPath>
</defs>
</svg>
