<svg width="16" height="16" viewBox="0 0 16 16" fill="none" xmlns="http://www.w3.org/2000/svg">
<g clip-path="url(#clip0_274_2222)">
<path d="M10.8516 2.24999C11.5681 2.24999 12.1199 2.23863 12.6123 2.42089C13.0208 2.5722 13.3879 2.81888 13.6826 3.13964C14.0379 3.52638 14.2366 4.04094 14.5078 4.70409L15.7061 7.63378C15.7887 7.83584 15.8537 7.99127 15.8994 8.15527C15.9376 8.29219 15.9649 8.43206 15.9815 8.57323C16.0012 8.7423 16 8.91068 16 9.1289V9.99999C16 10.4556 16.0007 10.8352 15.9795 11.1455C15.9579 11.4625 15.9113 11.7624 15.791 12.0527C15.5119 12.7264 14.9764 13.2619 14.3027 13.541C14.0124 13.6613 13.7126 13.7078 13.3955 13.7295C13.0852 13.7507 12.7057 13.75 12.25 13.75H3.75001C3.29434 13.75 2.91487 13.7507 2.60451 13.7295C2.28746 13.7078 1.98762 13.6613 1.69728 13.541C1.02363 13.2619 0.488095 12.7264 0.209 12.0527C0.0887755 11.7624 0.0421592 11.4625 0.0205234 11.1455C-0.000641567 10.8352 1.56074e-05 10.4556 1.56074e-05 9.99999V9.1289C1.3736e-05 8.9107 -0.00121661 8.7423 0.0185703 8.57323C0.0351196 8.43206 0.062458 8.29219 0.100601 8.15527C0.146322 7.99128 0.211311 7.83579 0.293961 7.63378L1.4922 4.70409C1.7635 4.041 1.96223 3.52638 2.3174 3.13964C2.61209 2.81891 2.97926 2.57218 3.38771 2.42089C3.88023 2.23849 4.43183 2.24999 5.14845 2.24999H10.8516ZM3.75001 7.74999C3.27399 7.74999 2.95447 7.7507 2.70705 7.76757C2.46638 7.78399 2.34865 7.81277 2.2715 7.84472C1.96526 7.97157 1.72162 8.21525 1.59474 8.52148C1.56279 8.59861 1.53402 8.71641 1.51759 8.95702C1.50073 9.20442 1.50002 9.52405 1.50001 9.99999C1.50001 10.4759 1.50074 10.7956 1.51759 11.043C1.53401 11.2835 1.56281 11.4014 1.59474 11.4785C1.7216 11.7848 1.96525 12.0284 2.2715 12.1553C2.34865 12.1872 2.46635 12.216 2.70705 12.2324C2.95447 12.2493 3.27399 12.25 3.75001 12.25H12.25C12.726 12.25 13.0456 12.2493 13.293 12.2324C13.5337 12.216 13.6514 12.1872 13.7285 12.1553C14.0348 12.0284 14.2784 11.7848 14.4053 11.4785C14.4372 11.4014 14.466 11.2835 14.4824 11.043C14.4993 10.7956 14.5 10.4759 14.5 9.99999C14.5 9.52405 14.4993 9.20442 14.4824 8.95702C14.466 8.71641 14.4372 8.59861 14.4053 8.52148C14.2784 8.21526 14.0348 7.97157 13.7285 7.84472C13.6514 7.81277 13.5336 7.78399 13.293 7.76757C13.0456 7.75071 12.726 7.74999 12.25 7.74999H3.75001ZM3.73341 9.15429C4.11158 9.19272 4.40724 9.51208 4.40724 9.90038C4.40712 10.2886 4.11152 10.6081 3.73341 10.6465L3.65724 10.6504H3.6504C3.23627 10.6504 2.90053 10.3145 2.9004 9.90038C2.9004 9.48617 3.23619 9.15038 3.6504 9.15038H3.65724L3.73341 9.15429ZM6.63283 9.15429C7.01118 9.19254 7.30665 9.51194 7.30665 9.90038C7.30653 10.2887 7.0111 10.6082 6.63283 10.6465L6.55665 10.6504H6.54982C6.13582 10.6502 5.79995 10.3144 5.79982 9.90038C5.79982 9.48627 6.13574 9.15054 6.54982 9.15038H6.55665L6.63283 9.15429ZM5.14845 3.74999C4.31361 3.74999 4.08892 3.76163 3.90919 3.82812C3.72364 3.89684 3.55678 4.00862 3.42287 4.15429C3.29315 4.29547 3.19718 4.49934 2.88087 5.27245L2.46681 6.28222C2.51237 6.27785 2.55823 6.27366 2.60451 6.2705C2.91487 6.24932 3.29434 6.24999 3.75001 6.24999H12.25C12.7057 6.24999 13.0852 6.24933 13.3955 6.2705C13.4415 6.27363 13.487 6.27789 13.5322 6.28222L13.1191 5.27245C12.8029 4.4994 12.7078 4.29548 12.5781 4.15429C12.4442 4.00856 12.2774 3.89689 12.0918 3.82812C11.912 3.76153 11.687 3.74999 10.8516 3.74999H5.14845Z" fill="white"/>
</g>
<defs>
<clipPath id="clip0_274_2222">
<rect width="16" height="16" fill="white"/>
</clipPath>
</defs>
</svg>
