<svg width="16" height="16" viewBox="0 0 16 16" fill="none" xmlns="http://www.w3.org/2000/svg">
<g clip-path="url(#clip0_274_1692)">
<path d="M12.2793 0.793939C12.3931 0.395741 12.8078 0.165508 13.2061 0.27929C13.6042 0.393159 13.8345 0.807834 13.7207 1.20605L12.8506 4.25H15.25C15.6642 4.25 16 4.58579 16 5C15.9999 5.41412 15.6641 5.75001 15.25 5.75001H12.4229L11.1367 10.25H13.4375C13.8517 10.25 14.1875 10.5858 14.1875 11C14.1874 11.4141 13.8516 11.75 13.4375 11.75H10.708L9.7207 15.2061C9.60678 15.6041 9.1921 15.8345 8.79395 15.7207C8.39581 15.6069 8.16565 15.1921 8.2793 14.794L9.14941 11.75H4.70801L3.7207 15.2061C3.60678 15.6041 3.1921 15.8345 2.79395 15.7207C2.39581 15.6069 2.16565 15.1921 2.2793 14.794L3.14941 11.75H0.75C0.335858 11.75 0.000115942 11.4141 0 11C0 10.5858 0.335786 10.25 0.75 10.25H3.57715L4.86328 5.75001H2.5625C2.14836 5.75001 1.81262 5.41412 1.8125 5C1.8125 4.58579 2.14829 4.25 2.5625 4.25H5.29199L6.2793 0.793939C6.39314 0.395741 6.80782 0.165508 7.20605 0.27929C7.60422 0.393159 7.83448 0.807834 7.7207 1.20605L6.85059 4.25H11.292L12.2793 0.793939ZM6.42285 5.75001L5.13672 10.25H9.57715L10.8633 5.75001H6.42285Z" fill="white"/>
</g>
<defs>
<clipPath id="clip0_274_1692">
<rect width="16" height="16" fill="white"/>
</clipPath>
</defs>
</svg>
