<svg width="16" height="16" viewBox="0 0 16 16" fill="none" xmlns="http://www.w3.org/2000/svg">
<g clip-path="url(#clip0_274_2434)">
<path d="M4.75 11.6113C4.75 10.921 4.19034 10.3613 3.5 10.3613C2.80974 10.3615 2.25 10.9211 2.25 11.6113V13.25C2.25021 13.9402 2.80979 14.5 3.5 14.5C4.19013 14.4999 4.74979 13.9401 4.75 13.25V11.6113ZM9.75 13.249V11.6104C9.75013 10.0917 10.9813 8.86035 12.5 8.86035C12.9505 8.86036 13.3747 8.97103 13.75 9.16309V7.25C13.7498 4.0747 11.1754 1.5002 8 1.5C4.82453 1.5 2.25022 4.07453 2.25 7.25V9.16309C2.62498 8.97123 3.04891 8.86149 3.49902 8.86133C5.01802 8.86102 6.25 10.0923 6.25 11.6113V13.25C6.24979 14.7682 5.01922 15.9995 3.50098 16C1.98211 16.0003 0.750215 14.7688 0.75 13.25V11.6113C0.75 11.5928 0.752565 11.5741 0.75293 11.5557C0.751589 11.5373 0.75 11.5187 0.75 11.5V7.25C0.750225 3.2461 3.99611 -5.61752e-06 8 0C12.0037 0.000255971 15.2498 3.24631 15.25 7.25V11.499C15.25 11.5176 15.2484 11.5364 15.2471 11.5547C15.2474 11.5732 15.25 11.5917 15.25 11.6104V13.249C15.25 14.7678 14.0188 15.999 12.5 15.999C10.9812 15.999 9.75 14.7678 9.75 13.249ZM11.25 13.249C11.25 13.9394 11.8096 14.499 12.5 14.499C13.1904 14.499 13.75 13.9394 13.75 13.249V11.6104C13.7499 10.9201 13.1903 10.3604 12.5 10.3604C11.8097 10.3604 11.2501 10.9201 11.25 11.6104V13.249Z" fill="white"/>
</g>
<defs>
<clipPath id="clip0_274_2434">
<rect width="16" height="16" fill="white"/>
</clipPath>
</defs>
</svg>
