<svg width="16" height="16" viewBox="0 0 16 16" fill="none" xmlns="http://www.w3.org/2000/svg">
<g clip-path="url(#clip0_274_2269)">
<path d="M14.5 5.49292C14.5 5.09043 14.4206 4.69192 14.2666 4.32007C14.151 4.0411 13.9946 3.78115 13.8037 3.54858L13.6016 3.32495C13.3169 3.04017 12.9784 2.81404 12.6064 2.65991C12.2346 2.50589 11.8361 2.42652 11.4336 2.42651C11.0309 2.42651 10.6317 2.50578 10.2598 2.65991C9.88791 2.81404 9.55019 3.04025 9.26562 3.32495L8.53027 4.0603C8.23743 4.35314 7.76263 4.35304 7.46973 4.0603L6.73438 3.32495C6.15944 2.75001 5.37949 2.42659 4.56641 2.42651C3.75331 2.42651 2.97343 2.75006 2.39844 3.32495C1.82345 3.89994 1.50002 4.67976 1.5 5.49292C1.5 6.3061 1.82343 7.08588 2.39844 7.66089L8 13.2625L13.6016 7.66089C13.8863 7.37632 14.1125 7.0386 14.2666 6.66675C14.4207 6.29476 14.5 5.89557 14.5 5.49292ZM16 5.49292C16 6.09261 15.8819 6.68695 15.6523 7.24097C15.4228 7.79476 15.0861 8.29762 14.6621 8.72144L8.53027 14.8542C8.23748 15.1469 7.7626 15.1468 7.46973 14.8542L1.33691 8.72144C0.480841 7.86516 -9.02137e-09 6.70375 0 5.49292C2.13328e-05 4.28208 0.48081 3.12067 1.33691 2.2644C2.19323 1.40809 3.3554 0.926514 4.56641 0.926514C5.77731 0.926591 6.93868 1.40816 7.79492 2.2644L8 2.46948L8.20508 2.2644C8.62889 1.84044 9.13176 1.50369 9.68555 1.27417C10.2396 1.04461 10.8339 0.926514 11.4336 0.926514C12.0331 0.926524 12.6268 1.04472 13.1807 1.27417C13.7346 1.50371 14.2382 1.84032 14.6621 2.2644C15.0862 2.68833 15.4228 3.19189 15.6523 3.74585C15.8818 4.29974 16 4.89338 16 5.49292Z" fill="white"/>
</g>
<defs>
<clipPath id="clip0_274_2269">
<rect width="16" height="16" fill="white"/>
</clipPath>
</defs>
</svg>
