<svg width="16" height="16" viewBox="0 0 16 16" fill="none" xmlns="http://www.w3.org/2000/svg">
<path d="M11.25 14.25V8.67188C11.25 6.87695 9.79493 5.42188 8 5.42188C6.20507 5.42188 4.75 6.87695 4.75 8.67188V14.25C4.75 14.6642 4.41421 15 4 15C3.58579 15 3.25 14.6642 3.25 14.25V0.75C3.25 0.335786 3.58579 0 4 0C4.41421 0 4.75 0.335786 4.75 0.75V5.20996C5.59977 4.4119 6.74224 3.92188 8 3.92188C10.6234 3.92188 12.75 6.04852 12.75 8.67188V14.25C12.75 14.6642 12.4142 15 12 15C11.5858 15 11.25 14.6642 11.25 14.25Z" fill="white"/>
<path d="M2 12.1429C2 11.5117 2.51167 11 3.14286 11H12.8571C13.4883 11 14 11.5117 14 12.1429V14.8571C14 15.4883 13.4883 16 12.8571 16H3.14286C2.51167 16 2 15.4883 2 14.8571V12.1429Z" fill="#FFE600" fill-opacity="0.75"/>
</svg>
