<svg width="16" height="16" viewBox="0 0 16 16" fill="none" xmlns="http://www.w3.org/2000/svg">
<g clip-path="url(#clip0_274_1324)">
<path d="M4.90039 14.5V16H4.7998V14.5H4.90039ZM5 14.4004V12.2998C5 12.1846 4.99878 12.0081 5.01172 11.8496C5.02611 11.6735 5.06483 11.392 5.21777 11.0918C5.40951 10.7156 5.71554 10.4095 6.0918 10.2178C6.39198 10.0649 6.67347 10.0261 6.84961 10.0117C7.0081 9.99881 7.18458 10 7.2998 10V11.5C7.02014 11.5 6.88033 11.5004 6.77344 11.5547C6.67936 11.6027 6.60262 11.6794 6.55469 11.7735C6.50034 11.8804 6.5 12.0202 6.5 12.2998V14.4004L6.49805 14.7705C6.49295 15.0958 6.4724 15.2936 6.39062 15.4541L6.30859 15.5879C6.21634 15.7148 6.09516 15.8187 5.9541 15.8907L5.87012 15.9268C5.66562 15.9998 5.39015 16 4.90039 16V14.5C4.93517 14.5 4.96796 14.4991 4.99902 14.4991C4.99905 14.468 5 14.4352 5 14.4004ZM11.2002 14.5V16H11.0996V14.5H11.2002ZM14.5 11.2002V8.17776C14.5 7.29863 14.4884 7.12528 14.4512 6.98245C14.408 6.81719 14.3371 6.6599 14.2412 6.51858C14.1583 6.39642 14.0351 6.27368 13.373 5.69436L10.1729 2.89456C9.59567 2.38953 9.2257 2.06659 8.92383 1.84085C8.63753 1.62678 8.50266 1.57067 8.42578 1.54788C8.14814 1.46577 7.85186 1.46577 7.57422 1.54788C7.49734 1.57067 7.36246 1.62678 7.07617 1.84085C6.7743 2.06659 6.40433 2.38953 5.82715 2.89456L2.62695 5.69436C1.96487 6.27369 1.84175 6.39642 1.75879 6.51858C1.66286 6.6599 1.59201 6.81719 1.54883 6.98245C1.51155 7.12528 1.5 7.29863 1.5 8.17776V11.2002C1.5 12.0647 1.50144 12.623 1.53613 13.0479C1.56937 13.4546 1.6253 13.6064 1.66309 13.6807C1.80689 13.9629 2.03709 14.1931 2.31934 14.3369C2.39365 14.3747 2.54544 14.4307 2.95215 14.4639C3.37708 14.4986 3.93534 14.5 4.7998 14.5V16L3.6875 15.9951C2.71224 15.9798 2.11902 15.9181 1.6377 15.6729C1.14381 15.4212 0.730573 15.0384 0.442383 14.5684L0.327148 14.3623C0.0819041 13.881 0.0202067 13.2878 0.00488281 12.3125L0 11.2002V8.17776C1.84568e-09 7.47689 0.000215702 7.08254 0.0654297 6.74515L0.0976562 6.60257C0.162471 6.35465 0.25875 6.11646 0.383789 5.89358L0.517578 5.67679C0.67999 5.43753 0.890666 5.22896 1.24023 4.91702L1.63965 4.56546L4.83887 1.76565C5.81874 0.908266 6.3704 0.426408 6.91504 0.194364L7.14941 0.109403C7.70459 -0.0547376 8.29541 -0.0547376 8.85059 0.109403C9.48077 0.295767 10.0412 0.785725 11.1611 1.76565L14.3604 4.56546C14.9635 5.09326 15.2659 5.35784 15.4824 5.67679C15.6741 5.95922 15.816 6.27234 15.9023 6.60257C15.9998 6.97548 16 7.37649 16 8.17776V11.2002L15.9951 12.3125C15.9798 13.2878 15.9181 13.881 15.6729 14.3623L15.5576 14.5684C15.2694 15.0384 14.8562 15.4212 14.3623 15.6729L14.2393 15.7305C13.6121 16 12.7753 16 11.2002 16V14.5C12.0647 14.5 12.6229 14.4986 13.0479 14.4639C13.4546 14.4307 13.6063 14.3747 13.6807 14.3369C13.9629 14.1931 14.1931 13.9629 14.3369 13.6807C14.3747 13.6064 14.4306 13.4546 14.4639 13.0479C14.4986 12.623 14.5 12.0647 14.5 11.2002ZM9.5 14.4004V12.2998C9.5 12.0202 9.49966 11.8804 9.44531 11.7735C9.39738 11.6794 9.32064 11.6027 9.22656 11.5547C9.17313 11.5276 9.1116 11.5137 9.02832 11.5069L8.7002 11.5V10C8.81542 10 8.9919 9.99881 9.15039 10.0117C9.30459 10.0243 9.5394 10.0558 9.79688 10.166L9.9082 10.2178L10.0459 10.295C10.3144 10.4597 10.5404 10.6856 10.7051 10.9541L10.7822 11.0918L10.834 11.2032C10.9442 11.4606 10.9757 11.6954 10.9883 11.8496C11.0012 12.0081 11 12.1846 11 12.2998V14.4991C11.0314 14.4991 11.0645 14.5 11.0996 14.5V16L10.7295 15.9981C10.4042 15.993 10.2064 15.9724 10.0459 15.8907C9.90484 15.8187 9.78366 15.7148 9.69141 15.5879L9.60938 15.4541C9.5276 15.2936 9.50705 15.0958 9.50195 14.7705L9.5 14.4004ZM8.7002 10V11.5H7.2998V10H8.7002Z" fill="white"/>
</g>
<defs>
<clipPath id="clip0_274_1324">
<rect width="16" height="16" fill="white"/>
</clipPath>
</defs>
</svg>
