<svg width="16" height="16" viewBox="0 0 16 16" fill="none" xmlns="http://www.w3.org/2000/svg">
<path d="M9 8C9 8.55228 8.55228 9 8 9C7.44772 9 7 8.55228 7 8C7 7.44772 7.44772 7 8 7C8.55228 7 9 7.44772 9 8Z" fill="white"/>
<path d="M0 8.00015C0 5.70013 1.05994 3.64409 2.72168 2.24723C3.03875 1.9807 3.51179 2.02196 3.77832 2.33902C4.04479 2.65602 4.00437 3.1291 3.6875 3.39566C2.33899 4.5292 1.5 6.17567 1.5 8.00015C1.50004 9.82459 2.33903 11.4711 3.6875 12.6046C4.00425 12.8712 4.04475 13.3443 3.77832 13.6613C3.51179 13.9782 3.03869 14.0195 2.72168 13.7531C1.05994 12.3562 4.29279e-05 10.3001 0 8.00015ZM14.5 8.00015C14.5 6.17567 13.661 4.5292 12.3125 3.39566L13.2783 2.24723C14.9401 3.64409 16 5.70013 16 8.00015C16 10.3001 14.9401 12.3562 13.2783 13.7531C12.9613 14.0195 12.4882 13.9782 12.2217 13.6613C11.9553 13.3443 11.9958 12.8712 12.3125 12.6046C13.661 11.4711 14.5 9.82459 14.5 8.00015ZM12.2217 2.33902C12.4882 2.02196 12.9613 1.9807 13.2783 2.24723L12.3125 3.39566C11.9956 3.1291 11.9552 2.65602 12.2217 2.33902Z" fill="white"/>
<path d="M3.5 8.00015C3.5 6.69568 4.10196 5.5333 5.03711 4.74722C5.35418 4.48083 5.82726 4.52199 6.09375 4.83902C6.36014 5.15609 6.31898 5.62917 6.00195 5.89566C5.38016 6.4184 5 7.17131 5 8.00015C5.00004 8.77733 5.33434 9.48759 5.88867 10.0041L6.00195 10.1046L6.05859 10.1564C6.32344 10.4291 6.34364 10.864 6.09375 11.1613C5.84378 11.4586 5.4119 11.5132 5.09766 11.299L5.03711 11.2531L4.86523 11.1007C4.02878 10.3206 3.50004 9.22289 3.5 8.00015ZM11 8.00015C11 7.22298 10.6656 6.51273 10.1113 5.99624L9.99805 5.89566L9.94141 5.84292C9.67693 5.5702 9.6566 5.13616 9.90625 4.83902C10.1563 4.5416 10.5881 4.48697 10.9023 4.70132L10.9629 4.74722L11.1348 4.89859C11.9715 5.67875 12.5 6.77718 12.5 8.00015C12.5 9.30456 11.898 10.467 10.9629 11.2531C10.6458 11.5193 10.1727 11.4782 9.90625 11.1613C9.63972 10.8442 9.68097 10.3712 9.99805 10.1046C10.6199 9.58192 11 8.829 11 8.00015Z" fill="white"/>
</svg>
