<svg width="16" height="16" viewBox="0 0 16 16" fill="none" xmlns="http://www.w3.org/2000/svg">
<rect x="0.75" y="2.75" width="14.5" height="10.5" rx="2.25" stroke="white" stroke-width="1.5"/>
<path d="M7 7.75C7.41421 7.75 7.75 8.08579 7.75 8.5C7.75 8.91421 7.41421 9.25 7 9.25H3C2.58579 9.25 2.25 8.91421 2.25 8.5C2.25 8.08579 2.58579 7.75 3 7.75H7Z" fill="white"/>
<path d="M12.1504 7.75V9.25H10.3496V7.75H12.1504ZM12.25 7.65039V5.84961C12.25 5.81447 12.249 5.78136 12.249 5.75H10.25V7.74902C10.2814 7.74905 10.3145 7.75 10.3496 7.75V9.25C9.78982 9.25 9.50976 9.24959 9.2959 9.14062C9.15484 9.0687 9.03366 8.96477 8.94141 8.83789L8.85938 8.7041C8.7776 8.54361 8.75705 8.34578 8.75195 8.02051L8.75 7.65039V5.84961C8.75 5.28982 8.75041 5.00976 8.85938 4.7959C8.95522 4.60793 9.10793 4.45522 9.2959 4.35938C9.50976 4.25041 9.78982 4.25 10.3496 4.25H12.1504L12.5205 4.25195C12.8458 4.25705 13.0436 4.2776 13.2041 4.35938C13.3921 4.45521 13.5448 4.60793 13.6406 4.7959C13.7496 5.00976 13.75 5.28982 13.75 5.84961V7.65039L13.748 8.02051C13.7429 8.34578 13.7224 8.54361 13.6406 8.7041L13.5586 8.83789C13.4663 8.96477 13.3452 9.0687 13.2041 9.14062L13.1201 9.17676C12.9739 9.22892 12.7916 9.2438 12.5205 9.24805L12.1504 9.25V7.75C12.1852 7.75 12.218 7.74905 12.249 7.74902C12.249 7.71796 12.25 7.68517 12.25 7.65039Z" fill="white"/>
<path d="M13.0762 10.2539C13.4545 10.2922 13.75 10.6116 13.75 11C13.75 11.3884 13.4545 11.7078 13.0762 11.7461L13 11.75H3C2.586 11.7497 2.25 11.4141 2.25 11C2.25 10.5859 2.586 10.2503 3 10.25H13L13.0762 10.2539Z" fill="white"/>
</svg>
