<svg width="16" height="16" viewBox="0 0 16 16" fill="none" xmlns="http://www.w3.org/2000/svg">
<g clip-path="url(#clip0_274_1273)">
<path d="M9.59961 1.6328e-09C11.8398 1.6328e-09 12.9608 -0.000427067 13.8164 0.435547C14.5689 0.819016 15.181 1.43109 15.5645 2.18359C16.0004 3.03924 16 4.16018 16 6.40039V9.59961C16 10.0958 15.9979 10.537 15.9932 10.9326L16.0303 10.9697L15.9932 11.0059C15.9748 12.3525 15.8979 13.162 15.5645 13.8164L15.4102 14.0918C15.0259 14.7183 14.4749 15.2289 13.8164 15.5645L13.6523 15.6406C12.816 15.9999 11.6999 16 9.59961 16H6.40039L4.91602 15.9932C3.72431 15.9744 2.96088 15.9041 2.34766 15.6406L2.18359 15.5645C1.52512 15.2289 0.974134 14.7183 0.589844 14.0918L0.435547 13.8164C-0.000427067 12.9608 1.6328e-09 11.8398 1.6328e-09 9.59961V6.40039C1.6328e-09 4.16018 -0.000427067 3.03924 0.435547 2.18359C0.819016 1.43109 1.43109 0.819016 2.18359 0.435547C2.82525 0.108606 3.61607 0.0272847 4.91602 0.00683594L6.40039 1.6328e-09H9.59961ZM11.7314 8.9082C11.581 8.85936 11.419 8.85936 11.2686 8.9082C11.229 8.92106 11.1549 8.95461 10.999 9.08691C10.8366 9.22488 10.6385 9.42201 10.333 9.72754L8.03027 12.0303C7.1851 12.8755 5.8149 12.8755 4.96973 12.0303C4.71033 11.7709 4.28966 11.7709 4.03027 12.0303L2.26367 13.7959C2.44109 13.9674 2.6427 14.1142 2.86523 14.2275C3.04631 14.3198 3.32077 14.4033 3.89453 14.4502C4.48629 14.4985 5.25553 14.5 6.40039 14.5H9.59961C10.7445 14.5 11.5137 14.4985 12.1055 14.4502C12.6792 14.4033 12.9537 14.3198 13.1348 14.2275C13.6052 13.9879 13.9879 13.6052 14.2275 13.1348C14.3198 12.9537 14.4033 12.6792 14.4502 12.1055C14.4642 11.9339 14.4732 11.7473 14.4805 11.541L12.667 9.72754C12.3615 9.42201 12.1634 9.22488 12.001 9.08691C11.8451 8.95461 11.771 8.92106 11.7314 8.9082ZM6.40039 1.5C5.25553 1.5 4.48629 1.50146 3.89453 1.5498C3.32077 1.59671 3.04631 1.68023 2.86523 1.77246C2.39483 2.01214 2.01214 2.39483 1.77246 2.86523C1.68023 3.04631 1.59671 3.32077 1.5498 3.89453C1.50146 4.48629 1.5 5.25553 1.5 6.40039V9.59961C1.5 10.7445 1.50146 11.5137 1.5498 12.1055C1.55737 12.198 1.56877 12.2825 1.57812 12.3604L2.96973 10.9697C3.81491 10.1245 5.1851 10.1245 6.03027 10.9697C6.28966 11.2291 6.71033 11.2291 6.96973 10.9697L9.27246 8.66699C9.56058 8.37887 9.8083 8.13018 10.0283 7.94336C10.2551 7.75083 10.5018 7.57987 10.8047 7.48145C11.2566 7.33461 11.7434 7.33461 12.1953 7.48145C12.4982 7.57987 12.7449 7.75083 12.9717 7.94336C13.1917 8.13018 13.4394 8.37887 13.7275 8.66699L14.5 9.43945V6.40039C14.5 5.25553 14.4985 4.48629 14.4502 3.89453C14.4033 3.32077 14.3198 3.04631 14.2275 2.86523C13.9879 2.39483 13.6052 2.01214 13.1348 1.77246C12.9537 1.68023 12.6792 1.59671 12.1055 1.5498C11.5137 1.50146 10.7445 1.5 9.59961 1.5H6.40039ZM5.5 3C6.88071 3 8 4.11929 8 5.5C8 6.88071 6.88071 8 5.5 8C4.11929 8 3 6.88071 3 5.5C3 4.11929 4.11929 3 5.5 3ZM5.5 4.5C4.94772 4.5 4.5 4.94772 4.5 5.5C4.5 6.05228 4.94772 6.5 5.5 6.5C6.05228 6.5 6.5 6.05228 6.5 5.5C6.5 4.94772 6.05228 4.5 5.5 4.5Z" fill="white"/>
</g>
<defs>
<clipPath id="clip0_274_1273">
<rect width="16" height="16" fill="white"/>
</clipPath>
</defs>
</svg>
