<svg width="16" height="16" viewBox="0 0 16 16" fill="none" xmlns="http://www.w3.org/2000/svg">
<g clip-path="url(#clip0_274_1938)">
<path d="M14.0005 7.25C14.4145 7.25053 14.7499 7.58689 14.7495 8.00098L14.7476 10.4541C14.7469 11.2812 14.747 11.9469 14.7027 12.4844C14.6576 13.0306 14.5629 13.5103 14.3364 13.9541C13.9767 14.6592 13.4031 15.2326 12.6978 15.5918C12.2539 15.8178 11.7742 15.9124 11.228 15.957C10.6905 16.0009 10.0248 16 9.19777 16H6.80031C5.97251 16 5.30602 16.001 4.76808 15.957C4.22152 15.9124 3.74154 15.8172 3.29738 15.5908C2.5918 15.2313 2.01819 14.6578 1.65871 13.9521C1.43245 13.508 1.33809 13.028 1.29347 12.4814C1.24959 11.9435 1.2504 11.277 1.2505 10.4492V8C1.25056 7.58579 1.58629 7.24995 2.0005 7.25C2.41469 7.25005 2.75051 7.58583 2.7505 8V10.4492C2.7504 11.3018 2.75084 11.8967 2.78859 12.3594C2.82563 12.8131 2.89405 13.074 2.99465 13.2715C3.21031 13.6948 3.55473 14.0391 3.97804 14.2549C4.17551 14.3555 4.43648 14.4248 4.89015 14.4619C5.35283 14.4997 5.94776 14.5 6.80031 14.5H9.19777C10.0495 14.5 10.6437 14.4997 11.106 14.4619C11.5593 14.4249 11.8197 14.3554 12.0171 14.2549C12.4403 14.0394 12.7847 13.6955 13.0005 13.2725C13.1012 13.0751 13.1701 12.8146 13.2075 12.3613C13.2457 11.899 13.2469 11.305 13.2476 10.4531L13.2495 7.99902C13.2501 7.58499 13.5864 7.24967 14.0005 7.25Z" fill="white"/>
<path d="M7.5273 10.5821C7.82187 10.8223 8.25663 10.8049 8.53121 10.5303L11.5312 7.53032L11.583 7.47368C11.8233 7.17912 11.8058 6.74437 11.5312 6.46976C11.2566 6.19516 10.8219 6.1777 10.5273 6.41801L10.4707 6.46976L8.75094 8.1895V0.750009C8.75094 0.335893 8.41501 0.000167565 8.00093 4.97667e-06C7.58672 4.97667e-06 7.25093 0.335793 7.25093 0.750009V8.1895L5.53119 6.46976C5.23829 6.17687 4.76353 6.17687 4.47063 6.46976C4.17777 6.76266 4.17775 7.23743 4.47063 7.53032L7.47065 10.5303L7.5273 10.5821Z" fill="white"/>
</g>
<defs>
<clipPath id="clip0_274_1938">
<rect width="16" height="16" fill="white"/>
</clipPath>
</defs>
</svg>
