<svg width="16" height="16" viewBox="0 0 16 16" fill="none" xmlns="http://www.w3.org/2000/svg">
<path d="M12 0C12.4142 0 12.75 0.335786 12.75 0.75C12.75 1.16421 12.4142 1.5 12 1.5H10.3076L7.2334 14.5H8.57129L8.64844 14.5039C9.02647 14.5425 9.32129 14.8618 9.32129 15.25C9.32129 15.6382 9.02647 15.9575 8.64844 15.9961L8.57129 16H4C3.58579 16 3.25 15.6642 3.25 15.25C3.25 14.8358 3.58579 14.5 4 14.5H5.69238L8.7666 1.5H7.42871C7.0145 1.5 6.67871 1.16421 6.67871 0.75C6.67871 0.335786 7.0145 0 7.42871 0H12Z" fill="white"/>
</svg>
