<svg width="16" height="16" viewBox="0 0 16 16" fill="none" xmlns="http://www.w3.org/2000/svg">
<path d="M0 10.25V10.0586C0.000124314 9.64449 0.335863 9.30859 0.75 9.30859C1.16414 9.30859 1.49988 9.64449 1.5 10.0586V10.25C1.5 11.3546 2.39543 12.25 3.5 12.25C4.60457 12.25 5.5 11.3546 5.5 10.25V3C5.5 2.58579 5.83579 2.25 6.25 2.25C6.66421 2.25 7 2.58579 7 3V10.25C7 12.183 5.433 13.75 3.5 13.75C1.567 13.75 0 12.183 0 10.25Z" fill="white"/>
<path d="M14.167 5.41406C14.167 5.14795 14.0713 4.71826 13.7959 4.37207C13.5467 4.05893 13.102 3.75 12.25 3.75C11.4117 3.75 10.9354 4.07567 10.6641 4.43945C10.3686 4.83569 10.2806 5.32635 10.3262 5.65625C10.3448 5.79098 10.4088 6.01119 10.667 6.26074C10.9369 6.52148 11.454 6.84718 12.4375 7.10156C13.8783 7.47419 14.7886 8.05939 15.334 8.73633C15.8834 9.41838 16 10.1155 16 10.5859C16 11.1171 15.7642 11.8968 15.1865 12.5488C14.5807 13.2326 13.6234 13.75 12.25 13.75C10.8766 13.75 9.91934 13.2326 9.31348 12.5488C8.73583 11.8968 8.5 11.1171 8.5 10.5859C8.50015 10.1718 8.83588 9.83594 9.25 9.83594C9.66412 9.83594 9.99985 10.1718 10 10.5859C10 10.7444 10.0977 11.1723 10.4365 11.5547C10.7474 11.9053 11.2903 12.25 12.25 12.25C13.2097 12.25 13.7526 11.9053 14.0635 11.5547C14.4023 11.1723 14.5 10.7444 14.5 10.5859C14.5 10.3667 14.4495 10.0298 14.166 9.67773C13.878 9.32025 13.2881 8.87072 12.0625 8.55371C10.9128 8.25638 10.1353 7.8328 9.625 7.33984C9.1035 6.83604 8.90114 6.29786 8.84082 5.86133C8.74352 5.15675 8.92168 4.26742 9.46191 3.54297C10.0263 2.78611 10.9551 2.25 12.25 2.25C13.5311 2.25 14.4198 2.74595 14.9707 3.43848C15.4951 4.09797 15.667 4.87566 15.667 5.41406C15.6668 5.82804 15.331 6.16389 14.917 6.16406C14.5029 6.16406 14.1671 5.82815 14.167 5.41406Z" fill="white"/>
</svg>
