<svg width="16" height="16" viewBox="0 0 16 16" fill="none" xmlns="http://www.w3.org/2000/svg">
<g clip-path="url(#clip0_274_1304)">
<path d="M12.8321 9.99979V8.71072H11.4132V9.99979C11.4132 10.414 11.0774 10.7498 10.6632 10.7498C10.2492 10.7495 9.91318 10.4139 9.91318 9.99979V8.71072H7.91903C7.86953 8.97768 7.79268 9.23939 7.68954 9.49197C7.49047 9.97949 7.19736 10.423 6.82626 10.7967C6.45512 11.1703 6.01364 11.4674 5.52743 11.6697C5.04129 11.872 4.51981 11.9754 3.99325 11.9754C3.46671 11.9754 2.94521 11.872 2.45907 11.6697C1.97286 11.4674 1.53138 11.1703 1.16025 10.7967C0.789129 10.423 0.495068 9.97951 0.295988 9.49197C0.0970038 9.00453 -0.00343785 8.48233 8.97953e-05 7.95584V7.94803C0.0182818 6.90135 0.446935 5.90357 1.19345 5.16971C1.94021 4.43581 2.94623 4.0242 3.99325 4.0242C5.04011 4.02432 6.04543 4.43592 6.79208 5.16971C7.36042 5.7284 7.74426 6.44042 7.90341 7.21072H15.2501C15.6642 7.21072 16 7.54662 16.0001 7.96072C16.0001 8.37494 15.6643 8.71072 15.2501 8.71072H14.3321V9.99979C14.3321 10.414 13.9963 10.7498 13.5821 10.7498C13.168 10.7497 12.8321 10.4139 12.8321 9.99979ZM3.99325 5.5242C3.33955 5.5242 2.71145 5.78085 2.24521 6.23904C1.77896 6.69726 1.51145 7.32078 1.50009 7.9744C1.499 8.30035 1.56142 8.62375 1.68466 8.92557C1.80896 9.22991 1.99302 9.50678 2.2247 9.74002C2.45631 9.9731 2.73189 10.1577 3.03525 10.284C3.33881 10.4103 3.66445 10.4754 3.99325 10.4754C4.32205 10.4754 4.64771 10.4103 4.95126 10.284C5.25461 10.1577 5.53021 9.9731 5.76181 9.74002C5.99341 9.50687 6.17657 9.22978 6.30087 8.92557C6.42411 8.62375 6.4875 8.30035 6.48642 7.9744L6.46982 7.73123C6.40459 7.16799 6.1487 6.64039 5.74032 6.23904C5.27419 5.78098 4.64678 5.52432 3.99325 5.5242Z" fill="white"/>
</g>
<defs>
<clipPath id="clip0_274_1304">
<rect width="16" height="16" rx="3" fill="white"/>
</clipPath>
</defs>
</svg>
