<svg width="16" height="16" viewBox="0 0 16 16" fill="none" xmlns="http://www.w3.org/2000/svg">
<g clip-path="url(#clip0_274_1357)">
<path d="M3 4.5C3 3.94772 3.44772 3.5 4 3.5V3.5C4.55228 3.5 5 3.94772 5 4.5V4.5C5 5.05228 4.55228 5.5 4 5.5V5.5C3.44772 5.5 3 5.05228 3 4.5V4.5Z" fill="white"/>
<path d="M5.6665 4.5C5.6665 3.94772 6.11422 3.5 6.6665 3.5V3.5C7.21879 3.5 7.6665 3.94772 7.6665 4.5V4.5C7.6665 5.05228 7.21879 5.5 6.6665 5.5V5.5C6.11422 5.5 5.6665 5.05228 5.6665 4.5V4.5Z" fill="white"/>
<path d="M8.3335 4.5C8.3335 3.94772 8.78121 3.5 9.3335 3.5V3.5C9.88578 3.5 10.3335 3.94772 10.3335 4.5V4.5C10.3335 5.05228 9.88578 5.5 9.3335 5.5V5.5C8.78121 5.5 8.3335 5.05228 8.3335 4.5V4.5Z" fill="white"/>
<path d="M11 4.5C11 3.94772 11.4477 3.5 12 3.5V3.5C12.5523 3.5 13 3.94772 13 4.5V4.5C13 5.05228 12.5523 5.5 12 5.5V5.5C11.4477 5.5 11 5.05228 11 4.5V4.5Z" fill="white"/>
<path d="M3 7.5C3 6.94772 3.44772 6.5 4 6.5V6.5C4.55228 6.5 5 6.94772 5 7.5V7.5C5 8.05228 4.55228 8.5 4 8.5V8.5C3.44772 8.5 3 8.05228 3 7.5V7.5Z" fill="white"/>
<path d="M5.6665 7.5C5.6665 6.94772 6.11422 6.5 6.6665 6.5V6.5C7.21879 6.5 7.6665 6.94772 7.6665 7.5V7.5C7.6665 8.05228 7.21879 8.5 6.6665 8.5V8.5C6.11422 8.5 5.6665 8.05228 5.6665 7.5V7.5Z" fill="white"/>
<path d="M8.3335 7.5C8.3335 6.94772 8.78121 6.5 9.3335 6.5V6.5C9.88578 6.5 10.3335 6.94772 10.3335 7.5V7.5C10.3335 8.05228 9.88578 8.5 9.3335 8.5V8.5C8.78121 8.5 8.3335 8.05228 8.3335 7.5V7.5Z" fill="white"/>
<path d="M11 7.5C11 6.94772 11.4477 6.5 12 6.5V6.5C12.5523 6.5 13 6.94772 13 7.5V7.5C13 8.05228 12.5523 8.5 12 8.5V8.5C11.4477 8.5 11 8.05228 11 7.5V7.5Z" fill="white"/>
<path d="M10.75 10.25C11.1642 10.25 11.5 10.5858 11.5 11C11.5 11.4142 11.1642 11.75 10.75 11.75H5.25C4.83579 11.75 4.5 11.4142 4.5 11C4.5 10.5858 4.83579 10.25 5.25 10.25H10.75Z" fill="white"/>
</g>
<rect x="0.75" y="2.25" width="14.5" height="11.5" rx="3.25" stroke="white" stroke-width="1.5"/>
<defs>
<clipPath id="clip0_274_1357">
<rect y="1.5" width="16" height="13" rx="4" fill="white"/>
</clipPath>
</defs>
</svg>
