<svg width="16" height="16" viewBox="0 0 16 16" fill="none" xmlns="http://www.w3.org/2000/svg">
<path d="M12.383 3.34961C12.383 3.05744 12.3828 2.88298 12.3722 2.75391C12.3664 2.68303 12.3591 2.64916 12.3556 2.63672C12.3317 2.5898 12.2941 2.55132 12.2472 2.52734C12.263 2.53528 12.2485 2.5205 12.1291 2.51074C12 2.50019 11.8257 2.5 11.5334 2.5H4.46696C4.17484 2.5 4.00035 2.50022 3.87126 2.51074C3.75108 2.52056 3.73682 2.53561 3.75309 2.52734C3.70609 2.55131 3.66767 2.5897 3.64372 2.63672C3.65206 2.62034 3.63793 2.6339 3.62809 2.75391C3.61755 2.88298 3.61638 3.05744 3.61637 3.34961V7.5H12.383V3.34961ZM1.94352 12.3154C1.77865 12.7009 1.67584 12.9435 1.61637 13.127C1.56249 13.2932 1.57412 13.327 1.57145 13.3047C1.58479 13.3642 1.61971 13.4164 1.66911 13.4521C1.68464 13.4572 1.73517 13.471 1.84977 13.4814C2.04182 13.4989 2.3055 13.5 2.72477 13.5H13.2756C13.6945 13.5 13.9576 13.4989 14.1496 13.4814C14.2639 13.471 14.3144 13.4563 14.3302 13.4512C14.3795 13.4155 14.4135 13.364 14.4269 13.3047C14.4254 13.2879 14.4192 13.2358 14.384 13.127C14.3245 12.9435 14.2217 12.7009 14.0568 12.3154L12.6379 9H3.36149L1.94352 12.3154ZM13.883 8.0957L15.4357 11.7256C15.5892 12.0843 15.7252 12.4004 15.8107 12.6641C15.8965 12.9289 15.9673 13.2419 15.9035 13.5771C15.8161 14.0358 15.5495 14.4414 15.1623 14.7021C14.8791 14.8928 14.5626 14.9503 14.2853 14.9756C14.0094 15.0007 13.6656 15 13.2756 15H2.72477C2.33438 15 1.99012 15.0007 1.71403 14.9756C1.43679 14.9503 1.12117 14.8927 0.838054 14.7021C0.45072 14.4414 0.183262 14.0358 0.0958668 13.5771C0.0321262 13.242 0.102819 12.9288 0.18864 12.6641C0.274123 12.4004 0.410139 12.0844 0.56364 11.7256L2.11637 8.0957V3.34961C2.11637 3.08211 2.11629 2.83611 2.13298 2.63184C2.1504 2.41879 2.19049 2.18527 2.30778 1.95508C2.47558 1.62603 2.74332 1.35812 3.07243 1.19043C3.30263 1.07322 3.53616 1.03401 3.74919 1.0166C3.95349 0.999935 4.19947 1 4.46696 1H11.5334C11.801 1 12.0468 0.999905 12.2511 1.0166C12.4643 1.03401 12.6976 1.0731 12.9279 1.19043C13.2571 1.35815 13.5248 1.62596 13.6925 1.95508C13.8098 2.18529 13.8499 2.41878 13.8674 2.63184C13.884 2.83611 13.883 3.08211 13.883 3.34961V8.0957Z" fill="white"/>
<path d="M9 11.25C9.41421 11.25 9.75 11.5858 9.75 12C9.75 12.4142 9.41421 12.75 9 12.75H7C6.58579 12.75 6.25 12.4142 6.25 12C6.25 11.5858 6.58579 11.25 7 11.25H9Z" fill="white"/>
</svg>
