<svg width="16" height="16" viewBox="0 0 16 16" fill="none" xmlns="http://www.w3.org/2000/svg">
<g clip-path="url(#clip0_274_2476)">
<mask id="mask0_274_2476" style="mask-type:alpha" maskUnits="userSpaceOnUse" x="0" y="-1" width="16" height="17">
<path d="M16 15.9693H0V-0.0307007H16V15.9693ZM9.54004 0.443909C8.6077 -0.177497 7.39228 -0.177534 6.45996 0.443909L2.76855 2.90485C1.12045 4.00358 1.12057 6.42613 2.76855 7.52496L6.45996 9.9859C7.39237 10.6075 8.60762 10.6075 9.54004 9.9859L13.2314 7.52496C14.8794 6.42613 14.8795 4.00358 13.2314 2.90485L9.54004 0.443909Z" fill="#D9D9D9"/>
</mask>
<g mask="url(#mask0_274_2476)">
<path d="M6.45975 3.19831C7.39216 2.5767 8.60741 2.57674 9.53983 3.19831L13.2312 5.65924C14.8794 6.75802 14.8794 9.18059 13.2312 10.2794L9.53983 12.7403C8.60741 13.3619 7.39216 13.3619 6.45975 12.7403L2.76835 10.2794C1.12019 9.18059 1.12019 6.75802 2.76835 5.65924L6.45975 3.19831ZM8.7078 4.44635C8.27937 4.16078 7.72126 4.16092 7.29276 4.44635L3.60038 6.90729C2.84282 7.41233 2.84282 8.52627 3.60038 9.03131L7.29276 11.4923C7.72127 11.7777 8.27936 11.7778 8.7078 11.4923L12.3992 9.03131C13.1568 8.52627 13.1568 7.41233 12.3992 6.90729L8.7078 4.44635Z" fill="white"/>
</g>
<path d="M6.45975 0.444308C7.39216 -0.177296 8.60741 -0.177259 9.53983 0.444308L13.2312 2.90525C14.8794 4.00402 14.8794 6.42659 13.2312 7.52536L9.53983 9.9863C8.60741 10.6079 7.39216 10.6079 6.45975 9.9863L2.76835 7.52536C1.12019 6.42659 1.12019 4.00402 2.76835 2.90525L6.45975 0.444308ZM8.7078 1.69235C8.27937 1.40678 7.72126 1.40693 7.29276 1.69235L3.60038 4.15329C2.84282 4.65833 2.84282 5.77227 3.60038 6.27732L7.29276 8.73825C7.72127 9.02368 8.27936 9.02383 8.7078 8.73825L12.3992 6.27732C13.1568 5.77227 13.1568 4.65833 12.3992 4.15329L8.7078 1.69235Z" fill="white"/>
<mask id="mask1_274_2476" style="mask-type:alpha" maskUnits="userSpaceOnUse" x="0" y="-1" width="16" height="17">
<path d="M16 15.9693H0V-0.0307007H16V15.9693ZM9.54004 3.19781C8.60772 2.57645 7.39226 2.57641 6.45996 3.19781L2.76855 5.65875C1.12047 6.75748 1.12062 9.18003 2.76855 10.2789L6.45996 12.7398C7.39237 13.3614 8.60762 13.3614 9.54004 12.7398L13.2314 10.2789C14.8794 9.18002 14.8795 6.75748 13.2314 5.65875L9.54004 3.19781Z" fill="#D9D9D9"/>
</mask>
<g mask="url(#mask1_274_2476)">
<path d="M6.45975 5.9523C7.39216 5.3307 8.60741 5.33074 9.53983 5.9523L13.2312 8.41324C14.8794 9.51201 14.8794 11.9346 13.2312 13.0334L9.53983 15.4943C8.60741 16.1159 7.39216 16.1159 6.45975 15.4943L2.76835 13.0334C1.12019 11.9346 1.12019 9.51202 2.76835 8.41324L6.45975 5.9523ZM8.7078 7.20035C8.27937 6.91478 7.72126 6.91492 7.29276 7.20035L3.60038 9.66129C2.84282 10.1663 2.84282 11.2803 3.60038 11.7853L7.29276 14.2462C7.72127 14.5317 8.27936 14.5318 8.7078 14.2462L12.3992 11.7853C13.1568 11.2803 13.1568 10.1663 12.3992 9.66129L8.7078 7.20035Z" fill="white"/>
</g>
</g>
<defs>
<clipPath id="clip0_274_2476">
<rect width="16" height="16" fill="white"/>
</clipPath>
</defs>
</svg>
