<svg width="16" height="16" viewBox="0 0 16 16" fill="none" xmlns="http://www.w3.org/2000/svg">
<g clip-path="url(#clip0_274_1575)">
<path d="M2.25 15V3.5C2.25 3.08579 1.91421 2.75 1.5 2.75C1.08579 2.75 0.75 3.08579 0.75 3.5V15C0.75 15.4142 1.08579 15.75 1.5 15.75C1.91421 15.75 2.25 15.4142 2.25 15Z" fill="white"/>
<path d="M5.25 15V4.5C5.25 4.08579 4.91421 3.75 4.5 3.75C4.08579 3.75 3.75 4.08579 3.75 4.5V15C3.75 15.4142 4.08579 15.75 4.5 15.75C4.91421 15.75 5.25 15.4142 5.25 15Z" fill="white"/>
<path d="M8.25 15V2.5C8.25 2.08579 7.91421 1.75 7.5 1.75C7.08579 1.75 6.75 2.08579 6.75 2.5V15C6.75 15.4142 7.08579 15.75 7.5 15.75C7.91421 15.75 8.25 15.4142 8.25 15Z" fill="white"/>
<path d="M9.87772 1.097C10.2356 0.946233 10.6446 1.09444 10.8268 1.42807L10.8604 1.49691L16.1105 13.9592C16.271 14.3408 16.0918 14.7802 15.7103 14.941C15.3286 15.1018 14.8884 14.9228 14.7276 14.5411L9.4778 2.0797L9.45149 2.00789C9.33978 1.64437 9.51979 1.24787 9.87772 1.097Z" fill="white"/>
</g>
<defs>
<clipPath id="clip0_274_1575">
<rect width="16" height="16" fill="white"/>
</clipPath>
</defs>
</svg>
