<svg width="16" height="16" viewBox="0 0 16 16" fill="none" xmlns="http://www.w3.org/2000/svg">
<path d="M9.36795 6.26325V1.61871C9.36795 1.60702 9.3664 1.60144 9.36599 1.60016C9.36568 1.59918 9.36536 1.5987 9.36502 1.59821C9.36363 1.59629 9.35744 1.58954 9.34451 1.58454C9.33151 1.57952 9.32242 1.58014 9.3201 1.58063C9.31943 1.58077 9.3191 1.58106 9.31814 1.58161C9.31731 1.58208 9.31168 1.58429 9.30349 1.59332L4.51736 6.88043C4.1592 7.27602 3.92191 7.53877 3.76638 7.74176C3.67144 7.8657 3.63672 7.93054 3.62576 7.9527C3.62246 8.03032 3.65508 8.10402 3.71463 8.15387C3.73762 8.16044 3.80907 8.17901 3.96658 8.19196C4.22143 8.21288 4.57475 8.21344 5.10818 8.21344C5.22445 8.21344 5.35315 8.21301 5.46365 8.22125C5.58173 8.23009 5.73805 8.25158 5.90213 8.32672C6.14043 8.43596 6.33746 8.61731 6.46658 8.84332L6.51834 8.94196L6.56521 9.06403C6.60343 9.18276 6.61719 9.29286 6.62381 9.38141C6.63206 9.49198 6.63162 9.62055 6.63162 9.73688V14.3814C6.63162 14.3932 6.63318 14.3987 6.63357 14.4L6.63455 14.4019C6.63593 14.4038 6.64227 14.4106 6.65506 14.4156C6.66769 14.4205 6.67684 14.42 6.67947 14.4195C6.6802 14.4193 6.68136 14.4191 6.6824 14.4185C6.68394 14.4176 6.68873 14.4139 6.69607 14.4058L11.4832 9.11871C11.8412 8.72333 12.0777 8.4613 12.2332 8.25836C12.3285 8.13394 12.362 8.06844 12.3728 8.04645C12.3759 7.96886 12.3447 7.89495 12.2849 7.84528C12.2614 7.83859 12.1901 7.82102 12.034 7.80817C11.7792 7.78723 11.4257 7.78668 10.8924 7.78668C10.7761 7.78668 10.6474 7.7871 10.5369 7.77887C10.4187 7.77005 10.2618 7.74871 10.0974 7.6734C9.82519 7.54861 9.607 7.32944 9.48221 7.05719C9.40701 6.89301 9.38459 6.73683 9.37576 6.61871C9.36751 6.50818 9.36795 6.37955 9.36795 6.26325ZM10.8679 6.28571C10.8757 6.28571 10.8841 6.28668 10.8924 6.28668C11.3984 6.28668 11.8251 6.28588 12.156 6.31305C12.4688 6.33876 12.8474 6.39674 13.158 6.6236C13.6612 6.9914 13.931 7.5994 13.866 8.2193C13.8258 8.60197 13.6146 8.92126 13.4236 9.17047C13.2216 9.43417 12.9344 9.75011 12.5945 10.1256L7.80838 15.4127C6.86444 16.4552 5.13162 15.7878 5.13162 14.3814V9.71344C5.12403 9.71344 5.11622 9.71344 5.10818 9.71344C4.60177 9.71344 4.1746 9.71428 3.84353 9.68707C3.53069 9.66136 3.1522 9.60347 2.84158 9.37653C2.33838 9.00876 2.06861 8.40068 2.13357 7.78082L2.15701 7.6402C2.2269 7.31937 2.40889 7.04772 2.57596 6.82965C2.77796 6.566 3.0652 6.24994 3.40506 5.87457L8.19217 0.587465C9.13611 -0.455121 10.8679 0.212296 10.8679 1.61871V6.28571Z" fill="white"/>
</svg>
