<svg width="16" height="16" viewBox="0 0 16 16" fill="none" xmlns="http://www.w3.org/2000/svg">
<g clip-path="url(#clip0_274_2382)">
<path d="M1.53027 6.47958C1.53027 2.42106 5.26273 -0.757136 9.46387 0.158287H9.46582C11.3162 0.567655 12.9443 1.79543 13.7959 3.50692C15.3489 6.62812 14.0138 9.87927 11.8633 11.629C11.7255 11.7411 11.6345 11.8149 11.5693 11.8712C11.5003 11.9308 11.4948 11.9419 11.5068 11.9268C11.4843 11.9553 11.4759 11.9688 11.4736 11.9727C11.472 11.977 11.4668 11.992 11.459 12.0274C11.4611 12.0178 11.4573 12.0273 11.4551 12.087C11.4528 12.1499 11.4531 12.2336 11.4531 12.3722C11.4531 12.3904 11.4539 12.39 11.4551 12.4473C11.4559 12.4892 11.4563 12.5492 11.4521 12.6163C11.4441 12.747 11.4161 12.9431 11.3105 13.1456C11.0561 13.6336 10.5516 13.8184 10.0068 13.8184H6.01367V13.8175C5.60387 13.8205 5.02407 13.7627 4.72168 13.254C4.58825 13.0294 4.56893 12.8031 4.56445 12.6768C4.56208 12.6099 4.56322 12.5458 4.56445 12.5001C4.56586 12.4479 4.56738 12.4149 4.56738 12.38C4.56738 12.2411 4.56776 12.1568 4.56543 12.0938C4.56319 12.0335 4.55928 12.0241 4.56152 12.0343C4.55371 11.9991 4.5486 11.984 4.54688 11.9796C4.54535 11.9768 4.5371 11.9633 4.5127 11.9327C4.52495 11.9481 4.52025 11.9373 4.45117 11.878C4.38635 11.8224 4.29649 11.7497 4.15918 11.6388C2.68396 10.4467 1.53035 8.54633 1.53027 6.47958ZM3.03027 6.47958C3.03035 7.99666 3.89608 9.49864 5.10156 10.4727C5.23128 10.5776 5.34188 10.6666 5.42773 10.7403C5.50943 10.8105 5.60591 10.8969 5.68652 10.9981C5.86679 11.2245 5.96263 11.4266 6.02539 11.7091C6.06745 11.8984 6.06675 12.1117 6.06641 12.3184H9.95312C9.95278 12.1101 9.95205 11.8947 9.99414 11.7042C10.0566 11.4215 10.1522 11.221 10.332 10.9942C10.4121 10.8933 10.5076 10.8066 10.5889 10.7364C10.6747 10.6623 10.7857 10.572 10.916 10.4659C12.6573 9.04934 13.6215 6.52483 12.4521 4.17489C11.8105 2.88564 10.5675 1.93859 9.1416 1.62313V1.62215C5.89249 0.91605 3.03027 3.36301 3.03027 6.47958Z" fill="white"/>
<path d="M10.5366 14.5001L10.6128 14.504C10.9911 14.5423 11.2866 14.8617 11.2866 15.2501C11.2866 15.6385 10.9911 15.9579 10.6128 15.9962L10.5366 16.0001H5.4624C5.04819 16.0001 4.7124 15.6643 4.7124 15.2501C4.7124 14.8359 5.04819 14.5001 5.4624 14.5001H10.5366Z" fill="white"/>
</g>
<defs>
<clipPath id="clip0_274_2382">
<rect width="16" height="16" fill="white"/>
</clipPath>
</defs>
</svg>
