<svg width="16" height="16" viewBox="0 0 16 16" fill="none" xmlns="http://www.w3.org/2000/svg">
<g clip-path="url(#clip0_274_1638)">
<path d="M8.83984 2.76258C8.83969 2.43095 8.58286 2.15661 8.25195 2.13465C7.99761 2.11787 7.75827 2.25569 7.64551 2.48426L5.18359 7.48035V13.8671H12.751C12.9462 13.8691 13.1259 13.8061 13.2578 13.705C13.3881 13.605 13.4578 13.4797 13.4775 13.3622V13.3612L14.4941 7.37977C14.5058 7.30893 14.5004 7.2359 14.4775 7.16493C14.4544 7.09334 14.4123 7.02107 14.3486 6.95496C14.2845 6.88844 14.2 6.83003 14.0986 6.78895C13.9971 6.74783 13.8837 6.72624 13.7676 6.72743H10L9.88184 6.72157C9.29682 6.66238 8.83984 6.16789 8.83984 5.56727V2.76258ZM1.5 13.288C1.50014 13.415 1.55519 13.5549 1.68359 13.6708C1.81473 13.7891 2.00827 13.8671 2.22363 13.8671H3.68359V8.05653H2.22363C2.00827 8.05653 1.81473 8.13451 1.68359 8.25282C1.55526 8.36875 1.5 8.50853 1.5 8.63563V13.288ZM10.3398 5.22743H13.7598C14.0682 5.22524 14.3753 5.28265 14.6611 5.39832C14.9494 5.51502 15.2126 5.68973 15.4287 5.91395C15.6449 6.13835 15.8093 6.40787 15.9053 6.70594C16.0013 7.00445 16.0247 7.32017 15.9727 7.62977V7.63172L14.9561 13.6122C14.8691 14.128 14.5816 14.5803 14.1709 14.8954C13.7633 15.208 13.2561 15.3697 12.7432 15.3661V15.3671H2.22363C1.65746 15.3671 1.1002 15.1643 0.678711 14.7841C0.254988 14.4017 0.000137475 13.8655 0 13.288V8.63563C0 8.05789 0.254775 7.52108 0.678711 7.13856C1.1002 6.75833 1.65747 6.55653 2.22363 6.55653H3.9668L6.2998 1.82118C6.68091 1.04802 7.49045 0.580821 8.35059 0.637582C9.46994 0.71149 10.3397 1.64081 10.3398 2.76258V5.22743Z" fill="white"/>
</g>
<defs>
<clipPath id="clip0_274_1638">
<rect width="16" height="16" fill="white"/>
</clipPath>
</defs>
</svg>
