<svg width="16" height="16" viewBox="0 0 16 16" fill="none" xmlns="http://www.w3.org/2000/svg">
<g clip-path="url(#clip0_274_1698)">
<path d="M11.6426 0.00742933C12.7949 0.0175043 13.8971 0.479831 14.712 1.29454C15.5269 2.10951 15.99 3.21235 16.0001 4.36485C16.01 5.51732 15.5663 6.62766 14.7657 7.45665L14.7569 7.46641L14.7559 7.46544L12.5694 9.65294C12.1238 10.0987 11.5876 10.4434 10.9971 10.6637C10.4066 10.884 9.77522 10.9753 9.14654 10.9303C8.518 10.8852 7.90658 10.705 7.35357 10.4029C6.99012 10.2044 6.85626 9.74883 7.05474 9.38536C7.2533 9.02192 7.70885 8.88809 8.07232 9.08653C8.43669 9.2856 8.83981 9.40453 9.25396 9.43419C9.66807 9.46384 10.0837 9.4035 10.4727 9.25841C10.8617 9.11329 11.2153 8.88604 11.5088 8.59239L13.6866 6.41466C14.214 5.86855 14.5066 5.13675 14.5001 4.37755C14.4934 3.61844 14.1882 2.89188 13.6514 2.35509C13.1146 1.81843 12.388 1.51403 11.629 1.50743C10.8735 1.50097 10.1448 1.78944 9.59966 2.31212L8.34673 3.55919L8.28911 3.61094C7.99384 3.85022 7.55895 3.8316 7.28521 3.55626C6.99343 3.26249 6.99546 2.78766 7.28911 2.49571L8.54302 1.24864L8.55083 1.24083C9.3798 0.440376 10.4903 -0.00258403 11.6426 0.00742933Z" fill="white"/>
<path d="M6.85222 5.06975C7.40239 5.10915 7.93992 5.25215 8.4362 5.48967L8.64616 5.59709L8.71159 5.63713C9.02498 5.85208 9.13092 6.27394 8.94499 6.61467C8.74639 6.97817 8.28993 7.11209 7.92643 6.9135C7.56226 6.7146 7.15966 6.59651 6.74577 6.56682C6.33176 6.53716 5.91593 6.5966 5.52702 6.74162C5.138 6.88674 4.78443 7.11399 4.49089 7.40764L2.30339 9.59514C1.78171 10.1402 1.49312 10.8677 1.49968 11.6225C1.50632 12.3816 1.81054 13.1081 2.34733 13.6449C2.88413 14.1817 3.61069 14.4859 4.36979 14.4926C5.12528 14.4992 5.85288 14.2095 6.39811 13.6869L7.64421 12.4418C7.93702 12.1492 8.4119 12.1493 8.70475 12.4418C8.99765 12.7347 8.99765 13.2104 8.70475 13.5033L7.45768 14.7494L7.44889 14.7592C6.61992 15.5598 5.50949 16.0026 4.3571 15.9926C3.2046 15.9826 2.10175 15.5205 1.28679 14.7055C0.471846 13.8905 0.00969115 12.7876 -0.000323542 11.6352C-0.0102925 10.4828 0.432535 9.37233 1.23307 8.54338L1.24284 8.53459L3.43034 6.34709C3.87592 5.9014 4.41213 5.55661 5.00261 5.33635C5.59297 5.11615 6.22373 5.02479 6.85222 5.06975Z" fill="white"/>
</g>
<defs>
<clipPath id="clip0_274_1698">
<rect width="16" height="16" fill="white"/>
</clipPath>
</defs>
</svg>
