<svg width="16" height="16" viewBox="0 0 16 16" fill="none" xmlns="http://www.w3.org/2000/svg">
<path d="M0 8C0 6.93579 0.428732 5.91728 1.18848 5.16797C1.94792 4.419 2.97631 4 4.0459 4H6.02246C6.43667 4 6.77246 4.33579 6.77246 4.75C6.77246 5.16421 6.43667 5.5 6.02246 5.5H4.0459C3.36747 5.5 2.71878 5.76631 2.24219 6.23633C1.76598 6.70599 1.5 7.34037 1.5 8C1.5 8.65963 1.76598 9.29401 2.24219 9.76367C2.47809 9.99632 2.75878 10.1821 3.06836 10.3086C3.37783 10.4349 3.71035 10.5 4.0459 10.5H6.02246L6.09961 10.5039C6.47771 10.5424 6.77246 10.8617 6.77246 11.25C6.77246 11.6383 6.47771 11.9576 6.09961 11.9961L6.02246 12H4.0459C3.5162 12 2.99092 11.8974 2.50098 11.6973C2.01091 11.4971 1.56459 11.203 1.18848 10.832C0.428732 10.0827 3.20181e-08 9.06421 0 8ZM14.5 8C14.5 7.6732 14.4347 7.34939 14.3076 7.04688C14.1805 6.74432 13.9937 6.46895 13.7578 6.23633C13.5219 6.00368 13.2412 5.81787 12.9316 5.69141C12.6222 5.56505 12.2897 5.5 11.9541 5.5H9.97754C9.56333 5.5 9.22754 5.16421 9.22754 4.75C9.22754 4.33579 9.56333 4 9.97754 4H11.9541C12.4838 4 13.0091 4.10264 13.499 4.30273C13.9891 4.50293 14.4354 4.79704 14.8115 5.16797C15.1876 5.53888 15.4863 5.97985 15.6904 6.46582C15.8946 6.95189 16 7.47326 16 8C16 8.52674 15.8946 9.04811 15.6904 9.53418C15.4863 10.0202 15.1876 10.4611 14.8115 10.832C14.4354 11.203 13.9891 11.4971 13.499 11.6973C13.0091 11.8974 12.4838 12 11.9541 12H9.97754C9.56333 12 9.22754 11.6642 9.22754 11.25C9.22754 10.8358 9.56333 10.5 9.97754 10.5H11.9541C12.2897 10.5 12.6222 10.4349 12.9316 10.3086C13.2412 10.1821 13.5219 9.99632 13.7578 9.76367C13.9937 9.53105 14.1805 9.25568 14.3076 8.95312C14.4347 8.65061 14.5 8.3268 14.5 8Z" fill="white"/>
<path d="M10.6367 7.25003C11.0509 7.25003 11.3867 7.58582 11.3867 8.00003C11.3867 8.41424 11.0509 8.75003 10.6367 8.75003H5.36426C4.95004 8.75003 4.61426 8.41424 4.61426 8.00003C4.61426 7.58582 4.95004 7.25003 5.36426 7.25003H10.6367Z" fill="white"/>
</svg>
