<svg width="16" height="16" viewBox="0 0 16 16" fill="none" xmlns="http://www.w3.org/2000/svg">
<g clip-path="url(#clip0_274_2025)">
<path d="M14.0909 14C14.0909 12.5068 14.2796 10.9889 14.3976 9.64941C14.5189 8.27203 14.5658 7.08077 14.3478 6.083C14.1385 5.12554 13.6901 4.36666 12.7911 3.80761C11.8548 3.22547 10.3606 2.81678 7.98059 2.75586C5.62264 2.69554 4.1531 3.11168 3.2345 3.73535C2.3394 4.34315 1.87178 5.21342 1.65442 6.29687C1.43224 7.40445 1.4821 8.68729 1.60266 10.0439C1.71926 11.3559 1.9093 12.7825 1.9093 14C1.9093 14.4142 1.5735 14.75 1.1593 14.75C0.745089 14.75 0.409303 14.4142 0.409303 14C0.409303 12.8708 0.234371 11.5927 0.108522 10.1768C-0.0133041 8.8059 -0.0840963 7.33708 0.183717 6.00195C0.456442 4.64254 1.08943 3.37842 2.39172 2.49414C3.67081 1.62573 5.49744 1.19129 8.01965 1.25586C10.5198 1.31989 12.3218 1.74897 13.5831 2.5332C14.8815 3.34052 15.5328 4.47783 15.8136 5.76269C16.0856 7.00737 16.0129 8.40545 15.8917 9.78125C15.7672 11.195 15.5909 12.5945 15.5909 14C15.5909 14.4142 15.2552 14.75 14.8409 14.75C14.4267 14.75 14.0909 14.4142 14.0909 14Z" fill="white"/>
<path d="M3.90332 8.54581L3.90332 6.90909C3.90332 6.49487 4.23911 6.15909 4.65332 6.15909C5.06753 6.15909 5.40332 6.49487 5.40332 6.90909L5.40332 8.54581C5.40313 8.95986 5.06742 9.29581 4.65332 9.29581C4.23923 9.29581 3.90351 8.95986 3.90332 8.54581Z" fill="white"/>
<path d="M10.5957 8.54581L10.5957 6.90909C10.5957 6.49487 10.9315 6.15909 11.3457 6.15909C11.7599 6.15909 12.0957 6.49487 12.0957 6.90909L12.0957 8.54581C12.0955 8.95986 11.7598 9.29581 11.3457 9.29581C10.9316 9.29581 10.5959 8.95986 10.5957 8.54581Z" fill="white"/>
<path d="M8.1913 9.66715C8.34472 9.68436 8.49104 9.7282 8.66005 9.77652L10.3876 10.2697C10.5941 10.3287 10.7507 10.4993 10.7919 10.7101C10.833 10.9208 10.7528 11.1372 10.5839 11.2697L9.48134 12.1339C9.12015 12.4171 8.81252 12.6711 8.45107 12.7697C8.15609 12.85 7.84468 12.85 7.5497 12.7697C7.18821 12.6712 6.88066 12.4171 6.51942 12.1339L5.41689 11.2697C5.24787 11.1372 5.16772 10.9209 5.20888 10.7101C5.25011 10.4993 5.40568 10.3287 5.6122 10.2697L7.34071 9.77652C7.50976 9.7282 7.65601 9.68435 7.80946 9.66715C7.93611 9.65299 8.06466 9.65298 8.1913 9.66715ZM7.93642 10.8029C7.89991 10.807 7.85895 10.8169 7.65517 10.8752L7.00282 11.0607L7.2245 11.2345C7.66966 11.5835 7.76627 11.6442 7.85048 11.6671C7.94869 11.6938 8.05208 11.6939 8.15028 11.6671C8.23449 11.6442 8.33111 11.5835 8.77626 11.2345L8.99696 11.0607L8.3456 10.8752C8.14095 10.8166 8.09999 10.807 8.06337 10.8029C8.0213 10.7982 7.97849 10.7982 7.93642 10.8029Z" fill="white"/>
</g>
<defs>
<clipPath id="clip0_274_2025">
<rect width="16" height="16" fill="white"/>
</clipPath>
</defs>
</svg>
