<svg width="16" height="16" viewBox="0 0 16 16" fill="none" xmlns="http://www.w3.org/2000/svg">
<g clip-path="url(#clip0_274_1828)">
<rect x="0.75" y="0.75" width="14.5" height="14.5" rx="3.25" stroke="white" stroke-width="1.5"/>
<path d="M10.8955 4.25L10.9772 4.25391C11.3828 4.29226 11.6998 4.61163 11.6998 5C11.6998 5.38837 11.3828 5.70774 10.9772 5.74609L10.8955 5.75H5.10411C4.6599 5.75 4.2998 5.41421 4.2998 5C4.2998 4.58579 4.6599 4.25 5.10411 4.25H10.8955Z" fill="white"/>
<path d="M7.0498 7.25C7.46402 7.25 7.7998 7.58579 7.7998 8C7.7998 8.41421 7.46402 8.75 7.0498 8.75H5.0498C4.63559 8.75 4.2998 8.41421 4.2998 8C4.2998 7.58579 4.63559 7.25 5.0498 7.25H7.0498Z" fill="white"/>
<path d="M8.5498 10.25C8.96402 10.25 9.2998 10.5858 9.2998 11C9.2998 11.4142 8.96402 11.75 8.5498 11.75H5.0498C4.63559 11.75 4.2998 11.4142 4.2998 11C4.2998 10.5858 4.63559 10.25 5.0498 10.25H8.5498Z" fill="white"/>
</g>
<defs>
<clipPath id="clip0_274_1828">
<rect width="16" height="16" fill="white"/>
</clipPath>
</defs>
</svg>
