<svg width="16" height="16" viewBox="0 0 16 16" fill="none" xmlns="http://www.w3.org/2000/svg">
<path d="M8 2.16524e-07C8.51312 2.3399e-07 8.94065 -0.000342539 9.28906 0.0263674C9.64523 0.0536979 9.98061 0.112266 10.3008 0.263672C10.8759 0.535694 11.3393 0.999075 11.6113 1.57422C11.7627 1.89439 11.8213 2.22977 11.8486 2.58594C11.8753 2.93436 11.875 3.36188 11.875 3.875V4L11.8711 4.07715C11.8325 4.45512 11.5132 4.75 11.125 4.75C10.7368 4.75 10.4175 4.45512 10.3789 4.07715L10.375 4V3.875C10.375 3.33885 10.3748 2.97893 10.3535 2.70117C10.3328 2.43153 10.2954 2.30148 10.2549 2.21582C10.1312 1.95439 9.92061 1.74376 9.65918 1.62012C9.57352 1.57964 9.44348 1.54216 9.17383 1.52148C8.89607 1.5002 8.53615 1.5 8 1.5C7.46385 1.5 7.10393 1.5002 6.82617 1.52148C6.55653 1.54216 6.42648 1.57964 6.34082 1.62012C6.07939 1.74376 5.86876 1.95439 5.74512 2.21582C5.70464 2.30148 5.66716 2.43153 5.64648 2.70117C5.6252 2.97893 5.625 3.33885 5.625 3.875V6.00391C5.90224 6.00116 6.20871 6 6.5498 6H9.4502L10.5625 6.00488C11.5377 6.02021 12.131 6.0819 12.6123 6.32715C13.1765 6.61472 13.6353 7.07347 13.9229 7.6377C14.2498 8.27941 14.25 9.11978 14.25 10.7998V11.2002L14.2451 12.3125C14.2298 13.2877 14.1681 13.881 13.9229 14.3623L13.8076 14.5684C13.5194 15.0383 13.1062 15.4211 12.6123 15.6729L12.4893 15.7305C12.0293 15.9281 11.4566 15.9811 10.5625 15.9951L9.4502 16H6.5498C4.86978 16 4.02941 15.9998 3.3877 15.6729C2.89381 15.4211 2.48057 15.0383 2.19238 14.5684L2.07715 14.3623C1.8319 13.881 1.77021 13.2877 1.75488 12.3125L1.75 11.2002V10.7998C1.75 9.22468 1.75007 8.38795 2.01953 7.76074L2.07715 7.6377C2.32888 7.14381 2.71166 6.73057 3.18164 6.44238L3.3877 6.32715C3.60291 6.21749 3.84091 6.1471 4.125 6.09863V3.875C4.125 3.36188 4.12466 2.93435 4.15137 2.58594C4.1787 2.22976 4.23727 1.8944 4.38867 1.57422C4.66069 0.999075 5.12407 0.535695 5.69922 0.263672C6.01939 0.112267 6.35477 0.0536975 6.71094 0.0263674C7.05935 -0.000342777 7.48688 1.95876e-07 8 2.16524e-07ZM6.5498 7.5C5.68534 7.5 5.12708 7.50144 4.70215 7.53613C4.29542 7.56936 4.14365 7.6253 4.06934 7.66309C3.78709 7.8069 3.5569 8.03709 3.41309 8.31934C3.3753 8.39365 3.31936 8.54542 3.28613 8.95215C3.25144 9.37708 3.25 9.93534 3.25 10.7998V11.2002C3.25 12.0647 3.25144 12.6229 3.28613 13.0479C3.31936 13.4546 3.3753 13.6063 3.41309 13.6807C3.5569 13.9629 3.78709 14.1931 4.06934 14.3369C4.14365 14.3747 4.29542 14.4306 4.70215 14.4639C5.12708 14.4986 5.68534 14.5 6.5498 14.5H9.4502C10.3147 14.5 10.8729 14.4986 11.2979 14.4639C11.7046 14.4306 11.8563 14.3747 11.9307 14.3369C12.2129 14.1931 12.4431 13.9629 12.5869 13.6807C12.6247 13.6063 12.6806 13.4546 12.7139 13.0479C12.7486 12.6229 12.75 12.0647 12.75 11.2002V10.7998C12.75 9.93534 12.7486 9.37708 12.7139 8.95215C12.6806 8.54542 12.6247 8.39365 12.5869 8.31934C12.4431 8.03709 12.2129 7.8069 11.9307 7.66309C11.8563 7.6253 11.7046 7.56936 11.2979 7.53613C10.8729 7.50144 10.3147 7.5 9.4502 7.5H6.5498Z" fill="white"/>
</svg>
