<svg width="16" height="16" viewBox="0 0 16 16" fill="none" xmlns="http://www.w3.org/2000/svg">
<g clip-path="url(#clip0_274_2672)">
<path d="M0 7.88385C0.000137104 4.87112 2.45672 2.41218 5.45801 2.41218H5.45996L8.34375 2.41999L7.92969 2.02253L7.87695 1.96686C7.63053 1.67737 7.63842 1.24227 7.90723 0.96198C8.17592 0.682031 8.60973 0.656038 8.90918 0.889714L8.96777 0.940495L10.7354 2.63483C10.9565 2.84706 11.0259 3.17285 10.9111 3.4571C10.7964 3.74129 10.5203 3.92662 10.2139 3.92585L5.45703 3.91218C3.28751 3.91258 1.50014 5.69679 1.5 7.88385C1.5 8.90464 1.89003 9.84047 2.53223 10.5469L2.66406 10.6856L2.71484 10.7423C2.95526 11.0368 2.93858 11.4715 2.66406 11.7462C2.38956 12.0207 1.95473 12.0379 1.66016 11.7979L1.60254 11.7462L1.42188 11.5567C0.539397 10.5859 0 9.294 0 7.88385Z" fill="white"/>
<path d="M14.5005 8.11628C14.5005 7.02744 14.0567 6.03478 13.3364 5.31452C13.0438 5.02167 13.0438 4.54682 13.3364 4.25397C13.6292 3.96114 14.104 3.96126 14.397 4.25397C15.386 5.24299 16.0005 6.61222 16.0005 8.11628C16.0003 11.129 13.5437 13.588 10.5425 13.588H10.5405L7.65476 13.5782L8.07078 13.9776L8.12351 14.0333C8.36976 14.3227 8.36177 14.7569 8.09324 15.0372C7.80654 15.3361 7.33165 15.3463 7.03269 15.0596L5.26511 13.3653C5.04388 13.1531 4.9746 12.8273 5.08933 12.543C5.2041 12.2588 5.48011 12.0725 5.7866 12.0733L10.5425 12.087C12.7123 12.087 14.5003 10.3035 14.5005 8.11628Z" fill="white"/>
</g>
<defs>
<clipPath id="clip0_274_2672">
<rect width="16" height="16" fill="white"/>
</clipPath>
</defs>
</svg>
