<svg width="16" height="16" viewBox="0 0 16 16" fill="none" xmlns="http://www.w3.org/2000/svg">
<g clip-path="url(#clip0_274_2008)">
<path d="M0 7.88388C0.000134253 4.87115 2.45672 2.41221 5.45801 2.41221H5.45996L8.34375 2.42002L7.92969 2.02256L7.87695 1.96689C7.63053 1.6774 7.63842 1.2423 7.90723 0.96201C8.17592 0.68206 8.60973 0.656069 8.90918 0.889744L8.96777 0.940526L10.7354 2.63486C10.9565 2.84709 11.0259 3.17288 10.9111 3.45713C10.7964 3.74132 10.5203 3.92665 10.2139 3.92588L5.45703 3.91221C3.28751 3.91261 1.50013 5.69682 1.5 7.88388C1.5 8.90466 1.89003 9.8405 2.53223 10.547L2.66406 10.6856L2.71484 10.7423C2.95527 11.0368 2.93859 11.4715 2.66406 11.7462C2.38956 12.0207 1.95473 12.038 1.66016 11.7979L1.60352 11.7462L1.42188 11.5567C0.539399 10.5859 0 9.29403 0 7.88388Z" fill="white"/>
<path d="M14.5 8.11631C14.5 7.02748 14.0562 6.03482 13.3359 5.31455C13.0433 5.0217 13.0433 4.54685 13.3359 4.254C13.6287 3.96117 14.1036 3.96129 14.3965 4.254C15.3855 5.24302 16 6.61224 16 8.11631C15.9998 11.129 13.5432 13.588 10.542 13.588H10.54L7.65427 13.5782L8.07029 13.9776L8.12302 14.0333C8.36927 14.3227 8.36128 14.7569 8.09275 15.0372C7.80605 15.3362 7.33116 15.3464 7.0322 15.0597L5.26463 13.3653C5.04339 13.1531 4.97411 12.8273 5.08884 12.5431C5.20361 12.2589 5.47962 12.0725 5.78611 12.0733L10.542 12.087C12.7118 12.087 14.4998 10.3036 14.5 8.11631Z" fill="white"/>
<path d="M7.5 9.93344V7.06625C7.5 6.92818 7.38807 6.81625 7.25 6.81625C6.83579 6.81625 6.5 6.48047 6.5 6.06625C6.5 5.65204 6.83579 5.31625 7.25 5.31625C8.2165 5.31625 9 6.09976 9 7.06625V9.93344C9 10.3477 8.66421 10.6834 8.25 10.6834C7.83579 10.6834 7.5 10.3477 7.5 9.93344Z" fill="white"/>
</g>
<defs>
<clipPath id="clip0_274_2008">
<rect width="16" height="16" fill="white"/>
</clipPath>
</defs>
</svg>
