<svg width="16" height="16" viewBox="0 0 16 16" fill="none" xmlns="http://www.w3.org/2000/svg">
<g clip-path="url(#clip0_274_1856)">
<path d="M9.2998 1.24994C9.84748 1.24994 10.3037 1.24892 10.6748 1.27924C11.0545 1.31027 11.4109 1.37805 11.748 1.54975C12.2655 1.81339 12.6865 2.23447 12.9502 2.7519C13.0907 3.02785 13.1591 3.31705 13.1973 3.62104C14.8096 4.04077 16 5.5062 16 7.24994V9.24994C16 10.0545 16.0001 10.6985 15.9619 11.2197C15.9231 11.7484 15.8416 12.2102 15.6475 12.6415C15.2464 13.5328 14.5328 14.2463 13.6416 14.6474C13.2102 14.8415 12.7485 14.923 12.2197 14.9619C11.6985 15.0001 11.0546 14.9999 10.25 14.9999H5.75C4.9454 14.9999 4.30149 15.0001 3.78027 14.9619C3.25153 14.923 2.78979 14.8415 2.3584 14.6474C1.46718 14.2463 0.753648 13.5328 0.35254 12.6415C0.158422 12.2102 0.0768921 11.7484 0.038087 11.2197C-0.000142757 10.6985 -1.82691e-05 10.0545 1.04508e-06 9.24994V7.24994C2.66118e-05 5.41553 1.31742 3.88933 3.05762 3.5644C3.09732 3.28099 3.16796 3.01076 3.29981 2.7519C3.56346 2.23447 3.98452 1.81339 4.50195 1.54975C4.83909 1.37804 5.19547 1.31027 5.5752 1.27924C5.94632 1.24892 6.40252 1.24994 6.9502 1.24994H9.2998ZM10.5703 8.64154C10.2095 8.95085 9.90744 9.21101 9.64258 9.40522C9.37028 9.60485 9.09373 9.76872 8.76953 9.86322C8.26724 10.0095 7.73276 10.0095 7.23047 9.86322C6.90628 9.76872 6.62972 9.60485 6.35742 9.40522C6.09256 9.21101 5.79054 8.95084 5.42969 8.64154L2.06738 5.75873C1.71514 6.15586 1.50001 6.67738 1.5 7.24994V9.24994C1.49998 10.0768 1.50089 10.6567 1.53418 11.1103C1.56692 11.5563 1.62858 11.8216 1.7207 12.0263C1.97136 12.583 2.41698 13.0286 2.97363 13.2792C3.17838 13.3714 3.44359 13.433 3.88965 13.4658C4.34326 13.4991 4.92309 13.4999 5.75 13.4999H10.25C11.0769 13.4999 11.6567 13.4991 12.1104 13.4658C12.5564 13.433 12.8216 13.3714 13.0264 13.2792C13.583 13.0286 14.0286 12.583 14.2793 12.0263C14.3714 11.8216 14.4331 11.5563 14.4658 11.1103C14.4991 10.6567 14.5 10.0768 14.5 9.24994V7.24994C14.5 6.67715 14.2841 6.15592 13.9316 5.75873L10.5703 8.64154ZM6.9502 2.74994C6.37777 2.74994 5.99314 2.75018 5.69727 2.77436C5.41029 2.79782 5.27316 2.84053 5.18262 2.88666C4.94752 3.00648 4.75655 3.19746 4.63672 3.43256C4.59059 3.5231 4.54788 3.66025 4.52441 3.94721C4.50024 4.24308 4.5 4.62774 4.5 5.20014V5.86908L6.40527 7.50287C6.78344 7.82702 7.03588 8.04255 7.24414 8.19526C7.44474 8.34234 7.56042 8.39657 7.65039 8.42279C7.8787 8.4893 8.1213 8.4893 8.34961 8.42279C8.43958 8.39657 8.55525 8.34235 8.75586 8.19526C8.96412 8.04255 9.21655 7.82702 9.59473 7.50287L11.75 5.65424V5.20014C11.75 4.62774 11.7498 4.24308 11.7256 3.94721C11.7021 3.66025 11.6594 3.5231 11.6133 3.43256C11.4935 3.19746 11.3025 3.00648 11.0674 2.88666C10.9768 2.84053 10.8397 2.79782 10.5527 2.77436C10.2569 2.75018 9.87223 2.74994 9.2998 2.74994H6.9502Z" fill="white"/>
</g>
<defs>
<clipPath id="clip0_274_1856">
<rect width="16" height="16" fill="white"/>
</clipPath>
</defs>
</svg>
