<svg width="16" height="16" viewBox="0 0 16 16" fill="none" xmlns="http://www.w3.org/2000/svg">
<g clip-path="url(#clip0_274_2524)">
<path d="M10.25 2.25C11.0546 2.25 11.6985 2.24984 12.2197 2.28809C12.7485 2.32691 13.2102 2.40838 13.6416 2.60254C14.5327 3.00368 15.2464 3.71722 15.6475 4.6084C15.8415 5.03971 15.9231 5.50164 15.9619 6.03027C16.0001 6.55143 16 7.1956 16 8C16 8.80442 16.0001 9.44859 15.9619 9.96973C15.9231 10.4983 15.8415 10.9603 15.6475 11.3916C15.2463 12.2827 14.5327 12.9964 13.6416 13.3975C13.2102 13.5916 12.7484 13.6731 12.2197 13.7119C11.6985 13.7502 11.0546 13.75 10.25 13.75H5.75C4.94541 13.75 4.30148 13.7502 3.78027 13.7119C3.25159 13.6731 2.78975 13.5916 2.3584 13.3975C1.46727 12.9964 0.753677 12.2827 0.35254 11.3916C0.158452 10.9603 0.0769043 10.4983 0.038087 9.96973C-0.000140809 9.44859 -1.83009e-05 8.80442 1.04363e-06 8C1.04363e-06 7.1956 -0.000127874 6.55143 0.038087 6.03027C0.0769 5.50164 0.158488 5.03971 0.35254 4.6084C0.753627 3.71722 1.46725 3.00369 2.3584 2.60254C2.7898 2.40838 3.25152 2.32691 3.78027 2.28809C4.30149 2.24984 4.9454 2.25 5.75 2.25H10.25ZM10.5713 7.53027C10.2106 7.83946 9.90835 8.09976 9.64355 8.29395C9.37137 8.49349 9.09451 8.65743 8.77051 8.75195C8.26837 8.89822 7.73361 8.89814 7.23145 8.75195C6.90737 8.65748 6.6306 8.49348 6.3584 8.29395C6.0936 8.09978 5.7914 7.83948 5.43066 7.53027L2.0752 4.6543C1.93304 4.8258 1.81359 5.01736 1.7207 5.22363C1.62862 5.42836 1.56692 5.69373 1.53418 6.13965C1.51755 6.36634 1.50916 6.62491 1.50488 6.92969L1.5 8C1.49998 8.82672 1.50089 9.40681 1.53418 9.86035C1.56693 10.3062 1.62859 10.5717 1.7207 10.7764C1.97139 11.3329 2.41708 11.7787 2.97363 12.0293C3.17836 12.1214 3.44368 12.1831 3.88965 12.2158C4.34326 12.2491 4.9231 12.25 5.75 12.25H10.25C11.0769 12.25 11.6567 12.2491 12.1104 12.2158C12.5563 12.1831 12.8216 12.1214 13.0264 12.0293C13.5829 11.7787 14.0286 11.3329 14.2793 10.7764C14.3714 10.5717 14.4331 10.3062 14.4658 9.86035C14.4825 9.63368 14.4908 9.37507 14.4951 9.07031L14.5 8C14.5 7.17327 14.4991 6.59323 14.4658 6.13965C14.4331 5.69373 14.3714 5.42836 14.2793 5.22363C14.1864 5.01736 14.067 4.8258 13.9248 4.6543L10.5713 7.53027ZM5.75 3.75C4.92311 3.75 4.34326 3.75087 3.88965 3.78418C3.70894 3.79745 3.55806 3.81601 3.42871 3.83887L6.40625 6.3916C6.78428 6.71563 7.0369 6.93131 7.24512 7.08398C7.44554 7.23091 7.56144 7.28531 7.65137 7.31152C7.87955 7.3779 8.12242 7.37799 8.35059 7.31152C8.44049 7.28525 8.55655 7.23084 8.75684 7.08398C8.96504 6.93129 9.21771 6.7156 9.5957 6.3916L12.5713 3.83984C12.4419 3.81698 12.2911 3.79746 12.1104 3.78418C11.6567 3.75087 11.0769 3.75 10.25 3.75H5.75Z" fill="white"/>
</g>
<defs>
<clipPath id="clip0_274_2524">
<rect width="16" height="16" fill="white"/>
</clipPath>
</defs>
</svg>
