<svg width="16" height="16" viewBox="0 0 16 16" fill="none" xmlns="http://www.w3.org/2000/svg">
<g clip-path="url(#clip0_274_1843)">
<path d="M5.21305 1.43478C5.45779 1.39398 5.70853 1.39405 5.95328 1.43478C6.25104 1.48441 6.52776 1.61193 6.84781 1.75216L9.75504 3.0256C10.1428 3.19549 10.2227 3.22468 10.2931 3.23654C10.3746 3.25012 10.4587 3.25006 10.5402 3.23654C10.6108 3.22476 10.6903 3.196 11.0793 3.0256L11.5861 2.80294C12.1333 2.56321 12.5911 2.36235 12.9679 2.23654C13.3456 2.11051 13.7446 2.02301 14.1574 2.09884C14.7504 2.20809 15.2754 2.55072 15.6134 3.05001C15.8489 3.39781 15.9289 3.79878 15.965 4.19552C16.001 4.59126 16.0002 5.09117 16.0002 5.68869V10.6916C15.9964 11.0526 15.9744 11.3797 15.8644 11.6819C15.7444 12.0112 15.5491 12.3086 15.2941 12.5491C14.9823 12.8428 14.5678 13.0102 14.0968 13.2131L11.6711 14.258C11.353 14.3951 11.0779 14.5187 10.7824 14.5666C10.5393 14.606 10.2908 14.6056 10.048 14.5647C9.75266 14.5148 9.47777 14.3893 9.16032 14.2502L6.25406 12.9768C5.86163 12.8049 5.78128 12.7756 5.71012 12.7639C5.62807 12.7505 5.54403 12.7509 5.46207 12.7649C5.39111 12.7771 5.31069 12.8067 4.92008 12.9807L4.4318 13.1975C3.88277 13.4421 3.42399 13.6479 3.04605 13.7766C2.66746 13.9054 2.26651 13.9957 1.85172 13.9211C1.25658 13.8139 0.728766 13.4711 0.388826 12.9709C0.152147 12.6224 0.0716361 12.2197 0.0353107 11.8215C-0.000899315 11.4239 0.000153943 10.9215 0.000154436 10.3205V5.70334C0.000154436 5.19361 -0.0100258 4.74958 0.13492 4.34884C0.25361 4.02112 0.446894 3.72488 0.699374 3.48459C1.00818 3.1909 1.41905 3.02213 1.8859 2.81759L4.31949 1.75216C4.63932 1.61203 4.91557 1.48454 5.21305 1.43478ZM13.8859 3.57443C13.8462 3.56722 13.7374 3.56101 13.4425 3.65939C13.1458 3.7585 12.7612 3.92568 12.1877 4.17697L11.6808 4.39963C11.4998 4.47894 11.3319 4.55146 11.1672 4.61056V12.841L13.5031 11.8352C14.0795 11.5869 14.1917 11.527 14.2648 11.4582C14.3497 11.3782 14.4152 11.2787 14.4552 11.1692C14.4896 11.0747 14.5002 10.9486 14.5002 10.3196V5.68869C14.5002 5.06213 14.4992 4.64293 14.4709 4.33127C14.4426 4.02063 14.3937 3.92397 14.3713 3.89084C14.2586 3.72451 14.0835 3.61083 13.8859 3.57443ZM6.33414 11.3869C6.50161 11.4469 6.67162 11.5221 6.85563 11.6028L9.66715 12.8342V4.61056C9.50215 4.55144 9.33368 4.47901 9.1525 4.39963L6.33414 3.16427V11.3869ZM2.48844 4.19162C1.91642 4.44225 1.80601 4.50264 1.73355 4.5715C1.6495 4.65156 1.5846 4.75044 1.54508 4.85959C1.51117 4.95358 1.50016 5.07907 1.50016 5.70334V10.3205C1.50016 10.9506 1.50087 11.3723 1.52945 11.6858C1.55798 11.9984 1.60764 12.0952 1.63004 12.1282C1.74329 12.2947 1.91912 12.4088 2.11734 12.4446C2.15655 12.4516 2.26567 12.4577 2.56266 12.3567C2.8606 12.2552 3.24602 12.0837 3.82145 11.8274L4.30973 11.6106C4.49465 11.5282 4.66579 11.4509 4.83414 11.3899V3.1633L2.48844 4.19162Z" fill="white"/>
</g>
<defs>
<clipPath id="clip0_274_1843">
<rect width="16" height="16" fill="white"/>
</clipPath>
</defs>
</svg>
