<svg width="16" height="16" viewBox="0 0 16 16" fill="none" xmlns="http://www.w3.org/2000/svg">
<g clip-path="url(#clip0_274_2405)">
<path d="M11.8972 0C12.9236 3.26541e-05 13.8092 0.19247 14.4636 0.796875C15.0276 1.31793 15.3127 2.04724 15.4675 2.88965L15.5261 3.25684L15.529 3.28418L15.7322 5.27734V5.2793C15.807 6.03114 15.6278 6.73131 15.2673 7.30371C15.2748 7.34621 15.279 7.38993 15.279 7.43457V10.6895C15.279 12.3914 14.9421 13.7783 13.9997 14.7207C13.0573 15.663 11.6704 16 9.9685 16H6.06127C4.35937 16 2.97243 15.6631 2.03002 14.7207C1.08767 13.7783 0.750734 12.3914 0.750723 10.6895V7.43457C0.750723 7.40352 0.752917 7.37284 0.756582 7.34277C0.379607 6.76347 0.191818 6.048 0.268301 5.2793L0.46459 3.28711L0.46752 3.25684C0.605647 2.25946 0.885535 1.39226 1.53002 0.796875C2.18447 0.192475 3.07003 2.83212e-05 4.09643 0H11.8972ZM5.73803 7.69238C5.15008 8.33829 4.30743 8.75 3.40697 8.75C2.99486 8.74993 2.60583 8.67608 2.25072 8.54199V10.6895C2.25073 12.2425 2.56678 13.1363 3.09057 13.6602C3.6144 14.184 4.50816 14.5 6.06127 14.5H9.9685C11.5216 14.5 12.4153 14.1839 12.9392 13.6602C13.463 13.1363 13.779 12.2426 13.779 10.6895V8.53027C13.416 8.6715 13.0171 8.74997 12.5935 8.75C11.7009 8.74999 10.8648 8.34762 10.2771 7.71289C9.7457 8.34728 8.94459 8.75 8.0183 8.75C7.08094 8.74989 6.26892 8.34011 5.73803 7.69238ZM4.09643 1.5C3.22366 1.50003 2.79569 1.67025 2.5476 1.89941C2.28978 2.1378 2.07666 2.57592 1.95385 3.46289L1.76147 5.42676V5.42773C1.66027 6.4449 2.38786 7.24969 3.40697 7.25C4.21983 7.25 4.97499 6.56887 5.05346 5.75977V5.75781L5.21264 4.15527L5.47826 1.5H4.09643ZM6.58959 5.66797C6.50323 6.55445 7.13722 7.2498 8.0183 7.25C8.81277 7.25 9.40402 6.68473 9.44994 5.92383C9.44941 5.91893 9.44849 5.91408 9.44799 5.90918L9.44701 5.90723L9.00756 1.5H7.00854L6.58959 5.66797ZM10.9402 5.51953L10.9519 5.68457C10.9545 5.74126 10.9552 5.79758 10.9548 5.85352L10.9636 5.90625C11.119 6.65146 11.8324 7.24999 12.5935 7.25C13.6122 7.24986 14.3402 6.44616 14.24 5.42969L14.0398 3.46289L13.99 3.15039C13.8634 2.46936 13.6716 2.10797 13.446 1.89941C13.1979 1.67025 12.77 1.50003 11.8972 1.5H10.5427L10.9402 5.51953Z" fill="white"/>
</g>
<defs>
<clipPath id="clip0_274_2405">
<rect width="16" height="16" fill="white"/>
</clipPath>
</defs>
</svg>
