<svg width="16" height="16" viewBox="0 0 16 16" fill="none" xmlns="http://www.w3.org/2000/svg">
<path d="M11.0059 1.25223L13.3652 1.27078L13.4414 1.27567C13.8193 1.31705 14.1114 1.63834 14.1084 2.02664C14.1053 2.41498 13.8082 2.73245 13.4297 2.76785L13.3525 2.77078L10.998 2.75223C9.08074 2.75181 8.00453 3.73147 7.36719 4.88895C6.70577 6.09038 6.54492 7.45719 6.54492 8.00028C6.54477 8.41421 6.20884 8.75004 5.79492 8.75028C4.98617 8.75028 4.18625 8.4526 3.58105 7.95145C3.15115 7.59535 2.80106 7.11801 2.63184 6.55301H1.55859C1.63945 7.10763 1.82086 7.78786 2.2041 8.39774C2.72266 9.22272 3.65043 9.99324 5.42676 10.0862L5.79297 10.096H5.79492C6.20893 10.0962 6.54492 10.4319 6.54492 10.846C6.54495 11.4381 6.94577 12.0289 7.64258 12.5169C8.25131 12.9431 8.93808 13.1833 9.39453 13.2366L9.5752 13.2473L9.65137 13.2513C10.0297 13.2894 10.325 13.609 10.3252 13.9973C10.3252 14.3858 10.0298 14.7052 9.65137 14.7434L9.5752 14.7473L9.41797 14.7434C8.618 14.6987 7.60657 14.3226 6.78223 13.7454C6.07453 13.2498 5.38009 12.5134 5.13672 11.5667C3.00667 11.3969 1.69325 10.4034 0.93457 9.19656C0.135442 7.92522 4.54702e-06 6.5033 0 5.80301C0 5.3888 0.335786 5.05301 0.75 5.05301H3.27148C3.68569 5.05302 4.02148 5.3888 4.02148 5.80301C4.0215 6.16742 4.20163 6.5175 4.53809 6.79617C4.70502 6.93441 4.90138 7.04543 5.11133 7.12332C5.22022 6.30465 5.48419 5.19804 6.05273 4.16531C6.893 2.63924 8.41893 1.25108 11 1.25223H11.0059ZM14.5 7.06375C14.5 6.583 14.4995 6.21463 14.4814 5.91727C14.463 5.61311 14.4294 5.45474 14.3965 5.37235C14.3897 5.35532 14.3831 5.34552 14.3799 5.34012C14.3509 5.32658 14.2488 5.29227 13.9893 5.29227H11.4678C11.0536 5.29226 10.7178 4.95646 10.7178 4.54227C10.7178 4.12806 11.0536 3.79228 11.4678 3.79227H13.9893C14.3513 3.79227 14.7241 3.83451 15.0537 3.9993C15.4173 4.1811 15.6518 4.47252 15.7891 4.81571C15.9135 5.12717 15.9576 5.48096 15.9785 5.82645C15.9999 6.17915 16 6.59895 16 7.06375C16 8.33451 14.9271 8.97966 14.0859 9.2825C13.1896 9.60518 12.1506 9.70438 11.4678 9.70438C11.0536 9.70437 10.7178 9.36858 10.7178 8.95438C10.718 8.54037 11.0537 8.20439 11.4678 8.20438C12.0455 8.20438 12.8976 8.11587 13.5771 7.87137C14.3118 7.60688 14.5 7.30578 14.5 7.06375Z" fill="white"/>
<path d="M10.25 6.52075C10.25 7.07304 9.80228 7.52075 9.25 7.52075C8.69772 7.52075 8.25 7.07304 8.25 6.52075C8.25 5.96847 8.69772 5.52075 9.25 5.52075C9.80228 5.52075 10.25 5.96847 10.25 6.52075Z" fill="white"/>
</svg>
