<svg width="16" height="16" viewBox="0 0 16 16" fill="none" xmlns="http://www.w3.org/2000/svg">
<g clip-path="url(#clip0_274_1847)">
<path d="M6.01991 0.219713C6.31278 -0.0731478 6.78756 -0.0730837 7.08046 0.219713C7.37335 0.512607 7.37335 0.987367 7.08046 1.28026L1.28066 7.08006C0.987764 7.37296 0.513003 7.37296 0.22011 7.08006C-0.072687 6.78716 -0.072751 6.31238 0.22011 6.01952L6.01991 0.219713Z" fill="white"/>
<path d="M14.7191 8.9197C15.012 8.62683 15.4868 8.6269 15.7797 8.9197C16.0726 9.21259 16.0726 9.68735 15.7797 9.98024L9.97988 15.78C9.68698 16.0729 9.21222 16.0729 8.91933 15.78C8.62653 15.4871 8.62647 15.0124 8.91933 14.7195L14.7191 8.9197Z" fill="white"/>
<path d="M13.7202 1.21973C14.0131 0.92684 14.4878 0.926837 14.7807 1.21973C15.0736 1.51262 15.0736 1.98738 14.7807 2.28028L2.2807 14.7803C1.98781 15.0732 1.51305 15.0732 1.22016 14.7803C0.927264 14.4874 0.927267 14.0126 1.22016 13.7197L13.7202 1.21973Z" fill="white"/>
</g>
<defs>
<clipPath id="clip0_274_1847">
<rect width="16" height="16" fill="white"/>
</clipPath>
</defs>
</svg>
