<svg width="16" height="16" viewBox="0 0 16 16" fill="none" xmlns="http://www.w3.org/2000/svg">
<rect x="0.75" y="2.75" width="14.5" height="10.5" rx="2.25" stroke="white" stroke-width="1.5"/>
<path d="M9.25 6.59961C9.25 6.30744 9.2498 6.13298 9.23926 6.00391C9.22942 5.88384 9.21431 5.87034 9.22266 5.88672C9.19869 5.83968 9.16032 5.80131 9.11328 5.77734C9.12966 5.78569 9.11616 5.77058 8.99609 5.76074C8.86702 5.7502 8.69256 5.75 8.40039 5.75H4.59961C4.30744 5.75 4.13298 5.7502 4.00391 5.76074C3.88384 5.77058 3.87034 5.78569 3.88672 5.77734C3.83968 5.80131 3.80131 5.83968 3.77734 5.88672C3.78569 5.87034 3.77058 5.88384 3.76074 6.00391C3.7502 6.13298 3.75 6.30744 3.75 6.59961V9.40039L3.75195 9.75879C3.75342 9.85517 3.75546 9.93146 3.76074 9.99609C3.77058 10.1162 3.78569 10.1297 3.77734 10.1133C3.80131 10.1603 3.83968 10.1987 3.88672 10.2227C3.87034 10.2143 3.88384 10.2294 4.00391 10.2393C4.13298 10.2498 4.30744 10.25 4.59961 10.25H8.40039C8.69256 10.25 8.86702 10.2498 8.99609 10.2393C9.11616 10.2294 9.12966 10.2143 9.11328 10.2227C9.16032 10.1987 9.19869 10.1603 9.22266 10.1133C9.21431 10.1297 9.22942 10.1162 9.23926 9.99609C9.2498 9.86702 9.25 9.69256 9.25 9.40039V6.59961ZM10.75 9.40039C10.75 9.66789 10.7501 9.91389 10.7334 10.1182C10.716 10.3312 10.6769 10.5647 10.5596 10.7949C10.3918 11.124 10.124 11.3918 9.79492 11.5596C9.56473 11.6769 9.33121 11.716 9.11816 11.7334C8.91389 11.7501 8.66789 11.75 8.40039 11.75H4.59961C4.33211 11.75 4.08611 11.7501 3.88184 11.7334C3.66879 11.716 3.43527 11.6769 3.20508 11.5596C2.87597 11.3918 2.60818 11.124 2.44043 10.7949C2.32314 10.5647 2.28403 10.3312 2.2666 10.1182C2.25824 10.0159 2.25389 9.90285 2.25195 9.78223L2.25 9.40039V6.59961C2.25 6.33211 2.24991 6.08611 2.2666 5.88184C2.28403 5.66879 2.32314 5.43527 2.44043 5.20508C2.60818 4.87597 2.87597 4.60818 3.20508 4.44043C3.43527 4.32314 3.66879 4.28403 3.88184 4.2666C4.08611 4.24991 4.33211 4.25 4.59961 4.25H8.40039C8.66789 4.25 8.91389 4.24991 9.11816 4.2666C9.33121 4.28403 9.56473 4.32314 9.79492 4.44043C10.124 4.60818 10.3918 4.87597 10.5596 5.20508C10.6769 5.43527 10.716 5.66879 10.7334 5.88184C10.7501 6.08611 10.75 6.33211 10.75 6.59961V9.40039Z" fill="white"/>
<path d="M12.25 10V6C12.25 5.86193 12.1381 5.75 12 5.75C11.5858 5.75 11.25 5.41421 11.25 5C11.25 4.58579 11.5858 4.25 12 4.25C12.9665 4.25 13.75 5.0335 13.75 6V10C13.75 10.9665 12.9665 11.75 12 11.75C11.5858 11.75 11.25 11.4142 11.25 11C11.25 10.5858 11.5858 10.25 12 10.25C12.1381 10.25 12.25 10.1381 12.25 10Z" fill="white"/>
</svg>
