<svg width="16" height="16" viewBox="0 0 16 16" fill="none" xmlns="http://www.w3.org/2000/svg">
<g clip-path="url(#clip0_274_1326)">
<rect x="5.25" y="0.75" width="5.5" height="8.5" rx="2.75" stroke="white" stroke-width="1.5"/>
<path d="M3.53093 9.41399C3.83411 9.17156 4.26863 9.20241 4.53485 9.47356L4.58563 9.53118L4.7536 9.7304C6.54185 11.7176 9.71805 11.6509 11.4138 9.53118C11.6725 9.20794 12.1451 9.15542 12.4685 9.41399C12.7919 9.6727 12.8443 10.1452 12.5857 10.4687C11.583 11.7221 10.1946 12.4398 8.74972 12.624V15.25C8.74972 15.6642 8.41393 16 7.99971 16C7.58562 15.9999 7.24971 15.6641 7.24971 15.25V12.624C5.91073 12.4532 4.62023 11.8243 3.64031 10.7353L3.41374 10.4687L3.36882 10.4062C3.16284 10.0869 3.22781 9.65649 3.53093 9.41399Z" fill="white"/>
</g>
<defs>
<clipPath id="clip0_274_1326">
<rect width="16" height="16" fill="white"/>
</clipPath>
</defs>
</svg>
