<svg width="16" height="16" viewBox="0 0 16 16" fill="none" xmlns="http://www.w3.org/2000/svg">
<path d="M8.00495 0C8.41917 0 8.75496 0.335786 8.75496 0.75V1.5H10.5372C12.0152 1.52805 13.2066 2.72014 13.2345 4.19824C13.235 4.22588 13.2354 4.2568 13.2354 4.29785V4.93262C13.2353 5.34659 12.8994 5.68238 12.4854 5.68262C12.0713 5.68259 11.7355 5.34672 11.7354 4.93262V4.29785C11.7354 4.25013 11.7346 4.23653 11.7345 4.22656C11.7218 3.55475 11.1806 3.01283 10.5089 3H8.75496V7.53906L10.8858 8.1416C11.1988 8.23004 11.4376 8.29592 11.6485 8.39355C12.4758 8.77664 13.0598 9.54462 13.2071 10.4443C13.2447 10.6736 13.2429 10.9211 13.2442 11.2461C13.246 11.6678 13.2507 11.9872 13.1974 12.2666C12.9864 13.3695 12.1265 14.2337 11.0245 14.4492C10.7454 14.5037 10.4265 14.5 10.005 14.5H8.75496V15.25C8.75496 15.6642 8.41917 16 8.00495 16C7.59076 16 7.25495 15.6642 7.25495 15.25V14.5H5.34284C3.9137 14.4998 2.75515 13.3413 2.75494 11.9121V11.2773C2.75494 10.8631 3.09075 10.5274 3.50494 10.5273C3.91916 10.5273 4.25494 10.8631 4.25494 11.2773V11.9121C4.25515 12.5128 4.74213 12.9998 5.34284 13H7.25495V8.6748L5.20221 8.09473C4.81065 7.98409 4.51094 7.90303 4.25201 7.77051C3.50521 7.38818 2.97358 6.68588 2.80865 5.86328C2.75149 5.57802 2.75494 5.26734 2.75494 4.86035C2.75494 4.33687 2.74996 3.94058 2.83404 3.59668C3.07773 2.60042 3.85537 1.82281 4.85162 1.5791C5.19551 1.49502 5.59184 1.5 6.1153 1.5H7.25495V0.75C7.25495 0.335805 7.59076 3.06649e-05 8.00495 0ZM8.75496 13H10.005C10.497 13 10.6357 12.9962 10.7364 12.9766C11.2374 12.8786 11.6289 12.4858 11.7247 11.9844C11.7439 11.8836 11.7463 11.7448 11.7442 11.2529C11.7427 10.8746 11.7403 10.77 11.7266 10.6865C11.6596 10.2778 11.3944 9.92904 11.0186 9.75488C10.9419 9.71934 10.8416 9.68878 10.4776 9.58594L8.75496 9.09863V13ZM6.1153 3C5.50374 3 5.33221 3.00578 5.20807 3.03613C4.75521 3.14691 4.40183 3.50026 4.29108 3.95312C4.26072 4.07727 4.25495 4.24877 4.25494 4.86035C4.25494 5.33391 4.25855 5.46453 4.27936 5.56836C4.35431 5.94228 4.59615 6.26175 4.93561 6.43555C5.02982 6.48372 5.15436 6.52278 5.60944 6.65137L7.25495 7.11523V3H6.1153Z" fill="white"/>
</svg>
