<svg width="16" height="16" viewBox="0 0 16 16" fill="none" xmlns="http://www.w3.org/2000/svg">
<g clip-path="url(#clip0_274_2398)">
<path d="M9.59961 1.6328e-09C11.8398 1.6328e-09 12.9608 -0.000427067 13.8164 0.435547C14.5689 0.819016 15.181 1.43109 15.5645 2.18359C16.0004 3.03924 16 4.16018 16 6.40039V9.59961C16 11.8398 16.0004 12.9608 15.5645 13.8164L15.4102 14.0918C15.0259 14.7183 14.4749 15.2289 13.8164 15.5645L13.6523 15.6406C12.816 15.9999 11.6999 16 9.59961 16H6.40039L4.91602 15.9932C3.72431 15.9744 2.96088 15.9041 2.34766 15.6406L2.18359 15.5645C1.52512 15.2289 0.974134 14.7183 0.589844 14.0918L0.435547 13.8164C-0.000427067 12.9608 1.6328e-09 11.8398 1.6328e-09 9.59961V6.40039C1.6328e-09 4.16018 -0.000427067 3.03924 0.435547 2.18359C0.819016 1.43109 1.43109 0.819016 2.18359 0.435547C2.82525 0.108606 3.61607 0.0272847 4.91602 0.00683594L6.40039 1.6328e-09H9.59961ZM8.65039 11.0264L8.64941 11.0303C8.58043 11.2028 8.48047 11.3874 8.33203 11.54C8.18022 11.696 7.93743 11.8554 7.61621 11.8555C7.2947 11.8555 7.05125 11.6961 6.89941 11.54C6.75103 11.3875 6.65199 11.2027 6.58301 11.0303L6.58203 11.0273L5.75684 8.94238L5.71973 8.87109C5.67241 8.79576 5.59298 8.70957 5.48145 8.63379C5.33238 8.53254 5.18854 8.49316 5.09766 8.49316L1.5 8.50488V9.59961C1.5 10.7445 1.50146 11.5137 1.5498 12.1055C1.59671 12.6792 1.68023 12.9537 1.77246 13.1348C2.01214 13.6052 2.39483 13.9879 2.86523 14.2275C3.04631 14.3198 3.32077 14.4033 3.89453 14.4502C4.48629 14.4985 5.25553 14.5 6.40039 14.5H9.59961C10.7445 14.5 11.5137 14.4985 12.1055 14.4502C12.6792 14.4033 12.9537 14.3198 13.1348 14.2275C13.6052 13.9879 13.9879 13.6052 14.2275 13.1348C14.3198 12.9537 14.4033 12.6792 14.4502 12.1055C14.4985 11.5137 14.5 10.7445 14.5 9.59961V9.45703H12.3076C11.8999 9.45695 11.5022 9.31433 11.1836 9.12207C10.8648 8.92968 10.5523 8.64379 10.3613 8.28027V8.2793L10.001 7.59766L8.65039 11.0264ZM6.40039 1.5C5.25553 1.5 4.48629 1.50146 3.89453 1.5498C3.32077 1.59671 3.04631 1.68023 2.86523 1.77246C2.39483 2.01214 2.01214 2.39483 1.77246 2.86523C1.68023 3.04631 1.59671 3.32077 1.5498 3.89453C1.50146 4.48629 1.5 5.25553 1.5 6.40039V7.00488L5.0957 6.99316H5.09766C5.55013 6.99316 5.9824 7.16044 6.32422 7.39258C6.62354 7.59591 6.90261 7.88163 7.08008 8.23145L7.14941 8.38477L7.15039 8.3877L7.61426 9.56152L8.91406 6.26465C9.02818 5.97437 9.31534 5.50597 9.88574 5.47559C10.4542 5.44543 10.7896 5.87884 10.9346 6.15332H10.9355L11.6885 7.58105L11.6895 7.58301C11.7232 7.64708 11.8125 7.74951 11.959 7.83789C12.1056 7.92631 12.2372 7.95693 12.3076 7.95703H14.5V6.40039C14.5 5.25553 14.4985 4.48629 14.4502 3.89453C14.4033 3.32077 14.3198 3.04631 14.2275 2.86523C13.9879 2.39483 13.6052 2.01214 13.1348 1.77246C12.9537 1.68023 12.6792 1.59671 12.1055 1.5498C11.5137 1.50146 10.7445 1.5 9.59961 1.5H6.40039Z" fill="white"/>
</g>
<defs>
<clipPath id="clip0_274_2398">
<rect width="16" height="16" fill="white"/>
</clipPath>
</defs>
</svg>
