<svg width="16" height="16" viewBox="0 0 16 16" fill="none" xmlns="http://www.w3.org/2000/svg">
<g clip-path="url(#clip0_274_2208)">
<path d="M7.28983 -0.00981212C7.58418 -0.0370138 7.86734 0.111585 8.01249 0.369094C8.15763 0.626631 8.13841 0.945819 7.96269 1.18355C7.26505 2.12747 6.92911 3.29039 7.0164 4.46089C7.10375 5.63138 7.60831 6.73151 8.43827 7.56148C9.26824 8.39144 10.3684 8.896 11.5389 8.98335C12.7094 9.07064 13.8723 8.7347 14.8162 8.03706C15.0539 7.86134 15.3731 7.84212 15.6307 7.98726C15.8882 8.13241 16.0368 8.41556 16.0096 8.70991C15.8694 10.2257 15.3001 11.6706 14.3689 12.875C13.4377 14.0792 12.1826 14.9935 10.7508 15.5107C9.31906 16.0278 7.76974 16.1261 6.28398 15.7949C4.79802 15.4635 3.43668 14.7161 2.36015 13.6396C1.28362 12.5631 0.536206 11.2017 0.204874 9.71577C-0.126336 8.23001 -0.0280505 6.68069 0.489054 5.24898C1.00622 3.81719 1.9205 2.56202 3.1248 1.63081C4.32911 0.699682 5.77402 0.130357 7.28983 -0.00981212ZM5.92655 1.80464C5.25041 2.03503 4.61341 2.37615 4.04276 2.81734C3.06373 3.57429 2.32061 4.59481 1.90019 5.75874C1.47986 6.92255 1.39948 8.18187 1.66874 9.3896C1.93807 10.5975 2.54562 11.704 3.42069 12.5791C4.29576 13.4541 5.40227 14.0617 6.61015 14.331C7.81788 14.6003 9.0772 14.5199 10.241 14.0996C11.4049 13.6791 12.4255 12.936 13.1824 11.957C13.6237 11.3862 13.9637 10.7486 14.1941 10.0722C13.3195 10.4074 12.3756 10.5501 11.4275 10.4794C9.89868 10.3654 8.46179 9.70609 7.37773 8.62202C6.29366 7.53796 5.63432 6.10107 5.5203 4.57222C5.44959 3.62398 5.5912 2.67938 5.92655 1.80464Z" fill="white"/>
</g>
<defs>
<clipPath id="clip0_274_2208">
<rect width="16" height="16" fill="white"/>
</clipPath>
</defs>
</svg>
