<svg width="16" height="16" viewBox="0 0 16 16" fill="none" xmlns="http://www.w3.org/2000/svg">
<g clip-path="url(#clip0_274_1298)">
<path d="M3.41607 9.37598C3.76071 9.60575 3.85383 10.0714 3.62407 10.416C3.39431 10.7607 2.92868 10.8538 2.58403 10.624L0.832082 9.45606C-0.206909 8.76337 -0.206909 7.23664 0.832082 6.54395L2.58403 5.37598C2.92868 5.14622 3.39431 5.23934 3.62407 5.58399C3.83948 5.9071 3.77097 6.33639 3.47759 6.57813L3.41607 6.62403L1.66411 7.792C1.51572 7.89096 1.51572 8.10906 1.66411 8.20801L3.41607 9.37598ZM15.168 6.54395C16.207 7.23664 16.207 8.76337 15.168 9.45606L13.4161 10.624L13.3497 10.6631C13.0137 10.8407 12.5914 10.739 12.376 10.416C12.1606 10.0929 12.2291 9.66362 12.5225 9.42188L12.584 9.37598L14.336 8.20801C14.4844 8.10906 14.4844 7.89096 14.336 7.792L12.584 6.62403C12.2394 6.39426 12.1463 5.92864 12.376 5.58399C12.6058 5.23934 13.0714 5.14622 13.4161 5.37598L15.168 6.54395Z" fill="white"/>
<path d="M6.62396 3.41602C6.39419 3.76066 5.92856 3.85379 5.58392 3.62403C5.23928 3.39426 5.14615 2.92863 5.37591 2.58399L6.54388 0.832036C7.23657 -0.206954 8.7633 -0.206955 9.45599 0.832036L10.624 2.58399C10.8537 2.92864 10.7606 3.39426 10.416 3.62403C10.0928 3.83943 9.66355 3.77092 9.42181 3.47754L9.37591 3.41602L8.20794 1.66407C8.10898 1.51568 7.89088 1.51568 7.79193 1.66407L6.62396 3.41602ZM9.45599 15.168C8.76326 16.2069 7.23656 16.2068 6.54388 15.168L5.37591 13.416C5.14619 13.0714 5.23931 12.6057 5.58392 12.376C5.90702 12.1606 6.33634 12.2291 6.57806 12.5225L6.62396 12.584L7.79193 14.3359C7.89092 14.4842 8.10901 14.4843 8.20794 14.3359L9.37591 12.584C9.60569 12.2394 10.0713 12.1462 10.4159 12.376C10.7606 12.6058 10.8537 13.0714 10.624 13.416L9.45599 15.168Z" fill="white"/>
<path d="M9.5 8C9.5 7.17157 8.82843 6.5 8 6.5C7.17157 6.5 6.5 7.17157 6.5 8C6.5 8.82843 7.17157 9.5 8 9.5V11C6.34315 11 5 9.65685 5 8C5 6.34315 6.34315 5 8 5C9.65685 5 11 6.34315 11 8C11 9.65685 9.65685 11 8 11V9.5C8.82843 9.5 9.5 8.82843 9.5 8Z" fill="white"/>
</g>
<defs>
<clipPath id="clip0_274_1298">
<rect width="16" height="16" fill="white"/>
</clipPath>
</defs>
</svg>
