<svg width="16" height="16" viewBox="0 0 16 16" fill="none" xmlns="http://www.w3.org/2000/svg">
<path d="M8.70605 11.8555C8.70605 13.3136 7.5422 14.4785 6.12793 14.4786C4.7136 14.4786 3.5498 13.3137 3.5498 11.8555C3.54984 10.3974 4.71362 9.23248 6.12793 9.23248C7.54218 9.23255 8.70601 10.3975 8.70605 11.8555ZM10.2061 3.00983C10.2061 2.46784 10.2062 2.11301 10.2295 1.85748C10.2433 1.70616 10.2619 1.63642 10.2695 1.61237C10.313 1.56323 10.3731 1.53392 10.4385 1.52936C10.4601 1.53726 10.5268 1.56358 10.6582 1.6485C10.8737 1.78784 11.1535 2.00654 11.5801 2.34088L12.7373 3.24713L12.7998 3.29205C13.1211 3.49504 13.5505 3.42563 13.79 3.12018C14.0456 2.79417 13.9881 2.32297 13.6621 2.06744L12.5059 1.16022C12.103 0.844487 11.76 0.574965 11.4736 0.389709C11.1981 0.211546 10.8498 0.0250185 10.4453 0.0274041C9.91489 0.0305829 9.41464 0.273974 9.08496 0.689514C8.83356 1.00639 8.76605 1.39503 8.73633 1.72174C8.70542 2.0615 8.70605 2.49775 8.70605 3.00983L8.70605 8.66217C8.00467 8.08224 7.10848 7.73251 6.12793 7.73248C3.86628 7.73248 2.04984 9.58803 2.0498 11.8555C2.0498 14.1231 3.86625 15.9786 6.12793 15.9786C8.38955 15.9785 10.2061 14.123 10.2061 11.8555L10.2061 3.00983Z" fill="white"/>
</svg>
