<svg width="16" height="16" viewBox="0 0 16 16" fill="none" xmlns="http://www.w3.org/2000/svg">
<g clip-path="url(#clip0_274_2105)">
<path d="M14.5 1.78887C14.5 1.54853 14.2053 1.43282 14.042 1.60918L12.582 3.18633C12.3825 3.40185 12.2139 3.58364 12.0732 3.72148C11.9375 3.85455 11.7768 3.99901 11.585 4.09844C11.4797 4.15302 11.3437 4.22223 11.1807 4.26348C11.0177 4.30465 10.8656 4.30829 10.7471 4.31035C10.5099 4.31446 10.2368 4.23685 10.0098 4.16777C9.74971 4.08863 9.40499 3.97133 8.96973 3.82305C8.66908 3.72062 8.34158 3.6541 8 3.6541C7.65842 3.6541 7.33092 3.72062 7.03027 3.82305C6.59501 3.97133 6.25029 4.08863 5.99023 4.16777C5.76321 4.23685 5.49007 4.31446 5.25293 4.31035C5.13441 4.30829 4.98225 4.30465 4.81934 4.26348C4.65631 4.22223 4.52034 4.15302 4.41504 4.09844C4.22323 3.99901 4.06251 3.85455 3.92676 3.72148C3.78615 3.58364 3.61749 3.40185 3.41797 3.18633L1.95801 1.60918C1.79474 1.43282 1.5 1.54853 1.5 1.78887V13.4217L1.50195 13.8338C1.50366 13.9454 1.50645 14.0347 1.5127 14.1111C1.51852 14.1823 1.52592 14.2259 1.53223 14.2527C1.53799 14.2772 1.54281 14.2856 1.54297 14.2859C1.58065 14.3597 1.64106 14.4192 1.71484 14.4568C1.71599 14.4574 1.72411 14.4622 1.74707 14.4676C1.77386 14.4739 1.81751 14.4813 1.88867 14.4871C2.04155 14.4996 2.24598 14.4998 2.57812 14.4998H13.4219C13.754 14.4998 13.9584 14.4996 14.1113 14.4871C14.1825 14.4813 14.2261 14.4739 14.2529 14.4676C14.2759 14.4622 14.284 14.4574 14.2852 14.4568C14.3589 14.4192 14.4194 14.3597 14.457 14.2859C14.4572 14.2856 14.462 14.2772 14.4678 14.2527C14.4741 14.2259 14.4815 14.1823 14.4873 14.1111C14.4998 13.9582 14.5 13.7539 14.5 13.4217V1.78887ZM16 13.4217C16 13.7292 16.0011 14.0051 15.9824 14.2332C15.9631 14.4701 15.9191 14.721 15.7939 14.9666C15.6125 15.3227 15.3229 15.6123 14.9668 15.7937C14.7213 15.9188 14.4703 15.9629 14.2334 15.9822C14.0053 16.0009 13.7293 15.9998 13.4219 15.9998H2.57812C2.27065 15.9998 1.99469 16.0009 1.7666 15.9822C1.52972 15.9629 1.2787 15.9188 1.0332 15.7937C0.677143 15.6123 0.387491 15.3227 0.206055 14.9666C0.0809314 14.721 0.0369393 14.4701 0.0175781 14.2332C0.00825926 14.1191 0.00413879 13.9931 0.00195312 13.8572L0 13.4217V1.78887C0 0.184257 1.96837 -0.587534 3.05859 0.589647L4.51855 2.1668C4.72869 2.39378 4.86806 2.54383 4.97656 2.65019C5.08934 2.76075 5.11974 2.77383 5.10547 2.76641C5.14663 2.78774 5.17103 2.79927 5.18652 2.80644C5.20345 2.80756 5.23075 2.80951 5.2793 2.81035C5.24167 2.8097 5.28935 2.81333 5.55273 2.7332C5.78342 2.66301 6.10056 2.55517 6.54688 2.40312C6.97195 2.25832 7.46379 2.1541 8 2.1541C8.53621 2.1541 9.02805 2.25832 9.45312 2.40312C9.89944 2.55517 10.2166 2.66301 10.4473 2.7332C10.7106 2.81333 10.7583 2.8097 10.7207 2.81035C10.7683 2.80952 10.7955 2.80753 10.8125 2.80644C10.828 2.79932 10.8526 2.78812 10.8945 2.76641C10.8803 2.77383 10.9107 2.76075 11.0234 2.65019C11.1319 2.54383 11.2713 2.39378 11.4814 2.1668L12.9414 0.589647C14.0316 -0.587534 16 0.184257 16 1.78887V13.4217Z" fill="white"/>
<path d="M6.21429 7.71429C6.21429 8.18768 5.83053 8.57143 5.35714 8.57143C4.88376 8.57143 4.5 8.18768 4.5 7.71429C4.5 7.2409 4.88376 6.85715 5.35714 6.85715C5.83053 6.85715 6.21429 7.2409 6.21429 7.71429Z" fill="white"/>
<path d="M11.4999 7.71429C11.4999 8.18768 11.1162 8.57143 10.6428 8.57143C10.1694 8.57143 9.78564 8.18768 9.78564 7.71429C9.78564 7.2409 10.1694 6.85715 10.6428 6.85715C11.1162 6.85715 11.4999 7.2409 11.4999 7.71429Z" fill="white"/>
<path d="M10.2866 10.1071C10.7006 10.1074 11.0366 10.4431 11.0366 10.8571C11.0366 11.1676 10.9493 11.6166 10.6665 12.0095C10.356 12.4407 9.84465 12.7497 9.14307 12.7497C8.67606 12.7497 8.29555 12.6101 8.00049 12.3913C7.70514 12.6102 7.32413 12.7497 6.85693 12.7497C6.15549 12.7496 5.64491 12.4407 5.33447 12.0095C5.05154 11.6165 4.96436 11.1676 4.96436 10.8571C4.96436 10.4429 5.30014 10.1071 5.71436 10.1071C6.12857 10.1071 6.46436 10.4429 6.46436 10.8571C6.46436 10.9276 6.49135 11.0503 6.55127 11.1335C6.57578 11.1675 6.60357 11.1914 6.63721 11.2087C6.67038 11.2257 6.73615 11.2497 6.85693 11.2497C6.9783 11.2497 7.04455 11.2258 7.07764 11.2087C7.11118 11.1914 7.13814 11.1674 7.1626 11.1335C7.22251 11.0503 7.25049 10.9276 7.25049 10.8571C7.25049 10.4429 7.58627 10.1071 8.00049 10.1071C8.05237 10.1071 8.10294 10.1127 8.15186 10.1228C8.24921 10.1428 8.3398 10.1813 8.41943 10.2351C8.49949 10.2891 8.56854 10.3581 8.62256 10.4382C8.70334 10.5578 8.75049 10.702 8.75049 10.8571C8.75049 10.9276 8.77749 11.0503 8.8374 11.1335C8.86191 11.1675 8.88971 11.1914 8.92334 11.2087C8.95651 11.2257 9.02228 11.2497 9.14307 11.2497C9.26443 11.2497 9.33068 11.2258 9.36377 11.2087C9.39732 11.1914 9.42427 11.1674 9.44873 11.1335C9.50865 11.0503 9.53662 10.9276 9.53662 10.8571C9.53662 10.4429 9.87241 10.1071 10.2866 10.1071Z" fill="white"/>
</g>
<defs>
<clipPath id="clip0_274_2105">
<rect width="16" height="16" fill="white"/>
</clipPath>
</defs>
</svg>
