<svg width="16" height="16" viewBox="0 0 16 16" fill="none" xmlns="http://www.w3.org/2000/svg">
<path d="M2.25 13.7144L2.24609 13.7905C2.20779 14.1688 1.8884 14.4644 1.5 14.4644C1.1116 14.4644 0.79221 14.1688 0.753907 13.7905L0.750001 13.7144L0.75 10.8569C0.75 10.4427 1.08579 10.1069 1.5 10.1069C1.91421 10.1069 2.25 10.4427 2.25 10.8569L2.25 13.7144Z" fill="white"/>
<path d="M6.5835 13.7144C6.5835 14.1286 6.24771 14.4644 5.8335 14.4644C5.41928 14.4644 5.0835 14.1286 5.0835 13.7144L5.0835 8.00049C5.0835 7.58627 5.41928 7.25049 5.8335 7.25049C6.24771 7.25049 6.5835 7.58627 6.5835 8.00049L6.5835 13.7144Z" fill="white"/>
<path d="M10.9165 13.7144C10.9165 14.1286 10.5807 14.4644 10.1665 14.4644C9.75229 14.4644 9.4165 14.1286 9.4165 13.7144L9.4165 5.14307C9.4165 4.72885 9.75229 4.39307 10.1665 4.39307C10.5807 4.39307 10.9165 4.72885 10.9165 5.14307L10.9165 13.7144Z" fill="white"/>
<path d="M15.25 13.7144L15.2461 13.7905C15.2079 14.1689 14.8885 14.4644 14.5 14.4644C14.1116 14.4644 13.7921 14.1689 13.7539 13.7905L13.75 13.7144L13.75 2.28564C13.75 1.87143 14.0858 1.53564 14.5 1.53564C14.9142 1.53564 15.25 1.87143 15.25 2.28564L15.25 13.7144Z" fill="white"/>
</svg>
