<svg width="16" height="16" viewBox="0 0 16 16" fill="none" xmlns="http://www.w3.org/2000/svg">
<g clip-path="url(#clip0_274_1877)">
<path d="M4.5 2.75C4.74927 2.75 4.82024 2.75079 4.87207 2.75586C5.46554 2.81431 5.93569 3.28446 5.99414 3.87793C5.99921 3.92976 6 4.00073 6 4.25V13.75C6 13.9993 5.99921 14.0702 5.99414 14.1221C5.93569 14.7155 5.46554 15.1857 4.87207 15.2441C4.82024 15.2492 4.74927 15.25 4.5 15.25C4.01803 15.25 3.83126 15.2491 3.68164 15.2344C2.13862 15.0824 0.9176 13.8614 0.765625 12.3184C0.750904 12.1687 0.75 11.982 0.75 11.5V6.5C0.75 6.01803 0.750904 5.83126 0.765625 5.68164C0.9176 4.13862 2.13862 2.9176 3.68164 2.76562C3.83126 2.7509 4.01803 2.75 4.5 2.75Z" stroke="white" stroke-width="1.5"/>
<path d="M11.5 0.75C11.982 0.75 12.1687 0.750904 12.3184 0.765625C13.8614 0.9176 15.0824 2.13862 15.2344 3.68164C15.2491 3.83126 15.25 4.01803 15.25 4.5V9.5C15.25 9.98197 15.2491 10.1687 15.2344 10.3184C15.0824 11.8614 13.8614 13.0824 12.3184 13.2344C12.1687 13.2491 11.982 13.25 11.5 13.25C11.2507 13.25 11.1798 13.2492 11.1279 13.2441C10.5345 13.1857 10.0643 12.7155 10.0059 12.1221C10.0008 12.0702 10 11.9993 10 11.75V2.25C10 2.00073 10.0008 1.92976 10.0059 1.87793C10.0643 1.28446 10.5345 0.814311 11.1279 0.755859C11.1798 0.750791 11.2507 0.75 11.5 0.75Z" stroke="white" stroke-width="1.5"/>
</g>
<defs>
<clipPath id="clip0_274_1877">
<rect width="16" height="16" fill="white"/>
</clipPath>
</defs>
</svg>
