<svg width="16" height="16" viewBox="0 0 16 16" fill="none" xmlns="http://www.w3.org/2000/svg">
<g clip-path="url(#clip0_274_2116)">
<rect x="0.749023" y="0.75" width="14.5" height="14.5" rx="4.25" stroke="white" stroke-width="1.5"/>
<path d="M10.2961 4.51172C10.5115 4.56377 10.6283 4.78289 10.508 4.96289L8.38008 8.14258H12.6418C12.9171 8.14258 13.089 8.39972 12.9514 8.60547L11.2844 11.0957L10.4738 11.6377L9.66231 11.0947L8.0002 8.61035L5.83614 11.8457L5.77559 11.9131C5.6385 12.0288 5.41466 12.0287 5.27754 11.9131L5.21699 11.8457L3.04903 8.60547C2.92863 8.42553 3.04467 8.2055 3.25996 8.15332L3.3586 8.14258H7.67988L5.55196 4.96289C5.41452 4.75725 5.58648 4.50023 5.86153 4.5H10.1984L10.2961 4.51172ZM10.4738 11.6377L11.2844 11.0957L10.7834 11.8457L10.7229 11.9131C10.5857 12.0287 10.3619 12.0288 10.2248 11.9131L10.1643 11.8457L9.66231 11.0947L10.4738 11.6377Z" fill="white"/>
</g>
<defs>
<clipPath id="clip0_274_2116">
<rect width="16" height="16" fill="white"/>
</clipPath>
</defs>
</svg>
