<svg width="16" height="16" viewBox="0 0 16 16" fill="none" xmlns="http://www.w3.org/2000/svg">
<g clip-path="url(#clip0_274_1550)">
<path d="M7.98126e-07 6.25V4.10059C7.98126e-07 3.176 -0.000649288 2.44231 0.035157 1.90918C0.0530933 1.64231 0.0825245 1.39077 0.135743 1.17383C0.1855 0.971143 0.278496 0.701885 0.492188 0.490234L0.580079 0.408203C1.03321 0.0200545 1.66433 -0.0966815 2.23047 0.110352C2.5131 0.213788 2.71017 0.420412 2.83984 0.583984C2.97853 0.758941 3.1089 0.974981 3.23633 1.20996C3.49104 1.6797 3.79632 2.34681 4.18164 3.1875C4.57693 4.04994 4.85731 4.66077 5.08203 5.0752C5.19419 5.28201 5.27688 5.40988 5.33594 5.48438C5.33727 5.48606 5.33858 5.48768 5.33984 5.48926C5.36266 5.48928 5.3845 5.48401 5.40527 5.47461C5.40578 5.4726 5.40768 5.47088 5.4082 5.46875C5.43086 5.37638 5.45199 5.22513 5.46777 4.99023C5.49936 4.51988 5.5 3.84787 5.5 2.89941V0.75C5.5 0.335786 5.83579 0 6.25 0C6.66421 0 7 0.335786 7 0.75V2.89941C7 3.824 7.00065 4.55769 6.96484 5.09082C6.94691 5.35769 6.91748 5.60923 6.86426 5.82617C6.8145 6.02886 6.72151 6.29812 6.50781 6.50977C6.05085 6.96214 5.37343 7.11049 4.76953 6.88965C4.48691 6.78621 4.28984 6.57959 4.16016 6.41602C4.02148 6.24106 3.8911 6.02502 3.76367 5.79004C3.50896 5.3203 3.20368 4.65319 2.81836 3.8125C2.42308 2.95006 2.14269 2.33923 1.91797 1.9248C1.80582 1.71799 1.72313 1.59012 1.66406 1.51562C1.66243 1.51356 1.66072 1.51167 1.65918 1.50977C1.63654 1.50989 1.61435 1.51501 1.59375 1.52441C1.59319 1.52663 1.59238 1.52887 1.5918 1.53125C1.56914 1.62362 1.54801 1.77487 1.53223 2.00977C1.50064 2.48012 1.5 3.15213 1.5 4.10059V6.25C1.5 6.66421 1.16421 7 0.750001 7C0.335787 7 7.98126e-07 6.66421 7.98126e-07 6.25Z" fill="white"/>
<path d="M9.00011 3.5V0.75C9.00011 0.335787 9.3359 0 9.75011 0C10.1643 0 10.5001 0.335787 10.5001 0.75V3.5C10.5001 4.25235 10.5081 4.46268 10.5538 4.61328C10.6751 5.01249 10.9876 5.32506 11.3868 5.44629C11.5374 5.49197 11.7478 5.5 12.5001 5.5C13.2525 5.5 13.4628 5.49197 13.6134 5.44629C14.0126 5.32506 14.3252 5.01249 14.4464 4.61328C14.4921 4.46268 14.5001 4.25235 14.5001 3.5V0.75C14.5001 0.335786 14.8359 0 15.2501 0C15.6643 8.59014e-08 16.0001 0.335786 16.0001 0.75V3.5C16.0001 4.14298 16.0084 4.63076 15.8819 5.04785C15.6153 5.92676 14.9269 6.61522 14.048 6.88184C13.6309 7.00824 13.1431 7 12.5001 7C11.8571 7 11.3694 7.00824 10.9523 6.88184C10.0734 6.61522 9.38489 5.92676 9.11827 5.04785C8.99187 4.63076 9.00011 4.14298 9.00011 3.5Z" fill="white"/>
<path d="M0 10.8496C0.000211072 9.82819 0.828192 9.00021 1.84961 9H3.5C5.433 9 7 10.567 7 12.5C7 14.433 5.433 16 3.5 16H1.84961C0.828192 15.9998 0.000210963 15.1718 0 14.1504V10.8496ZM1.5 14.1504C1.50021 14.3434 1.65662 14.4998 1.84961 14.5H3.5C4.60457 14.5 5.5 13.6046 5.5 12.5C5.5 11.3954 4.60457 10.5 3.5 10.5H1.84961C1.65662 10.5002 1.50021 10.6566 1.5 10.8496V14.1504Z" fill="white"/>
<path d="M9.00001 13.25V9.75C9.00001 9.33579 9.3358 9 9.75001 9C10.1642 9 10.5 9.33579 10.5 9.75V13.25C10.5 13.7424 10.502 14.0364 10.5303 14.2471C10.5433 14.3436 10.5584 14.3923 10.5674 14.4141C10.5695 14.4191 10.5713 14.4229 10.5723 14.4248L10.5733 14.4268L10.5752 14.4277C10.5771 14.4287 10.581 14.4306 10.5859 14.4326C10.6077 14.4416 10.6564 14.4567 10.7529 14.4697C10.9636 14.498 11.2576 14.5 11.75 14.5H15.25L15.3272 14.5039C15.7051 14.5425 16 14.8618 16 15.25C16 15.6382 15.7051 15.9575 15.3272 15.9961L15.25 16H11.75C11.2998 16 10.8867 16.0019 10.5527 15.957C10.1973 15.9092 9.82173 15.7963 9.51271 15.4873C9.20369 15.1783 9.09077 14.8027 9.04298 14.4473C8.99809 14.1134 9.00001 13.7002 9.00001 13.25Z" fill="white"/>
</g>
<defs>
<clipPath id="clip0_274_1550">
<rect width="16" height="16" fill="white"/>
</clipPath>
</defs>
</svg>
