<svg width="16" height="16" viewBox="0 0 16 16" fill="none" xmlns="http://www.w3.org/2000/svg">
<path d="M7.25049 15.25V13.1436L4.979 10.8721L2.7085 13.1436V15.25C2.7085 15.6642 2.37271 16 1.9585 16C1.54428 16 1.2085 15.6642 1.2085 15.25V6.79199C1.2085 6.59316 1.28767 6.40236 1.42822 6.26172L7.47021 0.219727L7.58447 0.125977C7.70672 0.0445422 7.85143 0 8.00049 0C8.19928 8.62633e-05 8.39019 0.0791511 8.53076 0.219727L13.2915 4.98047V0.75C13.2915 0.335895 13.6274 0.00017544 14.0415 0C14.4557 0 14.7915 0.335786 14.7915 0.75V6.79199C14.7914 7.09521 14.6088 7.36833 14.3286 7.48438C14.0484 7.60039 13.7257 7.53673 13.5112 7.32227L8.75049 2.56055V6.79199C8.7504 6.99079 8.67134 7.18169 8.53076 7.32227L6.03955 9.8125L8.53076 12.3027C8.67134 12.4433 8.7504 12.6342 8.75049 12.833V15.25C8.75049 15.6641 8.41455 15.9998 8.00049 16C7.58627 16 7.25049 15.6642 7.25049 15.25ZM2.7085 11.0225L3.91846 9.8125L2.7085 8.60156V11.0225ZM3.01904 6.79102L4.979 8.75195L7.25049 6.48047V2.56055L3.01904 6.79102Z" fill="white"/>
</svg>
