<svg width="16" height="16" viewBox="0 0 16 16" fill="none" xmlns="http://www.w3.org/2000/svg">
<g clip-path="url(#clip0_274_1545)">
<path d="M7 11.2002C7 10.6278 6.99976 10.2431 6.97559 9.94727C6.95213 9.66027 6.90942 9.52316 6.86329 9.43262C6.74346 9.1975 6.5525 9.00655 6.31739 8.88672C6.22685 8.84059 6.08974 8.79788 5.80274 8.77442C5.50686 8.75024 5.12224 8.75 4.54981 8.75H1.5V12.0498C1.5 12.6222 1.50024 13.0069 1.52442 13.3027C1.54788 13.5897 1.59059 13.7268 1.63672 13.8174C1.75655 14.0525 1.94751 14.2435 2.18262 14.3633C2.27316 14.4094 2.41027 14.4521 2.69727 14.4756C2.99315 14.4998 3.37777 14.5 3.9502 14.5H4.54981C5.12224 14.5 5.50686 14.4998 5.80274 14.4756C6.08974 14.4521 6.22685 14.4094 6.31739 14.3633C6.5525 14.2435 6.74346 14.0525 6.86329 13.8174C6.90942 13.7268 6.95213 13.5897 6.97559 13.3027C6.99976 13.0069 7 12.6222 7 12.0498V11.2002ZM8.5 12.0498C8.5 12.5975 8.50103 13.0537 8.47071 13.4248C8.43968 13.8045 8.37191 14.1609 8.2002 14.4981C7.93655 15.0155 7.5155 15.4365 6.99805 15.7002C6.66091 15.8719 6.30454 15.9397 5.92481 15.9707C5.55368 16.001 5.09749 16 4.54981 16H3.9502C3.40252 16 2.94633 16.001 2.5752 15.9707C2.19547 15.9397 1.8391 15.8719 1.50196 15.7002C0.984512 15.4365 0.563461 15.0155 0.299809 14.4981C0.128096 14.1609 0.0603328 13.8045 0.029301 13.4248C-0.00102148 13.0537 4.11722e-06 12.5975 4.11722e-06 12.0498V3.9502C4.11722e-06 3.40252 -0.00102148 2.94633 0.029301 2.5752C0.0603328 2.19547 0.128096 1.8391 0.299809 1.50196C0.563461 0.984512 0.984512 0.563461 1.50196 0.299809C1.8391 0.128096 2.19547 0.0603328 2.5752 0.029301C2.94633 -0.00102148 3.40252 4.11722e-06 3.9502 4.11722e-06H6.75C7.16422 4.11722e-06 7.5 0.335791 7.5 0.750004C7.5 1.16422 7.16422 1.5 6.75 1.5H3.9502C3.37777 1.5 2.99315 1.50024 2.69727 1.52442C2.41027 1.54788 2.27316 1.59059 2.18262 1.63672C1.94751 1.75655 1.75655 1.94751 1.63672 2.18262C1.59059 2.27316 1.54788 2.41027 1.52442 2.69727C1.50024 2.99315 1.5 3.37777 1.5 3.9502V7.25H4.54981C5.09749 7.25 5.55368 7.24898 5.92481 7.2793C6.30454 7.31033 6.66091 7.3781 6.99805 7.54981C7.5155 7.81346 7.93655 8.23451 8.2002 8.75196C8.37191 9.0891 8.43968 9.44547 8.47071 9.8252C8.50103 10.1963 8.5 10.6525 8.5 11.2002V12.0498Z" fill="white"/>
<path d="M12.5 15C12.5 15.5523 12.0523 16 11.5 16C10.9477 16 10.5 15.5523 10.5 15C10.5 14.4477 10.9477 14 11.5 14C12.0523 14 12.5 14.4477 12.5 15Z" fill="white"/>
<path d="M14.5 15.25V3.9502C14.5 3.37777 14.4998 2.99315 14.4756 2.69727C14.4521 2.41027 14.4094 2.27316 14.3633 2.18262C14.2435 1.94751 14.0525 1.75655 13.8174 1.63672C13.7268 1.59059 13.5897 1.54788 13.3027 1.52442C13.0069 1.50024 12.6222 1.5 12.0498 1.5H11.25C10.8358 1.5 10.5 1.16422 10.5 0.750004C10.5 0.335791 10.8358 4.11722e-06 11.25 4.11722e-06H12.0498C12.5975 4.11722e-06 13.0537 -0.00102148 13.4248 0.029301C13.8045 0.0603328 14.1609 0.128096 14.498 0.299809C15.0155 0.563461 15.4365 0.984512 15.7002 1.50196C15.8719 1.8391 15.9397 2.19547 15.9707 2.5752C16.001 2.94633 16 3.40252 16 3.9502V15.25C16 15.6642 15.6642 16 15.25 16C14.8358 16 14.5 15.6642 14.5 15.25Z" fill="white"/>
</g>
<defs>
<clipPath id="clip0_274_1545">
<rect width="16" height="16" fill="white"/>
</clipPath>
</defs>
</svg>
