<svg width="16" height="16" viewBox="0 0 16 16" fill="none" xmlns="http://www.w3.org/2000/svg">
<path d="M7.81694 15.7714C6.49123 15.7714 5.31028 15.4819 4.27409 14.9029C3.25314 14.3086 2.49885 13.4476 2.01123 12.32L5.02837 11.2229C5.24171 11.9695 5.58456 12.4876 6.05694 12.7771C6.54456 13.0514 7.07028 13.1886 7.63409 13.1886C8.44171 13.1886 9.10456 12.9524 9.62266 12.48C10.1408 12.0076 10.3998 11.3295 10.3998 10.4457C10.3998 9.50096 10.1255 8.80762 9.57694 8.36572C9.04361 7.92381 8.41885 7.70286 7.70266 7.70286C6.57504 7.70286 5.73694 8.1981 5.18837 9.18858L2.10266 8.04572L3.06266 0.228577H13.2798V3.06286H5.94266L5.5998 5.92C5.95028 5.66096 6.40742 5.46286 6.97123 5.32572C7.55028 5.18858 8.10647 5.12001 8.6398 5.12001C9.55409 5.12001 10.415 5.3181 11.2227 5.71429C12.0455 6.11048 12.7084 6.70477 13.2112 7.49715C13.7293 8.27429 13.9884 9.25715 13.9884 10.4457C13.9884 11.6038 13.6988 12.5791 13.1198 13.3714C12.556 14.1638 11.8017 14.7657 10.8569 15.1771C9.92742 15.5733 8.91409 15.7714 7.81694 15.7714Z" fill="white"/>
</svg>
