<svg width="16" height="16" viewBox="0 0 16 16" fill="none" xmlns="http://www.w3.org/2000/svg">
<path d="M12.0806 10.4113C12.0805 7.73799 10.0803 6.33135 8.00052 6.33119C6.574 6.33119 5.29643 6.96737 4.43607 7.97474C4.14711 8.31307 3.72159 8.33422 3.43216 8.21693C3.13888 8.09807 2.83526 7.77248 2.88724 7.30873L3.4722 2.08802C3.49907 1.84832 3.52378 1.62611 3.55911 1.44154C3.59622 1.24773 3.65473 1.03878 3.77884 0.836069C3.95789 0.543721 4.21932 0.310496 4.52982 0.165171C4.745 0.0645115 4.95914 0.0290855 5.15579 0.0138034C5.34314 -0.000723344 5.56702 0.00013155 5.80814 0.00013155H12.2271L12.3033 0.0040378C12.6817 0.0422436 12.9771 0.361657 12.9771 0.750132C12.9771 1.13861 12.6817 1.45802 12.3033 1.49623L12.2271 1.50013H5.80814C5.54386 1.50013 5.38786 1.50092 5.27201 1.5099C5.16539 1.51818 5.15175 1.53003 5.16556 1.52357C5.12128 1.54429 5.08371 1.57761 5.05814 1.61927C5.06577 1.60668 5.05272 1.61943 5.03275 1.72376C5.01091 1.83786 4.99285 1.9924 4.96341 2.25501L4.55716 5.87806C5.54117 5.21741 6.72594 4.83119 8.00052 4.83119C10.7511 4.83136 13.5805 6.76022 13.5806 10.4113C13.5806 12.1765 12.9692 13.5678 11.9204 14.5255C10.8856 15.4703 9.4941 15.9307 8.03079 15.9913C6.84596 16.0404 5.60964 15.8848 4.57865 15.3341C3.58147 14.8013 2.82074 13.9204 2.49369 12.6329L2.43411 12.3702L2.4224 12.2941C2.38597 11.9159 2.64145 11.5637 3.02201 11.4874C3.40268 11.4113 3.77431 11.638 3.88626 12.0011L3.90482 12.0763L3.94583 12.256C4.1664 13.1328 4.65291 13.6739 5.28568 14.0119C5.99344 14.3899 6.93154 14.5363 7.96927 14.4933C9.17134 14.4434 10.1957 14.0691 10.9097 13.4171C11.6097 12.7777 12.0806 11.8083 12.0806 10.4113Z" fill="white"/>
</svg>
