<svg width="16" height="16" viewBox="0 0 16 16" fill="none" xmlns="http://www.w3.org/2000/svg">
<g clip-path="url(#clip0_274_1528)">
<path d="M10.4268 7.69889e-09C11.8045 -4.26339e-08 12.8871 -0.000200897 13.6943 0.0683594C14.4622 0.133586 15.191 0.270646 15.6816 0.717773C16.3629 1.33881 16.688 2.25987 16.5469 3.1709C16.4453 3.82674 15.9641 4.39049 15.4072 4.92285C14.8216 5.48265 13.9773 6.16196 12.9043 7.02637L1.9707 15.834C1.64819 16.0938 1.17589 16.0431 0.916016 15.7207C0.656211 15.3982 0.706874 14.9259 1.0293 14.666L11.9639 5.8584C13.0594 4.97591 13.8418 4.3439 14.3701 3.83887C14.9269 3.30665 15.0474 3.05098 15.0645 2.94141C15.1286 2.52725 14.9807 2.10846 14.6709 1.82617C14.5889 1.75152 14.3348 1.6277 13.5674 1.5625C12.8391 1.50065 11.8334 1.5 10.4268 1.5H1.5C1.08579 1.5 0.75 1.16421 0.75 0.75C0.75 0.335786 1.08579 7.69889e-09 1.5 7.69889e-09H10.4268Z" fill="white"/>
</g>
<defs>
<clipPath id="clip0_274_1528">
<rect width="16" height="16" fill="white"/>
</clipPath>
</defs>
</svg>
