<svg width="16" height="16" viewBox="0 0 16 16" fill="none" xmlns="http://www.w3.org/2000/svg">
<path d="M9.09369 13.8344C8.79503 13.8344 8.53743 13.7262 8.32089 13.5096C8.10436 13.2931 7.99609 13.0355 7.99609 12.7368C7.99609 12.4307 8.10436 12.1731 8.32089 11.964C8.53743 11.755 8.79503 11.6504 9.09369 11.6504C9.39236 11.6504 9.64623 11.755 9.85529 11.964C10.0718 12.1731 10.1801 12.4307 10.1801 12.7368C10.1801 13.0355 10.0718 13.2931 9.85529 13.5096C9.64623 13.7262 9.39236 13.8344 9.09369 13.8344Z" fill="white"/>
<path d="M4.17341 13.8344C3.52381 13.8344 2.94515 13.6925 2.43741 13.4088C1.93715 13.1176 1.56755 12.6957 1.32861 12.1432L2.80701 11.6056C2.91155 11.9715 3.07955 12.2253 3.31101 12.3672C3.54995 12.5016 3.80755 12.5688 4.08381 12.5688C4.47955 12.5688 4.80435 12.4531 5.05821 12.2216C5.31208 11.9901 5.43901 11.6579 5.43901 11.2248C5.43901 10.7619 5.30461 10.4221 5.03581 10.2056C4.77448 9.98908 4.46835 9.88081 4.11741 9.88081C3.56488 9.88081 3.15421 10.1235 2.88541 10.6088L1.37341 10.0488L1.84381 6.21841H6.85021V7.60721H3.25501L3.08701 9.00721C3.25875 8.88028 3.48275 8.78321 3.75901 8.71601C4.04275 8.64881 4.31528 8.61521 4.57661 8.61521C5.02461 8.61521 5.44648 8.71228 5.84221 8.90641C6.24541 9.10055 6.57021 9.39175 6.81661 9.78001C7.07048 10.1608 7.19741 10.6424 7.19741 11.2248C7.19741 11.7923 7.05555 12.2701 6.77181 12.6584C6.49555 13.0467 6.12595 13.3416 5.66301 13.5432C5.20755 13.7373 4.71101 13.8344 4.17341 13.8344Z" fill="white"/>
<path d="M12.1389 13.98V5.95186H9.41504V3.7477C10.0482 3.7477 10.5739 3.71783 10.992 3.6581C11.4101 3.58642 11.7566 3.43111 12.0314 3.19218C12.3181 2.9413 12.569 2.54706 12.784 2.00946H14.8448V13.98H12.1389Z" fill="url(#paint0_radial_274_1266)"/>
<path d="M6.92285 4.70002V2.82962H7.36525V4.31082H8.26125V4.70002H6.92285Z" fill="white"/>
<path d="M5.00342 4.70002V2.82962H5.61942C5.77248 2.82962 5.91435 2.84549 6.04502 2.87722C6.17755 2.90709 6.29235 2.95842 6.38942 3.03122C6.48835 3.10215 6.56488 3.19829 6.61902 3.31962C6.67502 3.43909 6.70302 3.58749 6.70302 3.76482C6.70302 3.94402 6.67502 4.09335 6.61902 4.21282C6.56488 4.33229 6.48835 4.42842 6.38942 4.50122C6.29235 4.57215 6.17755 4.62349 6.04502 4.65522C5.91435 4.68509 5.77248 4.70002 5.61942 4.70002H5.00342ZM5.44582 4.32762H5.62782C5.70808 4.32762 5.78462 4.32109 5.85742 4.30802C5.93208 4.29495 5.99835 4.26975 6.05622 4.23242C6.11595 4.19322 6.16262 4.13629 6.19622 4.06162C6.22982 3.98695 6.24662 3.88802 6.24662 3.76482C6.24662 3.64162 6.22982 3.54269 6.19622 3.46802C6.16262 3.39149 6.11595 3.33455 6.05622 3.29722C5.99835 3.25802 5.93208 3.23189 5.85742 3.21882C5.78462 3.20389 5.70808 3.19642 5.62782 3.19642H5.44582V4.32762Z" fill="white"/>
<path d="M3.95288 4.73362C3.65982 4.73362 3.45168 4.66362 3.32848 4.52362C3.20715 4.38362 3.14648 4.16989 3.14648 3.88242V2.82962H3.58888V3.91882C3.58888 4.01029 3.59728 4.09055 3.61408 4.15962C3.63275 4.22682 3.66822 4.27909 3.72048 4.31642C3.77275 4.35375 3.85022 4.37242 3.95288 4.37242C4.05555 4.37242 4.13208 4.35375 4.18248 4.31642C4.23475 4.27909 4.26928 4.22682 4.28608 4.15962C4.30475 4.09055 4.31408 4.01029 4.31408 3.91882V2.82962H4.75648V3.88242C4.75648 4.16989 4.69488 4.38362 4.57168 4.52362C4.44848 4.66362 4.24222 4.73362 3.95288 4.73362Z" fill="white"/>
<path d="M1.18604 4.70002V2.82962H1.74884L2.47124 4.16242V2.82962H2.89964V4.70002H2.33404L1.61164 3.36722V4.70002H1.18604Z" fill="white"/>
<defs>
<radialGradient id="paint0_radial_274_1266" cx="0" cy="0" r="1" gradientUnits="userSpaceOnUse" gradientTransform="translate(14.814 13.74) rotate(-124.422) scale(11.8967 11.8307)">
<stop stop-color="#BE00A9"/>
<stop offset="1" stop-color="#F38FE8"/>
</radialGradient>
</defs>
</svg>
