<svg width="16" height="16" viewBox="0 0 16 16" fill="none" xmlns="http://www.w3.org/2000/svg">
<g clip-path="url(#clip0_274_1561)">
<path d="M3.5 6.25V2.25C3.5 2.00677 3.49956 1.86191 3.49219 1.75391C3.48528 1.65264 3.47534 1.63956 3.48145 1.6543C3.45607 1.59304 3.40696 1.54393 3.3457 1.51855C3.36044 1.52466 3.34736 1.51472 3.24609 1.50781C3.13809 1.50044 2.99323 1.5 2.75 1.5C2.33579 1.5 2 1.16421 2 0.75C2 0.335786 2.33579 0 2.75 0C2.97271 0 3.17773 5.78715e-05 3.34863 0.0117188C3.52616 0.0238553 3.72159 0.0506596 3.91992 0.132812C4.34868 0.310426 4.68957 0.651321 4.86719 1.08008C4.94934 1.27841 4.97614 1.47384 4.98828 1.65137C4.99994 1.82227 5 2.02729 5 2.25V6.25C5 6.66421 4.66421 7 4.25 7C3.83579 7 3.5 6.66421 3.5 6.25Z" fill="white"/>
<path d="M9.00022 4.87501C9.00022 4.58076 8.99199 4.26739 9.07542 3.9922C9.24508 3.4329 9.68311 2.99487 10.2424 2.82521C10.5176 2.74178 10.831 2.75001 11.1252 2.75001H13.8752C14.0573 2.75001 14.166 2.7493 14.2473 2.74513C14.3237 2.7412 14.3343 2.73567 14.3225 2.73927C14.4024 2.71503 14.4652 2.65218 14.4895 2.57228C14.4859 2.58413 14.4914 2.57351 14.4953 2.49708C14.4995 2.41577 14.5002 2.30711 14.5002 2.12501C14.5002 1.94291 14.4995 1.83425 14.4953 1.75294C14.4914 1.67651 14.4859 1.66589 14.4895 1.67774C14.4652 1.59784 14.4024 1.53499 14.3225 1.51075C14.3343 1.51435 14.3237 1.50882 14.2473 1.50489C14.166 1.50072 14.0573 1.50001 13.8752 1.50001H9.75022C9.33601 1.50001 9.00022 1.16422 9.00022 0.75001C9.00022 0.335796 9.33601 9.90718e-06 9.75022 9.90718e-06H13.8752C14.1695 9.90553e-06 14.4828 -0.00822069 14.758 0.0752052C15.3173 0.244868 15.7554 0.682895 15.925 1.2422C16.0085 1.51739 16.0002 1.83076 16.0002 2.12501C16.0002 2.41926 16.0085 2.73263 15.925 3.00782C15.7554 3.56713 15.3173 4.00515 14.758 4.17481C14.4828 4.25824 14.1695 4.25001 13.8752 4.25001H11.1252C10.9431 4.25001 10.8345 4.25072 10.7532 4.25489C10.6767 4.25882 10.6661 4.26435 10.678 4.26075C10.5981 4.28499 10.5352 4.34784 10.511 4.42774C10.5146 4.41589 10.509 4.42651 10.5051 4.50294C10.5009 4.58425 10.5002 4.69291 10.5002 4.87501C10.5002 5.05711 10.5009 5.16577 10.5051 5.24708C10.509 5.32351 10.5146 5.33413 10.511 5.32228C10.5352 5.40218 10.5981 5.46503 10.678 5.48927C10.6661 5.48567 10.6767 5.4912 10.7532 5.49513C10.8345 5.4993 10.9431 5.50001 11.1252 5.50001H15.2502L15.3274 5.50392C15.7053 5.54254 16.0002 5.86184 16.0002 6.25001C16.0002 6.63818 15.7053 6.95748 15.3274 6.9961L15.2502 7.00001H11.1252C10.831 7.00001 10.5176 7.00824 10.2424 6.92481C9.68311 6.75515 9.24508 6.31713 9.07542 5.75782C8.99199 5.48263 9.00022 5.16926 9.00022 4.87501Z" fill="white"/>
<path d="M5.5 13.6504V13.4863C5.5 13.4217 5.49965 13.3852 5.49902 13.3574C5.4985 13.3345 5.4979 13.3286 5.49805 13.3301C5.49468 13.3021 5.48684 13.275 5.47461 13.25H0.75C0.335786 13.25 2.0133e-08 12.9142 0 12.5C0 12.0858 0.335786 11.75 0.75 11.75H5.47461C5.48684 11.725 5.49468 11.6979 5.49805 11.6699C5.4979 11.6714 5.4985 11.6655 5.49902 11.6426C5.49965 11.6148 5.5 11.5783 5.5 11.5137V11.3496C5.5 11.0574 5.4998 10.883 5.48926 10.7539C5.47942 10.6338 5.46431 10.6203 5.47266 10.6367C5.44869 10.5897 5.41032 10.5513 5.36328 10.5273C5.37966 10.5357 5.36616 10.5206 5.24609 10.5107C5.11702 10.5002 4.94256 10.5 4.65039 10.5H0.75C0.335786 10.5 0 10.1642 0 9.75C0 9.33579 0.335786 9 0.75 9H4.65039C4.91789 9 5.16389 8.99991 5.36816 9.0166C5.58121 9.03403 5.81473 9.07314 6.04492 9.19043C6.37403 9.35818 6.64182 9.62597 6.80957 9.95508C6.92686 10.1853 6.96597 10.4188 6.9834 10.6318C7.00009 10.8361 7 11.0821 7 11.3496V11.5137C7 11.6192 7.00161 11.7329 6.98828 11.8457C6.96081 12.0775 6.88575 12.2994 6.77246 12.5C6.88575 12.7006 6.96081 12.9225 6.98828 13.1543C7.00161 13.2671 7 13.3808 7 13.4863V13.6504C7 13.9179 7.00009 14.1639 6.9834 14.3682C6.96597 14.5812 6.92686 14.8147 6.80957 15.0449C6.64182 15.374 6.37403 15.6418 6.04492 15.8096C5.81473 15.9269 5.58121 15.966 5.36816 15.9834C5.16389 16.0001 4.91789 16 4.65039 16H0.75C0.335786 16 4.02659e-08 15.6642 0 15.25C0 14.8358 0.335786 14.5 0.75 14.5H4.65039C4.94256 14.5 5.11702 14.4998 5.24609 14.4893C5.36616 14.4794 5.37966 14.4643 5.36328 14.4727C5.41032 14.4487 5.44869 14.4103 5.47266 14.3633C5.46431 14.3797 5.47942 14.3662 5.48926 14.2461C5.4998 14.117 5.5 13.9426 5.5 13.6504Z" fill="white"/>
<path d="M14.5 15.25V13.25H11.3496C11.0821 13.25 10.8361 13.2501 10.6318 13.2334C10.4188 13.216 10.1853 13.1769 9.95508 13.0596C9.62597 12.8918 9.35818 12.624 9.19043 12.2949C9.07314 12.0647 9.03403 11.8312 9.0166 11.6182C8.99991 11.4139 9 11.1679 9 10.9004V9.75C9 9.33579 9.33579 9 9.75 9C10.1642 9 10.5 9.33579 10.5 9.75V10.9004C10.5 11.1926 10.5002 11.367 10.5107 11.4961C10.5206 11.6162 10.5357 11.6297 10.5273 11.6133C10.5513 11.6603 10.5897 11.6987 10.6367 11.7227C10.6203 11.7143 10.6338 11.7294 10.7539 11.7393C10.883 11.7498 11.0574 11.75 11.3496 11.75H14.5V9.75C14.5 9.33579 14.8358 9 15.25 9C15.6642 9 16 9.33579 16 9.75V15.25C16 15.6642 15.6642 16 15.25 16C14.8358 16 14.5 15.6642 14.5 15.25Z" fill="white"/>
</g>
<defs>
<clipPath id="clip0_274_1561">
<rect width="16" height="16" fill="white"/>
</clipPath>
</defs>
</svg>
