<svg width="16" height="16" viewBox="0 0 16 16" fill="none" xmlns="http://www.w3.org/2000/svg">
<g clip-path="url(#clip0_274_1258)">
<path d="M11.5 6.9502C11.5 6.37777 11.4998 5.99315 11.4756 5.69727C11.4521 5.41027 11.4094 5.27316 11.3633 5.18262C11.2435 4.94751 11.0525 4.75655 10.8174 4.63672C10.7268 4.59059 10.5897 4.54788 10.3027 4.52442C10.0069 4.50024 9.62224 4.5 9.04981 4.5H6.9502C6.37777 4.5 5.99315 4.50024 5.69727 4.52442C5.41027 4.54788 5.27316 4.59059 5.18262 4.63672C4.94751 4.75655 4.75655 4.94751 4.63672 5.18262C4.59059 5.27316 4.54788 5.41027 4.52442 5.69727C4.50024 5.99315 4.5 6.37777 4.5 6.9502V9.04981C4.5 9.62224 4.50024 10.0069 4.52442 10.3027C4.54788 10.5897 4.59059 10.7268 4.63672 10.8174C4.75655 11.0525 4.94751 11.2435 5.18262 11.3633C5.27316 11.4094 5.41027 11.4521 5.69727 11.4756C5.99315 11.4998 6.37777 11.5 6.9502 11.5H9.04981C9.62224 11.5 10.0069 11.4998 10.3027 11.4756C10.5897 11.4521 10.7268 11.4094 10.8174 11.3633C11.0525 11.2435 11.2435 11.0525 11.3633 10.8174C11.4094 10.7268 11.4521 10.5897 11.4756 10.3027C11.4998 10.0069 11.5 9.62224 11.5 9.04981V6.9502ZM13 9.04981C13 9.59749 13.001 10.0537 12.9707 10.4248C12.9397 10.8045 12.8719 11.1609 12.7002 11.4981C12.4365 12.0155 12.0155 12.4365 11.4981 12.7002C11.1609 12.8719 10.8045 12.9397 10.4248 12.9707C10.0537 13.001 9.59749 13 9.04981 13H6.9502C6.40252 13 5.94633 13.001 5.5752 12.9707C5.19547 12.9397 4.8391 12.8719 4.50196 12.7002C3.98451 12.4365 3.56346 12.0155 3.29981 11.4981C3.1281 11.1609 3.06033 10.8045 3.0293 10.4248C2.99898 10.0537 3 9.59749 3 9.04981V6.9502C3 6.40252 2.99898 5.94633 3.0293 5.5752C3.06033 5.19547 3.1281 4.8391 3.29981 4.50196C3.56346 3.98451 3.98451 3.56346 4.50196 3.29981C4.8391 3.1281 5.19547 3.06033 5.5752 3.0293C5.94633 2.99898 6.40252 3 6.9502 3H9.04981C9.59749 3 10.0537 2.99898 10.4248 3.0293C10.8045 3.06033 11.1609 3.1281 11.4981 3.29981C12.0155 3.56346 12.4365 3.98451 12.7002 4.50196C12.8719 4.8391 12.9397 5.19547 12.9707 5.5752C13.001 5.94633 13 6.40252 13 6.9502V9.04981Z" fill="white"/>
<path d="M0 12V4C0 3.58579 0.335786 3.25 0.75 3.25C1.16421 3.25 1.5 3.58579 1.5 4V12C1.5 12.4142 1.16421 12.75 0.75 12.75C0.335786 12.75 0 12.4142 0 12Z" fill="white"/>
<path d="M14.5 12V4C14.5 3.58579 14.8358 3.25 15.25 3.25C15.6642 3.25 16 3.58579 16 4V12C16 12.4142 15.6642 12.75 15.25 12.75C14.8358 12.75 14.5 12.4142 14.5 12Z" fill="white"/>
<path d="M4 -3.82475e-07L12 -3.27835e-08C12.4142 -1.46777e-08 12.75 0.335786 12.75 0.75C12.75 1.16421 12.4142 1.5 12 1.5L4 1.5C3.58579 1.5 3.25 1.16421 3.25 0.75C3.25 0.335786 3.58579 -4.0058e-07 4 -3.82475e-07Z" fill="white"/>
<path d="M4 14.5L12 14.5C12.4142 14.5 12.75 14.8358 12.75 15.25C12.75 15.6642 12.4142 16 12 16L4 16C3.58579 16 3.25 15.6642 3.25 15.25C3.25 14.8358 3.58579 14.5 4 14.5Z" fill="white"/>
</g>
<defs>
<clipPath id="clip0_274_1258">
<rect width="16" height="16" fill="white"/>
</clipPath>
</defs>
</svg>
