<svg width="16" height="16" viewBox="0 0 16 16" fill="none" xmlns="http://www.w3.org/2000/svg">
<g clip-path="url(#clip0_274_1958)">
<path d="M7.37158 0.0668108C7.78604 -0.022022 8.21494 -0.0220302 8.62939 0.0668108C9.0979 0.16732 9.53813 0.42438 10.4185 0.937905L12.8813 2.37443C13.7489 2.88051 14.1831 3.13326 14.4985 3.48576C14.7776 3.79764 14.9879 4.16472 15.1167 4.5629C15.2623 5.01299 15.2622 5.51549 15.2622 6.51994V9.47892C15.2622 10.4834 15.2623 10.9859 15.1167 11.436C14.9879 11.8341 14.7775 12.2012 14.4985 12.5131L14.3735 12.642C14.0673 12.9333 13.6402 13.1828 12.8813 13.6254L10.4185 15.0619L9.8335 15.4008C9.3165 15.6943 8.98072 15.8577 8.62939 15.933L8.47314 15.9623C8.15984 16.0123 7.84015 16.0124 7.52686 15.9623L7.37158 15.933C7.02016 15.8576 6.68379 15.6944 6.1665 15.4008L5.58154 15.0619L3.11963 13.6254C2.36054 13.1826 1.93268 12.9335 1.62646 12.642L1.50244 12.5131C1.22335 12.2012 1.01212 11.8342 0.883301 11.436C0.737786 10.9859 0.737793 10.4833 0.737793 9.47892V6.51994C0.737793 5.51559 0.737782 5.01295 0.883301 4.5629C0.995976 4.21459 1.17195 3.89042 1.40088 3.60587L1.50244 3.48576C1.73895 3.22152 2.04188 3.01241 2.54443 2.71134L3.11963 2.37443L5.58154 0.937905C6.35188 0.488542 6.78564 0.235278 7.1958 0.111733L7.37158 0.0668108ZM11.9165 7.12931L8.9751 8.89494C8.902 8.9388 8.82653 8.97701 8.74951 9.01017V14.2826C8.94239 14.1808 9.22399 14.0219 9.6626 13.766L12.1255 12.3295C13.0796 11.773 13.2601 11.6475 13.3804 11.5131C13.5198 11.3573 13.6255 11.1739 13.6899 10.975C13.7455 10.8034 13.7622 10.5841 13.7622 9.47892V6.51994C13.7622 6.32935 13.7604 6.16502 13.7593 6.02287L11.9165 7.12931ZM2.23779 6.51994V9.47892C2.23779 10.5841 2.25552 10.8034 2.31104 10.975C2.37543 11.1738 2.4803 11.3573 2.61963 11.5131C2.73992 11.6475 2.92089 11.7727 3.87549 12.3295L6.3374 13.766C6.77481 14.0212 7.0565 14.1797 7.24951 14.2817V9.00822C7.17362 8.97537 7.09894 8.93818 7.02686 8.89494L2.23975 6.02287C2.23859 6.16502 2.23779 6.32935 2.23779 6.51994ZM3.87549 3.66935C2.92109 4.22609 2.73992 4.35134 2.61963 4.48576C2.61671 4.48902 2.61373 4.49223 2.61084 4.49552L7.79834 7.6088C7.92268 7.6834 8.07826 7.68331 8.20264 7.6088L10.0728 6.48576L4.63623 3.22501L3.87549 3.66935ZM8.31494 1.53361C8.10777 1.48921 7.89321 1.48921 7.68604 1.53361C7.50747 1.57195 7.30581 1.66793 6.3374 2.23283L6.11475 2.36173L11.5308 5.61173L13.3892 4.4965C13.3861 4.49304 13.3834 4.48919 13.3804 4.48576C13.2601 4.35143 13.0794 4.2258 12.1255 3.66935L9.6626 2.23283C8.69465 1.6682 8.49348 1.57195 8.31494 1.53361Z" fill="white"/>
</g>
<defs>
<clipPath id="clip0_274_1958">
<rect width="16" height="16" fill="white"/>
</clipPath>
</defs>
</svg>
