<svg width="16" height="16" viewBox="0 0 16 16" fill="none" xmlns="http://www.w3.org/2000/svg">
<g clip-path="url(#clip0_274_2242)">
<path d="M13.9241 0.230692C14.5778 -0.0729738 15.2088 0.0165015 15.5863 0.394754L15.5872 0.393778C15.9613 0.755764 16.1044 1.39092 15.7591 2.08616L15.7611 2.08714C14.5084 4.64254 11.727 8.1812 9.4847 10.0608L8.18392 11.1506C8.17314 11.1596 8.16183 11.1694 8.15071 11.178C7.99426 11.2983 7.80419 11.4323 7.58528 11.55L7.59017 11.5969C7.59442 11.6777 7.61263 11.8866 7.61263 12.0461C7.61258 13.0308 7.23479 13.9755 6.52669 14.6926L6.52376 14.6955C5.96382 15.2555 5.21293 15.6284 4.34505 15.7424C4.33991 15.7431 4.33457 15.7438 4.32942 15.7444L2.56185 15.9387L2.56087 15.9377C1.12171 16.0973 -0.110325 14.875 0.0608689 13.4172H0.0618455L0.254228 11.6555C0.47104 9.67709 2.1215 8.42702 3.8431 8.38108C3.8459 8.38093 3.84909 8.38024 3.85188 8.38011C3.85637 8.37999 3.86107 8.37922 3.86556 8.37913V8.38011C3.95175 8.37647 4.03751 8.37523 4.11751 8.37718L4.35091 8.38694L4.40852 8.3928C4.42258 8.39462 4.43648 8.39765 4.45052 8.39964C4.56102 8.19536 4.69738 7.99996 4.85188 7.82346L4.85091 7.82444L5.92903 6.52464L5.93196 6.52171C6.88335 5.38329 8.24605 4.12473 9.66536 3.00706C11.0848 1.88929 12.6118 0.871403 13.9066 0.238504L13.9241 0.230692ZM3.91829 9.87815C3.91116 9.87851 3.90395 9.87897 3.89681 9.87913C2.83898 9.90094 1.87263 10.6589 1.74544 11.8186L1.5511 13.5862V13.592C1.49287 14.0873 1.91178 14.5018 2.39681 14.4475H2.39778L4.15364 14.2541C4.7061 14.1807 5.14654 13.9506 5.46224 13.635C5.88716 13.2031 6.11258 12.6404 6.11263 12.0461C6.11263 11.9414 6.10339 11.8783 6.09407 11.718C6.03483 11.2917 5.84213 10.887 5.47688 10.5217L5.47298 10.5178C5.10825 10.1478 4.67418 9.94415 4.23567 9.88304C4.1126 9.87682 4.00936 9.8736 3.91829 9.87815ZM7.3011 6.96702C7.19372 7.08662 7.09107 7.20403 6.99446 7.31956L5.91634 8.61936C5.90782 8.62962 5.89889 8.6397 5.88997 8.64964C5.83735 8.70819 5.79109 8.77872 5.75032 8.85179C6.03013 9.01445 6.29564 9.21651 6.53743 9.46116L6.74837 9.6887C6.90018 9.86583 7.03159 10.0524 7.14388 10.2463L7.22688 10.1994C7.27728 10.1662 7.3339 10.1246 7.40071 10.0735L8.68099 9.00022C8.80748 8.89419 8.9362 8.78133 9.06673 8.66331C9.08428 7.6404 8.33665 6.9159 7.3011 6.96702ZM14.3802 1.54807C14.3671 1.54662 14.3395 1.54638 14.2943 1.56663C13.1661 2.11974 11.7665 3.0456 10.4202 4.10569C9.80318 4.59161 9.20924 5.09903 8.66536 5.59983C9.507 5.86115 10.1377 6.47927 10.4144 7.31175C12.0072 5.57819 13.6146 3.36629 14.4388 1.68479L14.4427 1.67698C14.4512 1.66002 14.4533 1.64864 14.4544 1.6428C14.4555 1.63707 14.456 1.63132 14.4554 1.6262C14.4538 1.61483 14.4469 1.59564 14.4281 1.57737C14.4239 1.57331 14.4194 1.56888 14.4154 1.56468C14.4072 1.55634 14.3954 1.54993 14.3802 1.54807Z" fill="white"/>
</g>
<defs>
<clipPath id="clip0_274_2242">
<rect width="16" height="16" fill="white"/>
</clipPath>
</defs>
</svg>
