<svg width="16" height="16" viewBox="0 0 16 16" fill="none" xmlns="http://www.w3.org/2000/svg">
<g clip-path="url(#clip0_274_2403)">
<path d="M5.06458 2.3094C7.5637 -0.189549 11.627 -0.189652 14.1261 2.3094C16.6252 4.80846 16.6251 8.87181 14.1261 11.3709L10.9825 14.5145C9.58251 15.9145 7.32107 15.9145 5.92103 14.5145C4.5212 13.1145 4.52127 10.8539 5.92103 9.45393L7.91712 7.45784C8.21001 7.16495 8.68477 7.16495 8.97767 7.45784C9.27056 7.75073 9.27056 8.22549 8.97767 8.51839L6.98157 10.5145C6.1676 11.3287 6.16754 12.6397 6.98157 13.4539C7.79575 14.2681 9.10675 14.268 9.92103 13.4539L13.0656 10.3104C14.9787 8.39705 14.9788 5.28322 13.0656 3.36995C11.1523 1.45668 8.03846 1.45678 6.12513 3.36995L2.69837 6.79671C1.10095 8.39424 1.10008 10.9914 2.70032 12.5985C2.99234 12.892 2.99083 13.3668 2.69739 13.659C2.40389 13.9512 1.9291 13.9505 1.63685 13.6571C-0.544924 11.466 -0.546632 7.92073 1.63782 5.73616L5.06458 2.3094Z" fill="white"/>
</g>
<defs>
<clipPath id="clip0_274_2403">
<rect width="16" height="16" fill="white"/>
</clipPath>
</defs>
</svg>
