<svg width="16" height="16" viewBox="0 0 16 16" fill="none" xmlns="http://www.w3.org/2000/svg">
<path d="M5.5 13.25V2.75C5.5 2.38579 5.49955 2.16847 5.49121 2.00586C5.48338 1.85365 5.47153 1.8313 5.47852 1.85449C5.43 1.69495 5.30505 1.57 5.14551 1.52148C5.1687 1.52847 5.14635 1.51662 4.99414 1.50879C4.83153 1.50045 4.61421 1.5 4.25 1.5C3.88579 1.5 3.66847 1.50045 3.50586 1.50879C3.35365 1.51662 3.3313 1.52847 3.35449 1.52148C3.19495 1.57 3.07 1.69495 3.02148 1.85449C3.02847 1.8313 3.01662 1.85365 3.00879 2.00586C3.00462 2.08721 3.00213 2.18259 3.00098 2.30273L3 2.75V13.25C3 13.6142 3.00045 13.8315 3.00879 13.9941C3.01662 14.1464 3.02847 14.1687 3.02148 14.1455C3.07 14.305 3.19495 14.43 3.35449 14.4785C3.3313 14.4715 3.35365 14.4834 3.50586 14.4912C3.66847 14.4995 3.88579 14.5 4.25 14.5V16C3.63931 16 3.29583 16.0001 3.0293 15.9424L2.91895 15.9141C2.32001 15.7322 1.84306 15.2813 1.62598 14.6992L1.58594 14.5811C1.49982 14.2972 1.5 13.9478 1.5 13.25V2.75C1.5 2.05222 1.49982 1.70284 1.58594 1.41895C1.77988 0.780062 2.28006 0.279884 2.91895 0.0859375C3.20284 -0.000181831 3.55222 3.21518e-09 4.25 3.21518e-09C4.94778 3.21518e-09 5.29716 -0.000181831 5.58105 0.0859375C6.21994 0.279884 6.72012 0.780062 6.91406 1.41895C7.00018 1.70284 7 2.05222 7 2.75V13.25C7 13.9478 7.00018 14.2972 6.91406 14.5811L6.87402 14.6992C6.65694 15.2813 6.17999 15.7322 5.58105 15.9141L5.4707 15.9424C5.20417 16.0001 4.86069 16 4.25 16V14.5C4.61421 14.5 4.83153 14.4995 4.99414 14.4912C5.14635 14.4834 5.1687 14.4715 5.14551 14.4785C5.30505 14.43 5.43 14.305 5.47852 14.1455C5.47153 14.1687 5.48338 14.1464 5.49121 13.9941C5.49955 13.8315 5.5 13.6142 5.5 13.25Z" fill="white"/>
<path d="M13 13.25V2.75C13 2.38579 12.9995 2.16847 12.9912 2.00586C12.9834 1.85365 12.9715 1.8313 12.9785 1.85449C12.93 1.69495 12.805 1.57 12.6455 1.52148C12.6687 1.52847 12.6464 1.51662 12.4941 1.50879C12.3315 1.50045 12.1142 1.5 11.75 1.5C11.3858 1.5 11.1685 1.50045 11.0059 1.50879C10.8536 1.51662 10.8313 1.52847 10.8545 1.52148C10.695 1.57 10.57 1.69495 10.5215 1.85449C10.5285 1.8313 10.5166 1.85365 10.5088 2.00586C10.5046 2.08721 10.5021 2.18259 10.501 2.30273L10.5 2.75V13.25C10.5 13.6142 10.5005 13.8315 10.5088 13.9941C10.5166 14.1464 10.5285 14.1687 10.5215 14.1455C10.57 14.305 10.695 14.43 10.8545 14.4785C10.8313 14.4715 10.8536 14.4834 11.0059 14.4912C11.1685 14.4995 11.3858 14.5 11.75 14.5V16C11.1393 16 10.7958 16.0001 10.5293 15.9424L10.4189 15.9141C9.82001 15.7322 9.34306 15.2813 9.12598 14.6992L9.08594 14.5811C8.99982 14.2972 9 13.9478 9 13.25V2.75C9 2.05222 8.99982 1.70284 9.08594 1.41895C9.27988 0.780062 9.78006 0.279884 10.4189 0.0859375C10.7028 -0.000181831 11.0522 3.21518e-09 11.75 3.21518e-09C12.4478 3.21518e-09 12.7972 -0.000181831 13.0811 0.0859375C13.7199 0.279884 14.2201 0.780062 14.4141 1.41895C14.5002 1.70284 14.5 2.05222 14.5 2.75V13.25C14.5 13.9478 14.5002 14.2972 14.4141 14.5811L14.374 14.6992C14.1569 15.2813 13.68 15.7322 13.0811 15.9141L12.9707 15.9424C12.7042 16.0001 12.3607 16 11.75 16V14.5C12.1142 14.5 12.3315 14.4995 12.4941 14.4912C12.6464 14.4834 12.6687 14.4715 12.6455 14.4785C12.805 14.43 12.93 14.305 12.9785 14.1455C12.9715 14.1687 12.9834 14.1464 12.9912 13.9941C12.9995 13.8315 13 13.6142 13 13.25Z" fill="white"/>
</svg>
