<svg width="16" height="16" viewBox="0 0 16 16" fill="none" xmlns="http://www.w3.org/2000/svg">
<path d="M6.35004 11.0336C6.35037 11.0482 6.35084 11.0548 6.35101 11.057C6.35242 11.0694 6.35558 11.082 6.35883 11.0941C6.35859 11.0933 6.35959 11.0985 6.36664 11.1175C6.3754 11.1412 6.38748 11.172 6.40961 11.2279L7.13226 13.0502C7.35306 13.6072 7.50038 13.9776 7.62933 14.2337C7.71024 14.3944 7.75991 14.4585 7.77582 14.4779C7.83573 14.5043 7.903 14.5059 7.96429 14.4828C7.98244 14.4631 8.03564 14.401 8.12445 14.2484C8.26865 14.0006 8.43779 13.6404 8.69183 13.098L9.56976 11.224C9.59934 11.1608 9.61562 11.1259 9.62738 11.099C9.63483 11.0819 9.63749 11.0744 9.63812 11.0726C9.64253 11.0587 9.64597 11.0441 9.64789 11.0296C9.6481 11.0275 9.64839 11.0195 9.64886 11.0013C9.64962 10.972 9.64984 10.9334 9.64984 10.8636L9.64984 2.37047C9.64984 2.0783 9.64965 1.90383 9.6391 1.77476C9.62927 1.6547 9.61415 1.64119 9.6225 1.65757C9.59853 1.61053 9.56016 1.57217 9.51312 1.5482C9.5295 1.55655 9.516 1.54143 9.39594 1.5316C9.26687 1.52105 9.0924 1.52086 8.80023 1.52086L7.19965 1.52086C6.90736 1.52086 6.73304 1.52105 6.60394 1.5316C6.4837 1.54143 6.47037 1.55655 6.48676 1.5482C6.43972 1.57217 6.40135 1.61053 6.37738 1.65757C6.37395 1.67004 6.36658 1.70394 6.36078 1.77476C6.35023 1.90383 6.35004 2.0783 6.35004 2.37046L6.35004 11.0336ZM4.85004 2.37046C4.85004 2.10297 4.84897 1.85697 4.86566 1.65269C4.88309 1.43963 4.92317 1.20614 5.04047 0.975933C5.20824 0.646811 5.47596 0.379014 5.80512 0.211285C6.03537 0.0939625 6.26878 0.0548764 6.48187 0.0374571C6.6862 0.0207628 6.93207 0.0208553 7.19965 0.0208556L8.80023 0.0208557C9.06773 0.0208552 9.31373 0.0207671 9.51801 0.0374573C9.73105 0.0548852 9.96458 0.0939989 10.1948 0.211286C10.5239 0.379033 10.7917 0.646827 10.9594 0.975934C11.0767 1.20612 11.1158 1.43965 11.1332 1.65269C11.1499 1.85697 11.1498 2.10297 11.1498 2.37047L11.1498 10.8636C11.1498 10.9775 11.1517 11.1008 11.1352 11.2259C11.1218 11.3273 11.0987 11.4282 11.0678 11.5257C11.0297 11.6461 10.9765 11.7576 10.9282 11.8607L10.0502 13.7337C9.80869 14.2494 9.60644 14.6836 9.42035 15.0033C9.24505 15.3044 9.00288 15.6565 8.61371 15.8373C8.11247 16.0701 7.53059 16.0522 7.04437 15.7894C6.6668 15.5853 6.44621 15.2188 6.28949 14.9076C6.12317 14.5772 5.94748 14.1321 5.73773 13.6029L5.01508 11.7806C4.97896 11.6895 4.939 11.5908 4.91058 11.4857C4.88764 11.4008 4.87072 11.3143 4.86078 11.2269C4.84848 11.1188 4.85004 11.0124 4.85004 10.9144L4.85004 2.37046Z" fill="white"/>
</svg>
