<svg width="16" height="16" viewBox="0 0 16 16" fill="none" xmlns="http://www.w3.org/2000/svg">
<g clip-path="url(#clip0_274_1992)">
<path d="M4.87349 10.3804C4.86606 10.394 4.86331 10.3997 4.86262 10.4012C4.85764 10.4126 4.85321 10.4247 4.84998 10.4367C4.84951 10.4387 4.84809 10.4454 4.84552 10.4601C4.84124 10.4846 4.8361 10.5171 4.8272 10.5758L4.48539 12.83C4.39461 13.4286 4.33495 13.828 4.3171 14.1175C4.30616 14.2955 4.31537 14.3774 4.31958 14.4043C4.35812 14.4577 4.41574 14.4932 4.48072 14.5041C4.50583 14.4961 4.58341 14.4686 4.73941 14.3783C4.99035 14.2329 5.32064 14.0019 5.81547 13.6531L7.77397 12.2726C7.8305 12.2328 7.86174 12.2109 7.88504 12.1935C7.90407 12.1794 7.90758 12.1748 7.90668 12.1756C7.91723 12.1659 7.9274 12.1555 7.93613 12.1441C7.93727 12.1425 7.94126 12.1362 7.95065 12.1209C7.96581 12.0961 7.98527 12.0629 8.01986 12.003L12.5951 4.07853C12.7411 3.8255 12.8282 3.67431 12.8836 3.55726C12.9351 3.44837 12.9288 3.42912 12.9278 3.44747C12.9306 3.39475 12.9165 3.34234 12.8878 3.29806C12.8978 3.31348 12.8937 3.29364 12.7946 3.22509C12.6881 3.15143 12.5371 3.06402 12.2841 2.91794L10.6924 1.99899C10.4394 1.85293 10.2882 1.76584 10.1711 1.71045C10.0623 1.65896 10.043 1.66527 10.0614 1.66623C10.0086 1.66347 9.95623 1.67751 9.91195 1.70626C9.92737 1.69625 9.90753 1.70039 9.83898 1.79945C9.76531 1.90595 9.67791 2.05695 9.53182 2.30997L4.93124 10.2784C4.90159 10.3298 4.88545 10.3586 4.87349 10.3804ZM8.23279 1.55997C8.36654 1.32831 8.48946 1.11523 8.60605 0.946663C8.72767 0.770874 8.8783 0.588194 9.09497 0.447488C9.40487 0.246289 9.77136 0.148758 10.1403 0.168096C10.3981 0.181704 10.6194 0.264096 10.8125 0.355447C10.9977 0.443124 11.2108 0.56622 11.4424 0.699956L13.0341 1.6189C13.2657 1.75265 13.4788 1.87557 13.6474 1.99217C13.8232 2.11378 14.0059 2.26442 14.1466 2.48108C14.3477 2.79091 14.4457 3.15672 14.4264 3.52561C14.4129 3.7836 14.33 4.0054 14.2386 4.19862C14.1509 4.38387 14.0278 4.59687 13.8941 4.82853L9.31889 12.753C9.26258 12.8505 9.20291 12.9569 9.12701 13.0561C9.06551 13.1363 8.99681 13.2111 8.9224 13.2796C8.83043 13.3642 8.73013 13.4338 8.63798 13.4988L6.67996 14.8784C6.20938 15.2101 5.81467 15.4895 5.49189 15.6765C5.18848 15.8522 4.80037 16.0394 4.37024 16.002C3.81732 15.954 3.32014 15.6461 3.03001 15.173C2.80441 14.805 2.79867 14.3745 2.82024 14.0246C2.8432 13.6523 2.91625 13.1746 3.00256 12.6053L3.34437 10.3512C3.35889 10.2554 3.37364 10.151 3.40156 10.047C3.42413 9.96307 3.45243 9.88073 3.48721 9.80104C3.53021 9.70255 3.58381 9.61224 3.6322 9.52842L8.23279 1.55997Z" fill="white"/>
</g>
<defs>
<clipPath id="clip0_274_1992">
<rect width="16" height="16" fill="white"/>
</clipPath>
</defs>
</svg>
