<svg width="16" height="16" viewBox="0 0 16 16" fill="none" xmlns="http://www.w3.org/2000/svg">
<g clip-path="url(#clip0_274_1886)">
<path d="M12.6786 9.85019L9.85017 12.6786L10.6643 13.4928C11.1958 14.0242 11.3501 14.1671 11.4888 14.2413C11.8569 14.438 12.2994 14.4386 12.6675 14.242C12.8063 14.1678 12.9607 14.0247 13.4927 13.4928C14.0247 12.9608 14.1678 12.8064 14.242 12.6676C14.4386 12.2994 14.438 11.8569 14.2413 11.4888C14.1671 11.3501 14.0242 11.1958 13.4927 10.6643L12.6786 9.85019ZM6.48036 7.54105L2.5381 3.59879L3.9461 9.38063C4.12685 10.123 4.18529 10.3196 4.28101 10.4696C4.37978 10.6243 4.51118 10.7554 4.66633 10.8535C4.81674 10.9486 5.01399 11.0061 5.75737 11.1836L8.55542 11.8521L11.852 8.55544L11.1836 5.7574C11.006 5.01402 10.9486 4.81676 10.8535 4.66636C10.7554 4.51121 10.6243 4.3798 10.4696 4.28104C10.3196 4.18532 10.1229 4.12687 9.3806 3.94613L3.59876 2.53813L7.54102 6.48039C7.83391 6.77328 7.83391 7.24816 7.54102 7.54105C7.24813 7.83394 6.77325 7.83394 6.48036 7.54105ZM14.5534 9.60367C15.008 10.0583 15.3588 10.3974 15.5643 10.7817C15.9973 11.5917 15.9966 12.5647 15.5636 13.3747C15.3581 13.7591 15.0081 14.0987 14.5534 14.5534C14.0987 15.0081 13.759 15.3581 13.3747 15.5637C12.5646 15.9966 11.5917 15.9973 10.7817 15.5644C10.3973 15.3589 10.0583 15.0081 9.60365 14.5534L8.40833 13.3581L5.40865 12.6427C4.7699 12.4901 4.27585 12.382 3.86462 12.1221C3.52319 11.9062 3.23399 11.6173 3.01664 11.2768C2.75486 10.8667 2.64378 10.3731 2.48838 9.73487L0.448547 1.35455L0.431284 1.25857C0.406755 1.03432 0.484775 0.808713 0.64673 0.646757C0.831853 0.461634 1.10016 0.386641 1.35453 0.448574L9.73485 2.48841C10.3731 2.6438 10.8667 2.75488 11.2768 3.01667C11.6173 3.23402 11.9062 3.52322 12.122 3.86465C12.382 4.27587 12.4901 4.76993 12.6427 5.40868L13.3581 8.40836L14.5534 9.60367Z" fill="white"/>
</g>
<defs>
<clipPath id="clip0_274_1886">
<rect width="16" height="16" fill="white"/>
</clipPath>
</defs>
</svg>
