<svg width="16" height="16" viewBox="0 0 16 16" fill="none" xmlns="http://www.w3.org/2000/svg">
<g clip-path="url(#clip0_274_1907)">
<path d="M0.0107422 4.04102C0.0107993 3.4593 0.113471 2.89259 0.325195 2.36328H0.326172C0.543122 1.81391 0.882604 1.31802 1.34082 0.885742C1.91561 0.324522 2.60008 5.9832e-05 3.36328 0C3.66737 0 3.97778 0.0651185 4.26367 0.200195L4.26465 0.199219C4.26807 0.200799 4.27197 0.202502 4.27539 0.204102L4.27441 0.205078C4.56816 0.342525 4.83794 0.552157 5.04785 0.852539L6.72656 3.21875C6.88149 3.43393 7.00622 3.6487 7.09766 3.86914C7.19214 4.08961 7.25977 4.34392 7.25977 4.60742C7.25968 4.92398 7.16772 5.22329 7.00977 5.49023C6.87365 5.73106 6.69037 5.95904 6.48242 6.16699L6.48145 6.16602L6.09375 6.56934C6.19948 6.73696 6.36506 6.96349 6.60547 7.24805C6.92264 7.61456 7.25841 7.98558 7.62012 8.35449C8.00347 8.73062 8.36461 9.06974 8.72754 9.37793L8.97656 9.58105C9.15089 9.71722 9.2983 9.81719 9.41797 9.88965L9.80762 9.50684C10.0071 9.30733 10.2283 9.12471 10.4697 8.99121V8.99023C10.7393 8.82616 11.0399 8.72852 11.375 8.72852C11.6224 8.72855 11.8635 8.78198 12.1006 8.87891C12.323 8.96987 12.5371 9.09325 12.7461 9.23535L12.7529 9.24023L12.7588 9.24414L15.1514 10.9434L15.2559 11.0195C15.4588 11.1785 15.6285 11.3711 15.752 11.6025L15.8096 11.7217L15.8193 11.7451C15.9192 11.9948 15.9892 12.2711 15.9893 12.5889C15.9893 12.9623 15.9061 13.3406 15.7363 13.7002C15.5833 14.0241 15.3827 14.3333 15.1201 14.623C14.6988 15.0873 14.2175 15.4405 13.6602 15.6689L13.6592 15.668C13.1307 15.8875 12.5628 16 11.9619 16C11.1039 16 10.2136 15.7984 9.30469 15.4111C8.41347 15.0314 7.53048 14.5231 6.66309 13.8916L6.66211 13.8906C5.7975 13.2591 4.97821 12.5606 4.19824 11.7881L4.19336 11.7832C3.42108 11.0034 2.72244 10.1843 2.09766 9.32617L2.09473 9.32227C1.4739 8.45914 0.966151 7.58407 0.592773 6.70508L0.591797 6.70312C0.21223 5.80164 0.0107422 4.91201 0.0107422 4.04102ZM1.51074 4.04102C1.51074 4.67738 1.65688 5.3685 1.97266 6.11914L2.09961 6.4043C2.40897 7.07198 2.81435 7.75318 3.31055 8.44336L3.75781 9.0332C4.21833 9.61666 4.71904 10.1816 5.25977 10.7275H5.25879C5.98499 11.4463 6.74524 12.0938 7.5459 12.6787C8.33149 13.2507 9.11631 13.7005 9.89258 14.0312C10.6509 14.3543 11.3411 14.5 11.9619 14.5C12.3741 14.5 12.7469 14.4239 13.0869 14.2822L13.0918 14.2803C13.4186 14.1462 13.7198 13.9336 14.0088 13.6152C14.1666 13.4411 14.2864 13.2575 14.3799 13.0596C14.4566 12.8971 14.4893 12.7374 14.4893 12.5889C14.4892 12.505 14.4721 12.4234 14.4316 12.3184C14.4146 12.2829 14.3823 12.2359 14.2969 12.1768L14.29 12.1709L11.9023 10.4756C11.7493 10.3716 11.6296 10.307 11.5332 10.2676C11.4517 10.2342 11.4029 10.2285 11.375 10.2285C11.3476 10.2285 11.3138 10.2327 11.25 10.2715L11.2285 10.2852L11.207 10.2959C11.1322 10.3349 11.0191 10.4165 10.8682 10.5674L10.8652 10.5713L10.3135 11.1152C10.1012 11.3256 9.82004 11.4541 9.48926 11.4541C9.366 11.4541 9.21231 11.4407 9.04492 11.3779L9.0293 11.3711L9.0127 11.3643C8.97731 11.3491 8.94482 11.3339 8.92578 11.3252C8.90197 11.3143 8.89784 11.3128 8.89941 11.3135L8.8623 11.2988L8.82715 11.2803C8.5152 11.1151 8.15701 10.8602 7.75781 10.5225L7.75684 10.5215C7.35327 10.1788 6.96181 9.80992 6.56445 9.41992L6.55469 9.41016C6.16428 9.01224 5.80556 8.61531 5.47168 8.22949L5.46582 8.22363C5.13359 7.83099 4.87198 7.47413 4.70605 7.16992L4.67383 7.11133L4.65332 7.04785C4.65662 7.05776 4.65827 7.06168 4.64746 7.03613C4.63922 7.01665 4.62187 6.97601 4.60449 6.92969L4.58887 6.88965L4.5791 6.84766C4.56571 6.79406 4.55455 6.73924 4.54688 6.68164L4.53516 6.49902L4.54004 6.3877C4.56311 6.12951 4.66723 5.88162 4.87012 5.67871L5.41113 5.11621L5.41602 5.11133L5.42188 5.10645C5.56181 4.9665 5.65272 4.84554 5.70508 4.75293L5.7168 4.73145C5.75379 4.67062 5.7597 4.63051 5.75977 4.60742C5.75977 4.59543 5.75476 4.54399 5.71875 4.45996L5.71387 4.44922L6.4082 4.16504L5.71387 4.44824C5.67523 4.35394 5.61284 4.23887 5.50977 4.0957L5.50684 4.09082L3.8252 1.7207L3.81934 1.71387V1.71289C3.77142 1.64389 3.71346 1.59699 3.63672 1.56152L3.62598 1.55664C3.55245 1.52138 3.46118 1.5 3.36328 1.5C3.05877 1.50006 2.73248 1.62073 2.38184 1.96582L2.37598 1.97168L2.37012 1.97656C2.06111 2.26808 1.85086 2.5837 1.71973 2.91699L1.71777 2.9209C1.58166 3.26125 1.5108 3.63716 1.51074 4.04102Z" fill="white"/>
</g>
<defs>
<clipPath id="clip0_274_1907">
<rect width="16" height="16" fill="white"/>
</clipPath>
</defs>
</svg>
