<svg width="16" height="16" viewBox="0 0 16 16" fill="none" xmlns="http://www.w3.org/2000/svg">
<path d="M10.0698 1.5L5.93115 1.5V4.41211C5.93115 4.61625 5.93187 4.77326 5.91455 4.93164C5.90006 5.06404 5.87578 5.19532 5.84229 5.32422C5.80218 5.47846 5.74494 5.62554 5.67236 5.81641L4.54541 8.78125C4.52942 8.8233 4.521 8.8681 4.521 8.91309C4.52106 9.11749 4.68672 9.28307 4.89111 9.2832H11.1089C11.3134 9.2832 11.4789 9.11757 11.479 8.91309C11.479 8.86813 11.4715 8.82327 11.4556 8.78125L10.3276 5.81641C10.2551 5.62554 10.1978 5.47846 10.1577 5.32422C10.1242 5.19534 10.0999 5.06401 10.0854 4.93164C10.0681 4.77328 10.0698 4.61623 10.0698 4.41211V1.5ZM11.5698 4.41211C11.5698 4.64729 11.5703 4.71004 11.5767 4.76855C11.5833 4.82879 11.5946 4.88862 11.6099 4.94727C11.6247 5.0042 11.6464 5.06352 11.73 5.2832L12.8569 8.24805C12.9377 8.46039 12.979 8.68591 12.979 8.91309C12.9789 9.946 12.1418 10.7832 11.1089 10.7832H8.75049V15.25C8.75049 15.6641 8.41455 15.9998 8.00049 16C7.58627 16 7.25049 15.6642 7.25049 15.25V10.7832H4.89111C3.8583 10.7831 3.02106 9.94592 3.021 8.91309C3.021 8.68591 3.06232 8.46039 3.14307 8.24805L4.271 5.2832C4.3545 5.06362 4.37532 5.00417 4.39014 4.94727C4.40538 4.88862 4.41675 4.82879 4.42334 4.76855C4.42974 4.71003 4.43115 4.64733 4.43115 4.41211V1.49707C4.0378 1.4739 3.72607 1.14917 3.72607 0.75C3.72607 0.335786 4.06186 0 4.47607 0L11.5249 0L11.6011 0.00390625C11.9793 0.04228 12.2749 0.36165 12.2749 0.75C12.2749 1.14895 11.9629 1.47358 11.5698 1.49707V4.41211Z" fill="white"/>
</svg>
