<svg width="16" height="16" viewBox="0 0 16 16" fill="none" xmlns="http://www.w3.org/2000/svg">
<g clip-path="url(#clip0_274_2267)">
<path d="M10.502 2.35806L13.6419 5.49792L11.1967 7.9431C11.0604 8.07942 10.9546 8.18395 10.8597 8.30079C10.7804 8.39835 10.7081 8.5013 10.6429 8.60877C10.5648 8.73751 10.5016 8.87232 10.4191 9.04657L8.86336 12.3342C8.83805 12.3877 8.80365 12.4367 8.76185 12.4785C8.5601 12.6803 8.23303 12.6803 8.03127 12.4785L3.52139 7.96865C3.31963 7.76688 3.31963 7.43982 3.52139 7.23806C3.56324 7.19626 3.61224 7.16186 3.66571 7.13655L6.95334 5.58078C7.1276 5.4983 7.2624 5.43511 7.39114 5.35705C7.4986 5.29186 7.60157 5.21948 7.69912 5.14022C7.81596 5.04527 7.9205 4.93956 8.05682 4.80324L10.502 2.35806ZM6.75309 3.97598C6.70871 4.01203 6.6618 4.04508 6.61291 4.07473C6.56537 4.10354 6.51172 4.12964 6.31115 4.22457L3.02351 5.78034C2.8145 5.87927 2.62427 6.01392 2.46073 6.1774C1.67318 6.96495 1.67318 8.24176 2.46073 9.02931L4.18499 10.7536L0.581095 14.3575C0.288298 14.6503 0.288491 15.1252 0.581095 15.4181C0.873988 15.711 1.34886 15.711 1.64176 15.4181L5.24565 11.8142L6.97061 13.5392C7.75816 14.3267 9.03497 14.3267 9.82251 13.5392C9.98599 13.3756 10.1199 13.1847 10.2189 12.9757L11.7753 9.68877C11.8703 9.48824 11.8964 9.43453 11.9252 9.387C11.9548 9.33812 11.9879 9.2912 12.0239 9.24682C12.059 9.20366 12.1003 9.16078 12.2573 9.00376L14.7032 6.55789C14.9965 6.84566 15.4672 6.84492 15.7583 6.55374C16.0511 6.26095 16.0509 5.786 15.7583 5.49308L10.5068 0.241571L10.4502 0.190472C10.1556 -0.0499535 9.72082 -0.0330748 9.44617 0.241571C9.15495 0.532787 9.15415 1.00343 9.44203 1.29671L6.99616 3.74258C6.83913 3.8996 6.79626 3.9409 6.75309 3.97598Z" fill="white"/>
</g>
<defs>
<clipPath id="clip0_274_2267">
<rect width="16" height="16" fill="white"/>
</clipPath>
</defs>
</svg>
