<svg width="16" height="16" viewBox="0 0 16 16" fill="none" xmlns="http://www.w3.org/2000/svg">
<path d="M11.3125 2.00488C12.2877 2.02021 12.881 2.0819 13.3623 2.32715C13.9265 2.61472 14.3853 3.07347 14.6729 3.6377C14.9998 4.27941 15 5.11978 15 6.7998V7.76562C15.5211 8.2322 15.8784 8.8775 15.9746 9.6084C16.0003 9.80334 16 10.0356 16 10.5C16 10.9644 16.0003 11.1967 15.9746 11.3916L15.9307 11.6406C15.6633 12.8668 14.6536 13.8085 13.3916 13.9746L13.2354 13.9893C13.1789 13.9929 13.1171 13.9955 13.0469 13.9971L12.5 14H10.5C10.1517 14 9.93397 14.0001 9.76465 13.9893L9.6084 13.9746C8.87745 13.8784 8.23208 13.5212 7.76562 13H4.7998C3.11978 13 2.27941 12.9998 1.6377 12.6729C1.14381 12.4211 0.730572 12.0383 0.442383 11.5684L0.327148 11.3623C0.0819019 10.881 0.0202065 10.2877 0.00488281 9.3125L0 8.2002V6.7998C4.60352e-10 5.22468 6.84261e-05 4.38795 0.269531 3.76074L0.327148 3.6377C0.578875 3.14381 0.961662 2.73057 1.43164 2.44238L1.6377 2.32715C2.27941 2.00018 3.11978 2 4.7998 2H10.2002L11.3125 2.00488ZM10.5 8.5C9.98904 8.5 9.8776 8.50315 9.80469 8.5127C9.13159 8.60131 8.60131 9.13159 8.5127 9.80469C8.50315 9.8776 8.5 9.98904 8.5 10.5C8.5 11.011 8.50315 11.1224 8.5127 11.1953C8.60131 11.8684 9.13159 12.3987 9.80469 12.4873C9.8776 12.4969 9.98904 12.5 10.5 12.5H12.5C13.011 12.5 13.1224 12.4969 13.1953 12.4873C13.8684 12.3987 14.3987 11.8684 14.4873 11.1953C14.4969 11.1224 14.5 11.011 14.5 10.5C14.5 9.98904 14.4969 9.8776 14.4873 9.80469C14.3987 9.13159 13.8684 8.60131 13.1953 8.5127C13.1224 8.50315 13.011 8.5 12.5 8.5H10.5ZM4.7998 3.5C3.93534 3.5 3.37708 3.50144 2.95215 3.53613C2.54542 3.56936 2.39365 3.6253 2.31934 3.66309C2.03709 3.8069 1.8069 4.03709 1.66309 4.31934C1.6253 4.39365 1.56936 4.54542 1.53613 4.95215C1.50144 5.37708 1.5 5.93534 1.5 6.7998V8.2002C1.5 9.06466 1.50144 9.62292 1.53613 10.0479C1.56936 10.4546 1.6253 10.6063 1.66309 10.6807C1.8069 10.9629 2.03709 11.1931 2.31934 11.3369C2.39365 11.3747 2.54542 11.4306 2.95215 11.4639C3.37708 11.4986 3.93534 11.5 4.7998 11.5H7.04492L7.02539 11.3916C6.99973 11.1967 7 10.9644 7 10.5C7 10.0356 6.99973 9.80334 7.02539 9.6084C7.20262 8.2622 8.2622 7.20262 9.6084 7.02539C9.80334 6.99973 10.0356 7 10.5 7H12.5L13.0469 7.00293C13.1873 7.00614 13.2941 7.01256 13.3916 7.02539C13.4281 7.03019 13.464 7.03786 13.5 7.04395V6.7998C13.5 5.93534 13.4986 5.37708 13.4639 4.95215C13.4306 4.54542 13.3747 4.39365 13.3369 4.31934C13.1931 4.03709 12.9629 3.8069 12.6807 3.66309C12.6063 3.6253 12.4546 3.56936 12.0479 3.53613C11.8354 3.51879 11.5897 3.50951 11.2891 3.50488L10.2002 3.5H4.7998Z" fill="white"/>
</svg>
