<svg width="16" height="16" viewBox="0 0 16 16" fill="none" xmlns="http://www.w3.org/2000/svg">
<g clip-path="url(#clip0_274_1310)">
<path d="M15.267 6.75684C15.6265 7.54654 15.6265 8.45347 15.267 9.24317C14.8544 10.1491 13.6074 10.8349 11.1137 12.2061L7.57557 14.1514C5.23416 15.4388 4.06335 16.0826 3.10584 15.9678L2.95057 15.9453C2.17723 15.8113 1.48457 15.3785 1.02479 14.7373L0.926157 14.584C0.586447 13.9956 0.496203 13.1228 0.472056 11.7109L0.463267 9.94531L1.96327 9.94531C1.96327 11.3106 1.9643 12.2309 2.02674 12.9121C2.08974 13.5991 2.20054 13.802 2.24452 13.8633C2.4897 14.2051 2.86691 14.4284 3.28456 14.4785C3.35953 14.4875 3.59008 14.4866 4.22206 14.2109C4.84911 13.9374 5.65638 13.4948 6.85292 12.8369L10.391 10.8916C11.664 10.1916 12.5268 9.71504 13.1312 9.30664C13.7458 8.89139 13.8722 8.68588 13.9017 8.62109C14.0814 8.2263 14.0815 7.77271 13.9017 7.37793C13.8719 7.31265 13.7447 7.10683 13.1312 6.69238C12.5268 6.284 11.6639 5.8083 10.391 5.1084L6.85292 3.16309C5.65634 2.50514 4.84912 2.06257 4.22206 1.78906C3.58996 1.51339 3.35951 1.51251 3.28456 1.52148C2.86686 1.57156 2.4897 1.79487 2.24452 2.13672C2.20055 2.19803 2.08975 2.40029 2.02674 3.08691C1.96427 3.76819 1.96327 4.68911 1.96327 6.05469L0.463267 6.05469L0.472056 4.28906C0.496196 2.87722 0.5865 2.00446 0.926158 1.41602L1.02479 1.2627C1.48456 0.621474 2.17725 0.188723 2.95057 0.054688L3.10585 0.0322271C3.8239 -0.0538645 4.6621 0.286216 6.02381 1.00488L7.57557 1.84863L11.1137 3.79395C13.4515 5.0794 14.6939 5.76205 15.1801 6.58887L15.267 6.75684ZM1.96327 9.94531L0.463267 9.94531L0.463267 6.05469L1.96327 6.05469L1.96327 9.94531Z" fill="white"/>
</g>
<defs>
<clipPath id="clip0_274_1310">
<rect width="16" height="16" fill="white"/>
</clipPath>
</defs>
</svg>
