<svg width="16" height="16" viewBox="0 0 16 16" fill="none" xmlns="http://www.w3.org/2000/svg">
<path d="M10 3.75C10.4142 3.75 10.75 4.08579 10.75 4.5V11.5C10.75 11.9142 10.4142 12.25 10 12.25C7.90909 12.25 6.17116 10.7398 5.81641 8.75098L0.750977 8.75977C0.336919 8.76031 0.000725913 8.42484 6.3871e-07 8.01074C-0.000534228 7.59669 0.334929 7.26049 0.749024 7.25977L5.81641 7.25098C6.17018 5.2609 7.90837 3.75 10 3.75ZM9.25 5.35645C8.0961 5.6831 7.25 6.74156 7.25 8C7.25013 9.25834 8.0964 10.3157 9.25 10.6426V5.35645Z" fill="white"/>
<path d="M15.25 4C15.6642 4 16 4.33579 16 4.75C16 5.16421 15.6642 5.5 15.25 5.5H13C12.5858 5.5 12.25 5.16421 12.25 4.75C12.25 4.33579 12.5858 4 13 4H15.25Z" fill="white"/>
<path d="M15.25 10.5C15.6642 10.5 16 10.8358 16 11.25C16 11.6642 15.6642 12 15.25 12H13C12.5858 12 12.25 11.6642 12.25 11.25C12.25 10.8358 12.5858 10.5 13 10.5H15.25Z" fill="white"/>
</svg>
