<svg width="16" height="16" viewBox="0 0 16 16" fill="none" xmlns="http://www.w3.org/2000/svg">
<g clip-path="url(#clip0_274_1379)">
<rect x="0.75" y="0.75" width="14.5" height="14.5" rx="3.25" stroke="white" stroke-width="1.5"/>
<path d="M4.75 7.25L7.25 7.25L7.25 4.75C7.25 4.33579 7.58579 4 8 4C8.41421 4 8.75 4.33579 8.75 4.75L8.75 7.25L11.25 7.25C11.6642 7.25 12 7.58579 12 8C12 8.41421 11.6642 8.75 11.25 8.75L8.75 8.75L8.75 11.25L8.74609 11.3271C8.70747 11.7051 8.38817 12 8 12C7.61183 12 7.29253 11.7051 7.25391 11.3271L7.25 11.25L7.25 8.75L4.75 8.75C4.33579 8.75 4 8.41421 4 8C4 7.58579 4.33579 7.25 4.75 7.25Z" fill="white"/>
</g>
<defs>
<clipPath id="clip0_274_1379">
<rect width="16" height="16" fill="white"/>
</clipPath>
</defs>
</svg>
