<svg width="16" height="16" viewBox="0 0 16 16" fill="none" xmlns="http://www.w3.org/2000/svg">
<g clip-path="url(#clip0_274_1572)">
<path d="M7.25 15.25V8.75H0.75C0.335786 8.75 0 8.41421 0 8C0 7.58579 0.335786 7.25 0.75 7.25H7.25V0.75C7.25 0.335786 7.58579 -5.84258e-10 8 0C8.41421 2.72431e-08 8.75 0.335786 8.75 0.75V7.25H15.25C15.6642 7.25 16 7.58579 16 8C16 8.41421 15.6642 8.75 15.25 8.75H8.75V15.25C8.75 15.6642 8.41421 16 8 16C7.58579 16 7.25 15.6642 7.25 15.25Z" fill="white"/>
</g>
<defs>
<clipPath id="clip0_274_1572">
<rect width="16" height="16" fill="white"/>
</clipPath>
</defs>
</svg>
