<svg width="16" height="16" viewBox="0 0 16 16" fill="none" xmlns="http://www.w3.org/2000/svg">
<g clip-path="url(#clip0_274_1240)">
<path d="M12.0835 3.58325C12.358 3.30878 12.7928 3.29137 13.0874 3.53149L13.144 3.58325L13.3315 3.77759C14.2465 4.7634 14.8713 5.9852 15.1343 7.30786C15.4147 8.71876 15.2708 10.181 14.7202 11.51C14.1696 12.839 13.2376 13.9755 12.0415 14.7747C10.8454 15.5738 9.43891 16.0002 8.00047 16.0002C6.56207 16.0002 5.15552 15.5737 3.95945 14.7747C2.7633 13.9755 1.83039 12.839 1.27977 11.51C0.72923 10.1811 0.585269 8.71871 0.865705 7.30786C1.14618 5.8969 1.83888 4.60064 2.85594 3.58325C3.14879 3.29043 3.62358 3.29044 3.91649 3.58325C4.20931 3.87611 4.20929 4.35089 3.91649 4.6438C3.10925 5.45132 2.55907 6.47997 2.33641 7.59985C2.11379 8.71975 2.22853 9.88091 2.66551 10.9358C3.10256 11.9907 3.84305 12.8922 4.79246 13.5266C5.74196 14.161 6.85855 14.5002 8.00047 14.5002C9.14226 14.5002 10.2581 14.1609 11.2075 13.5266C12.157 12.8922 12.8974 11.9907 13.3345 10.9358C13.7715 9.88089 13.8862 8.71978 13.6636 7.59985C13.4548 6.55003 12.9582 5.58056 12.2319 4.79809L12.0835 4.6438L12.0317 4.58716C11.7916 4.29262 11.8091 3.85781 12.0835 3.58325Z" fill="white"/>
<path d="M7.25488 7.99902V0.75C7.25488 0.335786 7.59067 0 8.00488 0C8.4191 0 8.75488 0.335786 8.75488 0.75V7.99902C8.75484 8.4132 8.41907 8.74902 8.00488 8.74902C7.5907 8.74902 7.25493 8.4132 7.25488 7.99902Z" fill="white"/>
</g>
<defs>
<clipPath id="clip0_274_1240">
<rect width="16" height="16" fill="white"/>
</clipPath>
</defs>
</svg>
