<svg width="16" height="16" viewBox="0 0 16 16" fill="none" xmlns="http://www.w3.org/2000/svg">
<g clip-path="url(#clip0_274_1838)">
<path d="M15.3271 0.00390625C15.7051 0.0425281 16 0.361834 16 0.75C16 1.13816 15.7051 1.45747 15.3271 1.49609L15.25 1.5H14.75V6.7998C14.75 7.34748 14.751 7.80368 14.7207 8.1748C14.6897 8.55454 14.6219 8.9109 14.4502 9.24805C14.1865 9.76549 13.7655 10.1865 13.248 10.4502C12.9109 10.6219 12.5545 10.6897 12.1748 10.7207C11.8037 10.751 11.3475 10.75 10.7998 10.75H8.82129V14.5H10.3213C10.7355 14.5 11.0713 14.8358 11.0713 15.25C11.0713 15.6642 10.7355 16 10.3213 16H5.82129C5.40719 15.9999 5.07129 15.6641 5.07129 15.25C5.07129 14.8359 5.40719 14.5001 5.82129 14.5H7.32129V10.75H5.2002C4.65252 10.75 4.19632 10.751 3.8252 10.7207C3.44546 10.6897 3.0891 10.6219 2.75195 10.4502C2.23451 10.1865 1.81346 9.76549 1.5498 9.24805C1.37809 8.9109 1.31033 8.55454 1.2793 8.1748C1.24897 7.80368 1.25 7.34748 1.25 6.7998V1.5H0.75C0.335788 1.5 2.31932e-06 1.16421 0 0.75C0 0.335786 0.335786 0 0.75 0H15.25L15.3271 0.00390625ZM2.75 1.5V6.7998C2.75 7.37223 2.75024 7.75686 2.77441 8.05273C2.79788 8.33973 2.84059 8.47684 2.88672 8.56738C3.00655 8.8025 3.1975 8.99345 3.43262 9.11328C3.52316 9.15941 3.66027 9.20212 3.94727 9.22559C4.24314 9.24976 4.62777 9.25 5.2002 9.25H10.7998C11.3722 9.25 11.7569 9.24976 12.0527 9.22559C12.3397 9.20212 12.4768 9.15941 12.5674 9.11328C12.8025 8.99345 12.9935 8.8025 13.1133 8.56738C13.1594 8.47684 13.2021 8.33973 13.2256 8.05273C13.2498 7.75686 13.25 7.37223 13.25 6.7998V1.5H2.75Z" fill="white"/>
</g>
<defs>
<clipPath id="clip0_274_1838">
<rect width="16" height="16" fill="white"/>
</clipPath>
</defs>
</svg>
