<svg width="16" height="16" viewBox="0 0 16 16" fill="none" xmlns="http://www.w3.org/2000/svg">
<path d="M8.38218 8.625C9.44063 10.4583 12.0863 10.4582 13.1449 8.625L14.8773 5.625C15.9358 3.79167 14.6124 1.5 12.4955 1.5H9.0316C6.91473 1.50004 5.59144 3.79171 6.64976 5.625L8.38218 8.625ZM11.8461 7.875C11.3649 8.70826 10.1621 8.70831 9.68101 7.875L7.94957 4.875C7.46845 4.04169 8.06938 3.00004 9.0316 3H12.4955C13.4577 3 14.0595 4.04169 13.5785 4.875L11.8461 7.875Z" fill="white"/>
<path d="M10.7638 14.5C11.4524 14.5 12.0097 14.5005 12.4484 14.4687C12.8833 14.4372 13.2961 14.3701 13.6574 14.1777C14.5697 13.6918 15.1327 12.7347 15.1144 11.7012C15.1071 11.2919 14.966 10.8984 14.7824 10.5029C14.677 10.276 14.5428 10.021 14.3854 9.73234C14.2923 9.56157 14.0482 9.55946 13.951 9.72795L13.3615 10.75V10.75C13.3189 10.8237 13.3122 10.9126 13.3503 10.9888C13.3756 11.0394 13.3993 11.0879 13.421 11.1348C13.5793 11.4756 13.6127 11.6376 13.6144 11.7275C13.6227 12.1973 13.367 12.6326 12.9523 12.8535C12.8729 12.8958 12.7149 12.9455 12.34 12.9727C11.9684 12.9996 11.4754 13 10.7638 13H7.90443C7.36714 13 7.01476 12.9992 6.74037 12.9736V12.9736C6.65449 12.9656 6.60872 12.8727 6.6506 12.7973L7.90403 10.5408C7.94669 10.464 7.94591 10.3704 7.90199 10.2944L7.31947 9.28553C7.22232 9.11729 6.97878 9.1193 6.88443 9.28914L5.63159 11.5443C5.54099 11.7073 5.31013 11.7174 5.20662 11.5622C5.20453 11.559 5.20243 11.5559 5.20033 11.5527L3.38783 8.83398C2.98173 8.22483 2.69858 7.80027 2.50795 7.4668C2.31388 7.1273 2.26689 6.96543 2.25795 6.88086C2.2043 6.37134 2.46722 5.88042 2.92104 5.64258C2.99656 5.60316 3.15706 5.55316 3.54604 5.52637C3.84111 5.50607 4.21177 5.502 4.7009 5.50118C4.89334 5.50086 5.01366 5.29266 4.91745 5.12599L4.34275 4.13051C4.29761 4.0523 4.21378 4.00443 4.12349 4.0058C3.87077 4.00966 3.64453 4.01644 3.4435 4.03027C3.00357 4.06055 2.58542 4.12553 2.22475 4.31445C1.22605 4.83786 0.647285 5.91777 0.765761 7.03906C0.808574 7.44407 0.987296 7.828 1.20619 8.21094C1.42854 8.59989 1.74591 9.0752 2.13978 9.66602L3.95229 12.3848C4.19973 12.7559 4.41559 13.0776 4.61783 13.3405C4.62345 13.3478 4.62417 13.3578 4.61967 13.3658V13.3658C4.61351 13.3768 4.61739 13.3908 4.62837 13.397L4.67322 13.4226C4.68145 13.4273 4.68872 13.4335 4.69475 13.4408C4.69761 13.4443 4.70046 13.4477 4.70326 13.4512C4.94062 13.7441 5.19679 13.9931 5.53627 14.1748C5.87581 14.3565 6.22528 14.4318 6.60072 14.4668C6.96071 14.5004 7.39428 14.5 7.90443 14.5H10.7638Z" fill="white"/>
</svg>
