<svg width="16" height="16" viewBox="0 0 16 16" fill="none" xmlns="http://www.w3.org/2000/svg">
<path d="M2.97263 3.63853C3.82446 3.05488 4.94805 3.05467 5.79978 3.63853C6.23563 3.93742 6.61809 4.55857 7.38376 5.79868C7.45448 5.91322 7.52113 6.02358 7.58591 6.12876C7.83627 5.67051 8.22935 5.29039 8.72653 5.05943L8.92868 4.98228C9.43822 4.82639 10.2218 4.827 11.6142 4.827C13.0063 4.827 13.7901 4.8266 14.2998 4.98228L14.5029 5.05943C15.483 5.5148 16.0591 6.54872 15.9316 7.62192C15.8663 8.17026 15.4482 8.84707 14.6123 10.201C13.8465 11.4413 13.4642 12.0623 13.0283 12.3612C12.1765 12.945 11.0529 12.9449 10.2011 12.3612L10.039 12.2332C9.66328 11.8974 9.28616 11.2862 8.61618 10.201L8.41305 9.87094C8.16292 10.329 7.77128 10.7094 7.27438 10.9403L7.07126 11.0174C6.56167 11.1732 5.7779 11.1727 4.38572 11.1727C2.9933 11.1727 2.20975 11.1733 1.70017 11.0174L1.49803 10.9403C0.517703 10.4849 -0.0592456 9.45113 0.0683401 8.37778C0.117277 7.9665 0.364511 7.48259 0.83787 6.69516L1.38767 5.79868C2.05775 4.71339 2.43471 4.10228 2.81052 3.76646L2.97263 3.63853ZM11.6142 6.327C10.799 6.327 10.2583 6.32704 9.85641 6.35239C9.48303 6.37598 9.3689 6.41601 9.35837 6.41977C8.96639 6.60191 8.73517 7.01595 8.7861 7.44516C8.78872 7.45738 8.81629 7.57528 8.99118 7.90317C9.18074 8.25851 9.46403 8.71987 9.89254 9.41391C10.2856 10.0505 10.5447 10.4677 10.7568 10.7674C10.9586 11.0525 11.0427 11.1191 11.0488 11.1239C11.3894 11.3574 11.8389 11.3572 12.1797 11.1239C12.1797 11.1238 12.2628 11.0638 12.4726 10.7674C12.6848 10.4677 12.9427 10.0498 13.3359 9.41293C13.7644 8.71885 14.0487 8.25852 14.2382 7.90317C14.4126 7.5762 14.4396 7.45795 14.4423 7.44516C14.4933 7.01597 14.263 6.60195 13.8711 6.41977C13.8612 6.41621 13.7479 6.37606 13.373 6.35239C12.9711 6.32702 12.4299 6.327 11.6142 6.327ZM4.95115 4.87583C4.61047 4.64248 4.16092 4.64239 3.82029 4.87583C3.82017 4.87601 3.73792 4.93616 3.5283 5.23228C3.31614 5.53199 3.05716 5.94907 2.66404 6.58579C2.23549 7.27989 1.95226 7.74117 1.76267 8.09653C1.58795 8.42406 1.5603 8.54199 1.5576 8.55454C1.50656 8.98388 1.73773 9.3978 2.12986 9.57993C2.14151 9.58407 2.25646 9.62385 2.62791 9.64731C3.02978 9.67265 3.5705 9.6727 4.38572 9.6727C5.20141 9.6727 5.74256 9.67269 6.1445 9.64731C6.54848 9.62178 6.64825 9.57727 6.64255 9.57993C7.03439 9.39769 7.26485 8.9837 7.21384 8.55454C7.21109 8.54175 7.18412 8.42346 7.00974 8.09653C6.82016 7.74117 6.53596 7.27991 6.10739 6.58579C5.71441 5.94929 5.45623 5.53195 5.24411 5.23228C5.03905 4.94258 4.95492 4.87867 4.95115 4.87583Z" fill="white"/>
</svg>
