<svg width="16" height="16" viewBox="0 0 16 16" fill="none" xmlns="http://www.w3.org/2000/svg">
<g clip-path="url(#clip0_274_2557)">
<path d="M0.328192 5.8516C0.672838 5.62183 1.13847 5.71496 1.36823 6.05961L5.61237 12.4258C5.84183 12.7704 5.74889 13.2362 5.40436 13.4659C5.08138 13.6812 4.65201 13.6125 4.41022 13.3194L4.36432 13.2578L0.120184 6.89164C-0.10958 6.54699 -0.0164546 6.08136 0.328192 5.8516Z" fill="white"/>
<path d="M3.57819 4.8516C3.92284 4.62183 4.38847 4.71496 4.61823 5.05961L7.00007 8.63187L7.87897 7.31449L7.93561 7.24027C8.07698 7.07642 8.28358 6.98061 8.503 6.98051C8.75376 6.98051 8.98792 7.10584 9.12702 7.31449L11.8682 11.4258C12.0978 11.7704 12.0048 12.2361 11.6602 12.4659C11.3372 12.6811 10.9078 12.6125 10.6661 12.3194L10.6202 12.2578L8.50202 9.08207L7.62409 10.4004C7.48499 10.6091 7.25083 10.7344 7.00007 10.7344C6.74939 10.7343 6.5151 10.609 6.37604 10.4004L3.37018 5.89164C3.14042 5.54699 3.23355 5.08136 3.57819 4.8516Z" fill="white"/>
<path d="M14.6319 2.74253C14.8616 2.39799 15.3273 2.30504 15.6719 2.53452C16.0165 2.76423 16.1105 3.22994 15.8809 3.57456L12.8741 8.08335C12.735 8.292 12.5008 8.41733 12.2501 8.41733C11.9994 8.41725 11.7651 8.29193 11.626 8.08335L8.62018 3.57456C8.39042 3.22991 8.48355 2.76429 8.82819 2.53452C9.17284 2.30476 9.63847 2.39788 9.86823 2.74253L12.2501 6.31479L14.6319 2.74253Z" fill="white"/>
</g>
<defs>
<clipPath id="clip0_274_2557">
<rect width="16" height="16" fill="white"/>
</clipPath>
</defs>
</svg>
