<svg width="16" height="16" viewBox="0 0 16 16" fill="none" xmlns="http://www.w3.org/2000/svg">
<g clip-path="url(#clip0_274_1804)">
<path d="M7.37109 0.140077C7.78553 0.0512411 8.21446 0.0512562 8.62891 0.140077C9.09738 0.240568 9.53779 0.497735 10.418 1.01117L12.8184 2.41059C13.6859 2.91662 14.1201 3.17051 14.4355 3.52289C14.7145 3.83471 14.9259 4.20196 15.0547 4.60004C15.2002 5.05005 15.2002 5.55289 15.2002 6.55707V9.44281L15.1973 10.1098C15.1904 10.6954 15.1637 11.0625 15.0547 11.3998L15.002 11.5483C14.8715 11.8894 14.6796 12.2042 14.4355 12.477L14.3115 12.6059C14.0053 12.8975 13.5777 13.1463 12.8184 13.5893L10.418 14.9897L9.83301 15.3276C9.31576 15.6212 8.98031 15.7844 8.62891 15.8598L8.47266 15.8891C8.15956 15.9391 7.84044 15.939 7.52734 15.8891L7.37109 15.8598C6.90258 15.7593 6.4615 15.5023 5.58105 14.9887L4.39941 14.3002L3.18164 13.5893C2.42266 13.1466 1.99466 12.8974 1.68848 12.6059L1.56445 12.477C1.28549 12.1651 1.07409 11.798 0.945312 11.3998C0.799966 10.9499 0.799805 10.4469 0.799805 9.44281V6.55707C0.799805 5.67816 0.799905 5.18331 0.897461 4.77191L0.945312 4.60004C1.05807 4.25154 1.23376 3.92668 1.46289 3.64203L1.56445 3.52289C1.80098 3.25861 2.1038 3.04959 2.60645 2.74848L3.18164 2.41059L5.58105 1.01117C6.35145 0.561773 6.78512 0.308534 7.19531 0.184999L7.37109 0.140077ZM8.31445 1.60687C8.10729 1.5625 7.8927 1.56248 7.68555 1.60687C7.50695 1.6452 7.30555 1.74106 6.33691 2.30609L3.9375 3.70648C2.98305 4.26324 2.80194 4.38848 2.68164 4.52289C2.5422 4.67876 2.43745 4.86297 2.37305 5.06195C2.3176 5.23355 2.29981 5.45268 2.2998 6.55707V9.44281C2.2998 10.5471 2.31764 10.7673 2.37305 10.9389C2.43739 11.1376 2.54244 11.3213 2.68164 11.477C2.80192 11.6114 2.98311 11.7367 3.9375 12.2934L5.15527 13.0043L6.33691 13.6938C6.77473 13.9492 7.05697 14.1075 7.25 14.2094V7.63031L5.48828 9.14105C5.17385 9.41047 4.70023 9.37428 4.43066 9.06C4.16115 8.74557 4.1974 8.27198 4.51172 8.00238L7.51172 5.43109C7.79259 5.19035 8.20741 5.19035 8.48828 5.43109L11.4883 8.00238L11.5439 8.05512C11.806 8.33041 11.822 8.7652 11.5693 9.06C11.2998 9.37428 10.8261 9.41047 10.5117 9.14105L8.75 7.63031V14.2094C8.94286 14.1075 9.22441 13.9491 9.66211 13.6938L12.0625 12.2934C13.0171 11.7366 13.1971 11.6114 13.3174 11.477C13.4568 11.3211 13.5625 11.1379 13.627 10.9389C13.6824 10.7673 13.7002 10.5474 13.7002 9.44281V6.55707C13.7002 5.45293 13.6824 5.23353 13.627 5.06195C13.5625 4.86298 13.4568 4.67875 13.3174 4.52289C13.1971 4.38864 13.016 4.26267 12.0625 3.70648L9.66211 2.30609C8.6943 1.74155 8.49298 1.6452 8.31445 1.60687Z" fill="white"/>
</g>
<defs>
<clipPath id="clip0_274_1804">
<rect width="16" height="16" fill="white"/>
</clipPath>
</defs>
</svg>
