<svg width="16" height="16" viewBox="0 0 16 16" fill="none" xmlns="http://www.w3.org/2000/svg">
<g clip-path="url(#clip0_274_2034)">
<path d="M13.583 6.07907C14.9523 6.29412 16 7.47656 16 8.90622C16 10.3358 14.9522 11.5173 13.583 11.7324V13.4375C13.583 14.8527 12.4357 16 11.0205 16H9.51074C8.9298 16 8.45818 15.5291 8.45801 14.9482C8.45801 14.1946 7.84739 13.583 7.09375 13.583C6.34011 13.583 5.72949 14.1946 5.72949 14.9482C5.72932 15.5291 5.2577 16 4.67676 16H2.86426C1.28239 15.9999 3.53814e-05 14.7176 0 13.1357V11.3232C0 10.7423 0.470886 10.2706 1.05176 10.2705C1.8054 10.2705 2.41699 9.65986 2.41699 8.90622C2.41699 8.15258 1.80539 7.54196 1.05176 7.54196C0.470857 7.54179 0 7.07017 0 6.48923V4.97946C0 3.56423 1.14727 2.41696 2.5625 2.41696H4.26758C4.48269 1.04777 5.66414 -3.02847e-05 7.09375 -3.05176e-05C8.52336 -3.05176e-05 9.70481 1.04777 9.91992 2.41696H11.0205C12.4357 2.41699 13.583 3.56424 13.583 4.97946V6.07907ZM5.72949 2.86423C5.72949 3.44528 5.25781 3.91696 4.67676 3.91696H2.5625C1.9757 3.91696 1.5 4.39266 1.5 4.97946V6.07907C2.86911 6.29426 3.91699 7.47667 3.91699 8.90622C3.91699 10.3357 2.86903 11.5171 1.5 11.7324V13.1357C1.50004 13.8892 2.11081 14.4999 2.86426 14.5H4.26758C4.48283 13.1309 5.66426 12.083 7.09375 12.083C8.52324 12.083 9.70467 13.1309 9.91992 14.5H11.0205C11.6073 14.5 12.083 14.0243 12.083 13.4375V11.3232C12.083 10.7421 12.5546 10.2703 13.1357 10.2705C13.8892 10.2703 14.5 9.65975 14.5 8.90622C14.5 8.15269 13.8892 7.54214 13.1357 7.54196C12.5547 7.54196 12.083 7.07028 12.083 6.48923V4.97946C12.083 4.39266 11.6073 3.91698 11.0205 3.91696H9.51074C8.92974 3.91695 8.45801 3.44523 8.45801 2.86423C8.45783 2.11074 7.84728 1.49997 7.09375 1.49997C6.34022 1.49997 5.72967 2.11074 5.72949 2.86423Z" fill="white"/>
</g>
<defs>
<clipPath id="clip0_274_2034">
<rect width="16" height="16" fill="white"/>
</clipPath>
</defs>
</svg>
