<svg width="16" height="16" viewBox="0 0 16 16" fill="none" xmlns="http://www.w3.org/2000/svg">
<g clip-path="url(#clip0_274_1655)">
<path d="M3.7998 14.5459V16H3.2002V14.5459H3.7998ZM5.5459 12.7998V12.2002C5.5459 11.6162 5.54472 11.2654 5.52344 11.0049C5.50359 10.762 5.47369 10.727 5.48633 10.752C5.43406 10.6495 5.35052 10.5659 5.24805 10.5137C5.27298 10.5263 5.23803 10.4964 4.99512 10.4766C4.73459 10.4553 4.38381 10.4541 3.7998 10.4541H3.2002C2.61619 10.4541 2.26541 10.4553 2.00488 10.4766C1.76197 10.4964 1.72702 10.5263 1.75195 10.5137C1.64948 10.5659 1.56594 10.6495 1.51367 10.752C1.52631 10.727 1.49641 10.762 1.47656 11.0049C1.45528 11.2654 1.4541 11.6162 1.4541 12.2002V12.7998C1.4541 13.3838 1.45528 13.7346 1.47656 13.9951C1.49641 14.238 1.52631 14.273 1.51367 14.248C1.56594 14.3505 1.64948 14.4341 1.75195 14.4863C1.72702 14.4737 1.76197 14.5036 2.00488 14.5234C2.26541 14.5447 2.61619 14.5459 3.2002 14.5459V16L2.45801 15.9971C1.91644 15.9886 1.55193 15.9578 1.25977 15.8535L1.0918 15.7822C0.762562 15.6145 0.487067 15.3592 0.294922 15.0459L0.217773 14.9082C-0.000213534 14.4804 8.1639e-10 13.9199 8.1639e-10 12.7998V12.2002C8.1639e-10 11.0801 -0.000213534 10.5196 0.217773 10.0918C0.409508 9.71554 0.715544 9.40951 1.0918 9.21777C1.41263 9.0543 1.80803 9.01315 2.45801 9.00293L3.2002 9H3.7998C4.91991 9 5.48038 8.99979 5.9082 9.21777C6.28446 9.40951 6.59049 9.71554 6.78223 10.0918C7.00021 10.5196 7 11.0801 7 12.2002V12.7998C7 13.9199 7.00021 14.4804 6.78223 14.9082L6.70508 15.0459C6.51293 15.3592 6.23744 15.6145 5.9082 15.7822L5.74023 15.8535C5.33113 15.9995 4.77981 16 3.7998 16V14.5459C4.38381 14.5459 4.73459 14.5447 4.99512 14.5234C5.23803 14.5036 5.27298 14.4737 5.24805 14.4863C5.35052 14.4341 5.43406 14.3505 5.48633 14.248C5.47369 14.273 5.50359 14.238 5.52344 13.9951C5.54472 13.7346 5.5459 13.3838 5.5459 12.7998Z" fill="white"/>
<path d="M2.5 12.5C2.5 11.9477 2.94772 11.5 3.5 11.5V11.5C4.05228 11.5 4.5 11.9477 4.5 12.5V12.5C4.5 13.0523 4.05228 13.5 3.5 13.5V13.5C2.94772 13.5 2.5 13.0523 2.5 12.5V12.5Z" fill="white"/>
<path d="M3.7998 5.5459V7H3.2002V5.5459H3.7998ZM5.5459 3.7998V3.2002C5.5459 2.61619 5.54472 2.26541 5.52344 2.00488C5.50359 1.76197 5.47369 1.72702 5.48633 1.75195C5.43406 1.64948 5.35052 1.56594 5.24805 1.51367C5.27298 1.52631 5.23803 1.49641 4.99512 1.47656C4.73459 1.45528 4.38381 1.4541 3.7998 1.4541H3.2002C2.61619 1.4541 2.26541 1.45528 2.00488 1.47656C1.76197 1.49641 1.72702 1.52631 1.75195 1.51367C1.64948 1.56594 1.56594 1.64948 1.51367 1.75195C1.52631 1.72702 1.49641 1.76197 1.47656 2.00488C1.45528 2.26541 1.4541 2.61619 1.4541 3.2002V3.7998C1.4541 4.38381 1.45528 4.73459 1.47656 4.99512C1.49641 5.23803 1.52631 5.27298 1.51367 5.24805C1.56594 5.35052 1.64948 5.43406 1.75195 5.48633C1.72702 5.47369 1.76197 5.50359 2.00488 5.52344C2.26541 5.54472 2.61619 5.5459 3.2002 5.5459V7L2.45801 6.99707C1.91644 6.98855 1.55193 6.95778 1.25977 6.85352L1.0918 6.78223C0.762562 6.61445 0.487067 6.35915 0.294922 6.0459L0.217773 5.9082C-0.000213534 5.48038 8.1639e-10 4.91991 8.1639e-10 3.7998V3.2002C8.1639e-10 2.08009 -0.000213534 1.51962 0.217773 1.0918C0.409508 0.715544 0.715544 0.409508 1.0918 0.217773C1.41263 0.0543026 1.80803 0.0131539 2.45801 0.00292969L3.2002 8.1639e-10H3.7998C4.91991 8.1639e-10 5.48038 -0.000213534 5.9082 0.217773C6.28446 0.409508 6.59049 0.715544 6.78223 1.0918C7.00021 1.51962 7 2.08009 7 3.2002V3.7998C7 4.91991 7.00021 5.48038 6.78223 5.9082L6.70508 6.0459C6.51293 6.35915 6.23744 6.61445 5.9082 6.78223L5.74023 6.85352C5.33113 6.99951 4.77981 7 3.7998 7V5.5459C4.38381 5.5459 4.73459 5.54472 4.99512 5.52344C5.23803 5.50359 5.27298 5.47369 5.24805 5.48633C5.35052 5.43406 5.43406 5.35052 5.48633 5.24805C5.47369 5.27298 5.50359 5.23803 5.52344 4.99512C5.54472 4.73459 5.5459 4.38381 5.5459 3.7998Z" fill="white"/>
<path d="M2.5 3.5C2.5 2.94772 2.94772 2.5 3.5 2.5V2.5C4.05228 2.5 4.5 2.94772 4.5 3.5V3.5C4.5 4.05228 4.05228 4.5 3.5 4.5V4.5C2.94772 4.5 2.5 4.05228 2.5 3.5V3.5Z" fill="white"/>
<path d="M12.7998 5.5459V7H12.2002V5.5459H12.7998ZM14.5459 3.7998V3.2002C14.5459 2.61619 14.5447 2.26541 14.5234 2.00488C14.5036 1.76197 14.4737 1.72702 14.4863 1.75195C14.4341 1.64948 14.3505 1.56594 14.248 1.51367C14.273 1.52631 14.238 1.49641 13.9951 1.47656C13.7346 1.45528 13.3838 1.4541 12.7998 1.4541H12.2002C11.6162 1.4541 11.2654 1.45528 11.0049 1.47656C10.762 1.49641 10.727 1.52631 10.752 1.51367C10.6495 1.56594 10.5659 1.64948 10.5137 1.75195C10.5263 1.72702 10.4964 1.76197 10.4766 2.00488C10.4553 2.26541 10.4541 2.61619 10.4541 3.2002V3.7998C10.4541 4.38381 10.4553 4.73459 10.4766 4.99512C10.4964 5.23803 10.5263 5.27298 10.5137 5.24805C10.5659 5.35052 10.6495 5.43406 10.752 5.48633C10.727 5.47369 10.762 5.50359 11.0049 5.52344C11.2654 5.54472 11.6162 5.5459 12.2002 5.5459V7L11.458 6.99707C10.9164 6.98855 10.5519 6.95778 10.2598 6.85352L10.0918 6.78223C9.76256 6.61445 9.48707 6.35915 9.29492 6.0459L9.21777 5.9082C8.99979 5.48038 9 4.91991 9 3.7998V3.2002C9 2.08009 8.99979 1.51962 9.21777 1.0918C9.40951 0.715544 9.71554 0.409508 10.0918 0.217773C10.4126 0.0543026 10.808 0.0131539 11.458 0.00292969L12.2002 8.1639e-10H12.7998C13.9199 8.1639e-10 14.4804 -0.000213534 14.9082 0.217773C15.2845 0.409508 15.5905 0.715544 15.7822 1.0918C16.0002 1.51962 16 2.08009 16 3.2002V3.7998C16 4.91991 16.0002 5.48038 15.7822 5.9082L15.7051 6.0459C15.5129 6.35915 15.2374 6.61445 14.9082 6.78223L14.7402 6.85352C14.3311 6.99951 13.7798 7 12.7998 7V5.5459C13.3838 5.5459 13.7346 5.54472 13.9951 5.52344C14.238 5.50359 14.273 5.47369 14.248 5.48633C14.3505 5.43406 14.4341 5.35052 14.4863 5.24805C14.4737 5.27298 14.5036 5.23803 14.5234 4.99512C14.5447 4.73459 14.5459 4.38381 14.5459 3.7998Z" fill="white"/>
<path d="M11.5 3.5C11.5 2.94772 11.9477 2.5 12.5 2.5V2.5C13.0523 2.5 13.5 2.94772 13.5 3.5V3.5C13.5 4.05228 13.0523 4.5 12.5 4.5V4.5C11.9477 4.5 11.5 4.05228 11.5 3.5V3.5Z" fill="white"/>
<path d="M13 11C12.4477 11 12 11.4477 12 12V12C12 12.5523 12.4477 13 13 13H14C14.5523 13 15 12.5523 15 12V12C15 11.4477 14.5523 11 14 11H13ZM16 14.75C16 15.4404 15.4404 16 14.75 16H14.5C13.9477 16 13.5 15.5523 13.5 15V14.5C13.5 14.2239 13.2761 14 13 14V14C12.7239 14 12.5 14.2239 12.5 14.5V15C12.5 15.5523 12.0523 16 11.5 16H11C10.4477 16 10 15.5523 10 15V14.5C10 14.2239 9.77614 14 9.5 14V14C9.22386 14 9 13.7761 9 13.5V11C9 10.4477 9.44772 10 10 10H10.75C10.8881 10 11 9.88807 11 9.75V9.75C11 9.33579 11.3358 9 11.75 9H14C15.1046 9 16 9.89543 16 11V14.75Z" fill="white"/>
</g>
<defs>
<clipPath id="clip0_274_1655">
<rect width="16" height="16" fill="white"/>
</clipPath>
</defs>
</svg>
