<svg width="16" height="16" viewBox="0 0 16 16" fill="none" xmlns="http://www.w3.org/2000/svg">
<g clip-path="url(#clip0_274_1530)">
<rect x="0.75" y="0.75" width="6" height="6" rx="1.25" stroke="white" stroke-width="1.5"/>
<path d="M2.75 3.75C2.75 3.19772 3.19772 2.75 3.75 2.75V2.75C4.30228 2.75 4.75 3.19772 4.75 3.75V3.75C4.75 4.30228 4.30228 4.75 3.75 4.75V4.75C3.19772 4.75 2.75 4.30228 2.75 3.75V3.75Z" fill="white"/>
<rect x="0.75" y="9.25" width="6" height="6" rx="1.25" stroke="white" stroke-width="1.5"/>
<path d="M2.75 12.25C2.75 11.6977 3.19772 11.25 3.75 11.25V11.25C4.30228 11.25 4.75 11.6977 4.75 12.25V12.25C4.75 12.8023 4.30228 13.25 3.75 13.25V13.25C3.19772 13.25 2.75 12.8023 2.75 12.25V12.25Z" fill="white"/>
<rect x="9.25" y="0.75" width="6" height="6" rx="1.25" stroke="white" stroke-width="1.5"/>
<path d="M11.25 3.75C11.25 3.19772 11.6977 2.75 12.25 2.75V2.75C12.8023 2.75 13.25 3.19772 13.25 3.75V3.75C13.25 4.30228 12.8023 4.75 12.25 4.75V4.75C11.6977 4.75 11.25 4.30228 11.25 3.75V3.75Z" fill="white"/>
<path d="M8.5 14.25V9.25C8.5 8.83579 8.83579 8.5 9.25 8.5C9.66421 8.5 10 8.83579 10 9.25V14.25C10 14.3881 10.1119 14.5 10.25 14.5H15.1963C15.6105 14.5 15.9463 14.8358 15.9463 15.25C15.9463 15.6642 15.6105 16 15.1963 16H10.25C9.2835 16 8.5 15.2165 8.5 14.25Z" fill="white"/>
<path d="M10.75 13.0537V10.25C10.75 9.2835 11.5335 8.5 12.5 8.5H15.25C15.6642 8.5 16 8.83579 16 9.25C16 9.66421 15.6642 10 15.25 10H12.5C12.3619 10 12.25 10.1119 12.25 10.25V13.0537C12.2499 13.4679 11.9142 13.8037 11.5 13.8037C11.0858 13.8037 10.7501 13.4679 10.75 13.0537Z" fill="white"/>
<path d="M16 12.4999V13.0536C16 13.4678 15.6642 13.8036 15.25 13.8036C14.8358 13.8036 14.5 13.4678 14.5 13.0536V12.4999C14.4999 12.3619 14.388 12.2499 14.25 12.2499H13.5L13.4229 12.246C13.0449 12.2073 12.75 11.888 12.75 11.4999C12.7501 11.1118 13.0449 10.7924 13.4229 10.7538L13.5 10.7499H14.25C15.2165 10.7499 15.9999 11.5334 16 12.4999Z" fill="white"/>
<path d="M12.7002 13.25C12.7002 12.8358 13.036 12.5 13.4502 12.5V12.5C13.8644 12.5 14.2002 12.8358 14.2002 13.25V13.25C14.2002 13.6642 13.8644 14 13.4502 14V14C13.036 14 12.7002 13.6642 12.7002 13.25V13.25Z" fill="white"/>
</g>
<defs>
<clipPath id="clip0_274_1530">
<rect width="16" height="16" fill="white"/>
</clipPath>
</defs>
</svg>
