<svg width="16" height="16" viewBox="0 0 16 16" fill="none" xmlns="http://www.w3.org/2000/svg">
<g clip-path="url(#clip0_274_1437)">
<rect x="0.75" y="0.75" width="6" height="6" rx="1.25" stroke="white" stroke-width="1.5"/>
<path d="M2.75 3.75C2.75 3.19772 3.19772 2.75 3.75 2.75V2.75C4.30228 2.75 4.75 3.19772 4.75 3.75V3.75C4.75 4.30228 4.30228 4.75 3.75 4.75V4.75C3.19772 4.75 2.75 4.30228 2.75 3.75V3.75Z" fill="white"/>
<rect x="0.75" y="9.25" width="6" height="6" rx="1.25" stroke="white" stroke-width="1.5"/>
<path d="M2.75 12.25C2.75 11.6977 3.19772 11.25 3.75 11.25V11.25C4.30228 11.25 4.75 11.6977 4.75 12.25V12.25C4.75 12.8023 4.30228 13.25 3.75 13.25V13.25C3.19772 13.25 2.75 12.8023 2.75 12.25V12.25Z" fill="white"/>
<rect x="9.25" y="0.75" width="6" height="6" rx="1.25" stroke="white" stroke-width="1.5"/>
<path d="M11.25 3.75C11.25 3.19772 11.6977 2.75 12.25 2.75V2.75C12.8023 2.75 13.25 3.19772 13.25 3.75V3.75C13.25 4.30228 12.8023 4.75 12.25 4.75V4.75C11.6977 4.75 11.25 4.30228 11.25 3.75V3.75Z" fill="white"/>
<path d="M9 15C9 14.4477 9.44772 14 10 14V14C10.5523 14 11 14.4477 11 15V15C11 15.5523 10.5523 16 10 16V16C9.44772 16 9 15.5523 9 15V15Z" fill="white"/>
<path d="M9 10C9 9.44772 9.44772 9 10 9V9C10.5523 9 11 9.44772 11 10V10C11 10.5523 10.5523 11 10 11V11C9.44772 11 9 10.5523 9 10V10Z" fill="white"/>
<path d="M14 15C14 14.4477 14.4477 14 15 14V14C15.5523 14 16 14.4477 16 15V15C16 15.5523 15.5523 16 15 16V16C14.4477 16 14 15.5523 14 15V15Z" fill="white"/>
<path d="M14 10C14 9.44772 14.4477 9 15 9V9C15.5523 9 16 9.44772 16 10V10C16 10.5523 15.5523 11 15 11V11C14.4477 11 14 10.5523 14 10V10Z" fill="white"/>
<path d="M11.5 12.5C11.5 11.9477 11.9477 11.5 12.5 11.5V11.5C13.0523 11.5 13.5 11.9477 13.5 12.5V12.5C13.5 13.0523 13.0523 13.5 12.5 13.5V13.5C11.9477 13.5 11.5 13.0523 11.5 12.5V12.5Z" fill="white"/>
</g>
<defs>
<clipPath id="clip0_274_1437">
<rect width="16" height="16" fill="white"/>
</clipPath>
</defs>
</svg>
