<svg width="16" height="16" viewBox="0 0 16 16" fill="none" xmlns="http://www.w3.org/2000/svg">
<g clip-path="url(#clip0_274_1422)">
<rect x="0.75" y="0.75" width="14.5" height="14.5" rx="7.25" stroke="white" stroke-width="1.5"/>
<g clip-path="url(#clip1_274_1422)">
<path d="M6.66517 4.33986C7.18279 4.04454 7.78894 3.93722 8.37708 4.03517C8.96528 4.13319 9.50343 4.43083 9.89369 4.88087C10.2841 5.33122 10.5007 5.90519 10.5001 6.50099L10.4913 6.68263C10.4069 7.57051 9.71608 8.14521 9.25697 8.4424C8.98661 8.61739 8.72164 8.74533 8.52747 8.82912C8.42933 8.87147 8.34624 8.90361 8.28626 8.9258C8.25632 8.93687 8.23198 8.94595 8.214 8.95216C8.20501 8.95527 8.19723 8.95807 8.19154 8.95998C8.18891 8.96085 8.18657 8.96131 8.1847 8.96193C8.18371 8.96225 8.18254 8.96265 8.18177 8.9629H8.18079V8.96388H8.17982C7.78581 9.09123 7.363 8.87447 7.23548 8.48048C7.10826 8.08657 7.32405 7.6637 7.7179 7.53615C7.71934 7.53566 7.72181 7.53521 7.72474 7.53419C7.73311 7.5313 7.74766 7.5266 7.76673 7.51955C7.80523 7.5053 7.86323 7.48258 7.93372 7.45216C8.07719 7.39024 8.26278 7.29995 8.44251 7.18361C8.85327 6.91769 9.00013 6.67523 9.00013 6.50099V6.50001C9.00045 6.27049 8.91688 6.04536 8.7599 5.86427C8.6024 5.68261 8.38005 5.55631 8.13001 5.51466C7.87994 5.47311 7.62394 5.51957 7.40833 5.64259C7.19306 5.76544 7.03447 5.95508 6.95521 6.17384L6.25013 5.91798L5.54505 5.6631C5.74808 5.10273 6.14707 4.6355 6.66517 4.33986ZM6.95521 6.17384C6.81411 6.56328 6.38371 6.76513 5.99427 6.62404C5.60499 6.48289 5.40406 6.05245 5.54505 5.6631L6.95521 6.17384Z" fill="white"/>
</g>
<rect x="7.25" y="10.5" width="1.5" height="1.5" rx="0.75" fill="white"/>
</g>
<defs>
<clipPath id="clip0_274_1422">
<rect width="16" height="16" fill="white"/>
</clipPath>
<clipPath id="clip1_274_1422">
<rect width="5" height="5" fill="white" transform="translate(5.5 4)"/>
</clipPath>
</defs>
</svg>
