<svg width="16" height="16" viewBox="0 0 16 16" fill="none" xmlns="http://www.w3.org/2000/svg">
<g clip-path="url(#clip0_274_1278)">
<path d="M10.999 0.057297C11.35 -0.0889813 11.7615 0.0516294 11.9463 0.393235C12.1432 0.757569 12.0079 1.21286 11.6436 1.40984L5.92775 4.49968H10.4502C11.2776 4.49968 11.9437 4.49874 12.4815 4.54265C13.028 4.5873 13.5081 4.68265 13.9522 4.90886C14.6577 5.26835 15.2313 5.84204 15.5908 6.54754C15.8171 6.99169 15.9124 7.47171 15.9571 8.01824C16.001 8.55604 16 9.22198 16 10.0495V10.4743C16 11.3018 16.001 11.9677 15.9571 12.5055C15.9124 13.0522 15.8172 13.5321 15.5908 13.9763C15.2313 14.6819 14.6578 15.2554 13.9522 15.6149C13.508 15.8412 13.028 15.9365 12.4815 15.9811C11.9437 16.0251 11.2777 16.0241 10.4502 16.0241H5.54982C4.72236 16.0241 4.05633 16.0251 3.51856 15.9811C2.97208 15.9365 2.49197 15.8412 2.04786 15.6149C1.34238 15.2554 0.768658 14.6818 0.409182 13.9763C0.182948 13.5321 0.0876229 13.0521 0.0429706 12.5055C-0.000954656 11.9678 1.64205e-06 11.3018 1.74499e-06 10.4743V10.0495C1.52727e-06 9.22198 -0.000965384 8.55604 0.0429706 8.01824C0.087635 7.47169 0.182884 6.9917 0.409182 6.54754C0.762924 5.85328 1.3246 5.28791 2.01465 4.92742C2.05368 4.89435 2.09679 4.86481 2.14356 4.83953L10.9297 0.0895235L10.999 0.057297ZM5.54982 5.99968C4.69762 5.99968 4.10318 5.99998 3.64063 6.03777C3.18698 6.07486 2.92599 6.1442 2.72852 6.2448C2.30523 6.46052 1.96081 6.8049 1.74512 7.2282C1.64451 7.42569 1.57517 7.68657 1.53809 8.14031C1.5003 8.60288 1.5 9.19723 1.5 10.0495V10.4743C1.5 11.3265 1.50031 11.9209 1.53809 12.3835C1.57516 12.8371 1.64456 13.0981 1.74512 13.2956C1.96079 13.7189 2.30529 14.0633 2.72852 14.279C2.92598 14.3796 3.187 14.4489 3.64063 14.486C4.10318 14.5238 4.69762 14.5241 5.54982 14.5241H10.4502C11.3024 14.5241 11.8968 14.5238 12.3594 14.486C12.8131 14.4489 13.074 14.3796 13.2715 14.279C13.6949 14.0633 14.0392 13.719 14.2549 13.2956C14.3555 13.0981 14.4249 12.8373 14.4619 12.3835C14.4997 11.9209 14.5 11.3266 14.5 10.4743V10.0495C14.5 9.19723 14.4997 8.60288 14.4619 8.14031C14.4249 7.6866 14.3555 7.42568 14.2549 7.2282C14.0392 6.80495 13.6948 6.46048 13.2715 6.2448C13.074 6.14426 12.813 6.07483 12.3594 6.03777C11.8968 6 11.3024 5.99968 10.4502 5.99968H5.54982Z" fill="white"/>
<path d="M6.5 10.25C6.5 9.69772 6.05228 9.25 5.5 9.25C4.94772 9.25 4.5 9.69772 4.5 10.25C4.5 10.8023 4.94772 11.25 5.5 11.25C6.05228 11.25 6.5 10.8023 6.5 10.25ZM8 10.25C8 11.6307 6.88071 12.75 5.5 12.75C4.11929 12.75 3 11.6307 3 10.25C3 8.86929 4.11929 7.75 5.5 7.75C6.88071 7.75 8 8.86929 8 10.25Z" fill="white"/>
<path d="M12.5 8.01736C12.9142 8.01736 13.25 8.35315 13.25 8.76736C13.25 9.18158 12.9142 9.51736 12.5 9.51736H9.5C9.08579 9.51736 8.75 9.18158 8.75 8.76736C8.75 8.35315 9.08579 8.01736 9.5 8.01736H12.5Z" fill="white"/>
<path d="M9.875 11.0174C10.2892 11.0174 10.625 11.3532 10.625 11.7674C10.625 12.1816 10.2892 12.5174 9.875 12.5174H9.5C9.08579 12.5174 8.75 12.1816 8.75 11.7674C8.75 11.3532 9.08579 11.0174 9.5 11.0174H9.875Z" fill="white"/>
<path d="M12.5 11.0174C12.9142 11.0174 13.25 11.3532 13.25 11.7674C13.25 12.1816 12.9142 12.5174 12.5 12.5174H12.125C11.7108 12.5174 11.375 12.1816 11.375 11.7674C11.375 11.3532 11.7108 11.0174 12.125 11.0174H12.5Z" fill="white"/>
</g>
<defs>
<clipPath id="clip0_274_1278">
<rect width="16" height="16" fill="white"/>
</clipPath>
</defs>
</svg>
