<svg width="16" height="16" viewBox="0 0 16 16" fill="none" xmlns="http://www.w3.org/2000/svg">
<g clip-path="url(#clip0_274_1866)">
<path d="M0 10.0322C0.0368052 6.90959 2.55999 4.38737 5.68262 4.35058C5.71752 4.35017 5.75793 4.3496 5.8252 4.3496H13.4395L10.3701 1.28027L10.3184 1.22363C10.0779 0.929042 10.0955 0.494383 10.3701 0.21972C10.6446 -0.0545881 11.0785 -0.0719886 11.373 0.167962L11.4307 0.21972L15.7803 4.56933C16.0731 4.86216 16.073 5.33697 15.7803 5.62988L11.4307 9.98046C11.1379 10.2733 10.663 10.2731 10.3701 9.98046C10.0772 9.68757 10.0772 9.21281 10.3701 8.91992L13.4395 5.8496H5.8252C5.75368 5.8496 5.72407 5.8503 5.7002 5.85058C3.3922 5.87777 1.52726 7.74182 1.5 10.0498V10.2998C1.52719 12.6078 3.39216 14.4728 5.7002 14.5H10.9004L10.9766 14.5039C11.3548 14.5423 11.6504 14.8616 11.6504 15.25C11.6504 15.6384 11.3548 15.9577 10.9766 15.9961L10.9004 16H5.68262C2.55998 15.9632 0.0367887 13.44 0 10.3174V10.0322Z" fill="white"/>
</g>
<defs>
<clipPath id="clip0_274_1866">
<rect width="16" height="16" fill="white"/>
</clipPath>
</defs>
</svg>
