<svg width="16" height="16" viewBox="0 0 16 16" fill="none" xmlns="http://www.w3.org/2000/svg">
<g clip-path="url(#clip0_274_2131)">
<path d="M3.625 15.25C3.625 15.6642 3.28921 16 2.875 16C2.46079 16 2.125 15.6642 2.125 15.25L2.125 0.75C2.125 0.335787 2.46079 5.81593e-08 2.875 3.74669e-08C3.28921 1.67745e-08 3.625 0.335786 3.625 0.75L3.625 15.25Z" fill="white"/>
<path d="M12.5947 0.2197C12.8876 -0.0731928 13.3623 -0.0731927 13.6552 0.2197C13.9481 0.512594 13.9481 0.987354 13.6552 1.28025L6.93549 7.99997L12.3749 13.4394V11.9541C12.3752 11.5401 12.7109 11.2041 13.1249 11.2041C13.539 11.2041 13.8747 11.5401 13.8749 11.9541V15.25C13.8749 15.6642 13.5392 16 13.1249 16H9.82904C9.41504 15.9997 9.07904 15.664 9.07904 15.25C9.07905 14.8359 9.41504 14.5002 9.82904 14.5H11.3144L5.34467 8.53025C5.05178 8.23735 5.05178 7.76259 5.34467 7.4697L12.5947 0.2197Z" fill="white"/>
</g>
<defs>
<clipPath id="clip0_274_2131">
<rect width="16" height="16" fill="white"/>
</clipPath>
</defs>
</svg>
