<svg width="16" height="16" viewBox="0 0 16 16" fill="none" xmlns="http://www.w3.org/2000/svg">
<path d="M0.75011 8.24994V7.99994C0.75011 7.54426 0.749442 7.1648 0.770618 6.85443C0.792257 6.53738 0.838827 6.23756 0.959094 5.94721C1.2382 5.27352 1.77369 4.73803 2.44738 4.45893C2.73773 4.33866 3.03755 4.29209 3.3546 4.27045C3.66497 4.24927 4.04443 4.24994 4.50011 4.24994C4.91432 4.24994 5.25011 4.58573 5.25011 4.99994C5.25011 5.41415 4.91432 5.74994 4.50011 5.74994C4.02408 5.74994 3.70457 5.75065 3.45714 5.76752C3.21643 5.78394 3.09875 5.81271 3.02159 5.84467C2.71531 5.97154 2.4717 6.21514 2.34484 6.52143C2.31288 6.59858 2.28411 6.71626 2.26769 6.95697C2.25082 7.2044 2.25011 7.52391 2.25011 7.99994V8.24994C2.25011 9.00229 2.25814 9.21262 2.30382 9.36322C2.42505 9.76243 2.73762 10.075 3.13683 10.1962C3.28743 10.2419 3.49776 10.2499 4.25011 10.2499H4.50011C4.91432 10.2499 5.25011 10.5857 5.25011 10.9999C5.25011 11.4142 4.91432 11.7499 4.50011 11.7499H4.25011C3.60713 11.7499 3.11935 11.7582 2.70226 11.6318C1.82335 11.3652 1.13489 10.6767 0.868274 9.79779C0.741866 9.3807 0.75011 8.89292 0.75011 8.24994Z" fill="white"/>
<path d="M7.99512 1.25C8.40933 1.25 8.74512 1.58579 8.74512 2C8.74512 2.41421 8.40933 2.75 7.99512 2.75H7.24805V13.25H8L8.07715 13.2539C8.45512 13.2925 8.75 13.6118 8.75 14C8.75 14.3882 8.45512 14.7075 8.07715 14.7461L8 14.75H5.00488C4.59067 14.75 4.25488 14.4142 4.25488 14C4.25488 13.5858 4.59067 13.25 5.00488 13.25H5.74805V2.75H5C4.58579 2.75 4.25 2.41421 4.25 2C4.25 1.58579 4.58579 1.25 5 1.25H7.99512Z" fill="white"/>
<path d="M15.25 8C15.25 7.54432 15.2507 7.16486 15.2295 6.85449C15.2079 6.53744 15.1613 6.23762 15.041 5.94727C14.7619 5.27359 14.2264 4.73809 13.5527 4.45899C13.2624 4.33872 12.9626 4.29215 12.6455 4.27051C12.3351 4.24933 11.9557 4.25 11.5 4.25H8.5C8.08578 4.25 7.75 4.58579 7.75 5C7.75 5.41422 8.08578 5.75 8.5 5.75H11.5C11.976 5.75 12.2955 5.75071 12.543 5.76758C12.7837 5.784 12.9014 5.81277 12.9785 5.84473C13.2848 5.9716 13.5284 6.2152 13.6553 6.52149C13.6872 6.59864 13.716 6.71632 13.7324 6.95703C13.7493 7.20446 13.75 7.52397 13.75 8C13.75 8.47603 13.7493 8.79554 13.7324 9.04297C13.716 9.28369 13.6872 9.40136 13.6553 9.47852C13.5284 9.7848 13.2848 10.0284 12.9785 10.1553C12.9014 10.1872 12.7837 10.216 12.543 10.2324C12.2955 10.2493 11.976 10.25 11.5 10.25H8.5C8.08578 10.25 7.75 10.5858 7.75 11C7.75 11.4142 8.08578 11.75 8.5 11.75H11.5C11.9557 11.75 12.3351 11.7507 12.6455 11.7295C12.9626 11.7079 13.2624 11.6613 13.5527 11.541C14.2264 11.2619 14.7619 10.7264 15.041 10.0527C15.1613 9.76239 15.2079 9.46256 15.2295 9.14551C15.2507 8.83515 15.25 8.45568 15.25 8Z" fill="white"/>
</svg>
