<svg width="16" height="16" viewBox="0 0 16 16" fill="none" xmlns="http://www.w3.org/2000/svg">
<g clip-path="url(#clip0_274_2295)">
<path d="M17.1396 15.2499V13.0995C17.1396 11.712 17.1405 10.6261 17.0693 9.75482C16.9974 8.87469 16.848 8.14731 16.5127 7.48919C15.9614 6.40741 15.0818 5.52771 14 4.97649C13.3419 4.64121 12.6145 4.49274 11.7344 4.42083C10.863 4.34966 9.77724 4.34954 8.38965 4.34954H3.70019L6.76953 1.28021L6.82129 1.22357C7.06176 0.928981 7.04419 0.494322 6.76953 0.219659C6.49503 -0.0546485 6.06111 -0.0720503 5.7666 0.167901L5.70898 0.219659L1.35937 4.56927C1.06655 4.8621 1.06668 5.33691 1.35937 5.62982L5.70898 9.9804C6.00178 10.2732 6.47661 10.273 6.76953 9.9804C7.06242 9.68751 7.06242 9.21275 6.76953 8.91985L3.70019 5.84954H8.38965C9.80202 5.84954 10.8162 5.85092 11.6123 5.91595C12.3997 5.98028 12.9079 6.10378 13.3193 6.31341C14.1189 6.72088 14.7693 7.37124 15.1768 8.17083C15.3863 8.58217 15.5099 9.08984 15.5742 9.87689C15.6393 10.6729 15.6396 11.6872 15.6396 13.0995V15.2499C15.6396 15.6641 15.9754 15.9999 16.3896 15.9999C16.8039 15.9999 17.1396 15.6641 17.1396 15.2499Z" fill="white"/>
</g>
<defs>
<clipPath id="clip0_274_2295">
<rect width="16" height="16" fill="white"/>
</clipPath>
</defs>
</svg>
