<svg width="16" height="16" viewBox="0 0 16 16" fill="none" xmlns="http://www.w3.org/2000/svg">
<g clip-path="url(#clip0_274_1864)">
<path d="M16 5.96778C15.9632 9.09041 13.44 11.6126 10.3174 11.6494C10.2825 11.6498 10.2421 11.6504 10.1748 11.6504H2.56055L5.62988 14.7197L5.68164 14.7764C5.92211 15.071 5.90455 15.5056 5.62988 15.7803C5.35538 16.0546 4.92146 16.072 4.62695 15.832L4.56934 15.7803L0.219727 11.4307C-0.0731014 11.1378 -0.0729713 10.663 0.219727 10.3701L4.56934 6.01954C4.86213 5.72674 5.33697 5.72694 5.62988 6.01954C5.92278 6.31243 5.92278 6.78719 5.62988 7.08008L2.56055 10.1504H10.1748C10.2463 10.1504 10.2759 10.1497 10.2998 10.1494C12.6078 10.1222 14.4727 8.25818 14.5 5.9502V5.7002C14.4728 3.39216 12.6078 1.5272 10.2998 1.50001H5.09961L5.02344 1.4961C4.64519 1.45775 4.34961 1.13837 4.34961 0.750007C4.34961 0.361641 4.64519 0.0422659 5.02344 0.00391293L5.09961 6.67572e-06H10.3174C13.44 0.0367953 15.9632 2.55998 16 5.68262V5.96778Z" fill="white"/>
</g>
<defs>
<clipPath id="clip0_274_1864">
<rect width="16" height="16" fill="white"/>
</clipPath>
</defs>
</svg>
