<svg width="16" height="16" viewBox="0 0 16 16" fill="none" xmlns="http://www.w3.org/2000/svg">
<g clip-path="url(#clip0_274_1495)">
<path d="M6.09937 4.69824C6.44543 4.50017 6.85638 4.44838 7.24097 4.55371L10.3962 5.41699C11.1927 5.63519 11.6626 6.45651 11.448 7.2539L10.6033 10.3906C10.4994 10.7756 10.2462 11.1036 9.90015 11.3018C9.55405 11.4998 9.14317 11.5517 8.75855 11.4463L5.60328 10.582C4.80682 10.3637 4.3367 9.54255 4.55152 8.74511L5.39624 5.60937L5.44214 5.46777C5.56484 5.14445 5.79664 4.87164 6.09937 4.69824ZM5.99976 9.13574L9.15503 10L9.99976 6.86425L6.84449 6L5.99976 9.13574Z" fill="white"/>
<path d="M4.88198 0.743153C5.58713 0.594421 6.39907 0.813884 8.0226 1.25194L11.3712 2.15526C12.9916 2.59247 13.8019 2.81162 14.3361 3.29393C14.8058 3.71818 15.1299 4.28016 15.2609 4.8994C15.4097 5.60345 15.1914 6.41439 14.756 8.03514L13.8634 11.3564C13.4272 12.9804 13.2093 13.7929 12.7267 14.3281L12.5607 14.498C12.16 14.8771 11.661 15.1393 11.1183 15.2539C10.5895 15.3654 10.0008 15.2706 9.05483 15.0312L7.97768 14.7461L4.62905 13.8428C3.00862 13.4055 2.19835 13.1864 1.6642 12.7041C1.25318 12.3329 0.954129 11.8563 0.797991 11.3281L0.739397 11.0986C0.627695 10.5706 0.723164 9.98273 0.961077 9.03807L1.24428 7.96288L2.13686 4.64061C2.57316 3.01651 2.79079 2.20407 3.27358 1.66893C3.64506 1.25718 4.12259 0.957968 4.65151 0.801747L4.88198 0.743153ZM5.83608 2.25292C5.43373 2.17889 5.27302 2.19374 5.19155 2.21093C4.88149 2.27637 4.60015 2.43857 4.38783 2.67382C4.33206 2.73564 4.23779 2.8676 4.09975 3.25292C3.95584 3.65472 3.80961 4.19454 3.5851 5.03026L2.69252 8.35155C2.46837 9.18595 2.32485 9.72548 2.24819 10.1445C2.17471 10.5462 2.18995 10.7067 2.20717 10.7881C2.27268 11.0978 2.43512 11.3787 2.67006 11.5908C2.73191 11.6466 2.86327 11.7409 3.24721 11.8789C3.648 12.0229 4.18601 12.1696 5.01967 12.3945L8.3683 13.2978L9.42201 13.5771C9.71408 13.6511 9.95424 13.7065 10.1642 13.7451C10.5666 13.8192 10.7273 13.8033 10.8087 13.7861C11.1189 13.7207 11.4001 13.5586 11.6124 13.3232C11.6682 13.2614 11.7626 13.1303 11.9005 12.7451C12.0445 12.3433 12.1906 11.8037 12.4152 10.9678L13.3078 7.6455C13.5318 6.81139 13.6754 6.27247 13.7521 5.8535C13.8255 5.45237 13.8103 5.29148 13.7931 5.20995C13.7276 4.90026 13.5652 4.61936 13.3302 4.40722C13.2684 4.35144 13.1373 4.25724 12.7531 4.11913C12.3523 3.97511 11.8143 3.82845 10.9806 3.6035L7.63198 2.70018C6.79619 2.47467 6.25588 2.33017 5.83608 2.25292Z" fill="white"/>
</g>
<defs>
<clipPath id="clip0_274_1495">
<rect width="16" height="16" fill="white"/>
</clipPath>
</defs>
</svg>
