<svg width="16" height="16" viewBox="0 0 16 16" fill="none" xmlns="http://www.w3.org/2000/svg">
<g clip-path="url(#clip0_274_2536)">
<path d="M10.2167 12.5007C10.6146 12.1026 10.8489 11.5694 10.8734 11.007L10.9162 10.0334L9.64493 11.3047L9.48472 13.2326L10.2167 12.5007ZM14.382 1.61786C12.1149 2.04553 10.0258 3.14579 8.39023 4.78119L5.6198 7.55162L4.71728 8.96238C4.65413 9.06115 4.66838 9.1908 4.75111 9.27381L6.72604 11.2487C6.80904 11.3315 6.93868 11.3457 7.03747 11.2826L8.44823 10.38L11.2187 7.60962C12.8541 5.97412 13.9543 3.88493 14.382 1.61786ZM2.76721 6.51512L4.69518 6.35492L5.96645 5.08365L4.9928 5.12646C4.43048 5.15091 3.89721 5.38521 3.49917 5.78316L2.76721 6.51512ZM9.09733 15.7413C8.87478 15.9639 8.53695 16.0236 8.25143 15.8912C7.96591 15.7588 7.79371 15.4625 7.81984 15.1489L8.04703 12.4164L7.84539 12.5462C7.15327 12.9888 6.24636 12.8901 5.66538 12.3094L3.69045 10.3345C3.10976 9.7535 3.01113 8.84656 3.4536 8.15445L3.58273 7.95212L0.850976 8.18C0.53733 8.20614 0.241074 8.03394 0.108651 7.74842C-0.0237722 7.4629 0.0359482 7.12506 0.258497 6.90251L2.43851 4.7225C3.10191 4.05918 3.98995 3.66806 4.9272 3.62731L7.54432 3.51268C9.46345 1.68003 11.8992 0.476694 14.5263 0.0703703L14.5767 0.0627745L14.7245 0.0489638C15.4077 0.027169 15.9726 0.592204 15.9509 1.27535L15.9371 1.42313L15.9295 1.47354C15.5232 4.10071 14.3192 6.53575 12.4865 8.45483L12.3725 11.0726C12.3318 12.0099 11.9407 12.8979 11.2773 13.5613L9.09733 15.7413Z" fill="white"/>
<path d="M9.9809 4.95819C10.2738 4.66529 10.7487 4.66529 11.0416 4.95819C11.3345 5.25108 11.3345 5.72595 11.0416 6.01885C10.7487 6.31174 10.2738 6.31174 9.9809 6.01885C9.68801 5.72595 9.68801 5.25108 9.9809 4.95819Z" fill="white"/>
</g>
<defs>
<clipPath id="clip0_274_2536">
<rect width="16" height="16" fill="white"/>
</clipPath>
</defs>
</svg>
