<svg width="16" height="16" viewBox="0 0 16 16" fill="none" xmlns="http://www.w3.org/2000/svg">
<path d="M12.75 12.167C12.75 11.6041 12.5386 11.0615 12.1582 10.6465L11.5 9.92775V11.7256L12.75 13.2022V12.167ZM8 1.72853C6.70168 3.53293 6.00013 5.70314 6 7.93361V11.918L6.35938 13.5537C6.38457 13.6682 6.48632 13.7498 6.60352 13.75H9.39648C9.5137 13.7498 9.61543 13.6682 9.64062 13.5537L10 11.918V7.93458C10 5.7039 9.29847 3.53307 8 1.72853ZM3.25 13.2022L4.5 11.7256V9.92775L3.8418 10.6465C3.46141 11.0615 3.25 11.6041 3.25 12.167V13.2022ZM14.25 15.25C14.25 15.5647 14.0533 15.8459 13.7578 15.9541C13.4623 16.0623 13.131 15.9746 12.9277 15.7344L11.1562 13.6416L11.1055 13.876C10.929 14.6783 10.2179 15.2498 9.39648 15.25H6.60352C5.7821 15.2498 5.07105 14.6783 4.89453 13.876L4.84277 13.6416L3.07227 15.7344C2.86898 15.9746 2.53766 16.0623 2.24219 15.9541C1.94666 15.8459 1.75 15.5647 1.75 15.25V12.167C1.75 11.2288 2.10141 10.3244 2.73535 9.63283L4.50391 7.70216C4.55432 5.06759 5.46027 2.5187 7.09082 0.443373C7.52482 -0.108994 8.33619 -0.143497 8.81738 0.339857L8.90918 0.443373L9.21484 0.849623C10.653 2.84694 11.447 5.23706 11.4941 7.70216L13.2646 9.63283C13.8986 10.3244 14.25 11.2288 14.25 12.167V15.25Z" fill="white"/>
<path d="M7.25 7C7.25 6.58579 7.58579 6.25 8 6.25C8.41421 6.25 8.75 6.58579 8.75 7C8.75 7.41421 8.41421 7.75 8 7.75C7.58579 7.75 7.25 7.41421 7.25 7Z" fill="white"/>
</svg>
