<svg width="16" height="16" viewBox="0 0 16 16" fill="none" xmlns="http://www.w3.org/2000/svg">
<g clip-path="url(#clip0_274_1759)">
<path d="M7.25 3.15625V2.4502C6.07894 2.58464 5.0035 3.02975 4.10645 3.70215L4.53027 4.12598L4.58203 4.18262C4.82234 4.4772 4.80487 4.91192 4.53027 5.18652C4.25567 5.46113 3.82095 5.47859 3.52637 5.23828L3.46973 5.18652L3.0166 4.7334C2.22084 5.68254 1.69263 6.86126 1.54395 8.15625H2.5C2.91421 8.15625 3.25 8.49204 3.25 8.90625C3.25 9.32046 2.91421 9.65625 2.5 9.65625H1.54395C1.70582 11.066 2.31753 12.3382 3.23438 13.3262L3.50977 13.0889C3.82317 12.8181 4.29656 12.8526 4.56738 13.166C4.83817 13.4794 4.80362 13.9528 4.49023 14.2236L3.69531 14.9111C3.41143 15.1565 2.98931 15.1545 2.70801 14.9062C1.04841 13.4415 0 11.2957 0 8.90625C0 6.62711 0.953969 4.56947 2.48242 3.11328C3.9171 1.7465 5.86135 0.90625 8 0.90625C10.1387 0.90625 12.0829 1.7465 13.5176 3.11328C15.046 4.56947 16 6.62711 16 8.90625C16 11.2957 14.9516 13.4415 13.292 14.9062C13.0107 15.1545 12.5886 15.1565 12.3047 14.9111L11.5098 14.2236L11.4541 14.1709C11.193 13.8946 11.1787 13.4599 11.4326 13.166C11.6866 12.8722 12.1184 12.8237 12.4297 13.042L12.4902 13.0889L12.7646 13.3262C13.6817 12.3382 14.2942 11.0662 14.4561 9.65625H13.5C13.0858 9.65625 12.75 9.32046 12.75 8.90625C12.75 8.49204 13.0858 8.15625 13.5 8.15625H14.4561C14.3073 6.86104 13.7784 5.68262 12.9824 4.7334L12.5303 5.18652C12.2374 5.47941 11.7626 5.47941 11.4697 5.18652C11.1768 4.89363 11.1768 4.41887 11.4697 4.12598L11.8926 3.70215C10.9956 3.03001 9.92079 2.5846 8.75 2.4502V3.15625C8.75 3.57046 8.41421 3.90625 8 3.90625C7.58579 3.90625 7.25 3.57046 7.25 3.15625Z" fill="white"/>
<path d="M8.5389 9.02681L8.59069 8.96949C8.83067 8.67492 8.81338 8.24063 8.5389 7.96615C8.26441 7.69166 7.83012 7.67438 7.53555 7.91436L7.47824 7.96615L5.00336 10.441C4.71047 10.7339 4.71047 11.2088 5.00336 11.5017C5.29625 11.7946 5.77113 11.7946 6.06402 11.5017L8.5389 9.02681Z" fill="white"/>
</g>
<defs>
<clipPath id="clip0_274_1759">
<rect width="16" height="16" fill="white"/>
</clipPath>
</defs>
</svg>
