<svg width="16" height="16" viewBox="0 0 16 16" fill="none" xmlns="http://www.w3.org/2000/svg">
<g clip-path="url(#clip0_274_2425)">
<path d="M8.90039 4.25C10.382 4.25018 11.4155 5.26129 11.5039 6.42969C11.5481 7.01469 11.345 7.61558 10.8633 8.05957C10.6281 8.27618 10.3436 8.44003 10.0186 8.55078C10.2696 8.99871 10.4457 9.55982 10.5156 10.249C10.7885 10.2516 11.0203 10.2244 11.21 10.166C11.4962 10.0778 11.6904 9.92299 11.8174 9.64355L11.8525 9.5752C12.0439 9.24676 12.457 9.10992 12.8105 9.27051C13.1875 9.44189 13.3539 9.88663 13.1826 10.2637C12.8596 10.9747 12.3035 11.3979 11.6523 11.5986C11.0337 11.7893 10.3464 11.7766 9.69824 11.6875C9.32707 11.6364 9.04986 11.319 9.0498 10.9443C9.0498 9.87908 8.78205 9.32377 8.55078 9.04883C8.31477 8.76849 8.07302 8.72168 8 8.72168H6.0498V10.1943H6.5L6.57715 10.1982C6.95511 10.2369 7.25 10.5562 7.25 10.9443C7.24994 11.3325 6.95509 11.6518 6.57715 11.6904L6.5 11.6943H4C3.58583 11.6943 3.25006 11.3585 3.25 10.9443C3.25 10.5301 3.58579 10.1943 4 10.1943H4.5498V5.75H4C3.58579 5.75 3.25 5.41421 3.25 5C3.25 4.58579 3.58579 4.25 4 4.25H8.90039ZM6.0498 7.22168H8.90039C9.44141 7.22161 9.71935 7.0743 9.84766 6.95605C9.9702 6.84295 10.0206 6.70065 10.0088 6.54297C9.98475 6.22547 9.66826 5.75016 8.90039 5.75H6.0498V7.22168Z" fill="white"/>
<path d="M8 0C12.4183 0 16 3.58172 16 8C16 12.4183 12.4183 16 8 16C3.58172 16 0 12.4183 0 8C1.93277e-07 3.58172 3.58172 1.93283e-07 8 0ZM8.99707 1.57617C8.97061 2.36918 8.53524 3 8 3C7.46475 3 7.0284 2.36919 7.00195 1.57617C4.91362 1.89798 3.15376 3.21403 2.21973 5.02539C2.66618 5.12561 3 5.52329 3 6C3 6.55228 2.55228 7 2 7C1.85444 7 1.71654 6.96802 1.5918 6.91211C1.53217 7.26591 1.5 7.62924 1.5 8C1.5 9.69281 2.14766 11.234 3.20801 12.3906C3.39085 12.1533 3.67727 12 4 12C4.55228 12 5 12.4477 5 13C5 13.243 4.91273 13.4654 4.76855 13.6387C5.72065 14.1855 6.82328 14.5 8 14.5C9.17641 14.5 10.2785 14.1852 11.2305 13.6387C11.0865 13.4654 11 13.2428 11 13C11 12.4477 11.4477 12 12 12C12.3225 12 12.6082 12.1536 12.791 12.3906C13.8516 11.2339 14.5 9.69305 14.5 8C14.5 7.62918 14.4669 7.26596 14.4072 6.91211C14.2827 6.96779 14.1452 7 14 7C13.4477 7 13 6.55228 13 6C13 5.52362 13.3333 5.12596 13.7793 5.02539C12.8451 3.21396 11.0857 1.89771 8.99707 1.57617Z" fill="white"/>
</g>
<defs>
<clipPath id="clip0_274_2425">
<rect width="16" height="16" fill="white"/>
</clipPath>
</defs>
</svg>
