<svg width="16" height="16" viewBox="0 0 16 16" fill="none" xmlns="http://www.w3.org/2000/svg">
<g clip-path="url(#clip0_274_1726)">
<path d="M7.37598 0.128901C7.78689 0.0415841 8.21212 0.0416715 8.62305 0.128901C9.08772 0.22767 9.52545 0.480765 10.3994 0.985346L12.874 2.41406C13.748 2.91866 14.186 3.17152 14.5039 3.52441C14.785 3.83661 14.997 4.20501 15.127 4.60449C15.2738 5.05632 15.2744 5.56197 15.2744 6.57128V9.42871L15.2715 10.0977C15.2646 10.6867 15.237 11.0556 15.127 11.3945C14.9971 11.7942 14.785 12.1623 14.5039 12.4746L14.3779 12.6035C14.0693 12.8952 13.6389 13.1434 12.874 13.585L10.3994 15.0137C9.52516 15.5184 9.0878 15.7713 8.62305 15.8701L8.46875 15.8984C8.15794 15.9476 7.84107 15.9477 7.53027 15.8984L7.37598 15.8701C7.02755 15.796 6.69406 15.6351 6.18066 15.3467L5.59961 15.0137L3.125 13.585C2.25105 13.0804 1.81299 12.8276 1.49512 12.4746C1.24934 12.2014 1.05623 11.8852 0.924805 11.543L0.87207 11.3945C0.762062 11.0557 0.734413 10.6866 0.727539 10.0977L0.724609 9.42871V6.57128C0.724609 5.68811 0.724879 5.19045 0.823242 4.77734L0.87207 4.60449C0.985802 4.25464 1.16259 3.92874 1.39355 3.64355L1.49512 3.52441C1.7335 3.25968 2.03948 3.05131 2.5459 2.75097L3.125 2.41406L5.59961 0.985346C6.36459 0.543683 6.79519 0.295226 7.20215 0.173823L7.37598 0.128901ZM7.25 1.78027C7.05867 1.88042 6.78021 2.03557 6.34961 2.28417L3.875 3.71289C2.91324 4.26816 2.73158 4.3937 2.61035 4.52832C2.46983 4.68443 2.36377 4.86861 2.29883 5.06835C2.24287 5.24063 2.22461 5.46104 2.22461 6.57128V9.42871C2.22461 10.5376 2.24304 10.7585 2.29883 10.9307C2.36373 11.1304 2.46988 11.3155 2.61035 11.4717C2.73156 11.6062 2.91411 11.7314 3.875 12.2861L6.34961 13.7148C7.31022 14.2695 7.51047 14.3646 7.6875 14.4023C7.89303 14.446 8.10599 14.446 8.31152 14.4023C8.4887 14.3647 8.68786 14.27 9.64941 13.7148L12.124 12.2861C12.4862 12.077 12.7366 11.9269 12.916 11.8164L10.9971 10.668L8.7998 11.9375L8.45215 12.1309C8.36001 12.177 8.28444 12.2062 8.20703 12.2227C8.10452 12.2444 7.9993 12.2501 7.89551 12.2393L7.79199 12.2227C7.63723 12.1897 7.49039 12.1056 7.19922 11.9375L4.98926 10.6611C4.77073 10.535 4.63349 10.4562 4.53418 10.375L4.44629 10.291C4.37616 10.213 4.31789 10.1247 4.27539 10.0293L4.23828 9.93164C4.21388 9.85636 4.20141 9.77579 4.19531 9.67285L4.18945 9.27539V6.72363C4.18945 6.38761 4.18946 6.21885 4.23828 6.06835C4.28159 5.93518 4.35258 5.81207 4.44629 5.708C4.49929 5.64917 4.56231 5.59877 4.64844 5.54199L4.98926 5.33789L7.19922 4.06152C7.21647 4.05156 7.23373 4.04257 7.25 4.0332V1.78027ZM5.73926 6.63671C5.72179 6.6468 5.70495 6.65608 5.68945 6.66503V9.333C5.70499 9.34198 5.72174 9.35218 5.73926 9.3623L7.94922 10.6387C7.96649 10.6486 7.98366 10.6581 7.99902 10.667C8.01474 10.6579 8.03206 10.6489 8.0498 10.6387L9.52441 9.78613L8.39258 9.10937C8.1515 8.96506 7.88513 8.81535 7.68652 8.58984C7.52693 8.40859 7.40655 8.19585 7.33301 7.96582C7.24154 7.67952 7.25 7.37378 7.25 7.09277V5.76367L5.73926 6.63671ZM8.75 4.0332C8.76607 4.04246 8.78278 4.05169 8.7998 4.06152L11.0098 5.33789C11.3009 5.50595 11.4478 5.59052 11.5537 5.708C11.6472 5.81195 11.7175 5.9354 11.7607 6.06835C11.8096 6.21886 11.8105 6.38757 11.8105 6.72363V9.27539L11.8076 9.40527L13.7549 10.5713C13.7679 10.3577 13.7744 10.0188 13.7744 9.42871V6.57128C13.7744 5.46154 13.7571 5.24059 13.7012 5.06835C13.6362 4.86865 13.5292 4.68439 13.3887 4.52832C13.2674 4.39383 13.085 4.26771 12.124 3.71289L9.64941 2.28417C9.21948 2.03596 8.94122 1.88137 8.75 1.78124V4.0332ZM8.75 7.09277C8.75 7.26637 8.75055 7.36521 8.75488 7.43945C8.75743 7.48285 8.76041 7.50259 8.76172 7.50878C8.77222 7.54164 8.78971 7.57274 8.8125 7.59863C8.81691 7.60275 8.83174 7.61581 8.86816 7.64062C8.92961 7.68247 9.01416 7.7331 9.16309 7.82226L10.3105 8.50878V6.72363C10.3105 6.70349 10.3096 6.68388 10.3096 6.66601C10.2941 6.65706 10.2772 6.64678 10.2598 6.63671L8.75 5.76464V7.09277Z" fill="white"/>
</g>
<defs>
<clipPath id="clip0_274_1726">
<rect width="16" height="16" fill="white"/>
</clipPath>
</defs>
</svg>
