<svg width="16" height="16" viewBox="0 0 16 16" fill="none" xmlns="http://www.w3.org/2000/svg">
<g clip-path="url(#clip0_274_1427)">
<path d="M5.12495 12.4082C5.12495 11.8361 5.12523 11.452 5.14937 11.1562C5.17282 10.8691 5.21553 10.7312 5.26167 10.6406C5.38152 10.4056 5.57249 10.2145 5.80757 10.0947C5.8981 10.0486 6.03528 10.0068 6.32222 9.98339C6.6181 9.95921 7.00272 9.958 7.57515 9.958H8.42476C8.99718 9.958 9.38181 9.95921 9.67769 9.98339C9.96463 10.0068 10.1018 10.0486 10.1923 10.0947C10.4274 10.2145 10.6184 10.4056 10.7382 10.6406C10.7844 10.7312 10.8271 10.8691 10.8505 11.1562C10.8747 11.452 10.875 11.8361 10.875 12.4082V14.5H5.12495V12.4082ZM5.12495 3.16698V1.49999H10.2998C10.8244 1.49999 10.9651 1.50446 11.0888 1.53417C11.2162 1.56478 11.3375 1.61615 11.4492 1.68456C11.5577 1.75107 11.661 1.84662 12.0322 2.21776L13.7822 3.96776C14.1533 4.33891 14.2489 4.44223 14.3154 4.55077C14.3838 4.66245 14.4352 4.78378 14.4658 4.91112C14.4955 5.03488 14.4999 5.17554 14.5 5.70018V12.0498C14.5 12.6222 14.4997 13.0068 14.4755 13.3027C14.4521 13.5897 14.4094 13.7268 14.3632 13.8174C14.2434 14.0525 14.0525 14.2434 13.8173 14.3633C13.7268 14.4094 13.5897 14.4521 13.3027 14.4756C13.0666 14.4949 12.7742 14.4971 12.375 14.498V12.4082C12.375 11.8606 12.376 11.4043 12.3457 11.0332C12.3146 10.6535 12.2469 10.2971 12.0751 9.95995C11.8115 9.4425 11.3904 9.02145 10.873 8.7578C10.5359 8.58615 10.1794 8.5193 9.79976 8.48827C9.42863 8.45795 8.97243 8.458 8.42476 8.458H7.57515C7.02747 8.458 6.57128 8.45795 6.20015 8.48827C5.82048 8.5193 5.46399 8.58615 5.1269 8.7578C4.60946 9.02145 4.18841 9.4425 3.92476 9.95995C3.75299 10.2971 3.6853 10.6535 3.65425 11.0332C3.62393 11.4043 3.62495 11.8606 3.62495 12.4082V14.498C3.22575 14.4971 2.93326 14.4949 2.69722 14.4756C2.41022 14.4521 2.27311 14.4094 2.18257 14.3633C1.94745 14.2434 1.7565 14.0525 1.63667 13.8174C1.59054 13.7268 1.54783 13.5897 1.52437 13.3027C1.50019 13.0068 1.49995 12.6222 1.49995 12.0498V3.95018C1.49995 3.37775 1.50019 2.99313 1.52437 2.69725C1.54783 2.41025 1.59054 2.27315 1.63667 2.18261C1.7565 1.94749 1.94745 1.75653 2.18257 1.63671C2.27311 1.59057 2.41022 1.54786 2.69722 1.5244C2.93326 1.50512 3.22575 1.5019 3.62495 1.50096V3.16698C3.62513 4.24828 4.50166 5.12481 5.58296 5.12499H9.20796C9.62217 5.12499 9.95796 4.7892 9.95796 4.37499C9.95796 3.96077 9.62217 3.62499 9.20796 3.62499H5.58296C5.33009 3.62481 5.12513 3.41985 5.12495 3.16698ZM-4.95911e-05 12.0498C-4.95911e-05 12.5975 -0.00107423 13.0537 0.0292482 13.4248C0.0602801 13.8045 0.128044 14.1609 0.299756 14.498C0.563408 15.0155 0.984459 15.4365 1.5019 15.7002C1.83905 15.8719 2.19541 15.9397 2.57515 15.9707C2.94628 16.001 3.40247 16 3.95015 16H12.0498C12.5974 16 13.0536 16.001 13.4248 15.9707C13.8045 15.9397 14.1609 15.8719 14.498 15.7002C15.0154 15.4365 15.4365 15.0155 15.7001 14.498C15.8719 14.1609 15.9396 13.8045 15.9707 13.4248C16.001 13.0537 16 12.5975 16 12.0498V5.70018C16 5.24685 16.0046 4.898 15.9238 4.56151C15.8564 4.28092 15.7455 4.01263 15.5947 3.76659C15.4138 3.47146 15.1634 3.22788 14.8427 2.90721L13.0927 1.15721C12.7721 0.836554 12.5285 0.586114 12.2333 0.405261C11.9873 0.254488 11.719 0.143524 11.4384 0.0761597C11.1019 -0.00461994 10.7531 -1.42516e-05 10.2998 -1.22161e-05H3.95015C3.40247 -1.22161e-05 2.94628 -0.00103781 2.57515 0.0292847C2.19541 0.0603165 1.83905 0.12808 1.5019 0.299792C0.984459 0.563444 0.563408 0.984495 0.299756 1.50194C0.128044 1.83908 0.0602801 2.19545 0.0292482 2.57518C-0.00107423 2.94631 -4.95911e-05 3.40251 -4.95911e-05 3.95018V12.0498Z" fill="white"/>
</g>
<defs>
<clipPath id="clip0_274_1427">
<rect width="16" height="16" fill="white"/>
</clipPath>
</defs>
</svg>
