<svg width="16" height="16" viewBox="0 0 16 16" fill="none" xmlns="http://www.w3.org/2000/svg">
<g clip-path="url(#clip0_274_1628)">
<path d="M3.771 0C5.51975 0.000176352 6.93701 1.4182 6.93701 3.16699C6.93695 3.76907 6.76487 4.32941 6.47314 4.80859L8.60303 6.93848L14.1157 1.42773C14.4086 1.13512 14.8834 1.13504 15.1763 1.42773C15.4691 1.72055 15.4689 2.19537 15.1763 2.48828L9.14014 8.52344C9.13808 8.52554 9.13636 8.52819 9.13428 8.53027C9.13216 8.53239 9.12958 8.53404 9.12744 8.53613L6.47314 11.1904C6.76524 11.67 6.93701 12.2314 6.93701 12.834C6.93667 14.5825 5.51954 15.9998 3.771 16C2.02231 16 0.604346 14.5826 0.604004 12.834C0.604004 11.0851 2.02209 9.66699 3.771 9.66699C4.37292 9.66705 4.9335 9.83819 5.4126 10.1299L7.54248 7.99902L5.4126 5.86914C4.93342 6.16087 4.37308 6.33295 3.771 6.33301C2.0222 6.33301 0.60418 4.91574 0.604004 3.16699C0.604004 1.41809 2.02209 0 3.771 0ZM10.4907 9.88672C10.7836 9.59386 11.2584 9.59384 11.5513 9.88672L15.1763 13.5117L15.228 13.5684C15.468 13.8629 15.4507 14.2978 15.1763 14.5723C14.9018 14.8468 14.4669 14.864 14.1724 14.624L14.1157 14.5723L10.4907 10.9473C10.1978 10.6544 10.1978 10.1796 10.4907 9.88672ZM3.771 11.167C2.85052 11.167 2.104 11.9135 2.104 12.834C2.10435 13.7542 2.85073 14.5 3.771 14.5C4.69111 14.4998 5.43667 13.7541 5.43701 12.834C5.43701 11.9136 4.69132 11.1672 3.771 11.167ZM3.771 1.5C2.85052 1.5 2.104 2.24652 2.104 3.16699C2.10418 4.08732 2.85063 4.83301 3.771 4.83301C4.69121 4.83283 5.43684 4.08721 5.43701 3.16699C5.43701 2.24663 4.69132 1.50018 3.771 1.5Z" fill="white"/>
</g>
<defs>
<clipPath id="clip0_274_1628">
<rect width="16" height="16" fill="white"/>
</clipPath>
</defs>
</svg>
