<svg width="16" height="16" viewBox="0 0 16 16" fill="none" xmlns="http://www.w3.org/2000/svg">
<g clip-path="url(#clip0_274_1983)">
<path d="M10 8C10 6.89543 9.10457 6 8 6C6.89543 6 6 6.89543 6 8C6 9.10457 6.89543 10 8 10V11.5C6.067 11.5 4.5 9.933 4.5 8C4.5 6.067 6.067 4.5 8 4.5C9.933 4.5 11.5 6.067 11.5 8C11.5 9.933 9.933 11.5 8 11.5V10C9.10457 10 10 9.10457 10 8Z" fill="white"/>
<path d="M2.05726 5.55273C1.73591 6.33409 1.57527 7.16668 1.57527 7.99998C1.57527 8.83328 1.73591 9.66587 2.05726 10.4472C2.21482 10.8303 2.03155 11.2689 1.64847 11.4264C1.26558 11.5837 0.827617 11.401 0.669982 11.0183C0.27306 10.0532 0.0754326 9.0261 0.0754325 7.99998C0.0754325 6.97386 0.27306 5.94674 0.669982 4.98166L1.36328 5.26754L2.05726 5.55273ZM4.98168 15.33C4.59894 15.1724 4.4163 14.7344 4.57357 14.3515C4.73113 13.9684 5.16967 13.7852 5.55275 13.9427L4.98168 15.33ZM10.4473 13.9427C10.8303 13.7852 11.2689 13.9684 11.4264 14.3515C11.5837 14.7344 11.4011 15.1724 11.0183 15.33C10.0532 15.7269 9.02612 15.9245 8 15.9245C6.97388 15.9245 5.94675 15.7269 4.98168 15.33L5.26756 14.6367L5.55275 13.9427C6.33411 14.2641 7.1667 14.4247 8 14.4247C8.8333 14.4247 9.66589 14.2641 10.4473 13.9427ZM1.64847 4.57355C2.03155 4.73111 2.21482 5.16965 2.05726 5.55273L0.669982 4.98166C0.827618 4.59893 1.26558 4.41628 1.64847 4.57355ZM5.55275 2.05725C5.16967 2.2148 4.73113 2.03153 4.57357 1.64845C4.4163 1.26556 4.59894 0.827598 4.98168 0.669963L5.55275 2.05725ZM14.3515 4.57355C14.7344 4.41628 15.1724 4.59893 15.33 4.98166C15.7269 5.94674 15.9246 6.97386 15.9246 7.99998C15.9246 9.0261 15.7269 10.0532 15.33 11.0183C15.1724 11.401 14.7344 11.5837 14.3515 11.4264C13.9685 11.2689 13.7852 10.8303 13.9427 10.4472C14.2641 9.66587 14.4247 8.83328 14.4247 7.99998C14.4247 7.16668 14.2641 6.33409 13.9427 5.55273C13.7852 5.16965 13.9685 4.73111 14.3515 4.57355ZM11.0183 0.669963C11.4011 0.827598 11.5837 1.26556 11.4264 1.64845C11.2689 2.03153 10.8303 2.2148 10.4473 2.05725C9.66589 1.73589 8.8333 1.57525 8 1.57525C7.1667 1.57525 6.33411 1.7359 5.55275 2.05725L5.26756 1.36326L4.98168 0.669963C5.94675 0.273041 6.97388 0.0754134 8 0.0754134C9.02612 0.0754134 10.0532 0.273041 11.0183 0.669963Z" fill="white"/>
</g>
<defs>
<clipPath id="clip0_274_1983">
<rect width="16" height="16" fill="white"/>
</clipPath>
</defs>
</svg>
