<svg width="16" height="16" viewBox="0 0 16 16" fill="none" xmlns="http://www.w3.org/2000/svg">
<path d="M4.47272 9.51758C4.47272 9.69328 4.47588 9.88418 4.43756 10.0732C4.40661 10.2258 4.35524 10.3737 4.28522 10.5127C4.19843 10.6849 4.07743 10.8326 3.96881 10.9707L3.4317 11.6533C3.36491 11.7382 3.32763 11.7853 3.30084 11.8223C3.28418 11.8452 3.27799 11.8556 3.27643 11.8584C3.26642 11.8783 3.25936 11.9001 3.25494 11.9219C3.25444 11.9253 3.2531 11.9372 3.25201 11.9648C3.25023 12.0104 3.25006 12.0706 3.25006 12.1787V13.6504C3.25006 13.9426 3.25026 14.117 3.2608 14.2461C3.27064 14.3662 3.28575 14.3797 3.2774 14.3633C3.30137 14.4103 3.33974 14.4487 3.38678 14.4727C3.3704 14.4643 3.3839 14.4794 3.50397 14.4893C3.63304 14.4998 3.8075 14.5 4.09967 14.5H12.7501V2.34961C12.7501 2.05744 12.7499 1.88298 12.7393 1.75391C12.7295 1.63384 12.7144 1.62034 12.7227 1.63672C12.6987 1.58968 12.6604 1.55131 12.6133 1.52734C12.6297 1.53569 12.6162 1.52058 12.4962 1.51074C12.3671 1.5002 12.1926 1.5 11.9005 1.5H5.32233C5.03 1.5 4.85574 1.5002 4.72662 1.51074C4.60699 1.52052 4.59253 1.53537 4.60846 1.52734C4.56155 1.55132 4.523 1.58978 4.49908 1.63672C4.50743 1.62034 4.49329 1.63388 4.48346 1.75391C4.47291 1.88298 4.47272 2.05744 4.47272 2.34961V3.91504C4.47272 4.10304 4.47626 4.30754 4.43268 4.50879C4.3975 4.67107 4.33909 4.82772 4.25983 4.97363C4.16154 5.15446 4.026 5.30683 3.90338 5.44922L3.34283 6.09961C3.32621 6.11891 3.31662 6.12942 3.30963 6.1377C3.3053 6.14282 3.30329 6.14489 3.30279 6.14551C3.2709 6.18629 3.25251 6.23637 3.25006 6.28809V6.73926C3.93638 6.80882 4.47247 7.38816 4.47272 8.09277V9.51758ZM14.2501 14.7129C14.2501 15.4237 13.6738 16 12.963 16H4.09967C3.83217 16 3.58617 16.0001 3.3819 15.9834C3.16885 15.966 2.93533 15.9269 2.70514 15.8096C2.37603 15.6418 2.10824 15.374 1.94049 15.0449C1.8232 14.8147 1.78409 14.5812 1.76666 14.3682C1.74997 14.1639 1.75006 13.9179 1.75006 13.6504V12.1787C1.75006 12.0032 1.74699 11.8129 1.78522 11.624C1.81616 11.4714 1.86749 11.3227 1.93756 11.1836C2.02434 11.0115 2.14443 10.8636 2.25299 10.7256L2.7901 10.043C2.85684 9.95813 2.89417 9.91094 2.92096 9.87402C2.93737 9.85139 2.9437 9.84082 2.94537 9.83789C2.95538 9.81802 2.96244 9.79622 2.96686 9.77441C2.96737 9.77091 2.96968 9.75905 2.97076 9.73145C2.97255 9.68584 2.97272 9.62573 2.97272 9.51758V8.22559C2.28603 8.15623 1.75009 7.57606 1.75006 6.87109V6.34961C1.75006 6.30791 1.74986 6.26222 1.75201 6.2168C1.7692 5.85492 1.89801 5.50708 2.12115 5.22168C2.14916 5.18586 2.17891 5.15171 2.20611 5.12012L2.76666 4.46973C2.84202 4.38222 2.8838 4.33324 2.91412 4.29492C2.93293 4.27115 2.94064 4.26074 2.94244 4.25781C2.95371 4.23707 2.96182 4.21447 2.96686 4.19141C2.96729 4.189 2.96845 4.17669 2.96979 4.14453C2.97182 4.09564 2.97272 4.03089 2.97272 3.91504V2.34961C2.97272 2.08211 2.97165 1.83611 2.98834 1.63184C3.00577 1.41878 3.04585 1.18528 3.16315 0.955078C3.33094 0.625977 3.59864 0.35814 3.92779 0.19043C4.15806 0.0731303 4.39146 0.0340122 4.60455 0.0166016C4.80891 -8.8241e-05 5.05472 2.92415e-08 5.32233 2.92415e-08H11.9005C12.1679 -5.3339e-07 12.4139 -8.85744e-05 12.6182 0.0166016C12.8313 0.0340294 13.0648 0.073143 13.295 0.19043C13.6241 0.358177 13.8919 0.625971 14.0596 0.955078C14.1769 1.18527 14.216 1.41879 14.2335 1.63184C14.2501 1.83611 14.2501 2.08211 14.2501 2.34961V14.7129Z" fill="white"/>
</svg>
