<svg width="16" height="16" viewBox="0 0 16 16" fill="none" xmlns="http://www.w3.org/2000/svg">
<g clip-path="url(#clip0_274_1481)">
<path d="M9.83549 0.00904914C13.2694 0.183648 15.9999 3.02343 15.9999 6.50076L15.9916 6.83498C15.8173 10.2692 12.9774 13.0008 9.49989 13.0008L9.16498 12.9918C7.74623 12.9197 6.44833 12.3915 5.41262 11.5527L1.22384 15.7415C0.930947 16.0344 0.456073 16.0344 0.16318 15.7415C-0.129584 15.4486 -0.12967 14.9737 0.16318 14.6808L4.36301 10.481C3.50942 9.38118 3.00001 8.00076 2.99989 6.50076C2.99989 2.91094 5.91009 0.000822247 9.49989 0.000762735L9.83549 0.00904914ZM14.5 6.50076C14.5 3.73933 12.2613 1.5006 9.49989 1.5006C6.73857 1.50066 4.50051 3.73876 4.50042 6.50007C4.50042 9.26149 6.73916 11.5002 9.50058 11.5002C12.2616 11.4999 14.4998 9.26175 14.5 6.50076Z" fill="white"/>
</g>
<defs>
<clipPath id="clip0_274_1481">
<rect width="16" height="16" fill="white"/>
</clipPath>
</defs>
</svg>
