<svg width="16" height="16" viewBox="0 0 16 16" fill="none" xmlns="http://www.w3.org/2000/svg">
<g clip-path="url(#clip0_274_1888)">
<path d="M10.0898 4.64453C10.2862 4.27983 10.7407 4.14346 11.1054 4.33984C11.4701 4.53622 11.6065 4.99077 11.4101 5.35547L8.92963 9.96191C8.76356 10.2703 8.6158 10.5461 8.47553 10.7588C8.33269 10.9753 8.14819 11.2054 7.87299 11.3623C7.49111 11.58 7.04154 11.6467 6.61322 11.5479C6.30459 11.4766 6.06225 11.3089 5.86322 11.1426C5.66771 10.9791 5.44692 10.7575 5.19916 10.5098L4.21967 9.53027C3.92678 9.23738 3.92678 8.76262 4.21967 8.46973C4.49427 8.19512 4.92899 8.17766 5.22358 8.41797L5.28022 8.46973L6.25971 9.44922C6.52723 9.71674 6.69313 9.88185 6.82514 9.99219C6.90382 10.0579 6.94435 10.0805 6.95697 10.0869C7.01393 10.0985 7.07269 10.0898 7.12397 10.0625C7.13379 10.0532 7.16637 10.0203 7.22358 9.93359C7.31832 9.78996 7.42992 9.58415 7.60932 9.25098L10.0898 4.64453Z" fill="white"/>
<path d="M14.5 8C14.5 4.41015 11.5899 1.5 8 1.5C4.41015 1.5 1.5 4.41015 1.5 8C1.5 11.5899 4.41015 14.5 8 14.5V16C3.58172 16 0 12.4183 0 8C0 3.58172 3.58172 0 8 0C12.4183 0 16 3.58172 16 8C16 12.4183 12.4183 16 8 16V14.5C11.5899 14.5 14.5 11.5899 14.5 8Z" fill="white"/>
</g>
<defs>
<clipPath id="clip0_274_1888">
<rect width="16" height="16" fill="white"/>
</clipPath>
</defs>
</svg>
