<svg width="16" height="16" viewBox="0 0 16 16" fill="none" xmlns="http://www.w3.org/2000/svg">
<path d="M1.42839 1.02825C1.83219 0.945759 2.25034 1.06138 2.58073 1.1718C3.00225 1.3127 3.54415 1.54613 4.20769 1.83098L13.5475 5.83977C14.0736 6.06562 14.5155 6.25528 14.8425 6.43157C15.1116 6.57673 15.4218 6.77194 15.6247 7.0761L15.7048 7.21282L15.7858 7.40227C15.9493 7.85222 15.9225 8.35304 15.7048 8.78606C15.5113 9.17056 15.1501 9.40242 14.8425 9.56829C14.5156 9.74451 14.0735 9.93336 13.5475 10.1591L4.20573 14.1689C3.54182 14.4538 2.99952 14.6871 2.5778 14.8281C2.20011 14.9543 1.70713 15.0874 1.25261 14.9238C0.691329 14.7215 0.271652 14.2467 0.139328 13.665C0.0322886 13.194 0.223987 12.7217 0.395187 12.3622C0.586432 11.9607 0.884893 11.4507 1.2487 10.8261L2.64519 8.42766C2.7347 8.27398 2.78556 8.1862 2.81999 8.11809C2.84015 8.07819 2.84729 8.0588 2.84929 8.05266C2.85668 8.01817 2.85666 7.98169 2.84929 7.94719C2.84724 7.94091 2.83989 7.92221 2.81999 7.88274C2.7856 7.81456 2.73577 7.72623 2.64616 7.57219L1.24968 5.1718C0.886608 4.54765 0.588999 4.038 0.398117 3.63665C0.227182 3.27719 0.0359364 2.80475 0.143234 2.33391L0.205734 2.12102C0.38254 1.6379 0.765426 1.25289 1.25652 1.0761L1.42839 1.02825ZM1.73894 2.49993C1.68046 2.52889 1.6365 2.57896 1.61491 2.64055C1.62296 2.67337 1.65035 2.77706 1.75261 2.99211C1.91016 3.32342 2.16808 3.76894 2.54558 4.4179L3.94206 6.81829C4.08688 7.06725 4.25274 7.33315 4.31706 7.63372C4.36867 7.87518 4.36784 8.12568 4.31609 8.36711C4.25158 8.66753 4.08699 8.93375 3.94206 9.18254L2.5446 11.581C2.16657 12.23 1.90758 12.6753 1.74968 13.0068C1.64774 13.2208 1.61926 13.3249 1.61101 13.3583C1.63237 13.4201 1.67665 13.4698 1.73503 13.499C1.76766 13.4951 1.87418 13.4814 2.10222 13.4052C2.45039 13.2888 2.92378 13.0862 3.61394 12.79L12.9557 8.78118C13.5092 8.54363 13.8767 8.38481 14.1305 8.24797C14.2874 8.16341 14.3506 8.11113 14.3708 8.09368C14.3957 8.03284 14.3958 7.96601 14.3708 7.9052C14.3503 7.88753 14.2866 7.83602 14.1305 7.75188C13.8768 7.61504 13.5091 7.45623 12.9557 7.21868L3.61589 3.20891C2.92625 2.91285 2.45304 2.71094 2.10515 2.59465C1.87826 2.51882 1.772 2.50388 1.73894 2.49993Z" fill="white"/>
</svg>
