<svg width="16" height="16" viewBox="0 0 16 16" fill="none" xmlns="http://www.w3.org/2000/svg">
<g clip-path="url(#clip0_274_1723)">
<path d="M6.57185 2.22519C5.46174 2.22519 5.24118 2.24253 5.06892 2.29843C4.86903 2.36338 4.68508 2.4703 4.52888 2.61093C4.39424 2.73216 4.26884 2.91362 3.71345 3.87558L2.28474 6.35019C1.72954 7.31183 1.63492 7.5109 1.59724 7.68808C1.55353 7.89369 1.55353 8.10649 1.59724 8.3121C1.63495 8.48925 1.72966 8.68856 2.28474 9.64999L3.71345 12.1246C4.26884 13.0866 4.39424 13.268 4.52888 13.3893C4.68506 13.5298 4.86907 13.6358 5.06892 13.7008C5.24121 13.7567 5.46125 13.775 6.57185 13.775L9.42927 13.775C10.5392 13.775 10.759 13.7567 10.9312 13.7008C11.1311 13.6358 11.316 13.5299 11.4722 13.3893C11.6068 13.268 11.7317 13.0859 12.2867 12.1246L13.7154 9.64999C14.2705 8.68859 14.3652 8.48924 14.4029 8.3121C14.4466 8.10649 14.4466 7.89369 14.4029 7.68808C14.3652 7.5109 14.2706 7.31183 13.7154 6.35019L12.2867 3.87558C11.7318 2.91449 11.6067 2.73216 11.4722 2.61093C11.316 2.47027 11.1311 2.36339 10.9312 2.29843C10.759 2.24258 10.5387 2.22519 9.42927 2.22519L6.57185 2.22519ZM9.42927 0.725189L10.0982 0.728118C10.6874 0.734996 11.0561 0.76251 11.3951 0.87265C11.7948 1.00252 12.1628 1.21454 12.4752 1.4957L12.6041 1.62167C12.8957 1.93028 13.1439 2.36074 13.5855 3.12558L15.0142 5.60019C15.519 6.47451 15.7719 6.91179 15.8707 7.37656L15.899 7.53085C15.9482 7.84175 15.9482 8.15843 15.899 8.46933L15.8707 8.62363C15.7966 8.97221 15.6358 9.30532 15.3472 9.81894L15.0142 10.4L13.5855 12.8746C13.0808 13.7489 12.8283 14.1866 12.4752 14.5045C12.2019 14.7504 11.8859 14.9433 11.5435 15.0748L11.3951 15.1275C11.0561 15.2377 10.6875 15.2652 10.0982 15.2721L9.42927 15.275L6.57185 15.275C5.68842 15.275 5.19107 15.2747 4.7779 15.1764L4.60505 15.1275C4.2551 15.0138 3.92938 14.8371 3.64411 14.606L3.52497 14.5045C3.2602 14.2661 3.05192 13.9602 2.75154 13.4537L2.41462 12.8746L0.985911 10.4C0.544167 9.63487 0.295767 9.20448 0.174387 8.79745L0.129465 8.62363C0.042118 8.21257 0.0421438 7.78762 0.129465 7.37656C0.228252 6.9118 0.481155 6.47445 0.985911 5.60019L2.41462 3.12558C2.91942 2.25125 3.17187 1.81364 3.52497 1.4957C3.8373 1.21453 4.20539 1.00254 4.60505 0.87265C5.05695 0.725819 5.56226 0.725189 6.57185 0.725189L9.42927 0.725189Z" fill="white"/>
<rect x="5.75" y="5.75" width="4.5" height="4.5" rx="2.25" stroke="white" stroke-width="1.5"/>
</g>
<defs>
<clipPath id="clip0_274_1723">
<rect width="16" height="16" fill="white"/>
</clipPath>
</defs>
</svg>
