<svg width="16" height="16" viewBox="0 0 16 16" fill="none" xmlns="http://www.w3.org/2000/svg">
<g clip-path="url(#clip0_274_2624)">
<path d="M5.12572e-07 15.25V13.0996C4.02725e-07 11.712 -0.000875264 10.6262 0.070313 9.75488C0.142224 8.87475 0.291623 8.14737 0.626954 7.48925C1.17824 6.40747 2.05783 5.52777 3.13965 4.97656C3.79774 4.64127 4.52519 4.4928 5.40527 4.42089C6.27661 4.34972 7.36241 4.3496 8.75 4.3496H13.4395L10.3701 1.28027L10.3184 1.22363C10.0779 0.929042 10.0955 0.494383 10.3701 0.21972C10.6446 -0.0545874 11.0785 -0.0719892 11.373 0.167962L11.4307 0.21972L15.7803 4.56933C16.0731 4.86216 16.073 5.33697 15.7803 5.62988L11.4307 9.98046C11.1379 10.2733 10.663 10.2731 10.3701 9.98046C10.0772 9.68757 10.0772 9.21281 10.3701 8.91992L13.4395 5.8496H8.75C7.33763 5.8496 6.32345 5.85098 5.52734 5.91601C4.73996 5.98034 4.23174 6.10384 3.82031 6.31347C3.02075 6.72094 2.3703 7.3713 1.96289 8.17089C1.7534 8.58223 1.62974 9.0899 1.56543 9.87695C1.50039 10.673 1.5 11.6873 1.5 13.0996V15.25C1.5 15.6642 1.16421 16 0.750001 16C0.335787 16 5.12572e-07 15.6642 5.12572e-07 15.25Z" fill="white"/>
</g>
<defs>
<clipPath id="clip0_274_2624">
<rect width="16" height="16" fill="white"/>
</clipPath>
</defs>
</svg>
