<svg width="16" height="16" viewBox="0 0 16 16" fill="none" xmlns="http://www.w3.org/2000/svg">
<g clip-path="url(#clip0_274_2626)">
<path d="M12.3501 0C13.9652 0.000263845 15.2748 1.30962 15.2749 2.9248C15.2749 4.54007 13.9653 5.84935 12.3501 5.84961C11.5443 5.84956 10.8146 5.5232 10.2856 4.99609L6.46729 7.22461C6.53514 7.47177 6.57469 7.73129 6.57471 8C6.57469 8.26779 6.53469 8.52607 6.46729 8.77246L10.2886 11C10.8173 10.4748 11.546 10.1504 12.3501 10.1504C13.9652 10.1507 15.2748 11.46 15.2749 13.0752C15.2747 14.6903 13.9652 15.9997 12.3501 16C10.7349 15.9999 9.42551 14.6904 9.42529 13.0752C9.42531 12.8049 9.46406 12.5434 9.53271 12.2949L5.71436 10.0713C5.18536 10.5985 4.45583 10.9248 3.6499 10.9248C2.03462 10.9247 0.725197 9.61528 0.725098 8C0.725202 6.38472 2.03462 5.0753 3.6499 5.0752C4.4554 5.0752 5.18445 5.40097 5.71338 5.92773L9.53174 3.7002C9.46388 3.45302 9.42529 3.19354 9.42529 2.9248C9.4254 1.30953 10.7348 0.000104618 12.3501 0ZM12.3501 11.6504C11.8569 11.6505 11.4213 11.9004 11.1655 12.2812C11.1542 12.3068 11.1428 12.3327 11.1284 12.3574C11.1168 12.3774 11.1015 12.3946 11.0884 12.4131C10.9844 12.6109 10.9253 12.8362 10.9253 13.0752C10.9255 13.862 11.5633 14.4999 12.3501 14.5C13.1367 14.4997 13.7747 13.8619 13.7749 13.0752C13.7748 12.2884 13.1368 11.6507 12.3501 11.6504ZM3.6499 6.5752C2.86305 6.5753 2.2252 7.21315 2.2251 8C2.2252 8.78686 2.86305 9.4247 3.6499 9.4248C4.43685 9.4248 5.07461 8.78692 5.07471 8C5.0746 7.21308 4.43684 6.5752 3.6499 6.5752ZM12.3501 1.5C11.5632 1.5001 10.9254 2.13795 10.9253 2.9248C10.9253 3.71175 11.5632 4.3495 12.3501 4.34961C13.1369 4.34935 13.7749 3.71165 13.7749 2.9248C13.7748 2.13805 13.1368 1.50026 12.3501 1.5Z" fill="white"/>
</g>
<defs>
<clipPath id="clip0_274_2626">
<rect width="16" height="16" fill="white"/>
</clipPath>
</defs>
</svg>
