<svg width="16" height="16" viewBox="0 0 16 16" fill="none" xmlns="http://www.w3.org/2000/svg">
<g clip-path="url(#clip0_274_1994)">
<path d="M13.0498 3.44336L8 1.55078L2.9502 3.44434V8C2.9502 9.84001 4.18872 11.4619 5.59375 12.6914C6.28049 13.2923 6.97108 13.7677 7.49121 14.0928C7.68991 14.217 7.86333 14.3178 8 14.3955C8.13671 14.3178 8.30997 14.217 8.50879 14.0928C9.02894 13.7677 9.71941 13.2924 10.4062 12.6914C11.8114 11.4619 13.0498 9.8401 13.0498 8V3.44336ZM14.5498 8C14.5498 10.5096 12.8892 12.5123 11.3945 13.8203C10.6314 14.4881 9.87106 15.0106 9.30371 15.3652C9.0194 15.5429 8.78096 15.6801 8.6123 15.7734C8.52809 15.8201 8.46108 15.8562 8.41406 15.8809C8.39056 15.8932 8.37155 15.9024 8.3584 15.9092C8.35193 15.9125 8.34658 15.9151 8.34277 15.917C8.3409 15.9179 8.3391 15.9193 8.33789 15.9199H8.33691L8.33594 15.9209C8.12487 16.0264 7.87613 16.0264 7.66504 15.9209H7.66406V15.9199H7.66211C7.66088 15.9193 7.65916 15.918 7.65723 15.917C7.65338 15.9151 7.64809 15.9125 7.6416 15.9092C7.62853 15.9025 7.61017 15.8931 7.58691 15.8809C7.53984 15.8561 7.47205 15.8201 7.3877 15.7734C7.21898 15.68 6.98073 15.543 6.69629 15.3652C6.12894 15.0106 5.36961 14.4881 4.60645 13.8203C3.11166 12.5124 1.4502 10.5098 1.4502 8V2.92481C1.45028 2.61235 1.644 2.33248 1.93652 2.22266L7.7373 0.0478553L7.86719 0.0117225C7.9993 -0.0120779 8.13643 0.000140261 8.26367 0.0478553L14.0635 2.22266C14.3561 2.33241 14.5497 2.61225 14.5498 2.92481V8Z" fill="white"/>
</g>
<defs>
<clipPath id="clip0_274_1994">
<rect width="16" height="16" fill="white"/>
</clipPath>
</defs>
</svg>
