<svg width="16" height="16" viewBox="0 0 16 16" fill="none" xmlns="http://www.w3.org/2000/svg">
<path d="M12.3862 1.38911C12.6809 1.13622 13.1157 1.15241 13.3911 1.4145L13.4438 1.47017L15.7827 4.19283C16.2364 4.72118 15.942 5.68013 15.1079 5.68013H10.9604L10.8374 5.69478C10.717 5.72308 10.6083 5.7917 10.5317 5.89204L6.77393 10.8198C6.44776 11.2475 6.20219 11.581 5.87744 11.8247C5.60701 12.0275 5.30134 12.1789 4.97607 12.271C4.58535 12.3815 4.17131 12.3754 3.6333 12.3754H0.750488C0.336384 12.3754 0.000664717 12.0395 0.000488281 11.6254C0.000488281 11.2112 0.336275 10.8754 0.750488 10.8754H3.6333C4.25733 10.8754 4.42448 10.8682 4.56787 10.8276C4.71549 10.7858 4.85428 10.7175 4.97705 10.6254C5.09627 10.536 5.20313 10.4069 5.58154 9.9106L9.33936 4.98286C9.70802 4.49945 10.2719 4.20899 10.8765 4.18404C10.904 4.18097 10.9321 4.18013 10.9604 4.18013H13.7944L12.3062 2.44673L12.2593 2.38618C12.042 2.07427 12.0917 1.64215 12.3862 1.38911Z" fill="white"/>
<path d="M4.57959 6.33374L4.65576 6.32983C5.03393 6.29151 5.32943 5.97197 5.32959 5.58374C5.32959 5.19538 5.034 4.876 4.65576 4.83764L4.57959 4.83374H0.750488C0.336275 4.83374 0.000488281 5.16952 0.000488281 5.58374C0.000664039 5.9978 0.336383 6.33374 0.750488 6.33374H4.57959ZM12.3491 14.5769C12.6447 14.867 13.1195 14.8626 13.4097 14.5671L15.7485 12.1843C16.0255 11.9022 16.0632 11.5029 15.9126 11.1921C15.7662 10.89 15.4573 10.6912 15.1079 10.6912H10.9604C10.5464 10.6912 10.2107 11.0271 10.2104 11.4412C10.2104 11.8554 10.5462 12.1912 10.9604 12.1912H13.6401L12.3394 13.5164C12.0494 13.8119 12.0537 14.2868 12.3491 14.5769Z" fill="white"/>
</svg>
