<svg width="16" height="16" viewBox="0 0 16 16" fill="none" xmlns="http://www.w3.org/2000/svg">
<g clip-path="url(#clip0_274_1342)">
<path d="M8.75781 0C9.5533 0.000119943 10.3164 0.316404 10.8789 0.878906L13.1211 3.12109C13.6836 3.6836 13.9999 4.4467 14 5.24219V13L13.9961 13.1543C13.9158 14.7394 12.6051 16 11 16H5C3.34315 16 2 14.6569 2 13V3C2 1.34315 3.34315 0 5 0H8.75781ZM5 1.5C4.17157 1.5 3.5 2.17157 3.5 3V13C3.5 13.8284 4.17157 14.5 5 14.5H11C11.8284 14.5 12.5 13.8284 12.5 13V5.24219C12.4999 4.84453 12.3417 4.46284 12.0605 4.18164L9.81836 1.93945C9.53716 1.65826 9.15547 1.50012 8.75781 1.5H5Z" fill="white"/>
<path d="M9.40039 11.5V13H6.59961V11.5H9.40039ZM9.5 11.4004V9.59961C9.5 9.56447 9.49905 9.53136 9.49902 9.5H6.5V11.499C6.53136 11.499 6.56447 11.5 6.59961 11.5V13C6.03982 13 5.75976 12.9996 5.5459 12.8906C5.40484 12.8187 5.28366 12.7148 5.19141 12.5879L5.10938 12.4541C5.0276 12.2936 5.00705 12.0958 5.00195 11.7705L5 11.4004V9.59961C5 9.03982 5.00041 8.75976 5.10938 8.5459C5.20522 8.35793 5.35793 8.20522 5.5459 8.10938C5.75976 8.00041 6.03982 8 6.59961 8H9.40039L9.77051 8.00195C10.0958 8.00705 10.2936 8.0276 10.4541 8.10938C10.6421 8.20522 10.7948 8.35793 10.8906 8.5459C10.9996 8.75976 11 9.03982 11 9.59961V11.4004L10.998 11.7705C10.9929 12.0958 10.9724 12.2936 10.8906 12.4541L10.8086 12.5879C10.7163 12.7148 10.5952 12.8187 10.4541 12.8906L10.3701 12.9268C10.2239 12.9789 10.0416 12.9938 9.77051 12.998L9.40039 13V11.5C9.43517 11.5 9.46796 11.499 9.49902 11.499C9.49905 11.468 9.5 11.4352 9.5 11.4004Z" fill="white"/>
</g>
<defs>
<clipPath id="clip0_274_1342">
<rect width="16" height="16" fill="white"/>
</clipPath>
</defs>
</svg>
