<svg width="16" height="16" viewBox="0 0 16 16" fill="none" xmlns="http://www.w3.org/2000/svg">
<g clip-path="url(#clip0_274_1522)">
<path d="M16 7.44247C15.9999 7.85655 15.6641 8.19238 15.25 8.19247C14.8358 8.19247 14.5001 7.85661 14.5 7.44247V2.56064L10.4268 6.63388C10.1339 6.92675 9.65911 6.92669 9.36621 6.63388C9.07332 6.34099 9.07332 5.86623 9.36621 5.57333L13.4395 1.50009H8.55762C8.1434 1.50009 7.80762 1.16431 7.80762 0.750092C7.80762 0.335878 8.1434 9.15527e-05 8.55762 9.15527e-05H15.25C15.6641 0.000183408 16 0.335935 16 0.750092V7.44247Z" fill="white"/>
<path d="M0 8.55753C9.15009e-05 8.14345 0.335921 7.80762 0.75 7.80753C1.16416 7.80753 1.49991 8.14339 1.5 8.55753V13.4394L5.57324 9.36612C5.86611 9.07325 6.34089 9.07331 6.63379 9.36612C6.92668 9.65901 6.92668 10.1338 6.63379 10.4267L2.56055 14.4999H7.44238C7.8566 14.4999 8.19238 14.8357 8.19238 15.2499C8.19238 15.6641 7.8566 15.9999 7.44238 15.9999H0.75C0.335865 15.9998 0 15.6641 0 15.2499V8.55753Z" fill="white"/>
</g>
<defs>
<clipPath id="clip0_274_1522">
<rect width="16" height="16" fill="white"/>
</clipPath>
</defs>
</svg>
