<svg width="16" height="16" viewBox="0 0 16 16" fill="none" xmlns="http://www.w3.org/2000/svg">
<g clip-path="url(#clip0_274_2080)">
<path d="M14.5 8C14.5 4.41015 11.5899 1.5 8 1.5C4.41015 1.5 1.5 4.41015 1.5 8C1.5 11.5899 4.41015 14.5 8 14.5C11.5899 14.5 14.5 11.5899 14.5 8ZM16 8C16 12.4183 12.4183 16 8 16C3.58172 16 0 12.4183 0 8C1.28855e-07 3.58172 3.58172 1.28851e-07 8 0C12.4183 0 16 3.58172 16 8Z" fill="white"/>
<path d="M10.2844 9.02349C10.5202 8.68299 10.9868 8.59831 11.3273 8.83404C11.6678 9.06978 11.7533 9.5365 11.5178 9.87701L10.5373 9.1983C10.6247 9.25888 10.7422 9.3406 10.9006 9.45025L11.5168 9.87798L11.5158 9.87896C11.5153 9.87974 11.5145 9.88093 11.5139 9.88189C11.5124 9.88392 11.511 9.88692 11.509 9.8897C11.505 9.89524 11.4995 9.90185 11.4934 9.91021C11.481 9.9271 11.4647 9.95031 11.4435 9.97759C11.4013 10.0321 11.3408 10.1055 11.2639 10.1924C11.1107 10.3656 10.8863 10.5947 10.5949 10.8243C10.0162 11.2802 9.13079 11.7706 8.00019 11.7706C6.8698 11.7704 5.98507 11.2801 5.40644 10.8243C5.11508 10.5947 4.89065 10.3656 4.73749 10.1924C4.66052 10.1054 4.60003 10.0311 4.55781 9.97662C4.53684 9.94954 4.52028 9.92701 4.508 9.91021C4.50189 9.90185 4.49631 9.89524 4.49238 9.8897C4.49039 9.88692 4.48892 9.88392 4.48749 9.88189C4.48683 9.88095 4.48608 9.87973 4.48554 9.87896L4.48456 9.87798L5.10077 9.45025C4.53666 9.84081 4.4885 9.87395 4.48456 9.87701C4.2488 9.53648 4.33353 9.06984 4.67402 8.83404C5.01439 8.59838 5.48011 8.68339 5.71601 9.02349C5.71654 9.02422 5.71819 9.02442 5.71894 9.02545C5.72341 9.03157 5.73222 9.04302 5.74433 9.05865C5.76863 9.09 5.8076 9.13844 5.86054 9.1983C5.96782 9.31956 6.12834 9.48361 6.33515 9.64654C6.75316 9.97583 7.31854 10.2704 8.00019 10.2706C8.68201 10.2706 9.24804 9.9759 9.6662 9.64654C9.87305 9.48361 10.0335 9.31957 10.1408 9.1983C10.194 9.13817 10.2337 9.09002 10.258 9.05865C10.27 9.04315 10.2779 9.0316 10.2824 9.02545L10.2844 9.02349Z" fill="white"/>
<path d="M5.83105 5.07526L5.90723 5.07916C6.28565 5.11735 6.58105 5.43677 6.58105 5.82526C6.58105 6.21374 6.28565 6.53316 5.90723 6.57135L5.83105 6.57526H5.8252C5.41098 6.57526 5.0752 6.23947 5.0752 5.82526C5.0752 5.41104 5.41098 5.07526 5.8252 5.07526H5.83105Z" fill="white"/>
<path d="M10.1812 5.07526L10.2573 5.07916C10.6357 5.11735 10.9312 5.43677 10.9312 5.82526C10.9312 6.21374 10.6357 6.53316 10.2573 6.57135L10.1812 6.57526H10.1753C9.76108 6.57526 9.42529 6.23947 9.42529 5.82526C9.42529 5.41104 9.76108 5.07526 10.1753 5.07526H10.1812Z" fill="white"/>
</g>
<defs>
<clipPath id="clip0_274_2080">
<rect width="16" height="16" fill="white"/>
</clipPath>
</defs>
</svg>
