<svg width="16" height="16" viewBox="0 0 16 16" fill="none" xmlns="http://www.w3.org/2000/svg">
<g clip-path="url(#clip0_274_2570)">
<path d="M7.99946 0C8.41367 0 8.74946 0.335786 8.74946 0.75V6.70117L11.392 5.17578L13.9038 3.72559C14.2623 3.51881 14.7211 3.64156 14.9282 4C15.1351 4.35856 15.0121 4.8172 14.6538 5.02441L12.142 6.47461L9.49946 7.99902L12.142 9.52539L14.6538 10.9756L14.7182 11.0176C15.0262 11.24 15.1222 11.6638 14.9282 12C14.734 12.3362 14.3188 12.4652 13.9721 12.3096L13.9038 12.2744L11.392 10.8242L8.74946 9.29785V15.25C8.74946 15.6642 8.41367 16 7.99946 16C7.58543 15.9998 7.24946 15.6641 7.24946 15.25V9.29883L4.60785 10.8242L2.09613 12.2744C1.73743 12.4815 1.27884 12.3587 1.07172 12C0.864793 11.6413 0.987525 11.1827 1.34613 10.9756L3.85785 9.52539L6.49946 7.99902L3.85785 6.47461L1.34613 5.02441L1.28168 4.98242C0.973841 4.75995 0.877686 4.33608 1.07172 4C1.26582 3.66394 1.68119 3.53496 2.02778 3.69043L2.09613 3.72559L4.60785 5.17578L7.24946 6.7002V0.75C7.24946 0.335926 7.58543 0.000226171 7.99946 0Z" fill="white"/>
</g>
<defs>
<clipPath id="clip0_274_2570">
<rect width="16" height="16" fill="white"/>
</clipPath>
</defs>
</svg>
