<svg width="16" height="16" viewBox="0 0 16 16" fill="none" xmlns="http://www.w3.org/2000/svg">
<g clip-path="url(#clip0_274_2540)">
<path d="M7.9997 0C8.41391 0 8.7497 0.335786 8.7497 0.75V1.83887L9.64423 0.944336C9.93696 0.651608 10.4118 0.65194 10.7048 0.944336C10.9977 1.23723 10.9977 1.71199 10.7048 2.00488L8.7497 3.95996V6.7002L11.1227 5.33105L11.8386 2.66016C11.9458 2.26022 12.3575 2.02278 12.7575 2.12988C13.1574 2.23722 13.395 2.64883 13.2878 3.04883L12.9597 4.27051L13.903 3.72656C14.2617 3.51946 14.7203 3.64226 14.9274 4.00098C15.1344 4.35967 15.0117 4.81832 14.653 5.02539L13.7097 5.56934L14.9323 5.89746L15.0056 5.9209C15.3606 6.05594 15.5628 6.44057 15.4626 6.81543C15.3552 7.21534 14.9436 7.45288 14.5436 7.3457L11.8737 6.62988L9.4997 7.99902L11.8737 9.37012L14.5446 8.65527C14.9447 8.54819 15.3564 8.78551 15.4636 9.18555C15.5704 9.58534 15.333 9.99619 14.9333 10.1035L13.7106 10.4307L14.654 10.9756C15.0125 11.1828 15.1364 11.6424 14.9294 12.001C14.7352 12.3371 14.319 12.4662 13.9724 12.3105L13.904 12.2754L12.9606 11.7305L13.2888 12.9521L13.3044 13.0273C13.3652 13.4024 13.1333 13.7704 12.7585 13.8711C12.3585 13.9783 11.9469 13.7407 11.8395 13.3408L11.1237 10.6689L8.7497 9.29785V12.0391L10.7048 13.9951L10.7565 14.0518C10.9968 14.3463 10.9794 14.7811 10.7048 15.0557C10.4302 15.3298 9.99625 15.3466 9.70185 15.1064L9.64423 15.0557L8.7497 14.1602V15.25C8.7497 15.6642 8.41391 16 7.9997 16C7.58567 15.9998 7.2497 15.6641 7.2497 15.25V14.1602L6.35517 15.0557C6.06232 15.3482 5.58743 15.3483 5.29462 15.0557C5.00194 14.7629 5.00207 14.288 5.29462 13.9951L7.2497 12.0391V9.29785L4.87568 10.6689L4.16083 13.3408C4.05349 13.7407 3.64188 13.9783 3.24189 13.8711C2.84222 13.7637 2.60467 13.352 2.71162 12.9521L3.03876 11.7305L2.09638 12.2754L2.02802 12.3105C1.68154 12.4662 1.26624 12.3368 1.07197 12.001C0.864914 11.6424 0.987879 11.1828 1.34638 10.9756L2.28876 10.4307L1.06708 10.1035C0.667426 9.99618 0.430003 9.58533 0.536811 9.18555C0.644008 8.78549 1.0557 8.54815 1.45576 8.65527L4.12568 9.37012L6.49872 7.99902L4.12568 6.62988L1.45673 7.3457L1.38154 7.3623C1.00637 7.42312 0.63843 7.19036 0.537788 6.81543C0.430875 6.41554 0.668252 6.00474 1.06806 5.89746L2.28974 5.56934L1.34736 5.02539L1.2829 4.9834C0.974467 4.76112 0.878877 4.33733 1.07294 4.00098C1.26718 3.66455 1.68219 3.53531 2.029 3.69141L2.09736 3.72656L3.03974 4.27051L2.71259 3.04883L2.69697 2.97363C2.63613 2.59846 2.86794 2.23053 3.24286 2.12988C3.61779 2.02952 4.00331 2.2318 4.13837 2.58691L4.16181 2.66016L4.87665 5.33105L7.2497 6.7002V3.95996L5.29462 2.00488C5.00207 1.712 5.00194 1.23714 5.29462 0.944336C5.58743 0.651738 6.06232 0.651809 6.35517 0.944336L7.2497 1.83887V0.75C7.2497 0.335922 7.58567 0.000220281 7.9997 0Z" fill="white"/>
</g>
<defs>
<clipPath id="clip0_274_2540">
<rect width="16" height="16" fill="white"/>
</clipPath>
</defs>
</svg>
