<svg width="16" height="16" viewBox="0 0 16 16" fill="none" xmlns="http://www.w3.org/2000/svg">
<path d="M5.06348 10.2925L5.07423 10.2974L5.3252 10.4399C5.41319 10.4978 5.45627 10.5317 5.50977 10.5747L6.06544 11.022C6.70176 11.534 7.13949 11.8856 7.48243 12.1138C7.83684 12.3495 7.96767 12.3666 7.99805 12.3667C8.22663 12.3673 8.44319 12.263 8.58594 12.0845C8.6052 12.0602 8.67353 11.9474 8.71192 11.5249C8.74917 11.1147 8.75001 10.5536 8.75001 9.73682V6.24658C8.75001 5.43569 8.74893 4.87934 8.71192 4.47217C8.67368 4.05158 8.60608 3.93958 8.58692 3.91553C8.44487 3.73719 8.22898 3.63365 8.00098 3.6333C7.96994 3.63331 7.83979 3.64927 7.48731 3.88037C7.1454 4.10457 6.70934 4.45036 6.07423 4.95459L5.50098 5.40967C5.44911 5.45085 5.40735 5.48398 5.32227 5.53955C5.26877 5.57449 5.1384 5.64819 5.08106 5.67627C5.06812 5.68261 5.06148 5.68652 5.0586 5.68799C5.06066 5.68691 5.06484 5.68422 5.07032 5.68115C5.07305 5.67963 5.07599 5.67671 5.08008 5.67432C5.07199 5.67908 5.06315 5.68537 5.05274 5.69092C5.02844 5.70386 5.0079 5.71337 4.99415 5.71924C4.98205 5.7244 4.97206 5.72811 4.96973 5.72901C4.96806 5.72965 4.96646 5.72974 4.96583 5.72998L4.96485 5.73096C4.73557 5.81807 4.48446 5.8686 4.22657 5.86865H3.9004C3.46798 5.86865 3.1881 5.86887 2.97559 5.88623C2.77207 5.90288 2.69625 5.93082 2.65919 5.94971C2.51815 6.02162 2.40392 6.13678 2.33204 6.27783C2.31314 6.31492 2.28423 6.39049 2.26758 6.59424C2.25024 6.8067 2.25001 7.08586 2.25001 7.51807V8.45752C2.25001 8.8897 2.25025 9.16889 2.26758 9.38135C2.28421 9.58489 2.31314 9.66063 2.33204 9.69776C2.4039 9.8388 2.51817 9.95397 2.65919 10.0259C2.69625 10.0448 2.77208 10.0727 2.97559 10.0894C3.1881 10.1067 3.46798 10.1079 3.9004 10.1079H4.22657C4.48021 10.108 4.72705 10.1563 4.95313 10.2407L4.95508 10.2417C4.95588 10.242 4.95756 10.2421 4.95899 10.2427C4.96182 10.2438 4.97146 10.2474 4.98341 10.2524C4.99763 10.2584 5.01952 10.2682 5.04493 10.2817C5.05152 10.2852 5.05774 10.2892 5.06348 10.2925ZM4.42481 11.645C4.42613 11.6455 4.42723 11.6458 4.42774 11.646C4.42638 11.6455 4.42519 11.6445 4.42383 11.644L4.42481 11.645ZM4.28419 11.5737C4.2866 11.5753 4.29003 11.5771 4.29395 11.5796C4.28874 11.5763 4.28415 11.5734 4.28028 11.5708L4.28419 11.5737ZM5.09571 10.311C5.09417 10.3101 5.09248 10.3091 5.09083 10.3081C5.08437 10.3041 5.07817 10.3012 5.07325 10.2983C5.08204 10.3035 5.08993 10.3074 5.09571 10.311ZM4.28907 4.40088C4.28809 4.40152 4.2872 4.40278 4.28712 4.40283C4.28712 4.40283 4.28869 4.40177 4.29005 4.40088C4.29144 4.39997 4.29333 4.39898 4.29493 4.39795L4.28907 4.40088ZM4.34766 4.3667C4.34433 4.36848 4.34105 4.37082 4.3379 4.37256C4.34224 4.37013 4.34579 4.36682 4.34962 4.36475L4.34766 4.3667ZM10.25 9.73682C10.25 10.5234 10.2509 11.1654 10.2061 11.6597C10.1625 12.1399 10.0664 12.6349 9.75684 13.022C9.32836 13.5575 8.67904 13.8688 7.99317 13.8667C7.49772 13.8652 7.05275 13.6298 6.65137 13.3628C6.23814 13.0879 5.73803 12.6842 5.12501 12.1909L4.56934 11.7437C4.54525 11.7243 4.53963 11.7194 4.53419 11.7153L4.50782 11.6978C4.506 11.6966 4.50225 11.694 4.49708 11.6909L4.42091 11.648C4.41577 11.6451 4.41207 11.6431 4.41016 11.6421C4.40775 11.6409 4.40562 11.6393 4.40333 11.6382C4.3421 11.6181 4.28187 11.608 4.22657 11.6079H3.9004C3.49273 11.6079 3.14128 11.608 2.85352 11.5845C2.55716 11.5602 2.26218 11.5073 1.97852 11.3628C1.55524 11.1471 1.21085 10.8026 0.995124 10.3794C0.850528 10.0956 0.796693 9.79993 0.772468 9.50342C0.748993 9.21575 0.750007 8.86498 0.750007 8.45752V7.51807C0.750006 7.11059 0.748982 6.75984 0.772468 6.47217C0.796682 6.1758 0.850682 5.88083 0.995124 5.59717C1.21082 5.17385 1.55522 4.82949 1.97852 4.61377C2.26224 4.46921 2.55708 4.41535 2.85352 4.39112C3.14128 4.3676 3.49273 4.36865 3.9004 4.36865H4.22657C4.28351 4.36861 4.34522 4.35573 4.40821 4.33447L4.41407 4.33252C4.41587 4.33157 4.41973 4.32945 4.42481 4.32666C4.43491 4.32112 4.44819 4.31396 4.46192 4.30615C4.47563 4.29835 4.48817 4.2905 4.49805 4.28467C4.50304 4.28173 4.50705 4.27987 4.5088 4.27881C4.5109 4.27753 4.50798 4.27976 4.50196 4.28369C4.52304 4.26993 4.53081 4.26372 4.53419 4.26123C4.53932 4.25744 4.54491 4.25271 4.56739 4.23487L5.14161 3.77979C5.75327 3.29417 6.25248 2.897 6.66505 2.62647C7.06622 2.36343 7.51043 2.13255 8.00391 2.1333C8.68763 2.13449 9.33372 2.44621 9.75977 2.98096C10.0672 3.36702 10.1626 3.85864 10.2061 4.33643C10.2507 4.82775 10.25 5.46559 10.25 6.24658V9.73682Z" fill="white"/>
<path d="M11.0986 6.02692C11.3915 5.73403 11.8662 5.73403 12.1591 6.02692L13.0712 6.93903L13.9697 6.04157C14.2626 5.74868 14.7373 5.74868 15.0302 6.04157C15.323 6.33447 15.3231 6.80927 15.0302 7.10212L14.1318 7.99958L15.0302 8.89801L15.082 8.95466C15.3222 9.24923 15.3048 9.68399 15.0302 9.95856C14.7556 10.2331 14.3209 10.2505 14.0263 10.0103L13.9697 9.95856L13.0712 9.06012L12.1591 9.97321C11.8663 10.2659 11.3914 10.2659 11.0986 9.97321C10.8057 9.68036 10.8058 9.20557 11.0986 8.91266L12.0107 7.99958L11.0986 7.08747C10.8057 6.79457 10.8057 6.31981 11.0986 6.02692Z" fill="white"/>
</svg>
