<svg width="16" height="16" viewBox="0 0 16 16" fill="none" xmlns="http://www.w3.org/2000/svg">
<path d="M4.31348 10.2925L4.32423 10.2974L4.5752 10.4399C4.66319 10.4978 4.70627 10.5317 4.75977 10.5747L5.31544 11.022C5.95176 11.534 6.38949 11.8856 6.73243 12.1138C7.08684 12.3495 7.21767 12.3666 7.24805 12.3667C7.47663 12.3673 7.69319 12.263 7.83594 12.0845C7.8552 12.0602 7.92353 11.9474 7.96192 11.5249C7.99917 11.1147 8.00001 10.5536 8.00001 9.73682V6.24658C8.00001 5.43569 7.99893 4.87934 7.96192 4.47217C7.92368 4.05158 7.85608 3.93958 7.83692 3.91553C7.69487 3.73719 7.47898 3.63365 7.25098 3.6333C7.21994 3.63331 7.08979 3.64927 6.73731 3.88037C6.3954 4.10457 5.95934 4.45036 5.32423 4.95459L4.75098 5.40967C4.69911 5.45085 4.65735 5.48398 4.57227 5.53955C4.51877 5.57449 4.3884 5.64819 4.33106 5.67627C4.31812 5.68261 4.31148 5.68652 4.3086 5.68799C4.31066 5.68691 4.31484 5.68422 4.32032 5.68115C4.32305 5.67963 4.32599 5.67671 4.33008 5.67432C4.32199 5.67908 4.31315 5.68537 4.30274 5.69092C4.27844 5.70386 4.2579 5.71337 4.24415 5.71924C4.23205 5.7244 4.22206 5.72811 4.21973 5.72901C4.21806 5.72965 4.21646 5.72974 4.21583 5.72998L4.21485 5.73096C3.98557 5.81807 3.73446 5.8686 3.47657 5.86865H3.1504C2.71798 5.86865 2.4381 5.86887 2.22559 5.88623C2.02207 5.90288 1.94625 5.93082 1.90919 5.94971C1.76815 6.02162 1.65392 6.13678 1.58204 6.27783C1.56314 6.31492 1.53423 6.39049 1.51758 6.59424C1.50024 6.8067 1.50001 7.08586 1.50001 7.51807V8.45752C1.50001 8.8897 1.50025 9.16889 1.51758 9.38135C1.53421 9.58489 1.56314 9.66063 1.58204 9.69776C1.6539 9.8388 1.76817 9.95397 1.90919 10.0259C1.94625 10.0448 2.02208 10.0727 2.22559 10.0894C2.4381 10.1067 2.71798 10.1079 3.1504 10.1079H3.47657C3.73021 10.108 3.97705 10.1563 4.20313 10.2407L4.20508 10.2417C4.20588 10.242 4.20756 10.2421 4.20899 10.2427C4.21182 10.2438 4.22146 10.2474 4.23341 10.2524C4.24763 10.2584 4.26952 10.2682 4.29493 10.2817C4.30152 10.2852 4.30774 10.2892 4.31348 10.2925ZM3.67481 11.645C3.67613 11.6455 3.67723 11.6458 3.67774 11.646C3.67638 11.6455 3.67519 11.6445 3.67383 11.644L3.67481 11.645ZM3.53419 11.5737C3.5366 11.5753 3.54003 11.5771 3.54395 11.5796C3.53874 11.5763 3.53415 11.5734 3.53028 11.5708L3.53419 11.5737ZM4.34571 10.311C4.34417 10.3101 4.34248 10.3091 4.34083 10.3081C4.33437 10.3041 4.32817 10.3012 4.32325 10.2983C4.33204 10.3035 4.33993 10.3074 4.34571 10.311ZM3.53907 4.40088C3.53809 4.40152 3.5372 4.40278 3.53712 4.40283C3.53712 4.40283 3.53869 4.40177 3.54005 4.40088C3.54144 4.39997 3.54333 4.39898 3.54493 4.39795L3.53907 4.40088ZM3.59766 4.3667C3.59433 4.36848 3.59105 4.37082 3.5879 4.37256C3.59224 4.37013 3.59579 4.36682 3.59962 4.36475L3.59766 4.3667ZM9.50001 9.73682C9.50001 10.5234 9.5009 11.1654 9.45606 11.6597C9.41246 12.1399 9.31635 12.6349 9.00684 13.022C8.57836 13.5575 7.92904 13.8688 7.24317 13.8667C6.74772 13.8652 6.30275 13.6298 5.90137 13.3628C5.48814 13.0879 4.98803 12.6842 4.37501 12.1909L3.81934 11.7437C3.79525 11.7243 3.78963 11.7194 3.78419 11.7153L3.75782 11.6978C3.756 11.6966 3.75225 11.694 3.74708 11.6909L3.67091 11.648C3.66577 11.6451 3.66207 11.6431 3.66016 11.6421C3.65775 11.6409 3.65562 11.6393 3.65333 11.6382C3.5921 11.6181 3.53187 11.608 3.47657 11.6079H3.1504C2.74273 11.6079 2.39128 11.608 2.10352 11.5845C1.80716 11.5602 1.51218 11.5073 1.22852 11.3628C0.805239 11.1471 0.460847 10.8026 0.245124 10.3794C0.100528 10.0956 0.0466933 9.79993 0.0224676 9.50342C-0.00100664 9.21575 6.61698e-06 8.86498 6.61698e-06 8.45752V7.51807C6.48934e-06 7.11059 -0.00101755 6.75984 0.0224676 6.47217C0.0466819 6.1758 0.100682 5.88083 0.245124 5.59717C0.460815 5.17385 0.805221 4.82949 1.22852 4.61377C1.51224 4.46921 1.80708 4.41535 2.10352 4.39112C2.39128 4.3676 2.74273 4.36865 3.1504 4.36865H3.47657C3.53351 4.36861 3.59522 4.35573 3.65821 4.33447L3.66407 4.33252C3.66587 4.33157 3.66973 4.32945 3.67481 4.32666C3.68491 4.32112 3.69819 4.31396 3.71192 4.30615C3.72563 4.29835 3.73817 4.2905 3.74805 4.28467C3.75304 4.28173 3.75705 4.27987 3.7588 4.27881C3.7609 4.27753 3.75798 4.27976 3.75196 4.28369C3.77304 4.26993 3.78081 4.26372 3.78419 4.26123C3.78932 4.25744 3.79491 4.25271 3.81739 4.23487L4.39161 3.77979C5.00327 3.29417 5.50248 2.897 5.91505 2.62647C6.31622 2.36343 6.76043 2.13255 7.25391 2.1333C7.93763 2.13449 8.58372 2.44621 9.00977 2.98096C9.31723 3.36702 9.41263 3.85864 9.45606 4.33643C9.50071 4.82775 9.50001 5.46559 9.50001 6.24658V9.73682Z" fill="white"/>
<path d="M10.7997 4.49996C11.1309 4.25129 11.6007 4.3182 11.8495 4.64937C13.3405 6.63464 13.3405 9.36528 11.8495 11.3505C11.6008 11.6817 11.1309 11.7486 10.7997 11.5C10.4685 11.2512 10.4016 10.7814 10.6503 10.4502C11.7405 8.99852 11.7405 7.0014 10.6503 5.54976C10.4016 5.21857 10.4685 4.74869 10.7997 4.49996Z" fill="white"/>
<path d="M13.2284 2.68722C13.5597 2.43857 14.0295 2.50542 14.2782 2.83663C16.5739 5.89494 16.5738 10.1044 14.2782 13.1628C14.0296 13.494 13.5597 13.5617 13.2284 13.3132C12.8971 13.0645 12.8303 12.5937 13.079 12.2624C14.974 9.73763 14.9741 6.26175 13.079 3.73702C12.8303 3.40578 12.8972 2.9359 13.2284 2.68722Z" fill="white"/>
</svg>
