<svg width="16" height="16" viewBox="0 0 16 16" fill="none" xmlns="http://www.w3.org/2000/svg">
<g clip-path="url(#clip0_274_1223)">
<path d="M11 6.7355e-05C12.1027 9.55488e-05 12.8402 -0.00980108 13.456 0.199286C14.5597 0.574133 15.426 1.44126 15.8007 2.54498C16.0097 3.16075 16 3.89767 16 5.00006V10.4502C16 11.2778 16.0009 11.9437 15.957 12.4815C15.9123 13.0281 15.8171 13.509 15.5908 13.9532C15.2312 14.6585 14.6575 15.2324 13.9521 15.5918C13.508 15.818 13.0279 15.9124 12.4814 15.9571C11.9436 16.001 11.2777 16.0001 10.4502 16H5.54983C4.72233 16.0001 4.05639 16.001 3.5186 15.9571C2.97215 15.9124 2.49201 15.818 2.04791 15.5918C1.3423 15.2323 0.768792 14.6578 0.409248 13.9522C0.182982 13.508 0.0877008 13.028 0.0430392 12.4815C-0.000891612 11.9437 7.06266e-05 11.2778 7.08005e-05 10.4502V5.00006C6.93671e-05 3.8977 -0.00965245 3.16075 0.199288 2.54498C0.573978 1.44133 1.44042 0.574145 2.544 0.199286C3.15987 -0.00983519 3.89734 0.000116731 5.00003 6.7355e-05H11ZM6.75002 5.75005V14.5H10.4502C11.3025 14.5001 11.8968 14.4997 12.3594 14.4619C12.8131 14.4249 13.074 14.3555 13.2715 14.2549C13.6948 14.0392 14.0391 13.6948 14.2548 13.2715C14.3554 13.074 14.4248 12.8131 14.4619 12.3594C14.4997 11.8968 14.5 11.3025 14.5 10.4502V5.75005H6.75002ZM1.50006 10.4502C1.50006 11.3025 1.50035 11.8968 1.53815 12.3594C1.57522 12.8131 1.64458 13.074 1.74518 13.2715C1.96089 13.6948 2.30524 14.0392 2.72857 14.2549C2.92606 14.3555 3.18689 14.4249 3.64067 14.4619C4.04697 14.4951 4.55494 14.4976 5.25003 14.4981V5.75005H1.50006V10.4502ZM6.75002 4.25006H14.497C14.4895 3.5784 14.4639 3.27259 14.3808 3.0274C14.156 2.36513 13.6359 1.84409 12.9736 1.6192C12.6514 1.50981 12.2245 1.5001 11 1.50006H6.75002V4.25006ZM5.00003 1.50006C3.7755 1.50012 3.34864 1.50979 3.02642 1.6192C2.36431 1.84407 1.84408 2.36433 1.6192 3.02643C1.53595 3.27172 1.51043 3.57777 1.50299 4.25006H5.25003V1.50006H5.00003Z" fill="white"/>
</g>
<defs>
<clipPath id="clip0_274_1223">
<rect width="16" height="16" fill="white"/>
</clipPath>
</defs>
</svg>
