<svg width="16" height="16" viewBox="0 0 16 16" fill="none" xmlns="http://www.w3.org/2000/svg">
<g clip-path="url(#clip0_274_2308)">
<path d="M7.36719 0.0809978C7.91487 0.0809978 8.37106 0.0799725 8.74219 0.110295C9.12191 0.141337 9.4783 0.209066 9.81543 0.380802C10.2315 0.59281 10.5831 0.908096 10.8428 1.29194L12.6729 1.78217C13.2018 1.92389 13.6426 2.04161 13.9932 2.16694C14.3519 2.2952 14.6788 2.45285 14.96 2.706C15.3913 3.0945 15.6888 3.60985 15.8096 4.17768C15.8881 4.54762 15.8612 4.90947 15.793 5.28412C15.7262 5.6504 15.6075 6.09115 15.4658 6.62006L13.8281 12.7333C13.6864 13.2622 13.5677 13.7031 13.4424 14.0537C13.3141 14.4126 13.1576 14.7411 12.9043 15.0224C12.5158 15.4537 12.0004 15.7503 11.4326 15.871C11.0625 15.9497 10.7 15.9227 10.3252 15.8544C9.95907 15.7877 9.51883 15.6689 8.99024 15.5273L4.44922 14.3105H4.09278C3.5451 14.3105 3.08891 14.3115 2.71778 14.2812C2.33801 14.2502 1.9817 14.1824 1.64454 14.0107C1.12717 13.7471 0.706046 13.3268 0.442387 12.8095C0.270545 12.4723 0.202917 12.1152 0.171879 11.7353C0.141572 11.3642 0.142582 10.9079 0.142582 10.3603V4.03119C0.142582 3.48352 0.141557 3.02732 0.171879 2.65619C0.202911 2.27646 0.270675 1.92009 0.442387 1.58295C0.706038 1.06551 1.12709 0.644454 1.64454 0.380802C1.98168 0.209091 2.33805 0.141327 2.71778 0.110295C3.08891 0.0799723 3.5451 0.0809978 4.09278 0.0809978H7.36719ZM11.3047 2.96869C11.3167 3.27508 11.3174 3.62838 11.3174 4.03119V10.3603C11.3174 10.9079 11.3174 11.3642 11.2871 11.7353C11.2561 12.1152 11.1894 12.4723 11.0176 12.8095C10.7539 13.3269 10.3328 13.7471 9.81543 14.0107C9.72861 14.0549 9.64022 14.0914 9.55079 14.123C10.01 14.2457 10.3332 14.3313 10.5938 14.3788C10.8767 14.4304 11.0207 14.4253 11.1201 14.4042C11.3782 14.3494 11.6125 14.2136 11.7891 14.0175C11.857 13.942 11.9334 13.8198 12.0303 13.5488C12.1301 13.2693 12.2309 12.8982 12.3789 12.3456L14.0166 6.23237C14.1647 5.67965 14.2632 5.30757 14.3164 5.01557C14.368 4.73232 14.3639 4.58859 14.3428 4.4892C14.2879 4.23117 14.152 3.99781 13.9561 3.82123C13.8805 3.75322 13.7586 3.67602 13.4873 3.57904C13.2078 3.47918 12.8367 3.37944 12.2842 3.23139L11.3047 2.96869ZM4.09278 1.581C3.52035 1.581 3.13573 1.58124 2.83985 1.60541C2.55285 1.62887 2.41574 1.67158 2.3252 1.71772C2.09008 1.83754 1.89913 2.0285 1.7793 2.26361C1.73317 2.35416 1.69046 2.49127 1.667 2.77826C1.64282 3.07414 1.64258 3.45877 1.64258 4.03119V10.3603C1.64258 10.9327 1.64283 11.3174 1.667 11.6132C1.69044 11.9002 1.73318 12.0373 1.7793 12.1279C1.89914 12.3631 2.09 12.5549 2.3252 12.6747C2.41574 12.7208 2.55305 12.7626 2.83985 12.7861C3.13573 12.8102 3.52035 12.8105 4.09278 12.8105H7.36719C7.93962 12.8105 8.32424 12.8102 8.62012 12.7861C8.90695 12.7626 9.04425 12.7209 9.13477 12.6747C9.36997 12.5549 9.56083 12.3631 9.68067 12.1279C9.72677 12.0373 9.76855 11.9001 9.792 11.6132C9.81617 11.3174 9.81739 10.9327 9.81739 10.3603V4.03119C9.81739 3.45877 9.81617 3.07414 9.792 2.77826C9.76853 2.49131 9.7268 2.35415 9.68067 2.26361C9.56087 2.02851 9.36984 1.83756 9.13477 1.71772C9.04425 1.67159 8.907 1.62888 8.62012 1.60541C8.32424 1.58124 7.93962 1.581 7.36719 1.581H4.09278Z" fill="white"/>
</g>
<defs>
<clipPath id="clip0_274_2308">
<rect width="16" height="16" fill="white"/>
</clipPath>
</defs>
</svg>
