<svg width="16" height="16" viewBox="0 0 16 16" fill="none" xmlns="http://www.w3.org/2000/svg">
<g clip-path="url(#clip0_274_1498)">
<path d="M7.39806 0.499687C7.77292 0.293608 8.22725 0.293759 8.60216 0.499687C8.94154 0.686262 9.09583 1.03679 9.1715 1.21746C9.26583 1.44269 9.36313 1.74565 9.47423 2.08758L10.4869 5.20379C10.4908 5.21574 10.4952 5.22733 10.4986 5.23797C10.51 5.23798 10.522 5.23895 10.5348 5.23895H13.8121C14.1716 5.23895 14.4897 5.23837 14.733 5.25848C14.9037 5.27259 15.2165 5.30317 15.4811 5.48797L15.5914 5.57781L15.6998 5.69402C15.9346 5.97873 16.0337 6.35551 15.9635 6.72332C15.8908 7.10356 15.6051 7.35826 15.4567 7.48602C15.2716 7.64528 15.014 7.83143 14.7233 8.04266L12.0719 9.96941C12.0614 9.97701 12.0509 9.98317 12.0416 9.98992C12.0452 10.001 12.0493 10.0126 12.0533 10.0251L13.067 13.1423C13.1781 13.4842 13.2766 13.7865 13.3326 14.0241C13.3776 14.2148 13.4594 14.5888 13.2945 14.9391C13.1124 15.3263 12.7444 15.5935 12.3199 15.6471C11.936 15.6956 11.6056 15.5028 11.4381 15.4011C11.2294 15.2743 10.9721 15.087 10.6813 14.8757L8.0299 12.9489C8.01932 12.9412 8.009 12.9342 7.99962 12.9274C7.99058 12.934 7.98146 12.9415 7.9713 12.9489L5.31896 14.8757C5.02829 15.0869 4.77169 15.2744 4.5631 15.4011C4.39568 15.5027 4.06529 15.6956 3.68126 15.6471C3.25678 15.5935 2.88889 15.3262 2.70666 14.9391C2.54176 14.5887 2.62359 14.2147 2.66857 14.0241C2.72464 13.7864 2.82309 13.4842 2.93419 13.1423L3.94689 10.0251C3.95091 10.0127 3.95408 10.0009 3.95763 9.98992C3.94873 9.98345 3.93929 9.97667 3.92931 9.96941L1.27697 8.04266C0.986189 7.83139 0.728576 7.64529 0.543569 7.48602C0.39515 7.35824 0.109367 7.1036 0.0367335 6.72332C-0.0434521 6.30297 0.0978348 5.87075 0.40978 5.57781L0.519155 5.48797C0.783594 5.30307 1.09633 5.27261 1.2672 5.25848C1.51051 5.23836 1.82865 5.23894 2.1881 5.23895H5.46544C5.47805 5.23895 5.49036 5.23798 5.50158 5.23797C5.50506 5.22728 5.50939 5.2158 5.5133 5.20379L6.52599 2.08758C6.6371 1.74562 6.73537 1.4427 6.8297 1.21746C6.90538 1.03677 7.05877 0.686236 7.39806 0.499687ZM7.95275 2.55047L6.94005 5.66766C6.89544 5.80495 6.82119 6.07537 6.64709 6.28582C6.51291 6.44797 6.33983 6.57356 6.14416 6.65105C5.8902 6.7516 5.6098 6.73895 5.46544 6.73895H2.03673C2.07546 6.76715 2.11577 6.79752 2.1588 6.82879L4.81017 8.75555C4.92693 8.84038 5.16088 8.99476 5.30724 9.22527C5.3919 9.35868 5.45066 9.50654 5.48009 9.66082L5.49962 9.81707L5.5006 9.91766C5.49269 10.1525 5.41271 10.3687 5.37365 10.4889L4.36095 13.6061C4.34458 13.6565 4.32878 13.7043 4.31408 13.7497C4.35292 13.7215 4.395 13.6931 4.4381 13.6618L7.08947 11.735C7.20623 11.6502 7.42488 11.4759 7.68908 11.4079L7.84435 11.3786C7.94814 11.3655 8.05306 11.3655 8.15685 11.3786L8.31115 11.4079L8.40783 11.4382C8.62864 11.5183 8.80951 11.6608 8.91173 11.735L11.5631 13.6618C11.606 13.693 11.6474 13.7216 11.6861 13.7497C11.6715 13.7043 11.6566 13.6564 11.6402 13.6061L10.6276 10.4889C10.583 10.3517 10.4846 10.0895 10.5016 9.81707L10.5211 9.66082C10.5505 9.5066 10.6084 9.35864 10.693 9.22527C10.8393 8.99469 11.0732 8.84041 11.1901 8.75555L13.8414 6.82879C13.8842 6.79771 13.924 6.767 13.9625 6.73895H10.5348C10.3904 6.73895 10.1109 6.75147 9.85705 6.65105C9.66141 6.5736 9.48829 6.4479 9.35412 6.28582C9.18002 6.07538 9.10576 5.80496 9.06115 5.66766L8.04748 2.55047C8.03107 2.49997 8.01446 2.45239 7.99962 2.40691C7.98482 2.45231 7.96912 2.50007 7.95275 2.55047Z" fill="white"/>
</g>
<defs>
<clipPath id="clip0_274_1498">
<rect width="16" height="16" fill="white"/>
</clipPath>
</defs>
</svg>
