<svg width="16" height="16" viewBox="0 0 16 16" fill="none" xmlns="http://www.w3.org/2000/svg">
<g clip-path="url(#clip0_274_2456)">
<path d="M14.5 9.01172V5.54981C14.5 4.69746 14.4997 4.10322 14.4619 3.64063C14.4248 3.1868 14.3555 2.92602 14.2549 2.72852C14.0392 2.30515 13.6949 1.96083 13.2715 1.74512C13.074 1.64449 12.8132 1.57517 12.3594 1.53809C11.8968 1.50029 11.3025 1.5 10.4502 1.5H5.54981C4.69746 1.5 4.10322 1.50029 3.64063 1.53809C3.1868 1.57517 2.92602 1.64449 2.72852 1.74512C2.30515 1.96083 1.96083 2.30515 1.74512 2.72852C1.64449 2.92602 1.57517 3.1868 1.53809 3.64063C1.50029 4.10322 1.5 4.69746 1.5 5.54981V10.4502C1.5 11.3025 1.50029 11.8968 1.53809 12.3594C1.57517 12.8132 1.64449 13.074 1.74512 13.2715C1.96083 13.6949 2.30515 14.0392 2.72852 14.2549C2.92602 14.3555 3.1868 14.4248 3.64063 14.4619C4.10322 14.4997 4.69746 14.5 5.54981 14.5H9.01172C9.78088 14.5 10.0434 14.4948 10.2822 14.4375C10.5118 14.3824 10.7313 14.2913 10.9326 14.168C11.1421 14.0396 11.3319 13.8576 11.876 13.3135L13.3135 11.876C13.8576 11.3319 14.0396 11.1421 14.168 10.9326C14.2913 10.7313 14.3824 10.5118 14.4375 10.2822C14.4948 10.0434 14.5 9.78088 14.5 9.01172ZM16 9.01172C16 9.70979 16.0049 10.1812 15.8965 10.6328C15.8046 11.0154 15.6529 11.3813 15.4473 11.7168C15.2046 12.1128 14.8676 12.443 14.374 12.9365L12.9365 14.374C12.443 14.8676 12.1128 15.2046 11.7168 15.4473C11.3813 15.6529 11.0154 15.8046 10.6328 15.8965C10.1812 16.0049 9.70979 16 9.01172 16H5.54981C4.72222 16 4.05639 16.001 3.51856 15.957C2.97195 15.9124 2.49205 15.8171 2.04785 15.5908C1.34225 15.2313 0.768707 14.6578 0.409181 13.9522C0.182866 13.508 0.0876303 13.0281 0.0429705 12.4814C-0.000968203 11.9436 1.65332e-06 11.2778 1.74478e-06 10.4502V5.54981C1.65332e-06 4.72222 -0.000968203 4.05639 0.0429705 3.51856C0.0876303 2.97195 0.182866 2.49205 0.409181 2.04785C0.768707 1.34225 1.34225 0.768707 2.04785 0.409181C2.49205 0.182866 2.97195 0.0876303 3.51856 0.0429705C4.05639 -0.000968203 4.72222 1.65332e-06 5.54981 1.74478e-06H10.4502C11.2778 1.65332e-06 11.9436 -0.000968203 12.4814 0.0429705C13.0281 0.0876303 13.508 0.182866 13.9522 0.409181C14.6578 0.768707 15.2313 1.34225 15.5908 2.04785C15.8171 2.49205 15.9124 2.97195 15.957 3.51856C16.001 4.05639 16 4.72222 16 5.54981V9.01172Z" fill="white"/>
<path d="M10.2844 9.02349C10.5202 8.68299 10.9868 8.59831 11.3273 8.83404C11.6678 9.06978 11.7533 9.5365 11.5178 9.87701L10.5373 9.1983C10.6247 9.25888 10.7422 9.3406 10.9006 9.45025L11.5168 9.87798L11.5158 9.87896C11.5153 9.87974 11.5145 9.88093 11.5139 9.88189C11.5124 9.88392 11.511 9.88692 11.509 9.8897C11.505 9.89524 11.4995 9.90185 11.4934 9.91021C11.481 9.9271 11.4647 9.95031 11.4435 9.97759C11.4013 10.0321 11.3408 10.1055 11.2639 10.1924C11.1107 10.3656 10.8863 10.5947 10.5949 10.8243C10.0162 11.2802 9.13079 11.7706 8.00019 11.7706C6.8698 11.7704 5.98507 11.2801 5.40644 10.8243C5.11508 10.5947 4.89065 10.3656 4.73749 10.1924C4.66052 10.1054 4.60003 10.0311 4.55781 9.97662C4.53684 9.94954 4.52028 9.92701 4.508 9.91021C4.50189 9.90185 4.49631 9.89524 4.49238 9.8897C4.49039 9.88692 4.48892 9.88392 4.48749 9.88189C4.48683 9.88095 4.48608 9.87973 4.48554 9.87896L4.48456 9.87798L5.10077 9.45025C4.53666 9.84081 4.4885 9.87395 4.48456 9.87701C4.2488 9.53648 4.33353 9.06984 4.67402 8.83404C5.01439 8.59838 5.48011 8.68339 5.71601 9.02349C5.71654 9.02422 5.71819 9.02442 5.71894 9.02545C5.72341 9.03157 5.73222 9.04302 5.74433 9.05865C5.76863 9.09 5.8076 9.13844 5.86054 9.1983C5.96782 9.31956 6.12834 9.48361 6.33515 9.64654C6.75316 9.97583 7.31854 10.2704 8.00019 10.2706C8.68201 10.2706 9.24804 9.9759 9.6662 9.64654C9.87305 9.48361 10.0335 9.31957 10.1408 9.1983C10.194 9.13817 10.2337 9.09002 10.258 9.05865C10.27 9.04315 10.2779 9.0316 10.2824 9.02545L10.2844 9.02349Z" fill="white"/>
<path d="M5.83105 5.07526L5.90723 5.07916C6.28565 5.11735 6.58105 5.43677 6.58105 5.82526C6.58105 6.21374 6.28565 6.53316 5.90723 6.57135L5.83105 6.57526H5.8252C5.41098 6.57526 5.0752 6.23947 5.0752 5.82526C5.0752 5.41104 5.41098 5.07526 5.8252 5.07526H5.83105Z" fill="white"/>
<path d="M10.1812 5.07526L10.2573 5.07916C10.6357 5.11735 10.9312 5.43677 10.9312 5.82526C10.9312 6.21374 10.6357 6.53316 10.2573 6.57135L10.1812 6.57526H10.1753C9.76108 6.57526 9.42529 6.23947 9.42529 5.82526C9.42529 5.41104 9.76108 5.07526 10.1753 5.07526H10.1812Z" fill="white"/>
</g>
<defs>
<clipPath id="clip0_274_2456">
<rect width="16" height="16" fill="white"/>
</clipPath>
</defs>
</svg>
