<svg width="16" height="16" viewBox="0 0 16 16" fill="none" xmlns="http://www.w3.org/2000/svg">
<g clip-path="url(#clip0_274_2286)">
<path d="M16 8.34866C16 9.327 16.0002 9.81704 15.8896 10.2774C15.7917 10.6853 15.6293 11.0749 15.4102 11.4326C15.1628 11.8363 14.8168 12.1823 14.125 12.8741L12.874 14.125C12.1822 14.8168 11.8363 15.1628 11.4326 15.4102C11.0747 15.6295 10.6845 15.7917 10.2764 15.8897C9.81612 16.0001 9.32675 16 8.34863 16H6.40039L4.91699 15.9932C3.61647 15.9728 2.82541 15.8915 2.18359 15.5645L1.9082 15.4102C1.2817 15.0259 0.771098 14.4749 0.435547 13.8164L0.359375 13.6524C7.19726e-05 12.8161 0 11.7 0 9.59964L0 6.40042L0.00683594 4.91605C0.025582 3.72434 0.0959184 2.96091 0.359375 2.34769L0.435547 2.18362C0.771096 1.52515 1.2817 0.974164 1.9082 0.589874L2.18359 0.435577C3.03924 -0.00039655 4.16018 3.05192e-05 6.40039 3.05192e-05L9.59961 3.05192e-05C11.7 3.05192e-05 12.816 7.4178e-05 13.6523 0.359406L13.8154 0.435577C14.4738 0.771055 15.0249 1.28186 15.4092 1.90823L15.5645 2.1846C15.8912 2.82631 15.9728 3.61693 15.9932 4.91702L16 6.40042V8.34866ZM14.5 6.40042C14.5 5.25554 14.4985 4.48633 14.4502 3.89456C14.4033 3.32083 14.3198 3.04634 14.2275 2.86526C13.9879 2.39485 13.6052 2.01218 13.1348 1.77249C12.9536 1.68023 12.6786 1.59674 12.1045 1.54984C11.5128 1.50152 10.7442 1.50003 9.59961 1.50003L6.40039 1.50003C5.25553 1.50003 4.48629 1.50149 3.89453 1.54984C3.32077 1.59674 3.04631 1.68026 2.86523 1.77249C2.39483 2.01217 2.01214 2.39486 1.77246 2.86526C1.68023 3.04634 1.59671 3.3208 1.5498 3.89456C1.50146 4.48632 1.5 5.25557 1.5 6.40042L1.5 9.59964C1.5 10.7445 1.50146 11.5137 1.5498 12.1055C1.59672 12.6793 1.68023 12.9537 1.77246 13.1348C2.01215 13.6052 2.39483 13.9879 2.86523 14.2276C3.04631 14.3198 3.32078 14.4033 3.89453 14.4502C4.48629 14.4986 5.25553 14.5 6.40039 14.5L8.34863 14.5C8.74597 14.5 9.0331 14.4962 9.25 14.4912L9.25 13.2002C9.25 12.6526 9.24898 12.1963 9.2793 11.8252C9.31033 11.4455 9.3781 11.0891 9.5498 10.752C9.81345 10.2345 10.2345 9.81349 10.752 9.54984C11.0891 9.37812 11.4455 9.31036 11.8252 9.27933C12.1963 9.249 12.6525 9.25003 13.2002 9.25003H14.4922C14.4972 9.03313 14.5 8.74599 14.5 8.34866V6.40042ZM13.2002 10.75C12.6278 10.75 12.2431 10.7503 11.9473 10.7744C11.6603 10.7979 11.5232 10.8406 11.4326 10.8867C11.1975 11.0066 11.0065 11.1975 10.8867 11.4326C10.8406 11.5232 10.7979 11.6603 10.7744 11.9473C10.7502 12.2432 10.75 12.6278 10.75 13.2002L10.75 14.0616C10.9413 13.9237 11.1865 13.6915 11.8135 13.0645L13.0645 11.8135C13.6915 11.1865 13.9237 10.9414 14.0615 10.75H13.2002Z" fill="white"/>
</g>
<defs>
<clipPath id="clip0_274_2286">
<rect width="16" height="16" fill="white"/>
</clipPath>
</defs>
</svg>
