<svg width="16" height="16" viewBox="0 0 16 16" fill="none" xmlns="http://www.w3.org/2000/svg">
<path d="M8 0C9.80493 0 11.025 0.669274 11.7793 1.58594C12.5083 2.47189 12.75 3.52448 12.75 4.25C12.75 4.66421 12.4142 5 12 5C11.5858 5 11.25 4.66421 11.25 4.25C11.25 3.80891 11.092 3.1114 10.6211 2.53906C10.1754 1.99739 9.39507 1.5 8 1.5C6.61822 1.5 5.78975 2.02816 5.31348 2.64551C4.81373 3.29332 4.66304 4.08862 4.74219 4.64355C4.77895 4.90091 4.90518 5.29152 5.35645 5.71289C5.82058 6.14616 6.66189 6.64249 8.18164 7.02246C8.46412 7.09308 8.73167 7.16945 8.98535 7.25H13.5C13.9142 7.25 14.25 7.58579 14.25 8C14.25 8.41421 13.9142 8.75 13.5 8.75H11.8193C12.0098 8.91881 12.1783 9.09214 12.3262 9.26953C13.0888 10.1847 13.25 11.1186 13.25 11.75C13.25 12.444 12.9252 13.4982 12.1152 14.3818C11.2776 15.2956 9.94784 16 8 16C6.05216 16 4.72245 15.2956 3.88477 14.3818C3.07481 13.4982 2.75 12.444 2.75 11.75C2.75 11.3358 3.08579 11 3.5 11C3.91421 11 4.25 11.3358 4.25 11.75C4.25 12.056 4.42526 12.7518 4.99023 13.3682C5.52756 13.9543 6.4479 14.5 8 14.5C9.5521 14.5 10.4724 13.9543 11.0098 13.3682C11.5747 12.7518 11.75 12.056 11.75 11.75C11.75 11.3814 11.6611 10.8152 11.1738 10.2305C10.7679 9.74338 10.0435 9.19386 8.74512 8.75H2.5C2.08579 8.75 1.75 8.41421 1.75 8C1.75 7.58579 2.08579 7.25 2.5 7.25H4.88477C4.67877 7.1071 4.49525 6.96008 4.33301 6.80859C3.61403 6.13724 3.33948 5.42751 3.25781 4.85645C3.12281 3.9114 3.37227 2.70652 4.12598 1.72949C4.90329 0.72188 6.18184 0 8 0Z" fill="white"/>
</svg>
