<svg width="16" height="16" viewBox="0 0 16 16" fill="none" xmlns="http://www.w3.org/2000/svg">
<path d="M12.0487 9.70215C12.7599 8.63827 14.3657 8.67313 15.0175 9.80762C15.1179 9.98249 15.1793 10.2214 15.2255 10.4082C15.2803 10.6302 15.3461 10.9319 15.4296 11.3135L15.9823 13.8398L15.995 13.915C16.0386 14.2929 15.7896 14.6494 15.4101 14.7324C15.0307 14.8154 14.6553 14.5957 14.537 14.2344L14.5175 14.1602L14.2714 13.0361H12.7284L12.4823 14.1602C12.3938 14.5648 11.9944 14.8209 11.5897 14.7324C11.1851 14.6439 10.929 14.2445 11.0175 13.8398L11.5702 11.3135C11.6537 10.9319 11.7195 10.6302 11.7743 10.4082C11.8205 10.2214 11.8819 9.98249 11.9823 9.80762L12.0487 9.70215ZM13.706 10.541C13.6075 10.3935 13.391 10.3932 13.2929 10.541C13.2912 10.5458 13.2892 10.5516 13.287 10.5586C13.273 10.6027 13.2546 10.6694 13.2304 10.7676C13.1857 10.9482 13.1319 11.1964 13.0575 11.5361H13.9423C13.8679 11.1964 13.8141 10.9482 13.7694 10.7676C13.7452 10.6694 13.7268 10.6027 13.7128 10.5586C13.7105 10.5515 13.7076 10.5459 13.706 10.541Z" fill="white"/>
<path d="M4.1252 3.57671C4.59418 3.39741 5.12202 3.42767 5.57149 3.66656C5.98115 3.88444 6.21064 4.30473 6.37032 4.64898C6.54536 5.02636 6.73247 5.54112 6.95919 6.1646L9.45528 13.0298L9.47774 13.1031C9.5707 13.4715 9.37091 13.8581 9.00606 13.9908C8.61691 14.132 8.18662 13.9307 8.04513 13.5416L6.96212 10.5621H2.53829L1.45528 13.5416C1.31379 13.9307 0.883497 14.132 0.494345 13.9908C0.105227 13.8493 -0.0960953 13.419 0.0451266 13.0298L2.54122 6.1646C2.76794 5.54112 2.95505 5.02636 3.13009 4.64898C3.28977 4.30473 3.51925 3.88444 3.92892 3.66656L4.1252 3.57671ZM4.84395 4.98199C4.78318 4.95719 4.71618 4.95696 4.65548 4.98199C4.63671 5.00697 4.58027 5.0862 4.49044 5.27984C4.34903 5.5847 4.18805 6.02644 3.95138 6.6773L3.08419 9.06206H6.41622L5.54903 6.6773C5.31236 6.02644 5.15138 5.5847 5.00997 5.27984C4.91957 5.08497 4.86236 5.00645 4.84395 4.98199Z" fill="white"/>
</svg>
