<svg width="16" height="16" viewBox="0 0 16 16" fill="none" xmlns="http://www.w3.org/2000/svg">
<g clip-path="url(#clip0_274_1597)">
<rect x="4.75" y="4.75" width="6.5" height="6.5" rx="3.25" stroke="white" stroke-width="1.5"/>
<path d="M8.75 2.5C8.75 2.91421 8.41421 3.25 8 3.25C7.58579 3.25 7.25 2.91421 7.25 2.5L7.25 1.5C7.25 1.08579 7.58579 0.75 8 0.75C8.41421 0.75 8.75 1.08579 8.75 1.5L8.75 2.5Z" fill="white"/>
<path d="M8.75 14.5C8.75 14.9142 8.41421 15.25 8 15.25C7.58579 15.25 7.25 14.9142 7.25 14.5L7.25 13.5C7.25 13.0858 7.58579 12.75 8 12.75C8.41421 12.75 8.75 13.0858 8.75 13.5L8.75 14.5Z" fill="white"/>
<path d="M12.4193 4.64125C12.1264 4.93414 11.6515 4.93414 11.3586 4.64125C11.0657 4.34835 11.0657 3.87348 11.3586 3.58059L12.0657 2.87348C12.3586 2.58059 12.8335 2.58059 13.1264 2.87348C13.4193 3.16637 13.4193 3.64125 13.1264 3.93414L12.4193 4.64125Z" fill="white"/>
<path d="M3.93395 13.1265C3.64106 13.4194 3.16618 13.4194 2.87329 13.1265C2.5804 12.8336 2.5804 12.3588 2.87329 12.0659L3.5804 11.3588C3.87329 11.0659 4.34816 11.0659 4.64106 11.3588C4.93395 11.6517 4.93395 12.1265 4.64106 12.4194L3.93395 13.1265Z" fill="white"/>
<path d="M13.5 8.75C13.0858 8.75 12.75 8.41421 12.75 8C12.75 7.58579 13.0858 7.25 13.5 7.25L14.5 7.25C14.9142 7.25 15.25 7.58579 15.25 8C15.25 8.41421 14.9142 8.75 14.5 8.75L13.5 8.75Z" fill="white"/>
<path d="M1.5 8.75C1.08579 8.75 0.75 8.41421 0.75 8C0.75 7.58579 1.08579 7.25 1.5 7.25L2.5 7.25C2.91421 7.25 3.25 7.58579 3.25 8C3.25 8.41421 2.91421 8.75 2.5 8.75L1.5 8.75Z" fill="white"/>
<path d="M11.3588 12.4194C11.0659 12.1265 11.0659 11.6517 11.3588 11.3588C11.6516 11.0659 12.1265 11.0659 12.4194 11.3588L13.1265 12.0659C13.4194 12.3588 13.4194 12.8336 13.1265 13.1265C12.8336 13.4194 12.3588 13.4194 12.0659 13.1265L11.3588 12.4194Z" fill="white"/>
<path d="M2.8734 3.93416C2.58051 3.64127 2.58051 3.1664 2.8734 2.8735C3.1663 2.58061 3.64117 2.58061 3.93406 2.8735L4.64117 3.58061C4.93406 3.8735 4.93406 4.34838 4.64117 4.64127C4.34828 4.93416 3.8734 4.93416 3.58051 4.64127L2.8734 3.93416Z" fill="white"/>
</g>
<defs>
<clipPath id="clip0_274_1597">
<rect width="16" height="16" fill="white"/>
</clipPath>
</defs>
</svg>
