<svg width="16" height="16" viewBox="0 0 16 16" fill="none" xmlns="http://www.w3.org/2000/svg">
<path d="M8.75 3.875C8.75 4.28921 8.41421 4.625 8 4.625C7.58579 4.625 7.25 4.28921 7.25 3.875L7.25 2.875C7.25 2.46079 7.58579 2.125 8 2.125C8.41421 2.125 8.75 2.46079 8.75 2.875L8.75 3.875Z" fill="white"/>
<path d="M12.9496 6.23591C12.6567 6.5288 12.1818 6.5288 11.8889 6.23591C11.596 5.94302 11.596 5.46814 11.8889 5.17525L12.596 4.46814C12.8889 4.17525 13.3638 4.17525 13.6567 4.46814C13.9496 4.76104 13.9496 5.23591 13.6567 5.5288L12.9496 6.23591Z" fill="white"/>
<path d="M14.25 10.875C13.8358 10.875 13.5 10.5392 13.5 10.125C13.5 9.71079 13.8358 9.375 14.25 9.375L15.25 9.375C15.6642 9.375 16 9.71079 16 10.125C16 10.5392 15.6642 10.875 15.25 10.875L14.25 10.875Z" fill="white"/>
<path d="M0.75 10.875C0.335786 10.875 2.93554e-08 10.5392 6.55671e-08 10.125C1.01779e-07 9.71079 0.335787 9.375 0.75 9.375L1.75 9.375C2.16421 9.375 2.5 9.71079 2.5 10.125C2.5 10.5392 2.16421 10.875 1.75 10.875L0.75 10.875Z" fill="white"/>
<path d="M2.34313 5.5288C2.05024 5.23591 2.05024 4.76103 2.34313 4.46814C2.63602 4.17524 3.1109 4.17525 3.40379 4.46814L4.1109 5.17525C4.40379 5.46814 4.40379 5.94301 4.1109 6.23591C3.818 6.5288 3.34313 6.5288 3.05024 6.23591L2.34313 5.5288Z" fill="white"/>
<path d="M11 10.125C11 8.46815 9.65685 7.12501 8 7.125C6.34315 7.125 5 8.46815 5 10.125C5 11.0211 5.39306 11.8244 6.01758 12.375H9.98242C10.6069 11.8244 11 11.0211 11 10.125ZM12.5 10.125C12.5 10.9448 12.2803 11.7132 11.8975 12.375H14.5C14.9142 12.375 15.25 12.7108 15.25 13.125C15.25 13.5392 14.9142 13.875 14.5 13.875H1.5C1.08579 13.875 0.75 13.5392 0.75 13.125C0.75 12.7108 1.08579 12.375 1.5 12.375H4.10254C3.71971 11.7132 3.5 10.9448 3.5 10.125C3.5 7.63972 5.51472 5.625 8 5.625C10.4853 5.62501 12.5 7.63972 12.5 10.125Z" fill="white"/>
</svg>
