<svg width="16" height="16" viewBox="0 0 16 16" fill="none" xmlns="http://www.w3.org/2000/svg">
<path d="M12.0487 1.70215C12.7599 0.638273 14.3657 0.673127 15.0175 1.80762C15.1179 1.98249 15.1793 2.22143 15.2255 2.40821C15.2803 2.63019 15.3461 2.93188 15.4296 3.31348L15.9823 5.83985L15.995 5.91504C16.0386 6.29287 15.7896 6.64941 15.4101 6.73243C15.0307 6.81538 14.6553 6.59567 14.537 6.23438L14.5175 6.16016L14.2714 5.03614H12.7284L12.4823 6.16016C12.3938 6.56479 11.9944 6.8209 11.5897 6.73243C11.1851 6.64391 10.929 6.24447 11.0175 5.83985L11.5702 3.31348C11.6537 2.93188 11.7195 2.63019 11.7743 2.40821C11.8205 2.22143 11.8819 1.98249 11.9823 1.80762L12.0487 1.70215ZM13.706 2.54102C13.6075 2.39351 13.391 2.39321 13.2929 2.54102C13.2912 2.54581 13.2892 2.55162 13.287 2.5586C13.273 2.60269 13.2546 2.66943 13.2304 2.76758C13.1857 2.94823 13.1319 3.19643 13.0575 3.53614H13.9423C13.8679 3.19643 13.8141 2.94823 13.7694 2.76758C13.7452 2.66943 13.7268 2.60269 13.7128 2.5586C13.7105 2.55148 13.7076 2.54586 13.706 2.54102Z" fill="white"/>
<path d="M4.1252 3.57671C4.59418 3.39741 5.12202 3.42767 5.57149 3.66656C5.98115 3.88444 6.21064 4.30473 6.37032 4.64898C6.54536 5.02636 6.73247 5.54112 6.95919 6.1646L9.45528 13.0298L9.47774 13.1031C9.5707 13.4715 9.37091 13.8581 9.00606 13.9908C8.61691 14.132 8.18662 13.9307 8.04513 13.5416L6.96212 10.5621H2.53829L1.45528 13.5416C1.31379 13.9307 0.883497 14.132 0.494345 13.9908C0.105227 13.8493 -0.0960953 13.419 0.0451266 13.0298L2.54122 6.1646C2.76794 5.54112 2.95505 5.02636 3.13009 4.64898C3.28977 4.30473 3.51925 3.88444 3.92892 3.66656L4.1252 3.57671ZM4.84395 4.98199C4.78318 4.95719 4.71618 4.95696 4.65548 4.98199C4.63671 5.00697 4.58027 5.0862 4.49044 5.27984C4.34903 5.5847 4.18805 6.02644 3.95138 6.6773L3.08419 9.06206H6.41622L5.54903 6.6773C5.31236 6.02644 5.15138 5.5847 5.00997 5.27984C4.91957 5.08497 4.86236 5.00645 4.84395 4.98199Z" fill="white"/>
</svg>
