<svg width="16" height="16" viewBox="0 0 16 16" fill="none" xmlns="http://www.w3.org/2000/svg">
<g clip-path="url(#clip0_274_1636)">
<path d="M9.87693 4.65618C10.1342 4.01646 10.2325 3.76849 10.2964 3.5194C10.3561 3.2867 10.3945 3.04981 10.4119 2.81303C10.4261 2.61888 10.4191 2.42212 10.3967 2.04011C10.1161 2.30029 9.97483 2.43739 9.8507 2.58736C9.69932 2.77025 9.56301 2.96775 9.44495 3.17696C9.31859 3.40094 9.21785 3.64794 8.96058 4.28765L6.33327 10.8206L7.24961 11.1891L9.87693 4.65618ZM8.4952 11.69L8.95418 11.8746L9.02448 11.9083C9.09214 11.9467 9.15219 11.9987 9.202 12.0619L9.53425 12.4843C9.69653 12.6903 9.73059 12.9917 9.62167 13.2625C9.5127 13.5332 9.2794 13.7273 9.0198 13.7635L8.48798 13.8373C8.38163 13.8522 8.27611 13.8397 8.1795 13.8009L6.85607 13.2687L6.04507 15.2852C5.96878 15.4747 5.82993 15.6303 5.6593 15.7174L5.34319 15.878C4.98768 16.0594 4.59344 15.9008 4.46252 15.5238L4.3456 15.1891C4.28277 15.0081 4.29031 14.7997 4.36646 14.6102L5.17745 12.5936L3.85402 12.0613C3.75745 12.0224 3.67265 11.9584 3.6062 11.8741L3.27358 11.4526C3.11136 11.2467 3.07739 10.9451 3.18616 10.6744C3.29508 10.4036 3.52833 10.2096 3.78803 10.1734L4.32022 10.0986L4.39983 10.0928C4.47885 10.0919 4.55632 10.106 4.6287 10.1351L5.08768 10.3197L7.715 3.78673C7.95568 3.18826 8.10399 2.81499 8.30045 2.46684C8.46907 2.16809 8.66243 1.88543 8.8786 1.62425C9.13049 1.31994 9.41894 1.0579 9.88066 0.634148L10.0534 0.476466C10.1298 0.40633 10.2251 0.318223 10.3115 0.251488C10.3931 0.188567 10.5689 0.0600545 10.8021 0.0366789L10.9006 0.0330293C11.096 0.0367266 11.2792 0.110423 11.4228 0.243054L11.4914 0.313886L11.543 0.382245C11.6526 0.54407 11.6832 0.719378 11.6966 0.808511C11.7128 0.916524 11.7205 1.04607 11.7271 1.14959L11.7425 1.38293C11.7823 2.00837 11.809 2.39716 11.7801 2.79113C11.7553 3.12925 11.6991 3.46708 11.6139 3.79939C11.5146 4.18663 11.3632 4.55865 11.1225 5.15711L8.4952 11.69Z" fill="white"/>
</g>
<defs>
<clipPath id="clip0_274_1636">
<rect width="16" height="16" fill="white"/>
</clipPath>
</defs>
</svg>
