<svg width="16" height="16" viewBox="0 0 16 16" fill="none" xmlns="http://www.w3.org/2000/svg">
<path d="M9 4.52148C9 3.85054 8.99756 3.59085 8.95996 3.34277C8.92481 3.11108 8.86676 2.88311 8.78613 2.66308C8.72657 2.50057 8.6479 2.34231 8.5 2.0664C8.3521 2.34231 8.27343 2.50057 8.21387 2.66308C8.13324 2.88311 8.07519 3.11108 8.04004 3.34277C8.00244 3.59085 8 3.85054 8 4.52148V11H9V4.52148ZM10.5 11H11C11.1163 11 11.2309 11.0272 11.335 11.0791L11.835 11.3291C12.089 11.4561 12.25 11.7159 12.25 12C12.25 12.2841 12.089 12.5438 11.835 12.6709L11.335 12.9209C11.2309 12.9728 11.1163 13 11 13H9.5V15C9.5 15.1989 9.42093 15.3896 9.28027 15.5303L9.03027 15.7803C8.73738 16.0732 8.26262 16.0732 7.96973 15.7803L7.71973 15.5303C7.57908 15.3896 7.5 15.1989 7.5 15V13H6C5.88371 13 5.76908 12.9728 5.66504 12.9209L5.16504 12.6709C4.91095 12.5438 4.75 12.2841 4.75 12C4.75 11.7159 4.91095 11.4561 5.16504 11.3291L5.66504 11.0791L5.74414 11.0449C5.82595 11.0152 5.91253 11 6 11H6.5V4.52148C6.5 3.89374 6.49813 3.50286 6.55664 3.11718C6.60688 2.78614 6.69043 2.46086 6.80566 2.14648C6.9399 1.7803 7.12875 1.43883 7.43066 0.888667L7.49219 0.778316C7.54217 0.687242 7.60421 0.57309 7.66602 0.481441C7.72429 0.395028 7.85298 0.215152 8.08496 0.10937L8.18555 0.0703078C8.38966 0.00268663 8.61034 0.00268758 8.81445 0.0703078L8.91504 0.10937L8.99707 0.152339C9.1781 0.258667 9.28298 0.405813 9.33398 0.481441C9.39579 0.573089 9.45783 0.687241 9.50781 0.778316L9.56934 0.888667C9.87125 1.43884 10.0601 1.7803 10.1943 2.14648C10.3096 2.46086 10.3931 2.78614 10.4434 3.11718C10.5019 3.50286 10.5 3.89374 10.5 4.52148V11Z" fill="white"/>
</svg>
