<svg width="16" height="16" viewBox="0 0 16 16" fill="none" xmlns="http://www.w3.org/2000/svg">
<g clip-path="url(#clip0_274_1882)">
<path d="M11.6669 0.219736C11.9598 -0.0731403 12.4346 -0.073106 12.7275 0.219736L15.7802 3.27247L15.832 3.32911C16.0722 3.62369 16.0548 4.05843 15.7802 4.33302C15.5056 4.60756 15.0709 4.62503 14.7763 4.38477L14.7197 4.33302L13.7236 3.33692L12.4951 4.56544L15.0175 7.0879L15.0683 7.14552C15.3084 7.43997 15.2917 7.87388 15.0175 8.14845C14.7246 8.44134 14.2489 8.44134 13.956 8.14845L12.9599 7.15235L8.32319 11.79C8.00259 12.1106 7.75886 12.3612 7.46381 12.542C7.21782 12.6927 6.94942 12.8037 6.66889 12.8711C6.33232 12.9519 5.98272 12.9473 5.52924 12.9473H4.11322L1.28022 15.7803C0.987324 16.0732 0.512563 16.0732 0.21967 15.7803C-0.0732233 15.4874 -0.0732233 15.0126 0.21967 14.7197L3.05268 11.8867V10.4707C3.05268 10.0172 3.04805 9.66763 3.12885 9.33106C3.19622 9.05053 3.30721 8.78213 3.45795 8.53614C3.6388 8.2411 3.88931 7.99736 4.2099 7.67677L8.84662 3.03907L7.85151 2.04395L7.79975 1.98634C7.55957 1.69176 7.57695 1.25699 7.85151 0.982431C8.12607 0.708228 8.55999 0.6916 8.85444 0.93165L8.91205 0.982431L11.4345 3.50489L12.663 2.27638L11.6669 1.28028C11.3741 0.987402 11.3741 0.512616 11.6669 0.219736ZM4.55268 11.4473H5.52924C6.05366 11.4473 6.1946 11.4427 6.3183 11.4131C6.44585 11.3825 6.56779 11.3312 6.67963 11.2627C6.78816 11.1962 6.89061 11.1006 7.26166 10.7295L11.8994 6.09083L9.90815 4.09962L5.27045 8.73829C4.8994 9.10935 4.80376 9.2118 4.73725 9.32032C4.66871 9.43216 4.61748 9.5541 4.58686 9.68165C4.55721 9.80535 4.55268 9.94629 4.55268 10.4707V11.4473Z" fill="white"/>
</g>
<defs>
<clipPath id="clip0_274_1882">
<rect width="16" height="16" fill="white"/>
</clipPath>
</defs>
</svg>
