<svg width="16" height="16" viewBox="0 0 16 16" fill="none" xmlns="http://www.w3.org/2000/svg">
<g clip-path="url(#clip0_274_1987)">
<path d="M3 4C3 3.44772 3.44772 3 4 3V3C4.55228 3 5 3.44772 5 4V4C5 4.55228 4.55228 5 4 5V5C3.44772 5 3 4.55228 3 4V4Z" fill="white"/>
<path d="M11.3336 12.546L12.5455 11.3341C13.157 10.7225 13.5511 10.3265 13.8271 10.0014C14.0917 9.68964 14.1584 9.5426 14.1841 9.46343C14.2819 9.1622 14.282 8.83795 14.1841 8.53674C14.1584 8.45757 14.0917 8.3105 13.8271 7.99881C13.5511 7.67375 13.1564 7.27823 12.5448 6.66677L8.34563 2.46763C7.77633 1.89845 7.65731 1.79371 7.54116 1.72255C7.40701 1.64038 7.26047 1.57973 7.1075 1.54301C6.97512 1.51128 6.81661 1.50157 6.01232 1.50158L4.84393 1.50158C3.98975 1.50158 3.43849 1.5027 3.01885 1.53679C2.61696 1.56945 2.46732 1.62511 2.39323 1.66247C2.11297 1.80382 1.88382 2.02915 1.7386 2.30743C1.70021 2.381 1.64286 2.53022 1.60464 2.93167C1.56474 3.35078 1.55572 3.90206 1.54387 4.75606L1.52661 5.99419C1.51523 6.81434 1.52322 6.9764 1.55423 7.11147C1.59013 7.26763 1.65129 7.41715 1.73446 7.55411C1.80642 7.67259 1.91315 7.79377 2.49335 8.37377L1.43338 9.43512L1.08259 9.08295C0.827545 8.82324 0.657067 8.63669 0.526023 8.44766L0.451445 8.33303C0.326662 8.12752 0.227426 7.90781 0.155206 7.67909L0.0923676 7.44776C0.0316405 7.18356 0.0198908 6.90715 0.021933 6.46997L0.0267667 5.97347L0.0440301 4.73535C0.0656173 3.17971 0.0771071 2.35284 0.350627 1.73429L0.409323 1.61344C0.663506 1.12647 1.04566 0.720135 1.5128 0.436773L1.71788 0.322835C2.19582 0.0818535 2.78197 0.0216242 3.74529 0.0065702L4.84393 0.00173637L6.01231 0.00173646C6.6544 0.00173475 7.01553 0.00143105 7.32709 0.0569792L7.45829 0.0846007C7.76413 0.158048 8.0567 0.278701 8.32491 0.442988C8.5519 0.582063 8.75442 0.763431 9.06033 1.06378L9.40629 1.40697L13.6054 5.60611C14.7935 6.79397 15.388 7.38781 15.6107 8.0727C15.8066 8.67525 15.8065 9.32489 15.6107 9.92747C15.3881 10.6124 14.7941 11.2068 13.6061 12.3947L12.3942 13.6066L11.6043 14.3897C10.904 15.0683 10.4412 15.4436 9.92764 15.6106C9.32519 15.8063 8.67604 15.8069 8.07356 15.6113L7.94581 15.565C7.31197 15.3121 6.72046 14.7204 5.60697 13.6073L1.43338 9.43512L2.49335 8.37377L6.66694 12.546C7.27848 13.1573 7.6746 13.5517 7.99967 13.8276C8.31086 14.0917 8.45772 14.1582 8.53691 14.1839C8.83815 14.2818 9.16307 14.2825 9.46429 14.1846C9.54351 14.1588 9.69022 14.0912 10.0015 13.8269C10.3265 13.551 10.7223 13.1573 11.3336 12.546Z" fill="white"/>
</g>
<defs>
<clipPath id="clip0_274_1987">
<rect width="16" height="16" fill="white"/>
</clipPath>
</defs>
</svg>
