<svg width="16" height="16" viewBox="0 0 16 16" fill="none" xmlns="http://www.w3.org/2000/svg">
<g clip-path="url(#clip0_274_2462)">
<path d="M3.31641 9.77728V8.49408H3.0498C2.63559 8.49408 2.2998 8.15829 2.2998 7.74408C2.2998 7.32987 2.63559 6.99408 3.0498 6.99408H5.08301C5.49722 6.99408 5.83301 7.32987 5.83301 7.74408C5.83301 8.15829 5.49722 8.49408 5.08301 8.49408H4.81641V9.77728C4.81641 10.1915 4.48062 10.5273 4.06641 10.5273C3.65222 10.5272 3.31641 10.1915 3.31641 9.77728Z" fill="white"/>
<path d="M10.3042 2.75C10.3042 3.85457 9.40877 4.75 8.3042 4.75C7.19963 4.75 6.3042 3.85457 6.3042 2.75C6.3042 1.64543 7.19963 0.75 8.3042 0.75C9.40877 0.75 10.3042 1.64543 10.3042 2.75Z" fill="white"/>
<path d="M13.3579 4.75C12.5295 4.75 11.8579 4.07843 11.8579 3.25C11.8579 2.42157 12.5295 1.75 13.3579 1.75C14.1863 1.75 14.8579 2.42157 14.8579 3.25C14.8579 4.07843 14.1863 4.75 13.3579 4.75Z" fill="white"/>
<path d="M6.33789 4.70508C7.10851 4.78339 7.74905 5.29911 8.00879 6H15.2139C15.6281 6 15.9639 6.33579 15.9639 6.75V9.99805C15.9639 12.2061 14.1739 13.9961 11.9658 13.9961H11.502L11.5 13.9951C10.6869 14.8522 9.53912 15.3886 8.26465 15.3887C6.4802 15.3887 4.94174 14.3411 4.22754 12.8281H2L1.7959 12.8174C0.854556 12.722 0.106498 11.9735 0.0107422 11.0322L0 10.8281V6.69434C4.57675e-09 5.58977 0.895431 4.69434 2 4.69434H6.13379L6.33789 4.70508ZM8.13379 10.8281L8.12305 11.0322C8.02733 11.9733 7.27904 12.7218 6.33789 12.8174L6.13379 12.8281H5.99512C6.53864 13.476 7.35346 13.8887 8.26465 13.8887C9.90044 13.8885 11.2266 12.5616 11.2266 10.9258V7.5H8.13379V10.8281ZM12.7266 10.9258C12.7266 11.4598 12.632 11.9716 12.46 12.4463C13.6028 12.2169 14.4639 11.2085 14.4639 9.99805V7.5H12.7266V10.9258ZM2 6.19434C1.72386 6.19434 1.5 6.41819 1.5 6.69434V10.8281C1.50038 11.1039 1.72409 11.3281 2 11.3281H6.13379C6.40949 11.3279 6.63341 11.1038 6.63379 10.8281V6.69434C6.63379 6.41835 6.40972 6.19458 6.13379 6.19434H2Z" fill="white"/>
</g>
<defs>
<clipPath id="clip0_274_2462">
<rect width="16" height="16" fill="white"/>
</clipPath>
</defs>
</svg>
