<svg width="16" height="16" viewBox="0 0 16 16" fill="none" xmlns="http://www.w3.org/2000/svg">
<path d="M14.7388 1.28049C15.0105 1.30405 15.3871 1.40374 15.6705 1.73556C15.9531 2.0666 16.0264 2.49307 15.9908 2.92111L15.9917 2.92209C15.9517 3.47892 15.6455 5.34933 15.355 7.26779L15.354 7.27365C15.1317 8.65919 14.9002 10.1102 14.7242 11.2141C14.6362 11.7659 14.5624 12.2315 14.5103 12.5588C14.4843 12.7223 14.4628 12.8515 14.4488 12.9397C14.4418 12.9836 14.4368 13.0174 14.4331 13.0403C14.4325 13.0445 14.4318 13.0485 14.4312 13.052C14.4298 13.0641 14.4278 13.0792 14.4253 13.0969C14.4202 13.1342 14.4119 13.1838 14.3999 13.2424C14.3764 13.3576 14.3351 13.5186 14.2622 13.6916C14.1244 14.0189 13.8087 14.5311 13.1539 14.6848C12.84 14.7584 12.5298 14.7224 12.2837 14.6653C12.0296 14.6062 11.785 14.5105 11.5757 14.4143C11.1819 14.2331 10.8357 14.0098 10.6802 13.8899L10.5542 13.8078C10.4672 13.7508 10.3499 13.674 10.2076 13.5813C9.92445 13.3968 9.54871 13.1518 9.14702 12.884C8.35686 12.3573 7.42183 11.7151 6.9019 11.2766L6.89799 11.2737C6.7111 11.114 6.41674 10.8005 6.3433 10.341C6.26701 9.863 6.45627 9.4236 6.81401 9.06467L5.47612 9.77658L5.47514 9.7756C5.46435 9.78158 5.45251 9.78917 5.43901 9.79611C5.40136 9.81546 5.35306 9.8379 5.29448 9.86154C5.1769 9.90899 5.01776 9.96016 4.81889 9.99533C4.4171 10.0664 3.87231 10.0693 3.20366 9.86935C2.63845 9.7003 2.02905 9.5041 1.56303 9.3508C1.32947 9.27397 1.13009 9.20757 0.989789 9.16037C0.919761 9.13681 0.863883 9.11765 0.825727 9.10471C0.807133 9.0984 0.792706 9.09344 0.782758 9.09006L0.768109 9.08517L0.767133 9.0842C0.71316 9.06575 0.661246 9.04112 0.612836 9.01096L0.597211 9.00119C0.591138 8.99723 0.583591 8.9929 0.575727 8.98752C0.559996 8.97675 0.541057 8.9623 0.519086 8.94553C0.475744 8.91242 0.417796 8.86437 0.356976 8.80197C0.247625 8.68975 0.0633462 8.46481 0.0132265 8.13693C-0.0444081 7.75969 0.0974261 7.40909 0.359906 7.13693C0.596069 6.89207 0.935739 6.69964 1.35502 6.53537L1.356 6.53439C1.35672 6.5341 1.35872 6.5339 1.35991 6.53342C1.36296 6.53217 1.36758 6.53001 1.37358 6.52756C1.38577 6.52257 1.40452 6.51481 1.42827 6.5051C1.47576 6.48566 1.54573 6.45679 1.6353 6.42014C1.81496 6.3466 2.07433 6.2407 2.39213 6.11056C3.02802 5.85018 3.899 5.49326 4.8394 5.10764C6.72107 4.33602 8.87861 3.44965 9.98881 2.98849C10.4272 2.79876 11.3617 2.41163 12.1822 2.07346C12.5974 1.90233 12.9864 1.74294 13.271 1.62619C13.4134 1.56781 13.53 1.51965 13.6109 1.48654C13.651 1.47012 13.6823 1.4572 13.7037 1.44846C13.7142 1.44416 13.7226 1.44095 13.7281 1.43869C13.7308 1.43756 13.7335 1.43633 13.7349 1.43576L13.7359 1.43478L13.7496 1.4299L14.021 2.12912C13.7714 1.48513 13.7509 1.43403 13.7496 1.4299L13.7505 1.42892H13.7525L13.7554 1.42795C13.7574 1.42718 13.7596 1.42599 13.7622 1.42502C13.7679 1.42291 13.7755 1.42016 13.7837 1.41721C13.8002 1.41134 13.8222 1.40409 13.8482 1.39572C13.9001 1.37901 13.9714 1.35795 14.0562 1.3381C14.2175 1.30037 14.4679 1.257 14.7388 1.28049ZM14.398 2.79806C14.36 2.80696 14.3286 2.81685 14.3081 2.82346C14.2981 2.8267 14.2906 2.82922 14.2876 2.83029C14.2833 2.83208 14.278 2.83467 14.272 2.83713C14.2507 2.84585 14.2194 2.85877 14.1792 2.87521C14.0986 2.90822 13.9824 2.95564 13.8404 3.01389C13.5563 3.1304 13.1686 3.28949 12.7544 3.46017C11.9228 3.80293 10.9934 4.18787 10.5747 4.36935L10.564 4.37424C9.45 4.83698 7.28935 5.72415 5.40873 6.49533C4.46794 6.88112 3.59655 7.23878 2.96049 7.49924C2.64261 7.6294 2.38338 7.73525 2.20366 7.80881C2.11379 7.84559 2.04318 7.87432 1.99565 7.89377C1.98521 7.89804 1.97556 7.90114 1.96733 7.90451C1.98835 7.91144 2.01012 7.91887 2.03178 7.92599C2.4922 8.07745 3.08702 8.26844 3.63334 8.43185C4.07673 8.56447 4.38541 8.54932 4.55815 8.51877C4.64612 8.50318 4.70453 8.48237 4.73295 8.47092C4.74636 8.46551 4.75346 8.46213 4.75346 8.46213C4.75302 8.46236 4.75072 8.46371 4.74662 8.46603C4.74446 8.46726 4.74098 8.46904 4.73784 8.47092C4.73637 8.47179 4.73463 8.47283 4.73295 8.47385C4.7321 8.47437 4.73094 8.47524 4.73002 8.4758L4.72905 8.47678C4.74341 8.46785 4.75708 8.45932 4.77202 8.45139L10.9624 5.16232C11.2905 4.98803 11.6967 5.0804 11.9175 5.37912C12.1382 5.67793 12.1072 6.09333 11.8443 6.35568C10.8712 7.32583 9.26884 8.8494 7.92827 10.0744C7.92417 10.0782 7.91974 10.0815 7.91557 10.0852C7.89665 10.1017 7.88231 10.1182 7.86967 10.1311C7.87046 10.1318 7.87181 10.1323 7.8726 10.133C8.31761 10.5077 9.17771 11.1018 9.97905 11.636C10.3741 11.8993 10.7448 12.1406 11.0269 12.3244L11.5787 12.6897L11.5972 12.7033C11.5982 12.7041 11.6031 12.708 11.6128 12.7151C11.6238 12.7229 11.6385 12.7339 11.6568 12.7463C11.6933 12.771 11.741 12.8019 11.7974 12.8362C11.9113 12.9053 12.0529 12.9831 12.2027 13.052C12.3547 13.1219 12.4992 13.1746 12.6226 13.2033C12.6832 13.2174 12.7312 13.2241 12.7662 13.2258C12.7899 13.227 12.8037 13.2255 12.8091 13.2248C12.8104 13.2237 12.8126 13.2225 12.815 13.2199C12.8302 13.204 12.8553 13.1693 12.8804 13.1096C12.9048 13.0517 12.9212 12.9903 12.9312 12.9416C12.9359 12.9185 12.9387 12.9004 12.94 12.8908V12.8889C12.9415 12.8723 12.9432 12.8555 12.9458 12.8391L12.9468 12.8371C12.9471 12.8357 12.9473 12.8331 12.9478 12.8303C12.9487 12.8245 12.9499 12.816 12.9517 12.8049C12.9553 12.782 12.9613 12.7475 12.9683 12.7033C12.9824 12.6151 13.0028 12.4859 13.0289 12.3225C13.081 11.9951 13.1547 11.5297 13.2427 10.9778C13.4188 9.87359 13.6511 8.42256 13.8736 7.03635C14.1758 5.04055 14.4613 3.29247 14.4956 2.81467L14.4966 2.80197C14.4973 2.79453 14.4962 2.7873 14.4966 2.78049C14.4662 2.78458 14.4326 2.78996 14.398 2.79806Z" fill="white"/>
</svg>
