<svg width="16" height="16" viewBox="0 0 16 16" fill="none" xmlns="http://www.w3.org/2000/svg">
<path d="M0.918247 2.52618C1.16333 2.22508 1.59388 2.16409 1.91141 2.37286L1.97391 2.41778L5.06766 4.93634C5.57911 5.35264 6.00092 5.69523 6.31473 5.99982C6.63312 6.30888 6.90177 6.63595 7.05301 7.04376C7.28169 7.66057 7.28169 8.33906 7.05301 8.95587C6.90177 9.36369 6.63312 9.69075 6.31473 9.99982C6.00092 10.3044 5.57911 10.647 5.06766 11.0633L1.97391 13.5818C1.65266 13.8433 1.17971 13.7947 0.918247 13.4734C0.656828 13.1522 0.70542 12.6792 1.02664 12.4178L4.12039 9.90021C4.65278 9.46687 5.01412 9.17178 5.26981 8.92364C5.52086 8.67994 5.60834 8.53797 5.64676 8.43439C5.75071 8.15402 5.75071 7.84561 5.64676 7.56525C5.60834 7.46167 5.52086 7.31969 5.26981 7.07599C5.01412 6.82785 4.65278 6.53276 4.12039 6.09943L1.02664 3.58185L0.970004 3.53009C0.700855 3.26159 0.673134 2.82739 0.918247 2.52618Z" fill="white"/>
<path d="M14.5 12.2501C14.9142 12.2501 15.25 12.5859 15.25 13.0001C15.25 13.4143 14.9142 13.7501 14.5 13.7501L8.5 13.7501C8.08579 13.7501 7.75 13.4143 7.75 13.0001C7.75 12.5859 8.08579 12.2501 8.5 12.2501L14.5 12.2501Z" fill="white"/>
</svg>
