<svg width="16" height="16" viewBox="0 0 16 16" fill="none" xmlns="http://www.w3.org/2000/svg">
<path d="M14.7915 1.75C14.7915 2.16421 14.4557 2.5 14.0415 2.5C13.6274 2.49982 13.2915 2.16411 13.2915 1.75V1.5H8.75049V14.5H10.0005L10.0767 14.5039C10.455 14.5422 10.7505 14.8616 10.7505 15.25C10.7505 15.6384 10.455 15.9578 10.0767 15.9961L10.0005 16H6.00049C5.58627 16 5.25049 15.6642 5.25049 15.25C5.25049 14.8358 5.58627 14.5 6.00049 14.5H7.25049V1.5H2.7085V1.75C2.7085 2.16421 2.37271 2.5 1.9585 2.5C1.54428 2.5 1.2085 2.16421 1.2085 1.75V1.25C1.2085 0.559645 1.76814 0 2.4585 0H13.5415C14.2319 0 14.7915 0.559645 14.7915 1.25V1.75Z" fill="white"/>
</svg>
