<svg width="16" height="16" viewBox="0 0 16 16" fill="none" xmlns="http://www.w3.org/2000/svg">
<g clip-path="url(#clip0_274_1227)">
<path d="M15.25 0.75C15.6642 0.75 16 1.08579 16 1.5C16 1.91421 15.6642 2.25 15.25 2.25H0.75C0.335786 2.25 0 1.91421 0 1.5C0 1.08579 0.335786 0.75 0.75 0.75H15.25Z" fill="white"/>
<path d="M15.25 5.08334L15.3262 5.08725C15.7045 5.12556 16 5.44495 16 5.83334C16 6.22174 15.7045 6.54113 15.3262 6.57944L15.25 6.58334H7.62109C7.20688 6.58334 6.87109 6.24756 6.87109 5.83334C6.87109 5.41913 7.20688 5.08334 7.62109 5.08334H15.25Z" fill="white"/>
<path d="M15.25 9.41666C15.6642 9.41666 16 9.75244 16 10.1667C16 10.5809 15.6642 10.9167 15.25 10.9167H0.75C0.335786 10.9167 0 10.5809 0 10.1667C0 9.75244 0.335786 9.41666 0.75 9.41666H15.25Z" fill="white"/>
<path d="M15.25 13.75L15.3262 13.7539C15.7045 13.7922 16 14.1116 16 14.5C16 14.8884 15.7045 15.2078 15.3262 15.2461L15.25 15.25H7.62109C7.20688 15.25 6.87109 14.9142 6.87109 14.5C6.87109 14.0858 7.20688 13.75 7.62109 13.75H15.25Z" fill="white"/>
</g>
<defs>
<clipPath id="clip0_274_1227">
<rect width="16" height="16" fill="white"/>
</clipPath>
</defs>
</svg>
