<svg width="16" height="16" viewBox="0 0 16 16" fill="none" xmlns="http://www.w3.org/2000/svg">
<g clip-path="url(#clip0_274_2660)">
<path d="M15.25 0.75C15.6642 0.75 16 1.08579 16 1.5C16 1.91421 15.6642 2.25 15.25 2.25H0.75C0.335786 2.25 0 1.91421 0 1.5C0 1.08579 0.335786 0.75 0.75 0.75H15.25Z" fill="white"/>
<path d="M8.37891 5.08334L8.45508 5.08725C8.83337 5.12556 9.12891 5.44495 9.12891 5.83334C9.12891 6.22174 8.83337 6.54113 8.45508 6.57944L8.37891 6.58334H0.75C0.335786 6.58334 0 6.24756 0 5.83334C0 5.41913 0.335786 5.08334 0.75 5.08334H8.37891Z" fill="white"/>
<path d="M15.25 9.41666C15.6642 9.41666 16 9.75244 16 10.1667C16 10.5809 15.6642 10.9167 15.25 10.9167H0.75C0.335786 10.9167 0 10.5809 0 10.1667C0 9.75244 0.335786 9.41666 0.75 9.41666H15.25Z" fill="white"/>
<path d="M8.37891 13.75L8.45508 13.7539C8.83337 13.7922 9.12891 14.1116 9.12891 14.5C9.12891 14.8884 8.83337 15.2078 8.45508 15.2461L8.37891 15.25H0.75C0.335786 15.25 0 14.9142 0 14.5C0 14.0858 0.335786 13.75 0.75 13.75H8.37891Z" fill="white"/>
</g>
<defs>
<clipPath id="clip0_274_2660">
<rect width="16" height="16" fill="white"/>
</clipPath>
</defs>
</svg>
