<svg width="16" height="16" viewBox="0 0 16 16" fill="none" xmlns="http://www.w3.org/2000/svg">
<g clip-path="url(#clip0_274_2186)">
<path d="M15.25 0.75C15.6642 0.75 16 1.08579 16 1.5C16 1.91421 15.6642 2.25 15.25 2.25H0.75C0.335786 2.25 0 1.91421 0 1.5C0 1.08579 0.335786 0.75 0.75 0.75H15.25Z" fill="white"/>
<path d="M11.8184 5.08334L11.8945 5.08725C12.2729 5.12545 12.5684 5.44486 12.5684 5.83334C12.5684 6.22182 12.2729 6.54124 11.8945 6.57944L11.8184 6.58334H4.18164C3.76743 6.58334 3.43164 6.24756 3.43164 5.83334C3.43164 5.41913 3.76743 5.08334 4.18164 5.08334H11.8184Z" fill="white"/>
<path d="M15.25 9.41666C15.6642 9.41666 16 9.75244 16 10.1667C16 10.5809 15.6642 10.9167 15.25 10.9167H0.75C0.335786 10.9167 0 10.5809 0 10.1667C0 9.75244 0.335786 9.41666 0.75 9.41666H15.25Z" fill="white"/>
<path d="M11.8184 13.75L11.8945 13.7539C12.2729 13.7921 12.5684 14.1115 12.5684 14.5C12.5684 14.8885 12.2729 15.2079 11.8945 15.2461L11.8184 15.25H4.18164C3.76743 15.25 3.43164 14.9142 3.43164 14.5C3.43164 14.0858 3.76743 13.75 4.18164 13.75H11.8184Z" fill="white"/>
</g>
<defs>
<clipPath id="clip0_274_2186">
<rect width="16" height="16" fill="white"/>
</clipPath>
</defs>
</svg>
