<svg width="16" height="16" viewBox="0 0 16 16" fill="none" xmlns="http://www.w3.org/2000/svg">
<g clip-path="url(#clip0_274_2666)">
<path d="M15.25 0.75C15.6642 0.75 16 1.08579 16 1.5C16 1.91421 15.6642 2.25 15.25 2.25H0.75C0.335786 2.25 0 1.91421 0 1.5C0 1.08579 0.335786 0.75 0.75 0.75H15.25Z" fill="white"/>
<path d="M15.25 5.08334C15.6642 5.08334 16 5.41913 16 5.83334C16 6.24756 15.6642 6.58334 15.25 6.58334H0.75C0.335786 6.58334 0 6.24756 0 5.83334C0 5.41913 0.335786 5.08334 0.75 5.08334H15.25Z" fill="white"/>
<path d="M15.25 9.41666C15.6642 9.41666 16 9.75244 16 10.1667C16 10.5809 15.6642 10.9167 15.25 10.9167H0.75C0.335786 10.9167 0 10.5809 0 10.1667C0 9.75244 0.335786 9.41666 0.75 9.41666H15.25Z" fill="white"/>
<path d="M15.25 13.75C15.6642 13.75 16 14.0858 16 14.5C16 14.9142 15.6642 15.25 15.25 15.25H0.75C0.335786 15.25 0 14.9142 0 14.5C0 14.0858 0.335786 13.75 0.75 13.75H15.25Z" fill="white"/>
</g>
<defs>
<clipPath id="clip0_274_2666">
<rect width="16" height="16" fill="white"/>
</clipPath>
</defs>
</svg>
