<svg width="16" height="16" viewBox="0 0 16 16" fill="none" xmlns="http://www.w3.org/2000/svg">
<path d="M11.3995 0.75C11.6137 0.75 11.7965 0.750282 11.9415 0.755859C12.0795 0.761175 12.2447 0.772312 12.4044 0.818359C13.4083 1.10786 13.9364 2.20707 13.5352 3.17188C13.4714 3.32547 13.3771 3.46212 13.295 3.57324C13.2088 3.68988 13.0947 3.83194 12.961 3.99902C12.8983 4.07742 12.8314 4.16302 12.755 4.23926C12.4748 4.5186 12.1081 4.69503 11.7149 4.73926C11.6078 4.7513 11.4998 4.75 11.3995 4.75H4.60067C4.50039 4.75 4.39241 4.7513 4.28524 4.73926C3.89206 4.69503 3.5254 4.5186 3.24521 4.23926C3.16876 4.16302 3.10186 4.07742 3.03915 3.99902C2.90548 3.83194 2.79136 3.68988 2.70517 3.57324C2.62307 3.46212 2.5288 3.32547 2.46493 3.17188C2.06377 2.20707 2.59183 1.10786 3.59579 0.818359C3.75551 0.772312 3.92069 0.761175 4.05868 0.755859C4.2037 0.750282 4.38643 0.75 4.60067 0.75H11.3995ZM4.1163 2.25391C4.00026 2.25838 3.98773 2.26671 4.01181 2.25977C3.86848 2.30109 3.79262 2.45794 3.8497 2.5957C3.84021 2.57297 3.84233 2.5884 3.91122 2.68164C3.97624 2.76964 4.06853 2.8856 4.21005 3.0625C4.24866 3.11077 4.27123 3.13794 4.28817 3.1582C4.29765 3.16953 4.30212 3.17495 4.3038 3.17676C4.34383 3.21668 4.39703 3.24173 4.45321 3.24805C4.45566 3.24823 4.46269 3.2487 4.47763 3.24902C4.50401 3.24959 4.53898 3.25 4.60067 3.25H11.3995C11.4612 3.25 11.4962 3.24959 11.5225 3.24902C11.5375 3.2487 11.5445 3.24823 11.547 3.24805C11.6031 3.24173 11.6563 3.21668 11.6964 3.17676C11.6981 3.17495 11.7025 3.16953 11.712 3.1582C11.7289 3.13794 11.7515 3.11077 11.7901 3.0625C11.9316 2.8856 12.0239 2.76964 12.089 2.68164C12.1578 2.5884 12.16 2.57297 12.1505 2.5957C12.2076 2.45794 12.1317 2.30109 11.9884 2.25977C12.0124 2.26671 11.9999 2.25838 11.8839 2.25391C11.7746 2.2497 11.626 2.25 11.3995 2.25H4.60067C4.37416 2.25 4.22562 2.2497 4.1163 2.25391Z" fill="white"/>
<path d="M11 5.25003C11.4142 5.25003 11.75 5.58582 11.75 6.00003C11.75 6.41424 11.4142 6.75003 11 6.75003H5C4.58579 6.75003 4.25 6.41424 4.25 6.00003C4.25 5.58582 4.58579 5.25003 5 5.25003H11Z" fill="white"/>
<path d="M11 7.25C11.4142 7.25 11.75 7.58579 11.75 8C11.75 8.41421 11.4142 8.75 11 8.75H5C4.58579 8.75 4.25 8.41421 4.25 8C4.25 7.58579 4.58579 7.25 5 7.25H11Z" fill="white"/>
<path d="M11 9.24997C11.4142 9.24997 11.75 9.58576 11.75 9.99997C11.75 10.4142 11.4142 10.75 11 10.75H5C4.58579 10.75 4.25 10.4142 4.25 9.99997C4.25 9.58576 4.58579 9.24997 5 9.24997H11Z" fill="white"/>
<path d="M11.3995 15.25C11.6137 15.25 11.7965 15.2497 11.9415 15.2441C12.0795 15.2388 12.2447 15.2277 12.4044 15.1816C13.4083 14.8921 13.9364 13.7929 13.5352 12.8281C13.4714 12.6745 13.3771 12.5379 13.295 12.4268C13.2088 12.3101 13.0947 12.1681 12.961 12.001C12.8983 11.9226 12.8314 11.837 12.755 11.7607C12.4748 11.4814 12.1081 11.305 11.7149 11.2607C11.6078 11.2487 11.4998 11.25 11.3995 11.25H4.60067C4.50039 11.25 4.39241 11.2487 4.28524 11.2607C3.89206 11.305 3.5254 11.4814 3.24521 11.7607C3.16876 11.837 3.10186 11.9226 3.03915 12.001C2.90548 12.1681 2.79136 12.3101 2.70517 12.4268C2.62307 12.5379 2.5288 12.6745 2.46493 12.8281C2.06377 13.7929 2.59183 14.8921 3.59579 15.1816C3.75551 15.2277 3.92069 15.2388 4.05868 15.2441C4.2037 15.2497 4.38643 15.25 4.60067 15.25H11.3995ZM4.1163 13.7461C4.00026 13.7416 3.98773 13.7333 4.01181 13.7402C3.86848 13.6989 3.79262 13.5421 3.8497 13.4043C3.84021 13.427 3.84233 13.4116 3.91122 13.3184C3.97624 13.2304 4.06853 13.1144 4.21005 12.9375C4.24866 12.8892 4.27123 12.8621 4.28817 12.8418C4.29765 12.8305 4.30212 12.8251 4.3038 12.8232C4.34383 12.7833 4.39703 12.7583 4.45321 12.752C4.45566 12.7518 4.46269 12.7513 4.47763 12.751C4.50401 12.7504 4.53898 12.75 4.60067 12.75H11.3995C11.4612 12.75 11.4962 12.7504 11.5225 12.751C11.5375 12.7513 11.5445 12.7518 11.547 12.752C11.6031 12.7583 11.6563 12.7833 11.6964 12.8232C11.6981 12.8251 11.7025 12.8305 11.712 12.8418C11.7289 12.8621 11.7515 12.8892 11.7901 12.9375C11.9316 13.1144 12.0239 13.2304 12.089 13.3184C12.1578 13.4116 12.16 13.427 12.1505 13.4043C12.2076 13.5421 12.1317 13.6989 11.9884 13.7402C12.0124 13.7333 11.9999 13.7416 11.8839 13.7461C11.7746 13.7503 11.626 13.75 11.3995 13.75H4.60067C4.37416 13.75 4.22562 13.7503 4.1163 13.7461Z" fill="white"/>
</svg>
