<svg width="16" height="16" viewBox="0 0 16 16" fill="none" xmlns="http://www.w3.org/2000/svg">
<path d="M0.75 4.60059C0.75 4.38635 0.750282 4.20362 0.755859 4.0586C0.761175 3.9206 0.772312 3.75543 0.818359 3.59571C1.10786 2.59175 2.20707 2.06369 3.17188 2.46485C3.32547 2.52872 3.46212 2.62299 3.57324 2.70508C3.68988 2.79128 3.83194 2.9054 3.99902 3.03907C4.07742 3.10178 4.16302 3.16867 4.23926 3.24512C4.5186 3.52531 4.69503 3.89198 4.73926 4.28516C4.7513 4.39233 4.75 4.5003 4.75 4.60059L4.75 11.3994C4.75 11.4997 4.7513 11.6077 4.73926 11.7148C4.69503 12.108 4.5186 12.4747 4.23926 12.7549C4.16302 12.8313 4.07742 12.8982 3.99902 12.9609C3.83194 13.0946 3.68988 13.2087 3.57324 13.2949C3.46212 13.377 3.32547 13.4713 3.17188 13.5352C2.20707 13.9363 1.10786 13.4083 0.818359 12.4043C0.772312 12.2446 0.761175 12.0794 0.755859 11.9414C0.750282 11.7964 0.75 11.6137 0.75 11.3994L0.75 4.60059ZM2.25391 11.8838C2.25838 11.9998 2.26671 12.0124 2.25977 11.9883C2.30109 12.1316 2.45794 12.2075 2.5957 12.1504C2.57297 12.1599 2.5884 12.1578 2.68164 12.0889C2.76964 12.0239 2.8856 11.9316 3.0625 11.79C3.11077 11.7514 3.13794 11.7289 3.1582 11.7119C3.16953 11.7024 3.17495 11.698 3.17676 11.6963C3.21668 11.6563 3.24173 11.6031 3.24805 11.5469C3.24823 11.5444 3.2487 11.5374 3.24902 11.5225C3.24959 11.4961 3.25 11.4611 3.25 11.3994L3.25 4.60059C3.25 4.5389 3.24959 4.50392 3.24902 4.47754C3.2487 4.4626 3.24823 4.45557 3.24805 4.45313C3.24173 4.39695 3.21668 4.34375 3.17676 4.30371C3.17495 4.30203 3.16953 4.29756 3.1582 4.28809C3.13794 4.27115 3.11077 4.24858 3.0625 4.20996C2.8856 4.06845 2.76964 3.97615 2.68164 3.91114C2.5884 3.84225 2.57297 3.84013 2.5957 3.84961C2.45794 3.79254 2.30109 3.8684 2.25977 4.01172C2.26671 3.98764 2.25838 4.00017 2.25391 4.11621C2.2497 4.22553 2.25 4.37407 2.25 4.60059L2.25 11.3994C2.25 11.6259 2.2497 11.7745 2.25391 11.8838Z" fill="white"/>
<path d="M5.25 5C5.25 4.58579 5.58579 4.25 6 4.25C6.41421 4.25 6.75 4.58579 6.75 5V11C6.75 11.4142 6.41421 11.75 6 11.75C5.58579 11.75 5.25 11.4142 5.25 11V5Z" fill="white"/>
<path d="M7.25 5C7.25 4.58579 7.58579 4.25 8 4.25C8.41421 4.25 8.75 4.58579 8.75 5V11C8.75 11.4142 8.41421 11.75 8 11.75C7.58579 11.75 7.25 11.4142 7.25 11V5Z" fill="white"/>
<path d="M9.25 5C9.25 4.58579 9.58579 4.25 10 4.25C10.4142 4.25 10.75 4.58579 10.75 5V11C10.75 11.4142 10.4142 11.75 10 11.75C9.58579 11.75 9.25 11.4142 9.25 11V5Z" fill="white"/>
<path d="M15.25 4.60059C15.25 4.38635 15.2497 4.20362 15.2441 4.0586C15.2388 3.9206 15.2277 3.75543 15.1816 3.59571C14.8921 2.59175 13.7929 2.06369 12.8281 2.46485C12.6745 2.52872 12.5379 2.62299 12.4268 2.70508C12.3101 2.79128 12.1681 2.9054 12.001 3.03907C11.9226 3.10178 11.837 3.16867 11.7607 3.24512C11.4814 3.52531 11.305 3.89198 11.2607 4.28516C11.2487 4.39233 11.25 4.5003 11.25 4.60059V11.3994C11.25 11.4997 11.2487 11.6077 11.2607 11.7148C11.305 12.108 11.4814 12.4747 11.7607 12.7549C11.837 12.8313 11.9226 12.8982 12.001 12.9609C12.1681 13.0946 12.3101 13.2087 12.4268 13.2949C12.5379 13.377 12.6745 13.4713 12.8281 13.5352C13.7929 13.9363 14.8921 13.4083 15.1816 12.4043C15.2277 12.2446 15.2388 12.0794 15.2441 11.9414C15.2497 11.7964 15.25 11.6137 15.25 11.3994V4.60059ZM13.7461 11.8838C13.7416 11.9998 13.7333 12.0124 13.7402 11.9883C13.6989 12.1316 13.5421 12.2075 13.4043 12.1504C13.427 12.1599 13.4116 12.1578 13.3184 12.0889C13.2304 12.0239 13.1144 11.9316 12.9375 11.79C12.8892 11.7514 12.8621 11.7289 12.8418 11.7119C12.8305 11.7024 12.8251 11.698 12.8232 11.6963C12.7833 11.6563 12.7583 11.6031 12.752 11.5469C12.7518 11.5444 12.7513 11.5374 12.751 11.5225C12.7504 11.4961 12.75 11.4611 12.75 11.3994V4.60059C12.75 4.5389 12.7504 4.50392 12.751 4.47754C12.7513 4.4626 12.7518 4.45557 12.752 4.45313C12.7583 4.39695 12.7833 4.34375 12.8232 4.30371C12.8251 4.30203 12.8305 4.29756 12.8418 4.28809C12.8621 4.27115 12.8892 4.24858 12.9375 4.20996C13.1144 4.06845 13.2304 3.97615 13.3184 3.91114C13.4116 3.84225 13.427 3.84013 13.4043 3.84961C13.5421 3.79254 13.6989 3.8684 13.7402 4.01172C13.7333 3.98764 13.7416 4.00017 13.7461 4.11621C13.7503 4.22553 13.75 4.37407 13.75 4.60059V11.3994C13.75 11.6259 13.7503 11.7745 13.7461 11.8838Z" fill="white"/>
</svg>
