<svg width="16" height="16" viewBox="0 0 16 16" fill="none" xmlns="http://www.w3.org/2000/svg">
<g clip-path="url(#clip0_274_1217)">
<path d="M14.7708 5.22463C15.0361 5.48999 15.2662 5.71962 15.4351 5.91654C15.5798 6.08538 15.7342 6.29056 15.8231 6.54078L15.857 6.65058L15.8832 6.76521C15.9934 7.34307 15.8052 7.94167 15.3777 8.35343C15.1541 8.56875 14.8769 8.68047 14.6354 8.75878C14.3887 8.83876 14.0728 8.9145 13.708 9.00254C13.4825 9.05698 13.2396 9.12248 12.992 9.11786C12.6922 9.11225 12.3985 9.02906 12.1398 8.87755C11.9263 8.75239 11.7528 8.57059 11.5888 8.40661L7.59336 4.41118C7.42937 4.24719 7.24758 4.07368 7.12241 3.86013C6.9709 3.60145 6.88772 3.30775 6.88211 3.00801C6.87748 2.7604 6.94299 2.51747 6.99743 2.29193C7.08546 1.9272 7.1612 1.61123 7.24119 1.36454C7.31949 1.12305 7.43121 0.845905 7.64653 0.622217C8.08562 0.16638 8.73701 -0.0168985 9.34939 0.142986C9.65002 0.221533 9.89057 0.399569 10.0834 0.564902C10.2803 0.733723 10.51 0.963831 10.7753 1.2292L14.7708 5.22463ZM9.71468 2.28986C9.43211 2.00729 9.25043 1.82599 9.1077 1.70359C9.01931 1.62782 8.97369 1.59966 8.95992 1.59173C8.8787 1.57423 8.79474 1.599 8.73481 1.65664C8.72646 1.67216 8.70263 1.71986 8.66783 1.8272C8.60986 2.006 8.54889 2.25502 8.45514 2.64341C8.42152 2.78271 8.40243 2.86273 8.39092 2.92308C8.38421 2.95836 8.38297 2.97458 8.38264 2.9797C8.38344 3.02252 8.39483 3.06497 8.41647 3.10192C8.41338 3.09664 8.41711 3.10573 8.45376 3.14612C8.49505 3.19161 8.55269 3.24919 8.65402 3.35052L12.6494 7.34595C12.7508 7.44727 12.8084 7.50492 12.8538 7.5462C12.8942 7.58285 12.9033 7.58658 12.898 7.58349C12.935 7.60513 12.9774 7.61652 13.0203 7.61733C13.0254 7.617 13.0416 7.61575 13.0769 7.60904C13.1372 7.59753 13.2173 7.57844 13.3566 7.54482C13.7449 7.45107 13.994 7.39011 14.1728 7.33213C14.2795 7.29752 14.3269 7.27293 14.3426 7.26446C14.4005 7.20434 14.4254 7.12082 14.4075 7.03935C14.399 7.02467 14.3707 6.97898 14.2964 6.89226C14.174 6.74954 13.9927 6.56785 13.7101 6.28529L9.71468 2.28986Z" fill="white"/>
<path d="M11.0053 8.53031L11.0571 8.58763C11.2971 8.8822 11.2798 9.3165 11.0053 9.59097C10.7308 9.86545 10.2965 9.88272 10.002 9.64276L9.94466 9.59097L6.40912 6.05544C6.11623 5.76254 6.11623 5.28767 6.40912 4.99478C6.70202 4.70188 7.17689 4.70188 7.46978 4.99478L11.0053 8.53031Z" fill="white"/>
<path d="M9.59077 9.94453L9.64256 10.0018C9.88251 10.2964 9.86524 10.7307 9.59077 11.0052C9.31629 11.2797 8.88199 11.2969 8.58742 11.057L8.53011 11.0052L4.99457 7.46965C4.70168 7.17676 4.70168 6.70189 4.99457 6.40899C5.28747 6.1161 5.76234 6.1161 6.05523 6.40899L9.59077 9.94453Z" fill="white"/>
<path d="M5.22438 14.7708C5.48975 15.0361 5.71938 15.2662 5.9163 15.4351C6.08514 15.5798 6.29032 15.7342 6.54054 15.8231L6.65033 15.857L6.76496 15.8832C7.34283 15.9934 7.94142 15.8052 8.35319 15.3777C8.56851 15.1541 8.68023 14.8769 8.75853 14.6354C8.83852 14.3887 8.91426 14.0728 9.00229 13.708C9.05673 13.4825 9.12224 13.2396 9.11761 12.992C9.112 12.6922 9.02882 12.3985 8.87731 12.1398C8.75214 11.9263 8.57035 11.7528 8.40636 11.5888L4.41093 7.59336C4.24695 7.42937 4.07344 7.24758 3.85989 7.12241C3.6012 6.9709 3.3075 6.88772 3.00777 6.88211C2.76016 6.87748 2.51723 6.94299 2.29168 6.99743C1.92696 7.08546 1.61098 7.1612 1.3643 7.24119C1.12281 7.31949 0.845661 7.43121 0.621973 7.64653C0.166135 8.08562 -0.0171427 8.73701 0.142742 9.34939C0.221289 9.65002 0.399325 9.89057 0.564658 10.0834C0.733479 10.2803 0.963587 10.51 1.22895 10.7753L5.22438 14.7708ZM2.28961 9.71468C2.00704 9.43211 1.82575 9.25043 1.70335 9.1077C1.62757 9.01931 1.59941 8.97369 1.59148 8.95992C1.57399 8.8787 1.59876 8.79474 1.65639 8.73481C1.67191 8.72646 1.71962 8.70263 1.82695 8.66783C2.00575 8.60986 2.25477 8.54889 2.64317 8.45514C2.78246 8.42152 2.86249 8.40243 2.92283 8.39092C2.95811 8.38421 2.97433 8.38297 2.97946 8.38264C3.02227 8.38344 3.06472 8.39483 3.10168 8.41647C3.09639 8.41338 3.10548 8.41711 3.14587 8.45376C3.19137 8.49505 3.24895 8.55269 3.35027 8.65402L7.3457 12.6494C7.44703 12.7508 7.50467 12.8084 7.54596 12.8538C7.58261 12.8942 7.58634 12.9033 7.58324 12.898C7.60489 12.935 7.61628 12.9774 7.61708 13.0203C7.61675 13.0254 7.61551 13.0416 7.60879 13.0769C7.59729 13.1372 7.5782 13.2173 7.54458 13.3566C7.45082 13.7449 7.38986 13.994 7.33189 14.1728C7.29727 14.2795 7.27269 14.3269 7.26422 14.3426C7.20409 14.4005 7.12057 14.4254 7.0391 14.4075C7.02443 14.399 6.97873 14.3707 6.89202 14.2964C6.74929 14.174 6.56761 13.9927 6.28504 13.7101L2.28961 9.71468Z" fill="white"/>
</g>
<defs>
<clipPath id="clip0_274_1217">
<rect width="16" height="16" fill="white"/>
</clipPath>
</defs>
</svg>
