<svg width="16" height="16" viewBox="0 0 16 16" fill="none" xmlns="http://www.w3.org/2000/svg">
<path d="M8.40039 2.92558e-08C8.66789 -5.33541e-07 8.91389 -8.85706e-05 9.11816 0.0166016C9.33121 0.0340294 9.56473 0.073143 9.79492 0.19043C10.124 0.358177 10.3918 0.625971 10.5596 0.955078C10.6769 1.18527 10.716 1.41879 10.7334 1.63184C10.7501 1.83611 10.75 2.08211 10.75 2.34961V3.00879C11.2792 3.0249 11.6231 3.07253 11.9082 3.21777C12.2845 3.40951 12.5905 3.71554 12.7822 4.0918C13.0002 4.51962 13 5.08009 13 6.2002V11C13 13.7614 10.7614 16 8 16C5.32472 16 3.14053 13.8989 3.00684 11.2568L3 11V6.2002C3 5.08009 2.99979 4.51962 3.21777 4.0918C3.40951 3.71554 3.71554 3.40951 4.0918 3.21777C4.37687 3.07252 4.72089 3.02598 5.25 3.00977V2.34961C5.25 2.08211 5.24991 1.83611 5.2666 1.63184C5.28403 1.41879 5.32314 1.18527 5.44043 0.955078C5.60818 0.625971 5.87597 0.358177 6.20508 0.19043C6.43527 0.073143 6.66879 0.0340294 6.88184 0.0166016C7.08611 -8.85651e-05 7.33211 -5.33881e-07 7.59961 2.92558e-08H8.40039ZM6.2002 4.5C5.61556 4.5 5.26702 4.50138 5.00879 4.52246C4.76805 4.54213 4.74065 4.57139 4.77344 4.55469C4.67936 4.60262 4.60262 4.67936 4.55469 4.77344C4.57139 4.74065 4.54213 4.76805 4.52246 5.00879C4.50138 5.26702 4.5 5.61556 4.5 6.2002V11C4.5 12.933 6.067 14.5 8 14.5C9.933 14.5 11.5 12.933 11.5 11V6.2002C11.5 5.61556 11.4986 5.26702 11.4775 5.00879C11.4579 4.76805 11.4286 4.74065 11.4453 4.77344C11.3974 4.67936 11.3206 4.60262 11.2266 4.55469C11.2594 4.57139 11.232 4.54213 10.9912 4.52246C10.733 4.50138 10.3844 4.5 9.7998 4.5H6.2002ZM7.59961 1.5C7.30744 1.5 7.13298 1.5002 7.00391 1.51074C6.88384 1.52058 6.87034 1.53569 6.88672 1.52734C6.83968 1.55131 6.80131 1.58968 6.77734 1.63672C6.78569 1.62034 6.77058 1.63384 6.76074 1.75391C6.7502 1.88298 6.75 2.05744 6.75 2.34961V3H9.25V2.34961C9.25 2.05744 9.2498 1.88298 9.23926 1.75391C9.22942 1.63384 9.21431 1.62034 9.22266 1.63672C9.19869 1.58968 9.16032 1.55131 9.11328 1.52734C9.12966 1.53569 9.11616 1.52058 8.99609 1.51074C8.86702 1.5002 8.69256 1.5 8.40039 1.5H7.59961Z" fill="white"/>
</svg>
