<svg width="16" height="16" viewBox="0 0 16 16" fill="none" xmlns="http://www.w3.org/2000/svg">
<path d="M15 3C15.5523 3 16 3.44772 16 4V6C16 6.27614 15.7697 6.49169 15.5088 6.58203C14.9216 6.78543 14.5 7.34358 14.5 8C14.5 8.65642 14.9216 9.21457 15.5088 9.41797C15.7697 9.50831 16 9.72386 16 10V12C16 12.5523 15.5523 13 15 13H1C0.447715 13 0 12.5523 0 12V10C0 9.72386 0.230265 9.50831 0.491211 9.41797C1.07843 9.21457 1.5 8.65642 1.5 8C1.5 7.38435 1.12917 6.85516 0.598633 6.62402L0.491211 6.58203C0.230265 6.49169 0 6.27614 0 6V4C0 3.44772 0.447715 3 1 3H15ZM1.5 5.4043C2.39497 5.92248 3 6.88839 3 8C3 9.11143 2.39473 10.0765 1.5 10.5947V11.5H9.25V11C9.25 10.5858 9.58579 10.25 10 10.25C10.4142 10.25 10.75 10.5858 10.75 11V11.5H14.5V10.5947C13.6053 10.0765 13 9.11143 13 8C13 6.88839 13.605 5.92248 14.5 5.4043V4.5H10.75V5C10.75 5.41421 10.4142 5.75 10 5.75C9.58579 5.75 9.25 5.41421 9.25 5V4.5H1.5V5.4043ZM10 6.75C10.4142 6.75 10.75 7.08579 10.75 7.5V8.5C10.75 8.91421 10.4142 9.25 10 9.25C9.58579 9.25 9.25 8.91421 9.25 8.5V7.5C9.25 7.08579 9.58579 6.75 10 6.75Z" fill="white"/>
</svg>
