<svg width="16" height="16" viewBox="0 0 16 16" fill="none" xmlns="http://www.w3.org/2000/svg">
<g clip-path="url(#clip0_274_2086)">
<path d="M14.9363 2.73554C15.3126 2.56253 15.7584 2.72741 15.9314 3.1037C16.1045 3.48002 15.9396 3.92577 15.5633 4.09882C15.0647 4.32803 14.2785 4.63479 13.3318 4.92792C13.4189 6.23095 13.3436 8.04462 12.7869 9.65058C12.4574 10.6012 11.9441 11.5232 11.1551 12.2121C10.3518 12.9133 9.30609 13.3332 7.9998 13.3332C6.69352 13.3332 5.6478 12.9133 4.84453 12.2121C4.05549 11.5232 3.54225 10.6012 3.21269 9.65058C2.65599 8.04465 2.57978 6.23094 2.66679 4.92792C2.0056 4.72316 1.42273 4.51194 0.961715 4.32441L0.436324 4.09882L0.368942 4.06269C0.0412275 3.86986 -0.0940807 3.4566 0.0681604 3.1037C0.230418 2.75088 0.632312 2.58404 0.991988 2.70722L1.06328 2.73554L1.53007 2.93671C2.06909 3.15582 2.81374 3.4214 3.67168 3.6623C4.99175 4.03294 6.54074 4.33417 7.9998 4.33417C9.45886 4.33417 11.0079 4.03294 12.3279 3.6623C13.4716 3.34116 14.4136 2.97586 14.9363 2.73554ZM7.2498 8.41718V5.80878C6.18247 5.74719 5.11718 5.56413 4.14726 5.3332C4.10131 6.46052 4.19759 7.91008 4.63066 9.15937C4.90521 9.95116 5.29866 10.6176 5.83086 11.0822C6.3492 11.5347 7.04046 11.8332 7.9998 11.8332C8.95914 11.8332 9.6504 11.5347 10.1687 11.0822C10.7009 10.6176 11.0944 9.95116 11.3689 9.15937C11.802 7.91007 11.8973 6.46052 11.8514 5.3332C10.8817 5.56403 9.81679 5.74721 8.7498 5.80878V8.41718C8.74966 8.83127 8.41392 9.16718 7.9998 9.16718C7.58568 9.16718 7.24995 8.83127 7.2498 8.41718Z" fill="white"/>
</g>
<defs>
<clipPath id="clip0_274_2086">
<rect width="16" height="16" fill="white"/>
</clipPath>
</defs>
</svg>
