<svg width="16" height="16" viewBox="0 0 16 16" fill="none" xmlns="http://www.w3.org/2000/svg">
<g clip-path="url(#clip0_274_2139)">
<path d="M0.750004 9.79981V6.2002C0.750004 5.65252 0.748979 5.19633 0.779301 4.8252C0.810333 4.44547 0.878096 4.0891 1.04981 3.75196C1.31346 3.23451 1.73451 2.81346 2.25196 2.54981C2.5891 2.3781 2.94547 2.31033 3.3252 2.2793C3.69633 2.24898 4.15252 2.25 4.7002 2.25H6C6.41422 2.25 6.75 2.58579 6.75 3C6.75 3.41422 6.41422 3.75 6 3.75H4.7002C4.12777 3.75 3.74315 3.75024 3.44727 3.77442C3.16027 3.79788 3.02316 3.84059 2.93262 3.88672C2.69751 4.00655 2.50655 4.19751 2.38672 4.43262C2.34059 4.52316 2.29788 4.66027 2.27442 4.94727C2.25024 5.24315 2.25 5.62777 2.25 6.2002V9.79981C2.25 10.3722 2.25024 10.7569 2.27442 11.0527C2.29788 11.3397 2.34059 11.4768 2.38672 11.5674C2.50655 11.8025 2.69751 11.9935 2.93262 12.1133C3.02316 12.1594 3.16027 12.2021 3.44727 12.2256C3.74315 12.2498 4.12777 12.25 4.7002 12.25H6C6.41422 12.25 6.75 12.5858 6.75 13C6.75 13.4142 6.41422 13.75 6 13.75H4.7002C4.15252 13.75 3.69633 13.751 3.3252 13.7207C2.94547 13.6897 2.5891 13.6219 2.25196 13.4502C1.73451 13.1865 1.31346 12.7655 1.04981 12.2481C0.878096 11.9109 0.810333 11.5545 0.779301 11.1748C0.748979 10.8037 0.750004 10.3475 0.750004 9.79981Z" fill="white"/>
<path d="M7.25 15.25V0.75C7.25 0.335786 7.58579 0 8 0C8.41421 0 8.75 0.335786 8.75 0.75V15.25C8.75 15.6642 8.41421 16 8 16C7.58579 16 7.25 15.6642 7.25 15.25Z" fill="white"/>
<path d="M12.8203 12.2148L12.7451 12.2266L12.625 12.2441C12.5841 12.2482 12.5424 12.25 12.5 12.25H12.1875L12.1104 12.2539C11.7324 12.2925 11.4375 12.6118 11.4375 13C11.4375 13.3882 11.7324 13.7075 12.1104 13.7461L12.1875 13.75H12.5C12.6827 13.75 12.8622 13.7317 13.0361 13.6973C13.4423 13.6167 13.7063 13.2226 13.626 12.8164C13.5506 12.4353 13.1989 12.1789 12.8203 12.2148ZM10 12.25C9.58579 12.25 9.25 12.5858 9.25 13C9.25 13.4142 9.58579 13.75 10 13.75H10.3125C10.7267 13.75 11.0625 13.4142 11.0625 13C11.0625 12.5858 10.7267 12.25 10.3125 12.25H10ZM15.25 11V10.625C15.25 10.2108 14.9142 9.875 14.5 9.875C14.0858 9.875 13.75 10.2108 13.75 10.625V11C13.75 11.0424 13.7482 11.0841 13.7441 11.125L13.7266 11.2451L13.7148 11.3203C13.6789 11.6989 13.9353 12.0506 14.3164 12.126C14.6973 12.2013 15.0676 11.9739 15.1787 11.6104L15.1973 11.5361L15.2363 11.2715C15.2451 11.182 15.25 11.0914 15.25 11ZM15.25 8.375V7.625C15.25 7.21079 14.9142 6.875 14.5 6.875C14.0858 6.875 13.75 7.21079 13.75 7.625V8.375C13.75 8.78921 14.0858 9.125 14.5 9.125C14.9142 9.125 15.25 8.78921 15.25 8.375ZM15.25 5.375V5C15.25 4.8173 15.2317 4.63779 15.1973 4.46387C15.1167 4.05772 14.7226 3.79366 14.3164 3.87402C13.9102 3.95439 13.6463 4.34864 13.7266 4.75488C13.7421 4.83345 13.75 4.91556 13.75 5V5.375C13.75 5.78921 14.0858 6.125 14.5 6.125C14.9142 6.125 15.25 5.78921 15.25 5.375ZM12.1875 2.25L12.1104 2.25391C11.7324 2.29253 11.4375 2.61183 11.4375 3C11.4375 3.38817 11.7324 3.70747 12.1104 3.74609L12.1875 3.75H12.5C12.5844 3.75 12.6666 3.7579 12.7451 3.77344C13.1514 3.85366 13.5456 3.58985 13.626 3.18359C13.7063 2.77737 13.4423 2.38327 13.0361 2.30273C12.8622 2.26833 12.6827 2.25 12.5 2.25H12.1875ZM10 2.25C9.58579 2.25 9.25 2.58579 9.25 3C9.25 3.41421 9.58579 3.75 10 3.75H10.3125C10.7267 3.75 11.0625 3.41421 11.0625 3C11.0625 2.58579 10.7267 2.25 10.3125 2.25H10Z" fill="white"/>
</g>
<defs>
<clipPath id="clip0_274_2139">
<rect width="16" height="16" fill="white"/>
</clipPath>
</defs>
</svg>
