<svg width="16" height="16" viewBox="0 0 16 16" fill="none" xmlns="http://www.w3.org/2000/svg">
<g clip-path="url(#clip0_274_2096)">
<path d="M3.28518 1.48382C4.51063 1.54344 5.3639 2.11842 5.87405 2.97112C6.35495 3.77518 6.499 4.7682 6.49905 5.67132V8.89788C6.49887 9.31194 6.16315 9.64788 5.74905 9.64788C5.33984 9.64788 5.00702 9.31983 4.99905 8.91253C4.26288 9.33523 3.30758 9.6478 2.41604 9.64788C1.93082 9.64788 1.37026 9.48712 0.916039 9.18694C0.457461 8.8838 -0.000952756 8.3564 -0.000952757 7.60686C-0.000969437 7.24014 -0.0252163 5.66788 1.52444 4.893C2.61905 4.34569 3.77319 4.16137 4.86331 4.44866C4.7966 4.1808 4.70674 3.94198 4.58694 3.74163C4.33484 3.32013 3.93812 3.01722 3.21291 2.98186C2.71104 2.95744 2.00871 3.24374 1.63674 3.90081C1.43274 4.2613 0.974775 4.38899 0.614282 4.18499C0.253931 3.981 0.127257 3.52296 0.331078 3.16253C1.00257 1.97594 2.26014 1.43407 3.28518 1.48382ZM1.49905 7.60686C1.49905 7.68046 1.53714 7.79877 1.74319 7.93499C1.95357 8.07406 2.22664 8.14788 2.41604 8.14788C2.99699 8.1478 3.7024 7.93098 4.26174 7.60784C4.53793 7.44824 4.74597 7.28081 4.87502 7.13518C4.97992 7.01674 4.99691 6.95409 4.99905 6.94866V6.09612C4.17787 5.67875 3.22696 5.71898 2.19534 6.23479C1.52369 6.57067 1.49906 7.22015 1.49905 7.60686Z" fill="white"/>
<path d="M10.2208 5.98871C10.3548 5.59686 10.7811 5.38712 11.173 5.52094C11.5648 5.65491 11.7736 6.08122 11.6398 6.47309C11.6172 6.53905 11.5978 6.61791 11.5802 6.70844C11.6407 6.70314 11.7015 6.69952 11.7618 6.69379C12.3785 6.63519 12.9667 6.55569 13.4562 6.46234C13.9651 6.36528 14.3055 6.26415 14.4679 6.185C14.8402 6.00352 15.2893 6.15839 15.4708 6.5307C15.6521 6.90298 15.4974 7.35217 15.1251 7.53363C14.772 7.70572 14.2636 7.83447 13.7364 7.935C13.1898 8.03924 12.5537 8.12516 11.9034 8.18695C11.7747 8.19919 11.6445 8.20969 11.5138 8.22016C11.5176 8.3139 11.5237 8.4093 11.5294 8.50629C11.7435 8.45031 11.9557 8.40459 12.1632 8.37055C12.6072 8.2977 13.0842 8.26809 13.5255 8.33148C13.7265 8.02515 14.127 7.90462 14.4689 8.06391C14.8071 8.22158 14.9707 8.59889 14.8722 8.94672C14.9827 9.03236 15.0955 9.12547 15.2023 9.2309C15.517 9.54176 15.8343 9.97786 15.9523 10.5356C16.2089 11.7498 15.4553 12.9715 13.6251 14.142C13.2762 14.3652 12.8122 14.2633 12.589 13.9145C12.3659 13.5656 12.4678 13.1016 12.8165 12.8784C14.5029 11.7998 14.5383 11.1016 14.4845 10.8461C14.4471 10.6692 14.3345 10.4819 14.1486 10.2983C14.1461 10.2959 14.1432 10.2938 14.1407 10.2914C13.5396 11.2025 12.83 12.0251 12.1095 12.6704C12.1786 13.0183 12.2446 13.3345 12.3058 13.603C12.3977 14.0068 12.1451 14.4084 11.7413 14.5004C11.3375 14.5924 10.9359 14.3398 10.8439 13.936C10.8229 13.8438 10.8026 13.7461 10.7804 13.644C10.2923 13.9179 9.77408 14.1108 9.27258 14.1176C8.94154 14.1221 8.59804 14.0456 8.29309 13.8383C7.98735 13.6304 7.77826 13.3305 7.65051 12.9887C7.32169 12.1089 7.562 11.2859 8.03137 10.6381C8.48602 10.0108 9.17663 9.50691 9.89172 9.13617C9.94867 9.10664 10.0067 9.07842 10.0646 9.05023C10.0435 8.79397 10.025 8.5416 10.0148 8.29633C9.35911 8.30891 8.74735 8.2909 8.26281 8.23187L8.35363 7.48773L8.44348 6.74262C8.86109 6.79351 9.42557 6.80846 10.0509 6.79437C10.0846 6.50256 10.1388 6.22886 10.2208 5.98871ZM10.2462 10.6567C9.80911 10.9226 9.46244 11.2206 9.24621 11.519C8.99202 11.8698 8.94585 12.169 9.05578 12.4633C9.09615 12.5713 9.133 12.5962 9.13586 12.5981C9.13898 12.6002 9.16598 12.6187 9.25207 12.6176C9.45711 12.6148 9.82383 12.4988 10.3243 12.1684C10.3727 12.1365 10.4207 12.1016 10.4698 12.0668C10.3903 11.6165 10.3138 11.1395 10.2462 10.6567ZM12.6466 9.81879C12.5707 9.82704 12.4906 9.8372 12.4064 9.85101C12.1717 9.88951 11.9247 9.94795 11.6749 10.0239C11.7108 10.308 11.7504 10.5928 11.7931 10.8735C12.0869 10.5522 12.3756 10.198 12.6466 9.81879ZM8.44348 6.74262L8.26281 8.23187C7.85176 8.18178 7.55862 7.80794 7.60852 7.39691C7.65861 6.98591 8.0325 6.6928 8.44348 6.74262Z" fill="white"/>
</g>
<defs>
<clipPath id="clip0_274_2096">
<rect width="16" height="16" fill="white"/>
</clipPath>
</defs>
</svg>
