<svg width="16" height="16" viewBox="0 0 16 16" fill="none" xmlns="http://www.w3.org/2000/svg">
<path d="M15.2529 3.32822C15.2958 3.32842 15.3379 3.33279 15.3788 3.33993C15.4313 3.34899 15.4832 3.36264 15.5331 3.3829L15.5409 3.38681C15.5522 3.39157 15.5622 3.39909 15.5732 3.40439C15.6478 3.44011 15.7193 3.4861 15.7812 3.54794C15.9 3.66687 15.9678 3.81627 15.9902 3.97079C15.9932 3.99172 15.9948 4.01283 15.996 4.03427C15.9973 4.05581 15.9995 4.07716 15.9989 4.09872V8.03232C15.9989 8.44653 15.6632 8.78232 15.2489 8.78232C14.8351 8.78191 14.4989 8.44628 14.4989 8.03232V5.89072L10.6513 9.73837C10.4621 9.92757 10.288 10.1018 10.1318 10.2345C9.96881 10.3728 9.77586 10.5101 9.5302 10.5899C9.17898 10.704 8.80038 10.7039 8.44914 10.5899C8.20338 10.5101 8.00959 10.3728 7.8466 10.2345C7.69039 10.1018 7.51714 9.92746 7.32805 9.73837L6.29484 8.70615C6.08818 8.49948 5.96488 8.37593 5.86613 8.29208C5.77416 8.21402 5.75391 8.21511 5.77141 8.22079C5.72133 8.20452 5.66721 8.20461 5.61711 8.22079C5.63386 8.21524 5.61334 8.21492 5.52238 8.29208C5.42364 8.37591 5.29938 8.49946 5.0927 8.70615L1.28117 12.5177C0.988328 12.8105 0.513516 12.8104 0.220624 12.5177C-0.0722541 12.2248 -0.0722246 11.75 0.220624 11.4571L4.03215 7.6456C4.22136 7.45639 4.39539 7.28121 4.55168 7.14853C4.71458 7.0103 4.9077 6.87383 5.15324 6.79404C5.50466 6.6799 5.88387 6.67986 6.23527 6.79404C6.48073 6.87391 6.67398 7.0103 6.83684 7.14853C6.99312 7.28122 7.16619 7.4564 7.35539 7.6456L8.38859 8.67782C8.59503 8.88426 8.71862 9.00709 8.8173 9.09091C8.90888 9.16864 8.92914 9.16879 8.91203 9.16318C8.96204 9.17937 9.01631 9.17933 9.06633 9.16318C9.0496 9.16872 9.06981 9.16836 9.16105 9.09091C9.2598 9.00707 9.38408 8.88449 9.59074 8.67782L13.4404 4.82822H11.2948C10.8808 4.82805 10.5448 4.49233 10.5448 4.07822C10.5448 3.66411 10.8808 3.32838 11.2948 3.32822C11.4418 3.18121 15.0602 3.32766 15.2529 3.32822Z" fill="white"/>
</svg>
