<svg width="16" height="16" viewBox="0 0 16 16" fill="none" xmlns="http://www.w3.org/2000/svg">
<g clip-path="url(#clip0_274_1752)">
<path d="M9.75488 0.701486C10.0477 0.408713 10.5225 0.40896 10.8154 0.701486C11.1083 0.994382 11.1083 1.46915 10.8154 1.76204L9.06055 3.51792H11.2002L12.3125 3.52281C13.2877 3.53813 13.881 3.59983 14.3623 3.84508C14.9265 4.13266 15.3853 4.59143 15.6729 5.15564C15.9997 5.79734 16 6.63786 16 8.31778V10.7182L15.9951 11.8305C15.9798 12.8057 15.9181 13.399 15.6729 13.8803L15.5576 14.0864C15.2694 14.5563 14.8561 14.9392 14.3623 15.1909L14.2393 15.2485C13.7793 15.4461 13.2065 15.4991 12.3125 15.5132L11.2002 15.5181H4.7998C3.11984 15.5181 2.2794 15.5178 1.6377 15.1909C1.14385 14.9392 0.730568 14.5563 0.442383 14.0864L0.327148 13.8803C0.0819172 13.399 0.0202113 12.8057 0.00488281 11.8305L0 10.7182V8.31778C4.62282e-10 6.74277 0.000134677 5.90588 0.269531 5.27868L0.327148 5.15564C0.578861 4.66177 0.9617 4.2485 1.43164 3.96031L1.6377 3.84508C2.27941 3.5181 3.11978 3.51792 4.7998 3.51792H6.93945L5.18359 1.76204C4.89102 1.46915 4.89087 0.994287 5.18359 0.701486C5.47639 0.40869 5.95122 0.408891 6.24414 0.701486L7.99902 2.45639L9.75488 0.701486ZM4.7998 5.01794C3.93534 5.01794 3.37708 5.01938 2.95215 5.05407C2.54543 5.0873 2.39365 5.14324 2.31934 5.18103C2.03713 5.32484 1.80688 5.55506 1.66309 5.83728C1.6253 5.91165 1.56934 6.06363 1.53613 6.4701C1.50146 6.89501 1.5 7.45343 1.5 8.31778V10.7182C1.5 11.5826 1.50144 12.141 1.53613 12.5659C1.56937 12.9725 1.6253 13.1244 1.66309 13.1987C1.8069 13.4809 2.03714 13.7112 2.31934 13.855C2.39368 13.8927 2.54555 13.9487 2.95215 13.9819C3.37707 14.0166 3.93535 14.018 4.7998 14.018H11.2002C12.0647 14.018 12.6229 14.0166 13.0479 13.9819C13.4544 13.9487 13.6063 13.8927 13.6807 13.855C13.9629 13.7112 14.1931 13.4809 14.3369 13.1987C14.3747 13.1244 14.4306 12.9725 14.4639 12.5659C14.4986 12.141 14.5 11.5826 14.5 10.7182V8.31778C14.5 7.45343 14.4985 6.89501 14.4639 6.4701C14.4307 6.06364 14.3747 5.91165 14.3369 5.83728C14.1931 5.55506 13.9629 5.32484 13.6807 5.18103C13.6063 5.14324 13.4546 5.0873 13.0479 5.05407C12.6229 5.01938 12.0647 5.01794 11.2002 5.01794H4.7998Z" fill="white"/>
</g>
<defs>
<clipPath id="clip0_274_1752">
<rect width="16" height="16" fill="white"/>
</clipPath>
</defs>
</svg>
