<svg width="16" height="16" viewBox="0 0 16 16" fill="none" xmlns="http://www.w3.org/2000/svg">
<path d="M3.5 13V3.75H1.5C1.08579 3.75 0.75 3.41421 0.75 3C0.75 2.58579 1.08579 2.25 1.5 2.25H7C7.41421 2.25 7.75 2.58579 7.75 3C7.75 3.41421 7.41421 3.75 7 3.75H5V13C5 13.4142 4.66421 13.75 4.25 13.75C3.83579 13.75 3.5 13.4142 3.5 13Z" fill="white"/>
<path d="M13.417 5.41406C13.417 5.14795 13.3213 4.71826 13.0459 4.37207C12.7967 4.05893 12.352 3.75 11.5 3.75C10.6617 3.75 10.1854 4.07567 9.91406 4.43945C9.61858 4.83569 9.53061 5.32635 9.57617 5.65625C9.59481 5.79098 9.65878 6.01119 9.91699 6.26074C10.1869 6.52148 10.704 6.84718 11.6875 7.10156C13.1283 7.47419 14.0386 8.05939 14.584 8.73633C15.1334 9.41838 15.25 10.1155 15.25 10.5859C15.25 11.1171 15.0142 11.8968 14.4365 12.5488C13.8307 13.2326 12.8734 13.75 11.5 13.75C10.1266 13.75 9.16934 13.2326 8.56348 12.5488C7.98583 11.8968 7.75 11.1171 7.75 10.5859C7.75015 10.1718 8.08588 9.83594 8.5 9.83594C8.91412 9.83594 9.24985 10.1718 9.25 10.5859C9.25 10.7444 9.34767 11.1723 9.68652 11.5547C9.99737 11.9053 10.5403 12.25 11.5 12.25C12.4597 12.25 13.0026 11.9053 13.3135 11.5547C13.6523 11.1723 13.75 10.7444 13.75 10.5859C13.75 10.3667 13.6995 10.0298 13.416 9.67773C13.128 9.32025 12.5381 8.87072 11.3125 8.55371C10.1628 8.25638 9.38533 7.8328 8.875 7.33984C8.3535 6.83604 8.15114 6.29786 8.09082 5.86133C7.99352 5.15675 8.17168 4.26742 8.71191 3.54297C9.27634 2.78611 10.2051 2.25 11.5 2.25C12.7811 2.25 13.6698 2.74595 14.2207 3.43848C14.7451 4.09797 14.917 4.87566 14.917 5.41406C14.9168 5.82804 14.581 6.16389 14.167 6.16406C13.7529 6.16406 13.4171 5.82815 13.417 5.41406Z" fill="white"/>
</svg>
