<svg width="16" height="16" viewBox="0 0 16 16" fill="none" xmlns="http://www.w3.org/2000/svg">
<path d="M2.75 7.86816V1.5C2.75 1.08579 3.08579 0.75 3.5 0.75C3.91421 0.75 4.25 1.08579 4.25 1.5V7.86816C4.25 10.0324 5.94916 11.75 8 11.75C10.0508 11.75 11.75 10.0324 11.75 7.86816V1.5C11.75 1.08579 12.0858 0.75 12.5 0.75C12.9142 0.75 13.25 1.08579 13.25 1.5V7.86816C13.25 10.8198 10.9197 13.25 8 13.25C5.08028 13.25 2.75 10.8198 2.75 7.86816Z" fill="white"/>
<path d="M13.5 13.75C13.9142 13.75 14.25 14.0858 14.25 14.5C14.25 14.9142 13.9142 15.25 13.5 15.25H2.5C2.08579 15.25 1.75 14.9142 1.75 14.5C1.75 14.0858 2.08579 13.75 2.5 13.75H13.5Z" fill="white"/>
</svg>
