<svg width="16" height="16" viewBox="0 0 16 16" fill="none" xmlns="http://www.w3.org/2000/svg">
<g clip-path="url(#clip0_274_1452)">
<path d="M7.99993 3.91635C7.58572 3.91635 7.24993 3.58056 7.24993 3.16635C7.25011 2.75229 7.58583 2.41635 7.99993 2.41635C10.4403 2.41635 12.4638 4.09908 13.1298 6.37241L14.707 4.72006L14.7636 4.66733C15.0525 4.42059 15.4867 4.42772 15.7675 4.69565C16.0483 4.96372 16.0759 5.39752 15.8427 5.6976L15.7929 5.75619L13.1562 8.51791C12.9446 8.73954 12.6193 8.81042 12.3349 8.69662C12.0505 8.58266 11.8633 8.30673 11.8632 8.00034C11.8632 5.71191 10.1013 3.91635 7.99993 3.91635ZM7.99993 13.5833C5.55966 13.5833 3.53517 11.9014 2.86907 9.62827L1.2929 11.2796L1.23626 11.3324C0.947345 11.5793 0.513201 11.5721 0.232354 11.304C-0.0485042 11.0359 -0.0761902 10.6022 0.157159 10.3021L0.206963 10.2445L2.84368 7.48178C3.0553 7.26021 3.38053 7.19015 3.66497 7.30405C3.94951 7.41805 4.13665 7.69381 4.13665 8.00034C4.13682 10.2886 5.8987 12.0833 7.99993 12.0833C8.41415 12.0833 8.74993 12.4191 8.74993 12.8333C8.74993 13.2476 8.41415 13.5833 7.99993 13.5833Z" fill="white"/>
</g>
<defs>
<clipPath id="clip0_274_1452">
<rect width="16" height="16" fill="white"/>
</clipPath>
</defs>
</svg>
