<svg width="16" height="16" viewBox="0 0 16 16" fill="none" xmlns="http://www.w3.org/2000/svg">
<rect x="5.25" y="0.75" width="5.5" height="5.5" rx="2.75" stroke="white" stroke-width="1.5"/>
<path d="M12.25 14.5C12.25 13.535 12.2463 13.1619 12.1875 12.8662C11.9311 11.577 10.9231 10.5689 9.63381 10.3125C9.33817 10.2537 8.96503 10.25 8.00003 10.25C7.03502 10.25 6.66188 10.2537 6.36624 10.3125C5.07699 10.5689 4.06897 11.577 3.81253 12.8662C3.75376 13.1619 3.75003 13.535 3.75003 14.5C3.75003 14.9142 3.41424 15.25 3.00003 15.25C2.58581 15.25 2.25003 14.9142 2.25003 14.5C2.25003 13.6066 2.24595 13.0503 2.34085 12.5732C2.71565 10.689 4.18899 9.21562 6.07327 8.84082C6.55037 8.74591 7.10667 8.75 8.00003 8.75C8.89338 8.75 9.44968 8.74591 9.92678 8.84082C11.8111 9.21562 13.2844 10.689 13.6592 12.5732C13.7541 13.0503 13.75 13.6066 13.75 14.5C13.75 14.9142 13.4142 15.25 13 15.25C12.5858 15.25 12.25 14.9142 12.25 14.5Z" fill="white"/>
</svg>
