<svg width="16" height="16" viewBox="0 0 16 16" fill="none" xmlns="http://www.w3.org/2000/svg">
<g clip-path="url(#clip0_274_1734)">
<rect x="3.5" y="0.75" width="5.5" height="5.5" rx="2.75" stroke="white" stroke-width="1.5"/>
<path d="M10.25 14.5C10.25 14.018 10.2491 13.8313 10.2344 13.6817C10.0824 12.1386 8.8614 10.9176 7.31837 10.7656C7.16876 10.7509 6.98199 10.75 6.50001 10.75H6.00001C5.51804 10.75 5.33127 10.7509 5.18165 10.7656C3.63863 10.9176 2.41761 12.1386 2.26564 13.6817C2.25092 13.8313 2.25001 14.018 2.25001 14.5C2.25001 14.9142 1.91423 15.25 1.50001 15.25C1.0858 15.25 0.750013 14.9142 0.750013 14.5C0.750013 14.0535 0.748691 13.7757 0.772474 13.5342C0.994669 11.2792 2.77916 9.49467 5.03419 9.27247C5.27566 9.24869 5.55352 9.25001 6.00001 9.25001H6.50001C6.94651 9.25001 7.22436 9.24869 7.46583 9.27247C9.72087 9.49467 11.5054 11.2792 11.7276 13.5342C11.7513 13.7757 11.75 14.0535 11.75 14.5C11.75 14.9142 11.4142 15.25 11 15.25C10.5858 15.25 10.25 14.9142 10.25 14.5Z" fill="white"/>
<path d="M13.75 13.1875C13.75 11.7378 12.5747 10.5625 11.125 10.5625C10.7108 10.5625 10.375 10.2267 10.375 9.8125C10.375 9.39829 10.7108 9.0625 11.125 9.0625C13.4032 9.0625 15.25 10.9093 15.25 13.1875C15.25 13.6017 14.9142 13.9375 14.5 13.9375C14.0858 13.9375 13.75 13.6017 13.75 13.1875Z" fill="white"/>
<path d="M12.4375 4.375C12.4375 3.65013 11.8499 3.0625 11.125 3.0625H10.9375C10.5233 3.0625 10.1875 2.72671 10.1875 2.3125C10.1875 1.89829 10.5233 1.5625 10.9375 1.5625H11.125C12.6783 1.5625 13.9375 2.8217 13.9375 4.375C13.9375 5.9283 12.6783 7.1875 11.125 7.1875H10.9375C10.5233 7.1875 10.1875 6.85171 10.1875 6.4375C10.1875 6.02329 10.5233 5.6875 10.9375 5.6875H11.125C11.8499 5.6875 12.4375 5.09987 12.4375 4.375Z" fill="white"/>
</g>
<defs>
<clipPath id="clip0_274_1734">
<rect width="16" height="16" fill="white"/>
</clipPath>
</defs>
</svg>
