<svg width="16" height="16" viewBox="0 0 16 16" fill="none" xmlns="http://www.w3.org/2000/svg">
<g clip-path="url(#clip0_274_2334)">
<path d="M9.00603 0.85611C10.2076 0.77114 11.3253 1.47802 11.7629 2.60024C11.8076 2.71515 11.8428 2.84083 11.8761 2.98208C12.0211 3.01125 12.1632 3.05117 12.3029 3.10903C12.9766 3.38812 13.5121 3.92366 13.7912 4.59731C13.9115 4.88765 13.958 5.18748 13.9797 5.50453C13.9926 5.69379 13.9964 5.90875 13.9982 6.15101C14.1318 6.15285 14.2564 6.1575 14.3683 6.16663C14.5813 6.18406 14.815 6.22323 15.0451 6.34046C15.3742 6.5082 15.642 6.77604 15.8097 7.10511C15.927 7.33529 15.9661 7.56882 15.9836 7.78186C16.0003 7.98614 16.0002 8.23214 16.0002 8.49963V9.30041C16.0002 9.56791 16.0003 9.8139 15.9836 10.0182C15.9661 10.2312 15.927 10.4648 15.8097 10.6949C15.642 11.024 15.3742 11.2918 15.0451 11.4596C14.815 11.5768 14.5813 11.616 14.3683 11.6334C14.1641 11.6501 13.918 11.65 13.6506 11.65H14.0002C14.0002 12.1057 14.0008 12.4852 13.9797 12.7955C13.958 13.1126 13.9115 13.4124 13.7912 13.7027C13.5121 14.3764 12.9766 14.9119 12.3029 15.191C12.0126 15.3112 11.7127 15.3579 11.3957 15.3795C11.0853 15.4007 10.7058 15.4 10.2502 15.4H3.95037C3.40277 15.4 2.94645 15.401 2.57537 15.3707C2.1957 15.3397 1.83921 15.2719 1.50212 15.1002C0.984743 14.8365 0.563602 14.4154 0.299975 13.898C0.12829 13.5609 0.0604962 13.2045 0.0294667 12.8248C-0.000854211 12.4537 0.000169824 11.9975 0.000169824 11.4498V6.85023C0.000169823 6.78649 0.00112314 6.72399 0.00114639 6.66273C0.00107616 6.6585 0.000169824 6.65427 0.000169824 6.65003V6.14808C0.000164769 5.32463 -0.0138968 4.69103 0.215014 4.14614C0.404394 3.69552 0.710504 3.30341 1.10173 3.0104C1.5749 2.6561 2.19334 2.51582 2.99236 2.31606L8.0949 1.04068C8.4686 0.947253 8.74981 0.874303 9.00603 0.85611ZM3.95037 4.40004C3.37804 4.40004 2.99328 4.40028 2.69744 4.42445C2.41056 4.44792 2.27331 4.49064 2.18279 4.53676C1.94774 4.65659 1.75669 4.84759 1.63689 5.08265C1.59077 5.1732 1.54804 5.31038 1.52458 5.5973C1.50041 5.89318 1.50017 6.27781 1.50017 6.85023V11.4498C1.50017 12.0222 1.50041 12.4069 1.52458 12.7027C1.54804 12.9897 1.59077 13.1268 1.63689 13.2174C1.75669 13.4525 1.94774 13.6435 2.18279 13.7633C2.27331 13.8094 2.41056 13.8521 2.69744 13.8756C2.99328 13.8998 3.37804 13.9 3.95037 13.9H10.2502C10.7261 13.9 11.0457 13.8993 11.2931 13.8824C11.5337 13.866 11.6515 13.8372 11.7287 13.8053C12.035 13.6784 12.2786 13.4348 12.4054 13.1285C12.4374 13.0514 12.4662 12.9337 12.4826 12.693C12.4995 12.4455 12.5002 12.126 12.5002 11.65H12.8498C12.5824 11.65 12.3362 11.6501 12.132 11.6334C11.919 11.616 11.6854 11.5768 11.4552 11.4596C11.1262 11.2918 10.8583 11.024 10.6906 10.6949C10.5733 10.4648 10.5342 10.2312 10.5168 10.0182C10.5001 9.81391 10.5002 9.5679 10.5002 9.30041V8.49963C10.5002 8.23214 10.5001 7.98614 10.5168 7.78186C10.5342 7.56884 10.5733 7.33527 10.6906 7.10511C10.8583 6.77605 11.1262 6.50821 11.4552 6.34046C11.6854 6.22321 11.919 6.18407 12.132 6.16663C12.2425 6.1576 12.3655 6.15289 12.4972 6.15101C12.4954 5.93126 12.4928 5.75608 12.4826 5.60707C12.4662 5.36636 12.4374 5.24867 12.4054 5.17152C12.2786 4.86527 12.0349 4.62162 11.7287 4.49477C11.6515 4.46284 11.5337 4.43403 11.2931 4.41762C11.0457 4.40076 10.7261 4.40004 10.2502 4.40004H3.95037ZM12.8498 7.65003C12.5577 7.65003 12.3831 7.65023 12.2541 7.66077C12.1345 7.67058 12.1207 7.68555 12.1369 7.67737C12.0899 7.70134 12.0515 7.73975 12.0275 7.78674C12.0359 7.77037 12.0207 7.78388 12.0109 7.90393C12.0004 8.033 12.0002 8.20748 12.0002 8.49963V9.30041C12.0002 9.59256 12.0004 9.76704 12.0109 9.89611C12.0207 10.0162 12.0359 10.0297 12.0275 10.0133C12.0515 10.0603 12.0899 10.0987 12.1369 10.1227C12.1207 10.1145 12.1345 10.1295 12.2541 10.1393C12.3831 10.1498 12.5577 10.15 12.8498 10.15H13.6506C13.9426 10.15 14.1172 10.1498 14.2463 10.1393C14.3663 10.1294 14.3798 10.1143 14.3635 10.1227C14.4105 10.0987 14.4489 10.0603 14.4728 10.0133C14.4646 10.0296 14.4796 10.016 14.4894 9.89611C14.5 9.76704 14.5002 9.59257 14.5002 9.30041V8.49963C14.5002 8.20747 14.5 8.033 14.4894 7.90393C14.4796 7.78407 14.4646 7.77048 14.4728 7.78674C14.4489 7.73974 14.4105 7.70133 14.3635 7.67737C14.3798 7.68572 14.3663 7.6706 14.2463 7.66077C14.1172 7.65024 13.9426 7.65003 13.6506 7.65003H12.8498ZM9.11248 2.3522C9.02013 2.35875 8.89531 2.38672 8.45916 2.49575L6.84294 2.90005H10.2365C9.99044 2.53559 9.56465 2.32032 9.11248 2.3522Z" fill="white"/>
</g>
<defs>
<clipPath id="clip0_274_2334">
<rect width="16" height="16" fill="white"/>
</clipPath>
</defs>
</svg>
