<svg width="16" height="16" viewBox="0 0 16 16" fill="none" xmlns="http://www.w3.org/2000/svg">
<g clip-path="url(#clip0_274_1406)">
<path d="M13.7501 5.72656C13.7501 4.91768 13.7391 4.70004 13.6759 4.52441C13.6107 4.34319 13.5043 4.17929 13.3654 4.0459C13.2307 3.91676 13.0362 3.81861 12.298 3.48925L8.99818 2.0166C8.48329 1.78688 8.34318 1.73075 8.20912 1.708C8.07088 1.68458 7.92939 1.68458 7.79115 1.708C7.6571 1.73075 7.51698 1.78688 7.00209 2.0166L3.70228 3.48925C2.96409 3.8186 2.76954 3.91676 2.6349 4.0459C2.49595 4.17928 2.3896 4.34319 2.32435 4.52441C2.26117 4.70004 2.25014 4.91768 2.25014 5.72656V10.2734C2.25014 11.0823 2.26117 11.3 2.32435 11.4756C2.3896 11.6568 2.49595 11.8207 2.6349 11.9541C2.76954 12.0832 2.96408 12.1814 3.70228 12.5107L7.00209 13.9834C7.51698 14.2131 7.6571 14.2692 7.79115 14.292C7.92939 14.3154 8.07088 14.3154 8.20912 14.292C8.34318 14.2692 8.48329 14.2131 8.99818 13.9834L12.298 12.5107C13.0362 12.1814 13.2307 12.0832 13.3654 11.9541C13.5043 11.8207 13.6107 11.6568 13.6759 11.4756C13.7391 11.3 13.7501 11.0823 13.7501 10.2734V5.72656ZM15.2501 10.2734C15.2501 10.9678 15.261 11.5026 15.088 11.9834C14.9445 12.3823 14.7102 12.7425 14.4044 13.0361C14.0358 13.3899 13.5434 13.598 12.9093 13.8809L9.60951 15.3535C9.16474 15.552 8.8241 15.7096 8.45912 15.7715C8.1553 15.8229 7.84497 15.8229 7.54115 15.7715C7.17617 15.7096 6.83553 15.552 6.39076 15.3535L3.09096 13.8809C2.45688 13.598 1.96444 13.3899 1.59584 13.0361C1.29002 12.7425 1.05577 12.3823 0.912245 11.9834C0.739266 11.5026 0.750135 10.9678 0.750135 10.2734V5.72656C0.750135 5.03217 0.739266 4.49741 0.912245 4.0166C1.05577 3.61771 1.29002 3.25745 1.59584 2.96386C1.96444 2.61006 2.45689 2.40203 3.09096 2.11914L6.39076 0.646481C6.83553 0.448044 7.17618 0.290359 7.54115 0.228512C7.84497 0.177084 8.1553 0.177085 8.45912 0.228512C8.8241 0.290359 9.16474 0.448044 9.60951 0.646481L12.9093 2.11914C13.5434 2.40203 14.0358 2.61005 14.4044 2.96386C14.7103 3.25745 14.9445 3.6177 15.088 4.0166C15.261 4.49741 15.2501 5.03217 15.2501 5.72656V10.2734Z" fill="white"/>
<rect x="7.25" y="4" width="1.5" height="4.5" rx="0.75" fill="white"/>
<rect x="7.25" y="10.5" width="1.5" height="1.5" rx="0.75" fill="white"/>
</g>
<defs>
<clipPath id="clip0_274_1406">
<rect width="16" height="16" fill="white"/>
</clipPath>
</defs>
</svg>
