<svg width="16" height="16" viewBox="0 0 16 16" fill="none" xmlns="http://www.w3.org/2000/svg">
<g clip-path="url(#clip0_274_1316)">
<path d="M12.3125 0.00488281C13.2877 0.0202065 13.881 0.0819019 14.3623 0.327148C14.9265 0.614723 15.3853 1.07347 15.6729 1.6377C15.9998 2.27941 16 3.11978 16 4.7998V11.2002L15.9951 12.3125C15.9798 13.2877 15.9181 13.881 15.6729 14.3623L15.5576 14.5684C15.2694 15.0383 14.8562 15.4211 14.3623 15.6729L14.2393 15.7305C13.7793 15.9281 13.2066 15.9811 12.3125 15.9951L11.2002 16H4.7998C3.11978 16 2.27941 15.9998 1.6377 15.6729C1.14381 15.4211 0.730572 15.0383 0.442383 14.5684L0.327148 14.3623C0.0819019 13.881 0.0202065 13.2877 0.00488281 12.3125L0 11.2002V4.7998C4.61195e-10 3.22468 6.84261e-05 2.38795 0.269531 1.76074L0.327148 1.6377C0.578875 1.14381 0.961662 0.730572 1.43164 0.442383L1.6377 0.327148C2.27941 0.000180662 3.11978 4.91912e-10 4.7998 0H11.2002L12.3125 0.00488281ZM4.7998 1.5C3.93534 1.5 3.37708 1.50144 2.95215 1.53613C2.54542 1.56936 2.39365 1.6253 2.31934 1.66309C2.03709 1.8069 1.8069 2.03709 1.66309 2.31934C1.6253 2.39365 1.56936 2.54542 1.53613 2.95215C1.50144 3.37708 1.5 3.93534 1.5 4.7998V11.2002C1.5 12.0647 1.50144 12.6229 1.53613 13.0479C1.56936 13.4546 1.6253 13.6063 1.66309 13.6807C1.8069 13.9629 2.03709 14.1931 2.31934 14.3369C2.38506 14.3703 2.51161 14.4157 2.82129 14.4492V10C2.82129 9.58587 3.15719 9.25013 3.57129 9.25C3.9855 9.25 4.32129 9.58579 4.32129 10V14.4971C4.4697 14.4974 4.62876 14.5 4.7998 14.5H5.77441V10C5.77441 9.58579 6.1102 9.25 6.52441 9.25C6.9384 9.25026 7.27441 9.58595 7.27441 10V14.5H8.72656V10C8.72656 9.58579 9.06235 9.25 9.47656 9.25C9.89055 9.25026 10.2266 9.58595 10.2266 10V14.5H11.2002C11.3712 14.5 11.5303 14.4974 11.6787 14.4971V10C11.6787 9.58579 12.0145 9.25 12.4287 9.25C12.8428 9.25013 13.1787 9.58587 13.1787 10V14.4492C13.4884 14.4157 13.6149 14.3703 13.6807 14.3369C13.9629 14.1931 14.1931 13.9629 14.3369 13.6807C14.3747 13.6063 14.4306 13.4546 14.4639 13.0479C14.4986 12.6229 14.5 12.0647 14.5 11.2002V4.7998C14.5 3.93534 14.4986 3.37708 14.4639 2.95215C14.4306 2.54542 14.3747 2.39365 14.3369 2.31934C14.1931 2.03709 13.9629 1.8069 13.6807 1.66309C13.6063 1.6253 13.4546 1.56936 13.0479 1.53613C12.6229 1.50144 12.0647 1.5 11.2002 1.5H4.7998ZM12.5 2.75C12.9142 2.75 13.25 3.08579 13.25 3.5C13.25 3.91421 12.9142 4.25 12.5 4.25H8C7.5859 4.24987 7.25 3.91413 7.25 3.5C7.25 3.08587 7.5859 2.75013 8 2.75H12.5Z" fill="white"/>
</g>
<defs>
<clipPath id="clip0_274_1316">
<rect width="16" height="16" fill="white"/>
</clipPath>
</defs>
</svg>
