<svg width="16" height="16" viewBox="0 0 16 16" fill="none" xmlns="http://www.w3.org/2000/svg">
<g clip-path="url(#clip0_274_1820)">
<path d="M8.02868 5.25021C10.0016 5.25022 11.892 6.05864 13.3754 7.50119C13.6722 7.78989 13.6795 8.26478 13.391 8.56174C13.1022 8.85867 12.6264 8.86518 12.3295 8.57639C11.104 7.38467 9.58104 6.75022 8.02868 6.75021C6.47618 6.75021 4.95246 7.38445 3.72693 8.57639C3.42998 8.86504 2.95513 8.85862 2.66638 8.56174C2.37784 8.26479 2.38516 7.7899 2.682 7.50119C4.16534 6.05864 6.05582 5.25021 8.02868 5.25021Z" fill="white"/>
<path d="M7.99999 1.25C10.7082 1.25 13.3097 2.33222 15.3808 4.27539L15.7881 4.67578L15.8389 4.7334C16.0748 5.03141 16.051 5.46574 15.7724 5.73633C15.4754 6.02493 15.0005 6.01778 14.7119 5.7207C12.8386 3.79267 10.4501 2.75 7.99999 2.75C5.54983 2.75 3.16142 3.79267 1.28807 5.7207C0.999448 6.01778 0.524617 6.02493 0.227528 5.73633C-0.0695498 5.4477 -0.0767055 4.97287 0.211903 4.67578C2.34373 2.48155 5.11117 1.25 7.99999 1.25Z" fill="white"/>
<path d="M8.00178 9.25009C9.04078 9.25009 10.0405 9.62818 10.8621 10.3097C11.1809 10.5741 11.2252 11.0475 10.9608 11.3663C10.7128 11.6652 10.2812 11.7228 9.96565 11.5108L9.90413 11.4649L9.68635 11.2979C9.16835 10.9352 8.58584 10.7501 8.00178 10.7501C7.3343 10.7502 6.66901 10.9924 6.09944 11.4649C5.7807 11.729 5.30815 11.6848 5.04378 11.3663C4.77931 11.0475 4.82361 10.5741 5.14241 10.3097C5.96389 9.62832 6.96297 9.25019 8.00178 9.25009Z" fill="white"/>
<path d="M8.00684 13.25L8.08301 13.2539C8.46122 13.2923 8.75684 13.6116 8.75684 14C8.75684 14.3883 8.46122 14.7077 8.08301 14.7461L8.00684 14.75H8C7.58579 14.75 7.25 14.4142 7.25 14C7.25 13.5858 7.58579 13.25 8 13.25H8.00684Z" fill="white"/>
</g>
<defs>
<clipPath id="clip0_274_1820">
<rect width="16" height="16" fill="white"/>
</clipPath>
</defs>
</svg>
