<svg width="16" height="16" viewBox="0 0 16 16" fill="none" xmlns="http://www.w3.org/2000/svg">
<g clip-path="url(#clip0_274_2271)">
<path d="M9.45215 10.2497C9.81351 10.2488 10.17 10.3373 10.4893 10.5066C10.8093 10.6764 11.0822 10.9227 11.2842 11.2234C11.4863 11.5243 11.6114 11.8705 11.6475 12.2312C11.6835 12.5918 11.6297 12.9558 11.4912 13.2908C11.3527 13.6257 11.1337 13.9212 10.8535 14.1511C10.5732 14.381 10.2404 14.5388 9.88477 14.6091C9.52929 14.6794 9.16198 14.6603 8.81543 14.5544C8.512 14.4617 8.23241 14.3046 7.99609 14.0945L7.89746 14.0017L7.84668 13.9441C7.60738 13.6489 7.62527 13.2149 7.90039 12.9412C8.17573 12.6674 8.61043 12.6513 8.9043 12.8923L8.96094 12.9441L9.02539 13.0017C9.09299 13.0547 9.17031 13.0946 9.25293 13.1199C9.36323 13.1536 9.4806 13.1598 9.59375 13.1374C9.70694 13.1151 9.81313 13.0651 9.90234 12.9919C9.99154 12.9188 10.0614 12.8241 10.1055 12.7175C10.1494 12.611 10.1667 12.4953 10.1553 12.3806C10.1438 12.2659 10.1033 12.156 10.0391 12.0603C9.97475 11.9645 9.88803 11.8858 9.78613 11.8318C9.6842 11.7777 9.57046 11.7493 9.45508 11.7497H0.75C0.335786 11.7497 0 11.414 0 10.9997C0.000135519 10.5856 0.33587 10.2497 0.75 10.2497H9.45215ZM12.6953 3.73412C13.0984 3.61223 13.5255 3.59121 13.9385 3.67357C14.3514 3.75595 14.738 3.93862 15.0635 4.2058C15.389 4.47301 15.6434 4.81676 15.8047 5.2058C15.9659 5.59468 16.0292 6.01731 15.9883 6.43627C15.9473 6.85541 15.803 7.25871 15.5693 7.60912C15.3357 7.95938 15.0195 8.24705 14.6484 8.44603C14.2773 8.64503 13.8625 8.74899 13.4414 8.74975H0.75C0.335786 8.74975 0 8.41396 0 7.99975C0.000136291 7.58565 0.335871 7.24975 0.75 7.24975H13.4395C13.614 7.24936 13.7857 7.20625 13.9395 7.12377C14.0932 7.04128 14.2244 6.92225 14.3213 6.77709C14.4181 6.63181 14.4781 6.46454 14.4951 6.29076C14.5121 6.11693 14.4858 5.94136 14.4189 5.78002C14.3521 5.61874 14.2463 5.47675 14.1113 5.36596C13.9763 5.25514 13.8158 5.17844 13.6445 5.14428C13.4735 5.11026 13.2968 5.11927 13.1299 5.16967C12.9628 5.2202 12.8102 5.31105 12.6865 5.43432C12.3933 5.72679 11.9185 5.72645 11.626 5.43334C11.3335 5.14015 11.3339 4.66533 11.627 4.37279C11.9251 4.07539 12.2922 3.85602 12.6953 3.73412ZM6.63965 1.44506C6.98618 1.3392 7.35352 1.32112 7.70898 1.39135C8.06455 1.46164 8.39748 1.61855 8.67773 1.84838C8.95794 2.0782 9.1769 2.37386 9.31543 2.70873C9.45391 3.04363 9.50769 3.4077 9.47168 3.7683C9.43562 4.12885 9.31134 4.47527 9.10938 4.77611C8.90725 5.07704 8.63375 5.32406 8.31348 5.49389C7.99411 5.66323 7.63782 5.74978 7.27637 5.74877L0.75 5.74975C0.335786 5.74975 0 5.41396 0 4.99975C0.000131912 4.58564 0.335868 4.24975 0.75 4.24975H7.2793C7.39455 4.25023 7.5085 4.22263 7.61035 4.16869C7.71229 4.11464 7.79992 4.03596 7.86426 3.94018C7.92844 3.84456 7.96795 3.73444 7.97949 3.61986C7.99098 3.50505 7.97378 3.3886 7.92969 3.28197C7.88561 3.17543 7.8157 3.08167 7.72656 3.00853C7.63735 2.93536 7.53116 2.8854 7.41797 2.86303C7.30498 2.84074 7.18827 2.84602 7.07812 2.87963C6.96778 2.91335 6.86748 2.97456 6.78613 3.05639L5.72168 1.99877C5.97725 1.74168 6.29296 1.55101 6.63965 1.44506ZM6.78613 3.05639C6.4942 3.34995 6.01934 3.35101 5.72559 3.05932C5.43195 2.76741 5.43003 2.29256 5.72168 1.99877L6.78613 3.05639Z" fill="white"/>
</g>
<defs>
<clipPath id="clip0_274_2271">
<rect width="16" height="16" fill="white"/>
</clipPath>
</defs>
</svg>
