<svg width="16" height="16" viewBox="0 0 16 16" fill="none" xmlns="http://www.w3.org/2000/svg">
<g clip-path="url(#clip0_274_2206)">
<path d="M8.70947 4.56767C8.70952 4.17188 8.86416 3.79181 9.14111 3.50908L11.1216 1.52763C10.7436 1.48234 10.3588 1.49279 9.97998 1.56181C9.21449 1.70129 8.50967 2.07119 7.95947 2.62138C7.40932 3.17155 7.04036 3.87645 6.90088 4.64189C6.7614 5.40738 6.85841 6.19765 7.1792 6.90654C7.30761 7.1908 7.24642 7.52478 7.02588 7.74541L1.75342 13.0179C1.59074 13.1807 1.49951 13.4019 1.49951 13.6321C1.4996 13.8623 1.59062 14.0836 1.75342 14.2464C1.91622 14.4092 2.13746 14.5002 2.36768 14.5003C2.59786 14.5003 2.81909 14.4091 2.98193 14.2464L8.25439 8.97392L8.34229 8.89873C8.5579 8.74117 8.84459 8.70827 9.09326 8.8206C9.80215 9.14139 10.5924 9.2384 11.3579 9.09892C12.1233 8.95944 12.8282 8.59048 13.3784 8.04033C13.9286 7.49013 14.2985 6.78531 14.438 6.01982C14.5071 5.64066 14.5166 5.25555 14.4712 4.87724L12.4907 6.85869C12.208 7.13564 11.8279 7.29028 11.4321 7.29033C11.0361 7.29033 10.6554 7.13587 10.3726 6.85869L10.3677 6.85283L9.14697 5.63212L9.14111 5.62724C8.86393 5.34443 8.70947 4.96367 8.70947 4.56767ZM10.2124 4.57646L11.4233 5.7874L11.4321 5.79033C11.4354 5.79028 11.4386 5.7896 11.4409 5.7874L14.312 2.9163L14.3804 2.85576C14.5479 2.72465 14.7649 2.66965 14.9771 2.7083C15.2192 2.75248 15.4244 2.91276 15.5259 3.13701C15.9723 4.12361 16.1076 5.22299 15.9136 6.28837C15.7194 7.35385 15.2048 8.33507 14.439 9.10087C13.6732 9.86666 12.6919 10.3814 11.6265 10.5755C10.7354 10.7378 9.821 10.668 8.96826 10.3802L4.04248 15.3069C3.59833 15.7509 2.99569 16.0003 2.36768 16.0003C1.73963 16.0002 1.13697 15.751 0.692871 15.3069C0.24877 14.8628 -0.000404449 14.2602 -0.000488281 13.6321C-0.000488281 13.0041 0.248893 12.4015 0.692871 11.9573L5.61865 7.03056C5.33114 6.17816 5.2621 5.26402 5.42432 4.37333C5.61844 3.30788 6.13314 2.32664 6.89893 1.56083C7.66473 0.795029 8.64595 0.280357 9.71143 0.0862254C10.7768 -0.107831 11.8762 0.0274634 12.8628 0.473921C13.087 0.575396 13.2473 0.780621 13.2915 1.02275C13.3356 1.26497 13.2576 1.51369 13.0835 1.68779L10.2153 4.55693L10.2114 4.55888C10.2095 4.56117 10.2095 4.56466 10.2095 4.56767C10.2095 4.57087 10.2103 4.57409 10.2124 4.57646Z" fill="white"/>
</g>
<defs>
<clipPath id="clip0_274_2206">
<rect width="16" height="16" fill="white"/>
</clipPath>
</defs>
</svg>
