<svg width="16" height="16" viewBox="0 0 16 16" fill="none" xmlns="http://www.w3.org/2000/svg">
<g clip-path="url(#clip0_274_2533)">
<rect x="0.75" y="0.75" width="14.5" height="14.5" rx="3.25" stroke="white" stroke-width="1.5"/>
<path d="M9.71967 5.21973C10.0126 4.92684 10.4873 4.92684 10.7802 5.21973C11.0731 5.51262 11.0731 5.98738 10.7802 6.28028L9.06049 8L10.7802 9.71973L10.832 9.77637C11.0723 10.071 11.0548 10.5057 10.7802 10.7803C10.5056 11.0549 10.0709 11.0723 9.77631 10.832L9.71967 10.7803L7.99994 9.06055L6.28022 10.7803C5.98732 11.0732 5.51256 11.0732 5.21967 10.7803C4.92678 10.4874 4.92678 10.0126 5.21967 9.71973L6.9394 8L5.21967 6.28028C4.92678 5.98738 4.92678 5.51262 5.21967 5.21973C5.51256 4.92684 5.98732 4.92684 6.28022 5.21973L7.99994 6.93946L9.71967 5.21973Z" fill="white"/>
</g>
<defs>
<clipPath id="clip0_274_2533">
<rect width="16" height="16" fill="white"/>
</clipPath>
</defs>
</svg>
