<svg width="16" height="16" viewBox="0 0 16 16" fill="none" xmlns="http://www.w3.org/2000/svg">
<path d="M13.4697 1.46973C13.7626 1.17684 14.2373 1.17684 14.5302 1.46973C14.8231 1.76262 14.8231 2.23738 14.5302 2.53028L9.06049 8L14.5302 13.4697L14.582 13.5264C14.8223 13.821 14.8048 14.2557 14.5302 14.5303C14.2556 14.8049 13.8209 14.8223 13.5263 14.582L13.4697 14.5303L7.99994 9.06055L2.53022 14.5303C2.23732 14.8232 1.76256 14.8232 1.46967 14.5303C1.17678 14.2374 1.17678 13.7626 1.46967 13.4697L6.9394 8L1.46967 2.53028C1.17678 2.23738 1.17678 1.76262 1.46967 1.46973C1.76256 1.17684 2.23732 1.17684 2.53022 1.46973L7.99994 6.93946L13.4697 1.46973Z" fill="white"/>
</svg>
