<svg width="16" height="16" viewBox="0 0 16 16" fill="none" xmlns="http://www.w3.org/2000/svg">
<path d="M9.63163 1.56232C10.3405 1.29104 11.1153 1.24479 11.8514 1.42951C12.4178 1.5717 12.9394 1.84631 13.3768 2.22639C13.8862 2.03378 14.3703 1.77822 14.8162 1.46272C15.0713 1.2822 15.4121 1.27859 15.6707 1.45393C15.9294 1.62962 16.0521 1.94787 15.9783 2.25178C15.7522 3.18306 15.3014 4.04197 14.6687 4.75568C14.6767 4.85275 14.6811 4.95019 14.6814 5.04768V5.04963C14.6814 9.11244 12.7303 12.103 9.91874 13.6043C7.12505 15.096 3.55825 15.0771 0.384563 13.3084C0.0814228 13.1394 -0.0658514 12.7842 0.0281181 12.45C0.122229 12.116 0.43333 11.8903 0.780071 11.9041C1.82199 11.9456 2.85335 11.7486 3.80058 11.3377C2.87152 10.7366 2.19146 10.0322 1.71171 9.27229C1.04055 8.20904 0.787689 7.0839 0.741985 6.076C0.696452 5.07112 0.855386 4.16662 1.02226 3.51936C1.10605 3.19442 1.19333 2.92952 1.26054 2.74299C1.29422 2.64955 1.32336 2.5747 1.34452 2.52229C1.35497 2.49643 1.36353 2.47583 1.36992 2.46076C1.37306 2.45335 1.3757 2.44688 1.37773 2.44221C1.37869 2.43999 1.37997 2.43792 1.38066 2.43635L1.38163 2.43342C1.38179 2.43306 1.3822 2.43234 1.95781 2.68732L1.38261 2.43244C1.4922 2.18509 1.72662 2.01525 1.99589 1.98908C2.2649 1.96312 2.52733 2.08414 2.68242 2.30549C3.27743 3.15542 4.07257 3.84465 4.99687 4.31135C5.70358 4.66818 6.46922 4.88578 7.25273 4.95686C7.26686 4.23995 7.48577 3.54119 7.88847 2.94611C8.3142 2.31711 8.92275 1.83374 9.63163 1.56232ZM11.4861 2.88459C11.0489 2.77488 10.5889 2.80246 10.1678 2.96369C9.74654 3.12497 9.38438 3.41204 9.13066 3.78693C8.87699 4.16177 8.74383 4.60592 8.7498 5.0594V5.73127C8.74968 6.13778 8.42573 6.47069 8.01933 6.48127C6.73705 6.51462 5.46664 6.2286 4.32109 5.65022C3.6079 5.29012 2.95699 4.82333 2.38945 4.26838C2.28699 4.76441 2.21098 5.36593 2.24003 6.00764C2.27673 6.81762 2.47782 7.67554 2.98027 8.4715C3.47979 9.2627 4.30597 10.0387 5.66874 10.6463C5.91714 10.7571 6.08592 10.9936 6.11015 11.2645C6.13429 11.5352 6.01052 11.7979 5.78593 11.951C5.1368 12.393 4.43293 12.7384 3.69706 12.9822C5.65975 13.4092 7.60653 13.1381 9.21171 12.2811C11.5075 11.0553 13.1806 8.59162 13.1814 5.05256L13.1717 4.8465C13.1651 4.77784 13.1553 4.70925 13.1424 4.64143C13.0957 4.39625 13.174 4.14418 13.3514 3.96857C13.4215 3.89918 13.4885 3.82647 13.5535 3.75275C13.5013 3.7697 13.4498 3.78864 13.3973 3.80451C13.1144 3.88996 12.8078 3.80106 12.6141 3.57795C12.3177 3.23615 11.9234 2.99436 11.4861 2.88459Z" fill="white"/>
</svg>
