<svg width="16" height="16" viewBox="0 0 16 16" fill="none" xmlns="http://www.w3.org/2000/svg">
<g clip-path="url(#clip0_274_1475)">
<path d="M4.10888 0C4.67853 0 5.21279 0.277233 5.54052 0.743164L9.07274 5.76562L14.2778 0.236328C14.5617 -0.0652819 15.0358 -0.0797265 15.3374 0.204102C15.639 0.48797 15.6534 0.962039 15.3696 1.26367L9.9536 7.01855L14.3296 13.2432C15.1449 14.4027 14.3154 16 12.8979 16H11.0386C10.4689 16 9.93465 15.7228 9.60692 15.2568L6.43895 10.752L1.72313 15.7637L1.66747 15.8174C1.3803 16.0664 0.945344 16.062 0.662587 15.7959C0.361192 15.5121 0.346776 15.0379 0.630361 14.7363L5.5581 9.49902L0.817861 2.75684C0.00257072 1.59731 0.832037 0 2.2495 0H4.10888ZM2.2495 1.5C2.04714 1.5 1.92834 1.72793 2.04442 1.89355L10.8335 14.3936C10.8803 14.4601 10.9572 14.5 11.0386 14.5H12.8979C13.1003 14.5 13.2191 14.2721 13.103 14.1064L4.31395 1.60645C4.26714 1.53986 4.19027 1.5 4.10888 1.5H2.2495Z" fill="white"/>
</g>
<defs>
<clipPath id="clip0_274_1475">
<rect width="16" height="16" fill="white"/>
</clipPath>
</defs>
</svg>
