<svg width="16" height="16" viewBox="0 0 16 16" fill="none" xmlns="http://www.w3.org/2000/svg">
<path d="M7.99713 3.00757C9.72228 3.00827 10.9791 2.99323 12.7257 3.84351C13.4321 4.18744 14.2006 4.62299 14.8116 5.20484C15.4339 5.79751 15.9218 6.57241 15.9844 7.57105C16.0479 8.58291 15.9298 9.81008 15.336 11.0378C14.7956 12.1551 13.6605 12.6838 12.628 12.8357L11.7774 12.9607C10.6452 13.127 9.51717 12.6328 8.87116 11.6882L8.80866 11.5974C8.72575 11.4762 8.61692 11.3749 8.4903 11.3005C8.17819 11.1172 7.79166 11.1172 7.47956 11.3005C7.35292 11.3749 7.24411 11.4762 7.1612 11.5974L7.0987 11.6882C6.45224 12.6333 5.32297 13.1264 4.19049 12.9578L3.36725 12.8347C2.34854 12.6828 1.23398 12.1606 0.6944 11.0652C0.0880445 9.83405 -0.042428 8.60141 0.0108066 7.58472C0.0631322 6.58573 0.544539 5.80683 1.16315 5.2107C1.77034 4.62565 2.53712 4.18776 3.2442 3.84351C4.99117 2.99302 6.26292 3.00687 7.99713 3.00757ZM7.99616 4.50757C6.26634 4.50687 5.30872 4.5071 3.90143 5.19214C3.24146 5.51344 2.64161 5.86934 2.20417 6.29077C1.77808 6.70138 1.53613 7.1432 1.50885 7.66285C1.4654 8.49236 1.57402 9.45574 2.0401 10.4021C2.28457 10.8985 2.85172 11.2415 3.58795 11.3513L4.4112 11.4734C4.97568 11.5576 5.53922 11.3127 5.86139 10.8416L5.92292 10.7507C6.13045 10.4473 6.40282 10.1928 6.71979 10.0066C7.50082 9.54787 8.46905 9.54787 9.25006 10.0066C9.56702 10.1928 9.83941 10.4473 10.0469 10.7507L10.1094 10.8416C10.4318 11.3129 10.9947 11.5594 11.5596 11.4763L12.4092 11.3513C13.1617 11.2407 13.7403 10.8913 13.9854 10.3845C14.44 9.44471 14.539 8.48906 14.4874 7.6648C14.4547 7.14336 14.2084 6.70121 13.7774 6.29077C13.3351 5.86954 12.7314 5.51489 12.0684 5.19214C10.6607 4.5069 9.71682 4.50827 7.99616 4.50757Z" fill="white"/>
</svg>
