<svg width="16" height="16" viewBox="0 0 16 16" fill="none" xmlns="http://www.w3.org/2000/svg">
<g clip-path="url(#clip0_274_2168)">
<path d="M10.8562 6.02091C12.3799 6.90071 12.38 9.10014 10.8562 9.9799L8.28491 11.4643C6.80882 12.3164 4.97542 11.311 4.86206 9.64787L4.8562 9.48478L6.3562 9.48478C6.35633 10.0895 7.01118 10.4677 7.53491 10.1654L10.1062 8.68009C10.63 8.37766 10.63 7.62216 10.1062 7.31974L7.53491 5.83537C7.0112 5.533 6.35643 5.9104 6.3562 6.51505L4.8562 6.51505L4.86206 6.35197C4.97187 4.74238 6.69261 3.7491 8.14136 4.45939L8.28491 4.53556L10.8562 6.02091ZM6.3562 9.48478L4.8562 9.48478L4.8562 6.51505L6.3562 6.51505L6.3562 9.48478Z" fill="white"/>
<path d="M9.59961 14.5V16H6.40039V14.5H9.59961ZM14.5 9.59961V6.40039C14.5 5.25553 14.4985 4.48629 14.4502 3.89453C14.4033 3.32077 14.3198 3.04631 14.2275 2.86523C13.9879 2.39483 13.6052 2.01214 13.1348 1.77246C12.9537 1.68023 12.6792 1.59671 12.1055 1.5498C11.5137 1.50146 10.7445 1.5 9.59961 1.5H6.40039C5.25553 1.5 4.48629 1.50146 3.89453 1.5498C3.32077 1.59671 3.04631 1.68023 2.86523 1.77246C2.39483 2.01214 2.01214 2.39483 1.77246 2.86523C1.68023 3.04631 1.59671 3.32077 1.5498 3.89453C1.50146 4.48629 1.5 5.25553 1.5 6.40039V9.59961C1.5 10.7445 1.50146 11.5137 1.5498 12.1055C1.59671 12.6792 1.68023 12.9537 1.77246 13.1348C2.01214 13.6052 2.39483 13.9879 2.86523 14.2275C3.04631 14.3198 3.32077 14.4033 3.89453 14.4502C4.48629 14.4985 5.25553 14.5 6.40039 14.5V16L4.91602 15.9932C3.72431 15.9744 2.96088 15.9041 2.34766 15.6406L2.18359 15.5645C1.52512 15.2289 0.974134 14.7183 0.589844 14.0918L0.435547 13.8164C-0.000427067 12.9608 1.63278e-09 11.8398 1.63278e-09 9.59961V6.40039C1.63278e-09 4.16018 -0.000427067 3.03924 0.435547 2.18359C0.819016 1.43109 1.43109 0.819016 2.18359 0.435547C2.82525 0.108606 3.61607 0.0272847 4.91602 0.00683594L6.40039 1.63278e-09H9.59961C11.8398 1.63278e-09 12.9608 -0.000427067 13.8164 0.435547C14.5689 0.819016 15.181 1.43109 15.5645 2.18359C16.0004 3.03924 16 4.16018 16 6.40039V9.59961C16 11.8398 16.0004 12.9608 15.5645 13.8164L15.4102 14.0918C15.0259 14.7183 14.4749 15.2289 13.8164 15.5645L13.6523 15.6406C12.816 15.9999 11.6999 16 9.59961 16V14.5C10.7445 14.5 11.5137 14.4985 12.1055 14.4502C12.6792 14.4033 12.9537 14.3198 13.1348 14.2275C13.6052 13.9879 13.9879 13.6052 14.2275 13.1348C14.3198 12.9537 14.4033 12.6792 14.4502 12.1055C14.4985 11.5137 14.5 10.7445 14.5 9.59961Z" fill="white"/>
</g>
<defs>
<clipPath id="clip0_274_2168">
<rect width="16" height="16" fill="white"/>
</clipPath>
</defs>
</svg>
