<svg width="16" height="16" viewBox="0 0 16 16" fill="none" xmlns="http://www.w3.org/2000/svg">
<g clip-path="url(#clip0_274_1244)">
<path d="M14.9626 2.24806C15.6848 3.70152 15.4112 5.45238 14.28 6.61623L12.9353 8.00001L14.28 9.3838C15.411 10.5477 15.6839 12.2986 14.9617 13.752C14.275 15.1338 12.82 15.9658 11.2839 15.8672C9.66528 15.7631 8.27537 14.6536 7.82592 13.0908L7.29565 11.2422L5.39135 11.7158C3.82572 12.1053 2.18398 11.4721 1.28589 10.1318C0.421911 8.84232 0.422028 7.15874 1.28589 5.86915C2.18394 4.52876 3.82564 3.89475 5.39135 4.28419L7.29565 4.75783L7.8269 2.90919C8.27652 1.34637 9.66631 0.236868 11.2849 0.132827C12.8208 0.0342611 14.276 0.866211 14.9626 2.24806ZM5.02905 5.73927C4.07689 5.50259 3.07823 5.88814 2.53198 6.70314C2.0064 7.48759 2.0064 8.51243 2.53198 9.29689C3.07822 10.112 4.07681 10.4975 5.02905 10.2608L7.06616 9.75392L7.06616 6.24611L5.02905 5.73927ZM8.56616 6.95607L8.56616 9.04396L10.3835 8.00001L8.56616 6.95607ZM13.2048 5.57033C13.8923 4.86284 14.0589 3.79852 13.6199 2.91505C13.2039 2.07801 12.3183 1.56986 11.3816 1.6299C10.3905 1.6935 9.54171 2.37393 9.26831 3.32423L8.69995 5.30177L11.7585 7.05861L13.2048 5.57033ZM13.6189 13.085C14.0579 12.2015 13.8913 11.1373 13.2039 10.4297L11.7585 8.94044L8.69995 10.6973L9.26733 12.6758C9.54058 13.6262 10.3896 14.3065 11.3806 14.3701C12.3174 14.4302 13.2028 13.9221 13.6189 13.085Z" fill="white"/>
</g>
<defs>
<clipPath id="clip0_274_1244">
<rect width="16" height="16" fill="white"/>
</clipPath>
</defs>
</svg>
