<svg width="16" height="16" viewBox="0 0 16 16" fill="none" xmlns="http://www.w3.org/2000/svg">
<rect x="0.75" y="3.75" width="14.5" height="8.5" rx="2.25" stroke="white" stroke-width="1.5"/>
<path d="M13 9.5C13 10.0523 12.5523 10.5 12 10.5C11.4477 10.5 11 10.0523 11 9.5C11 8.94772 11.4477 8.5 12 8.5C12.5523 8.5 13 8.94772 13 9.5Z" fill="white"/>
<path d="M4 9.75C4 10.1642 3.66421 10.5 3.25 10.5C2.83579 10.5 2.5 10.1642 2.5 9.75L2.5 9.25C2.5 8.83579 2.83579 8.5 3.25 8.5C3.66421 8.5 4 8.83579 4 9.25L4 9.75Z" fill="white"/>
<path d="M7.5 9.75C7.5 10.1642 7.16421 10.5 6.75 10.5C6.33579 10.5 6 10.1642 6 9.75L6 9.25C6 8.83579 6.33579 8.5 6.75 8.5C7.16421 8.5 7.5 8.83579 7.5 9.25L7.5 9.75Z" fill="white"/>
</svg>
