<svg width="16" height="16" viewBox="0 0 16 16" fill="none" xmlns="http://www.w3.org/2000/svg">
<path d="M6.13477 1.15527C6.77556 1.21457 7.38325 1.47934 7.86523 1.91309L9.14258 3.0625H13C14.6567 3.06253 15.9998 4.40583 16 6.0625V11.8564C16 13.5133 14.6568 14.8564 13 14.8564H11.75V14.8574L10.25 14.8564H3C1.34315 14.8564 0 13.5133 0 11.8564V4.14258C0.000146561 2.48585 1.34324 1.14258 3 1.14258H5.8584L6.13477 1.15527ZM8.41895 4.84766C7.7157 5.5509 6.76114 5.94627 5.7666 5.94629H1.5V11.8564C1.5 12.6849 2.17157 13.3564 3 13.3564H10.25V12.5713C10.2502 12.1573 10.5859 11.8213 11 11.8213C11.4141 11.8213 11.7498 12.1573 11.75 12.5713V13.3564H13C13.8284 13.3564 14.5 12.6849 14.5 11.8564V6.0625C14.4998 5.23425 13.8283 4.56253 13 4.5625H11.75V5.71484C11.7497 6.12879 11.414 6.46484 11 6.46484C10.586 6.46484 10.2503 6.12879 10.25 5.71484V4.5625H8.7041L8.41895 4.84766ZM11 7.82129C11.4141 7.82129 11.7498 8.15726 11.75 8.57129V9.71387C11.75 10.1281 11.4142 10.4639 11 10.4639C10.5858 10.4639 10.25 10.1281 10.25 9.71387V8.57129C10.2502 8.15726 10.5859 7.82129 11 7.82129ZM3 2.64258C2.17166 2.64258 1.50015 3.31428 1.5 4.14258V4.44629H5.7666C6.36316 4.44627 6.93551 4.20885 7.35742 3.78711L7.52148 3.62207L6.86133 3.02734C6.58599 2.77976 6.22869 2.64261 5.8584 2.64258H3Z" fill="white"/>
</svg>
