<svg width="170" height="50" viewBox="0 0 170 50" fill="none" xmlns="http://www.w3.org/2000/svg">
<g clip-path="url(#clip0_60_1485)">
<path d="M50 -6.10352e-05V39.9999L40 49.9999H0L10 39.9999H35L40 34.9999V9.99994H0L10 -6.10352e-05H50Z" fill="#5A1E17"/>
</g>
<path d="M100 50H60L70 40H110L100 50ZM100 10H60L70 0H110L100 10Z" fill="#5A1E17"/>
<path d="M145 17.3906L158.333 0H170L150.833 25L170 50H158.333L145 32.6084L131.667 50H120L139.166 25L120 0H131.667L145 17.3906Z" fill="#5A1E17"/>
<defs>
<clipPath id="clip0_60_1485">
<rect width="50" height="50" fill="white"/>
</clipPath>
</defs>
</svg>
